<?xml version="1.0" encoding="utf-8"?>
<!-- Generator: Adobe Illustrator 26.1.0, SVG Export Plug-In . SVG Version: 6.00 Build 0)  -->
<svg version="1.1" xmlns="http://www.w3.org/2000/svg" xmlns:xlink="http://www.w3.org/1999/xlink" x="0px" y="0px"
	 viewBox="0 0 500 400" style="enable-background:new 0 0 500 400;" xml:space="preserve">
<g id="BACKGROUND">
</g>
<g id="OBJECTS">
	<path style="fill:#9192FF;" d="M123.28,199.85l-0.53-0.56l3.34-3.2l0.53,0.56L123.28,199.85z M129.96,193.44l-0.54-0.55
		c1.09-1.07,2.17-2.18,3.24-3.29l0.55,0.54C132.14,191.25,131.05,192.36,129.96,193.44z M136.37,186.74l-0.57-0.52
		c1.02-1.12,2.05-2.29,3.06-3.46l0.58,0.51C138.42,184.45,137.39,185.61,136.37,186.74z M142.42,179.72l-0.59-0.49
		c0.96-1.17,1.93-2.39,2.88-3.61l0.61,0.47C144.35,177.32,143.38,178.54,142.42,179.72z M148.11,172.41l-0.62-0.46
		c0.9-1.22,1.81-2.48,2.71-3.74l0.63,0.45C149.93,169.92,149.02,171.18,148.11,172.41z M153.47,164.84l-0.64-0.43
		c0.86-1.28,1.71-2.56,2.55-3.85l0.65,0.42C155.18,162.27,154.33,163.56,153.47,164.84z M195.63,159.49c-1.42,0-2.85-0.27-4.15-0.79
		l0.29-0.72c1.2,0.48,2.54,0.74,3.86,0.74c0.19-0.02,0.33,0,0.5-0.01l0.04,0.77C195.98,159.48,195.77,159.47,195.63,159.49z
		 M200.74,158.17l-0.38-0.67c1.27-0.73,2.33-1.81,3.07-3.11l0.67,0.38C203.28,156.19,202.12,157.37,200.74,158.17z M158.5,157.05
		l-0.65-0.41c0.81-1.31,1.61-2.63,2.39-3.95l0.66,0.39C160.11,154.42,159.31,155.74,158.5,157.05z M187.58,155.98
		c-1.04-1.12-1.89-2.46-2.53-4l0.71-0.3c0.61,1.46,1.41,2.73,2.39,3.78L187.58,155.98z M205.36,150.17l-0.77-0.02l0-0.21
		c0-1.16-0.24-2.29-0.68-3.28c-0.12-0.26-0.24-0.51-0.38-0.75l0.67-0.38c0.15,0.26,0.29,0.54,0.41,0.82
		c0.49,1.09,0.75,2.33,0.75,3.6L205.36,150.17z M163.53,149.36l-0.59-0.5c1-1.2,2.1-2.32,3.28-3.34l0.5,0.58
		C165.58,147.1,164.5,148.2,163.53,149.36z M183.86,147.4c-0.09-0.73-0.13-1.48-0.13-2.23c0-0.82,0.05-1.65,0.16-2.48l0.76,0.1
		c-0.1,0.8-0.15,1.6-0.15,2.38c0,0.72,0.04,1.44,0.13,2.14L183.86,147.4z M170.39,143.41l-0.41-0.66c1.31-0.81,2.7-1.54,4.14-2.16
		l0.3,0.71C173.03,141.91,171.67,142.62,170.39,143.41z M200.58,142.61c-1.12-0.86-2.44-1.59-3.93-2.2l0.29-0.72
		c1.55,0.63,2.94,1.4,4.11,2.3L200.58,142.61z M178.74,139.79l-0.2-0.74c1.5-0.41,3.04-0.72,4.58-0.91l0.1,0.77
		C181.71,139.1,180.21,139.39,178.74,139.79z M192.29,139.15c-1.46-0.28-2.98-0.44-4.52-0.48l0.02-0.77
		c1.59,0.04,3.15,0.2,4.65,0.49L192.29,139.15z M185.71,138.37l-0.72-0.26c0.52-1.46,1.21-2.89,2.03-4.24l0.66,0.4
		C186.88,135.58,186.22,136.96,185.71,138.37z M190.41,130.65l-0.56-0.53c0.22-0.24,0.45-0.48,0.69-0.71
		c0.86-0.85,1.81-1.66,2.82-2.4l0.45,0.62c-0.98,0.72-1.9,1.5-2.73,2.33C190.85,130.19,190.63,130.42,190.41,130.65z M197.7,125.27
		l-0.34-0.69c1.39-0.69,2.85-1.27,4.34-1.73l0.22,0.74C200.47,124.03,199.05,124.6,197.7,125.27z M206.38,122.44l-0.19-0.75
		c1.5-0.39,3-0.79,4.45-1.2l0.21,0.74C209.39,121.64,207.89,122.05,206.38,122.44z M215.28,119.9l-0.23-0.74
		c1.48-0.47,2.95-0.96,4.37-1.45l0.25,0.73C218.25,118.94,216.77,119.43,215.28,119.9z M224.02,116.83l-0.28-0.72
		c1.44-0.56,2.87-1.15,4.26-1.75l0.31,0.71C226.91,115.68,225.47,116.27,224.02,116.83z M232.52,113.15l-0.33-0.7l4.15-2.02
		l0.34,0.69L232.52,113.15z M240.83,109.1l-0.34-0.69l4.15-2.02l0.34,0.69L240.83,109.1z M249.13,105.05l-0.34-0.69l4.15-2.03
		l0.34,0.69L249.13,105.05z M257.44,101l-0.34-0.69l4.15-2.02l0.34,0.69L257.44,101z M265.74,96.95l-0.34-0.69l4.15-2.02l0.34,0.69
		L265.74,96.95z"/>
	<path style="fill:#EBEBFF;" d="M247.92,36.26c0,0.16,0,0.31,0.02,0.47h101.2c-0.26-8.37-7.53-15.08-16.43-15.08
		c-2.86,0-5.53,0.69-7.87,1.89c0.12-6.51-3-12.75-8.75-16.1c-8.62-5.01-19.91-1.61-25.19,7.61c-1.59,2.78-2.46,5.77-2.66,8.74
		c-4.21-1.93-9.42-3.08-15.08-3.08C259.23,20.71,247.92,27.67,247.92,36.26z"/>
	<path style="fill:#9192FF;" d="M83.19,190.62H-0.26l0.01-0.3c0.22-7.08,6.26-12.63,13.75-12.63c2.14,0,4.25,0.47,6.16,1.38
		c0.06-5.42,2.83-10.36,7.31-12.97c3.34-1.94,7.29-2.44,11.12-1.41c4.17,1.12,7.69,3.87,9.91,7.75c1.23,2.15,1.96,4.46,2.18,6.87
		c3.55-1.56,7.73-2.38,12.1-2.38c11.56,0,20.97,5.84,20.97,13.03c0,0.14,0,0.28-0.02,0.42L83.19,190.62z M0.34,190.04h82.32
		c0-0.03,0-0.06,0-0.1c0-6.86-9.15-12.45-20.39-12.45c-4.44,0-8.67,0.86-12.23,2.5l-0.38,0.17l-0.03-0.42
		c-0.16-2.47-0.88-4.83-2.14-7.03c-2.14-3.74-5.54-6.4-9.56-7.48c-3.68-0.99-7.47-0.51-10.68,1.35c-4.43,2.58-7.12,7.53-7.02,12.93
		l0.01,0.48l-0.43-0.22c-1.93-0.99-4.11-1.52-6.32-1.52C6.43,178.27,0.71,183.42,0.34,190.04z"/>
	<g>
		<g>
			<defs>
				<path id="SVGID_1_" d="M278.42,177.39c0,7.92,6.4,14.34,14.3,14.34h158.8c7.9,0,14.3-6.42,14.3-14.34V80.47H278.42V177.39z"/>
			</defs>
			<clipPath id="SVGID_00000162344645224871653860000000804020270533705907_">
				<use xlink:href="#SVGID_1_"  style="overflow:visible;"/>
			</clipPath>
			<path style="clip-path:url(#SVGID_00000162344645224871653860000000804020270533705907_);fill:#FFFFFF;" d="M278.42,177.39
				c0,7.92,6.4,14.34,14.3,14.34h158.8c7.9,0,14.3-6.42,14.3-14.34V80.47H278.42V177.39z"/>
			<path style="clip-path:url(#SVGID_00000162344645224871653860000000804020270533705907_);fill:#D1D1FF;" d="M268.61,105.19
				c2.19-7.05,9.12-12.45,16.69-13.03c7.57-0.57,15.3,3.73,18.61,10.36c4.03-0.04,8,2.2,9.96,5.62c1.96,3.42,1.82,7.86-0.35,11.15
				c4.8,0.83,9.11,4,11.23,8.26s2.01,9.49-0.3,13.65c5.28-2.69,12.03-2.45,17.1,0.62c5.07,3.07,8.26,8.85,8.08,14.63
				c3.29-5.18,9.6-8.4,15.86-8.11c6.27,0.29,12.25,4.07,15.04,9.53c2.94-8.83,10.79-15.97,20.08-18.25s19.7,0.37,26.65,6.78
				c10.45,1.64,18.07,13.02,15.35,22.93c5.65,4.69,8.53,12.31,7.35,19.41c-1.18,7.11-6.39,13.45-13.26,16.17l-179.83-0.12
				l-15.33-68.83L268.61,105.19z"/>
			<g style="opacity:0.8;clip-path:url(#SVGID_00000162344645224871653860000000804020270533705907_);">
				<path style="fill:#FFFFFF;" d="M265.76,128.04c2.12-7.05,8.82-12.46,16.14-13.04c7.32-0.58,14.78,3.71,17.97,10.34
					c3.89-0.04,7.73,2.2,9.62,5.61c1.89,3.41,1.75,7.86-0.34,11.15c4.63,0.83,8.79,3.99,10.84,8.25c2.05,4.25,1.93,9.49-0.3,13.65
					c5.1-2.7,11.63-2.46,16.52,0.61s7.97,8.84,7.8,14.62c3.18-5.18,9.28-8.41,15.33-8.13c6.06,0.28,11.83,4.06,14.52,9.51
					c2.85-8.84,10.44-15.97,19.41-18.26c8.97-2.29,19.04,0.35,25.75,6.75c10.1,1.63,17.45,13.01,14.81,22.92
					c5.45,4.68,8.23,12.3,7.09,19.41c-1.15,7.11-6.18,13.46-12.82,16.18l-173.74,0.03l-14.76-68.81L265.76,128.04z"/>
			</g>
			<g style="clip-path:url(#SVGID_00000162344645224871653860000000804020270533705907_);">
				<path style="opacity:0.7;fill:#FFF2E0;" d="M403.89,83.58c-52.05,49.1-88.95,62.34-135.45,67.07l-3.09,49.58l48.81,16.73
					c42.63-1.24,83.56-63.15,108.85-116.26L403.89,83.58"/>
				<path style="fill:#FFA121;" d="M411.22,84.21c-8.46,10.04-21.22,19.65-36.28,32.62l20.54-8.4c-2.52,4.19-6.19,10.05-8.24,12.56
					c4.73-2.19,12.35-7.01,14.87-9.57c0,3.57-4.29,9.53-6.15,12.79c10.95-9.4,20.92-20.89,24.14-30.97L411.22,84.21"/>
				<path style="opacity:0.4;fill:#FFFFFF;" d="M413.62,84.72c-5.01,6.66-12.5,13.07-21.35,21.71l11.98-5.7
					c-1.5,2.76-3.69,6.63-4.9,8.3c2.76-1.48,7.23-4.72,8.72-6.41c-0.04,2.33-2.58,6.28-3.7,8.43c6.44-6.26,12.33-13.88,14.3-20.51
					L413.62,84.72"/>
			</g>
			<path style="clip-path:url(#SVGID_00000162344645224871653860000000804020270533705907_);fill:#D1D1FF;" d="M335.9,118.83
				c0.07,1.55,0,4.17-1.55,5.07c-2.58,1.5-4.61-2.14-5.56-3.97c-1.13-2.18-0.84-4.89,1.71-5.87
				C333.88,112.78,335.78,115.94,335.9,118.83z"/>
			<path style="clip-path:url(#SVGID_00000162344645224871653860000000804020270533705907_);fill:#D1D1FF;" d="M458.26,165.96
				c0.07,1.55,0,4.17-1.55,5.07c-2.58,1.5-4.61-2.14-5.56-3.97c-1.13-2.18-0.84-4.89,1.71-5.87
				C456.24,159.91,458.13,163.07,458.26,165.96z"/>
			
				<ellipse style="clip-path:url(#SVGID_00000162344645224871653860000000804020270533705907_);fill:#D1D1FF;" cx="322.19" cy="101.27" rx="2.16" ry="2.17"/>
			
				<ellipse style="clip-path:url(#SVGID_00000162344645224871653860000000804020270533705907_);fill:#D1D1FF;" cx="432.16" cy="140.42" rx="3.29" ry="3.3"/>
		</g>
		<g>
			<path style="fill:#9192FF;" d="M451.51,192.05H292.72c-8.05,0-14.61-6.57-14.61-14.65V80.16h188.01v97.23
				C466.12,185.47,459.56,192.05,451.51,192.05z M278.73,80.78v96.61c0,7.74,6.27,14.03,13.99,14.03h158.79
				c7.71,0,13.99-6.29,13.99-14.03V80.78H278.73z"/>
			<g>
				<path style="fill:#FFFFFF;" d="M451.51,42.92h-158.8c-7.9,0-14.3,6.42-14.3,14.34v23.21h187.39V57.27
					C465.81,49.34,459.41,42.92,451.51,42.92z"/>
				<path style="fill:#9192FF;" d="M466.12,80.78H278.11V57.27c0-8.08,6.55-14.65,14.61-14.65h158.79c8.05,0,14.61,6.57,14.61,14.65
					V80.78z M278.73,80.16H465.5v-22.9c0-7.74-6.27-14.03-13.99-14.03H292.72c-7.71,0-13.99,6.29-13.99,14.03V80.16z"/>
			</g>
			<g>
				<ellipse style="fill:#D1D1FF;" cx="297.3" cy="61.7" rx="7.84" ry="7.86"/>
				<g>
					<ellipse style="fill:#FFFFFF;" cx="320.38" cy="61.7" rx="7.84" ry="7.86"/>
					<path style="fill:#9192FF;" d="M320.38,69.87c-4.49,0-8.15-3.67-8.15-8.17c0-4.51,3.65-8.17,8.15-8.17s8.15,3.67,8.15,8.17
						C328.53,66.2,324.87,69.87,320.38,69.87z M320.38,54.15c-4.15,0-7.53,3.39-7.53,7.55c0,4.16,3.38,7.55,7.53,7.55
						s7.53-3.39,7.53-7.55C327.91,57.53,324.53,54.15,320.38,54.15z"/>
				</g>
				<g>
					<path style="fill:#FFFFFF;" d="M380.02,69.2h-31.16c-4.14,0-7.5-3.36-7.5-7.5v0c0-4.14,3.36-7.5,7.5-7.5h31.16
						c4.14,0,7.5,3.36,7.5,7.5v0C387.53,65.84,384.17,69.2,380.02,69.2z"/>
					<path style="fill:#9192FF;" d="M380.05,69.51h-31.21c-4.3,0-7.79-3.51-7.79-7.81s3.49-7.81,7.79-7.81h31.21
						c4.3,0,7.79,3.51,7.79,7.81S384.34,69.51,380.05,69.51z M348.84,54.5c-3.95,0-7.17,3.23-7.17,7.2c0,3.97,3.22,7.2,7.17,7.2
						h31.21c3.95,0,7.17-3.23,7.17-7.2c0-3.97-3.22-7.2-7.17-7.2H348.84z"/>
				</g>
			</g>
		</g>
		<g>
			<g>
				<path style="fill:#3335CF;" d="M443.74,25.82c-12.51,10.99-34.1,3.41-40.8,12.19l19.16,15.22L443.74,25.82z"/>
				<path style="fill:#D1D1FF;" d="M402.93,38.01L402.93,38.01c-0.96,2.56-0.44,5.44,1.35,7.5l13.58,15.6l4.23-7.88L402.93,38.01z"
					/>
			</g>
			<g>
				<path style="fill:#3335CF;" d="M472.1,48.35c-7.79,14.74,4.5,34.08-2.48,42.64l-19.16-15.22L472.1,48.35z"/>
				<path style="fill:#D1D1FF;" d="M469.63,90.99L469.63,90.99c-2.26,1.52-5.18,1.68-7.59,0.4l-18.25-9.68l6.68-5.94L469.63,90.99z"
					/>
			</g>
			<polygon style="fill:#1B1B43;" points="481.84,6.93 464.78,13.21 479.65,25.03 			"/>
			<path style="fill:#C5C5FF;" d="M479.65,25.03c-2.38,27.08-22.33,52.36-46.56,66.4L411.01,73.9
				c9.26-29.24,26.52-50.17,53.77-60.69L479.65,25.03z"/>
			<polygon style="fill:#3335CF;" points="411.01,73.9 401.43,80.56 428.83,102.32 433.09,91.42 			"/>
			<g>
				<ellipse style="fill:#FFFFFF;" cx="458.37" cy="36.66" rx="10.25" ry="10.28"/>
				<path style="fill:#9192FF;" d="M459.14,43.94l-0.07-0.62c0.59-0.06,1.17-0.2,1.72-0.42l0.22,0.58
					C460.42,43.72,459.79,43.88,459.14,43.94z M457.22,43.9c-0.64-0.1-1.26-0.29-1.85-0.56l0.25-0.56c0.54,0.24,1.11,0.41,1.69,0.51
					L457.22,43.9z M462.71,42.55l-0.37-0.5c0.47-0.35,0.9-0.77,1.27-1.23l0.48,0.38C463.69,41.72,463.23,42.17,462.71,42.55z
					 M453.73,42.32c-0.5-0.41-0.94-0.89-1.32-1.42l0.5-0.36c0.34,0.48,0.75,0.92,1.21,1.3L453.73,42.32z M464.85,40.04l-0.55-0.29
					c0.27-0.53,0.47-1.09,0.6-1.67l0.6,0.13C465.37,38.86,465.15,39.47,464.85,40.04z M451.51,39.19c-0.22-0.61-0.36-1.24-0.42-1.89
					l0.62-0.05c0.05,0.59,0.18,1.17,0.38,1.73L451.51,39.19z M465.05,36.32c-0.03-0.59-0.14-1.18-0.32-1.74l0.59-0.19
					c0.2,0.61,0.32,1.25,0.35,1.9L465.05,36.32z M451.79,35.48l-0.61-0.11c0.11-0.64,0.31-1.26,0.59-1.84l0.56,0.27
					C452.07,34.32,451.89,34.89,451.79,35.48z M463.96,32.98c-0.32-0.49-0.71-0.95-1.16-1.34l0.41-0.46
					c0.48,0.43,0.91,0.92,1.26,1.46L463.96,32.98z M453.29,32.3l-0.47-0.4c0.42-0.49,0.9-0.93,1.43-1.29l0.35,0.51
					C454.11,31.45,453.67,31.85,453.29,32.3z M461.34,30.65c-0.53-0.26-1.09-0.46-1.67-0.57l0.12-0.61
					c0.63,0.13,1.25,0.34,1.83,0.62L461.34,30.65z M456.18,30.32l-0.2-0.59c0.61-0.21,1.24-0.34,1.89-0.39l0.04,0.62
					C457.32,30.01,456.74,30.13,456.18,30.32z"/>
			</g>
			<path style="fill:#1B1B43;" d="M407.63,100.94L407.63,100.94c-0.85-0.68-1-1.93-0.32-2.78l18.83-23.86
				c0.67-0.85,1.92-1,2.77-0.32l0,0c0.85,0.68,1,1.93,0.32,2.78l-18.83,23.86C409.73,101.47,408.48,101.61,407.63,100.94z"/>
		</g>
	</g>
	<g>
		<path style="fill:#9192FF;" d="M450.01,351.64h-4.62v-0.77h4.62V351.64z M440.78,351.64h-4.62v-0.77h4.62V351.64z M431.55,351.64
			h-4.62v-0.77h4.62V351.64z M422.31,351.64h-4.62v-0.77h4.62V351.64z M413.08,351.64h-4.62v-0.77h4.62V351.64z M403.84,351.64
			h-4.62v-0.77h4.62V351.64z M394.61,351.64h-4.62v-0.77h4.62V351.64z M385.37,351.64h-4.62v-0.77h4.62V351.64z M376.14,351.64
			h-4.62v-0.77h4.62V351.64z M366.9,351.64h-4.62v-0.77h4.62V351.64z M357.67,351.64c-1.59-0.01-3.16-0.28-4.65-0.8l0.25-0.73
			c1.42,0.49,2.9,0.74,4.41,0.75L357.67,351.64z M450.57,351.63l-0.03-0.77c1.51-0.06,2.98-0.35,4.39-0.88l0.27,0.72
			C453.72,351.25,452.16,351.57,450.57,351.63z M348.85,348.61c-1.26-0.97-2.35-2.12-3.25-3.43l0.64-0.44
			c0.85,1.24,1.88,2.34,3.08,3.26L348.85,348.61z M459.29,348.35l-0.48-0.6c1.17-0.95,2.17-2.07,2.99-3.34l0.65,0.42
			C461.59,346.16,460.53,347.34,459.29,348.35z M343.6,340.88c-0.37-1.31-0.56-2.68-0.56-4.05v-0.63h0.77v0.63
			c0,1.31,0.18,2.6,0.53,3.84L343.6,340.88z M464.32,340.48l-0.75-0.19c0.28-1.12,0.43-2.29,0.43-3.46v-1.04h0.77v1.04
			C464.77,338.06,464.62,339.29,464.32,340.48z M343.81,331.57h-0.77v-4.63h0.77V331.57z M464.77,331.16H464v-4.63h0.77V331.16z
			 M343.81,322.3h-0.77v-4.63h0.77V322.3z M464.77,321.89H464v-4.63h0.77V321.89z M343.81,313.04h-0.77v-4.63h0.77V313.04z
			 M464.77,312.63H464V308h0.77V312.63z M343.81,303.78h-0.77v-4.63h0.77V303.78z M464.77,303.37H464v-4.63h0.77V303.37z
			 M343.81,294.51h-0.77v-4.63h0.77V294.51z M464.77,294.1H464v-4.63h0.77V294.1z M343.81,285.25h-0.77v-3.09
			c0-0.53,0.03-1.06,0.08-1.58l0.77,0.08c-0.05,0.5-0.08,1-0.08,1.5V285.25z M464.77,284.84H464v-2.68c0-0.63-0.04-1.27-0.13-1.9
			l0.76-0.1c0.09,0.66,0.13,1.33,0.13,2V284.84z M345.07,276.33l-0.7-0.32c0.66-1.44,1.54-2.77,2.62-3.94l0.56,0.53
			C346.53,273.71,345.7,274.96,345.07,276.33z M462.57,275.98c-0.66-1.35-1.53-2.58-2.59-3.66l0.55-0.54
			c1.12,1.14,2.04,2.43,2.73,3.86L462.57,275.98z M351.09,269.85l-0.37-0.68c1.39-0.77,2.89-1.3,4.45-1.58l0.14,0.76
			C353.83,268.62,352.41,269.12,351.09,269.85z M456.38,269.66c-1.34-0.69-2.77-1.15-4.26-1.37l0.11-0.76
			c1.57,0.24,3.08,0.73,4.49,1.45L456.38,269.66z M447.57,268.13h-4.62v-0.77h4.62V268.13z M438.33,268.13h-4.62v-0.77h4.62V268.13z
			 M429.1,268.13h-4.62v-0.77h4.62V268.13z M419.86,268.13h-4.62v-0.77h4.62V268.13z M410.63,268.13h-4.62v-0.77h4.62V268.13z
			 M401.4,268.13h-4.62v-0.77h4.62V268.13z M392.16,268.13h-4.62v-0.77h4.62V268.13z M382.93,268.13h-4.62v-0.77h4.62V268.13z
			 M373.69,268.13h-4.62v-0.77h4.62V268.13z M364.46,268.13h-4.62v-0.77h4.62V268.13z"/>
		<path style="fill:#9192FF;" d="M416.04,338.26h-47.14c-20.39,0-36.91-16.53-36.91-36.91v-11.98c0-20.39,16.53-36.91,36.91-36.91
			h47.14c20.39,0,36.91,16.53,36.91,36.91v11.98C452.95,321.73,436.43,338.26,416.04,338.26z"/>
		<g>
			<rect x="353.02" y="302.57" style="fill:#FFFFFF;" width="13.1" height="26.68"/>
			<rect x="374.96" y="303.43" style="fill:#FFFFFF;" width="13.1" height="25.83"/>
			<rect x="396.89" y="289.94" style="fill:#FFFFFF;" width="13.1" height="39.32"/>
			<rect x="418.83" y="278.4" style="fill:#FFFFFF;" width="13.1" height="50.85"/>
		</g>
		<rect x="357.34" y="264.53" style="fill:#FFFFFF;" width="70.28" height="3.08"/>
	</g>
	<g>
		<g>
			<g>
				<path style="fill:#FFA121;" d="M143.36,168.68c-2.23-7.74-6.94-14.54-13.41-19.32l-2.6-1.92l2.21,45.77l17.05-13.23
					L143.36,168.68z"/>
				<path style="fill:#FFBC96;" d="M198.16,224.01l-3.79-7.44c-0.96-1.89-2.66-3.28-4.7-3.84l-11.15-3.1l-28.68-18.37l-3.24-11.27
					l-17.05,13.23l0.15,3.22c0.31,6.45,4.25,12.16,10.16,14.72l27.84,12.05l13.24,0.3c4.26,1.48,5.74,5.16,8.38,3.84
					c0.99-0.49-2.87-6.86-2.87-6.86l6.4,7.08L198.16,224.01z"/>
				<polygon style="fill:#D28572;" points="146.44,195.97 145.76,195.4 149.51,190.97 150.19,191.55 				"/>
			</g>
			<g>
				<path style="fill:#26289C;" d="M148.28,242.55l20.86-1.85c13.58-1.2,25.39,9.8,26.06,24.26l4.71,103.07l-28.78,0.9
					L148.28,242.55z"/>
				<g>
					<polygon style="fill:#1B1B43;" points="173.45,367.92 174.34,396.39 216.98,396.39 195.95,378.83 194.63,365.11 					"/>
					<polygon style="fill:#FFFFFF;" points="187.52,386.47 186.44,385.07 195.41,378.13 196.49,379.53 					"/>
				</g>
			</g>
			<g>
				<g>
					<polygon style="fill:#D1D1FF;" points="163.75,367.92 164.63,396.39 207.28,396.39 186.25,378.83 184.92,365.11 					"/>
					<polygon style="fill:#FFFFFF;" points="177.81,386.47 176.74,385.07 185.71,378.13 186.79,379.53 					"/>
				</g>
				<path style="fill:#3335CF;" d="M195.51,370.72h-35.29l-25.16-77.64l-3.52-10.87l-50.29-0.22c-3.11-0.04-6.08-1.49-8.6-3.62
					c-5.35-4.52-7.81-11.63-6.84-18.58l4.41-31.57l74.72,9.75c14.17,1.85,25.61,12.49,28.53,26.52L195.51,370.72z"/>
				<polygon style="fill:#1B1B43;" points="141.91,282.21 135.06,293.08 131.54,282.21 				"/>
			</g>
			<g>
				<path style="fill:#FFA121;" d="M132.67,222.5c-0.36,1.46-0.74,2.92-1.13,4.39l-2.65,10.84l-34.85-1.45l-25.09-1.04
					c-6.65-0.27-11.47-6.47-10.11-13.01l11.7-56.48c1.5-9.6,9.27-16.99,18.92-17.99l28.63-2.96l9.26,2.66
					c9.04,4.87,9.05,13.69,9.49,19.47C138.73,192.22,136.39,207.54,132.67,222.5z"/>
				<path style="opacity:0.3;fill:#1B1B43;" d="M109.04,220.69c-0.36,1.46,22.89,4.73,22.5,6.2l-2.65,10.84l-34.85-1.45
					c-12.18-9.21-16.74-29.26-21.18-54.38L109.04,220.69z"/>
				<path style="fill:#1B1B43;" d="M102.12,161.13c1.53,1.64,3.26,3.07,5.21,4.14c1.94,1.07,4.04,1.85,6.22,2.11
					c2.16,0.28,4.44,0.1,6.33-0.93c1.94-0.97,3.17-3.01,3.4-5.22l0.34,0.02c-0.01,1.16-0.3,2.33-0.88,3.37
					c-0.58,1.04-1.46,1.9-2.49,2.5c-2.07,1.2-4.54,1.42-6.82,1.13c-2.3-0.32-4.52-1.13-6.48-2.33c-1.98-1.18-3.71-2.76-5.1-4.57
					L102.12,161.13z"/>
				<path style="fill:#1B1B43;" d="M137.61,195.64l-0.66-0.05c0.63-8.91-0.01-19.85-1.91-32.53l0.65-0.1
					C137.6,175.69,138.24,186.68,137.61,195.64z"/>
			</g>
			<g>
				<rect x="164.04" y="227.03" style="fill:#1B1B43;" width="32.79" height="6.49"/>
				<polygon style="fill:#9192FF;" points="253.6,233.53 187.72,233.53 218.01,175.4 283.89,175.4 				"/>
			</g>
			<g>
				<path style="fill:#1B1B43;" d="M109.37,98.32c-7.72-7.63-22.28-4.43-22.06,8.41c-15.88,4.2-16.76,21.69-10.37,30.65l5.51,0.44
					l1.21-6.53l3.2,6.64l15.44,1L109.37,98.32z"/>
				<path style="fill:#FFBC96;" d="M122.28,126.87v24.39c0,0.22-0.01,0.43-0.03,0.65c-0.38,5.02-5.22,8.57-10.17,7.28
					c-7.3-1.89-12.37-8.51-12.31-16.07l0.12-16.24H122.28z"/>
				<path style="fill:#1B1B43;" d="M122.28,137.41v13.84c0,0.22-0.01,0.43-0.03,0.65c-6.5-1.07-14.02-8.62-15.86-16.84
					L122.28,137.41z"/>
				<path style="fill:#FFBC96;" d="M135.43,128.67c-0.34,1.94-0.79,3.92-1.39,5.81c-1.94,6.19-5.43,11.32-11.66,10.43
					c-14.66-2.11-22.83-17.26-22.83-17.26l10.03-11.51l6.73-9.08l20.18,8.75C136.5,115.8,136.61,121.99,135.43,128.67z"/>
				<path style="fill:#1B1B43;" d="M103.89,123.77c6.44-0.21,11.41-3.49,13.53-12.83c0,0,15,12.98,22.35,6.05
					c6.16-5.81-4.29-19.16-21.58-20.76c-6.3-0.58-12.58,1.39-17.51,5.36c-8.38,6.74-9.18,22.4-1.35,27.82L103.89,123.77z"/>
				<path style="fill:#FFA121;" d="M96.36,107.39c-0.42-1.53-0.11-3.22,0.57-4.67c0.69-1.47,1.75-2.74,3.02-3.73
					c1.27-0.99,2.76-1.7,4.32-2.03c1.56-0.32,3.22-0.27,4.66,0.36c-1.49,0.48-2.78,0.99-3.99,1.62c-1.21,0.62-2.32,1.34-3.37,2.15
					c-1.04,0.81-2.01,1.71-2.88,2.74C97.81,104.86,97.04,105.98,96.36,107.39z"/>
				<g>
					
						<ellipse transform="matrix(0.9305 -0.3663 0.3663 0.9305 -38.6264 46.0204)" style="fill:#FFBC96;" cx="101.97" cy="124.8" rx="5.02" ry="6.08"/>
					<path style="fill:#1B1B43;" d="M101.96,128.14c0.11-1.08,0.12-2.1-0.2-3.04c-0.3-0.94-0.9-1.76-1.59-2.61l0.22-0.27
						c1,0.52,1.84,1.45,2.21,2.61c0.36,1.15,0.21,2.41-0.31,3.41L101.96,128.14z"/>
				</g>
				<g>
					<path style="fill:#1B1B43;" d="M126.07,124.88c0,0.91-0.67,1.65-1.49,1.65s-1.49-0.74-1.49-1.65c0-0.91,0.67-1.65,1.49-1.65
						S126.07,123.97,126.07,124.88z"/>
					<path style="fill:#1B1B43;" d="M133.89,126.18c-0.1,0.81-0.77,1.39-1.5,1.3c-0.73-0.09-1.24-0.82-1.14-1.62
						c0.1-0.81,0.77-1.39,1.5-1.3C133.48,124.65,133.99,125.38,133.89,126.18z"/>
					<path style="fill:#1B1B43;" d="M125.99,120.73c0.06,0.77-1.17,0.85-2.99,0.9c-1.82,0.05-3.07,0.62-3.09,0.13
						c-0.01-0.49,1.33-1.74,3.12-2.05C124.88,119.4,125.92,119.81,125.99,120.73z"/>
					<path style="fill:#1B1B43;" d="M131.79,121.47c-0.13,0.76,0.77,0.96,2.12,1.19c1.34,0.24,2.21,0.92,2.28,0.44
						c0.07-0.48-0.79-1.87-2.08-2.35C132.77,120.26,131.95,120.57,131.79,121.47z"/>
					<path style="fill:#1B1B43;" d="M129.63,127.56c0.34,0.42,0.73,0.79,1.12,1.16l0.6,0.56c0.21,0.19,0.43,0.39,0.63,0.71
						c0.1,0.16,0.18,0.36,0.19,0.59c0.02,0.23-0.05,0.46-0.15,0.63c-0.2,0.34-0.45,0.54-0.71,0.72c-0.53,0.35-1.1,0.49-1.65,0.6
						l-0.13-0.32c0.47-0.31,0.95-0.58,1.32-0.9c0.18-0.16,0.35-0.35,0.41-0.5c0.07-0.15,0.05-0.2-0.03-0.37
						c-0.2-0.32-0.7-0.75-1.02-1.2c-0.36-0.45-0.68-0.95-0.87-1.51L129.63,127.56z"/>
					<path style="fill:#1B1B43;" d="M122.17,133.01c0.9,1.03,1.84,1.99,2.97,2.59c1.12,0.62,2.4,0.8,3.75,0.65l0.09,0.33
						c-0.65,0.29-1.39,0.45-2.13,0.4c-0.74-0.03-1.48-0.26-2.13-0.62c-1.3-0.73-2.26-1.9-2.84-3.18L122.17,133.01z"/>
					<ellipse style="opacity:0.2;fill:#FE5B52;" cx="116.87" cy="128.41" rx="3.64" ry="3.65"/>
					<path style="opacity:0.2;fill:#FE5B52;" d="M135.43,128.67c-0.34,1.94-0.79,3.92-1.39,5.81c-0.56-0.65-0.91-1.49-0.91-2.42
						C133.14,130.52,134.09,129.21,135.43,128.67z"/>
				</g>
			</g>
			<g>
				<g>
					<polygon style="fill:#FFA121;" points="93.89,171.86 72.87,181.89 79.46,197.58 101.51,187.37 					"/>
					<path style="fill:#C5C5FF;" d="M171.79,226.25c-0.58-0.29-0.95-0.49-0.95-0.49l0.21-0.42c0,0,0.39,0.19,0.95,0.49
						L171.79,226.25z"/>
					<path style="fill:#FFBC96;" d="M180.51,228.44c-0.68,1.35-5.89-1.04-8.31-2.23c1.88,1.04,5.12,3.1,3.68,4.22
						c-1.16,0.89-3.71-1.01-12.1-4.5c1.27,0.6,8.76,4.18,6.87,5.53c-2.06,1.47-10.88-1.77-10.88-1.77l-7.65,4.12h-8.82l-31.75,0.2
						c-1.99,0.01-3.97-0.25-5.89-0.74c-3.77-0.96-7.31-2.84-10.32-5.36c-1.9-1.59-3.53-3.46-4.9-5.51c-1.02-1.54-1.9-3.2-2.62-4.92
						l-8.37-19.9l22.05-10.21l11.51,23.43l37.94,8.27l10.59-2.66c2.28-0.58,5.5,0.39,7.5,1.62
						C173.93,221.04,181.15,227.15,180.51,228.44z"/>
				</g>
				<path style="opacity:0.2;fill:#FE5B52;" d="M106.24,229.98c0,1.16-0.2,2.27-0.57,3.29c-3.77-0.96-7.31-2.84-10.32-5.36
					c-1.9-1.59-3.53-3.46-4.9-5.51c1.67-1.35,3.79-2.15,6.09-2.15C101.9,220.25,106.24,224.6,106.24,229.98z"/>
				<path style="fill:#D28572;" d="M150.9,218.9c2.63-0.88,5.3-1.63,8.02-2.2c1.36-0.28,2.74-0.51,4.14-0.59
					c0.7-0.04,1.41-0.03,2.13,0.06c0.35,0.07,0.71,0.16,1.06,0.25c0.34,0.12,0.67,0.26,1,0.38c2.58,1.17,4.83,2.85,7.01,4.58
					c2.17,1.74,4.23,3.61,6.22,5.55l0.09,0.09l0.02,0.11c0.07,0.42,0.02,0.81-0.21,1.2c-0.14,0.17-0.29,0.35-0.48,0.42
					c-0.18,0.12-0.37,0.16-0.55,0.19c-0.73,0.12-1.37-0.03-1.98-0.19c-1.23-0.34-2.32-0.9-3.43-1.44c-1.08-0.58-2.14-1.18-3.18-1.83
					c-1.05-0.62-2.05-1.32-3.07-1.98l0.47-0.75c1.8,1.07,3.56,2.2,5.24,3.48c0.83,0.65,1.66,1.31,2.37,2.18
					c0.17,0.23,0.34,0.46,0.46,0.78c0.07,0.15,0.1,0.34,0.11,0.54c-0.02,0.21-0.08,0.44-0.23,0.6c-0.28,0.32-0.61,0.43-0.9,0.5
					c-0.29,0.08-0.57,0.09-0.85,0.12l-0.09,0.01l-0.09-0.04l-9.58-4.03l0.29-0.68c1.51,0.7,2.98,1.45,4.38,2.37
					c0.68,0.49,1.4,0.93,1.9,1.78c0.11,0.21,0.2,0.54,0.08,0.85c-0.12,0.3-0.35,0.48-0.57,0.59c-0.44,0.23-0.89,0.27-1.32,0.3
					c-1.72,0.04-3.33-0.36-4.93-0.76c-1.6-0.42-3.16-0.92-4.71-1.48l0.12-0.33c1.55,0.52,3.12,0.98,4.71,1.36
					c1.58,0.36,3.21,0.71,4.78,0.63c0.75-0.03,1.65-0.36,1.28-0.86c-0.34-0.58-1.06-1.07-1.71-1.51c-1.36-0.87-2.83-1.6-4.31-2.25
					l0.29-0.68l9.61,3.94l-0.18-0.03c0.24-0.03,0.48-0.04,0.69-0.1c0.22-0.05,0.39-0.14,0.45-0.22c0.13-0.05-0.05-0.53-0.35-0.88
					c-0.61-0.74-1.42-1.4-2.23-2.02c-1.64-1.24-3.39-2.35-5.16-3.39l0.47-0.75c1.01,0.65,2,1.36,3.03,1.97
					c1.02,0.65,2.06,1.24,3.11,1.81c1.07,0.53,2.14,1.08,3.26,1.39c0.55,0.16,1.13,0.27,1.59,0.19l0.17-0.03
					c0.05-0.01,0.08-0.05,0.13-0.07c0.1-0.03,0.13-0.11,0.2-0.16c0.09-0.13,0.12-0.38,0.09-0.56l0.11,0.2
					c-1.95-1.93-4.01-3.78-6.13-5.53c-2.12-1.73-4.34-3.42-6.79-4.57l-0.93-0.37c-0.32-0.08-0.63-0.17-0.95-0.24
					c-0.66-0.08-1.33-0.11-2.01-0.08c-1.36,0.05-2.72,0.24-4.07,0.49c-2.7,0.5-5.38,1.2-8.01,2.01L150.9,218.9z"/>
				<polygon style="fill:#1B1B43;" points="79.6,197.88 79.32,197.28 101.08,187.21 92.01,165.93 92.62,165.67 101.94,187.54 				
					"/>
			</g>
		</g>
		<g>
			<rect x="81.55" y="291.06" style="fill:#1B1B43;" width="1.15" height="99.72"/>
			<path style="fill:#D1D1FF;" d="M109.92,295.48H54.34c-3.78,0-6.84-3.06-6.84-6.84v-0.04c0-3.78,3.06-6.84,6.84-6.84h55.59
				c3.78,0,6.84,3.06,6.84,6.84v0.04C116.76,292.42,113.7,295.48,109.92,295.48z"/>
			<path style="fill:#D1D1FF;" d="M105.51,397.27H58.75v-0.04c0-6.3,5.11-11.41,11.41-11.41H94.1c6.3,0,11.41,5.11,11.41,11.41
				V397.27z"/>
		</g>
		<g>
			<g>
				<polygon style="fill:#1B1B43;" points="246.93,396.9 148.41,240.23 149.38,239.62 247.91,396.28 				"/>
				<polygon style="fill:#1B1B43;" points="149.38,396.9 148.41,396.28 246.93,239.62 247.91,240.23 				"/>
			</g>
			<rect x="111.84" y="233.53" style="fill:#D1D1FF;" width="172.65" height="13.06"/>
		</g>
	</g>
	<path style="fill:#9192FF;" d="M135,79.87c-19.89,0-36.08-16.24-36.08-36.19c0-19.96,16.19-36.19,36.08-36.19
		c19.89,0,36.08,16.24,36.08,36.19C171.08,63.63,154.9,79.87,135,79.87z M135,8.25c-19.47,0-35.31,15.89-35.31,35.42
		c0,19.53,15.84,35.42,35.31,35.42s35.31-15.89,35.31-35.42C170.31,24.14,154.47,8.25,135,8.25z"/>
	<ellipse style="fill:#3335CF;" cx="154.08" cy="43.36" rx="39.26" ry="39.38"/>
	<polygon style="fill:#FFFFFF;" points="158.74,52.37 136.98,35.25 137.69,34.34 158.71,50.88 170.43,40.92 171.18,41.8 	"/>
	<g>
		<g>
			<path style="fill:#FFFFFF;" d="M48.83,59.84H28.9c-3.21,0-5.81,2.61-5.81,5.83v20c0,3.22,2.6,5.83,5.81,5.83h14.23l6.13,8.49
				v-8.51c3.01-0.22,5.39-2.73,5.39-5.81v-20C54.64,62.45,52.04,59.84,48.83,59.84z"/>
			<path style="fill:#9192FF;" d="M49.64,101.17l-6.71-9.3H28.9c-3.41,0-6.19-2.79-6.19-6.21v-20c0-3.43,2.78-6.21,6.19-6.21h19.93
				c3.41,0,6.19,2.79,6.19,6.21v20c0,3.12-2.34,5.75-5.39,6.15V101.17z M28.9,60.22c-2.99,0-5.42,2.44-5.42,5.44v20
				c0,3,2.43,5.44,5.42,5.44h14.42l5.55,7.69v-7.68l0.36-0.03c2.82-0.2,5.03-2.58,5.03-5.42v-20c0-3-2.43-5.44-5.42-5.44H28.9z"/>
		</g>
		<polygon style="fill:#9192FF;" points="38.46,85.96 30.48,74.39 32.38,73.08 38.25,81.58 47.09,65.71 49.11,66.84 		"/>
	</g>
	<rect x="15.27" y="396.12" style="fill:#1B1B43;" width="472.93" height="1.16"/>
</g>
</svg>
