<?xml version="1.0" encoding="utf-8"?>
<!-- Generator: Adobe Illustrator 26.1.0, SVG Export Plug-In . SVG Version: 6.00 Build 0)  -->
<svg version="1.1" xmlns="http://www.w3.org/2000/svg" xmlns:xlink="http://www.w3.org/1999/xlink" x="0px" y="0px"
	 viewBox="0 0 500 422.1" style="enable-background:new 0 0 500 422.1;" xml:space="preserve">
<g id="BACKGROUND">
</g>
<g id="OBJECTS">
	<g>
		<path style="fill:#E0E0FF;" d="M248.06,293.54h-20.98c-3.95,0-7.15-3.2-7.15-7.15v0c0-3.95,3.2-7.15,7.15-7.15h20.98
			c3.95,0,7.15,3.2,7.15,7.15l0,0C255.21,290.34,252.01,293.54,248.06,293.54z"/>
		<path style="fill:#E0E0FF;" d="M288.79,293.54h-20.98c-3.95,0-7.15-3.2-7.15-7.15v0c0-3.95,3.2-7.15,7.15-7.15h20.98
			c3.95,0,7.15,3.2,7.15,7.15l0,0C295.94,290.34,292.74,293.54,288.79,293.54z"/>
		<path style="fill:#E0E0FF;" d="M307.25,312.06h-20.98c-3.95,0-7.15-3.2-7.15-7.15l0,0c0-3.95,3.2-7.15,7.15-7.15h20.98
			c3.95,0,7.15,3.2,7.15,7.15v0C314.4,308.86,311.2,312.06,307.25,312.06z"/>
		<path style="fill:#E0E0FF;" d="M266.45,311.81h-20.98c-3.95,0-7.15-3.2-7.15-7.15v0c0-3.95,3.2-7.15,7.15-7.15h20.98
			c3.95,0,7.15,3.2,7.15,7.15v0C273.61,308.61,270.41,311.81,266.45,311.81z"/>
		<path style="fill:#E0E0FF;" d="M248.19,330.08H227.2c-3.95,0-7.15-3.2-7.15-7.15v0c0-3.95,3.2-7.15,7.15-7.15h20.98
			c3.95,0,7.15,3.2,7.15,7.15l0,0C255.34,326.88,252.14,330.08,248.19,330.08z"/>
	</g>
	<g>
		<g>
			<g>
				<rect x="103.12" y="15.45" style="fill:#FFFFFF;" width="258.95" height="188.16"/>
				<path style="fill:#5254CF;" d="M362.45,203.98h-259.7V15.07h259.7V203.98z M103.5,203.23h258.2V15.83H103.5V203.23z"/>
			</g>
			<rect x="103.47" y="15.45" style="opacity:0.6;fill:#E0E0FF;" width="258.26" height="8.44"/>
			<g>
				<rect x="91.83" y="6.38" style="fill:#FFFFFF;" width="281.53" height="10.16"/>
				<path style="fill:#5254CF;" d="M373.74,16.92H91.45V6h282.28V16.92z M92.2,16.17h280.78V6.76H92.2V16.17z"/>
			</g>
		</g>
		<g>
			<g>
				<g>
					<path style="fill:#5254CF;" d="M247.96,117.4h-29.23v-9.99c-4.67-4.17-7.35-10.13-7.35-16.38c0-12.11,9.85-21.96,21.96-21.96
						c12.11,0,21.96,9.85,21.96,21.96c0,6.25-2.68,12.22-7.35,16.38V117.4z M219.48,116.65h27.72v-9.58l0.13-0.11
						c4.59-4.03,7.22-9.84,7.22-15.93c0-11.69-9.51-21.21-21.21-21.21c-11.69,0-21.21,9.51-21.21,21.21c0,6.09,2.63,11.9,7.22,15.93
						l0.13,0.11V116.65z"/>
					<path style="fill:#5254CF;" d="M247.96,126.39h-29.23v-4.77h29.23V126.39z M219.48,125.64h27.72v-3.27h-27.72V125.64z"/>
					<path style="fill:#5254CF;" d="M247.96,133.33h-29.23v-4.77h29.23V133.33z M219.48,132.58h27.72v-3.27h-27.72V132.58z"/>
					<path style="fill:#5254CF;" d="M235.58,117.4h-4.47l-1.54-30.53h7.55L235.58,117.4z M231.83,116.65h3.04l1.46-29.03h-5.97
						L231.83,116.65z"/>
				</g>
				<circle style="fill:#CBCBFF;" cx="233.82" cy="61.37" r="1.5"/>
				<circle style="fill:#CBCBFF;" cx="198.91" cy="97.22" r="1.5"/>
				<circle style="fill:#CBCBFF;" cx="267.6" cy="97.22" r="1.5"/>
				<circle style="fill:#CBCBFF;" cx="233.63" cy="147.52" r="1.5"/>
			</g>
			<g>
				<g>
					<circle style="fill:#CBCBFF;" cx="203.98" cy="72.07" r="1.5"/>
					<polygon style="fill:#CBCBFF;" points="203.64,72.24 196.8,58.37 169.13,58.37 169.13,57.62 197.26,57.62 204.31,71.9 					"/>
				</g>
				<g>
					<rect x="121.02" y="58.19" style="fill:#CBCBFF;" width="5.74" height="11.25"/>
					<rect x="130.42" y="52.7" style="fill:#CBCBFF;" width="5.74" height="16.75"/>
					<rect x="139.83" y="55.99" style="fill:#CBCBFF;" width="5.74" height="13.46"/>
					<rect x="149.23" y="48.79" style="fill:#CBCBFF;" width="5.74" height="20.65"/>
					<rect x="158.64" y="39.39" style="fill:#CBCBFF;" width="5.74" height="30.06"/>
				</g>
			</g>
			<g>
				<g>
					<circle style="fill:#CBCBFF;" cx="262.53" cy="70.38" r="1.5"/>
					<polygon style="fill:#CBCBFF;" points="262.87,70.54 262.2,70.22 270.18,53.49 295.57,53.49 295.57,54.24 270.65,54.24 					
						"/>
				</g>
				<g>
					<path style="fill:#CBCBFF;" d="M337.85,64.72h-35.03c-2.16,0-3.92-1.76-3.92-3.92V40.46c0-2.16,1.76-3.92,3.92-3.92h35.03
						c2.16,0,3.92,1.76,3.92,3.92v20.34C341.77,62.97,340.01,64.72,337.85,64.72z M302.82,37.3c-1.75,0-3.17,1.42-3.17,3.17v20.34
						c0,1.75,1.42,3.17,3.17,3.17h35.03c1.75,0,3.17-1.42,3.17-3.17V40.46c0-1.75-1.42-3.17-3.17-3.17H302.82z"/>
					<g>
						<rect x="305.32" y="42.56" style="fill:#CBCBFF;" width="30.03" height="0.75"/>
						<rect x="305.32" y="47.69" style="fill:#CBCBFF;" width="21.65" height="0.75"/>
						<rect x="305.32" y="52.82" style="fill:#CBCBFF;" width="26.4" height="0.75"/>
						<rect x="305.32" y="57.95" style="fill:#CBCBFF;" width="30.03" height="0.75"/>
					</g>
				</g>
			</g>
			<g>
				<g>
					<circle style="fill:#CBCBFF;" cx="262.03" cy="135.95" r="1.5"/>
					<polygon style="fill:#CBCBFF;" points="295.07,152.84 269.68,152.84 261.69,136.11 262.37,135.79 270.15,152.09 295.07,152.09 
											"/>
				</g>
				<g>
					<path style="fill:#CBCBFF;" d="M325.3,166.8c-2.87,0-5.77-0.57-8.53-1.74c-11.05-4.7-16.23-17.51-11.54-28.55
						c4.7-11.05,17.5-16.22,28.55-11.53c5.77,2.44,10.2,7.26,12.17,13.22c1.66,5.02,1.43,10.46-0.63,15.33
						c-1.13,2.66-2.74,5.03-4.79,7.04C336.37,164.65,330.89,166.8,325.3,166.8z M325.32,124c-8.19,0-15.98,4.81-19.38,12.8
						c-4.53,10.67,0.47,23.03,11.14,27.57c7.85,3.32,16.85,1.62,22.94-4.34c1.98-1.94,3.54-4.23,4.62-6.8v0
						c2-4.69,2.21-9.95,0.61-14.8c-1.9-5.75-6.18-10.4-11.75-12.76C330.83,124.54,328.05,124,325.32,124z"/>
					<path style="fill:#CBCBFF;" d="M344.98,153.38c-1.14,2.68-2.75,5-4.71,6.92l-14.81-15.07l20.14-6.91
						C347.17,143.08,347.09,148.41,344.98,153.38z"/>
				</g>
			</g>
			<g>
				<g>
					<circle style="fill:#CBCBFF;" cx="203.66" cy="135.76" r="1.5"/>
					<polygon style="fill:#CBCBFF;" points="196.02,152.65 170.63,152.65 170.63,151.9 195.54,151.9 203.32,135.6 204,135.92 					
						"/>
				</g>
				<g>
					<path style="fill:#CBCBFF;" d="M162.87,134.63h-38.04v-23.27h38.04V134.63z M125.58,133.88h36.54v-21.77h-36.54V133.88z"/>
					<g>
						<rect x="128.99" y="117.3" style="fill:#F5F5FF;" width="29.72" height="0.75"/>
						<rect x="128.99" y="122.62" style="fill:#F5F5FF;" width="29.72" height="0.75"/>
						<rect x="128.99" y="127.94" style="fill:#F5F5FF;" width="29.72" height="0.75"/>
					</g>
					<polygon style="fill:#CBCBFF;" points="132.28,130.31 129.63,125.2 128.04,129.9 127.32,129.66 129.49,123.29 132.28,128.69 
						138.15,117.62 141.86,127.1 144.83,120.1 150.51,126.16 156.54,115.71 157.19,116.08 150.65,127.41 145.07,121.45 
						141.84,129.09 138.05,119.42 					"/>
				</g>
				<g>
					<path style="fill:#CBCBFF;" d="M162.87,167.67h-38.04v-23.27h38.04V167.67z M125.58,166.92h36.54v-21.77h-36.54V166.92z"/>
					<g>
						<rect x="128.99" y="150.34" style="fill:#F5F5FF;" width="29.72" height="0.75"/>
						<rect x="128.99" y="155.65" style="fill:#F5F5FF;" width="29.72" height="0.75"/>
						<rect x="128.99" y="160.97" style="fill:#F5F5FF;" width="29.72" height="0.75"/>
					</g>
					<polygon style="fill:#CBCBFF;" points="150.86,161.77 145.79,157.58 140.89,161.72 137.83,155.87 135.13,161.56 128.58,150.24 
						129.23,149.87 135.06,159.95 137.8,154.19 141.12,160.54 145.79,156.6 150.49,160.49 154.05,149.5 157.88,161.1 157.17,161.34 
						154.05,151.92 					"/>
				</g>
			</g>
		</g>
	</g>
	<g>
		<path style="fill:#E0E0FF;" d="M24.38,207.31c0,0-6.41-11.74,44.27-9.11l28.15,91.22l-47.67-0.75L24.38,207.31z"/>
		<polygon style="fill:#E0E0FF;" points="41.38,414.82 34.12,414.82 51.39,290.69 60.89,290.69 		"/>
		<polygon style="fill:#E0E0FF;" points="125.96,414.82 133.22,414.82 115.95,290.69 106.44,290.69 		"/>
		<rect x="52.99" y="285.41" style="fill:#CBCBFF;" width="72.47" height="7.51"/>
		<path style="fill:#CBCBFF;" d="M52.99,285.41l-21.57-79.93c-0.56-2.09-2.81-3.22-4.83-2.44l0,0c-1.71,0.66-2.65,2.49-2.21,4.27
			L44,285.77c1.04,4.14,4.72,7.07,8.99,7.15l0,0V285.41z"/>
	</g>
	<g>
		<g>
			<polygon style="fill:#E0E0FF;" points="458.72,414.79 465.5,414.79 449.36,290.66 440.47,290.66 			"/>
			<polygon style="fill:#E0E0FF;" points="379.64,414.79 372.86,414.79 389,290.66 397.89,290.66 			"/>
		</g>
		
			<rect x="368.75" y="285.38" transform="matrix(-1 -1.224647e-16 1.224647e-16 -1 838.3625 578.269)" style="fill:#CBCBFF;" width="100.86" height="7.51"/>
		<path style="fill:#E0E0FF;" d="M469.62,285.38H368.7c10.37-19.67,15.46-46.15,17.84-75.66c0.55-6.77,6.21-11.98,12.99-11.98h39.22
			c6.81,0,12.49,5.24,13,12.03C454.05,240.17,459.25,266.58,469.62,285.38z"/>
	</g>
	<g>
		<g>
			<path style="fill:#1B1B43;" d="M89.96,135.98c0,0-28.56,16.8-11.29,28.06l15.27,5.76l5-23.77
				C97.35,139.88,94.86,135.55,89.96,135.98z"/>
			<path style="fill:#1B1B43;" d="M89.25,137.9c-1.46,0.52-2.89,1.15-4.28,1.83c-1.39,0.68-2.76,1.42-4.07,2.24
				c-2.61,1.64-5.08,3.57-6.93,6.01c-0.92,1.21-1.7,2.54-2.19,3.97c-0.52,1.43-0.68,2.96-0.6,4.47c0.08,1.51,0.42,3.03,1.01,4.44
				c0.24,0.73,0.62,1.41,0.95,2.11c0.35,0.69,0.78,1.33,1.17,2l-0.24,0.17c-1.81-2.53-3.32-5.46-3.55-8.68
				c-0.13-1.59,0.05-3.23,0.58-4.74c0.52-1.52,1.31-2.94,2.28-4.2c1.96-2.52,4.49-4.5,7.19-6.1c2.71-1.6,5.59-2.88,8.59-3.81
				L89.25,137.9z"/>
		</g>
		<g>
			<g>
				<g>
					<path style="fill:#1B1B43;" d="M191.64,396.4c-1.76-1.5-3.49-3.02-5.14-4.65c-1.41-1.4-2.79-2.84-4.12-4.31
						c-0.42-0.47-1.4-1.2-1.62-1.81l-15.68,5.27l5.47,23.89l3.01,0.02c0,0,0.27-11.19,0.27-11.19c4.81,2.37,9.83,4.57,15.12,5.56
						c3.26,0.61,7.52,0.86,10.63-0.48C207.37,405.35,193.72,398.18,191.64,396.4z"/>
					<polygon style="fill:#FFBC96;" points="177.34,375.89 162.89,381.34 165.08,390.9 180.75,385.63 					"/>
				</g>
				<path style="fill:#393A8F;" d="M114.45,239.49l36.13,11.95c5.97,1.97,10.99,6.12,14.06,11.61l0,0c1.56,2.79,2.57,5.85,2.98,9.02
					l14.02,107.81l-21.77,3.75l-29.65-109.61l-40.17-18.39l7.13-19.89L114.45,239.49z"/>
			</g>
			<g>
				<g>
					<path style="fill:#1B1B43;" d="M104.56,408.74c-5.49-2.22-9.7-16.94-9.7-16.94l-15.97-4.43l-9.15,22.42l2.45,1.75l6.66-8.99
						l16.24,12.27h12.85C107.95,414.81,110.05,410.96,104.56,408.74z"/>
					<polygon style="fill:#FFBC96;" points="97.67,381.87 82.71,378.02 78.9,387.37 94.86,391.8 					"/>
				</g>
				<path style="fill:#5254CF;" d="M136.06,286.54l-34.88,98.72l-4.13-1.23l-14.97-4.46L80.16,379l18.77-92.84
					c-21.27,5.26-33.05-0.48-37.28-10.02c-1.19-2.69-1.73-5.8-1.84-9.06c-0.41-13.15,6.34-28.72,6.34-28.72l20.14,1.5l37.05,16.82
					c3.67,1.67,6.79,4.19,9.17,7.3c2.37,3.11,3.98,6.79,4.62,10.77C137.77,278.71,137.4,282.76,136.06,286.54z"/>
			</g>
			<path style="opacity:0.6;fill:#393A8F;" d="M98.93,286.16c-21.27,5.26-33.05-0.48-37.28-10.02c-1.19-2.69-1.73-5.8-1.84-9.06
				C70.87,286.55,98.93,286.16,98.93,286.16z"/>
		</g>
		<g>
			<path style="fill:#FFB147;" d="M85.33,157.99l-22.69,52.4l6.01,9.57c0,0-6.1,13.83-9.57,23.46c0,0,40.1,11.32,74.64,2.69
				l-5.76-29.53l-2.44-45.23l-14.39-13.03L85.33,157.99z"/>
			<polygon style="fill:#1B1B43;" points="119.95,225.1 116.64,225.54 109.98,199.81 112.6,199.07 			"/>
			<g>
				<path style="fill:#FFB147;" d="M156.28,212.98c-5.8-0.87-11.05-2.77-11.05-2.77l-8.63-34.34c-1.64-6.51-6.49-11.72-12.88-13.8
					l-11.05-3.15c-0.54-0.15-1.05-0.35-1.54-0.6l10.17,68.49c0,0,17.42,1.75,29.94,2.06C150.94,222.9,153.21,216.03,156.28,212.98z"
					/>
				<path style="fill:#FFBC96;" d="M175.01,211.84c-6.1-0.75-10.64,1.38-10.64,1.38c-2.5,0.36-5.36,0.18-8.1-0.23
					c-2.32,3.42-6.56,10.39-6.26,16.37c2.62,0.07,9.34-0.17,10.98-0.28c9.48-0.66,18.21-10.42,18.21-10.42s6.94,6.85,7.51,3.66
					C187.27,219.12,181.11,212.59,175.01,211.84z"/>
			</g>
			<rect x="103.44" y="224.8" style="fill:#FFFFFF;" width="40.98" height="3.44"/>
			<path style="fill:#FFBC96;" d="M90.05,228.04c0,0,17.55,2.44,21.11-0.84c0,0,4.22,0.09,5.26-2.35c0,0,1.6-1.03,2.35-3.1
				c0,0,1.5-2.44,1.03-4.04l-5.91-3c0,0-0.02-0.21-0.08-0.51c-0.24-1.34-1.39-2.32-2.75-2.34l-10.22-0.14
				c-0.93-0.01-1.85,0.15-2.73,0.47l-10.51,3.92L90.05,228.04z"/>
			<path style="fill:#FFB147;" d="M76.91,185.62L66.4,209.08l33.03,2.63c-9.76,4.69-9.38,16.33-9.38,16.33l-29.96,0.78
				c-3.87,0.1-7.59-1.45-10.25-4.26c-2.42-2.57-3.72-5.93-3.72-9.35c0-1.43,0.23-2.88,0.69-4.27l12.29-37.12
				c1.98-5.98,6.85-10.54,12.95-12.12l12-3.1c0.45-0.19,0.89-0.39,1.29-0.6L76.91,185.62z"/>
			<g>
				<path style="fill:#D28572;" d="M118.69,221.88c-1.44-0.6-2.81-1.31-4.17-2.05c-1.35-0.75-2.69-1.54-3.95-2.45l0.14-0.26
					c1.44,0.59,2.82,1.3,4.17,2.05c1.35,0.76,2.68,1.55,3.95,2.45L118.69,221.88z"/>
				<path style="fill:#D28572;" d="M116.36,224.98c-1.35-0.36-2.65-0.83-3.93-1.34c-1.28-0.51-2.55-1.07-3.76-1.76l0.11-0.27
					c1.35,0.34,2.65,0.82,3.93,1.34c1.28,0.53,2.54,1.08,3.76,1.76L116.36,224.98z"/>
				<path style="fill:#D28572;" d="M111.1,227.33c-0.7-0.15-1.35-0.42-1.98-0.71c-0.63-0.3-1.23-0.65-1.78-1.12l0.13-0.26
					c0.71,0.14,1.35,0.4,1.98,0.71c0.62,0.32,1.23,0.66,1.78,1.12L111.1,227.33z"/>
			</g>
			<path style="fill:#1B1B43;" d="M65.15,228.85c-0.2,0-0.37-0.16-0.38-0.37c0-0.21,0.16-0.38,0.37-0.38l24.53-0.43
				c-0.04-9.4,5.85-14.06,8.41-15.64l0.02-0.45l-0.04,0.37l-29.01-2.91l7.37-27.45c0.05-0.2,0.26-0.32,0.46-0.27
				c0.2,0.05,0.32,0.26,0.27,0.46l-7.14,26.6l28.13,2.82c0.34,0.03,0.62,0.27,0.7,0.61c0.08,0.34-0.06,0.67-0.36,0.85
				c-2.48,1.53-8.24,6.1-8.04,15.36l0.01,0.38L65.15,228.85C65.15,228.85,65.15,228.85,65.15,228.85z"/>
			<path style="fill:#1B1B43;" d="M130.03,224.85c-0.19,0-0.36-0.15-0.37-0.34l-3.75-44.11c-0.02-0.21,0.14-0.39,0.34-0.41
				c0.21-0.02,0.39,0.14,0.41,0.34l3.75,44.11c0.02,0.21-0.14,0.39-0.34,0.41C130.05,224.85,130.04,224.85,130.03,224.85z"/>
			<path style="fill:#1B1B43;" d="M151.23,230.29c-0.18,0-0.34-0.13-0.37-0.31c-1.46-7.99,4.84-16.85,5.1-17.22
				c0.12-0.17,0.36-0.21,0.52-0.09c0.17,0.12,0.21,0.36,0.09,0.52c-0.06,0.09-6.38,8.98-4.98,16.65c0.04,0.2-0.1,0.4-0.3,0.44
				C151.28,230.29,151.26,230.29,151.23,230.29z"/>
			<circle style="fill:#1B1B43;" cx="104.5" cy="177.36" r="2.06"/>
		</g>
		<g>
			<path style="fill:#FFBC96;" d="M111.13,158.32c-0.9,5.46-4.59,12.67-10.32,9.84c-4.22-2.07-11.22-7.5-15.47-10.17
				c11.64-6.09,5.9-22,5.75-22.48l14.23,5.26c0,0,0,0.09,0.01,0.25c0.03,1.13,0.21,5.84,1.04,10.11c0.11,0.53,0.22,1.05,0.34,1.56
				C107.29,155.15,108.92,157.2,111.13,158.32z"/>
			<path style="fill:#D28572;" d="M106.36,151.12c-8.36-1.93-10.39-10.58-10.39-10.82l9.35,0.71
				C105.35,142.14,105.53,146.85,106.36,151.12z"/>
			<path style="fill:#FFBC96;" d="M112.48,126.69c0,0,1.5,16.99-6.29,18.39c-7.65,1.38-16.23-9.1-16.23-9.1l1.31-15.67l8.73-5.72
				C106.19,117.09,110.23,120.6,112.48,126.69z"/>
			<path style="fill:#1B1B43;" d="M90.33,132.6c4.13-1.41,5.63-4.97,6.66-9.85c1.59-7.51,12.39-1.5,15.48,3.94
				c0,0,1.69-15.2-13.89-14.92c0,0-18.11,0.66-12.67,19.8L90.33,132.6z"/>
			
				<ellipse transform="matrix(0.828 -0.5607 0.5607 0.828 -59.6158 73.0979)" style="fill:#FFBC96;" cx="89.35" cy="133.73" rx="4.08" ry="5.35"/>
			<g>
				<path style="fill:#1B1B43;" d="M109.51,130.32c0,0.55,0.45,1,1,1c0.55,0,1-0.45,1-1c0-0.55-0.45-1-1-1
					C109.95,129.32,109.51,129.76,109.51,130.32z"/>
				<path style="fill:#1B1B43;" d="M101.64,130.52c0,0.55,0.45,1,1,1c0.55,0,1-0.45,1-1c0-0.55-0.45-1-1-1
					C102.09,129.52,101.64,129.97,101.64,130.52z"/>
				<path style="fill:#D28572;" d="M107.05,136.71c-0.19,0-0.36-0.15-0.37-0.35c-0.02-0.21,0.14-0.39,0.34-0.4
					c0.3-0.02,1.17-0.16,1.64-0.5c0.17-0.12,0.24-0.27,0.24-0.46c-0.01-0.62-0.79-1.59-1.8-2.27c-0.17-0.11-0.22-0.35-0.1-0.52
					c0.11-0.17,0.35-0.22,0.52-0.1c1.05,0.7,2.11,1.86,2.14,2.88c0.01,0.44-0.18,0.82-0.54,1.09c-0.73,0.54-1.97,0.64-2.02,0.64
					C107.07,136.71,107.06,136.71,107.05,136.71z"/>
				<path style="fill:#1B1B43;" d="M112.31,128.12c-0.32-0.08-0.63-0.16-0.93-0.2c-0.3-0.03-0.58-0.05-0.86-0.02
					c-0.28,0.04-0.57,0.08-0.87,0.17c-0.3,0.08-0.61,0.19-0.97,0.28l-0.02,0c-0.13,0.03-0.25-0.05-0.28-0.17
					c-0.01-0.06,0-0.12,0.03-0.18c0.2-0.34,0.49-0.62,0.84-0.83c0.34-0.22,0.76-0.34,1.18-0.38c0.42-0.03,0.86,0.04,1.24,0.21
					c0.38,0.17,0.71,0.42,0.94,0.79c0.07,0.11,0.03,0.24-0.07,0.31c-0.05,0.03-0.12,0.04-0.18,0.03L112.31,128.12z"/>
				<path style="fill:#1B1B43;" d="M100.08,128.09c0.28-0.38,0.64-0.64,1.05-0.84c0.41-0.2,0.88-0.32,1.36-0.32
					c0.48-0.01,0.98,0.12,1.39,0.38c0.42,0.24,0.73,0.61,0.93,1.01c0.06,0.11,0.01,0.25-0.1,0.31c-0.06,0.03-0.13,0.03-0.19,0.01
					l-0.03-0.01c-0.39-0.16-0.7-0.33-1.04-0.42c-0.32-0.1-0.64-0.16-0.98-0.15c-0.66-0.02-1.38,0.17-2.14,0.39l-0.03,0.01
					c-0.12,0.03-0.25-0.03-0.28-0.16C100.02,128.22,100.04,128.15,100.08,128.09z"/>
				<ellipse style="opacity:0.4;fill:#FE5B52;" cx="99.64" cy="134.78" rx="2.41" ry="2.39"/>
				<path style="fill:#1B1B43;" d="M105.8,139.67c-1.48,0-2.31-0.74-2.36-0.78c-0.15-0.14-0.16-0.38-0.02-0.53
					c0.14-0.15,0.38-0.16,0.53-0.02c0.05,0.05,1.13,0.99,3.11,0.39c0.2-0.06,0.41,0.05,0.47,0.25c0.06,0.2-0.05,0.41-0.25,0.47
					C106.74,139.6,106.24,139.67,105.8,139.67z"/>
			</g>
			<path style="fill:#1B1B43;" d="M91.74,135.13c-0.14,0-0.28-0.08-0.34-0.23c-0.06-0.14-1.58-3.52-4.05-2.49
				c-0.19,0.08-0.41-0.01-0.49-0.2c-0.08-0.19,0.01-0.41,0.2-0.49c2.52-1.05,4.39,1.43,5.02,2.89c0.08,0.19,0,0.41-0.19,0.49
				C91.84,135.12,91.79,135.13,91.74,135.13z"/>
			<path style="fill:#1B1B43;" d="M103.32,169.18c-0.87,0-1.77-0.23-2.68-0.67c-2.67-1.31-6.36-3.89-9.92-6.39
				c-2.06-1.45-4.02-2.81-5.59-3.8c-0.18-0.11-0.23-0.34-0.12-0.52c0.11-0.18,0.34-0.23,0.52-0.12c1.59,1,3.55,2.37,5.62,3.82
				c3.54,2.48,7.19,5.04,9.82,6.33c1.54,0.76,3.02,0.79,4.38,0.09c2.88-1.48,4.79-5.92,5.41-9.66c0.03-0.2,0.22-0.35,0.43-0.31
				c0.2,0.03,0.34,0.23,0.31,0.43c-0.65,3.93-2.69,8.6-5.8,10.2C104.93,168.98,104.14,169.18,103.32,169.18z"/>
		</g>
	</g>
	<g>
		<g>
			<g>
				<path style="fill:#FFBC96;" d="M380.4,251.5c-0.44,4.45-0.94,8.99-1.49,13.59c-4.55,38.09-12.85,80.99-22.53,125.68
					c-14.08,6.32-21.58,3.57-21.58,3.57c10.14-50.68,14.26-139.26,14.26-139.26L380.4,251.5z"/>
				<path style="fill:#1B1B43;" d="M334.79,394.33c0,0-21.02,12.2-20.65,20.27h27.97l6.19-4.69l1.5,4.88h8.26
					c0,0,1.88-7.51-1.69-24.02C342.3,397.08,334.79,394.33,334.79,394.33z"/>
				<path style="fill:#D28572;" d="M380.4,251.5c-0.44,4.45-0.94,8.99-1.49,13.59c-16.25-1.12-29.85-10.02-29.85-10.02L380.4,251.5z
					"/>
			</g>
			<path style="fill:#FFBC96;" d="M431.14,390.76l-11.88,9.01l-8.21-5.44c0,0-12.3-100.49-21.27-134.89
				c-0.71-2.71-1.39-5.01-2.05-6.82l28.9,4.5c0.71,3.26,1.4,6.52,2.03,9.78C426.79,307.9,429.77,349.28,431.14,390.76z"/>
			<path style="fill:#1B1B43;" d="M411.04,394.33c0,0-19.57,12.2-19.22,20.27h26.03l5.77-4.69l1.4,4.88h7.69
				c0,0,1.75-7.51-1.57-24.02C418.03,397.08,411.04,394.33,411.04,394.33z"/>
			<path style="fill:#D28572;" d="M418.66,266.91c-14.25-0.2-28.69-7.34-28.69-7.34l-0.2-0.13c-0.71-2.71-1.39-5.01-2.05-6.82
				l28.9,4.5C417.34,260.39,418.02,263.65,418.66,266.91z"/>
			<path style="fill:#D28572;" d="M345.2,313.62c3.19,0.5,6.38,1,9.57,1.5c0.47,0.07,0.68-0.65,0.2-0.72c-3.19-0.5-6.38-1-9.57-1.5
				C344.93,312.82,344.73,313.54,345.2,313.62L345.2,313.62z"/>
			<path style="fill:#D28572;" d="M401.61,318.73c2.94,0.06,5.88,0.12,8.82,0.19c0.48,0.01,0.48-0.74,0-0.75
				c-2.94-0.06-5.88-0.12-8.82-0.19C401.13,317.96,401.13,318.72,401.61,318.73L401.61,318.73z"/>
		</g>
		<g>
			<path style="fill:#1B1B43;" d="M304.95,115.05c0,0,2.38-11.82,20.71-16.33l-9.07,16.7L304.95,115.05z"/>
			<g>
				<path style="fill:#FFBC96;" d="M318.2,87.87c-0.28,2.24-1.06,4.69-2.31,4.69c-1.25,0-1.64-2.02-1.54-4.79
					c0.17-4.57,0.91-5.35,2.16-5.35S318.77,83.41,318.2,87.87z"/>
				<path style="fill:#1B1B43;" d="M305.02,76.89l2.54,2.91l25.85,10.42c0.91,0.37,1.95-0.07,2.32-0.99
					c0.37-0.91-0.07-1.95-0.99-2.32l-25.85-10.42L305.02,76.89z"/>
				<path style="fill:#FFBC96;" d="M325.66,98.72l-3.75,8.63l-10.63,5.95c-1.1-2.79-1.88-5.55-2.43-8.08
					c-1.52-6.88-1.39-12.13-1.39-12.13l10.58-4.26l0.25-5.5c0.56-7.6,3.63-4.55,4.41,0.84C324.13,94.21,325.66,98.72,325.66,98.72z"
					/>
				<path style="fill:#D28572;" d="M325.66,98.72l-3.75,8.63l-10.63,5.95c-1.1-2.79-1.88-5.55-2.43-8.08L325.66,98.72z"/>
				<path style="fill:#FFBC96;" d="M314.89,88.87c-0.32,2.24-1.21,4.69-2.63,4.69c-1.42,0-1.87-2.02-1.76-4.79
					c0.19-4.57,1.04-5.35,2.46-5.35S315.54,84.41,314.89,88.87z"/>
				<path style="fill:#FFBC96;" d="M311.51,91.03c-0.35,2.24-1.33,4.69-2.89,4.69s-2.05-2.02-1.93-4.79
					c0.21-4.57,1.14-5.35,2.7-5.35S312.21,86.57,311.51,91.03z"/>
				<g>
					<path style="fill:#D28572;" d="M314.89,93.79c-0.51-0.05-1.08-0.65-1.34-2.84c-0.02-0.2,0.09-0.4,0.25-0.44
						c0.17-0.04,0.31,0.09,0.34,0.3c0.18,1.48,0.52,2.31,0.92,2.23c0.93-0.2,2.36-4,2.09-7.03c-0.02-0.2,0.1-0.4,0.26-0.43
						c0.17-0.03,0.31,0.11,0.33,0.31c0.28,3.15-1.18,7.57-2.61,7.88C315.06,93.79,314.98,93.8,314.89,93.79z"/>
					<path style="fill:#D28572;" d="M311.39,94.85c-0.17-0.02-0.59-0.11-0.95-0.57c-0.65-0.84-0.74-2.43-0.27-4.71
						c0.04-0.2,0.23-0.34,0.42-0.29c0.19,0.04,0.31,0.24,0.27,0.44c-0.55,2.65-0.16,3.68,0.11,4.06c0.24,0.32,0.5,0.33,0.51,0.33
						c0.44,0,0.8-0.17,1.11-0.52c1.33-1.5,1.13-5.54,1.13-5.59c-0.01-0.21,0.14-0.39,0.33-0.4c0.19-0.01,0.36,0.14,0.37,0.35
						c0.01,0.18,0.22,4.41-1.32,6.15c-0.44,0.5-0.99,0.76-1.62,0.76C311.46,94.86,311.43,94.86,311.39,94.85z"/>
					<path style="fill:#D28572;" d="M307.48,95.32c-0.05-0.01-0.11-0.01-0.16-0.02c-0.32-0.05-0.6-0.24-0.8-0.55
						c-0.79-1.2-0.29-4.07-0.23-4.4c0.04-0.2,0.24-0.33,0.41-0.3c0.19,0.04,0.31,0.23,0.28,0.44c-0.15,0.79-0.41,3.02,0.12,3.82
						c0.09,0.14,0.2,0.22,0.34,0.24c1.07,0.17,1.83-0.53,2.47-2.28c0.07-0.19,0.28-0.29,0.46-0.22c0.18,0.07,0.27,0.29,0.2,0.48
						C310.28,93.29,309.46,95.51,307.48,95.32z"/>
				</g>
			</g>
			<g>
				<path style="fill:#FFFFFF;" d="M421.88,132.51l-25.34-25.53l-18.58,0.38l-19.8,71.12l64.51,3.16
					C423.47,163.2,423.39,146.61,421.88,132.51z"/>
				<path style="fill:#FFB147;" d="M358.16,178.47l-4.97,17.85c0,22.52-4.13,58.56-4.13,58.56c25.9,9.38,67.57,2.25,67.57,2.25
					c2.7-27.18,5.05-52.74,6.04-75.5L358.16,178.47z"/>
				<path style="fill:#1B1B43;" d="M388,121.13c-3.19,0-6.34-0.93-9.43-2.8c-0.21-0.13-0.44-0.26-0.5-0.29
					c-0.21,0-0.34-0.16-0.34-0.37c0-0.21,0.2-0.37,0.41-0.37c0.18,0,0.34,0.1,0.82,0.38c6.09,3.69,12.44,3.58,18.88-0.33
					c0.18-0.11,0.41-0.05,0.52,0.13c0.11,0.18,0.05,0.41-0.13,0.52C394.8,120.09,391.38,121.13,388,121.13z"/>
				<path style="fill:#1B1B43;" d="M386.74,260c-23.33,0-37.6-4.7-37.8-4.76c-0.2-0.07-0.3-0.28-0.24-0.48
					c0.07-0.2,0.28-0.3,0.48-0.24c0.27,0.09,27.04,8.9,67.39,2.24c0.2-0.04,0.4,0.1,0.43,0.31c0.03,0.2-0.1,0.4-0.31,0.43
					C405.6,259.33,395.52,260,386.74,260z"/>
			</g>
			<path style="fill:#5254CF;" d="M377.96,107.36l-10.25,0.09c-2.81,0.02-5.57,0.68-8.09,1.93l-25.96,12.87l-8.01-23.52
				l-20.71,16.33l12.43,25.75c2.06,4.27,6.25,7.1,10.98,7.41h0c2.36,0.16,4.73-0.33,6.84-1.4l19.67-10c0,0,1.31,43.36-8.26,68.69
				c0,0,19.89,6.01,33.78-0.19C380.4,205.33,389.79,134.01,377.96,107.36z"/>
			<path style="fill:#5254CF;" d="M449.53,188.81c-2.63-25.53-11.17-51.2-15.27-62.43c-1.39-3.79-3.76-7.14-6.87-9.72l0,0
				c-2.72-2.25-5.92-3.84-9.36-4.65l-21.49-5.03c-2.95,29.5,0.48,63.9,4.69,98.91c0,0,32.28-1.5,42.61-7.88L449.53,188.81z"/>
			<path style="fill:#1B1B43;" d="M426.51,156.15c-0.18,0-0.34-0.13-0.37-0.32l-4-25.53c-0.03-0.2,0.11-0.4,0.31-0.43
				c0.2-0.03,0.4,0.11,0.43,0.31l4,25.53c0.03,0.2-0.11,0.4-0.31,0.43C426.55,156.15,426.53,156.15,426.51,156.15z"/>
			<g>
				<polygon style="fill:#FFFFFF;" points="439.29,197.36 409.01,187.03 422.2,149.04 452.48,159.37 				"/>
				<path style="fill:#1B1B43;" d="M439.52,197.84l-30.99-10.58l0.12-0.36l13.31-38.34l30.99,10.58l-0.12,0.36L439.52,197.84z
					 M409.49,186.79l29.57,10.09L452,159.6l-29.57-10.09L409.49,186.79z"/>
			</g>
			<g>
				<g>
					<line style="fill:#FFFFFF;" x1="427.39" y1="162.04" x2="443.03" y2="167.17"/>
					<path style="fill:#1B1B43;" d="M443.03,167.54c-0.04,0-0.08-0.01-0.12-0.02l-15.64-5.13c-0.2-0.06-0.3-0.28-0.24-0.47
						c0.06-0.2,0.28-0.3,0.47-0.24l15.64,5.13c0.2,0.06,0.3,0.28,0.24,0.47C443.33,167.44,443.18,167.54,443.03,167.54z"/>
				</g>
				<g>
					<line style="fill:#FFFFFF;" x1="428.07" y1="167.54" x2="438.33" y2="170.79"/>
					<path style="fill:#1B1B43;" d="M438.34,171.17c-0.04,0-0.08-0.01-0.11-0.02l-10.26-3.25c-0.2-0.06-0.31-0.27-0.24-0.47
						c0.06-0.2,0.27-0.31,0.47-0.24l10.26,3.25c0.2,0.06,0.31,0.27,0.24,0.47C438.64,171.07,438.49,171.17,438.34,171.17z"/>
				</g>
			</g>
			
				<rect x="433.82" y="151.83" transform="matrix(0.946 0.3241 -0.3241 0.946 73.7612 -133.843)" style="fill:#1B1B43;" width="9.63" height="5.32"/>
			<path style="fill:#1B1B43;" d="M346.06,141.51c-0.13,0-0.26-0.07-0.33-0.19c-0.1-0.18-0.04-0.41,0.15-0.51l17.27-9.57
				c0.18-0.1,0.41-0.04,0.51,0.15c0.1,0.18,0.04,0.41-0.15,0.51l-17.27,9.57C346.18,141.5,346.12,141.51,346.06,141.51z"/>
			<g>
				<path style="fill:#FFBC96;" d="M450.66,197.2c0,0,4.5-11.64-11.51-20.4c0,0-3.88-1.5-1,4.38c0,0-6.13-7.01-4.63,1.13
					c0,0-4.88-4.88-2.38,4.38c0,0-4.88-2.63-1.88,8.38C432.27,206.08,444.28,210.46,450.66,197.2z"/>
				<g>
					<path style="fill:#D28572;" d="M443.78,188.44c-0.12,0-0.24-0.06-0.31-0.17c-1.96-2.94-5.56-6.79-5.59-6.83
						c-0.14-0.15-0.13-0.39,0.02-0.53c0.15-0.14,0.39-0.13,0.53,0.02c0.04,0.04,3.67,3.94,5.67,6.93c0.12,0.17,0.07,0.41-0.1,0.52
						C443.92,188.42,443.85,188.44,443.78,188.44z"/>
					<path style="fill:#D28572;" d="M438.15,189.94c-0.15,0-0.29-0.09-0.35-0.24c-1.46-3.76-4.4-6.98-4.43-7.01
						c-0.14-0.15-0.13-0.39,0.02-0.53c0.15-0.14,0.39-0.13,0.53,0.02c0.12,0.14,3.07,3.35,4.58,7.25c0.08,0.19-0.02,0.41-0.21,0.49
						C438.24,189.93,438.19,189.94,438.15,189.94z"/>
					<path style="fill:#D28572;" d="M433.39,192.32c-0.2,0-0.36-0.15-0.37-0.35c-0.12-1.88-2.17-5.04-2.19-5.07
						c-0.11-0.17-0.06-0.41,0.11-0.52c0.17-0.11,0.4-0.07,0.52,0.11c0.09,0.14,2.18,3.36,2.31,5.44c0.01,0.21-0.14,0.39-0.35,0.4
						C433.41,192.32,433.4,192.32,433.39,192.32z"/>
				</g>
			</g>
			<path style="fill:#1B1B43;" d="M404.36,158.16c-0.19,0-0.35-0.14-0.37-0.33c-0.24-2.14-0.52-4.42-0.8-6.75
				c-0.99-8.04-2.01-16.36-1.7-22.46l0.02-0.1l3.07-9.35l-5.79-9.61c-0.11-0.18-0.05-0.41,0.13-0.52c0.18-0.11,0.41-0.05,0.52,0.13
				l5.97,9.91l-3.17,9.63c-0.3,6.03,0.72,14.29,1.7,22.28c0.29,2.34,0.57,4.62,0.8,6.76c0.02,0.21-0.13,0.39-0.33,0.41
				C404.39,158.16,404.38,158.16,404.36,158.16z"/>
			<path style="fill:#1B1B43;" d="M375.84,158.53c-0.03,0-0.05,0-0.08-0.01c-0.2-0.04-0.33-0.24-0.29-0.45
				c2.1-9.58,2.46-19.32,1.01-27.43l-5.95-9.5l5.85-11.82c0.09-0.19,0.32-0.26,0.5-0.17c0.19,0.09,0.26,0.32,0.17,0.5l-5.66,11.45
				l5.82,9.34c1.48,8.22,1.12,18.09-1,27.8C376.16,158.41,376.01,158.53,375.84,158.53z"/>
		</g>
		<g>
			<path style="fill:#FFBC96;" d="M396.54,106.98c-3.38,6.76-12.01,9.76-18.58,0.38c0.47-1.82,1.04-3.69,1.58-5.6
				c1.04-3.66,2-7.48,2.08-11.49c0.02-0.7,0.01-1.4-0.04-2.11l14.02,1.31L396.54,106.98z"/>
			<path style="fill:#D28572;" d="M392.47,91.78c0,0-3.24,7.24-12.93,9.98c1.04-3.66,2-7.48,2.08-11.49L392.47,91.78z"/>
			<path style="fill:#FFBC96;" d="M399.73,74.95l-4.75,15.77c0,0-8.01,7.41-15.89,3.63c-2.13-1.03-2.97-4.08-3.15-7.67
				c-0.05-0.99-0.05-2.03-0.01-3.07c0.23-6.19,1.78-12.67,1.78-12.67l11.76-5.88L399.73,74.95z"/>
			<path style="fill:#1B1B43;" d="M398.61,84.33c0,0-11.89-7.13-13.01-14.14c0,0-2.53,0.59-8.29,2.72c0,0,0.84-10.46,12.39-11.64
				c10.76-1.09,23.68,7.6,26.56,30.87l-20.02,10.7l-1-17.52L398.61,84.33z"/>
			<g>
				<path style="fill:#FFBC96;" d="M398.95,86.09c-1.23,2.85-3.96,4.43-6.08,3.51c-2.13-0.92-2.85-3.98-1.62-6.83
					c1.23-2.85,3.96-4.43,6.08-3.51C399.46,80.18,400.19,83.23,398.95,86.09z"/>
				<path style="fill:#1B1B43;" d="M393.44,85.22c-0.07,0-0.13-0.02-0.2-0.05c-0.18-0.11-0.23-0.34-0.13-0.52
					c0.02-0.03,1.87-3.01,4.79-2.19c0.2,0.06,0.32,0.26,0.26,0.46c-0.06,0.2-0.26,0.32-0.46,0.26c-2.37-0.67-3.92,1.83-3.94,1.85
					C393.69,85.15,393.57,85.22,393.44,85.22z"/>
			</g>
			<g>
				<path style="fill:#1B1B43;" d="M379.03,80.67c0,0.55-0.45,1-1,1c-0.55,0-1-0.45-1-1c0-0.55,0.45-1,1-1
					C378.58,79.67,379.03,80.12,379.03,80.67z"/>
				<path style="fill:#1B1B43;" d="M386.22,80.83c0,0.55-0.45,1-1,1c-0.55,0-1-0.45-1-1c0-0.55,0.45-1,1-1
					C385.77,79.83,386.22,80.28,386.22,80.83z"/>
				<path style="fill:#D28572;" d="M381.31,87.15c-0.01,0-0.02,0-0.03,0c-0.05,0-1.3-0.12-2.04-0.73c-0.35-0.29-0.54-0.7-0.53-1.18
					c0.03-1.12,1.12-2.45,2.12-3.2c0.16-0.12,0.4-0.09,0.53,0.07c0.12,0.17,0.09,0.4-0.07,0.53c-1.02,0.77-1.8,1.9-1.82,2.62
					c-0.01,0.25,0.07,0.44,0.25,0.59c0.56,0.46,1.61,0.56,1.62,0.56c0.21,0.02,0.36,0.2,0.34,0.41
					C381.67,87,381.5,87.15,381.31,87.15z"/>
				<path style="fill:#1B1B43;" d="M381.03,90.24c-0.19,0-0.35-0.14-0.37-0.33c-0.02-0.21,0.12-0.39,0.33-0.42
					c0.02,0,2.12-0.26,3.44-1.87c0.13-0.16,0.37-0.18,0.53-0.05c0.16,0.13,0.18,0.37,0.05,0.53c-1.52,1.85-3.84,2.13-3.94,2.14
					C381.05,90.24,381.04,90.24,381.03,90.24z"/>
				<path style="fill:#1B1B43;" d="M376.31,77.91c0.23-0.37,0.56-0.62,0.94-0.79c0.38-0.17,0.81-0.25,1.24-0.21
					c0.42,0.04,0.83,0.16,1.18,0.38c0.35,0.21,0.63,0.49,0.84,0.83c0.07,0.11,0.03,0.26-0.08,0.32c-0.05,0.03-0.12,0.04-0.17,0.03
					l-0.02,0c-0.36-0.09-0.67-0.2-0.97-0.28c-0.3-0.09-0.58-0.13-0.87-0.17c-0.28-0.03-0.56-0.02-0.86,0.02
					c-0.29,0.03-0.61,0.12-0.93,0.2l-0.05,0.01c-0.12,0.03-0.24-0.04-0.28-0.16C376.27,78.03,376.28,77.96,376.31,77.91z"/>
				<path style="fill:#1B1B43;" d="M387.82,78.68c-0.74-0.28-1.43-0.54-2.09-0.58c-0.33-0.03-0.65,0-0.98,0.07
					c-0.34,0.06-0.67,0.2-1.07,0.33l-0.03,0.01c-0.12,0.04-0.25-0.03-0.29-0.15c-0.02-0.07-0.01-0.14,0.03-0.19
					c0.24-0.38,0.58-0.72,1.02-0.92c0.43-0.22,0.93-0.31,1.42-0.26c0.48,0.05,0.94,0.2,1.33,0.44c0.39,0.24,0.73,0.53,0.98,0.93
					c0.07,0.11,0.03,0.25-0.07,0.31c-0.06,0.04-0.14,0.04-0.2,0.02L387.82,78.68z"/>
				<path style="opacity:0.4;fill:#FE5B52;" d="M389.74,84.52c0,0.85-0.69,1.54-1.55,1.54c-0.85,0-1.55-0.69-1.55-1.54
					c0-0.85,0.69-1.54,1.55-1.54C389.04,82.98,389.74,83.67,389.74,84.52z"/>
				<path style="opacity:0.4;fill:#FE5B52;" d="M377.47,85.14c0,0.84-0.68,1.53-1.53,1.54c-0.05-0.99-0.05-2.03-0.01-3.07
					C376.79,83.62,377.47,84.29,377.47,85.14z"/>
			</g>
			<path style="fill:#1B1B43;" d="M385.57,67.9c0.04,1.38,0.15,2.77,0.35,4.13c0.23,1.36,0.5,2.71,1.02,3.96
				c0.5,1.25,1.21,2.44,2.28,3.2c1.05,0.8,2.43,1.03,3.8,0.93l0,0c0.08-0.01,0.15,0.05,0.16,0.14c0.01,0.07-0.05,0.14-0.12,0.15
				c-0.7,0.14-1.42,0.19-2.15,0.1c-0.72-0.12-1.43-0.38-2.06-0.78c-1.26-0.82-2.07-2.14-2.6-3.46c-0.52-1.34-0.81-2.75-0.96-4.16
				c-0.14-1.41-0.16-2.82-0.02-4.23c0.01-0.08,0.08-0.14,0.16-0.13C385.51,67.76,385.57,67.82,385.57,67.9L385.57,67.9z"/>
			<path style="fill:#1B1B43;" d="M394.97,61.6c3.34,0.66,6.42,2.18,9.22,4.06c2.81,1.88,5.27,4.24,7.46,6.81l1.56,2
				c0.52,0.66,0.94,1.4,1.41,2.1c0.97,1.38,1.72,2.9,2.52,4.38c0.42,0.73,0.71,1.53,1.06,2.29l1,2.32c0.56,1.59,1.07,3.19,1.6,4.78
				c0.03,0.08-0.02,0.16-0.09,0.19c-0.07,0.03-0.15-0.01-0.18-0.09l0-0.01c-0.61-1.56-1.19-3.12-1.81-4.67l-1.05-2.27
				c-0.36-0.75-0.67-1.53-1.1-2.24c-0.83-1.44-1.56-2.94-2.53-4.29c-0.47-0.68-0.89-1.41-1.41-2.05l-1.53-1.96
				c-2.12-2.54-4.54-4.84-7.25-6.76c-0.68-0.48-1.36-0.95-2.08-1.36c-0.36-0.21-0.71-0.43-1.07-0.63l-1.11-0.56
				c-1.48-0.73-3.04-1.37-4.64-1.74l-0.01,0c-0.08-0.02-0.13-0.1-0.11-0.18C394.82,61.64,394.89,61.59,394.97,61.6z"/>
		</g>
	</g>
	<g>
		
			<rect x="158.07" y="221.85" transform="matrix(-1 -1.224647e-16 1.224647e-16 -1 344.6609 450.0716)" style="fill:#1B1B43;" width="28.53" height="6.38"/>
		<path style="fill:#CBCBFF;" d="M229.09,190.68l-4.32,10.65L214.75,226c-0.56,1.39-1.79,2.28-3.14,2.28h-40.15l14.92-36.78
			c1.58-3.88,5.01-6.37,8.78-6.37h30.77C228.47,185.13,230.14,188.08,229.09,190.68z"/>
		<path style="opacity:0.1;fill:#1B1B43;" d="M224.76,201.33L214.75,226c-0.56,1.39-1.79,2.28-3.14,2.28h-26.24
			C205.1,221.71,217.36,210.82,224.76,201.33z"/>
	</g>
	<g>
		<rect x="307.48" y="221.85" style="fill:#1B1B43;" width="28.53" height="6.38"/>
		<path style="fill:#CBCBFF;" d="M322.62,228.28h-40.15c-1.35,0-2.58-0.89-3.14-2.28l-9.16-22.56l-5.18-12.76
			c-1.05-2.6,0.62-5.56,3.15-5.56h30.78c3.77,0,7.2,2.49,8.78,6.37L322.62,228.28z"/>
		<path style="opacity:0.1;fill:#1B1B43;" d="M302.97,228.28h-20.5c-1.35,0-2.58-0.89-3.14-2.28l-9.16-22.56
			C277.26,211.76,288.92,223.16,302.97,228.28z"/>
	</g>
	<g>
		<g>
			<g>
				<rect x="130.73" y="233.37" style="fill:#FFFFFF;" width="8.6" height="181.42"/>
				<path style="fill:#1B1B43;" d="M139.7,415.16h-9.35V232.99h9.35V415.16z M131.11,414.41h7.84V233.74h-7.84V414.41z"/>
			</g>
			<g>
				<rect x="326.43" y="233.37" style="fill:#FFFFFF;" width="8.6" height="181.42"/>
				<path style="fill:#1B1B43;" d="M335.4,415.16h-9.35V232.99h9.35V415.16z M326.8,414.41h7.84V233.74h-7.84V414.41z"/>
			</g>
		</g>
		<g>
			<rect x="79.16" y="228.15" style="fill:#FFFFFF;" width="307.43" height="7.13"/>
			<path style="fill:#1B1B43;" d="M386.97,235.66H78.79v-7.88h308.18V235.66z M79.54,234.91h306.68v-6.38H79.54V234.91z"/>
		</g>
	</g>
	<rect x="-1.17" y="414.41" style="fill:#1B1B43;" width="500" height="0.75"/>
</g>
</svg>
