<?xml version="1.0" encoding="utf-8"?>
<!-- Generator: Adobe Illustrator 26.0.1, SVG Export Plug-In . SVG Version: 6.00 Build 0)  -->
<svg version="1.1" id="Layer_1" xmlns="http://www.w3.org/2000/svg" xmlns:xlink="http://www.w3.org/1999/xlink" x="0px" y="0px"
	 viewBox="0 0 2301 1255" style="enable-background:new 0 0 2301 1255;" xml:space="preserve">
<style type="text/css">
	.st0{fill:#F7CC7F;}
	.st1{fill:#F79C8D;}
	.st2{fill:#355389;}
	.st3{fill:#F48C7F;}
	.st4{fill:#13375B;}
	.st5{fill:#86B1F2;}
	.st6{fill:#F7A491;}
	.st7{fill:#F47458;}
	.st8{fill:#FFFFFF;}
	.st9{fill:#3C8F7C;}
	.st10{fill:#184655;}
	.st11{fill:#B75742;}
	.st12{fill:#6394DB;}
	.st13{fill:#E5B05C;}
	.st14{opacity:0.2;fill:#F47458;}
	.st15{fill:#F8A492;}
	.st16{fill:#50BFA5;}
	.st17{fill:#0E2E35;}
	.st18{fill:#CAE1F9;}
	.st19{fill:#9BC1F9;}
	.st20{opacity:0.2;fill:#9BC1F9;}
	.st21{fill:#96D9C9;}
	.st22{fill:#E25A44;}
	.st23{fill:#66CCB2;}
	.st24{fill:#07345A;}
</style>
<path class="st0" d="M1892.5,16c-39.5,30.3-95.6,63.9-141.8,78.4l68.7,12.2L1535.7,422L970.4,575.5l-669.1,673l527-0.2l268.5-406.7
	l538-301.5l209-420l44.5,50.8C1879.5,125.8,1883.5,63.3,1892.5,16z"/>
<path class="st1" d="M192.5,584.7c0,0-36.9-66.1-45.9-80.2c-9-14.1-32.4-69.9-33.2-72.1c-0.8-2.2,16.1-28.6,12.3-29.5
	c-3.8-0.9-8,13.9-12,12.2c-4-1.8-15.8-37.5-18.1-35.7c-4.3,3.3,6.4,22.2,4.1,23.4c-2.3,1.2-9.2-20.7-13.7-20.1
	c-4.5,0.6,8.6,20.1,7.3,21.8c-1.3,1.7-14.8-16.6-17.3-12.7c-1.3,2.1,12.5,16,9.8,17.3c-2.7,1.3-14.9-7.7-16.2-5.1
	c-1.3,2.6,11.4,6.1,15.1,13.1c3.8,7,10.2,10,12.9,22.9c2.7,12.9,6.7,59.6,20.4,82.8c13.7,23.3,43.9,74.8,43.9,74.8L192.5,584.7z"/>
<path class="st2" d="M182.3,563.3c0,0,40.8,44,46.9,61.7s-5.9,43.1-22.5,44.2c-16.5,1.1-53.4-78.1-53.4-78.1L182.3,563.3z"/>
<path class="st3" d="M374.5,881.7c-3-2.5-6.6-1.4-16.9-6.1c-2-0.9-7.2-2.4-9.6-2.9c-0.4-0.1-0.8-0.4-0.9-0.9
	c-3.1-11.9-16.9-66.7-18.4-82.5c-1.5-16.2-12-84.7-13.6-95.1c-0.1-0.7-0.8-1.2-1.5-1l-30,8.4c-0.6,0.2-1,0.8-0.8,1.4
	c1.8,8.2,13.4,59.5,16.7,85.4c2.7,20.7,33.5,87.1,34.1,91.3c0,0,0,0.1,0,0.1c0.2,1.3,1.3,2.2,2.6,2.2c7.6,0,32,0,33.4,0
	C371,882.1,375.4,882.4,374.5,881.7z"/>
<path class="st4" d="M307.8,664.6c-15.9-48.4-33.8-46.3-33.8-46.3L287.8,720c9.8-2.7,22.7-8.7,32.5-11.5
	C317.1,693.3,311.7,676.5,307.8,664.6z"/>
<path class="st0" d="M302.9,538.9c-4.9-31.8-33.6-54.7-63.7-39.2c-6.8,3.5-15.9,10.5-20.6,16.5c-12.6,16.2-15.9,36.2-28.9,52
	c4.8,3.6,10.6,7.4,17.5,11.1l8.1-10.8l-2.8,13.5c20.2,9.7,48.7,17.6,87.7,17.4C305.1,577.3,305.5,555.9,302.9,538.9z"/>
<path class="st3" d="M312.2,1243.8c-4.6-3.4-8.3-5.6-23-12.7c-1-0.5-4.4-2.7-5.7-3.5c-3.2-2-6.4-5-9.1-8.1
	c-2.6-2.9-3.9-12.3-4.5-19.8c1.5-16.7,25.8-285.2,30.9-314.3c5.3-30-2.8-75.8-2.8-75.8l-18.7-7.1l-35.5,123.2l2.8,93.8
	c0,0-8.4,27-9.4,43.2c-1.1,16.2,12.1,147.3,12.1,147.3l0,0c0,4.7-0.2,8.9-0.7,11.6c-1,4.9-6.3,15-3.9,19.6c2.5,4.6,5.3,5.8,5.3,5.8
	l63.9,1C317.4,1248.1,315.1,1245.9,312.2,1243.8z"/>
<path class="st1" d="M215.3,800c0,0-22.2,33.5-27.5,61.2c-5.3,27.7,3.9,112.8-6.3,149.1c-5.5,19.6-26.3,50-29.5,75.4
	c-3.2,25.4-14.2,98.6-14.2,98.6h0c-1.7,7.7-4.3,17.2-7.7,21.6c-2.1,2.7-5.9,6.1-8.4,11c-3.9,7.6-1.7,19,1.1,25.2
	c1.5,3.2-0.1,3.2,3.2,4.2c9.9,3.1,20.4-2.1,24.6-11.6c2.4-5.3,4.4-12.4,4.8-21.3c0.4-9.5,1.9-17,3.5-22.5l0,0l70.9-173.9L281.4,867
	l13.1-77.3L215.3,800z"/>
<path class="st5" d="M152.7,1229.8c-15.3,2.8-25.6-6.2-30.9-12.9c-3.9,7.6-5.8,19-2.9,25.3c2.5,5.5,9.9,5.4,15.7,5.6
	c6.1,0.2,10.9-3.2,14-8.6C150,1236.7,151.5,1233.5,152.7,1229.8z"/>
<path class="st5" d="M283.6,1227.6c-16.9,4.3-29.4,1.4-36.4-1.4c-1.8,5.1-4.2,11.5-2.9,15.2c1.6,4.5,3.8,5.6,5.7,5.6
	c15.4,0.4,56.5,1,68.3,1.1c1.6,0,2.5-1.9,1.5-3.2C316.9,1241.5,284.8,1228.4,283.6,1227.6z"/>
<path class="st0" d="M229.7,1017.4c1.3,0.1,2.7,0.2,4,0.3c0.1,0,0.1,0,0.2,0c1.3,0.1,2.6,0.2,4,0.2c0.1,0,0.2,0,0.2,0
	c1.3,0.1,2.7,0.1,4,0.2c0.1,0,0.1,0,0.2,0c1.4,0.1,2.7,0.1,4.1,0.2c15.1,0.5,33.8,0.3,45.8-1.7c6.1-61.2,8.4-117.1,10.7-129.5
	c5.5-30-4.8-77.4-4.8-77.4l-4.9-0.9l3.1-17.5l-82.4,10.4c0,0-23.1,33.5-28.6,61.2c-5.5,27.7,4,112.8-6.5,149.1
	C178.8,1011.9,202.3,1015.5,229.7,1017.4z"/>
<path class="st2" d="M233.3,609.7c0,0-29.4-1.9-41,10.8c-11.6,12.7,25.8,113.1,27.9,129.2c2.1,16.2-10.8,59.1-10.8,59.1
	s69,13.9,88.7,0.8c0,0,2.1-116.2,0-127.7c-2.1-11.5-19.7-58.5-23.9-63.1C269.9,614.3,233.3,609.7,233.3,609.7z"/>
<path class="st6" d="M243,570.3c0,0-0.2,0.9-0.4,2.3c-1.3,7.1-6.4,30.6-9.8,37c-4.1,7.8,14.1,32.7,31.6,29.6
	c5.2-0.9-4.4-22.9-3.9-25.2c0.9-4.5,2.1-10.5,3.3-16.7c0.7-3.5,1.4-7.1,2.1-10.4c1.9-9.5,3.4-17.3,3.4-17.3L243,570.3z"/>
<path class="st7" d="M242.6,572.7c0.3-1.5,0.4-2.3,0.4-2.3l26.3-0.7c0,0-1.5,7.8-3.4,17.3c-0.7,3.3-1.4,6.9-2,10.4
	c-4.1-0.6-8.3-2.6-12.5-6.3c-4.6-4.1-7.7-8.9-9.5-14.2C242.1,575.2,242.4,573.8,242.6,572.7z"/>
<path class="st6" d="M260.7,510.5c0,0-12.4-1.4-20.1,8.6c-7.8,10.1-16.1,41.2,3.2,58.1c19.3,16.9,38.3-2.2,41.1-22.5
	C287.7,534.4,288.8,509.8,260.7,510.5z"/>
<path class="st6" d="M290.6,554.4c-2.3,4.5-6.2,7-8.6,5.5c-2.5-1.4-2.6-6.2-0.3-10.7c2.3-4.5,6.2-7,8.6-5.5
	C292.7,545.1,292.9,549.9,290.6,554.4z"/>
<path class="st0" d="M262.1,507.2c0,0-16.5,29.6-28.4,30.9c-11.8,1.4-13.4,17.1-13.4,17.1s4.2-36.2,15.9-43.2
	C248,505,262.1,507.2,262.1,507.2z"/>
<path class="st6" d="M236.8,545.6c1,5.3-1,10.1-4.3,10.8c-3.3,0.7-6.8-3-7.8-8.3c-1-5.3,1-10.1,4.3-10.8
	C232.4,536.6,235.9,540.3,236.8,545.6z"/>
<path class="st8" d="M251.4,564.6l17.9,3.5c0,0-1.7,6.7-9.7,5.4C250,571.9,251.4,564.6,251.4,564.6z"/>
<g>
	
		<rect x="1709.7" y="1080" transform="matrix(-0.9825 0.1863 -0.1863 -0.9825 3614.0317 1991.4841)" class="st9" width="7.5" height="171.1"/>
	<polygon class="st9" points="1386.2,1251.1 1377.4,1251.1 1410.3,1080.8 1417.6,1082.1 	"/>
	<polygon class="st9" points="1643.9,1251.1 1635,1251.1 1667.9,1080.8 1675.3,1082.1 	"/>
	<polygon class="st10" points="1466.6,1251.1 1473.8,1251.2 1442.2,1081.5 1434.9,1082.9 	"/>
	<path class="st7" d="M1593.6,711.6c39.2,4.2,89.9,8.6,140.8,95c55.6,94.4,26.3,235.4-17.6,274.6c-43.9,39.2-187.3,87.6-307.8,15.1
		c0,0-72.8-43.9-35.4-116.7c57.5-112.1,49.4-135.5,75.1-179.4C1474.3,756.3,1510.5,702.7,1593.6,711.6z"/>
	<path class="st11" d="M1734.4,806.6c-34.7-59-69.4-79.7-100.3-88.3c12,12.4,24.1,28.3,36.3,48.9c55.6,94.4,26.3,235.4-17.6,274.6
		c-38.9,34.7-156.1,76.7-266.2,35.3c11.3,12.5,22.4,19.2,22.4,19.2c120.5,72.4,263.9,24.1,307.8-15.1
		C1760.7,1042,1790,901,1734.4,806.6z"/>
	<polygon class="st1" points="1467.8,855.1 1457.8,885.3 1488.5,873.3 	"/>
	<path class="st12" d="M1499.5,765.2c-2,0.1-7.7,2-15.8,17.4c-10.5,19.7-25.8,79.3-25.8,79.3l45.7,16.9l5.9-12.4l9.7-95.7
		C1519.1,770.7,1500,765.2,1499.5,765.2z"/>
	<path class="st5" d="M1559.9,756.6c-13.1,0-45.4,3.8-60.4,8.6c0,0-11,94.4,9.9,166.1c4.7,16.1-3.9,66.5-3.9,66.5l135.3-1.8
		c0,0-16-122.1-10-141.8c6-19.7,6.2-88.4,6.2-88.4s-0.9-0.1-30.4-5.2C1592.9,758.3,1573.8,756.6,1559.9,756.6z"/>
	<path class="st6" d="M1575.6,1173c0,0-3,34.4-8.5,44c-5.5,9.5,0.3,25.7,0.6,28c0.3,2.2,11.6,5.4,29.6,3.5c18-1.9,17.7-6,16.2-12.7
		c-1.4-6.7-11-15.3-11.6-21.6c-0.6-6.4,5.5-29.2,5.5-29.2L1575.6,1173z"/>
	<path class="st13" d="M1520.8,969.4c0,0-93.4-5.2-114.3,7.4c-20.9,12.6,3.8,38.4,3.8,38.4s76.1,33,203.4,40.3
		c30.2,1.7,32.7-78.3,27.1-85C1635.1,964,1520.8,969.4,1520.8,969.4z"/>
	<path class="st7" d="M1599.5,1251.2c18.5-2,16.2-11,14.7-17.9c-0.9-4.3-6.2-9.4-9.4-14.2c-1.7,1.3-4.3,3.6-12.4,6
		c-8.3,2.5-19.8-2.4-27.1-5.4c-2.6,9.6-2.7,21.9-2.5,23.8C1563.2,1245.7,1581,1253.1,1599.5,1251.2z"/>
	<path class="st0" d="M1589.3,1036.1c-3.7,28.1-22.2,168.3-22.2,168.3l42.9,5.3c0,0,52.7-182.9,50-210.9
		c-2.7-28-22.4-30.3-22.4-30.3S1599.2,961.5,1589.3,1036.1z"/>
	<path class="st6" d="M1638.5,776.4c-12.7-4.7-18.8,108.9-20.5,155.7c-22.4,2.1-61.5,0-71.2-0.7c-4.6-0.3-15.1-4.2-19.7-4.8
		c-4.7-0.6-8.9-0.9-11.2-0.5c-0.8,0.1-24.2,9.7-26.2,11.8c-2.5,2.6-9.2,9.1-8,11.9c1.1,2.8,12.9-7.9,12.9-7.9l5.7-3.2
		c-7.2,7-20.8,16.1-18.8,19.5c1.9,3.3,14.2-6,23-12.4c-7.5,6.8-16.9,18.9-14.7,20.8c1.9,1.7,12.6-12.3,23.9-16.4
		c4.2-1.5,8.4,2.6,11.7,3.1c2.4,0.4,6.2,1.2,8.6,0.5l12.3-3.5c4.2,0.4,4.3,2.8,8.5,3.7c4.9,1,13,2.1,19.2,3.7
		c36,8.8,48,12.8,59.1,12.8C1666.5,970.5,1668.4,787.5,1638.5,776.4z"/>
	<path class="st5" d="M1662.5,883c2.4-47.9,2-106.9-24.9-117c-10.6-4-29.4,19.9-26,118C1626,885.2,1647.1,886.1,1662.5,883z"/>
	<path class="st6" d="M1450.2,1202.5c0,0,3.7,12-3,19.9c-6.7,7.9-34.5,15.7-38.2,19.9c-3.7,4.3-3.4,7.9-3.4,7.9l78.1-2.1l-0.9-23.5
		l-3.6-16.9L1450.2,1202.5z"/>
	<path class="st7" d="M1442.4,1226.3c0,0,20.1,8.1,29.8,3.3c9.7-4.8,9.4-6.1,12.2-4.3c2.8,1.8,3.8,25.8,3.8,25.8l-87.9,0.6
		c-6.1-0.1-9.2-4.6-4.2-8.5c3.4-2.6,7.3-4.4,9.6-5.7C1412.6,1233.6,1442.4,1226.3,1442.4,1226.3z"/>
	<path class="st0" d="M1453.2,991.5c-6-12.7-19.8-29.2-43.9-19.2c-23,9.5-29.2,32.8-22,56.6c7.3,23.8,55.1,164,56.8,183.2l38.2,0.3
		c0,0-6.9-111-8.7-137.8C1472,1048.8,1463.6,1013.4,1453.2,991.5z"/>
	<path class="st2" d="M1391.1,862.4h127.8c3.4,0,6.4,2,7.7,5.2l39.3,96h70.4c2,0,3.6,1.6,3.6,3.6l0,0c0,2-1.6,3.6-3.6,3.6h-200.5
		c-5.5,0-10.5-3.2-12.8-8.3l-39.6-88.2C1381.1,868.7,1385.1,862.4,1391.1,862.4z"/>
	<path class="st8" d="M1459.9,918.3c0.9,4.3,4.6,7.2,8.4,6.4c3.8-0.8,6.1-4.9,5.3-9.2s-4.6-7.2-8.4-6.4
		C1461.4,909.9,1459.1,914,1459.9,918.3z"/>
	<path class="st6" d="M1575.4,716.2l6.3,41.2c0,0-22.8,49.1-36.5,44.8c-11.4-3.6-4.4-47-4.4-47s6.2-23.3,4.4-35
		C1543.3,708.6,1575.4,716.2,1575.4,716.2z"/>
	<path class="st14" d="M1545.1,720.2c-1.9-11.7,30.2-4.1,30.2-4.1l0.5,3.4c-0.9,2.3-2.1,4.2-3.5,5.7c-7.2,7.7-18.4,12.4-28.1,12.7
		C1545.3,731.8,1545.9,725,1545.1,720.2z"/>
	<g>
		<path class="st6" d="M1580.6,657.9c0.9-0.3,7.3,46.9-4.8,59.9c-12.1,13-35.6,17.3-44.1,7c-9.3-11.3-8.9-62.1,9.9-75.5
			C1560.5,636,1580.6,657.9,1580.6,657.9z"/>
		<path class="st0" d="M1548.8,624.1c14.5,3,23.9,11.8,27.4,15.6c6.6,0.8,15.6,4.4,24.8,19.7c11.4,18.8,3,39.7-10.3,50
			c-13.2,10.2-13.1,22.1-13.1,22.1l-2.1-6.1c-1.5-4.6-2.2-9.6-1.7-14.4c0.3-2.9,0.9-6.1,2.1-8.7c3.2-6.8-6.8-11.4-9.7-17.1
			c-2.2-4.4-2.3-14.4-5.7-21.6l-4.1-5.5c0,0-9.4-7.3-18.6-5.2C1528.9,654.8,1530.2,620.3,1548.8,624.1z"/>
		<path class="st6" d="M1567,693.6c-0.1,5.8,2.5,10.5,5.9,10.5c3.3,0.1,6.1-4.6,6.2-10.3c0.1-5.8-2.5-10.5-5.9-10.5
			C1569.9,683.2,1567.1,687.8,1567,693.6z"/>
	</g>
	<path class="st8" d="M1550.7,709.6l-18.2-0.9c0,0,0.1,6.9,8.1,7.6C1550.3,717,1550.7,709.6,1550.7,709.6z"/>
</g>
<g>
	<path class="st15" d="M1913.6,479.9c2,8.2,5.6,21.1,5.6,21.1c-0.3,3.5-1.3,18.3-2.6,36.4l26.6-10.6c0,0-0.3-29.5,0.9-31.3
		c1-1.5,2.7,0.4,10.8-11.3c2.4-3.4,2.8-9.4,2.8-9.4s0.5-7.4-1.2-8.1c-1.7-0.7-3.6,0.4-4.2,1.7c-0.6,1.3-0.4,4.3-1,5.5
		c-0.6,1.3-4.4,2.8-6.1,2.7c-1.6-0.1,0.2-21.9,0.2-21.9s0.9-6.2,1.4-8.2c0.4-1.7,2-6.8,2-6.8s1.8-7.3-0.4-7.9
		c-1.3-0.3-4.8,5.6-7.1,12c-2.5,6.8-4,14.1-4.7,14c-1.7-0.2-0.8-12.2-0.8-12.2s1.7-5.5,1.6-8.1c1.6-3.2,2.7-9.1-0.2-9.5
		c-0.5-0.1-4.2,7.4-4.2,7.4s-1.5,5.3-2.3,7.7c-1.5,4.3-1.7,11.2-2.5,14.2c-0.7,2.5-1.2,1.5-1.5,1.6c-0.2,0.1,0.2-3.4,0.6-8.1
		c0.2-2.4-0.1-5.2,0.6-7.9c0.6-2.5,1-6.1,1.1-8.3c0.5-6.2-3.4-5.6-4.8,0.1c-0.5,2.2-1.1,4.5-1.6,6.9c-2.1,9.3-2,18.2-3,18.3
		c-1.3,0.1-0.4-16.2-0.4-16.2s-2-9-4-0.6c-2.3,9.7-2.1,17.6-2,18C1913.3,463.2,1911.6,471.7,1913.6,479.9z"/>
	<path class="st15" d="M2195.9,458.4c-2,8.2-5.6,21.1-5.6,21.1c0.3,3.5,1.3,18.3,2.6,36.4l-26.6-10.6c0,0,0.3-29.5-0.9-31.3
		c-1-1.5-2.7,0.4-10.8-11.3c-2.4-3.4-2.8-9.4-2.8-9.4s-0.5-7.4,1.2-8.1c1.7-0.7,3.6,0.4,4.2,1.7s0.4,4.3,1,5.5
		c0.6,1.3,4.4,2.8,6.1,2.7c1.6-0.1-0.2-21.9-0.2-21.9s-0.9-6.2-1.4-8.2c-0.4-1.7-2-6.8-2-6.8s-1.8-7.3,0.4-7.9
		c1.3-0.3,4.8,5.6,7.1,12c2.5,6.8,4,14.1,4.7,14c1.7-0.2,0.8-12.2,0.8-12.2s-1.7-5.5-1.6-8.1c-1.6-3.2-2.7-9,0.2-9.5
		c0.5-0.1,4.2,7.4,4.2,7.4s1.5,5.3,2.3,7.7c1.5,4.3,1.7,11.2,2.5,14.2c0.7,2.5,1.2,1.5,1.5,1.6c0.2,0.1-0.2-3.4-0.6-8.1
		c-0.2-2.4,0.1-5.2-0.6-7.9c-0.6-2.5-1-6.1-1.1-8.3c-0.5-6.2,3.4-5.6,4.8,0.1c0.5,2.2,1.1,4.5,1.6,6.9c2.1,9.3,2,18.2,3,18.3
		c1.3,0.1,0.4-16.2,0.4-16.2s2-9,4-0.6c2.3,9.7,2.1,17.6,2,18C2196.2,441.7,2197.9,450.2,2195.9,458.4z"/>
	<path class="st6" d="M2123.1,1152.1c0,0,14.7,18.3,18.4,20.5c3.7,2.2-1.6,28.8-11.6,30.6c-5.6,1-8.8-5.2-8.8-5.2l1.6-7.7
		l-21.1-21.7L2123.1,1152.1z"/>
	<path class="st6" d="M2047.2,1156.6c0,0,12.3,20,15.6,22.7c3.4,2.7-5.3,28.4-15.5,28.8c-5.7,0.3-8-6.3-8-6.3l2.6-7.4l-18.1-24.2
		L2047.2,1156.6z"/>
	<path class="st4" d="M2062.1,1178.6c0,0-7.1,9-10.9,12.6c-5,4.6-11.3,9.1-11.3,9.1s-7.2,13.1-9.2,17.7c-4.4,10.2-9.3,21.5-8.6,27.2
		c0.2,1.8,4.3,3.8,7.8,2.7c14.2-4.4,50.7-37.7,55.3-46.6C2090.4,1190.9,2062.1,1178.6,2062.1,1178.6z"/>
	<path class="st9" d="M1958.1,873.7c1.3-3.7,2.6-7.1,3.8-10.3c15.2,3.3,32.3,6.9,49.9,10.7l2.1,64.5c0-5-13.2,102.9-13.2,102.9
		s34.2,75.7,57.6,119.9c-9.6,12-14.1,15.8-28,24c-36.3-43.5-83.8-123.2-85.8-136.5C1943.3,1041.3,1942.3,918.1,1958.1,873.7z"/>
	<path class="st16" d="M2093.3,892.3c-4.6,50.3-14.9,146.4-14.1,154.1c2.6,9.6,48.4,98.6,56.6,111.5c-6.5,9.9-16.7,20.5-27.6,23.4
		c-2.1,0.6-77.7-106.9-81.8-115.5c-4.7-9.6-12.4-62.3-12.6-127.4l-2.1-64.5C2041.1,880.3,2068.1,886.4,2093.3,892.3z"/>
	<path class="st2" d="M1997,663.1l34.5,4.7c0,0,27.6,0.5,31,0.5c3.4,0,25.2,126.1,31.4,173.5c6.3,47.4,1.4,55.8,1.4,55.8
		s-43.8,9.8-76.2,7c-33.7-3-71.6-21.2-71.6-21.2s28.8-91.1,34.5-119.5C1987.9,735.5,1997,663.1,1997,663.1z"/>
	<path class="st5" d="M1913.3,510.6c0,0-2.2,93.9,1.3,101.1c5.1,10.4,63.1,84.5,63.1,84.5s-27.7,115.9-39.3,155.9
		c-1.2,4-6.4,30.1-6.4,32.6c0,5.6,24.5,12.8,27.4,12.3c2.6-0.4,24-110.6,37.6-164.6c4.6-18.3,12.6-35.6,23.4-51l9.5-13.5l-72.8-73
		c0,0-9-81.3-9-88C1948.2,505.3,1916.8,503.9,1913.3,510.6z"/>
	<path class="st5" d="M2061.4,668.4l90.8-92.5c0,0,12.7-87.5,13.6-90.8c0.9-3.2,23.4-5,32.5-5.9c2.9-0.3-1.5,93.2-5.9,108.9
		c-5.1,18.5-73.8,102.9-73.8,102.9s-12.3,45.7-9.3,79.2c4.9,55.7,18.2,132.2,15.8,134.6c-14.8,9.3-71.4,10.3-75,4.5
		C2010.5,845.5,2061.4,668.4,2061.4,668.4z"/>
	<path class="st4" d="M2140.7,1172c0,0-5.9,9.8-9.2,13.9c-4.3,5.2-10.1,10.5-10.1,10.5s-5.5,13.9-6.9,18.7
		c-3.1,10.6-6.5,23.5-5.1,29.1c0.5,1.8,4.4,5.2,7.6,3.1c12.5-8.1,45.9-46.2,49.3-55.7C2170.4,1180.6,2140.7,1172,2140.7,1172z"/>
	<path class="st17" d="M2034.1,547.8c3.9,0.1,7.7,0.1,11.6-0.2c4.4-0.4,9.9-0.7,13.1,0c6.7,1.4,17.4,6.2,20.9,15
		c4.4,11,20.3,9.3,1.5,50.9c-21.2,47.1-46.1,31.7-46.4,30.6c-0.3-1.1-12.3-39.9-12.3-39.9s-14.9,14.7-14.6,14.1
		C2008.2,617.7,1987.7,546.1,2034.1,547.8z"/>
	<path class="st6" d="M2032,650.8l-2.5,18.4c0,0-5.5,26.5,1.6,31.7c7.1,5.1,30.3-32.4,30.3-32.4l-2.5-46.7L2032,650.8z"/>
	<path class="st7" d="M2059.8,636.9c-5.9,15.9-19.9,25.7-29.9,29.5l2.1-15.6l27-29L2059.8,636.9z"/>
	<path class="st6" d="M2050.9,569c-13.3-7.6-30.3-1-35.2,13.3c-2.2,6.2-4.6,14.1-6.4,22.8c-4.4,21.1,2.5,43.7,12.1,45.5
		c9.6,1.8,38.6-6.8,45.3-36.6C2070.9,595.5,2064.9,577,2050.9,569z"/>
	<path class="st6" d="M2059.2,615c-0.9,4.7,1.5,9,5.3,9.8c3.8,0.7,7.6-2.5,8.5-7.1c0.9-4.7-1.5-9-5.3-9.8
		C2063.9,607.1,2060.1,610.3,2059.2,615z"/>
	<path class="st17" d="M2067.7,607.8c0,0-11.9-1.4-13.3-9.9c-1.4-8.5-10.1-29-30.8-29.7c-20.7-0.7,21.8-9.1,23.3-8.6
		c1.5,0.6,19.1,7.1,19.1,7.1s9.3,16.3,9.4,17.7c0,1.4-1.1,16.2-1.1,16.2L2067.7,607.8z"/>
	<path class="st8" d="M2036.9,629.5l-21.2-3.7c0,0-0.9,8.1,8.3,10C2035.3,638.1,2036.9,629.5,2036.9,629.5z"/>
</g>
<path class="st18" d="M529.8,223.1c-2.4-1.6-4.9-3.2-7.2-4.8c-0.4-0.3-0.8-1.1-0.8-1.6c0.3-3.3,0.8-6.7,1.1-10
	c0.1-1,0.3-1.5,1.2-1.8c3.3-1.3,6.5-2.7,9.8-4c0.5-0.2,1-0.5,2-0.8c-1.6-5-3.1-9.9-4.7-15c-4.2,0.8-8,1.5-11.8,2.4
	c-1.3,0.3-2.1,0.1-2.9-1.1c-1.8-2.5-3.9-4.8-5.8-7.3c-0.3-0.4-0.4-1.1-0.2-1.6c1.3-3.3,2.6-6.7,4.1-9.9c0.7-1.6,0.4-2.4-1-3.1
	c-0.5-0.3-1-0.8-1.5-1.1c-2.4-1.3-4.8-2.6-7.2-3.9c-0.3-0.1-0.6-0.1-0.9-0.2c-2.9-1.2-2.4-1.2-4,1.3c-2,3-4,6-5.8,8.6
	c-4.5-0.4-8.7-0.8-13.1-1.2c-1.6-4-3.4-8.2-5.1-12.4c-5.3,0.7-10.2,2.4-15,4.7c0.8,4.1,1.6,8.2,2.4,12.2c0.1,0.7,0.1,1.2-0.6,1.7
	c-2.8,2.1-5.5,4.2-8.1,6.5c-0.8,0.6-1.2,0.7-2.1,0.3c-3.3-1.4-6.7-2.7-10.1-4.1c-0.8-0.3-1.4-0.3-2,0.5c-2.8,3.7-4.7,7.7-6.2,12
	c-0.3,0.8,0.1,1.2,0.7,1.6c3,1.9,5.9,3.9,8.8,5.8c0.9,0.5,1.1,1,0.9,2.1c-0.6,3.8-1,7.7-1.4,11.8c-3.6,1.5-7.8,3.2-11.9,4.9
	c0.7,5.4,2.2,10.4,4.6,15.2c4.5-0.9,8.9-1.8,12.8-2.6c2.5,2.8,4.7,5.6,7.1,8.1c0.9,1,1.1,1.7,0.5,2.9c-1.4,3.2-2.7,6.4-4,9.6
	c-0.3,0.6-0.8,1.4,0.2,1.9c4,2.1,8.1,4.3,12.1,6.4c0.9,0.5,1.4,0.2,1.9-0.6c1.9-3,4-5.9,5.9-9c0.7-1.2,1.5-1.2,2.7-1.1
	c3,0.4,6,0.8,9.1,0.8c1.3,0,1.8,0.4,2.2,1.5c1.4,3.7,3,7.4,4.5,11c3.2,0,12-2.8,15.2-4.7c-0.8-4-1.6-8-2.5-12c-0.2-1,0.1-1.4,0.8-2
	c2.5-1.9,4.8-4.1,7.2-6c0.4-0.3,1.2-0.5,1.7-0.3c3,1.2,5.9,2.4,8.9,3.7c1.6,0.7,2.3,1,2.9,0.6l6.9-12.8
	C532.5,224.9,531.8,224.4,529.8,223.1z M504.2,218.6c-6.2,11.5-20.5,15.8-31.9,9.6h0c-11.5-6.2-15.8-20.5-9.6-31.9l0,0
	c6.2-11.5,20.5-15.8,31.9-9.6h0C506,192.8,510.3,207.1,504.2,218.6L504.2,218.6z"/>
<path class="st19" d="M622.7,435.2c-7.9,0.8-15.8,1.8-23.7,2.4c-1.4,0.1-3.6-0.9-4.4-2.1c-5.2-7.6-9.9-15.5-15.2-23.1
	c-1.5-2.2-1.9-3.7-0.6-6.1c4.7-8.5,9.2-17.1,13.7-25.6c0.7-1.4,1.4-2.8,2.7-5.2c-12.1-7.9-24-15.7-36.2-23.7
	c-7.4,9.1-14.3,17.3-20.9,25.7c-2.3,3-4.1,3.9-8.1,2.8c-8.2-2.3-16.6-3.4-24.9-5.3c-1.3-0.3-2.9-1.7-3.3-2.9
	c-3.1-9.3-6.2-18.7-8.8-28.2c-1.2-4.6-3.4-5.7-7.7-4.8c-1.6,0.3-3.4,0.1-5.1,0.1c-7.4,1.5-14.8,3-22.1,4.4c-0.7,0.4-1.5,0.9-2.3,1.2
	c-8.3,2.6-7.1,1.7-6.3,9.8c0.9,9.9,2,19.8,2.9,28.4c-10.3,7-19.9,13.5-29.8,20.3c-10.5-5.6-21.5-11.4-32.5-17.3
	c-10,10.8-17.4,22.9-23.6,36.1c9,7.3,17.7,14.4,26.5,21.5c1.6,1.3,2.2,2.3,1.7,4.6c-2.2,9.2-4.2,18.5-5.8,27.9
	c-0.5,2.7-1.5,3.6-3.8,4.3c-9.6,2.9-19.1,6-28.6,8.9c-2.4,0.7-3.5,1.7-3.4,4.5c0.5,12.6,3.7,24.6,7.9,36.3c0.8,2.3,2.3,2.4,4.4,2.2
	c9.6-1.1,19.3-2,28.9-3.2c2.8-0.3,4.2,0.2,5.7,2.8c5.4,9.1,11.4,18,17.7,27.6c-5.1,9.5-10.8,20.4-16.6,31.2
	c11,10.2,22.8,18.3,36.3,24.2c7.9-9.8,15.6-19.4,22.6-28.1c10.2,1.7,19.7,3.5,29.2,4.8c3.6,0.5,5.2,1.7,6.2,5.2
	c2.6,9.2,5.5,18.3,8.4,27.4c0.6,1.8,0.8,4.3,3.8,3.6c12.3-2.6,24.6-5.1,36.9-7.7c2.6-0.5,3.3-2.1,2.9-4.7
	c-1.2-9.8-1.9-19.6-3.3-29.3c-0.5-3.8,1.1-5.2,3.9-7c7.1-4.4,14.1-9,20.7-14.2c2.8-2.2,4.4-2.3,7.4-0.7c9.5,5.4,19.3,10.5,28.8,15.6
	c6.9-5.7,20.7-27,24-36.7c-8.7-7-17.5-14.1-26.4-21c-2.2-1.7-2.4-3.2-1.8-5.8c1.8-8.4,3.1-17,4.8-25.5c0.3-1.4,1.7-3.3,3.1-3.7
	c8.4-2.8,16.9-5.2,25.3-7.7c4.7-1.4,6.7-1.9,7.3-3.9l-7.9-39.3C631.5,434.4,629.1,434.6,622.7,435.2z M560.5,470.6
	c7,35.1-15.8,69.3-50.9,76.3l0,0c-35.1,7-69.3-15.8-76.3-50.9l0,0c-7-35.1,15.8-69.3,50.9-76.3l0,0
	C519.3,412.7,553.4,435.5,560.5,470.6L560.5,470.6z"/>
<path class="st20" d="M832.4,253.6c-6-2.8-12-5.5-17.9-8.4c-1.1-0.5-2.2-2.2-2.3-3.3c-0.4-7.6-0.4-15.3-0.9-22.9
	c-0.1-2.2,0.2-3.4,2.2-4.6c7-4,13.8-8.2,20.7-12.4c1.1-0.7,2.2-1.4,4.1-2.6c-5.2-10.8-10.4-21.4-15.7-32.3
	c-9.2,3.3-17.6,6.2-25.8,9.4c-2.9,1.1-4.6,1-7-1.5c-4.8-5.1-10.4-9.6-15.5-14.4c-0.8-0.7-1.3-2.4-1.1-3.5c1.8-8,3.5-16,5.8-23.8
	c1.1-3.8,0-5.5-3.4-6.7c-1.3-0.4-2.5-1.4-3.7-2.1c-5.9-2.1-11.8-4.2-17.7-6.3c-0.7,0-1.4,0-2.1-0.1c-7.1-1.7-5.8-1.8-8.7,4.3
	c-3.6,7.4-7,15-10.1,21.5c-10.3,0.6-20,1.1-29.9,1.7c-5.1-8.5-10.4-17.3-15.7-26.2c-11.7,3.4-22.2,8.9-32.2,15.6
	c3.3,9,6.5,17.8,9.7,26.6c0.6,1.6,0.6,2.6-0.8,4c-5.5,5.6-10.9,11.4-16.1,17.4c-1.5,1.7-2.6,1.9-4.5,1.4c-8-2-16.1-3.9-24.2-5.9
	c-2-0.5-3.2-0.3-4.3,1.8c-5,9.2-7.9,19.1-9.9,29.2c-0.4,2,0.6,2.7,2.2,3.4c7.3,3.3,14.6,6.8,21.9,10.1c2.1,0.9,2.9,1.9,2.9,4.5
	c0,8.8,0.5,17.7,0.8,27.2c-7.7,4.6-16.4,9.9-25.1,15.1c3.4,12,8.4,22.8,15.5,32.7c9.8-3.6,19.4-7.2,28.1-10.3
	c6.6,5.6,12.5,10.9,18.8,15.9c2.4,1.9,3,3.5,2.2,6.3c-2.1,7.6-3.9,15.4-5.7,23.1c-0.4,1.5-1.3,3.4,1.2,4.2
	c9.8,3.4,19.7,6.9,29.5,10.3c2.1,0.7,3.2-0.1,4.1-2.1c3.3-7.5,7-14.8,10.2-22.3c1.2-2.9,3-3.3,5.8-3.3c6.9-0.1,13.9-0.4,20.7-1.3
	c3-0.4,4.2,0.2,5.5,2.7c4.5,7.9,9.3,15.7,13.8,23.4c7.3-1.1,26.2-10.4,32.7-15.9c-3.2-8.7-6.4-17.5-9.8-26.2
	c-0.9-2.2-0.3-3.3,1.2-4.9c4.9-5.2,9.4-10.8,14.3-16.1c0.8-0.9,2.6-1.6,3.8-1.3c7.1,1.6,14.2,3.5,21.3,5.3c4,1,5.6,1.5,6.8,0.3
	l11.2-31.3C839.1,256.8,837.3,255.9,832.4,253.6z M773,252.3c-10,28-40.8,42.6-68.8,32.6l0,0c-28-10-42.6-40.8-32.6-68.8l0,0
	c10-28,40.8-42.6,68.8-32.6l0,0C768.4,193.5,783,224.3,773,252.3L773,252.3z"/>
<path class="st2" d="M697.8,1237.2l-17.7-0.1c2.3-77.3,4.4-194.7,0.5-201.3c0,0,0.3,0.4,1.2,0.9l14.4-3.8c2.3,1.2,3.7,1.9,4.2,34.8
	c0.2,16.9,0.2,40.3-0.3,69.4C699.3,1186.7,697.8,1236.7,697.8,1237.2z"/>
<path class="st2" d="M749.7,1236.2H630.2c-5.5,0-10,4.5-10,10l0,0c0,1,0.8,1.7,1.7,1.7h136c1,0,1.7-0.8,1.7-1.7l0,0
	C759.7,1240.7,755.2,1236.2,749.7,1236.2z"/>
<path class="st2" d="M695.9,1226.4h-14.6c-4.3,0-7.8,3.5-7.8,7.8l0,0c0,4.3,3.5,7.8,7.8,7.8h14.6c4.3,0,7.8-3.5,7.8-7.8l0,0
	C703.7,1229.9,700.2,1226.4,695.9,1226.4z"/>
<rect x="265" y="895.3" class="st4" width="7.1" height="352.4"/>
<path class="st4" d="M628.5,700.3c-0.6-15.7,1.7-31.1,8.7-45.7c6-12.5,20.9-19.7,34.6-19.7c43.2-0.1,48.7,57,76.2,79
	c8.4,6.7,17.8,12.2,25.7,19.5c29.4,26.8,16.1,76.4-10.8,99.9c-18.7,16.3-48.1,25.6-71.2,12.8c-12-6.7-21.2-17.7-27.7-29.8
	c-9.2-17.2-15.2-37-21.8-55.3C635.3,741.4,629.4,721.1,628.5,700.3z"/>
<path class="st3" d="M509.4,864.4l94-26.2c0,0,19.8-26.6,45.3-62.3c8.3,8.2,13,20.9,21.4,29.1l-62.2,68.8c-2.2,2.5-5.4,3.9-8.8,3.9
	l-86.4,0.3l-29.6,2.4v-18.9L509.4,864.4z"/>
<path class="st21" d="M644.7,844.4c0,0,32.3-33.1,40.6-47.5c8.3-14.4-5.7-5-19.9-8.8c-5.4-1.4-4-33.1-14.2-22.8
	c-16.7,16.9-37.8,46.4-37.8,46.4L644.7,844.4z"/>
<path class="st16" d="M690.6,750.9c0,0,29-5.7,42.2,5.3c13.2,11-2.8,109.2-2.8,125.5c0,16.3,9.1,62.2,9.1,62.2s-87.8,15.4-101.7-9.1
	c0,0-4-93.1-3.4-104.8c0.6-11.7,13.6-59.6,17.2-64.7C654.7,760.3,690.6,750.9,690.6,750.9z"/>
<path class="st6" d="M690.7,706.1c0,0,0.2,0.9,0.4,2.3c1.3,7.1,6.4,30.5,9.8,37c4.1,7.8-14.1,32.6-31.7,29.6
	c-5.2-0.9,4.4-22.8,4-25.1c-0.9-4.4-2.1-10.5-3.3-16.7c-0.7-3.5-1.4-7.1-2.1-10.4c-1.9-9.5-3.4-17.3-3.4-17.3L690.7,706.1z"/>
<path class="st7" d="M691.2,708.4c-0.3-1.5-0.4-2.3-0.4-2.3l-26.3-0.7c0,0,1.5,7.8,3.4,17.3c0.7,3.3,1.4,6.9,2,10.3
	c4.1-0.6,8.3-2.6,12.6-6.3c4.6-4.1,7.7-8.9,9.5-14.1C691.6,710.9,691.4,709.5,691.2,708.4z"/>
<path class="st6" d="M673,646.3c0,0,12.4-1.4,20.2,8.6c7.8,10,16.2,41.1-3.2,58c-19.3,16.9-38.4-2.2-41.3-22.5
	C646,670.2,644.9,645.6,673,646.3z"/>
<path class="st6" d="M643.1,690.1c2.3,4.5,6.2,7,8.7,5.5c2.5-1.4,2.6-6.2,0.3-10.7c-2.3-4.5-6.2-7-8.7-5.5
	C640.9,680.9,640.8,685.7,643.1,690.1z"/>
<path class="st4" d="M671.6,643c0,0,16.6,29.5,28.5,30.9c11.9,1.4,13.4,17.1,13.4,17.1s-4.2-36.2-16-43.1
	C685.8,640.9,671.6,643,671.6,643z"/>
<path class="st6" d="M697,681.3c-1,5.2,1,10.1,4.3,10.7c3.4,0.7,6.9-3,7.8-8.3c1-5.2-1-10.1-4.3-10.7
	C701.4,672.4,697.9,676.1,697,681.3z"/>
<g>
	<path class="st3" d="M585.3,1167.9c0,0,26.6,31.9,26.8,34.7c0.2,2.8-1.1,33.1-4.2,35.9c-3.2,2.8-12.5,4.8-9.5,7.9
		c2.3,2.4,19.7,1.9,31.2,1.2c3.4-0.2,7.6-27,8.9-31c1.9-5.7,6.6-18.6,4.9-22.6c-0.9-1.9-5-5.9-10.7-9.7
		c-6.1-3.9-29.3-36.3-29.3-36.3L585.3,1167.9z"/>
	<path class="st11" d="M632.3,1184.1c0,0-17.9,50.4-24.9,52.8c-1.9,0.6-10.8,2.3-12.5,6.2c-0.5,1.2,0,5.2,0,5.2h37.3
		c0,0,4.7-22.2,6.6-31.9c0,0,9.9-23.8,8.8-26C646.5,1188.2,632.3,1184.1,632.3,1184.1z"/>
	<path class="st6" d="M425.8,1183.2c0,0-21.8,30.6-19.8,40.3c1,5.2,5.6,12,3,16.9c-2.6,4.9-5.6,6.1-5.6,6.1l-67.9,1.1
		c-3.7,0.1-1.3-2.3,1.7-4.5c4.9-3.6,8.8-5.9,24.4-13.5c1-0.5,4.7-2.8,6.1-3.7c3.4-2.1,6.8-5.3,9.7-8.6c4.9-5.4,26.3-49.5,26.3-49.5
		L425.8,1183.2z"/>
	<path class="st11" d="M367.6,1226c17.9,4.6,31.2,1.5,38.6-1.5c1.9,5.4,4.5,12.2,3.1,16.1c-1.6,4.8-4,5.9-6.1,5.9
		c-16.4,0.4-60,1-72.5,1.2c-1.7,0-2.7-2-1.6-3.4C332.3,1240.6,366.3,1226.8,367.6,1226z"/>
	<path class="st11" d="M504.5,994.3c0,0,26.9,30.7,33.8,35.6c6.9,4.9,72.8,126.3,72.8,126.3l-23.5,17.1c0,0-58.9-73.5-86.6-112.8
		c-23.4-33.2-14.8-31.1-28.5-51.4c-7.6-11.1-5.9-26.2,4.1-35.2c1.2-1.1,2.6-2.3,4.1-3.5c20.4-17,160-36.1,160-36.1l89.3,8.7
		c0,0-73,51.2-75.7,52.5c-2.7,1.4-100.8,15.7-102.8,15.7C549.4,1011.3,504.5,994.3,504.5,994.3z"/>
	<path class="st7" d="M739,943.9c0,0,15.3,46-7.7,67.4c-23,21.4-159.5,19.1-204.4,19.1c0,0-18.4,50.4-20.4,58.5
		c-2,8.2-91.2,113.7-91.2,113.7l-24.5-15.7c0,0,96-186.5,103.5-194.7c7.5-8.2,114.4-40.8,140.9-48.3
		C661.7,936.4,739,943.9,739,943.9z"/>
</g>
<path class="st6" d="M561.4,861.2l81.5-18c0,0,29.5-37.9,57.8-70.5c8.3,8.2,13,20.9,21.4,29.1l-62.2,68.8c-2.2,2.5-5.4,3.9-8.8,3.9
	l-86.4,0.3l-29.6,2.4v-18.9L561.4,861.2z"/>
<path class="st21" d="M696.7,841.3c0,0,32.3-33.1,40.6-47.5c8.3-14.4,2.1-38.5-12.1-42.2c-14.3-3.8-59.8,57-59.8,57L696.7,841.3z"/>
<g>
	<path class="st11" d="M393.9,768.4h134.4c3.6,0,6.8,2.1,8.1,5.4l41.4,101H652c2.1,0,3.8,1.7,3.8,3.7l0,0c0,2.1-1.7,3.7-3.8,3.7H441
		c-5.8,0-11.1-3.4-13.4-8.7l-41.7-92.8C383.3,775,387.6,768.4,393.9,768.4z"/>
	<path class="st8" d="M466.3,827.2c0.9,4.5,4.9,7.6,8.8,6.8c4-0.8,6.5-5.1,5.5-9.6c-0.9-4.5-4.9-7.6-8.8-6.8
		C467.9,818.4,465.4,822.7,466.3,827.2z"/>
</g>
<path class="st10" d="M666.1,899.4H264.5c-4.7,0-8.5-3.8-8.5-8.5l0,0c0-4.7,3.8-8.5,8.5-8.5h401.6c4.7,0,8.5,3.8,8.5,8.5l0,0
	C674.7,895.5,670.8,899.4,666.1,899.4z"/>
<path class="st8" d="M665.5,701.8l18.2-0.9c0,0-0.1,6.9-8.1,7.6C665.9,709.2,665.5,701.8,665.5,701.8z"/>
<path class="st2" d="M608.6,1035.1l8.2-34.2c5.8-23.9,27-41.4,51.6-42.4l104.2-4.2l3.2-10.6L667.9,948
	c-29.3,1.2-54.5,21.9-61.3,50.4l-8.7,36.4C600.8,1034.9,604.4,1035,608.6,1035.1z"/>
<path class="st10" d="M748.3,1016.8c0,0-143.1,2.4-158,0c-14.9-2.5-21.4,16.3-16.9,26.1c4.5,9.8,16.7,13.6,34.7,14.5
	c18,0.9,168.1,5.1,172.4,1.1c3.5-3.3,49-158.8,65.5-215.7c3.3-11.4-3.2-23.3-14.6-26.6l0,0c-11.3-3.3-23.2,3.1-26.6,14.4
	L748.3,1016.8z"/>
<rect x="659.1" y="895.3" class="st4" width="7.1" height="352.4"/>
<rect x="265" y="918.1" class="st4" width="399.4" height="3.8"/>
<g>
	<path class="st22" d="M1292.4,160.8c0,0,51.9,33.6,179.8,29c0,0-137.1,51.8-190.7,59.8l-22.1-87.1L1292.4,160.8z"/>
	<path class="st11" d="M1316.9,204.7c0,0-10.5,24.5-35.4,44.9l-11.5-45.4l0.7-22L1316.9,204.7z"/>
	<path class="st7" d="M1119.7,111.1c0,0,149.9-10.1,173.2-1.6l24.1,95.1c0,0-85.3-7.3-168.4,20.4L1119.7,111.1z"/>
	<path class="st3" d="M1029.4,1171.6c0,0-7.2,11.8-6.6,15.3c0.7,3.5,9.3,40.4,14.1,42.9c4.8,2.4,16.9,2,14.2,6.8
		c-2.1,3.6-23.7,8.4-38.1,11.3c-4.2,0.8-17.8-31-20.7-35.5c-4.2-6.5-14-21-13.1-26.4c0.4-2.7,4.3-8.9,10.2-15.3
		c6.3-6.8,10.7-19.4,10.7-19.4L1029.4,1171.6z"/>
	<path class="st6" d="M1134.2,1168.3c0,0-2.4,26.4-2.4,26.5c0.3,4,0.2,14.1,1.1,17.6c3.3,13.1,56.3-26.1,41.6-28.6
		c-1.3-0.2-6.2-3.5-7.7-7.8c-2.3-6.7,1.1-16.8,1.1-16.8L1134.2,1168.3z"/>
	<path class="st9" d="M1112.7,693.4c0,0,15.3,42.4,15.5,43c17.8,70.3,66.5,204.1,67.2,218c1.7,33.9-26.2,215.9-26.2,215.9l-38.7,5
		l-0.8-209.3l-38.1-74.7l-65.2-150.2L1112.7,693.4z"/>
	<path class="st16" d="M996.3,763.8l3.3,43l23.6,174.4l-31.6,184.3c0,0,16.4,21.5,32.6,21l74-199.7l17.6-236l-14.8-47.7L996.3,763.8
		z"/>
	<path class="st4" d="M989.8,1170.2c0,0,37.9,56.6,47.3,57.4c2.5,0.2,14-0.6,17.3,3.8c1,1.3,3.1,7.9,3.1,7.9L1010,1253
		c0,0-12.8-29.4-18.2-40.9c0,0-19.6-26.3-19-29.4C973.5,1179.7,989.8,1170.2,989.8,1170.2z"/>
	<path class="st4" d="M1130.5,1219.1l1.4-24.6c0,0,15.7,2.4,22.6-0.4c6.9-2.8,19.7-10.3,19.7-10.3c30.8,2.2,55.2,0.8,52.8,9.4l0,0
		L1130.5,1219.1z"/>
	<path class="st3" d="M1204,550.4l20.5,15.7c3.9-3,12.6-15.8,18.2-19.8l-18.7-20.4l0,0c-1.5-1.1-2.4-3-2.2-4.9
		c0.1-1.3,0.3-2.6,0.5-3.1c0.6-1.6,1.1-3.5,1.7-5.2c0.6-1.6-3.3-4.9-5.3-5.4c-2-0.6-2.7,7.2-3.6,9.5c-2.7,7-5.8,26.1-6.5,29.2
		L1204,550.4z"/>
	<path class="st4" d="M1226.7,564.1c-5.8-6.1-13.9-9.6-19.9-16l-90.9,62.6c0,0-70.3-83.1-108.4-53.6c16.7,28.1,36.8,55.1,47.2,67.9
		c23.3,28.9,59,42.7,65.9,39.5C1128.5,660.9,1224.7,566.6,1226.7,564.1z"/>
	<path class="st15" d="M829.2,356.1c3,8,8.2,20.6,8.2,20.6c0.1,3.6,0.9,18.7,1.8,37.1l25.6-14c0,0-3.9-29.8-2.9-31.7
		c0.8-1.7,2.8,0.1,9.6-12.7c2-3.7,1.7-9.8,1.7-9.8s-0.4-7.5-2.2-8c-1.8-0.5-3.6,0.9-4,2.2c-0.5,1.4,0.1,4.4-0.4,5.7
		c-0.5,1.4-4.2,3.4-5.8,3.5c-1.6,0.1-2.5-22.2-2.5-22.2s0.2-6.4,0.4-8.5c0.2-1.8,1.2-7.1,1.2-7.1s1-7.6-1.4-7.9
		c-1.4-0.2-4.1,6.3-5.7,13c-1.7,7.2-2.3,14.7-3,14.7c-1.7,0-2.3-12.2-2.3-12.2s1-5.7,0.7-8.4c1.2-3.4,1.6-9.5-1.3-9.6
		c-0.5,0-3.4,8-3.4,8s-0.8,5.5-1.4,8.1c-1,4.6-0.4,11.5-0.8,14.7c-0.4,2.6-1.1,1.6-1.3,1.8c-0.2,0.1-0.3-3.4-0.4-8.3
		c-0.1-2.4-0.7-5.2-0.4-8.1c0.3-2.6,0.2-6.3,0.1-8.6c-0.3-6.3-4.2-5.2-4.8,0.7c-0.3,2.2-0.5,4.7-0.8,7.2c-1,9.6,0.2,18.7-0.8,18.9
		c-1.3,0.3-2.4-16.3-2.4-16.3s-3.1-8.9-4.1-0.2c-1.1,10.1,0.1,18,0.1,18.4C826.9,339.4,826.2,348.1,829.2,356.1z"/>
	<path class="st7" d="M1008.6,432.7c0,0-15.4-12.8-24.3,6.1c0,0-9.1-3.7-14,5.5c0,0-15.9-2.8-16.8,20.6c0,0-8.1-0.5-8,9
		c0.1,9.5,5.6,15.2,5.6,15.2s-4,3.9-1,12.2c2.6,7.1,8.8,7.5,8.8,7.5s3.1,12.1,8.9,15.2c5.8,3.1,12.9,0.4,12.9,0.4s2.7,6.5,8.9,5.1
		c6.2-1.4,13.2-8.2,20.5-6.4c7.3,1.8,25.1-3.2,25.1-3.2s19.3-11.5,10.7-31.6c0,0,9.5-11-1.2-21.4c0,0,4.6-19-10.2-28
		C1019.7,429.7,1008.6,432.7,1008.6,432.7z"/>
	<path class="st0" d="M1052.3,563.9l-31.4-16.1c0,0-27.9,4.1-31.3,4.5c-3.5,0.4-10,130.3-10.5,179c-0.5,48.7,5.4,56.5,5.4,56.5
		s45.4,4.6,77.8-2.3c33.7-7.1,69.7-30.1,69.7-30.1s-40.2-88.5-49.5-116.5C1073.2,610.8,1052.3,563.9,1052.3,563.9z"/>
	<path class="st4" d="M990.8,551.9l-103.1-82.4c0,0-23.5-86.9-24.8-90.1c-1.3-3.2-24.3-2.2-33.6-2c-3,0.1,12.9,94,19.2,109.3
		c7.5,18.1,87.1,94.9,87.1,94.9s18,44.7,19.1,78.9c1.8,56.8-2.2,135.8,0.5,138c16,7.6,73.4,1.7,76.3-4.6
		C1063.8,724.6,990.8,551.9,990.8,551.9z"/>
	<path class="st6" d="M1018.2,530.9l4.7,18.1c0,0,8.7,25.8,2.2,31.8c-6.5,6-34.3-28.6-34.3-28.6l-3.2-46.8L1018.2,530.9z"/>
	<path class="st7" d="M988.7,520.4c7.8,15.2,23,23.2,33.5,25.8l-4-15.3l-30.5-25.7L988.7,520.4z"/>
	<path class="st7" d="M945.9,478.2c0.9,7.1,5.6,12.3,10.6,11.7c5-0.6,8.3-6.8,7.5-13.9c-0.9-7.1-5.6-12.3-10.6-11.7
		C948.3,464.8,945,471.1,945.9,478.2z"/>
	<path class="st7" d="M969.5,447.3c0.5,4.1,5.8,6.8,11.8,6.1c6.1-0.7,10.6-4.6,10.1-8.7c-0.5-4.1-5.8-6.8-11.8-6.1
		C973.5,439.3,969,443.2,969.5,447.3z"/>
	<path class="st6" d="M998.2,454.3c13.9-6.7,30.5,1,34.5,15.7c1.7,6.4,3.6,14.4,4.8,23.3c3,21.4-5.6,43.6-15.3,44.8
		c-9.7,1.2-38.3-9.5-43-39.8C976.3,479.6,983.7,461.4,998.2,454.3z"/>
	<path class="st6" d="M986.7,499.9c0.6,4.7-2.1,8.9-6,9.4c-3.9,0.5-7.5-3-8-7.7c-0.6-4.7,2.1-8.9,6-9.4
		C982.5,491.7,986.1,495.1,986.7,499.9z"/>
	<path class="st7" d="M1039.1,438.5c11,6.8,16,18.4,11.2,26.1c-4.9,7.7-17.8,8.4-28.8,1.6c-11-6.8-16-18.4-11.2-26.1
		C1015.2,432.5,1028.1,431.8,1039.1,438.5z"/>
	<path class="st7" d="M1013.6,448.2c0.4,3.5-3.4,6.8-8.6,7.4c-5.2,0.6-9.7-1.7-10.1-5.1c-0.4-3.5,3.4-6.8,8.6-7.4
		C1008.7,442.5,1013.2,444.8,1013.6,448.2z"/>
	<path class="st7" d="M1044.7,471.5c0.5,4.5-2.6,8.5-7,9c-4.4,0.5-8.4-2.6-9-7.1c-0.5-4.5,2.6-8.5,7-9
		C1040.1,463.9,1044.1,467.1,1044.7,471.5z"/>
	<path class="st4" d="M1078.4,583.2c0,0,43.6,103,59.1,139.3c1.7,3.9,10.1,29.6,10.4,32.2c0.7,5.7-23.2,15.9-26.2,15.8
		c-2.7-0.1-37.8-108.8-58.1-161.7c-6.9-17.9-17-34.4-29.9-48.6l-9.9-8.2l-1-3.1C1022.9,548.9,1067.1,552.9,1078.4,583.2z"/>
	
		<rect x="1199.9" y="82.1" transform="matrix(0.9694 -0.2454 0.2454 0.9694 -72.1355 309.0752)" class="st4" width="8.1" height="723.6"/>
	<g>
		<path class="st6" d="M1246.5,537.1c-0.3-1.6-0.8-3.1-1.4-4.7c-0.7-1.7-1.9-3.7-2.7-4.3c-0.5-0.4-0.9-1.6-1.4-2.9
			c-0.2-0.4-0.4-0.8-0.6-1.1c0,0,0,0,0,0c-0.7-1-1.7-1.9-2.7-2.6c-1-0.7-1.8-1.6-2.9-3.1c-0.8-1.2-1.9-2.2-3.2-2.9
			c-1.3-0.6-2.3-0.6-2.7,0.1c-2.1,3.7-12.9,15.4-8.5,21.1c3.6,4.8,8.4,9.7,9.3,12c1.3,3.1,6.1,2.9,8.9,1.8
			C1243.8,548.5,1248,545.1,1246.5,537.1z"/>
	</g>
</g>
<rect x="7.2" y="1244.9" class="st10" width="2281.6" height="8.1"/>
<g>
	<path class="st7" d="M1101.8,396.4c0.4-1,1.9-1.1,2.6-0.4c1.1,1.2,2.3,2.3,3.4,3.5c2.5,2.6,2.5,2.7,2.9,2.7
		c0.9-0.1,0.9-1.8,0.9-2.4c-0.1-1.3-0.5-2.7-0.4-4c0.3-2.6,2.8-4,4.9-2.2c2,1.6,3.9,3.4,5.8,5.1c0.1-2.9,0.2-5.7,0.4-8.6
		c0.1-1,1.1-1.5,1.9-0.8c1.8,1.4,7,5.5,8.7,6.8c0.4,0.3,2.3,2.2,2.9,1.9c0.5-0.3,0.5-2.3,0.5-2.8c0.3-2.5,0.4-3.3,1.5-11.3
		c0.1-1,1.6-1.4,2.2-0.7c6.1,7.3,7.1,6.6,7.6,8.8c0.1,0.5-0.3,0.8-0.7,0.8c-1.2-0.1-1.4-0.2-4.5-3.2c-0.8-0.8-1.6-1.5-2.3-2.4
		c-1.1,9.7-1.2,12.2-3.6,12.9c-1.7,0.5-2,0-11.8-7.8c0,3-0.2,6-0.3,9c0,1.1-1.3,1.7-2.2,1c-7.1-5.8-7-6.3-7.8-6.6c0,0,0-0.5-0.1,0.2
		c-0.2,1.3,1,4,0.1,6.3c-0.8,2-3,3.6-5.2,2.5c-1.3-0.6-1.6-1.2-5.4-4.9c-1.1,2.3-2.5,4.5-4.3,6.7c-0.8,0.9-1.4,1.5-2.5,1.9
		c-0.9,0.3-2-0.7-1.7-1.6C1096.1,404.2,1098.6,403.5,1101.8,396.4z"/>
	<path class="st23" d="M1069.3,360.8c2.7,0.5,5.2,0.7,8,0.7c0.5,0,1.5,0.1,1.9-0.4c0.8-1.3-1.3-3.3-2.3-8.2
		c-0.4-2.2-1.5-6.6,1.4-7.5c1.5-0.5,3.4-0.1,4.9-0.1c1.2,0,2.3,0,3.5,0c-2.1-8.1-2.6-7.7-1.7-9.5c0.2-0.5,0.9-0.7,1.4-0.4
		c1.6,1.1,1.2,0.9,3.9,11.1c0.2,0.9-0.4,2.1-1.5,2c-1.6,0-8.7-0.6-9.6-0.5c0.1,0.1,0,0.5,0,0.6c0,3.4,1.2,6.2,2.4,9.3
		c1,2.5,0.9,5.9-2.3,6.6c-1.7,0.4-5.3,0.1-8.1-0.2c1.4,4.9,2.9,9.9,4.4,14.8c0.3,1-0.5,2.3-1.6,2.2c-3.2-0.3-6.4-0.5-9.6-0.6
		c0.9,2.9,2.2,5.7,3.9,8.2c1.3,1.9-1.3,4.1-4.2-0.8c-1.7-2.7-2.9-5.6-3.7-8.7c-0.2-1,0.4-2.3,1.6-2.2c3.2,0.1,6.3,0.3,9.5,0.5
		c-1.4-4.9-2.7-9.9-4.1-14.8C1067,361.6,1068.1,360.6,1069.3,360.8z"/>
	<path class="st24" d="M995.2,333.3c-0.9,0-1.5-0.6-1.6-1.5c-0.6-4.3-0.9-8.6,0-13c0.5-2.3,3.7-1.4,3.4,0.8c-0.5,3.5-0.8,7-0.5,10.5
		c2.6-0.1,5.1-0.4,7.6-1c0.9-0.2,2.2,0.4,2.1,1.5c-0.2,2.8-1.1,13.4-1.2,13.5c0,0,0.1,0,0.3,0c1.1,0.2,4.9-0.6,6.6-0.5
		c1.9,0.1,2.5,2.7,2.6,4.3c0.2,3.2-2.2,6.7-1.1,9.9c1.1,3,5.8-0.3,9.4,2.2c2.7,1.9,1.8,5.1,0.7,10.1c-0.3,1.2-0.6,2.4-1.8,3.1
		c-0.3,0.2-0.7,0.2-1-0.1c-1.3-1.5-0.7-3.4,0.2-8c0.1-0.6,0.5-1.6,0.1-2.1c-1.4-1.8-5.4,0.7-8.6-1.4c-2.5-1.6-2.9-4.9-2.5-7.6
		c0.3-2.1,1.6-4.8,0.9-7c-1.8,0.1-3.7,0.2-5.5,0.2c-2-0.1-3.4-1.1-3.5-3.1c-0.1-2.3,0.3-4.6,0.4-6.9c0.1-1.5,0.2-3,0.4-4.5
		C1000.2,333.1,997.7,333.3,995.2,333.3z"/>
	<path class="st9" d="M1127.5,444.1c7.6,9.8,0.4,14.5-2.8,11.7c-1.4-1.2-1.4-3.3,0.2-4.4c0.7-0.5,1.9,0.3,1.6,1.2
		c-0.3,0.7,0.6,0.9,0.9,0.2c0.5-1.1-0.3-2.4-0.8-3.3c-1.1-2.2-2.5-5-5.2-5.4c-4-0.6-8.4,3.4-6.2,9.5c3.2,8.8,17.5,8.7,20.1-0.5
		c1.4-5-0.6-10.5-4.7-13.7c-0.8-0.6,0.2-1.7,1-1.3c6.1,2.6,8.3,10.5,6,16.5c-2.3,6.1-8.8,9-15,7.9c-6.5-1.1-11.8-6.8-11-13.6
		C1112.8,441.3,1122.2,437.3,1127.5,444.1z"/>
	<path class="st0" d="M969.9,362.4c1.1,1.6,1.7,4.8-0.5,5.9c-1,0.5-2.2,0.2-2.6-1c-0.3-1.1,0.3-2.2-0.7-3.1c-0.9-0.8-2.2-0.3-3,0.3
		c-2.5,2-1.8,6.5-0.5,9c2.1,4,7.7,4.8,10.5,0.6c0.9-1.3,1.1-2.9,1.5-4.4c0.2-0.8,1.5-1.2,2-0.3c1.6,3.4-0.7,7.5-3.6,9.5
		c-3.1,2-7.3,1.9-10.4-0.2c-3.4-2.3-5-6.7-4.8-10.6C958,359.9,966.5,357.2,969.9,362.4z"/>
</g>
<path class="st8" d="M1004.5,551.1c0,0,3.6,5.9,10.8,2.3c8.8-4.4,5.3-10.9,5.3-10.9L1004.5,551.1z"/>
</svg>
