<?xml version="1.0" encoding="utf-8"?>
<!-- Generator: Adobe Illustrator 26.1.0, SVG Export Plug-In . SVG Version: 6.00 Build 0)  -->
<svg version="1.1" xmlns="http://www.w3.org/2000/svg" xmlns:xlink="http://www.w3.org/1999/xlink" x="0px" y="0px"
	 viewBox="0 0 634 345.5" style="enable-background:new 0 0 634 345.5;" xml:space="preserve">
<style type="text/css">
	.st0{opacity:0.1;fill:#FFFFFF;}
	.st1{fill:#FEC4AD;}
	.st2{fill:url(#SVGID_1_);}
	.st3{fill:url(#SVGID_00000051359574944476931040000001481223451866025643_);}
	.st4{fill:#F5C5B3;}
	.st5{fill:#E8D4E5;}
	.st6{fill:#7B2B1A;}
	.st7{fill:#133A50;}
	.st8{fill:#FFFFFF;}
	.st9{fill:url(#SVGID_00000121263096460452902230000010910759991269424551_);}
	.st10{fill:url(#SVGID_00000154400172478918920410000008787275057799109305_);}
	.st11{fill:none;stroke:#FFFFFF;stroke-width:2;stroke-miterlimit:10;}
	.st12{fill:#4FAE86;}
	.st13{fill:#319188;}
	.st14{fill:none;stroke:#194459;stroke-miterlimit:10;}
	.st15{fill:none;stroke:#FFFFFF;stroke-miterlimit:10;}
	.st16{fill:#21295B;}
	.st17{fill:url(#SVGID_00000009578044664153662320000017175263629274461877_);}
	.st18{fill:url(#SVGID_00000018236565447811462180000000085663970581682605_);}
	.st19{fill:#CFCFCF;}
	.st20{fill:url(#SVGID_00000021842318894560115400000003807680364402653864_);}
	.st21{fill:#B3B3B3;}
	.st22{fill:url(#SVGID_00000141447142786346756800000001178248608741749144_);}
	.st23{fill:url(#SVGID_00000118371648125603827220000009513403009964832165_);}
	.st24{fill:url(#SVGID_00000043427267623652151730000010813710918888153255_);}
	.st25{fill:#FFD71D;}
	.st26{opacity:0.7;fill:url(#SVGID_00000030468790184892380630000010280450650048003507_);}
	.st27{fill:url(#SVGID_00000074422881701835731600000009520394005424009111_);}
	.st28{opacity:0.7;fill:#E5BF03;}
	.st29{fill:none;}
	.st30{fill:url(#SVGID_00000057826658535165368360000000203305097832424600_);}
	.st31{fill:url(#SVGID_00000020361637573529192660000014855752357133574572_);}
	.st32{fill:url(#SVGID_00000021114632888891496000000007245710732260968601_);}
	.st33{fill:url(#SVGID_00000022532609532779000040000002328655496167338133_);}
	.st34{fill:url(#SVGID_00000159428069009939216750000014967368592457503422_);}
	.st35{fill:#471A16;}
	.st36{fill:url(#SVGID_00000163035198138600622770000004623430115767293318_);}
</style>
<g id="BACKGROUND">
</g>
<g id="OBJECTS">
	<path class="st0" d="M44.7,213.2c-37.3,20.1-56.8,65.5-26.6,126h594.1c10.1-21.9,16.1-50.7,18-67.8c4.1-37.4-10.7-76.2-36.8-96.7
		c-66-51.9-120.9,20.2-155.6-10.3c-20-17.6-18.1-66.9-33.8-89.8C369.4,24,304.2-0.9,240,8c-42.7,6-81.3,25.4-104.8,58.2
		c-32.2,45-8.8,77.2-23,108.3C96.3,209.2,69.6,199.7,44.7,213.2z"/>
	<path class="st1" d="M97.5,80c-0.1,0.3,5.4-3.1,5.4-3.1l2.3-3.6c0,0,2.3-1.5,3.9-2.3c1.6-0.8,4.6-5.7,4.6-5.7l-1.2-1.5
		c0,0-1.7,2.1-2.3,2.4c-0.6,0.3-1.7,0.1-1.7,0.1s0.4-1.5,1.3-3.7c0.9-2.2,3.7-5.7,3.7-5.7l-1-1.1c0,0-1.7,1.6-2.3,2.4
		c-0.6,0.8-1.8,2.5-1.8,2.5s1.2-2.9,1.9-4c0.7-1.1,1.6-2.6,1.6-2.6l-1.2-0.8c0,0-1.4,1.7-2.1,3.1c-0.7,1.3-2.1,3.5-2.1,3.5
		s1-3.3,1.5-4.3c0.5-1,0.7-1.4,0.7-1.4l-1.4-0.5c0,0-1.1,1.3-1.7,3c-0.6,1.7-1.1,2.5-1.1,2.5s0.4-2.8,0.9-3.6
		c0.5-0.8,0.5-1.2,0.5-1.2l-1.2-0.2c0,0-2.2,4.1-3.4,6.7c-1.2,2.5-2.1,6-2.8,7.9c-0.7,1.9-1.5,8.2-1.5,8.2L97.5,80z"/>
	<linearGradient id="SVGID_1_" gradientUnits="userSpaceOnUse" x1="111.6087" y1="72.402" x2="111.6087" y2="211.1948">
		<stop  offset="0" style="stop-color:#26FFFF"/>
		<stop  offset="1" style="stop-color:#006DFF"/>
	</linearGradient>
	<path class="st2" d="M131.9,104.4l-28.2-4.9c0,0-0.8-6.7-0.3-14.5c0.5-8.5,1.5-10.8,1.5-10.8l-7.6-1c0,0-1.5,6.7-2.6,11.4
		c-2.4,10.6-4.6,20.5-2.7,22.8c2.6,3.2,26.1,9.8,34.2,15.8C131,126.8,130.7,115.2,131.9,104.4z"/>
	<polygon class="st1" points="171.9,184.7 170.5,194.4 173.5,201.1 175.6,198.2 176.1,192.7 179.3,193.2 180.9,191.3 180.7,187.2 
		180.2,176 	"/>
	
		<linearGradient id="SVGID_00000099638755545076435660000000716416352312970387_" gradientUnits="userSpaceOnUse" x1="173.9455" y1="72.402" x2="173.9455" y2="211.1948">
		<stop  offset="0" style="stop-color:#26FFFF"/>
		<stop  offset="1" style="stop-color:#006DFF"/>
	</linearGradient>
	<path style="fill:url(#SVGID_00000099638755545076435660000000716416352312970387_);" d="M170,110.2c-2.2-0.8-9.3-0.3-9.3-0.3
		s-0.7,7.6,2.2,13.4c2.9,5.9,10,27.2,10.9,29.2c0.9,2-1.9,32.1-1.9,32.1l10.4-2.1c0,0,5-23.2,5-29.1c0-5.9-5.6-28-9.5-35
		C173.9,111.3,175.2,112.2,170,110.2z"/>
	<path class="st1" d="M152.9,88.5c0,0-2.3,10-0.5,12.3c1,1.4,5.5,6.2,5.5,6.2s-14.7,7.8-19,7.8s-2.8-8.7-2.8-8.7s4.7-3.7,5.4-5.6
		c0.7-1.9,1.1-7.3,1.1-7.3L152.9,88.5z"/>
	<g>
		<g>
			<path class="st4" d="M154.6,88.9c0,0-0.2-3.6,2.9-3.6c1.9,0.1,2.1,1.8,0.6,4.2c-0.6,1-0.7,3.2-1.5,3.9c-1,0.9-1.8-0.5-2.1-1.1
				C154,91.3,154.6,88.9,154.6,88.9z"/>
		</g>
		<g>
			<path class="st4" d="M138.1,88.9c0,0,0.2-3.6-2.9-3.6c-1.9,0.1-2.1,1.8-0.6,4.2c0.6,1,0.7,3.2,1.5,3.9c1,0.9,1.8-0.5,2.1-1.1
				C138.7,91.3,138.1,88.9,138.1,88.9z"/>
		</g>
		<path class="st4" d="M157.7,79.9c-0.1,1.2-0.3,2-0.6,3.7c-0.1,0.4-0.2,0.9-0.2,1.5c-0.6,4.4-1.4,10.3-1.8,11.2
			c-0.6,1.5-3.7,3.9-5.2,4.7c-1.5,0.9-5.2,0.7-6.7-0.2c-1.5-0.9-4.8-3.1-5.4-4.6c-0.4-0.9-1.2-7-1.8-11.5c-0.1-0.5-0.1-0.9-0.2-1.3
			c-0.3-1.7-0.5-2.4-0.6-3.6c-0.2-3.7,3.9-9.1,11.3-9.1C155.1,70.9,157.9,76.2,157.7,79.9z"/>
		<path class="st5" d="M138.8,75.3c0,0,6.2-2.8,13.4,0.5l2.6-1.6c0,0-3.8-2-9.2-1.9C140.2,72.2,138.8,75.3,138.8,75.3z"/>
		<g>
			<path class="st6" d="M157.1,83.6c-0.1,0.4-0.2,0.9-0.2,1.5c-0.6,4.4-1.4,10.3-1.8,11.2c-0.6,1.5-3.7,3.9-5.2,4.7
				c-1.5,0.9-5.2,0.7-6.7-0.2c-1.5-0.9-4.8-3.1-5.4-4.6c-0.4-0.9-1.2-7-1.8-11.5c-0.1-0.5-0.1-0.9-0.2-1.3l0.6-0.9
				c0,0,1.1,6.3,2.7,8.3c1.7,2,2,2.1,2,2.1s1.8-0.4,3.4-0.8c0.1,0,0.2,0,0.3-0.1c1.3-0.3,2.6-0.3,4,0c0.1,0,0.1,0,0.2,0.1l0.2,0.1
				l2.6,0.7c0,0,0.6-0.1,2.3-2.1c1.7-2,2.5-8.3,2.5-8.3L157.1,83.6z"/>
		</g>
		<path class="st6" d="M158.2,77.6c0,0.1-0.6,4.4-0.9,5.1c-0.4,1-0.7,1.8-0.7,1.8l-0.4-1c-0.8-1.8-1.3-3.7-1.3-5.7l-0.1-3.7l1.2-1.1
			C158.5,73.4,158.8,74.8,158.2,77.6z"/>
		<path class="st6" d="M139,74.3L139,74.3l-0.6,3.8c-0.3,1.8-0.9,3.5-1.8,5l-0.1,0.1l-0.7,1.2c0,0-0.2-0.7-0.5-1.6
			c-0.2-0.7-0.7-4.3-0.8-4.8c0-0.2-0.1-0.3-0.1-0.5c-0.5-2.7,0-3.8,2.4-4.2L139,74.3z"/>
		<path class="st6" d="M156.1,73l-1.2,1.1l-2.3,0.8c-0.3-0.3-4.6-1.8-8.3-1.5c-4.7,0.4-5.4,1.7-5.4,1.8c0,0,0,0,0,0l-0.5-0.1
			l-2.3-0.5l-0.5-0.1c0,0,0.5-2,0.9-2.6c1.9-2.8,6.9-4.6,11.5-4.1c0.2,0,0.3,0,0.5,0.1c4.3,0.6,6.2,2.6,6.2,2.6L156.1,73z"/>
	</g>
	<path class="st7" d="M157.5,330.5v9.2h-17.6c0,0,0.7-3.3,9-4.8l1.2-4.3H157.5z"/>
	<path class="st7" d="M130.7,330.5v9.2h-17.6c0,0,0.7-3.3,9-4.8l1.2-4.3H130.7z"/>
	<path class="st7" d="M164.6,174.1c0,0,2.5,29.5,2.6,53.6c0.1,24.1,1.5,85,1.5,85h-9.7c0,0-10-58.5-13.7-73.9
		c-3.6-15.5-13.1-64.3-13.1-64.3L164.6,174.1z"/>
	<path class="st7" d="M143.4,205.8c0,0-1.8,36.7-2.2,43.9c-0.4,7.2,0,62.9,0,62.9s-9.1,0.2-9.1,0c0-0.2-8.6-59.3-9.7-77.1
		c-1.1-17.8-0.5-38.9-1.9-41.4c-1.5-2.5,4-19.9,4-19.9l12.9,3.4L143.4,205.8z"/>
	<path class="st8" d="M139.5,102.8c0,0-4,9.2,2,10.2c9.7,1.6,12.6-10.8,12.6-10.8l10.7,5.5c0,0-0.2,66.3,4,86.6
		c2.4,11.8-38,6.2-44-4.3c-5.1-9,9.7-84.1,9.7-84.1L139.5,102.8z"/>
	
		<linearGradient id="SVGID_00000026126253834626152280000014530323240666599317_" gradientUnits="userSpaceOnUse" x1="159.5112" y1="72.402" x2="159.5112" y2="211.1948">
		<stop  offset="0" style="stop-color:#26FFFF"/>
		<stop  offset="1" style="stop-color:#006DFF"/>
	</linearGradient>
	<path style="fill:url(#SVGID_00000026126253834626152280000014530323240666599317_);" d="M156.6,103.4c-0.3,0.4-14.6,42.2-9.7,81.6
		c1.1,9.2,17.9,1.6,21.9,1.6c0,0,1.9-29.4,2.4-40.3c0.5-10.9-4.7-14.5-4.3-19.9c0.5-5.3,6.3-14.9,6.3-14.9L156.6,103.4z"/>
	<g>
		
			<linearGradient id="SVGID_00000173840613560306904210000006876461972011698570_" gradientUnits="userSpaceOnUse" x1="127.3429" y1="72.402" x2="127.3429" y2="211.1948">
			<stop  offset="0" style="stop-color:#26FFFF"/>
			<stop  offset="1" style="stop-color:#006DFF"/>
		</linearGradient>
		<path style="fill:url(#SVGID_00000173840613560306904210000006876461972011698570_);" d="M132.7,189.2c1.6-27.4,2.3-84.7,2.3-84.7
			l-9.7-0.7c0,0-4.8,48.1-4.9,53.5c0,2.2,0.6,28.6-0.8,33.5C122.9,191.3,132.5,192.5,132.7,189.2z"/>
	</g>
	<path class="st11" d="M227.9,108.5c-7.6,2.6-15.4,5.3-21.4,10.6c-6,5.3-9.9,13.9-7.4,21.5c2.5,7.6,13.1,12,19.2,6.8
		c2.2-1.9,3.6-5.1,2.4-7.7c-2.3-5.2-10.5-2.8-14.3,1.5c-4.5,5-7.4,11.9-6.3,18.6c1.1,6.7,6.9,12.6,13.7,12.6
		c6.8,0,16.4-10.2,10.6-13.7c-7.3-4.4-16.8,6.1-20.4,13.9c-3.6,7.8-1.4,18.3,6,22.7c7.4,4.4,24.7-1.2,20.2-8.4
		c-4.8-7.7-19,3.4-20.8,12.3c-1.9,8.9,5.1,18.6,14.1,19.7c9,1.1,24.6-9.2,18.4-15.7c-9-9.5-24,14.7-19.7,27.1
		c4.3,12.4,22.2,17.3,32.3,8.9c1.9-1.6,3.6-3.8,3.2-6.3c-0.6-4-6.1-5.2-10-3.9c-10.1,3.4-14.7,17.5-8.5,26.2
		c6.2,8.7,21.1,8.8,27.5,0.3c1.2-1.7,2.2-3.7,1.8-5.8c-0.6-2.8-4-4.4-6.8-3.9c-2.9,0.5-5.2,2.7-6.8,5.1c-5.8,8.5-3.8,21.4,4.2,27.8
		c8,6.5,21,5.6,28.1-1.9c1.8-2,3.4-4.6,2.9-7.2c-0.6-3.1-3.8-5.1-6.9-5c-3.1,0.1-6,1.9-8.1,4.1c-9.1,9.4-5.2,27.6,6.9,32.5
		c12.1,4.9,36.1-8.6,27.6-18.5c-5.7-6.6-16.9,7.7-15.4,16.3c1.4,8.6,11.3,14.5,19.8,12.2c8.4-2.2,19.5-14.3,13-20.1
		c-4.6-4.1-12.1,4.6-13.5,10.6c-1.4,6,1.8,12.8,7.3,15.5c6,2.9,13.3,1.2,19-2.2c5.7-3.4,10.5-8.1,16-11.8
		c11.1-7.4,25.2-10.1,38.2-7.2"/>
	<g>
		<path class="st12" d="M570.5,148c-12.3-7.8-121.7,84.4-117.7,157.3c0,0,21.3-28.8,39.9-42.8c18.6-14,20.4-28.7,20.3-43.2
			c0-14.5,27.7-8.5,30.9-24.7C549.4,166.1,581.5,155,570.5,148z"/>
		<g>
			<g>
				<path class="st13" d="M577.7,215.9c-17.7,10.7-12.5,25-22.9,33.3c-7.6,6.1-20.2,2.9-26.5,11.2c-7.1,9.3,1,22.1,1.6,33.3
					c0.8,15.5-13,27.1-27,31.8c-16.3,5.5-37.4,3.8-46.3-12.5c-10.5-19.1-2.6-48,15.8-57c4.5-2.2,10.2-2.8,13.9-7.2
					c6.2-7.5,2.2-18.2,5.1-27.7c2.8-9.2,11.9-15.8,20.4-18.6c8.4-2.9,17-3.5,25.2-6.8c11.2-4.6,21-14.6,30.4-21.3
					c8.3-6,37.6-17.3,42.3,2.4C613.8,194.9,592.5,206.9,577.7,215.9z"/>
			</g>
			<path class="st14" d="M579.5,187.1c0,0-72.3,36.3-130,153.5"/>
		</g>
		<path class="st15" d="M623.2,241.9c0,0-92.9-1-170.2,87.6"/>
		<g>
			<g>
				<path class="st12" d="M577.1,283.3c-8.9,3.5-11.3,18.5-20.8,20.4c-6.9,1.4-14.3-4.8-21.1-1.6c-7.6,3.6-6.3,14.4-9.4,21.7
					c-4.3,10.1-17.1,13-27.9,11.4c-12.5-1.8-26-9.8-26.9-23c-1-15.6,13.3-31.3,28.4-31c3.7,0.1,7.6,1.6,11.5,0
					c6.5-2.7,7.2-10.8,12.1-15.9c4.8-5,12.9-6.1,19.4-5.2c6.5,0.9,12.4,3.3,18.9,3.9c8.9,0.8,18.5-2.4,26.8-3.6
					c7.4-1.1,37.7-0.5,27.3,15.3C608.1,286.6,588.9,278.6,577.1,283.3z"/>
			</g>
			<path class="st14" d="M596.2,268.7c0,0-64.6,5.5-139.6,61.1"/>
		</g>
		<path class="st13" d="M385.8,338.1c0,0,14.7-25.7,17.1-28.4c15.1-16.7,35.2-16.9,55.6-12.7c5.9,1.2,21.5,9.4,27.2,8.3
			c4.4-0.9,9.7-17.7,23.9-16.8c14.1,0.9,15,17.7,15,17.7s8.9-19.5,23-17.7c14.1,1.8,14.1,15,3.5,24.7c0,0,22.5-6.8,44.4,3.7
			c21.9,10.5,11.4,24.2,11.4,24.2L385.8,338.1z"/>
	</g>
	<g>
		<path class="st12" d="M62.7,148c12.3-7.8,121.7,84.4,117.7,157.3c0,0-21.3-28.8-39.9-42.8c-18.6-14-20.4-28.7-20.3-43.2
			c0-14.5-27.7-8.5-30.9-24.7C83.8,166.1,51.6,155,62.7,148z"/>
		<g>
			<g>
				<path class="st13" d="M55.5,215.9c17.7,10.7,12.5,25,22.9,33.3c7.6,6.1,20.2,2.9,26.5,11.2c7.1,9.3-1,22.1-1.6,33.3
					c-0.8,15.5,13,27.1,27,31.8c16.3,5.5,37.4,3.8,46.3-12.5c10.5-19.1,2.6-48-15.8-57c-4.5-2.2-10.2-2.8-13.9-7.2
					c-6.2-7.5-2.2-18.2-5.1-27.7c-2.8-9.2-11.9-15.8-20.4-18.6c-8.4-2.9-17-3.5-25.2-6.8c-11.2-4.6-21-14.6-30.4-21.3
					c-8.3-6-37.6-17.3-42.3,2.4C19.3,194.9,40.6,206.9,55.5,215.9z"/>
			</g>
			<path class="st14" d="M53.7,187.1c0,0,72.3,36.3,130,153.5"/>
		</g>
		<path class="st15" d="M10,241.9c0,0,92.9-1,170.2,87.6"/>
		<g>
			<g>
				<path class="st12" d="M56.1,283.3c8.9,3.5,11.3,18.5,20.8,20.4c6.9,1.4,14.3-4.8,21.1-1.6c7.6,3.6,6.3,14.4,9.4,21.7
					c4.3,10.1,17.1,13,27.9,11.4c12.5-1.8,26-9.8,26.9-23c1-15.6-13.3-31.3-28.4-31c-3.7,0.1-7.6,1.6-11.5,0
					c-6.5-2.7-7.2-10.8-12.1-15.9c-4.8-5-12.9-6.1-19.4-5.2c-6.5,0.9-12.4,3.3-18.9,3.9c-8.9,0.8-18.5-2.4-26.8-3.6
					c-7.4-1.1-37.7-0.5-27.3,15.3C25,286.6,44.3,278.6,56.1,283.3z"/>
			</g>
			<path class="st14" d="M37,268.7c0,0,64.6,5.5,139.6,61.1"/>
		</g>
		<path class="st13" d="M247.3,338.1c0,0-14.7-25.7-17.1-28.4c-15.1-16.7-35.2-16.9-55.6-12.7c-5.9,1.2-21.5,9.4-27.2,8.3
			c-4.4-0.9-9.7-17.7-23.9-16.8c-14.1,0.9-15,17.7-15,17.7s-8.9-19.5-23-17.7c-14.1,1.8-14.1,15-3.5,24.7c0,0-22.5-6.8-44.4,3.7
			c-21.9,10.5-11.4,24.2-11.4,24.2L247.3,338.1z"/>
	</g>
	<g>
		<path class="st16" d="M375.7,340.3h-22.9c-2.5,0-4.6-1.9-4.8-4.4l-1.5-18.1H382l-1.5,18.1C380.3,338.4,378.2,340.3,375.7,340.3z"
			/>
		<path class="st16" d="M510.7,340.3h-22.9c-2.5,0-4.6-1.9-4.8-4.4l-1.5-18.1H517l-1.5,18.1C515.3,338.4,513.2,340.3,510.7,340.3z"
			/>
	</g>
	
		<linearGradient id="SVGID_00000088100272792745026140000015026349356556519315_" gradientUnits="userSpaceOnUse" x1="348.8525" y1="245.6127" x2="514.6411" y2="245.6127">
		<stop  offset="0" style="stop-color:#FFA239"/>
		<stop  offset="0.1212" style="stop-color:#FF983F"/>
		<stop  offset="0.3307" style="stop-color:#FF7C4E"/>
		<stop  offset="0.6033" style="stop-color:#FF4E68"/>
		<stop  offset="0.9252" style="stop-color:#FF108A"/>
		<stop  offset="1" style="stop-color:#FF0093"/>
	</linearGradient>
	<path style="fill:url(#SVGID_00000088100272792745026140000015026349356556519315_);" d="M514.6,294.2H348.9l11.7-85.5
		c0.9-6.7,6.6-11.6,13.3-11.6h115.7c6.7,0,12.4,5,13.3,11.6L514.6,294.2z"/>
	
		<linearGradient id="SVGID_00000018922952940689621930000004521423500471282843_" gradientUnits="userSpaceOnUse" x1="371.227" y1="229.0337" x2="492.2666" y2="229.0337">
		<stop  offset="0" style="stop-color:#FFA239"/>
		<stop  offset="0.1212" style="stop-color:#FF983F"/>
		<stop  offset="0.3307" style="stop-color:#FF7C4E"/>
		<stop  offset="0.6033" style="stop-color:#FF4E68"/>
		<stop  offset="0.9252" style="stop-color:#FF108A"/>
		<stop  offset="1" style="stop-color:#FF0093"/>
	</linearGradient>
	<path style="fill:url(#SVGID_00000018922952940689621930000004521423500471282843_);" d="M492.3,277.6h-121l8.6-85.9
		c0.6-6.4,6-11.2,12.4-11.2h79c6.4,0,11.8,4.9,12.4,11.2L492.3,277.6z"/>
	<polygon class="st19" points="351.5,274.8 348.9,294.2 514.6,294.2 512,274.8 	"/>
	
		<linearGradient id="SVGID_00000057116893465829010450000011761307868802176684_" gradientUnits="userSpaceOnUse" x1="330.9086" y1="305.415" x2="532.5851" y2="305.415">
		<stop  offset="0" style="stop-color:#FFA239"/>
		<stop  offset="0.1212" style="stop-color:#FF983F"/>
		<stop  offset="0.3307" style="stop-color:#FF7C4E"/>
		<stop  offset="0.6033" style="stop-color:#FF4E68"/>
		<stop  offset="0.9252" style="stop-color:#FF108A"/>
		<stop  offset="1" style="stop-color:#FF0093"/>
	</linearGradient>
	<polygon style="fill:url(#SVGID_00000057116893465829010450000011761307868802176684_);" points="532.6,327.3 330.9,327.3 
		334.6,283.5 528.9,283.5 	"/>
	<g>
		<path class="st19" d="M466,220.1c7.6,18.9-1.5,40.4-20.4,48c-18.9,7.6-40.4-1.5-48-20.4c-7.6-18.9,1.5-40.4,20.4-48
			C436.8,192.1,458.3,201.2,466,220.1z"/>
		
			<ellipse transform="matrix(0.9997 -2.338118e-02 2.338118e-02 0.9997 -5.3511 10.1587)" class="st8" cx="431.7" cy="233.9" rx="31.9" ry="31.9"/>
		<g>
			<g>
				<path class="st21" d="M440.7,260.1c-1.1,0-2.2-0.4-2.9-1.2c-0.2-0.2-0.4-0.4-0.5-0.6c-0.2-0.2-0.3-0.5-0.4-0.7
					c-0.1-0.2-0.2-0.5-0.2-0.8c0-0.3-0.1-0.5-0.1-0.8c0-1.1,0.4-2.2,1.2-2.9c1-1,2.4-1.4,3.7-1.1c0.3,0.1,0.5,0.1,0.8,0.2
					c0.3,0.1,0.5,0.2,0.7,0.4c0.2,0.2,0.4,0.3,0.6,0.5c0.8,0.8,1.2,1.8,1.2,2.9c0,0.3,0,0.5-0.1,0.8c-0.1,0.3-0.1,0.5-0.2,0.8
					c-0.1,0.2-0.2,0.5-0.4,0.7c-0.2,0.2-0.3,0.4-0.5,0.6c-0.2,0.2-0.4,0.4-0.6,0.5c-0.2,0.2-0.5,0.3-0.7,0.4
					c-0.2,0.1-0.5,0.2-0.8,0.2C441.2,260.1,440.9,260.1,440.7,260.1z"/>
			</g>
			<g>
				<path class="st21" d="M427.8,261.6L427.8,261.6L427.8,261.6c-2.3-0.3-3.8-2.4-3.5-4.7l0,0c0.3-2.3,2.4-3.8,4.7-3.5l0,0
					c2.3,0.3,3.8,2.4,3.5,4.7l0,0c-0.3,2.1-2.1,3.6-4.1,3.6l0,0C428.2,261.7,428,261.6,427.8,261.6z M414.5,255.9L414.5,255.9
					L414.5,255.9c-1.8-1.4-2.1-4-0.7-5.8l0,0c1.4-1.8,4-2.1,5.8-0.7l0,0c1.8,1.4,2.1,4,0.7,5.8l0,0c-0.8,1.1-2,1.6-3.3,1.6l0,0
					C416.2,256.8,415.3,256.5,414.5,255.9z M405.8,244.4c-0.9-2.1,0.2-4.5,2.3-5.4l0,0c2.1-0.9,4.5,0.2,5.4,2.3l0,0
					c0.9,2.1-0.2,4.5-2.3,5.4l0,0c-0.5,0.2-1,0.3-1.5,0.3l0,0C408,247,406.5,246,405.8,244.4z M407.6,234.7
					c-2.3-0.3-3.8-2.4-3.5-4.7l0,0c0.3-2.3,2.4-3.8,4.7-3.5l0,0c2.3,0.3,3.8,2.4,3.5,4.7l0,0c-0.3,2.1-2.1,3.6-4.1,3.6l0,0
					C408,234.7,407.8,234.7,407.6,234.7z M410.4,222.5c-1.8-1.4-2.1-4-0.7-5.8l0,0l0,0l0,0c1.4-1.8,4-2.1,5.8-0.7l0,0
					c1.8,1.4,2.1,4,0.7,5.8l0,0c-0.8,1.1-2,1.6-3.3,1.6l0,0C412.1,223.4,411.2,223.1,410.4,222.5z M443.9,218.4
					c-1.8-1.4-2.1-4-0.7-5.8l0,0c1.4-1.8,4-2.1,5.8-0.7l0,0c1.8,1.4,2.1,4,0.7,5.8l0,0c-0.8,1-2,1.6-3.3,1.6l0,0
					C445.5,219.3,444.6,219,443.9,218.4z M419,213.4c-0.9-2.1,0.2-4.5,2.3-5.4l0,0l0,0l0,0c2.1-0.9,4.5,0.2,5.4,2.3l0,0
					c0.9,2.1-0.2,4.5-2.3,5.4l0,0c-0.5,0.2-1,0.3-1.5,0.3l0,0C421.2,216,419.6,215,419,213.4z M434.5,214.4
					c-2.3-0.3-3.8-2.4-3.5-4.7l0,0c0.3-2.3,2.4-3.8,4.7-3.5l0,0c2.3,0.3,3.8,2.4,3.5,4.7l0,0c-0.3,2.1-2.1,3.6-4.1,3.6l0,0
					C434.9,214.4,434.7,214.4,434.5,214.4z"/>
			</g>
			<g>
				<path class="st21" d="M453.8,229.1c-0.3,0-0.5,0-0.8-0.1c-0.3-0.1-0.5-0.1-0.8-0.2c-0.2-0.1-0.5-0.2-0.7-0.4
					c-0.2-0.2-0.4-0.3-0.6-0.5c-0.8-0.8-1.2-1.8-1.2-2.9c0-0.3,0-0.5,0.1-0.8c0-0.3,0.1-0.5,0.2-0.8c0.1-0.2,0.2-0.5,0.4-0.7
					c0.2-0.2,0.3-0.4,0.5-0.6c0.2-0.2,0.4-0.4,0.6-0.5c0.2-0.2,0.5-0.3,0.7-0.4c0.2-0.1,0.5-0.2,0.8-0.2c1.3-0.3,2.8,0.2,3.7,1.1
					c0.2,0.2,0.4,0.4,0.5,0.6c0.2,0.2,0.3,0.5,0.4,0.7c0.1,0.2,0.2,0.5,0.2,0.8c0.1,0.3,0.1,0.5,0.1,0.8c0,1.1-0.4,2.2-1.2,2.9
					C456,228.7,454.9,229.1,453.8,229.1z"/>
			</g>
		</g>
	</g>
	
		<linearGradient id="SVGID_00000003798282981703974360000008682405360072387254_" gradientUnits="userSpaceOnUse" x1="382.963" y1="98.2306" x2="451.9009" y2="98.2306">
		<stop  offset="0" style="stop-color:#FFA239"/>
		<stop  offset="0.1212" style="stop-color:#FF983F"/>
		<stop  offset="0.3307" style="stop-color:#FF7C4E"/>
		<stop  offset="0.6033" style="stop-color:#FF4E68"/>
		<stop  offset="0.9252" style="stop-color:#FF108A"/>
		<stop  offset="1" style="stop-color:#FF0093"/>
	</linearGradient>
	<path style="fill:url(#SVGID_00000003798282981703974360000008682405360072387254_);" d="M384.2,99.5c0,0-4.4-9.5,3.6-18.5
		c0,0,30,19.4,63.5,14c0,0,3.7,10.1-6.6,19.5C444.6,114.4,408.7,121.3,384.2,99.5z"/>
	
		<linearGradient id="SVGID_00000152255219563642534240000010421207475877304727_" gradientUnits="userSpaceOnUse" x1="303.5865" y1="35.6079" x2="345.2381" y2="143.2077">
		<stop  offset="0" style="stop-color:#FFA239"/>
		<stop  offset="0.1212" style="stop-color:#FF983F"/>
		<stop  offset="0.3307" style="stop-color:#FF7C4E"/>
		<stop  offset="0.6033" style="stop-color:#FF4E68"/>
		<stop  offset="0.9252" style="stop-color:#FF108A"/>
		<stop  offset="1" style="stop-color:#FF0093"/>
	</linearGradient>
	<path style="fill:url(#SVGID_00000152255219563642534240000010421207475877304727_);" d="M435.5,56.5
		C413.9,38.3,373,35.7,321.3,44.1c-44.5,7.2-89.9,24-105,47.7c-6.9,10.8-2.2,40.9-2.2,40.9c41,2.6,56-32.7,56-32.7s-2.7-10,6.4-14.4
		c32.1-15.5,82-20.8,100.5-16.2C387,71.8,387.7,81,387.7,81s25.3,28.8,63.5,13.5C451.2,94.5,445.3,64.7,435.5,56.5z"/>
	
		<linearGradient id="SVGID_00000124126861658382568140000014347485108422131355_" gradientUnits="userSpaceOnUse" x1="213.3524" y1="124.4053" x2="278.5251" y2="124.4053">
		<stop  offset="0" style="stop-color:#FFA239"/>
		<stop  offset="0.1212" style="stop-color:#FF983F"/>
		<stop  offset="0.3307" style="stop-color:#FF7C4E"/>
		<stop  offset="0.6033" style="stop-color:#FF4E68"/>
		<stop  offset="0.9252" style="stop-color:#FF108A"/>
		<stop  offset="1" style="stop-color:#FF0093"/>
	</linearGradient>
	<path style="fill:url(#SVGID_00000124126861658382568140000014347485108422131355_);" d="M278.5,116.1c0,0,1.2-10.4-9.2-16.5
		c0,0-22.4,27.9-55.9,33.2c0,0-0.3,10.8,12.4,16.4C225.8,149.2,262,144.4,278.5,116.1z"/>
	<path class="st25" d="M273.3,340.1H105c-7.9,0-14.2-6.4-14.2-14.2V224.5c0-7.9,6.4-14.2,14.2-14.2h168.3c7.9,0,14.2,6.4,14.2,14.2
		v101.5C287.5,333.8,281.2,340.1,273.3,340.1z"/>
	<path class="st25" d="M287.5,227.5c0-9.5-7.7-17.2-17.2-17.2H108c-9.5,0-17.2,7.7-17.2,17.2l89.2,72.3c5.3,4.3,12.8,4.3,18.1,0
		L287.5,227.5z"/>
	
		<radialGradient id="SVGID_00000062900922462702393460000011270516508352733056_" cx="111.5251" cy="256.8235" r="81.4491" gradientUnits="userSpaceOnUse">
		<stop  offset="0" style="stop-color:#FFFFFF"/>
		<stop  offset="1" style="stop-color:#FFFFFF;stop-opacity:0"/>
	</radialGradient>
	<path style="opacity:0.7;fill:url(#SVGID_00000062900922462702393460000011270516508352733056_);" d="M102.2,326.7v-95.4
		c0-9.5,7.7-17.2,17.2-17.2H281c-3-2.4-6.6-3.8-10.7-3.8H108c-9.5,0-17.2,7.7-17.2,17.2v95.4c0,9.5,7.7,17.2,17.2,17.2h0.8
		C104.8,337,102.2,332.2,102.2,326.7z"/>
	
		<linearGradient id="SVGID_00000119089964484715667030000004410801961937573760_" gradientUnits="userSpaceOnUse" x1="189.1339" y1="210.2276" x2="189.1339" y2="291.3313">
		<stop  offset="0" style="stop-color:#FFD71D"/>
		<stop  offset="1" style="stop-color:#FEB200"/>
	</linearGradient>
	<path style="fill:url(#SVGID_00000119089964484715667030000004410801961937573760_);" d="M178.3,287.2L99,217.5
		c-2.9-2.5-1.1-7.2,2.7-7.2h174.9c3.8,0,5.6,4.7,2.7,7.2L200,287.2C193.8,292.7,184.5,292.7,178.3,287.2z"/>
	<path class="st28" d="M178.3,287.2l-80.1-70.5c-2.6-2.3-1-6.5,2.4-6.5h177.1c3.4,0,5,4.2,2.4,6.5L200,287.2
		C193.8,292.7,184.5,292.7,178.3,287.2z"/>
	<path class="st29" d="M273.3,340.1H105c-7.9,0-14.2-6.4-14.2-14.2V224.5c0-7.9,6.4-14.2,14.2-14.2h168.3c7.9,0,14.2,6.4,14.2,14.2
		v101.5C287.5,333.8,281.2,340.1,273.3,340.1z"/>
	<path class="st1" d="M346.4,131.6c0,0,5.6-16.2,6-17.9c2.3-10.5,3-33.3,2.8-38.1c-0.1-4.8-0.6-9.1-0.7-9.7
		c-0.1-0.7-3.1-3.9-3.1-3.8c0,0-0.9,0.1-0.9,0.1l0,0.6l-1.3-1.1l-1.1-0.1l-0.1,0.5l-1.5-0.7l-1.5,0c0,0,1,3.1,1.5,4.9
		c0.5,1.9,0,2,0,2s-1.2,0.5-1.7,0.3c-0.5-0.1-2.1-0.1-2.1-0.1s4.5,5.9,4.7,6.4c0.2,0.5,2.8,3.2,1.8,8.5c-1.7,9.5-6.4,23.5-6.4,23.5
		c0.1-0.3-6.1,17.4-6.1,17.4L346.4,131.6z"/>
	
		<linearGradient id="SVGID_00000111174705520863965800000008595043429865990288_" gradientUnits="userSpaceOnUse" x1="340.7786" y1="92.402" x2="340.7786" y2="231.1948">
		<stop  offset="0" style="stop-color:#26FFFF"/>
		<stop  offset="1" style="stop-color:#006DFF"/>
	</linearGradient>
	<path style="fill:url(#SVGID_00000111174705520863965800000008595043429865990288_);" d="M343.4,153c1.7-13.6,8.7-29.5,8.7-29.5
		s-10.6-2.1-13.4-5.9c0,0-3.7,9-5.8,13.4c-2.3,4.9-5.6,10.3-1.5,13.2C335.4,147.1,342.8,157.8,343.4,153z"/>
	<path class="st7" d="M302.6,331.5v8.7h16.8c0,0-0.6-3.2-8.6-4.6l-1.2-4.1H302.6z"/>
	<path class="st7" d="M328.2,331.5v8.7H345c0,0-0.6-3.2-8.6-4.6l-1.2-4.1H328.2z"/>
	<path class="st7" d="M305.4,201.4c0,0-2.4,24.4-2.4,47.4c-0.1,23-1.5,84.8-1.5,84.8h9.3c0,0,9.6-59.5,13-74.3
		c3.5-14.8,12.5-57.6,12.5-57.6L305.4,201.4z"/>
	<path class="st1" d="M319.7,120.3c0,0-0.6,4.7-1.1,7.1c-0.5,2.4-0.9,3.6-1.3,4.4c-0.8,1.6-5.7,6.5-5.7,6.5s15.4,8.1,19.9,8.1
		s2.9-9.1,2.9-9.1s-4.9-3.9-5.7-5.9c-0.7-2-1.1-7.7-1.1-7.7L319.7,120.3z"/>
	<path class="st7" d="M325.6,227.9c0,0,1.7,38.7,2.1,45.6c0.3,6.9,0,60,0,60s8.7,0.2,8.7,0c0-0.2,8.2-60.3,9.3-77.3
		c1.1-17,0.4-37.1,1.8-39.5c1.4-2.3-3.8-15.3-3.8-15.3l-12.3-0.4L325.6,227.9z"/>
	
		<linearGradient id="SVGID_00000008113935698904633590000010874443658310241975_" gradientUnits="userSpaceOnUse" x1="322.365" y1="92.402" x2="322.365" y2="231.1948">
		<stop  offset="0" style="stop-color:#26FFFF"/>
		<stop  offset="1" style="stop-color:#006DFF"/>
	</linearGradient>
	<path style="fill:url(#SVGID_00000008113935698904633590000010874443658310241975_);" d="M314.7,133.7c0,0-13-5.2-15.1-0.9
		c-1.6,3.2-0.2,24,0.5,29.8c0.6,5,4.1,47.5,4.1,47.5s4.9,7.5,28.2,4.5c9-1.2,13.4-5.5,13.4-5.5s-2.5-50.7-3.2-55.8
		c-0.7-5.1-3.1-13-3.1-13l-7-4.6c0,0,2.2,4.9-4.1,6.3C315.9,144.8,314.7,133.7,314.7,133.7z"/>
	<path class="st1" d="M332,102.7c1.5,0.6,4,1.9,4.3,3.1c0.3,1.2,1.3,4.8,1.5,6.9c0.1,2.2,0.4,6.2,0.4,8.8c0,2.5-1.5,7.7-2.1,8.2
		c-0.6,0.5-4.9,1.4-6.3,1c-1.4-0.4-9.9-4.8-10.5-10.2c0,0-1.5,0.8-4.3-3.7c-0.7-1.2,1.8-9.8,2.1-11.4c0.8-3.8,10.1-0.8,12.2-1.4
		C331.4,103.6,332,102.7,332,102.7z"/>
	<path class="st7" d="M336.3,105.8c0,0-6.5,4.1-9,4.3c-2.5,0.2-6.3,3.7-6.2,4.8s-1.1,1.8-1.1,1.8s-1.6-2.5-2.9-2.3
		c-2.6,0.5-1.1,3.7,0.3,4.4c1.4,0.7,2.7,1.1,2.7,1.1s0.2,1.5,0.1,2.7c-0.1,1.2-1.1,3.2-1.1,3.2s-3-6.3-5.7-8.7
		c-6.4-5.6-1.8-16,4.5-18c2.5-0.8,9.5-1.3,12.9,0.2C335.6,101.4,336.3,105.8,336.3,105.8z"/>
	<path class="st16" d="M322.7,114.7c0.1,0.3,0.8,0.3,0.9,0.4c0.3,0.1,0.2,0.2,1.3,1.9c0.9,1.3,2.3,1.7,5,0.8
		c2.1-0.7,1.8-2.5,1.9-3.3c0.1-0.8,0.3-1,0.7-1c0.3-0.1,0.5,0,0.9,0.8c0.4,0.7,0.6,2.7,2.8,2.3c1.5-0.2,1.9-0.6,2.1-1.8
		c0.2-1,0.2-2.1,0.2-2.8c-0.1-0.8-0.1-1.3-0.5-1.3c-0.5-0.1-1.1,0.1-1.8,0.2c-1.3,0.2-2.2,0.3-2.9,0.8c-0.7,0.5-0.6,0.8-1,0.9
		c-0.4,0.1-0.4-0.3-1.3-0.5c-0.8-0.2-4.3,0.4-5.5,0.6c-1.3,0.2-3.1,0.7-3,1.2C322.5,114,322.6,114.4,322.7,114.7z M333.8,112.8
		c0.1-0.6,0.1-0.6,1.7-0.9c1.6-0.4,1.8-0.3,2.1,0c0.3,0.3,0.6,1.3,0.4,2.6c-0.1,0.7-0.2,1.6-1.5,1.8c-1.4,0.2-1.7-0.4-2.1-1.4
		C334,113.8,333.8,113,333.8,112.8z M324.6,113.8c0.2-0.3,2.4-0.6,4-0.8c1.6-0.2,2.2-0.3,2.4,0.3c0.1,0.2,0.2,1,0.2,2.1
		c0,1-0.2,2-2.8,2.4c-1.8,0.3-2.6-0.2-3.4-1.5C324.4,115.1,324.4,114.2,324.6,113.8z M319.2,115.4l3.5-0.7l1.2-1.8
		c0,0-1.4,0.2-3.6,0.7c-1.1,0.2-2.1,1-2.1,1S318.7,114.9,319.2,115.4z"/>
	<path class="st1" d="M291.2,133.1c0,0-3.1-19.5-3.1-21.3c-0.2-10.8,5.3-25.2,6.4-29.9c1.1-4.7,1.8-4,2.1-4.6c0.2-0.6,8-1.8,8-1.8
		s2.1-0.9,2.6-0.9c0.5,0,2.6-0.7,2.6-0.7l-1.2,2.2c0,0-4.9,3.7-5.2,4.2c-0.3,0.5-3.4,2.6-3.5,8c-0.2,9.6-0.2,20-0.2,20
		c-0.1-0.4,4.6,19.9,4.6,19.9L291.2,133.1z"/>
	
		<linearGradient id="SVGID_00000082329843586953722800000004701586884725544888_" gradientUnits="userSpaceOnUse" x1="300.3202" y1="92.402" x2="300.3202" y2="231.1948">
		<stop  offset="0" style="stop-color:#26FFFF"/>
		<stop  offset="1" style="stop-color:#006DFF"/>
	</linearGradient>
	<path style="fill:url(#SVGID_00000082329843586953722800000004701586884725544888_);" d="M300.1,162.6
		c-3.3-9.4-10.9-34.6-10.9-34.6s11.2-2.8,14.4-6.3c0,0,3.8,11.3,5.4,15.9c1.7,5.2,4.4,10.9-0.1,13.3
		C304.7,153.3,301.7,167.1,300.1,162.6z"/>
	<g>
		
			<linearGradient id="SVGID_00000105396385627844600390000015953819553199713196_" gradientUnits="userSpaceOnUse" x1="385.7863" y1="214.7762" x2="442.1521" y2="214.7762" gradientTransform="matrix(-1 0 0 1 925.632 0)">
			<stop  offset="0" style="stop-color:#343A44"/>
			<stop  offset="0.3009" style="stop-color:#232D3E"/>
			<stop  offset="0.6391" style="stop-color:#182439"/>
			<stop  offset="1" style="stop-color:#142138"/>
		</linearGradient>
		<path style="fill:url(#SVGID_00000105396385627844600390000015953819553199713196_);" d="M517.5,178.3c2.9,2.7,5,1.8,9.4,16.8
			c2.8,9.6,13,57.9,13,57.9l-6.1,2.6c-8.2-23.1-8.2-23.1-17.9-41.8c-4.7-9.1-6.6-18.1-6.6-18.1l-17.8-1.1
			c-11.1-4.6-7.3-20.8-7.3-20.8S514.6,175.6,517.5,178.3z"/>
		
			<linearGradient id="SVGID_00000068679811161459978560000016144077412319433395_" gradientUnits="userSpaceOnUse" x1="399.5636" y1="207.0896" x2="479.325" y2="207.0896" gradientTransform="matrix(-1 0 0 1 925.632 0)">
			<stop  offset="0" style="stop-color:#343A44"/>
			<stop  offset="0.3009" style="stop-color:#232D3E"/>
			<stop  offset="0.6391" style="stop-color:#182439"/>
			<stop  offset="1" style="stop-color:#142138"/>
		</linearGradient>
		<path style="fill:url(#SVGID_00000068679811161459978560000016144077412319433395_);" d="M450,163.9l16.1-10.3l15.5,12.1L501,172
			c0,0,0,0-0.1,0.1c7.8,2.7,16.7,6.6,19.4,9.2c2.9,2.7,8.7,6.6,4,21.5c-3,9.5-15.9,57.8-15.9,57.8l-6.5-1.2c0,0,2.3-28,4.7-48.9
			c1.1-10.1,1.5-13,1.5-13s-43.2,4.7-57.2-2.6C441.1,189.7,450,171.7,450,163.9z"/>
		<path class="st7" d="M508.9,257c0,0-0.2,1.8-3,2.6c-2.8,0.8-4.7-1.5-4.7-1.5l-0.6,5.7l9,6.3h7.5l-4-4.5L508.9,257z"/>
		<path class="st7" d="M538.9,249.1c0,0,1.3,2.5-1.1,4.1c-2.4,1.6-5,0-5,0l1.2,5.7l21.2-6.6L538.9,249.1z"/>
	</g>
	<path class="st1" d="M514.4,106c0,0.3-3.5-4.2-3.5-4.2l-0.8-3.7c0,0-1.4-1.9-2.5-3.1c-1.1-1.2-2.1-6.1-2.1-6.1l1.4-0.9
		c0,0,0.8,2.3,1.1,2.7c0.4,0.5,1.4,0.6,1.4,0.6s0.1-1.4,0-3.4c-0.1-2.1-1.3-5.8-1.3-5.8l1.2-0.6c0,0,0.9,1.8,1.1,2.7
		c0.3,0.8,0.7,2.6,0.7,2.6s-0.1-2.8-0.4-3.9c-0.3-1.1-0.5-2.6-0.5-2.6l1.3-0.3c0,0,0.6,1.9,0.8,3.2c0.2,1.3,0.6,3.5,0.6,3.5
		s0.2-3.1,0-4c-0.1-0.9-0.1-1.4-0.1-1.4l1.3,0c0,0,0.5,1.4,0.5,3c0,1.6,0.1,2.4,0.1,2.4s0.5-2.4,0.4-3.3c-0.1-0.8,0-1.1,0-1.1l1,0.2
		c0,0,0.6,4.1,0.8,6.5c0.2,2.5-0.1,5.6-0.1,7.3c0,1.7-0.1,3.1-0.1,3.1L514.4,106z"/>
	<path class="st1" d="M487.2,110.8c8.3,6.8,16.6,11.8,16.6,11.8s3.1-7.7,4.6-13.2c1.8-6.5,2.3-9.6,2.3-9.6l6.3-0.5
		c0,0-2,16.7-4.4,28.1c-2.4,11-5.4,9.1-8,8.5c-2.6-0.5-27.5-13.9-27.5-13.9l2.7-14.2C479.5,107.8,481.3,105.9,487.2,110.8z"/>
	<path class="st35" d="M460.9,70.6c1.3-0.8,7.8-1.3,11.8,1.2c7.7,4.7,4,17.7,3.5,20.7c-0.5,3,2.3,8.4,2.2,12c0,3.6-0.9,4.9-3.6,8.3
		c-0.8,1-1,2.8-1,2.8s-3-4.4-3.6-10.6c-0.6-6.1-1.9-4.7-5-11.5c-3.1-6.7-3.2-16.9-3.2-16.9L460.9,70.6z"/>
	<path class="st35" d="M467.3,75l-6.4-4.4c0,0-5.5-0.7-8.6,4.1c-3.2,4.9-4.3,11.9-5,17.2c-0.7,5.3-2.6,15.2-2.5,19.2
		c0.1,3.9,4.9,4.5,4.9,4.5l16.1-7c0,0-1.9-8.5-0.1-17.5C467.4,82.2,467.3,75,467.3,75z"/>
	<path class="st1" d="M472.7,76.3c0.3,2,1.9,7.9,2,11.7c0.2,3.8-0.3,10-2.8,11.7c-2.5,1.7-7.2,0.3-10.6-1.1c-3.4-1.4-4.3-3.8-4.9-6
		c-0.7-2.2-0.4-8.1,0.4-12.3c0.8-4.2,3.5-5.9,6.6-6.5C466.4,73.2,472.7,76.3,472.7,76.3z"/>
	<path class="st1" d="M458.6,90.4c0,0,0.9,9.4-1.1,13.8c-1.4,3-6.9,4.3-6.9,4.3s-0.2,8.4,5.3,16.6c5.5,8.1,22.8,11.2,22.8,11.2
		s3.4-6.8,5.2-14.4c1.8-7.6-3-13.5-3-13.5s-4.7-1.5-6.9-2.4c-5.4-2.1-4.8-10.7-4.8-10.7L458.6,90.4z"/>
	
		<linearGradient id="SVGID_00000090992345654513332280000005101638957846755462_" gradientUnits="userSpaceOnUse" x1="441.6067" y1="144.0399" x2="489.2921" y2="144.0399">
		<stop  offset="0" style="stop-color:#26FFFF"/>
		<stop  offset="1" style="stop-color:#006DFF"/>
	</linearGradient>
	<path style="fill:url(#SVGID_00000090992345654513332280000005101638957846755462_);" d="M469.1,112.1c0,0-11.2-2.8-14.5-5
		l-11.1,6.6c0,0-6.5,6.2,4.6,22.6c0,0,4.2,14.9-2.6,41.1c0,0,1.9,6.8,12.2,3.2c8.9-3.1,9.1-5.5,17-7.5c11.6-2.9,14.6-4.7,14.6-4.7
		c-6.1-9.1-5-23.4-5-23.4s6.9-6.6,3.9-13.3c-4.3-9.7-5.7-23.5-5.7-23.5l-5.9-1.5c0,0-3.2,3.9-4.7,5
		C470.3,112.8,469.1,112.1,469.1,112.1z"/>
	<path class="st8" d="M474,105.9c0,0-1.4,5.1-4.9,6.2c0,0,1.4,6.9,4.7,5.7c4.6-1.7,2.8-11.3,2.8-11.3L474,105.9z"/>
	<path class="st8" d="M453.3,106.2c0,0,2.2,10.6,8,11.5c5.9,0.9,7.8-5.6,7.8-5.6s-12.4-3.6-13.6-7.4L453.3,106.2z"/>
	<path class="st35" d="M463.6,73.7c-1.1,0.1-1.9,5.2-2,8c-0.1,2.9-4.4,5.1-2.5,11.4c1.9,6.3,1.6,12.3,4.2,19.2
		c2.5,6.9-0.6,9.4-2,11.8c0,0-5.4-5.9-7.2-8.9c-2.9-4.8-7.7-3.5-7.7-3.5s8.3-16,8-20.3c-0.3-4.3-1-10.9,2.4-14.9
		C460.1,72.5,463.6,73.7,463.6,73.7z"/>
	<path class="st1" d="M459.2,86.5c0,0-2.3-2.5-3.8-2.1c-1.5,0.4-1.6,2.7-0.5,4.5c1.2,1.9,5.4,2.9,5.4,2.9L459.2,86.5z"/>
	<path class="st35" d="M464.5,81.6c2.1,0.2,3.3-0.1,6.5-0.5c4.2-0.5,5.9,0.6,5.9,0.6l-1.6-6.9c0,0-4.9-2.7-8.3-2.7
		c-4.4,0-8.2,1.7-6,3.1C463.3,76.8,464.5,81.6,464.5,81.6z"/>
	<g>
		<path class="st1" d="M452.9,121.4c-0.7,8.7-3.3,33.4-3.3,33.4c7.9,6.9,19.1,18.4,19.1,18.4s-3.2,6.3-4.5,5.2
			c-10.9-8.5-23.3-13.5-24.2-19.5c-1.5-9.7-2-34.2,1.6-42.1C444.3,110.7,453.7,112.2,452.9,121.4z"/>
		<path class="st1" d="M473.5,174c3.3,1.2,5.4,2.5,5.2,3.7c-0.1,0.9-3-0.7-4.6-0.6c0.6,1.2,2.1,3,4,3.9c2.2,1.1,3.4,2.6,2.2,3.8
			c-1.2,1.3-3.3,3-4.7,2.4c-1.4-0.6-6.4-4.1-8.3-5.1c-1.9-1-2.6-3.3-3.6-4c-1-0.6,1.8-5.6,1.8-5.6c0.5,0.1,3.2,0.7,3.2,0.7
			s2.1,0.3,2.7,0.2C472,173.4,473.5,174,473.5,174z"/>
	</g>
</g>
<g id="DESIGNED_BY_FREEPIK">
</g>
</svg>
