<?xml version="1.0" encoding="utf-8"?>
<!-- Generator: Adobe Illustrator 26.1.0, SVG Export Plug-In . SVG Version: 6.00 Build 0)  -->
<svg version="1.1" xmlns="http://www.w3.org/2000/svg" xmlns:xlink="http://www.w3.org/1999/xlink" x="0px" y="0px"
	 viewBox="0 0 189.9 108.6" style="enable-background:new 0 0 189.9 108.6;" xml:space="preserve">
<style type="text/css">
	.st0{opacity:0.4;}
	.st1{fill:#CFEFFE;}
	.st2{fill:#B0EEFF;}
	.st3{opacity:0.25;}
	.st4{fill:none;stroke:#FFFFFF;stroke-width:0.8353;stroke-linecap:round;stroke-linejoin:round;stroke-miterlimit:10;}
	.st5{fill:#282228;}
	.st6{fill:#0E60D8;}
	.st7{fill:#1A6CF3;}
	.st8{opacity:0.35;fill:#5275A0;}
	.st9{fill:#FFFFFF;}
	.st10{fill:#D7F6FF;}
	.st11{fill:none;stroke:#FFFFFF;stroke-width:1.2141;stroke-linecap:round;stroke-linejoin:round;stroke-miterlimit:10;}
	.st12{fill:none;stroke:#FFFFFF;stroke-width:1.0087;stroke-linecap:round;stroke-linejoin:round;stroke-miterlimit:10;}
	.st13{fill:none;stroke:#389FE5;stroke-width:1.6197;stroke-miterlimit:10;}
	.st14{fill:#F35431;}
	.st15{fill:#D3361C;}
	.st16{fill:#FBB800;}
	.st17{clip-path:url(#SVGID_00000130605769110548361850000013614981607855423622_);}
	.st18{fill:#F2446D;}
	.st19{fill:#2045CE;}
	.st20{fill:#E72D27;}
	.st21{fill:#FEC752;}
	.st22{font-family:'OpenSans';}
	.st23{font-size:2.1546px;}
	.st24{fill:none;}
	.st25{font-size:1.1671px;}
	.st26{clip-path:url(#SVGID_00000145743376444482476160000009904465065276726436_);}
	.st27{opacity:0.3;fill:#7A520B;}
	.st28{opacity:0.32;fill:#97C4F2;}
	.st29{fill:#FFDCC5;}
	.st30{fill:#FCA265;}
	.st31{fill:#FFE1BD;}
	.st32{fill:#2C1F23;}
	.st33{opacity:0.3;}
	.st34{fill:none;stroke:#2C1F23;stroke-width:0.7433;stroke-miterlimit:10;}
	.st35{fill:#D8D8D8;}
	.st36{fill:none;stroke:#2C1F23;stroke-width:1.4865;stroke-miterlimit:10;}
	.st37{opacity:0.5;}
	.st38{fill:#FEAF84;}
	.st39{opacity:0.35;}
	.st40{fill:#5275A0;}
	.st41{fill:#FF7C48;}
	.st42{fill:#8FCAF2;}
	.st43{fill:#B1DAFC;}
	.st44{fill:#F29D77;}
	.st45{fill:#9DDBF4;}
	.st46{fill:none;stroke:#9DDBF4;stroke-miterlimit:10;}
	.st47{opacity:0.66;}
	.st48{fill:none;stroke:#EAA221;stroke-width:1.9087;stroke-linecap:round;stroke-linejoin:round;stroke-miterlimit:10;}
</style>
<g id="BACKGROUND">
</g>
<g id="OBJECT">
	<g class="st0">
		<path class="st1" d="M68.6,24.2V3.4L58.5,18.8v25.7H52V7.7h-1.7l-4.7-6.2l-4.7,6.2h-1.6v49.6h-13l0,0H15.3v27h69.1V24.2H68.6z
			 M50.4,37.4h-9.4v-1.3h9.4V37.4z M50.4,34.7h-9.4v-1.3h9.4V34.7z M50.4,32.1h-9.4v-1.3h9.4V32.1z M50.4,29.4h-9.4V28h9.4V29.4z
			 M50.4,26.7h-9.4v-1.3h9.4V26.7z M50.4,24h-9.4v-1.3h9.4V24z M50.4,21.3h-9.4V20h9.4V21.3z M50.4,18.6h-9.4v-1.3h9.4V18.6z
			 M50.4,16h-9.4v-1.3h9.4V16z M50.4,13.3h-9.4v-1.3h9.4V13.3z M50.4,10.6h-9.4V9.2h9.4V10.6z M67.4,76h-1V9.9l1-1.5V76z"/>
		<path class="st1" d="M140,24.2V3.4l-10.1,15.4v25.7h-6.5V7.7h-1.7L117,1.6l-4.7,6.2h-1.6v49.6h-13l0,0H86.7v27h69.1V24.2H140z
			 M121.7,37.4h-9.4v-1.3h9.4V37.4z M121.7,34.7h-9.4v-1.3h9.4V34.7z M121.7,32.1h-9.4v-1.3h9.4V32.1z M121.7,29.4h-9.4V28h9.4V29.4
			z M121.7,26.7h-9.4v-1.3h9.4V26.7z M121.7,24h-9.4v-1.3h9.4V24z M121.7,21.3h-9.4V20h9.4V21.3z M121.7,18.6h-9.4v-1.3h9.4V18.6z
			 M121.7,16h-9.4v-1.3h9.4V16z M121.7,13.3h-9.4v-1.3h9.4V13.3z M121.7,10.6h-9.4V9.2h9.4V10.6z M138.7,76h-1V9.9l1-1.5V76z"/>
		<path class="st1" d="M114.2,59.2V12.2h-1.5V7.4H101v4.8h-1.5v59.2h-11V44.5h-16v35.2h-7.8v-63H48.8v48.4H47V36.3h-2.9l-8-5.9v5.9
			h-1.7v35.6h-3.9V23.7h-3.9V6.8h-0.5v16.9h-3.9v60.8h101.9V59.2H114.2z M29.6,54.6h-6.5v-1h6.5V54.6z M29.6,52.2h-6.5v-1h6.5V52.2z
			 M29.6,49.8h-6.5v-1h6.5V49.8z M29.6,47.4h-6.5v-1h6.5V47.4z M29.6,44.9h-6.5v-1h6.5V44.9z M29.6,42.5h-6.5v-1h6.5V42.5z
			 M29.6,40.1h-6.5v-1h6.5V40.1z M29.6,37.7h-6.5v-1h6.5V37.7z M29.6,35.2h-6.5v-1h6.5V35.2z M29.6,32.8h-6.5v-1h6.5V32.8z
			 M29.6,30.4h-6.5v-1h6.5V30.4z M29.6,28h-6.5v-1h6.5V28z M29.6,25.6h-6.5v-1h6.5V25.6z M52.2,40h-1.9v-2.7h1.9V40z M52.2,35.5
			h-1.9v-2.7h1.9V35.5z M52.2,31h-1.9v-2.7h1.9V31z M52.2,26.6h-1.9v-2.7h1.9V26.6z M52.2,22.1h-1.9v-2.7h1.9V22.1z M55.9,40H54
			v-2.7h1.9V40z M55.9,35.5H54v-2.7h1.9V35.5z M55.9,31H54v-2.7h1.9V31z M55.9,26.6H54v-2.7h1.9V26.6z M55.9,22.1H54v-2.7h1.9V22.1z
			 M59.5,40h-1.9v-2.7h1.9V40z M59.5,35.5h-1.9v-2.7h1.9V35.5z M59.5,31h-1.9v-2.7h1.9V31z M59.5,26.6h-1.9v-2.7h1.9V26.6z
			 M59.5,22.1h-1.9v-2.7h1.9V22.1z M63.2,40h-1.9v-2.7h1.9V40z M63.2,35.5h-1.9v-2.7h1.9V35.5z M63.2,31h-1.9v-2.7h1.9V31z
			 M63.2,26.6h-1.9v-2.7h1.9V26.6z M115.7,81.4h-2v-2.8h2V81.4z M115.7,75.8h-2V73h2V75.8z M115.7,70.2h-2v-2.8h2V70.2z M115.7,64.6
			h-2v-2.8h2V64.6z M119.4,81.4h-2v-2.8h2V81.4z M119.4,75.8h-2V73h2V75.8z M119.4,70.2h-2v-2.8h2V70.2z M119.4,64.6h-2v-2.8h2V64.6
			z M123.1,81.4h-2v-2.8h2V81.4z M123.1,75.8h-2V73h2V75.8z M123.1,70.2h-2v-2.8h2V70.2z M123.1,64.6h-2v-2.8h2V64.6z"/>
		<path class="st1" d="M161.1,54.2V12.2h-1.5V7.4h-11.7v4.8h-1.5v59.2h-11V44.5h-16v35.2h-7.8v-63H95.7v48.4h-1.9V36.3H91l-8-5.9
			v5.9h-1.7v35.6h-3.9V23.7h-3.9V6.8H73v16.9H69v60.8H171V54.2H161.1z M76.5,54.6H70v-1h6.5V54.6z M76.5,52.2H70v-1h6.5V52.2z
			 M76.5,49.8H70v-1h6.5V49.8z M76.5,47.4H70v-1h6.5V47.4z M76.5,44.9H70v-1h6.5V44.9z M76.5,42.5H70v-1h6.5V42.5z M76.5,40.1H70v-1
			h6.5V40.1z M76.5,37.7H70v-1h6.5V37.7z M76.5,35.2H70v-1h6.5V35.2z M76.5,32.8H70v-1h6.5V32.8z M76.5,30.4H70v-1h6.5V30.4z
			 M76.5,28H70v-1h6.5V28z M76.5,25.6H70v-1h6.5V25.6z M99.1,40h-1.9v-2.7h1.9V40z M99.1,35.5h-1.9v-2.7h1.9V35.5z M99.1,31h-1.9
			v-2.7h1.9V31z M99.1,26.6h-1.9v-2.7h1.9V26.6z M99.1,22.1h-1.9v-2.7h1.9V22.1z M102.8,40h-1.9v-2.7h1.9V40z M102.8,35.5h-1.9v-2.7
			h1.9V35.5z M102.8,31h-1.9v-2.7h1.9V31z M102.8,26.6h-1.9v-2.7h1.9V26.6z M102.8,22.1h-1.9v-2.7h1.9V22.1z M106.4,40h-1.9v-2.7
			h1.9V40z M106.4,35.5h-1.9v-2.7h1.9V35.5z M106.4,31h-1.9v-2.7h1.9V31z M106.4,26.6h-1.9v-2.7h1.9V26.6z M106.4,22.1h-1.9v-2.7
			h1.9V22.1z M110.1,40h-1.9v-2.7h1.9V40z M110.1,35.5h-1.9v-2.7h1.9V35.5z M110.1,31h-1.9v-2.7h1.9V31z M110.1,26.6h-1.9v-2.7h1.9
			V26.6z M163.6,73.9h-1.7v-2.4h1.7V73.9z M163.6,69.1h-1.7v-2.4h1.7V69.1z M163.6,64.3h-1.7v-2.4h1.7V64.3z M163.6,59.5h-1.7v-2.4
			h1.7V59.5z M166.8,73.9h-1.7v-2.4h1.7V73.9z M166.8,69.1h-1.7v-2.4h1.7V69.1z M166.8,64.3h-1.7v-2.4h1.7V64.3z M166.8,59.5h-1.7
			v-2.4h1.7V59.5z M170,73.9h-1.7v-2.4h1.7V73.9z M170,69.1h-1.7v-2.4h1.7V69.1z M170,64.3h-1.7v-2.4h1.7V64.3z M170,59.5h-1.7v-2.4
			h1.7V59.5z"/>
		<rect x="171" y="63.2" class="st1" width="6.8" height="32.4"/>
	</g>
	<g>
		<g>
			<path class="st2" d="M25.8,87.9c-0.9-0.7-1.9-1.5-2.3-2.6c-0.4-1-1-2.1-1.2-3.1c-0.2-1.1-0.6-2.1-1.2-3c-1.8-2.9-3-2.1-3.4-1.7
				c-0.4,0.4-0.4,1-0.2,1.8c0.2,0.7,1.8,3.6,0.6,3.5c-1.4-0.1-2.5-3.4-3-4.4c-0.8-1.5-2.1-3-3.8-3.7c-0.8-0.3-1.8-0.4-2.5,0.2
				c-0.4,0.4-0.5,0.9-0.5,1.5c0,1.6,1,2.9,2,4c0.4,0.5,3.2,2.3,1.6,2.6c-0.4,0.1-4.3-1.3-3.8,1.4c0.2,0.9,1.5,1.5,3.5,2.1
				c1.2,0.4,5.5,0.9,5.7,2c0.2,1-2.4,0.2-1.5,1.9c0.5,1,2.1,1.2,3.1,1.3c0.5,0,1,0,1.5,0c0.6,0.1,1.4,0.5,1.2,1.2
				c-0.1,0.3-0.4,0.6-0.4,0.9c-0.1,0.3,0.1,0.7,0.4,0.9c0.3,0.2,0.6,0.3,0.9,0.4c2.1,0.4,4.3-0.1,6.1-1.2c1.8-1.1,3.3-2.6,4.7-4.2"
				/>
		</g>
		<g class="st3">
			<path class="st4" d="M10.5,76.3c0,0,5.8,9.9,14.6,14.3"/>
			<path class="st4" d="M10,84.4c0,0,4.6,1.5,7.7,0.9"/>
			<path class="st4" d="M18.7,78.6c0.8,1.6,2.6,6.2,1.8,9.1"/>
			<path class="st4" d="M17.3,90.2c0,0,1.9,0.7,6.4-0.3"/>
			<path class="st4" d="M22.3,93.7c0,0,2.4-0.4,4-2.3"/>
		</g>
	</g>
	<g>
		<g>
			
				<rect x="20.7" y="77.4" transform="matrix(-1 -1.224647e-16 1.224647e-16 -1 43.6671 177.6689)" class="st5" width="2.4" height="23"/>
			
				<rect x="21.4" y="77.4" transform="matrix(-1 -1.224647e-16 1.224647e-16 -1 45.0716 177.6689)" class="st6" width="2.4" height="23"/>
		</g>
		<path class="st7" d="M33.6,59.8L33.6,59.8c3.6,0,6.6,3,6.6,6.6v10.6c0,1.3-1,2.3-2.3,2.3h-2.3H27H11.5V59.8H33.6z"/>
		<path class="st8" d="M11.5,78.1v1.1H38c1.2,0,2.3-1,2.3-2.3v-1.1c0,1.2-1,2.3-2.3,2.3H11.5z"/>
		<path class="st5" d="M6.6,79.2h9.5c1.1,0,2-0.9,2-2V66.4c0-3.6-3-6.6-6.6-6.6l0,0c-3.6,0-6.6,3-6.6,6.6v11.1
			C4.9,78.4,5.6,79.2,6.6,79.2z"/>
		
			<rect x="8" y="65.3" transform="matrix(-1 -1.224647e-16 1.224647e-16 -1 22.9125 131.8518)" class="st7" width="6.8" height="1.2"/>
		<path class="st5" d="M23.1,67v-9.9h1.7c0.2,0,0.4-0.2,0.4-0.4v-0.8c0-0.2-0.2-0.4-0.4-0.4h-2.2c-0.2,0-0.4,0.2-0.4,0.4V67H23.1z"
			/>
		<path class="st5" d="M21.1,66.8c0,0.9,0.7,1.6,1.6,1.6c0.9,0,1.6-0.7,1.6-1.6s-0.7-1.6-1.6-1.6C21.8,65.2,21.1,65.9,21.1,66.8z"/>
		<path class="st9" d="M21.9,66.8c0,0.4,0.4,0.8,0.8,0.8s0.8-0.4,0.8-0.8c0-0.4-0.4-0.8-0.8-0.8S21.9,66.3,21.9,66.8z"/>
	</g>
	<g>
		<g>
			<path class="st2" d="M37.3,81c0.2-1.1,0.5-2.3,1.2-3.3c0.7-0.9,1.4-1.8,2.2-2.5c0.9-0.7,1.6-1.5,2.1-2.5c1.7-2.9,0.5-3.6-0.1-3.8
				c-0.5-0.2-1.1,0.1-1.7,0.7c-0.5,0.5-2.4,3.2-2.8,2.2c-0.5-1.3,1.9-3.8,2.5-4.7c1-1.5,1.7-3.3,1.5-5c-0.1-0.9-0.5-1.8-1.3-2.1
				c-0.5-0.2-1.1,0-1.5,0.2c-1.4,0.7-2.1,2.2-2.6,3.7c-0.2,0.6-0.6,3.9-1.6,2.6c-0.2-0.3-0.9-4.4-2.9-2.7c-0.7,0.6-0.6,2-0.2,4
				c0.2,1.3,1.7,5.3,0.9,5.9c-0.8,0.6-1.3-2-2.4-0.5c-0.6,0.9-0.1,2.4,0.3,3.4c0.2,0.5,0.5,0.9,0.7,1.3c0.2,0.6,0.2,1.5-0.5,1.6
				c-0.3,0.1-0.7-0.1-1,0c-0.3,0.1-0.5,0.4-0.6,0.7c-0.1,0.3,0,0.7,0.1,1c0.6,2,2.1,3.7,3.9,4.8c1.8,1.1,3.9,1.7,5.9,2.2"/>
		</g>
		<g class="st3">
			<path class="st4" d="M40.5,62c0,0-6.1,9.8-5.9,19.6"/>
			<path class="st4" d="M33.1,65.3c0,0,0.8,4.8,2.8,7.3"/>
			<path class="st4" d="M42.3,70.4c-1.1,1.4-4.3,5.2-7.2,5.8"/>
			<path class="st4" d="M31.4,74.5c0,0,0.2,2,3.3,5.5"/>
			<path class="st4" d="M30.6,80.6c0,0,1.5,1.9,3.9,2.5"/>
		</g>
	</g>
	<g>
		<path class="st10" d="M35,82.6c-0.4-2.1-6.4-15.5-13.3-11.9c-4.1,2.1-3.4,9.9,3.1,15.9c-1.3-1.2-2.7-2.6-4.4-2.9
			c-0.9-0.2-2.1,0.2-2.8,0.9c-0.6,0.6-0.8,1.5-0.8,2.3c-0.1,3.1,1.5,6.1,4.1,7.8c-1.4-0.8-2.7-1.8-4.3-1.9c-0.5,0-1.4,0.3-1.7,0.7
			c-0.3,0.5-0.2,2.4,2.9,3.9c-12.7-2.4-13.5,3-8.9,3c4.6,0,37.6,0,37.6,0"/>
	</g>
	<g>
		<path class="st2" d="M39.2,89.8c-0.2-1.3-2.5-9.2-6.6-7.1c-2.4,1.2-2,5.8,1.8,9.3c-0.7-0.7-1.6-1.5-2.6-1.7
			c-0.5-0.1-1.2,0.1-1.6,0.5c-0.4,0.3-0.5,0.9-0.5,1.4c-0.1,1.8,0.9,3.6,2.4,4.6c-0.8-0.5-1.6-1-2.5-1.1c-0.3,0-0.8,0.2-1,0.4
			c-0.2,0.3-0.1,1.4,1.7,2.3c-7.5-1.4-7.9,1.8-5.2,1.8c2.7,0,17.8,0,17.8,0"/>
	</g>
	<g>
		<g>
			<path class="st2" d="M159,86.9c1.4-1,2.8-2,3.6-3.5c0.7-1.4,1.7-2.9,2.1-4.4c0.4-1.5,1.1-3,2-4.2c2.9-4,4.5-2.7,5.1-2.1
				c0.5,0.6,0.5,1.5,0.1,2.7c-0.4,1-2.9,5.1-1.2,5c2,0,3.9-4.7,4.9-6.1c1.4-2.1,3.4-4.2,5.8-5c1.2-0.4,2.7-0.4,3.5,0.5
				c0.5,0.6,0.6,1.4,0.6,2.2c-0.2,2.3-1.8,4.1-3.4,5.6c-0.7,0.6-4.9,3-2.5,3.7c0.6,0.1,6.4-1.4,5.3,2.4c-0.4,1.3-2.3,2-5.3,2.6
				c-1.8,0.4-8.1,0.8-8.4,2.3c-0.3,1.5,3.5,0.5,2,3c-0.8,1.4-3.2,1.6-4.7,1.6c-0.7,0-1.4-0.2-2.2-0.1c-0.9,0-2.1,0.5-1.9,1.6
				c0.1,0.5,0.5,0.8,0.5,1.3c0.1,0.5-0.2,0.9-0.6,1.2c-0.4,0.3-0.9,0.4-1.4,0.4c-3,0.4-6.2-0.6-8.7-2.4c-2.5-1.8-4.5-4.1-6.4-6.6"/>
		</g>
		<g class="st3">
			<path class="st11" d="M182.5,71.6c0,0-9.5,13.8-22.7,19.2"/>
			<path class="st11" d="M182.3,83.4c0,0-6.8,1.8-11.3,0.5"/>
			<path class="st11" d="M170.2,74.2c-1.3,2.3-4.4,8.8-3.5,12.9"/>
			<path class="st11" d="M171,91.1c0,0-2.8,0.9-9.3-1.1"/>
			<path class="st11" d="M163.5,95.6c0,0-3.5-0.8-5.6-3.8"/>
		</g>
	</g>
	<g>
		<g>
			<path class="st2" d="M140.1,63.4c0.4-1.4,0.8-2.8,0.6-4.2c-0.2-1.3-0.4-2.7-0.9-3.9c-0.5-1.2-0.8-2.5-0.8-3.8
				c-0.2-4.1,1.6-4.1,2.3-4c0.7,0.1,1.1,0.7,1.4,1.7c0.2,0.8,0.7,4.8,1.8,3.9c1.3-1,0.2-5.1,0.1-6.5c-0.2-2.1,0.1-4.5,1.3-6.2
				c0.6-0.9,1.6-1.7,2.6-1.5c0.6,0.1,1.1,0.6,1.5,1.1c1,1.6,0.9,3.6,0.6,5.4c-0.1,0.8-1.6,4.5,0.2,3.7c0.4-0.2,3.5-4.2,4.7-1.2
				c0.4,1.1-0.5,2.5-2.1,4.4c-1,1.2-4.9,4.6-4.4,5.8c0.5,1.2,2.5-1.4,2.8,0.9c0.2,1.3-1.3,2.6-2.3,3.4c-0.5,0.4-1,0.6-1.5,1
				c-0.5,0.5-1.1,1.4-0.4,2c0.3,0.3,0.7,0.3,1,0.6c0.3,0.3,0.3,0.7,0.2,1.1c-0.1,0.4-0.4,0.7-0.7,1c-1.8,1.8-4.4,2.7-6.9,2.9
				c-2.6,0.1-5.1-0.4-7.6-1.1"/>
		</g>
		<g class="st3">
			<path class="st12" d="M147.7,41.4c0,0,0.8,13.9-5.1,24.2"/>
			<path class="st12" d="M153.6,49.2c0,0-3.6,4.7-7.1,6.1"/>
			<path class="st12" d="M141,49.3c0.3,2.1,1.6,8,4.3,10.3"/>
			<path class="st12" d="M150.2,60c0,0-1.4,2-6.7,4"/>
			<path class="st12" d="M147.5,66.8c0,0-2.7,1.2-5.6,0.4"/>
		</g>
	</g>
	<g>
		<path class="st10" d="M137.6,79.7c0.6-2.6,10.1-20.3,20.4-16c6.1,2.6,5,12.2-4.5,19.4c1.9-1.5,4-3.2,6.6-3.6
			c1.4-0.2,3.1,0.3,4.1,1.1c0.9,0.7,1.2,1.8,1.2,2.8c0.2,3.7-2.2,7.5-6,9.5c2.1-1,3.9-2.2,6.3-2.4c0.8-0.1,2.1,0.3,2.5,0.9
			c0.4,0.6,0.4,3-4.3,4.7c18.9-3,20,3.7,13.2,3.7s-44.9,0-44.9,0"/>
	</g>
	<line class="st13" x1="1.7" y1="100" x2="189" y2="100"/>
	<g>
		<g>
			<path class="st14" d="M32.7,32.4l-0.5,0.1l0,0c-0.1,0-0.2,0-0.2-0.1c0-0.1,0-0.2,0.1-0.2l0.5-0.1c0.1,0,0.2,0,0.2,0.1
				S32.8,32.4,32.7,32.4L32.7,32.4L32.7,32.4z"/>
			<path class="st14" d="M31.5,32.7c-0.3,0.1-0.6,0.2-0.9,0.4c-0.1,0-0.2,0-0.2-0.1c0-0.1,0-0.2,0.1-0.2c0.3-0.1,0.6-0.3,1-0.4
				c0.1,0,0.2,0,0.2,0.1C31.6,32.6,31.6,32.7,31.5,32.7L31.5,32.7z"/>
			<path class="st14" d="M29.9,33.4c-0.3,0.2-0.6,0.3-0.9,0.5c-0.1,0.1-0.2,0-0.2-0.1c-0.1-0.1,0-0.2,0.1-0.2
				c0.3-0.2,0.6-0.4,0.9-0.5c0.1,0,0.2,0,0.2,0.1C30,33.2,29.9,33.3,29.9,33.4L29.9,33.4z"/>
			<path class="st14" d="M28.3,34.3c-0.3,0.2-0.5,0.4-0.8,0.6c-0.1,0.1-0.2,0.1-0.2,0c-0.1-0.1-0.1-0.2,0-0.2
				c0.3-0.2,0.5-0.4,0.8-0.7c0.1-0.1,0.2,0,0.2,0C28.4,34.1,28.4,34.3,28.3,34.3L28.3,34.3z"/>
			<path class="st14" d="M27,35.5c-0.2,0.2-0.5,0.5-0.7,0.8c-0.1,0.1-0.2,0.1-0.2,0c-0.1-0.1-0.1-0.2,0-0.2c0.2-0.3,0.4-0.5,0.7-0.8
				c0.1-0.1,0.2-0.1,0.2,0C27.1,35.3,27.1,35.4,27,35.5L27,35.5z"/>
			<path class="st14" d="M25.9,36.8c-0.2,0.3-0.3,0.6-0.5,0.9c0,0.1-0.1,0.1-0.2,0.1c-0.1,0-0.1-0.1-0.1-0.2
				c0.1-0.3,0.3-0.6,0.5-0.9c0-0.1,0.2-0.1,0.2-0.1C25.9,36.7,25.9,36.8,25.9,36.8L25.9,36.8z"/>
			<path class="st14" d="M25.2,38.4c-0.1,0.3-0.1,0.6-0.2,1c0,0.1-0.1,0.2-0.2,0.1c-0.1,0-0.2-0.1-0.1-0.2c0-0.4,0.1-0.7,0.2-1.1
				c0-0.1,0.1-0.1,0.2-0.1C25.1,38.2,25.2,38.3,25.2,38.4L25.2,38.4z"/>
			<path class="st14" d="M25.1,40.1c0,0.3,0.1,0.6,0.3,1c0,0.1,0,0.2-0.1,0.2c-0.1,0-0.2,0-0.2-0.1c-0.1-0.3-0.2-0.7-0.3-1
				c0-0.1,0-0.2,0.1-0.2C25,40,25,40.1,25.1,40.1L25.1,40.1z"/>
			<path class="st14" d="M25.6,41.8c0.2,0.3,0.4,0.6,0.6,0.8c0.1,0.1,0,0.2,0,0.2c-0.1,0.1-0.2,0-0.2,0c-0.2-0.3-0.4-0.6-0.6-0.9
				c0-0.1,0-0.2,0.1-0.2C25.5,41.7,25.6,41.7,25.6,41.8L25.6,41.8z"/>
			<path class="st14" d="M26.7,43.1c0.2,0.2,0.5,0.4,0.8,0.6c0.1,0,0.1,0.1,0,0.2c0,0.1-0.1,0.1-0.2,0c-0.3-0.2-0.6-0.4-0.8-0.7
				c-0.1-0.1-0.1-0.1,0-0.2C26.6,43.1,26.7,43.1,26.7,43.1L26.7,43.1z"/>
			<path class="st14" d="M28.2,44.2c0.3,0.2,0.6,0.3,0.9,0.4c0.1,0,0.1,0.1,0.1,0.2c0,0.1-0.1,0.1-0.2,0.1c-0.3-0.1-0.6-0.3-1-0.4
				c-0.1,0-0.1-0.1-0.1-0.2S28.1,44.2,28.2,44.2L28.2,44.2z"/>
			<path class="st14" d="M29.8,44.8c0.3,0.1,0.7,0.1,1,0.2c0.1,0,0.1,0.1,0.1,0.1c0,0.1-0.1,0.1-0.1,0.1c-0.3,0-0.7-0.1-1-0.2
				c-0.1,0-0.1-0.1-0.1-0.2C29.6,44.9,29.7,44.8,29.8,44.8L29.8,44.8z"/>
			<path class="st14" d="M31.5,45.1c0.3,0,0.7,0,1-0.1c0.1,0,0.1,0,0.1,0.1c0,0.1,0,0.1-0.1,0.1c-0.3,0.1-0.7,0.1-1,0.1
				c-0.1,0-0.1-0.1-0.1-0.1C31.4,45.1,31.5,45.1,31.5,45.1L31.5,45.1z"/>
			<path class="st14" d="M33.3,44.7c0.3-0.1,0.6-0.3,0.8-0.5c0,0,0.1,0,0.2,0c0,0,0,0.1,0,0.2c-0.3,0.2-0.6,0.4-0.9,0.6
				c-0.1,0-0.1,0-0.2-0.1C33.2,44.8,33.2,44.8,33.3,44.7L33.3,44.7z"/>
			<path class="st14" d="M34.5,43.6c0.1-0.3,0.2-0.6,0.2-0.9c0-0.1,0.1-0.1,0.1-0.1c0.1,0,0.1,0.1,0.1,0.1c0,0.4-0.1,0.7-0.3,1
				c0,0.1-0.1,0.1-0.1,0.1C34.5,43.8,34.5,43.7,34.5,43.6L34.5,43.6z"/>
			<path class="st14" d="M34.7,42c-0.1-0.3-0.2-0.6-0.5-0.9c0,0,0-0.1,0-0.1c0,0,0.1,0,0.1,0c0.2,0.3,0.4,0.6,0.5,0.9
				c0,0.1,0,0.1-0.1,0.1C34.8,42,34.7,42,34.7,42L34.7,42z"/>
			<path class="st14" d="M33.7,40.6c-0.3-0.2-0.6-0.3-0.9-0.4c0,0-0.1-0.1-0.1-0.1c0,0,0.1-0.1,0.1-0.1c0.3,0.1,0.7,0.2,1,0.4
				c0,0,0.1,0.1,0,0.1C33.8,40.7,33.7,40.7,33.7,40.6L33.7,40.6z"/>
			<path class="st14" d="M32,40.1c-0.3,0-0.7-0.1-1,0c0,0-0.1,0-0.1-0.1c0,0,0-0.1,0.1-0.1c0.3,0,0.7,0,1,0c0,0,0.1,0.1,0.1,0.1
				C32.1,40.1,32.1,40.1,32,40.1L32,40.1z"/>
			<path class="st14" d="M30.2,40.1c-0.3,0-0.7,0.1-1,0.2c0,0-0.1,0-0.1-0.1c0,0,0-0.1,0.1-0.1c0.3-0.1,0.7-0.2,1-0.2
				C30.3,39.9,30.3,40,30.2,40.1C30.3,40.1,30.3,40.1,30.2,40.1L30.2,40.1z"/>
			<path class="st14" d="M28.5,40.5c-0.3,0.1-0.6,0.3-0.9,0.4c0,0-0.1,0-0.1,0c0,0,0-0.1,0-0.1c0.3-0.2,0.6-0.3,0.9-0.4
				c0,0,0.1,0,0.1,0C28.6,40.5,28.6,40.5,28.5,40.5L28.5,40.5z"/>
			<path class="st14" d="M26.9,41.3c-0.3,0.2-0.6,0.4-0.8,0.6c0,0-0.1,0-0.1,0c0,0,0-0.1,0-0.1c0.3-0.2,0.5-0.4,0.8-0.6
				c0,0,0.1,0,0.1,0C27,41.3,26.9,41.3,26.9,41.3L26.9,41.3z"/>
			<path class="st14" d="M25.5,42.4c-0.2,0.2-0.5,0.5-0.7,0.8c0,0-0.1,0-0.1,0c0,0,0-0.1,0-0.1C25,42.9,25.2,42.6,25.5,42.4
				C25.5,42.3,25.5,42.3,25.5,42.4C25.6,42.4,25.6,42.4,25.5,42.4L25.5,42.4z"/>
			<path class="st14" d="M24.5,43.9c-0.2,0.3-0.3,0.6-0.4,0.9c0,0,0,0-0.1,0c0,0,0,0,0-0.1c0.1-0.3,0.3-0.6,0.4-0.9
				C24.4,43.8,24.4,43.8,24.5,43.9C24.5,43.8,24.5,43.8,24.5,43.9L24.5,43.9z"/>
			<path class="st14" d="M23.8,45.5c-0.1,0.3-0.2,0.7-0.2,1c0,0,0,0-0.1,0c0,0,0,0,0-0.1c0-0.3,0.1-0.7,0.2-1
				C23.7,45.4,23.7,45.4,23.8,45.5C23.8,45.4,23.8,45.5,23.8,45.5L23.8,45.5z"/>
			<path class="st14" d="M23.5,47.3c0,0.3,0,0.7,0,1c0,0,0,0,0,0c0,0,0,0,0,0C23.3,47.9,23.4,47.6,23.5,47.3
				C23.4,47.2,23.4,47.2,23.5,47.3C23.4,47.2,23.5,47.2,23.5,47.3L23.5,47.3L23.5,47.3z"/>
			<path class="st14" d="M23.6,49c0.1,0.3,0.2,0.7,0.3,1c0,0,0,0,0,0c0,0,0,0,0,0C23.7,49.7,23.6,49.4,23.6,49
				C23.5,49,23.5,49,23.6,49C23.6,49,23.6,49,23.6,49L23.6,49z"/>
			<path class="st14" d="M24.3,50.7c0.2,0.3,0.4,0.6,0.6,0.8c0,0,0,0,0,0c0,0,0,0,0,0C24.6,51.3,24.4,51,24.3,50.7
				C24.2,50.7,24.2,50.7,24.3,50.7C24.2,50.7,24.3,50.7,24.3,50.7L24.3,50.7z"/>
			<path class="st14" d="M25.5,52c0.3,0.2,0.5,0.4,0.8,0.6c0,0,0,0,0,0c0,0,0,0,0,0C26,52.5,25.7,52.3,25.5,52
				C25.4,52,25.4,52,25.5,52C25.4,52,25.5,52,25.5,52L25.5,52z"/>
			<path class="st14" d="M27,53c0.3,0.2,0.6,0.3,0.9,0.4c0,0,0,0,0,0c0,0,0,0,0,0C27.6,53.3,27.2,53.2,27,53C26.9,53,26.9,53,27,53
				C26.9,53,26.9,53,27,53L27,53z"/>
			<path class="st14" d="M28.6,53.7c0.3,0.1,0.6,0.2,1,0.3c0,0,0,0,0,0c0,0,0,0,0,0C29.2,54,28.9,53.9,28.6,53.7
				C28.6,53.8,28.6,53.8,28.6,53.7C28.6,53.7,28.6,53.7,28.6,53.7L28.6,53.7z"/>
			<path class="st14" d="M30.3,54.3l1,0.2c0,0,0,0,0,0c0,0,0,0,0,0L30.3,54.3C30.3,54.3,30.3,54.3,30.3,54.3
				C30.3,54.3,30.3,54.3,30.3,54.3L30.3,54.3z"/>
			<polygon class="st14" points="32.1,54.6 32.6,54.7 32.1,54.6 32.1,54.6 32.1,54.6 			"/>
		</g>
		<g>
			<path class="st15" d="M37.3,26.7c0,0-3.2,0.6-3.2,0.6l-0.9,4.7l2.5-2.9l3.7,0.6l6.6-2.8L37.3,26.7z"/>
			<polygon class="st14" points="45.9,27 33.2,32.1 35.7,29.2 			"/>
			<polygon class="st14" points="45.9,27 32.2,25.1 34.1,27.4 45.9,27 35.7,29.2 38.9,33.3 			"/>
		</g>
	</g>
	<g>
		<g>
			<g>
				<rect x="36.8" y="51" class="st16" width="63" height="47.2"/>
			</g>
			<g>
				<defs>
					
						<rect id="SVGID_1_" x="44.6" y="43.1" transform="matrix(-1.836970e-16 1 -1 -1.836970e-16 142.8619 6.356)" width="47.2" height="63"/>
				</defs>
				<clipPath id="SVGID_00000132059712003414864630000004529718108808468406_">
					<use xlink:href="#SVGID_1_"  style="overflow:visible;"/>
				</clipPath>
				<g style="clip-path:url(#SVGID_00000132059712003414864630000004529718108808468406_);">
					<g>
						<g>
							
								<rect x="61.2" y="80.6" transform="matrix(0.7284 -0.6852 0.6852 0.7284 -25.5988 100.3452)" class="st18" width="105" height="3.8"/>
						</g>
						<g>
							<line class="st19" x1="51.9" y1="118.4" x2="128.4" y2="46.5"/>
							
								<rect x="37.6" y="80.6" transform="matrix(0.7284 -0.6852 0.6852 0.7284 -32.0124 84.1663)" class="st6" width="105" height="3.8"/>
						</g>
						<g>
							<line class="st19" x1="28.3" y1="118.4" x2="104.8" y2="46.5"/>
							
								<rect x="14" y="80.6" transform="matrix(0.7284 -0.6852 0.6852 0.7284 -38.4261 67.9873)" class="st20" width="105" height="3.8"/>
						</g>
						<g>
							<line class="st19" x1="4.7" y1="118.4" x2="81.2" y2="46.5"/>
							
								<rect x="-9.6" y="80.6" transform="matrix(0.7284 -0.6852 0.6852 0.7284 -44.8399 51.8089)" class="st6" width="105" height="3.8"/>
						</g>
						<g>
							<line class="st19" x1="-18.9" y1="118.4" x2="57.6" y2="46.5"/>
							
								<rect x="-33.2" y="80.6" transform="matrix(0.7284 -0.6852 0.6852 0.7284 -51.2536 35.6298)" class="st6" width="105" height="3.8"/>
						</g>
					</g>
					<g>
						<g>
							
								<rect x="49.4" y="80.6" transform="matrix(0.7284 -0.6852 0.6852 0.7284 -28.8055 92.2565)" class="st7" width="105" height="3.8"/>
						</g>
						<g>
							
								<rect x="25.8" y="80.6" transform="matrix(0.7284 -0.6852 0.6852 0.7284 -35.2193 76.0775)" class="st7" width="105" height="3.8"/>
						</g>
						<g>
							
								<rect x="2.2" y="80.6" transform="matrix(0.7284 -0.6852 0.6852 0.7284 -41.6329 59.8981)" class="st20" width="105" height="3.8"/>
						</g>
						<g>
							
								<rect x="-21.4" y="80.6" transform="matrix(0.7284 -0.6852 0.6852 0.7284 -48.0465 43.7189)" class="st20" width="105" height="3.8"/>
						</g>
						<g>
							
								<rect x="-45" y="80.6" transform="matrix(0.7284 -0.6852 0.6852 0.7284 -54.4602 27.5398)" class="st20" width="105" height="3.8"/>
						</g>
					</g>
				</g>
			</g>
			<rect x="38.6" y="52.8" class="st21" width="59.4" height="43.6"/>
		</g>
		<g>
			<g>
				<g>
					<g>
						<g>
							<rect x="77" y="84.6" class="st14" width="17.1" height="0.2"/>
						</g>
					</g>
					<g>
						<g>
							<rect x="77" y="88.1" class="st14" width="17.1" height="0.2"/>
						</g>
					</g>
					<g>
						<g>
							<rect x="77" y="91.6" class="st14" width="17.1" height="0.2"/>
						</g>
					</g>
				</g>
			</g>
			<text transform="matrix(1 0 0 1 76.9519 82.7994)" class="st14 st22 st23">To:</text>
			<g>
				<g>
					<g>
						<g>
							<rect x="42.5" y="61.1" class="st14" width="26.1" height="0.2"/>
						</g>
					</g>
					<g>
						<g>
							<rect x="42.5" y="64.7" class="st14" width="26.1" height="0.2"/>
						</g>
					</g>
				</g>
			</g>
			<text transform="matrix(1 0 0 1 42.5027 59.3716)" class="st14 st22 st23">From:</text>
			<g>
				<rect x="42.5" y="87.7" class="st24" width="25" height="4"/>
				<text transform="matrix(1 0 0 1 42.5027 88.5699)"><tspan x="0" y="0" class="st14 st22 st25">Lorem ipsum dolor sit amet, consectes</tspan><tspan x="0" y="1.4" class="st14 st22 st25">adipiscing elit, sed do eiusmod tempor </tspan><tspan x="0" y="2.8" class="st14 st22 st25">incididunt ut labore et dolore mansi.</tspan></text>
			</g>
		</g>
	</g>
	<g>
		<defs>
			<rect id="SVGID_00000164504465181561966300000016580704536786997905_" x="36.6" y="47.3" width="68" height="51"/>
		</defs>
		<clipPath id="SVGID_00000085216613009715766890000017358170866551078076_">
			<use xlink:href="#SVGID_00000164504465181561966300000016580704536786997905_"  style="overflow:visible;"/>
		</clipPath>
		<g style="clip-path:url(#SVGID_00000085216613009715766890000017358170866551078076_);">
			<g>
				<path class="st2" d="M36.2,79.2c0.2-1.1,1.6-2.6,2.3-3.5c0.7-0.9,1.4-1.8,2.2-2.5c0.9-0.7,1.6-1.5,2.1-2.5
					c1.7-2.9,0.5-3.6-0.1-3.8c-0.5-0.2-1.1,0.1-1.7,0.7c-0.5,0.5-2.4,3.2-2.8,2.2c-0.5-1.3,1.9-3.8,2.5-4.7c1-1.5,1.7-3.3,1.5-5
					c-0.1-0.9-0.5-1.8-1.3-2.1c-0.5-0.2-1.1,0-1.5,0.2c-1.4,0.7-2.1,2.2-2.6,3.7c-0.2,0.6-0.6,3.9-1.6,2.6c-0.2-0.3-0.9-4.4-2.9-2.7
					c-0.7,0.6-0.6,2-0.2,4c0.2,1.3,1.7,5.3,0.9,5.9c-0.8,0.6-1.3-2-2.4-0.5c-0.6,0.9-0.1,2.4,0.3,3.4c0.2,0.5,0.5,0.9,0.7,1.3
					c0.2,0.6,0.2,1.5-0.5,1.6c-0.3,0.1-0.7-0.1-1,0c-0.3,0.1-0.5,0.4-0.6,0.7c-0.1,0.3,0,0.7,0.1,1c0.6,2,2.1,3.7,3.9,4.8
					c1.8,1.1,0.8,1.4,2.8,1.9"/>
			</g>
			<g class="st3">
				<path class="st4" d="M40.5,60c0,0-6.1,9.8-5.9,19.6"/>
				<path class="st4" d="M33.1,63.3c0,0,0.8,4.8,2.8,7.3"/>
				<path class="st4" d="M42.3,68.4c-1.1,1.4-4.3,5.2-7.2,5.8"/>
				<path class="st4" d="M31.4,72.5c0,0,0.2,2,3.3,5.5"/>
				<path class="st4" d="M30.6,78.6c0,0,1.5,1.9,3.9,2.5"/>
			</g>
		</g>
	</g>
	<g>
		<path class="st27" d="M66.6,100.2H37.7c-0.2-0.9,0.2-1.9,1-2.3c0.3-0.2,0.7-0.3,1.1-0.3c1.5,0,2.9,0,4.3,0.2v-0.1
			c-1.2-1-2.4-2.2-2.4-3.2c0-0.6,0.1-1.5,0.2-2.4c0.3-1.9,0.9-3.8,0.9-4c-0.2-0.1-0.2-0.2-0.2-0.2s1.6-7.9,7.7-7.8c0,0,0,0,0,0.1
			c0.5-0.3,0.6-1.1,0.6-1.4c-0.3-0.2-0.6-0.5-0.9-1c-0.3,0-0.8-0.1-1-0.4c0,0-1,0-1.1-0.8c-0.1-0.8,0.3-1.3,0.3-1.3
			s-0.8-0.2-0.9-0.8c-0.2-0.8,0.5-1.1,0.5-1.1s-0.8-0.7,0-1.6c0.5-0.5,1.2-0.1,1.2-0.1s-0.2-1,0.9-1.2c1.2-0.2,1.2,0.8,1.2,0.8
			s0-1.4,1.5-1.1c1.1,0.2,1,1.2,1,1.3c0.1-0.2,0.5-1,1.5-0.5c1,0.5,0.5,1.5,0.5,1.5s0.9-0.1,1.1,0.9c0.3,1.4-0.5,1.7-0.5,1.7
			s0.6,0.3,0.5,1.1c-0.1,0.9-1,1.1-1,1.1s-0.5,0.7-1.3,0.6c-0.3,0.4-0.6,0.8-1.1,1c0,0.1,0,0.1,0,0.2c0,0.3,0.1,0.7,0.3,0.9
			c0.1,0.1,0.2,0.2,0.3,0.2c0,0,0,0,0-0.1c6-0.1,7.9,7.9,7.9,7.9s-0.1,0-0.1,0.1c0,0,0.6,2,0.9,4c0,0,0,0,0,0v0
			c0.1,0.9,0.2,1.7,0.2,2.4c0,0,0,0,0,0c0,0.1,0,0.2-0.1,0.3c0,0,0,0.1,0,0.1c0,0.1-0.1,0.2-0.1,0.3c0,0,0,0.1-0.1,0.1
			c-0.1,0.1-0.1,0.2-0.2,0.4c0,0,0,0.1-0.1,0.1c-0.1,0.1-0.2,0.2-0.2,0.3c0,0-0.1,0.1-0.1,0.1c-0.1,0.1-0.2,0.2-0.3,0.3
			c0,0-0.1,0.1-0.1,0.1c-0.1,0.1-0.2,0.2-0.4,0.4c0,0-0.1,0.1-0.1,0.1c-0.1,0.1-0.2,0.2-0.3,0.2c-0.1,0-0.1,0.1-0.2,0.1
			c-0.1,0.1-0.2,0.1-0.3,0.2c0,0-0.1,0.1-0.1,0.1c1.4-0.2,2.9-0.3,4.4-0.2c0.4,0,0.7,0.1,1,0.3C66.3,98.4,66.8,99.3,66.6,100.2z"/>
		<g>
			<path class="st28" d="M70.2,103.9c0,0.7-7.6,1.2-16.9,1.2c-9.3,0-16.9-0.5-16.9-1.2c0-0.7,7.6-1.2,16.9-1.2
				C62.6,102.7,70.2,103.2,70.2,103.9z"/>
			<path class="st20" d="M52.1,77.7c0,0-0.8,0.1-1.1-0.4c0,0-1,0-1.1-0.8c-0.1-0.8,0.3-1.2,0.3-1.2s-0.7-0.2-0.9-0.8
				c-0.2-0.8,0.5-1.1,0.5-1.1s-0.8-0.7,0-1.5c0.5-0.5,1.1-0.1,1.1-0.1s-0.2-1,0.8-1.2c1.1-0.2,1.2,0.8,1.2,0.8s0-1.4,1.5-1.1
				c1.2,0.3,1,1.3,1,1.3s0.4-1.1,1.5-0.5c0.9,0.5,0.5,1.5,0.5,1.5s0.8-0.1,1,0.8c0.3,1.3-0.5,1.6-0.5,1.6s0.6,0.3,0.5,1
				c-0.1,0.9-1,1.1-1,1.1s-0.5,0.8-1.4,0.6"/>
			<path class="st29" d="M55.9,80c0,0-0.1,1.8-1.8,1.8c-0.4,0-0.7-0.1-0.9-0.2c-0.9-0.5-1.2-1.4-1.2-1.4c0.8-0.2,0.8-1.7,0.8-1.7
				l2.2,0.1c0,0,0,0.2,0,0.4c0,0.3,0.1,0.7,0.3,0.9C55.7,80.2,55.9,80,55.9,80z"/>
			<path class="st30" d="M53.3,79.1c0,0-0.6,0.8-0.5,1.4c0.2,0.5,0.6,1,1,1l-0.6,0.1c-0.9-0.5-1.2-1.4-1.2-1.4
				c0.8-0.2,0.8-1.7,0.8-1.7l2.2,0.1c0,0,0,0.2,0,0.4C54.7,79.1,54.1,79.4,53.3,79.1z"/>
			<path d="M52.2,80c0,0,0.6,1.5,1.8,1.5c1.2,0,1.5-0.8,1.7-1.6c5.9-0.1,7.7,7.7,7.7,7.7s-0.6,0.3-1.3,0.5c-0.7,0.2-1.2,0.5-1.2,0.5
				l-0.8,10.8H47.6l-0.2-10.8c0,0-0.8-0.2-1.5-0.4c-1-0.3-1.3-0.6-1.3-0.6S46.2,79.9,52.2,80z"/>
			<path class="st31" d="M44.8,87.7c0,0-1.2,4.2-1.1,6.2c0.1,2,4.9,4.8,4.9,4.8l0.6-2.1c0,0-2-0.8-2.3-2.4c-0.3-1.5,0.9-5.5,0.9-5.5
				s-0.3-0.1-1.3-0.4C45.6,88.1,44.8,87.7,44.8,87.7z"/>
			<path class="st30" d="M49.2,96.6L48.8,98l-0.2,0.7c0,0-4.7-2.8-4.9-4.8c-0.1-2,1.1-6.2,1.1-6.2s0.3,0.1,0.7,0.3
				c0.3,0.1,0.7,0.3,1.1,0.4c1,0.3,1.3,0.4,1.3,0.4s-1.2,4-0.9,5.5C47.3,95.8,49.2,96.6,49.2,96.6z"/>
			<path class="st29" d="M49.2,96.6L48.8,98c-1.3-0.9-4.1-2.9-4.2-4.4c-0.1-1.5,0.6-4.3,0.9-5.6c0.3,0.1,0.7,0.3,1.1,0.4
				c1,0.3,1.3,0.4,1.3,0.4s-1.2,4-0.9,5.5C47.3,95.8,49.2,96.6,49.2,96.6z"/>
			<path class="st31" d="M63.2,87.7c0,0,1.2,4.2,1.1,6.2c-0.1,2-4.9,4.8-4.9,4.8l-0.6-2.1c0,0,2-0.8,2.3-2.4
				c0.3-1.5-1.1-5.5-1.1-5.5s0.4-0.1,1.4-0.4C62.4,88,63.2,87.7,63.2,87.7z"/>
			<path class="st30" d="M64.2,93.9c-0.1,1.5-2.7,3.4-4,4.3c-0.5,0.3-0.8,0.5-0.8,0.5l-0.6-2.1c0,0,0.4-0.2,0.8-0.5c0,0,0,0,0,0
				c0,0,0,0,0,0c0.6-0.4,1.2-1,1.4-1.9c0.3-1.5-1.1-5.5-1.1-5.5s0.3-0.1,0.9-0.3c0.1,0,0.3-0.1,0.5-0.1c1-0.3,1.8-0.6,1.8-0.6
				S64.3,91.9,64.2,93.9z"/>
			<path class="st29" d="M64.2,93.9c-0.1,1.5-2.7,3.4-4,4.3l-0.6-2.1l0,0c0,0,0,0,0,0c0,0,0,0,0,0c0.3-0.1,1.9-1,2.2-2.3
				c0.2-1.3-0.7-4.4-1-5.3c0.1,0,0.3-0.1,0.5-0.1c1-0.3,1.8-0.6,1.8-0.6S64.3,91.9,64.2,93.9z"/>
			<path class="st20" d="M61.6,99.6H46.2l-0.3-9.6c0-0.2,0.2-0.5,0.4-0.5h15.2c0.3,0,0.5,0.2,0.4,0.5L61.6,99.6z"/>
			<g>
				<path class="st20" d="M61.4,102.2c0,0,0.3-0.3,0.9-0.3c0.4,0,1.5,0.2,2.1,0.2c0.5,0,1.1-0.1,1.4,0.3c0.5,0.8,0.3,1.5-0.6,1.6
					c-0.5,0.1-0.9-0.3-1.7-0.2c-0.7,0.1-1.9-0.2-2.2-0.7"/>
				<path class="st30" d="M60.4,101.8c0,0,0.6,0.2,1,0.2c0.4,0,1.3-0.1,1.7,0.2c0.4,0.3,0.3,1,0,1.2c-0.4,0.3-0.8,0.1-1.6-0.1
					c-0.8-0.3-1.8-0.2-1.8-0.2"/>
				<path class="st7" d="M41.9,96.8c-1.4,0-2.4,1.3-2,2.6c0,0,0,0,0,0.1c0.6,2,3.2,3,6.2,3.4c3,0.4,14.4,0.6,14.4,0.6
					s0.5-0.6,0.3-2.1c0,0-2.7-0.6-6.3-2C50.2,97.7,46.4,96.7,41.9,96.8z"/>
				<path class="st20" d="M63.3,102.3c0,0-0.3-0.2-0.4,0c-0.1,0.2-0.2,1-0.1,1.1c0.1,0.2,0.5,0.1,0.5,0.1l0.4-1L63.3,102.3z"/>
			</g>
			<g>
				<path class="st20" d="M46.5,102.2c0,0-0.3-0.3-0.9-0.3c-0.4,0-1.6,0.2-2.1,0.2c-0.6,0-1.1-0.1-1.5,0.2c-0.7,0.7,0,1.6,0.9,1.7
					c0.5,0.1,0.6-0.2,1.4-0.1c0.8,0.1,2-0.2,2.3-0.7"/>
				<path class="st30" d="M47.6,101.8c0,0-0.6,0.2-1,0.2c-0.4,0-1.3-0.1-1.7,0.2c-0.4,0.3-0.3,1,0,1.2c0.5,0.3,0.8,0.1,1.7-0.1
					c0.8-0.3,1.8-0.2,1.8-0.2"/>
				<path class="st7" d="M66,96.9c1.4,0,2.4,1.3,2,2.6c0,0,0,0,0,0.1c-0.6,2-3.2,3-6.2,3.4c-3,0.4-14.4,0.6-14.4,0.6
					s-0.5-0.6-0.3-2.1c0,0,2.7-0.6,6.3-2C57.7,97.7,61.6,96.7,66,96.9z"/>
				<g>
					<path d="M47,101.4c2.2-0.8,4.6-1.7,6.9-2.2C51.8,100.4,49.5,101.2,47,101.4L47,101.4z"/>
				</g>
				<path class="st20" d="M44.5,102.3c0,0,0.3-0.2,0.4,0c0.1,0.2,0.2,1,0.1,1.1c-0.1,0.2-0.6,0.1-0.6,0.1l-0.4-1L44.5,102.3z"/>
			</g>
			<path class="st30" d="M54.4,78.9C54.4,78.9,54.3,78.9,54.4,78.9c-0.2,0-0.4,0-0.6,0c0,0-2.8,0.4-2.5-5.2h5.3
				C56.6,73.7,57.2,78.6,54.4,78.9z"/>
			<path class="st29" d="M54.4,78.9C54.4,78.9,54.3,78.9,54.4,78.9c-0.3,0-2.8,0-2.5-5.2h4.7C56.6,73.7,57.2,78.6,54.4,78.9z"/>
			<path class="st20" d="M51,75.5c0,0,0.6,0.1,0.7-0.4c0,0,0.9-0.1,0.9-0.9c0,0,0.8,0.3,1.2-0.3c0,0,0.2,0.5,0.7,0.5
				c0.5,0,0.6-0.3,0.6-0.3s0,0.7,0.8,0.8c0.7,0.1,0.9-0.7,0.9-0.7l-0.2-1.1l-2-0.3l-2.9,0.3l-1.1,0.1L51,75.5z"/>
			<path class="st9" d="M54.8,94.2c0,0.5-0.4,1-1,1c-0.5,0-1-0.4-1-1c0-0.5,0.4-1,1-1C54.4,93.2,54.8,93.7,54.8,94.2z"/>
		</g>
	</g>
	<g>
		<g>
			<path class="st32" d="M154.1,50.1c0.9-2.1,2.4-3.8,4.4-5C157.6,47.2,156.1,48.9,154.1,50.1L154.1,50.1z"/>
		</g>
		<g>
			<path class="st32" d="M154.4,45.6c-0.4-1-0.1-1.8,0.8-2.4C155.6,44.2,155.3,45.1,154.4,45.6L154.4,45.6z"/>
		</g>
		<g>
			<path class="st32" d="M153.1,49.5c-0.4-1.1-0.1-2,0.9-2.6C154.3,48,154,48.9,153.1,49.5L153.1,49.5z"/>
		</g>
		<g>
			<path class="st32" d="M159.1,49.9c0.4-0.9,1.2-1.3,2.1-1C160.9,49.9,160.1,50.2,159.1,49.9L159.1,49.9z"/>
		</g>
		<g>
			<path class="st32" d="M155.5,51.7c0.5-0.9,1.3-1.3,2.3-1.1C157.3,51.5,156.5,51.9,155.5,51.7L155.5,51.7z"/>
		</g>
		<g>
			<path class="st32" d="M156.2,53.2c2.2-0.6,4.5-0.6,6.7,0.1C160.6,53.9,158.4,53.9,156.2,53.2L156.2,53.2z"/>
		</g>
	</g>
	<g>
		<g>
			<path class="st5" d="M137.2,85c-0.6,2.5,0.7,4.9,2.7,6.3c1,0.7,2.1,1.1,3.3,1.5c1.2,0.4,2.6,0.7,3.9,0.7c2.4,0,5-1.7,4.8-4.4
				c-0.2-2.2-2.3-3.7-4.5-3.7c-2.3,0-4.2,1.7-5.4,3.6c-1.3,2.1-2.4,4.5-2.7,7c-0.3,2.3,0.3,4.8,2,6.5c1.7,1.7,4.3,2.3,6.6,2.3
				c1.4,0,2.8-0.2,4.2-0.6c1.4-0.4,2.6-1.1,3.9-1.8c1.1-0.6,2.2-1.1,3.4-1.3c0.9-0.1,1.9,0,2.6,0.5c0.6,0.5,1.5,0.6,2.1,0
				c0.5-0.5,0.6-1.6,0-2.1c-1.6-1.3-3.6-1.6-5.6-1.3c-2,0.3-3.8,1.4-5.5,2.3c-1.8,0.9-3.7,1.3-5.7,1.2c-1.5-0.1-3.2-0.5-4.2-1.7
				c-2.3-2.9-0.1-7.3,1.7-9.9c0.4-0.6,0.9-1.1,1.5-1.5c0.3-0.2,0.6-0.3,0.8-0.3c0.2,0,0.6,0,0.7,0.1c0.1,0,0.5,0.2,0.3,0.1
				c0.1,0.1,0.3,0.1,0.4,0.2c-0.2-0.1,0.2,0.1,0.2,0.2c0.1,0.1,0,0,0,0c0.1,0.1,0.1,0.2,0.1,0.2c-0.1-0.3,0.1,0.3,0,0.1
				c0,0,0,0.1,0,0.2c0,0.2,0,0.1-0.1,0.3c0,0-0.2,0.3-0.3,0.4c-0.6,0.4-1.6,0.4-2.4,0.3c-1-0.2-2.1-0.5-3.1-0.9
				c-1.5-0.6-3.3-2.1-2.8-3.8C140.6,84,137.7,83.2,137.2,85L137.2,85z"/>
		</g>
	</g>
	<g>
		<path class="st33" d="M93,51v47.2H80.5c-0.1-0.6-0.1-1.3,0-2l5.7-40.4c0.2-1.7,0.8-3.4,1.8-4.8H93z"/>
		<path class="st6" d="M143.7,103.6c-1.7,2.5-5.1,2.5-6.6,2.5l-48.5-2.8c-1.5,0-4.6,0.8-5.4-0.4c-0.9-1.4-1-4.5-0.7-6.6l5.7-40.4
			c0.4-2.7,1.6-5.2,3.5-7.1l5-4.7l6,4.8L127,47l2.6-2.7l4.6,3.3c2.5,1.9,4.4,4.6,4.9,7.7c0,0.2,0.1,0.3,0.1,0.5l5.7,40.4
			C145.4,98.8,144.8,101.8,143.7,103.6z"/>
		<path class="st7" d="M141,104.6c-1.1,1-2.5,1.5-3.9,1.5H88.5c-1.4,0-2.8-0.5-3.9-1.5c-1.6-1.4-2.3-3.5-2-5.6L88,58.6
			c0.4-2.7,1.6-5.2,3.4-7.1l4.4-4.5h6.5l0.1-3.5l19.4,0.3l1.5,3.2h6.5l4.3,3.9c0.2,0.2,0.3,0.3,0.5,0.5c1.7,1.9,2.7,4.7,3,7.3
			l5.5,40.4C143.4,101.1,142.6,103.2,141,104.6z"/>
		<path class="st6" d="M141,104.6c-1.1,1-2.5,1.5-3.9,1.5H88.5c-1.4,0-2.8-0.5-3.9-1.5c-1.6-1.4-2.3-3.5-2-5.6l0.1-0.8
			c0.3,1.3,1,2.4,1.9,3.3c1.1,1,2.5,1.5,3.9,1.5h48.6c1.4,0,2.8-0.5,3.9-1.5c1-0.9,1.7-2,1.9-3.3l0.1,0.8
			C143.4,101.1,142.6,103.2,141,104.6z"/>
		<path class="st32" d="M96.2,47l0.4-5.7c0.1-0.8,0.7-1.3,1.4-1.3h2.5c0.8,0,1.4,0.6,1.4,1.3l0.4,5.7H96.2z"/>
		<path class="st32" d="M123.6,47l0.4-5.7c0.1-0.8,0.7-1.3,1.4-1.3h2.5c0.8,0,1.4,0.6,1.4,1.3l0.4,5.7H123.6z"/>
		<polygon class="st6" points="123.8,47 102.2,47 102.1,43.5 123.8,43.5 		"/>
		<circle class="st32" cx="113.7" cy="74.2" r="6.3"/>
		<circle class="st34" cx="113.7" cy="74.2" r="7"/>
		<g>
			<g>
				<g>
					<path class="st9" d="M110.8,63.3c0.7,0.3,1.1,1.1,0.8,1.8c-0.3,0.7-1.1,1.1-1.8,0.8c-0.7-0.3-1.1-1.1-0.8-1.8
						C109.3,63.3,110.1,63,110.8,63.3z"/>
					<path class="st32" d="M110.5,64.1c0.2,0.1,0.3,0.3,0.3,0.6c-0.1,0.2-0.3,0.3-0.6,0.3c-0.2-0.1-0.3-0.3-0.3-0.6
						C110,64.2,110.3,64,110.5,64.1z"/>
					<path class="st35" d="M111.6,63.9c0.2,0.3,0.2,0.7,0,1.1c-0.3,0.7-1.1,1.1-1.8,0.8c-0.4-0.1-0.6-0.4-0.8-0.8
						c0.1,0.3,0.4,0.5,0.7,0.7c0.7,0.3,1.5-0.1,1.8-0.8C111.7,64.6,111.7,64.2,111.6,63.9z"/>
				</g>
				<g>
					<path class="st9" d="M105.8,66.1c0.7-0.1,1.4,0.4,1.6,1.1c0.1,0.7-0.4,1.4-1.1,1.6c-0.7,0.1-1.4-0.4-1.6-1.1
						C104.6,67,105.1,66.2,105.8,66.1z"/>
					<path class="st32" d="M106,67c0.2,0,0.5,0.1,0.5,0.4c0,0.2-0.1,0.5-0.4,0.5c-0.2,0-0.5-0.1-0.5-0.4
						C105.5,67.3,105.7,67.1,106,67z"/>
					<path class="st35" d="M106.8,66.3c0.3,0.2,0.5,0.5,0.6,0.9c0.1,0.7-0.4,1.4-1.1,1.6c-0.4,0.1-0.8,0-1.1-0.3
						c0.3,0.2,0.6,0.3,1,0.2c0.7-0.1,1.3-0.8,1.1-1.6C107.2,66.8,107,66.6,106.8,66.3z"/>
				</g>
				<g>
					<path class="st9" d="M103.9,70.8c0.8,0.1,1.3,0.7,1.2,1.5c-0.1,0.8-0.7,1.3-1.5,1.2c-0.8-0.1-1.3-0.7-1.2-1.5
						C102.5,71.3,103.1,70.7,103.9,70.8z"/>
					<path class="st32" d="M103.8,71.7c0.2,0,0.4,0.2,0.4,0.5c0,0.2-0.2,0.4-0.5,0.4c-0.2,0-0.4-0.2-0.4-0.5
						C103.4,71.9,103.6,71.7,103.8,71.7z"/>
					<path class="st35" d="M104.8,71.3c0.2,0.3,0.4,0.6,0.3,1c-0.1,0.8-0.7,1.3-1.5,1.2c-0.4,0-0.7-0.2-1-0.5
						c0.2,0.2,0.5,0.4,0.9,0.4c0.8,0.1,1.4-0.5,1.5-1.2C105.1,71.9,105,71.5,104.8,71.3z"/>
				</g>
				<g>
					<path class="st9" d="M104.2,76c0.8,0,1.3,0.7,1.3,1.4c0,0.8-0.7,1.3-1.4,1.3c-0.8,0-1.3-0.7-1.3-1.4
						C102.8,76.5,103.5,76,104.2,76z"/>
					<path class="st32" d="M104.2,76.9c0.2,0,0.4,0.2,0.4,0.5c0,0.2-0.2,0.4-0.5,0.4c-0.2,0-0.4-0.2-0.4-0.5
						C103.7,77.1,103.9,76.9,104.2,76.9z"/>
					<path class="st35" d="M105.1,76.4c0.3,0.3,0.4,0.6,0.4,1c0,0.8-0.7,1.3-1.4,1.3c-0.4,0-0.7-0.2-1-0.5c0.2,0.2,0.5,0.4,0.9,0.4
						c0.8,0,1.4-0.5,1.4-1.3C105.5,77,105.3,76.7,105.1,76.4z"/>
				</g>
				<g>
					<path class="st9" d="M107,80.3c0.8,0,1.4,0.5,1.4,1.3c0,0.8-0.5,1.4-1.3,1.4c-0.8,0-1.4-0.5-1.4-1.3
						C105.7,81,106.3,80.4,107,80.3z"/>
					<path class="st32" d="M107.1,81.2c0.2,0,0.5,0.2,0.5,0.4c0,0.2-0.2,0.5-0.4,0.5c-0.2,0-0.5-0.2-0.5-0.4
						C106.6,81.5,106.8,81.2,107.1,81.2z"/>
					<path class="st35" d="M108,80.6c0.3,0.2,0.5,0.6,0.5,1c0,0.8-0.5,1.4-1.3,1.4c-0.4,0-0.8-0.1-1-0.4c0.3,0.2,0.6,0.3,0.9,0.3
						c0.8,0,1.3-0.7,1.3-1.4C108.4,81.2,108.2,80.9,108,80.6z"/>
				</g>
				<g>
					
						<ellipse transform="matrix(0.9247 -0.3806 0.3806 0.9247 -23.5315 48.8673)" class="st9" cx="111.8" cy="83.9" rx="1.4" ry="1.4"/>
					<path class="st32" d="M111.7,83.5c0.2,0,0.5,0.1,0.5,0.4s-0.1,0.5-0.4,0.5c-0.2,0-0.5-0.1-0.5-0.4
						C111.3,83.8,111.5,83.5,111.7,83.5z"/>
					<path class="st35" d="M112.6,82.8c0.3,0.2,0.5,0.5,0.6,0.9c0.1,0.7-0.4,1.4-1.1,1.6c-0.4,0.1-0.8,0-1.1-0.3
						c0.3,0.2,0.6,0.3,1,0.2c0.7-0.1,1.3-0.8,1.1-1.6C113,83.3,112.8,83,112.6,82.8z"/>
				</g>
				<g>
					<path class="st9" d="M116.4,82.3c0.7-0.3,1.5,0,1.8,0.6c0.3,0.7,0,1.5-0.6,1.8c-0.7,0.3-1.5,0-1.8-0.6
						C115.4,83.5,115.7,82.6,116.4,82.3z"/>
					<path class="st32" d="M116.8,83.1c0.2-0.1,0.5,0,0.6,0.2c0.1,0.2,0,0.5-0.2,0.6c-0.2,0.1-0.5,0-0.6-0.2
						C116.5,83.5,116.6,83.2,116.8,83.1z"/>
					<path class="st35" d="M117.4,82.2c0.3,0.1,0.7,0.4,0.8,0.7c0.3,0.7,0,1.5-0.6,1.8c-0.4,0.2-0.8,0.2-1.1,0
						c0.3,0.1,0.7,0.1,1-0.1c0.7-0.3,1-1.1,0.6-1.8C118,82.6,117.7,82.4,117.4,82.2z"/>
				</g>
				<g>
					<path class="st9" d="M121.3,79.2c0.8,0,1.3,0.7,1.3,1.4c0,0.8-0.7,1.3-1.4,1.3c-0.8,0-1.3-0.7-1.3-1.4
						C119.9,79.8,120.6,79.2,121.3,79.2z"/>
					<circle class="st32" cx="121.3" cy="80.6" r="0.4"/>
					<path class="st35" d="M122.3,79.6c0.3,0.3,0.4,0.6,0.4,1c0,0.8-0.7,1.3-1.4,1.3c-0.4,0-0.8-0.2-1-0.5c0.2,0.2,0.6,0.4,0.9,0.4
						c0.8,0,1.4-0.6,1.4-1.3C122.6,80.2,122.5,79.9,122.3,79.6z"/>
				</g>
				<g>
					<path class="st9" d="M123.6,74.5c0.8,0,1.3,0.7,1.3,1.4c0,0.8-0.7,1.3-1.4,1.3c-0.8,0-1.3-0.7-1.3-1.4
						C122.2,75.1,122.9,74.5,123.6,74.5z"/>
					<path class="st32" d="M123.6,75.5c0.2,0,0.4,0.2,0.4,0.5c0,0.2-0.2,0.4-0.5,0.4c-0.2,0-0.4-0.2-0.4-0.5
						C123.1,75.6,123.3,75.5,123.6,75.5z"/>
					<path class="st35" d="M124.5,74.9c0.3,0.3,0.4,0.6,0.4,1c0,0.8-0.7,1.3-1.4,1.3c-0.4,0-0.8-0.2-1-0.5c0.2,0.2,0.6,0.4,0.9,0.4
						c0.8,0,1.4-0.6,1.4-1.3C124.9,75.5,124.7,75.2,124.5,74.9z"/>
				</g>
				<g>
					<path class="st9" d="M122.9,69.4c0.7-0.1,1.4,0.4,1.6,1.1s-0.4,1.4-1.1,1.6c-0.7,0.1-1.4-0.4-1.6-1.1S122.2,69.5,122.9,69.4z"
						/>
					<path class="st32" d="M123.1,70.3c0.2,0,0.5,0.1,0.5,0.4c0,0.2-0.1,0.5-0.4,0.5c-0.2,0-0.5-0.1-0.5-0.4
						C122.7,70.5,122.8,70.3,123.1,70.3z"/>
					<path class="st35" d="M123.9,69.6c0.3,0.2,0.5,0.5,0.6,0.9c0.1,0.7-0.4,1.4-1.1,1.6c-0.4,0.1-0.8-0.1-1.1-0.3
						c0.3,0.2,0.6,0.3,1,0.2c0.7-0.1,1.3-0.8,1.1-1.6C124.4,70.1,124.2,69.8,123.9,69.6z"/>
				</g>
			</g>
			
				<ellipse transform="matrix(0.7071 -0.7071 0.7071 0.7071 -19.2036 102.112)" class="st36" cx="113.7" cy="74.2" rx="12.8" ry="12.8"/>
			<g>
				<path class="st32" d="M128.2,68.3c0-0.3,0.2-0.5,0.5-0.5c0.3,0,0.5,0.2,0.5,0.5v1.1c0,0.3-0.2,0.5-0.5,0.5
					c-0.3,0-0.5-0.2-0.5-0.5V68.3z M128.4,69.4c0,0.2,0.1,0.3,0.2,0.3c0.2,0,0.2-0.1,0.2-0.3v-1.1c0-0.2-0.1-0.3-0.2-0.3
					c-0.2,0-0.2,0.1-0.2,0.3V69.4z"/>
				<path class="st32" d="M108,58.6c-0.1,0-0.2,0.1-0.3,0.1v-0.2c0.2,0,0.3-0.1,0.4-0.3h0.2v2.1H108V58.6z"/>
				<path class="st32" d="M102.4,62.8c0,0.6-0.7,0.8-0.7,1.3v0h0.7v0.2h-0.9v-0.2c0-0.7,0.7-0.8,0.7-1.4c0-0.2-0.1-0.3-0.2-0.3
					c-0.2,0-0.2,0.1-0.2,0.3V63h-0.2v-0.2c0-0.3,0.1-0.5,0.5-0.5C102.3,62.3,102.4,62.5,102.4,62.8z"/>
				<path class="st32" d="M98.2,70.9L98.2,70.9c0,0.3-0.1,0.4-0.3,0.5c0.2,0.1,0.3,0.2,0.3,0.4v0.2c0,0.3-0.1,0.5-0.5,0.5
					c-0.3,0-0.5-0.2-0.5-0.5v-0.1h0.2v0.2c0,0.2,0.1,0.3,0.2,0.3c0.2,0,0.2-0.1,0.2-0.3v-0.2c0-0.2-0.1-0.3-0.3-0.3h-0.1v-0.2h0.1
					c0.2,0,0.2-0.1,0.2-0.3v-0.1c0-0.2-0.1-0.3-0.2-0.3c-0.2,0-0.2,0.1-0.2,0.3V71h-0.2v-0.1c0-0.3,0.1-0.5,0.5-0.5
					C98,70.3,98.2,70.5,98.2,70.9z"/>
				<path class="st32" d="M98.7,80v0.4h-0.2V80h-0.7v-0.2l0.6-1.4h0.3v1.4h0.2V80H98.7z M98,79.8h0.5v-1L98,79.8z"/>
				<path class="st32" d="M103.5,86.1c0.1-0.1,0.2-0.2,0.3-0.2c0.3,0,0.4,0.2,0.4,0.5v0.4c0,0.3-0.2,0.5-0.5,0.5s-0.5-0.2-0.5-0.5
					v-0.1h0.2v0.2c0,0.2,0.1,0.3,0.2,0.3c0.2,0,0.2-0.1,0.2-0.3v-0.4c0-0.2-0.1-0.3-0.2-0.3c-0.1,0-0.2,0.1-0.2,0.2v0h-0.2l0.1-1.2
					h0.8v0.2h-0.6L103.5,86.1z"/>
				<path class="st32" d="M111.6,89.3L111.6,89.3l-0.2,0v-0.1c0-0.2-0.1-0.3-0.2-0.3c-0.2,0-0.3,0.1-0.3,0.3v0.5
					c0.1-0.1,0.2-0.2,0.3-0.2c0.3,0,0.4,0.2,0.4,0.5v0.3c0,0.3-0.2,0.5-0.5,0.5c-0.3,0-0.5-0.2-0.5-0.5v-1.1c0-0.3,0.1-0.5,0.5-0.5
					C111.4,88.8,111.6,89,111.6,89.3z M110.8,90.1v0.3c0,0.2,0.1,0.3,0.2,0.3c0.2,0,0.2-0.1,0.2-0.3v-0.3c0-0.2-0.1-0.3-0.2-0.3
					C110.9,89.8,110.8,89.9,110.8,90.1z"/>
				<path class="st32" d="M119.7,88.2H119V88h0.9v0.2l-0.5,1.9h-0.2L119.7,88.2z"/>
				<path class="st32" d="M126.9,83.1L126.9,83.1c0,0.3-0.1,0.4-0.2,0.5c0.2,0.1,0.2,0.2,0.2,0.4v0.2c0,0.3-0.2,0.5-0.5,0.5
					c-0.3,0-0.5-0.2-0.5-0.5v-0.2c0-0.2,0.1-0.4,0.2-0.4c-0.2-0.1-0.2-0.2-0.2-0.4v-0.1c0-0.3,0.2-0.5,0.5-0.5
					C126.7,82.6,126.9,82.8,126.9,83.1z M126.2,83.1v0.1c0,0.2,0.1,0.3,0.3,0.3c0.2,0,0.3-0.1,0.3-0.3v-0.1c0-0.2-0.1-0.3-0.3-0.3
					C126.3,82.8,126.2,82.9,126.2,83.1z M126.2,84v0.2c0,0.2,0.1,0.3,0.3,0.3c0.2,0,0.3-0.1,0.3-0.3V84c0-0.2-0.1-0.3-0.3-0.3
					C126.2,83.7,126.2,83.8,126.2,84z"/>
				<path class="st32" d="M130.1,75.9V77c0,0.3-0.1,0.5-0.5,0.5c-0.3,0-0.5-0.2-0.5-0.5v0h0.2V77c0,0.2,0.1,0.3,0.2,0.3
					c0.2,0,0.3-0.1,0.3-0.3v-0.5c-0.1,0.1-0.2,0.2-0.3,0.2c-0.3,0-0.4-0.2-0.4-0.5v-0.3c0-0.3,0.2-0.5,0.5-0.5
					C129.9,75.4,130.1,75.6,130.1,75.9z M129.4,75.9v0.3c0,0.2,0.1,0.3,0.2,0.3c0.2,0,0.2-0.1,0.2-0.3v-0.3c0-0.2-0.1-0.3-0.2-0.3
					C129.4,75.6,129.4,75.7,129.4,75.9z"/>
			</g>
		</g>
	</g>
	<g>
		<g>
			<path class="st37" d="M121.1,43.6l-0.4,2.5c0,0-2.7,1-3.3,1c-0.6,0-3.3,0.4-3.3,0.4s0.4,2,0.1,3.2c-0.2,1.2-2.3,10.3-2.3,10.3
				l-0.4,0.3v0.9c0,0,0.3,0.2,0.4,0.6C112,63.1,112,64,112,64s-0.6,0.1-1.3,0.2c-0.2,0-0.4-0.4-0.7-0.4c-1.5,0.2-3.4,0.9-3.4,0.7
				c0-0.3,0.4-0.7,0.4-0.7l2.2-0.4l0.5-16c0,0-2.2,0.2-2.3,0.5c-0.1,0.3,0.1,2,0.1,2.8c0,0.7-0.9,9.3-0.9,9.3s-0.4,0.1-0.4,0.1
				c0,0.1-0.2,0.3-0.1,0.6c0.1,0.5,0.5,1.1,0.4,1.3c-0.2,0.4-1.1,0.4-1.1,0.4l-0.6-3.1l-0.3-6.6l-0.4-4.1l0.7-3.4l5.2-1.2l10.6-0.7"
				/>
			<g>
				<g>
					<path class="st38" d="M104.3,59.9c0,0,0,1,0,1.4c0.1,0.4,1.2,0.3,1.4,0.1c0.1-0.2,0-1.9,0-1.9"/>
					<path class="st16" d="M106,61.8c0,0.4,0,1.1,0,1.1l-1.2,0.2l-0.1-0.2c0,0-0.3,0.3-0.7,0.4c-0.3,0.1-0.9,0.1-1.1,0.1
						c-1-0.1-1.7-0.4-1.7-0.6c-0.1-0.6,2.8-1.1,2.9-1.5c0.1-0.3,0.1-0.3,0.2-0.3c0,0,0.1,0,0.2,0.2c0.2,0.3,0.4,0.4,0.7,0.4
						c0.2,0,0.3-0.1,0.5-0.2C105.7,61.3,105.9,61.4,106,61.8z"/>
				</g>
				<g>
					<g>
						<path class="st20" d="M114.6,46.1c-1.8,0-6.6,0.7-8.4,0.9c0.1,0.8,0.5,1.8,0.5,2.8c0.1,3.4-0.4,7.7-0.8,10.5
							c0,0-0.7,0.8-1.8,0c-0.8-4.6-2-14-1.5-15.8c0.5-2.4,7.8-4.3,12.3-3.9"/>
					</g>
				</g>
				<g class="st39">
					<path class="st40" d="M115,40.5c-3.2-0.2-7.7,0.6-10.3,2c0.5,0.3,1.1,0.6,1.5,1c0.5,0.5,0.9,1.1,0.9,1.8c0,0.6,0,1.1-0.2,1.7
						c2.1-0.2,6.2-0.8,7.8-0.8L115,40.5z"/>
				</g>
				<g>
					<path class="st38" d="M108.7,61.3c0,0,0,1,0.1,1.4c0.1,0.4,1.2,0.2,1.4,0c0.1-0.2,0-1.9,0-1.9"/>
					<path class="st16" d="M110.5,63.1c0,0.4,0,1.1,0,1.1l-1.2,0.3l-0.2-0.2c0,0-0.3,0.3-0.7,0.4c-0.3,0.1-0.8,0.1-1.1,0.1
						c-1-0.1-1.7-0.4-1.7-0.5c-0.1-0.6,2.7-1.2,2.9-1.6c0.1-0.3,0-0.4,0.2-0.3c0,0,0.1,0,0.3,0.2c0.2,0.2,0.5,0.4,0.8,0.3
						c0.2,0,0.3-0.1,0.5-0.3C110.2,62.7,110.5,62.7,110.5,63.1z"/>
				</g>
				<g>
					<path class="st20" d="M121.7,40.7c0.5,1.1,0.8,3.1,0.3,3.9c-0.4,0.7-0.6,1.2-1.3,1.4c-3,1-5.6,0.8-9.1,0.6
						c1.4,3.8-0.8,11.5-1.1,15c-1.3,0.6-2,0-2,0c0.1-7-1.4-16.9-0.5-18.5c0.6-1,7.5-2.4,7.6-2.4"/>
				</g>
			</g>
			<g>
				<path class="st38" d="M97.4,31.2l-0.8,0c-0.1,0-0.3,0-0.4,0.1c-0.1,0.1-0.4,0.2-0.7,0.2c-0.6,0.2-1.2,0-1.6-0.1
					c-0.4-0.1-0.1-0.4,0.5-0.5c0.6,0,0.3,0.1,0.5-0.1c0.3-0.2-0.3-0.4-0.7-0.6c-0.4-0.1-0.4-0.2-0.8-0.4c-0.4-0.2-0.8-0.3-1-0.5
					c-0.2-0.1-0.3-0.3-0.1-0.3c0.2,0,1.4,0.3,1.6,0.3c0.3,0,0.4-0.4,1.1-0.4c0.7,0,1.4,0.7,1.7,0.9c0.3,0.2,1.5,0.1,1.5,0.1"/>
				<path class="st14" d="M113.9,24.4c0,0-1.6,0-2.6,0.7c-0.6,0.4-5.5,3.6-6.1,4c-0.6,0.3-8.2,0.8-8.2,0.8s-0.4,0.4-0.4,0.9
					c0,0.5,0.2,1,0.2,1s7.5,0.7,9.1,0.4c1.6-0.3,7.9-3,7.9-3"/>
				<path class="st41" d="M121.7,40.8c-0.8,2-5.2,1.3-7.5,1.3c-2.1,0.1-2.6-0.6-2.6-0.6c0.1-3,0.6-5.2,0.1-7.3
					c-0.8-3.7-1.2-8.2-0.5-9c1.4-1.1,5.3-1.9,8.3-1c2.3,0.7,3,1.4,2.9,3.1C122.4,27.8,120.8,38.3,121.7,40.8z"/>
				<g>
					<polygon class="st42" points="118.5,41.3 107.5,40.4 113.8,43.3 					"/>
					<polygon class="st43" points="113.8,43.6 118.4,41.7 118.5,41.3 113.8,43.2 					"/>
				</g>
				<path class="st38" d="M113.2,39.6l-0.9,0.4c0,0-0.8-0.7-1.8-0.1c-0.9,0.6,0,2.5,0.7,2.4c0.7-0.1,2.7-1.4,2.7-1.4L113.2,39.6z"/>
				<path class="st14" d="M113.4,41.5c0,0-0.5-0.2-0.7-1c-0.1-0.3,0.1-0.9,0.1-0.9s2.6-1.5,4.4-2.9c0.8-0.6,1.7-1.2,2.7-1.7
					c-0.2-1.6-0.3-3.2-0.5-4.7c-0.1-0.8-0.3-1.9-0.2-2.8c0.2-1.1,0.6-2.9,1.9-2.7c2.4,0.4,1.9,5.5,1.8,7.4c-0.1,1.3,0.1,3.5-0.7,4.5
					C121,38.4,113.4,41.5,113.4,41.5z"/>
				<g>
					<path class="st43" d="M113.8,43.6l-10.1-1.6c-0.3-0.1-0.6-0.3-0.6-0.7l-0.3-7.1c0-0.4,0.3-0.7,0.7-0.6L113,35
						c0.3,0,0.5,0.3,0.5,0.6L113.8,43.6z"/>
				</g>
				<g>
					<g id="XMLID_30_">
						<path id="XMLID_34_" class="st38" d="M113.5,21.2c0.2,0.1-0.1,1.7,0.4,1.8c0.5,0.1,1,0.1,1.4,0.1c0,0-0.1,0.9-0.1,0.9l0.1,0.5
							h1l1.3-0.4c0,0,0-1.7,0.1-1.9c0-0.1,0.5-0.6,0.9-1.4c0.2-0.5,0.4-1,0.4-1.3c0-0.9,0-1.8-0.6-2.3c-0.6-0.5-4.3-2.1-4.4,0.6
							c0,0-0.5,1.9-0.7,2.4c-0.1,0.2-0.3,0.7-0.3,0.8C113.1,21.2,113.4,21.2,113.5,21.2z"/>
						<path id="XMLID_32_" class="st44" d="M115.4,23.5c0,0.2-0.2,0.6-0.2,0.6l0.2,0.4l1,0.1l1.3-0.4c0,0,0-1.7,0.1-1.9
							c0-0.1,0.5-0.6,0.9-1.4l0-0.5c0,0-1.2-0.3-1.2-0.3c0,0-0.1,2.3-0.1,2.9c-0.5,0.4-1,0.8-1.2,0.8
							C115.8,23.8,115.5,23.6,115.4,23.5z"/>
						<path id="XMLID_31_" d="M117.4,20c0,0-0.9,1.2-0.9-0.7c0-0.1-0.1-0.1-0.1-0.1c-0.2,0-0.8-0.2-0.8-1.3c0-0.1-0.1-0.2-0.2-0.2
							c-0.3,0-1.1,0-1.2,0.1c0,0-0.1,0-0.2,0.1c0,0-0.1,0.5-0.2,0.6c0,0.1-0.1,0.6-0.1,0.6s-0.3-0.1-0.3-0.3c0-0.2,0.1-0.6,0-0.7
							c0-0.1-0.3-0.2-0.4-0.4c-0.1-0.5-0.3-2.6,1.4-1.6c0.2,0.1,1.1,0.2,1.6,0.1c0.7-0.1,3.9,0.1,3.5,3.1c-0.2,1.8-0.5,2.3-1,2.7
							c-0.1,0.1-0.5,0.4-0.5,0.5c-0.2,0.1-0.4,0.1-0.4,0.1s-0.1-0.2-0.1-0.5C117.6,21.3,117.7,20.2,117.4,20z"/>
					</g>
					<path id="XMLID_3_" class="st38" d="M117.4,20c0,0,0.1-0.6,0.6-0.5c0.7,0.1,0.7,1.7-0.7,1.8C117.2,21.2,117.2,20.6,117.4,20z"
						/>
				</g>
				<path class="st9" d="M117.9,23.1c0,0,0.3,0.3,0.6,0.8c0,0-0.3,0.3-0.7,0.5c-0.4,0.2-2,1.1-2,1.1l-0.4-1
					C115.4,24.5,117.1,23.5,117.9,23.1z"/>
				<path class="st9" d="M115.4,24.5c-0.3,0.2-0.6,0.4-0.8,0.8c0,0-0.1-0.9,0.1-1.5c0,0,0.4-0.5,0.7-0.6
					C115.4,23.2,115.3,24.1,115.4,24.5z"/>
			</g>
		</g>
		<path class="st20" d="M117.8,19c0-0.4,0-0.9-0.1-1.3c-0.1-0.5-0.4-1.1-0.8-1.4c-0.5-0.3-1-0.4-1.5-0.3c0.5,0,1.1,0.1,1.5,0.4
			c0.4,0.3,0.6,0.8,0.7,1.3c0.1,0.4,0.1,0.8,0.1,1.2c0,0-0.1,0-0.1,0c-0.7,0-1.3,0.6-1.3,1.3c0,0.4,0.2,0.8,0.5,1
			c-0.3,0.4-0.9,0.9-1.9,0.8c0-0.1-0.2-0.2-0.3-0.2c-0.2,0-0.3,0.1-0.3,0.2c0,0.1,0.1,0.2,0.3,0.2c0.1,0,0.2-0.1,0.3-0.1
			c0,0,0,0,0.1,0c1.1,0,1.7-0.5,2-0.9c0.2,0.1,0.4,0.2,0.6,0.2c0.7,0,1.3-0.6,1.3-1.3C118.9,19.7,118.4,19.2,117.8,19z"/>
	</g>
	<g>
		<path class="st5" d="M168.2,102c-3.3,1.7-8,0.5-10.1-3.7l0,0c-7.1-13.1-18.9-36.9-18.9-36.9c-2.1-4.9-0.4-8.7,2.9-10.4l0,0
			l1.3-0.7h0l3.7-1.8c0.3,3.1,0.8,3.5,1.6,5.1l3,1.1c0.8,1.6,3.1,4.2,1.5,5l-2.9,1.5c-0.6,0.3-0.9,1.1-0.5,1.7l13.2,25.9
			c0.3,0.6,1.1,0.9,1.7,0.5l2.5-1.2c1.6-0.8,2.9,2.9,3.7,4.5l3.9,2.4c-1.1,1.3,0.1,3.5-1.5,4.4l-3.9,2.1l0,0L168.2,102L168.2,102z"
			/>
		<path class="st6" d="M174.1,95.6l-2.9-5.7c-0.8-1.6-2.8-2.2-4.4-1.4l-2.8,1.5c-0.6,0.3-1.4,0.1-1.7-0.5L149,63.5
			c-0.3-0.6-0.1-1.4,0.5-1.7l0.3-0.2c-0.2,0.4-0.3,0.8-0.1,1.2l13.2,25.9c0.3,0.6,1.1,0.9,1.7,0.5l2.3-1.1c1.6-0.8,1.6,0.8,2.4,2.4
			l3.1,2"/>
		<ellipse transform="matrix(0.8729 -0.488 0.488 0.8729 -24.1111 94.9741)" class="st6" cx="170.2" cy="93.8" rx="4.4" ry="6.4"/>
		<path class="st5" d="M173.3,99.3c0,0-0.1,0-0.1,0.1c2-1.2,2.3-4.6,0.6-7.7c-1.7-3-4.7-4.6-6.8-3.5c0,0,0.1,0,0.1-0.1
			c2.1-1.2,5.2,0.4,6.9,3.4C175.8,94.7,175.4,98.1,173.3,99.3z"/>
		<ellipse transform="matrix(0.8729 -0.488 0.488 0.8729 -7.382 80.0922)" class="st6" cx="150" cy="54.2" rx="4.1" ry="6.4"/>
		<path class="st5" d="M153.1,59.8C153.1,59.8,153.1,59.8,153.1,59.8c1.8-1.1,2-4.4,0.3-7.5c-1.7-3-4.6-4.6-6.6-3.6c0,0,0,0,0.1,0
			c2-1.1,4.9,0.5,6.7,3.6C155.3,55.3,155.1,58.7,153.1,59.8z"/>
	</g>
	<g>
		<path class="st45" d="M79.3,12.4h-0.6v-0.6c0-0.1-0.1-0.2-0.2-0.2c-0.1,0-0.2,0.1-0.2,0.2v0.6h-0.6c-0.1,0-0.2,0.1-0.2,0.2
			s0.1,0.2,0.2,0.2h0.6v0.6c0,0.1,0.1,0.2,0.2,0.2c0.1,0,0.2-0.1,0.2-0.2v-0.6h0.6c0.1,0,0.2-0.1,0.2-0.2S79.4,12.4,79.3,12.4z"/>
		<path class="st45" d="M76.5,56.5h-0.6v-0.6c0-0.1-0.1-0.2-0.2-0.2c-0.1,0-0.2,0.1-0.2,0.2v0.6H75c-0.1,0-0.2,0.1-0.2,0.2
			c0,0.1,0.1,0.2,0.2,0.2h0.6v0.6c0,0.1,0.1,0.2,0.2,0.2c0.1,0,0.2-0.1,0.2-0.2v-0.6h0.6c0.1,0,0.2-0.1,0.2-0.2
			C76.6,56.5,76.6,56.5,76.5,56.5z"/>
		<path class="st45" d="M169.1,37.3h-0.6v-0.6c0-0.1-0.1-0.2-0.2-0.2c-0.1,0-0.2,0.1-0.2,0.2v0.6h-0.6c-0.1,0-0.2,0.1-0.2,0.2
			c0,0.1,0.1,0.2,0.2,0.2h0.6v0.6c0,0.1,0.1,0.2,0.2,0.2c0.1,0,0.2-0.1,0.2-0.2v-0.6h0.6c0.1,0,0.2-0.1,0.2-0.2
			C169.3,37.3,169.2,37.3,169.1,37.3z"/>
		<path class="st45" d="M23.3,19.4h-0.6v-0.6c0-0.1-0.1-0.2-0.2-0.2s-0.2,0.1-0.2,0.2v0.6h-0.6c-0.1,0-0.2,0.1-0.2,0.2
			s0.1,0.2,0.2,0.2h0.6v0.6c0,0.1,0.1,0.2,0.2,0.2s0.2-0.1,0.2-0.2v-0.6h0.6c0.1,0,0.2-0.1,0.2-0.2S23.3,19.4,23.3,19.4z"/>
		<path class="st45" d="M141.7,30h-0.6v-0.6c0-0.1-0.1-0.2-0.2-0.2s-0.2,0.1-0.2,0.2V30h-0.6c-0.1,0-0.2,0.1-0.2,0.2
			s0.1,0.2,0.2,0.2h0.6v0.6c0,0.1,0.1,0.2,0.2,0.2s0.2-0.1,0.2-0.2v-0.6h0.6c0.1,0,0.2-0.1,0.2-0.2S141.8,30,141.7,30z"/>
		<path class="st46" d="M100.7,24.5c0,0.3-0.3,0.6-0.6,0.6c-0.3,0-0.6-0.3-0.6-0.6c0-0.3,0.3-0.6,0.6-0.6
			C100.5,23.9,100.7,24.2,100.7,24.5z"/>
		<path class="st46" d="M151.4,10.4c0,0.3-0.3,0.6-0.6,0.6c-0.3,0-0.6-0.3-0.6-0.6c0-0.3,0.3-0.6,0.6-0.6
			C151.1,9.8,151.4,10.1,151.4,10.4z"/>
		<path class="st46" d="M175.7,60.2c0,0.3-0.3,0.6-0.6,0.6c-0.3,0-0.6-0.3-0.6-0.6c0-0.3,0.3-0.6,0.6-0.6
			C175.5,59.7,175.7,59.9,175.7,60.2z"/>
		<path class="st46" d="M57.2,31.8c0,0.3-0.3,0.6-0.6,0.6c-0.3,0-0.6-0.3-0.6-0.6c0-0.3,0.3-0.6,0.6-0.6
			C57,31.3,57.2,31.5,57.2,31.8z"/>
		<path class="st46" d="M10.6,44.9c0,0.3-0.3,0.6-0.6,0.6c-0.3,0-0.6-0.3-0.6-0.6c0-0.3,0.3-0.6,0.6-0.6
			C10.3,44.3,10.6,44.6,10.6,44.9z"/>
	</g>
	<g>
		<g>
			<path class="st21" d="M140.2,18.3h-16c-1.9,0-3.4-1.5-3.4-3.4v-4.4c0-1.9,1.5-3.4,3.4-3.4h16c1.9,0,3.4,1.5,3.4,3.4v4.4
				C143.7,16.7,142.1,18.3,140.2,18.3z"/>
			<g>
				<g class="st47">
					<line class="st48" x1="141" y1="14.9" x2="136.2" y2="14.9"/>
					<line class="st48" x1="126.7" y1="13.2" x2="123.5" y2="13.2"/>
					<line class="st48" x1="141" y1="13.2" x2="128.1" y2="13.2"/>
					<line class="st48" x1="141" y1="11.5" x2="123.5" y2="11.5"/>
					<line class="st48" x1="128.9" y1="9.8" x2="123.5" y2="9.8"/>
					<line class="st48" x1="141" y1="9.8" x2="130.2" y2="9.8"/>
					<line class="st48" x1="134.9" y1="14.9" x2="123.5" y2="14.9"/>
				</g>
			</g>
		</g>
		<polygon class="st21" points="124.5,18.3 122.5,20.8 122.5,18.3 		"/>
	</g>
</g>
<g id="DESIGNED_BY_FREEPIK">
</g>
</svg>
