<?xml version="1.0" encoding="utf-8"?>
<!-- Generator: Adobe Illustrator 26.1.0, SVG Export Plug-In . SVG Version: 6.00 Build 0)  -->
<svg version="1.1" id="Layer_1" xmlns="http://www.w3.org/2000/svg" xmlns:xlink="http://www.w3.org/1999/xlink" x="0px" y="0px"
	 viewBox="0 0 543 304.9" style="enable-background:new 0 0 543 304.9;" xml:space="preserve">
<style type="text/css">
	.st0{fill:none;}
	.st1{fill:url(#SVGID_1_);}
	.st2{fill:url(#SVGID_00000105385456781113566520000003789982662022232451_);}
	.st3{fill:#C1E5D9;}
	.st4{fill:url(#SVGID_00000112627346778579608980000002381858085701190559_);}
	.st5{fill:#2CA68F;}
	.st6{fill:#0C1A3B;}
	.st7{fill:#FD6F41;}
	.st8{fill:#FED44A;}
	.st9{fill:#ECD14B;}
	.st10{opacity:0.3;fill:#326C91;enable-background:new    ;}
	.st11{fill:#FFFFFF;stroke:#232020;stroke-width:1;stroke-miterlimit:9.9998;}
	.st12{fill:url(#SVGID_00000026858186512857602530000017104053663660789410_);}
	.st13{fill:url(#SVGID_00000150083129378821386230000009437486279338571677_);}
	.st14{fill:#FF8164;}
	.st15{fill:url(#SVGID_00000103261173530280960040000012751761078157883318_);}
	.st16{fill:url(#SVGID_00000065758258188933362220000012628725022293006508_);}
	.st17{fill:#F39091;}
	.st18{fill:#EE6E76;}
	.st19{fill:#FFFFFF;}
	.st20{fill:url(#SVGID_00000161597929850212255000000009960527782218963375_);}
	.st21{fill:#93415D;}
	.st22{fill:#55164A;}
	.st23{fill:none;stroke:#C7555B;stroke-width:2;stroke-linecap:round;stroke-linejoin:round;stroke-miterlimit:10;}
	.st24{fill:url(#SVGID_00000143598850510009482510000014532836754371437740_);}
	.st25{fill:#4BA1A5;}
	.st26{fill:#118E8D;}
	.st27{clip-path:url(#SVGID_00000062879337453742971820000012115990104021329845_);}
	.st28{fill:#F9BC14;}
	.st29{fill:#FFEB82;}
	.st30{fill:none;stroke:#FFFFFF;stroke-width:2;stroke-linecap:round;stroke-linejoin:round;stroke-miterlimit:10;}
	.st31{fill:url(#SVGID_00000132787427364188733300000010081785394555651985_);}
	.st32{fill:url(#SVGID_00000081645772608775638290000001069496114316592279_);}
	.st33{fill:url(#SVGID_00000151541513631973044560000005290702860443861933_);}
	.st34{fill:url(#SVGID_00000110464385243085453610000002430502507252546205_);}
	.st35{fill:#F09420;}
	.st36{fill:#067878;}
	.st37{fill:#E73F4D;}
	.st38{fill:url(#SVGID_00000085240847927470114720000000911478209147090359_);}
	.st39{fill:url(#SVGID_00000154403754840894774000000013071805058616061614_);}
	.st40{fill:url(#SVGID_00000104685952149873994810000018307635565666815920_);}
</style>
<path class="st0" d="M-773.5-144.6"/>
<path d="M-773.5-144.6"/>
<path d="M-773.5-144.6"/>
<path d="M-773.5-144.6"/>
<linearGradient id="SVGID_1_" gradientUnits="userSpaceOnUse" x1="426.3" y1="304.152" x2="466.6" y2="304.152" gradientTransform="matrix(1 0 0 -1 0 326.308)">
	<stop  offset="0" style="stop-color:#FFC05C"/>
	<stop  offset="1" style="stop-color:#FF3857"/>
</linearGradient>
<path class="st1" d="M465.4,3.5h-37.9c-0.7,0-1.2,0.5-1.2,1.2v27.1c0,0.7,0.5,1.2,1.2,1.2H451l4.8,7.6c0.2,0.3,0.6,0.4,0.8,0.2
	c0.1-0.1,0.2-0.1,0.2-0.2l4.2-7.5h4.4c0.7,0,1.2-0.5,1.2-1.2V4.7C466.6,4.1,466.1,3.5,465.4,3.5L465.4,3.5z"/>
<linearGradient id="SVGID_00000065755570571133575160000015398150820851570072_" gradientUnits="userSpaceOnUse" x1="83.8" y1="298.152" x2="157.6" y2="298.152" gradientTransform="matrix(1 0 0 -1 0 326.308)">
	<stop  offset="0" style="stop-color:#40D5E6"/>
	<stop  offset="1" style="stop-color:#5577FF"/>
</linearGradient>
<path style="fill:url(#SVGID_00000065755570571133575160000015398150820851570072_);" d="M156.1,4.6H85.3c-0.8,0-1.5,0.6-1.5,1.4
	v36.7c0,0.8,0.7,1.4,1.5,1.4h52.9l5,7.4c0.2,0.3,0.7,0.4,1,0.2c0.1-0.1,0.2-0.1,0.3-0.3l4.4-7.4h7.2c0.8,0,1.5-0.6,1.5-1.4V6
	C157.6,5.2,156.9,4.6,156.1,4.6z"/>
<path class="st3" d="M-773.5-144.6"/>
<linearGradient id="SVGID_00000122686414396426727970000015888835926844941477_" gradientUnits="userSpaceOnUse" x1="27.1" y1="263.652" x2="76.5" y2="263.652" gradientTransform="matrix(1 0 0 -1 0 326.308)">
	<stop  offset="0" style="stop-color:#40D5E6"/>
	<stop  offset="1" style="stop-color:#5577FF"/>
</linearGradient>
<path style="fill:url(#SVGID_00000122686414396426727970000015888835926844941477_);" d="M74.9,42.5H28.6c-0.8,0-1.5,0.6-1.5,1.4
	v29.8c0,0.8,0.7,1.4,1.5,1.4H38l5,7.5c0.2,0.3,0.7,0.4,1,0.2c0.1-0.1,0.2-0.1,0.3-0.3l4.5-7.4H75c0.8,0,1.5-0.6,1.5-1.4V43.9
	C76.4,43.1,75.8,42.5,74.9,42.5z"/>
<path class="st5" d="M-773.5-144.6"/>
<rect x="183.4" y="289" class="st6" width="62" height="7.1"/>
<path class="st7" d="M-773.5-144.6"/>
<polygon class="st7" points="31.7,178.4 23.6,176.2 29.5,169.2 "/>
<polygon class="st8" points="56.9,14.1 52.4,12.9 55.6,9 "/>
<path class="st6" d="M316.2,85.4c0,0,8.1,6.3,15.1,7.8s-5.7,20.7-5.7,20.7s-14.5,5-14.5,15.3s4.8,12.7-2.8,18.6
	c-7.7,5.9-10.3,13.8,5.7,13.8s26.1-16.7,26.1-16.7l0.9-52.2c0,0-7.5-16-7.5-16.7s-5.9-1.5-5.9-1.5L316.2,85.4z"/>
<path class="st6" d="M303,153.1c-10.2,4.5-40.9,57.7-46.2,72.2c-5.2,14.5,5.5,24.6,18.2,17.9c12.6-6.8,33.9-37.6,33.9-37.6
	L303,153.1z"/>
<g>
	<path class="st9" d="M359.5,292.8h-54c0,0,2.3-42.1,1.9-64.3c-0.2-9.2,0.9-21.5,2.7-33.6l0,0c2.5-17.2,6.3-33.9,10-40.3
		c6.2-11,6.1-13.8,17.2-14.9c8.9-0.9,26.7-5.4,35,3.6c2,2.2,3.5,5.1,4.1,9C378,162.2,359.5,292.8,359.5,292.8z"/>
	<path class="st10" d="M359.5,292.8h-54c0,0,2.3-42.1,1.9-64.3c-0.2-9.2,0.9-21.5,2.7-33.6c3.7,15.1,11.8,21.9,17.7,27.1
		c10.5,9.2,41.2-78.8,41.2-78.8s1.2,0,3.3,0c2,2.2,3.5,5.1,4.1,9C378,162.2,359.5,292.8,359.5,292.8z"/>
</g>
<g>
	
		<ellipse transform="matrix(0.1027 -0.9947 0.9947 0.1027 190.0758 414.9066)" class="st6" cx="325" cy="102.1" rx="12.8" ry="10.3"/>
	<g>
		<path class="st6" d="M322.7,112.4l-6.2,6.2c-0.4,0.4-1.1,0.4-1.5,0l0,0c-0.4-0.4-0.4-1.1,0-1.5l6.2-6.2c0.4-0.4,1.1-0.4,1.5,0
			C323.1,111.3,323.1,112,322.7,112.4z"/>
	</g>
	
		<ellipse transform="matrix(0.1027 -0.9947 0.9947 0.1027 194.217 417.7281)" class="st11" cx="328.6" cy="101.2" rx="7.4" ry="5.9"/>
</g>
<linearGradient id="SVGID_00000003068698805057576810000017951569802713254825_" gradientUnits="userSpaceOnUse" x1="285.7" y1="108.554" x2="331.4" y2="108.554" gradientTransform="matrix(1 0 0 -1 0 326.308)">
	<stop  offset="0" style="stop-color:#FFC05C"/>
	<stop  offset="1" style="stop-color:#FF3857"/>
</linearGradient>
<path style="fill:url(#SVGID_00000003068698805057576810000017951569802713254825_);" d="M316.5,171.3l-4.4,38.7
	c0,0,1.6,19.9,2.2,36.9c0.1,3.2,0.2,6.4,0.3,9.3c0.3,17.9,1.6,38.3,1.6,38.3l-30.5-0.6c0,0,14.5-56.3,14.1-66.6
	c-0.2-5.2-1.6-11.3-2.9-17c-1.3-5.6-2.5-10.9-2.1-14.5c0.6-7.2,6.9-21.1,6.9-21.1s-0.6-20.1,1.3-21.7c1.9-1.6,28.4-11.9,28.4-11.9
	L316.5,171.3z"/>
<linearGradient id="SVGID_00000106850848694038637820000013945989407632393652_" gradientUnits="userSpaceOnUse" x1="285.7" y1="73.954" x2="316.2" y2="73.954" gradientTransform="matrix(1 0 0 -1 0 326.308)">
	<stop  offset="0" style="stop-color:#FFC05C"/>
	<stop  offset="1" style="stop-color:#FF3857"/>
</linearGradient>
<path style="fill:url(#SVGID_00000106850848694038637820000013945989407632393652_);" d="M285.7,293.9c0,0,14.5-56.3,14.1-66.6
	c-0.2-5.2-1.6-11.3-2.9-17c4.7,11.8,12,26.9,17.4,36.6c0.1,3.2,0.2,6.4,0.3,9.3c0.3,17.9,1.6,38.3,1.6,38.3L285.7,293.9z"/>
<path class="st14" d="M334.1,138.3c-2.9,0.5-17.4,18.3-24,26.6c-1.8,2.3-1.4,5.6,1,7.4l4.2,3.1l-8.9,3.2c-2.1,0.7-3.4,2.7-3.4,4.9
	c0.1,11.3,1.2,46.2,11.6,72.7c0,0-0.6-51.5,5.7-79.5C326.6,148.7,334.1,138.3,334.1,138.3z"/>
<linearGradient id="SVGID_00000128444075876842895240000010980739142721486502_" gradientUnits="userSpaceOnUse" x1="329.1" y1="109.154" x2="397.6514" y2="109.154" gradientTransform="matrix(1 0 0 -1 0 326.308)">
	<stop  offset="0" style="stop-color:#FFC05C"/>
	<stop  offset="1" style="stop-color:#FF3857"/>
</linearGradient>
<path style="fill:url(#SVGID_00000128444075876842895240000010980739142721486502_);" d="M397.3,166.3c-0.2,1.4-1.1,4.4-2.4,8.3
	c-6,17.7-20.5,55.4-20.5,64.9c0,11.6,13.2,55,13.2,55h-58.5l4.4-38.7l4.1-16l0.9-3.5l22.6-88.9l-0.9-7.5c0,0,16.7,4.1,26.7,8.2
	C397,152.2,398.5,158.4,397.3,166.3z"/>
<linearGradient id="SVGID_00000011742065443506401680000014218273525836547485_" gradientUnits="userSpaceOnUse" x1="329" y1="91.804" x2="394.7" y2="91.804" gradientTransform="matrix(1 0 0 -1 0 326.308)">
	<stop  offset="0" style="stop-color:#FFC05C"/>
	<stop  offset="1" style="stop-color:#FF3857"/>
</linearGradient>
<path style="fill:url(#SVGID_00000011742065443506401680000014218273525836547485_);" d="M383.2,279.7c2.4,8.5,4.3,14.8,4.3,14.8
	H329l4.4-38.7l0.6-2.2l3.6-13.8l12.6-0.4l15.3-0.5c0,0-20.6-5.2-19.4-8.4s42.4-31.5,43.4-53.6l5.2-2.3c-6,17.7-20.5,55.4-20.5,64.9
	c0,1.9,0.4,4.6,0.9,7.9C376.9,256.5,380.4,269.6,383.2,279.7z"/>
<path class="st10" d="M383.2,279.7c-16-8.3-38.5-20.4-49.2-26l3.6-13.8l12.6-0.4c7.6,2.4,16.7,5.3,25.1,8
	C376.9,256.5,380.4,269.6,383.2,279.7z"/>
<path class="st14" d="M358.9,138.3c0,0-16.3,59.7-25.5,117.5c0,0,25.2-42.1,33.3-64.7c0.8-2.2,0-4.6-1.9-6l-8.2-5.7l9-3
	c2.4-0.8,3.9-3.3,3.4-5.8c-1.7-9.2-5.5-30-6.8-31.4C360.8,137.4,358.9,138.3,358.9,138.3z"/>
<g>
	<path class="st17" d="M342.2,222.1l-0.1,0.7l-2.6,18.4c0,0-18-4.1-19.1-6.4c-1.1-2.3-1.1-5.2-1.1-5.2s-1.6-2-2.3-3.2
		c-0.7-1.1-1.1-5.9-1.1-5.9s-11.6-6.1-13-7c-0.7-0.5-1.7-1.7-2.1-2.8c-0.4-0.9-0.4-1.7,0.5-1.9c0.1,0,0.3,0,0.5,0
		c2.7,0,18,6.1,18,6.1s7-2.9,8.9-2.7c1.3,0.2,8.1,5.2,11.6,8.1C341.3,221.2,342.1,222,342.2,222.1z"/>
	<path class="st18" d="M342.2,222.2l-2.7,19.1c0,0-18-4.1-19.1-6.4c-1.1-2.3-1.1-5.2-1.1-5.2s-1.6-2-2.3-3.2
		c-0.7-1.1-1.1-5.9-1.1-5.9s-11.6-6.1-13-7c-1.3-0.8-3.5-4.3-1.6-4.7c6,5.2,17.9,9.7,17.9,9.7s4.7,10.5,8,12.7
		c2.9,1.9,7.2-1.7,13-10.9C341.3,221.2,342.1,222,342.2,222.2z"/>
	<path class="st19" d="M342.2,222.1l-0.1,0.7c-0.1,0.1-0.1,0.1-0.1,0.1s-11.4-9-13.9-9.3s-8.8,2.1-8.8,2.1s-13.6-5.4-18.6-5.1
		c-0.4-0.9-0.4-1.7,0.5-1.9c0.1,0,0.3,0,0.5,0c2.7,0,18,6.1,18,6.1s7-2.9,8.9-2.7c1.3,0.2,8.1,5.2,11.6,8.1
		C341.3,221.2,342.1,222,342.2,222.1z"/>
</g>
<linearGradient id="SVGID_00000030479155363247373090000005997161449381576119_" gradientUnits="userSpaceOnUse" x1="334.1" y1="116.461" x2="418.1777" y2="116.461" gradientTransform="matrix(1 0 0 -1 0 326.308)">
	<stop  offset="0" style="stop-color:#FFC05C"/>
	<stop  offset="1" style="stop-color:#FF3857"/>
</linearGradient>
<path style="fill:url(#SVGID_00000030479155363247373090000005997161449381576119_);" d="M417.7,262.1c-2.5,11-21.7,6-40.5-1.6
	c-18.9-7.5-43.1-18.5-43.1-18.5l2.8-10.2l0,0l3-11l0.6-2l48.4,15.7l0,0c-0.1-0.5-5.1-21-7.6-37.9c-0.6-4.1-1-8-1.2-11.4
	c-0.8-14.6,8.3-28.8,11.1-32.8c0.5-0.7,0.8-1.1,0.8-1.1c8.8,3.5,14.5,10.7,17.3,37.1c2,18.3,6.5,41.4,8.2,57.6
	C418.2,253,418.5,258.8,417.7,262.1z"/>
<path class="st19" d="M406,243.6c-0.4-0.1-14.5-4.7-21.3-6.9c-5.4-1.7-32.8-11.6-44.8-15.9l0.6-2l48.4,15.7
	C393.4,236.5,405.6,243.4,406,243.6z"/>
<path class="st19" d="M417.5,245.8c-4.4-9.7-9.5-40.5-11.5-61.1c-1.7-17.8-7.7-27.4-14.9-32.4c0.5-0.7,0.8-1.1,0.8-1.1
	c8.8,3.5,14.5,10.7,17.3,37.1C411.2,206.6,415.7,229.7,417.5,245.8z"/>
<path class="st10" d="M417.7,262.1c-2.5,11-21.7,6-40.5-1.6c-18.9-7.5-43.1-18.5-43.1-18.5l2.8-10.2c9.2,5.4,59,24.2,70.5,23.8
	c5.8-0.2,8.6-4.9,10.1-9.8C418.2,253,418.5,258.8,417.7,262.1z"/>
<path class="st10" d="M404.9,236.1l-16.1-1.6l0,0c-0.1-0.5-5.1-21-7.6-37.9C389.3,211.3,404.9,236.1,404.9,236.1z"/>
<g>
	<path class="st17" d="M356.5,118.9l1.2,25c0,0-1.7,1.7-4.6,3.4c-2.6,1.5-6.1,3-10.2,3.3c-8.7,0.5-10.9-3-10.9-3l0.1-8.8l0.1-12.5
		c0,0-3.6,0.5-6.6-1.8l0,0c-1.9-1.4-3.6-3.9-4-8.3c-1-9.4,1.3-29.5,9.5-36.7l0,0c1.7-1.5,3.7-2.5,5.9-2.6c0,0,2.8-0.4,6.5-0.6
		c7-0.2,17.1,0.5,17.7,7C362.2,93.1,356.5,118.9,356.5,118.9z"/>
	<path class="st18" d="M356.5,118.9l1.2,25c0,0-1.7,1.7-4.6,3.4c-2.9-2.7-4.5-7-3.9-13.3c1.4-15.7-6.7-10.3-6.7-10.3
		c5-8.1,7.2-33.6,1-47.5c7-0.2,17.1,0.5,17.7,7C362.2,93.1,356.5,118.9,356.5,118.9z"/>
	<path class="st19" d="M325.7,124.5c-1.9-1.4-3.6-3.9-4-8.3c-1-9.4,1.3-29.5,9.5-36.7C324.5,92.4,322.3,112.2,325.7,124.5z"/>
	<path class="st18" d="M344.5,125.9c-2.6,4.2-6.8,10-12.3,12.8l0.1-12.5c0,0,4.7,0.1,10.2-2.6C343.9,123.1,345.3,124.6,344.5,125.9z
		"/>
</g>
<g>
	<path class="st6" d="M328.2,120.2h-3c-1.4,0-2.5-1.1-2.5-2.5l0,0c0-1.4,1.1-2.5,2.5-2.5h3c1.4,0,2.5,1.1,2.5,2.5l0,0
		C330.7,119.1,329.5,120.2,328.2,120.2z"/>
	<g>
		<path class="st6" d="M324.4,118.9h-8.7c-0.6,0-1.1-0.5-1.1-1.1l0,0c0-0.6,0.5-1.1,1.1-1.1h8.7c0.6,0,1.1,0.5,1.1,1.1
			S325.1,118.9,324.4,118.9z"/>
	</g>
</g>
<g>
	<g>
		<path class="st21" d="M378.4,71.2c0,0.8-0.1,1.5-0.3,2.2c-0.4,1.6-1.3,3.1-2.5,4.2c-1.6,1.5-3.7,2.4-6,2.4c-4.9,0-8.8-3.9-8.8-8.8
			c0-0.3,0-0.5,0-0.8c0.1-1.8,0.8-3.4,1.9-4.7c1.6-2,4.1-3.3,6.9-3.3C374.4,62.4,378.4,66.3,378.4,71.2z"/>
		<path class="st19" d="M378.4,71.2c0,0.8-0.1,1.5-0.3,2.2c-0.4-3.6-2.1-7.3-6.8-8.7c-3.7-1.1-6.6-0.3-8.6,1c1.6-2,4.1-3.3,6.9-3.3
			C374.4,62.4,378.4,66.3,378.4,71.2z"/>
		<path class="st22" d="M375.6,77.6c-1.6,1.5-3.7,2.4-6,2.4c-4.9,0-8.8-3.9-8.8-8.8c0-0.3,0-0.5,0-0.8c2.9-2,7.4-4,11.4-1.5
			C375.3,70.9,376.1,74.3,375.6,77.6z"/>
	</g>
	<g>
		<path class="st21" d="M416.2,152.5c0,0.4,0,0.8,0,1.2l0,0l0,0c-0.7,12-10.7,14.5-10.7,14.5c-1-6.9-11.6-18.1-19.5-15.1
			s-20,3.7-19.3-5s-9.4-6.7-13.1-12.9s1.5-17.3,1.5-17.3l1.7-12.8c0,0-0.1-0.1-0.2-0.4c-0.6-0.9-2.2-3.5-4.6-6.7
			c-3-4-1.5-12.3-1.5-12.3s0.8-6.1,2-9.1c-0.2,0.3-4,5-6.2,11c-3.8,1.3-9.6,2.4-14.5,0c-2.1-1-4.1-1.7-6-2.1
			c0.8-4.2,3.2-8.1,3.3-8.4c-2.8,2.1-4.7,5.6-5.7,8c-4.1-0.5-7,0.1-7,0.1l0,0c4.4-20.3,35.7-15.4,35.7-15.4
			c19.3-0.5,24,17.1,21.1,29s3.4,27.5,12.8,25.8s10.9,7.7,13.6,11.4C402.1,139.9,416.2,139.4,416.2,152.5z"/>
		<path class="st19" d="M416.2,152.5c0,0.4,0,0.8,0,1.2c-1-13.6-15.9-10.4-19.5-17.5c-3.7-7.3-2.9-9.1-10.6-9s-13.5-5.4-15.1-16.6
			c-1.6-11.2,1.6-17.3-1.7-27.9c-3.4-10.6-18.3-14.2-34-11.5c-15.2,2.7-18.9,13.3-19.1,13.9c4.4-20.3,35.7-15.4,35.7-15.4
			c19.3-0.5,24,17.1,21.1,29s3.4,27.5,12.8,25.8c9.4-1.7,10.9,7.7,13.6,11.4C402.1,139.9,416.2,139.4,416.2,152.5z"/>
		<path class="st22" d="M416.2,153.8c-0.7,12-10.7,14.5-10.7,14.5c-1-6.9-11.6-18.1-19.5-15.1s-20,3.7-19.3-5s-9.4-6.7-13.1-12.9
			s1.5-17.3,1.5-17.3l1.7-12.8c0,0-0.1-0.1-0.2-0.4c6.2,4.5,13.2,7.1,10.8,15.6c-4.1,14.3,16.4,3.1,18.6,15.1
			c2.3,12.1,10.2,6.1,17.4,13.3C408.1,153.7,413.1,156.3,416.2,153.8z"/>
	</g>
</g>
<g>
	<path class="st9" d="M363.7,92c0,0,0.1-17.1-11.7-23.6h-9.6c0,0,13.4,4.6,13.4,24.7L363.7,92z"/>
	<ellipse class="st6" cx="360.2" cy="103.2" rx="10.3" ry="12.8"/>
	<ellipse class="st9" cx="363.7" cy="101.9" rx="5.9" ry="7.4"/>
</g>
<g>
	<path class="st17" d="M316.2,118.8c-0.6-1.1-4.4,0.6-7.8,3.6c-4,3.5-4.4,3.7-4.4,3.7s-4.3,1-4.9,1.1c-0.5,0.1-1.5,1.8-1.5,1.8
		s-1.7,0.3-3,1c-1.3,0.6-3.3,3-3.3,3s-2.5,0.4-3.2,1.3c-0.7,0.8-3.2,8.9-3.6,11.9c0,0.2-0.1,0.4-0.1,0.6c-0.1,2.4,0.2,4.2,0.2,4.2
		l-0.4,1l0,0l-2.1,5.1l13.6,2.7c0,0,2.3-3.6,5.6-5.9c2-1.4,5.3-4,6-4.8c1.9-2.3,3.5-13.1,4.7-15s0-3.8-1.6-2.6
		c-0.3,0.2-0.6,0.6-1,1.1v-0.1l0,0v-0.1c-0.2-0.4-1-1.4-1.9-2.3c3.3-3.9,8.3-8.6,8.7-10.3C316.3,119.2,316.3,119,316.2,118.8z
		 M304.3,140.4c0,0-0.2-1.9,0-4.2l0,0c0,0,0.1,0,0.1,0.1l0,0c0.7,0.4,1.5,0.5,2.3,0.4C305.4,138.6,304.3,140.4,304.3,140.4z
		 M307.9,134.1L307.9,134.1c0.2,0,0.3,0.1,0.4,0.1c-0.2,0.2-0.3,0.5-0.5,0.7c-0.3-0.3-0.7-0.7-1.2-1.2h0.2
		C307.2,133.9,307.6,134,307.9,134.1z"/>
	<path class="st18" d="M312.1,134c-1.2,1.9-2.8,12.8-4.7,15c-0.7,0.8-4.1,3.4-6,4.8c-3.2,2.4-5.6,5.9-5.6,5.9l-13.6-2.7l2.1-5.1l0,0
		c6-2.4,7.5-4.5,7.5-5.7s0-8.1,0-8.1s2.3-1,2.8-0.9c0.5,0.2,5.2,1.3,5.8,1.1c0.6-0.2-2.9-3.1-2.9-3.1s0.5-0.8,1.7-0.8
		c1.1,0,4.3,1.3,5,1.6c-0.2,2.4,0,4.2,0,4.2s1.1-1.8,2.4-3.8c0,0,1.2-0.4,1.2-0.6c0-0.1,0-0.6-0.1-1.1c0-0.4-0.1-0.7-0.1-0.7
		l0.2-0.1l0,0l1.2-0.4l0.4-1.3v0.1c0.4-0.5,0.7-0.9,1-1.1C312.1,130.2,313.3,132.1,312.1,134z"/>
	<g>
		<path class="st23" d="M294.5,149.5c0,0,3.3-4.1,8.2-6.1"/>
		<path class="st23" d="M291.6,143.3l0.2-5.1l2.8-0.9c0,0,5.5,1.7,5.8,1.1c0.3-0.6-4.8-5-4.8-5l-2.9-0.6"/>
		<path class="st23" d="M299.1,129.8l4.6,1.4c0,0,3.7,3,4.3,4c0.6,1-1.9,2-3.7,1c-1.7-1.1-4.1-1.5-4.1-1.5h-2.9"/>
		<path class="st23" d="M304.6,127c0,0,4.4,4.1,4.8,5.2c0.4,1.1,0.3,2.8-2.7,1.5"/>
	</g>
	<path class="st19" d="M309.4,123c-2.5,1.8-4.5,3.6-4.5,3.6l1.5,2.1c-0.2-0.1-2.9-1.5-3.4-1.6s-3.8,1.4-3.8,1.4l-0.9,1.1
		c0,0-4.1,1.8-4.7,2.2s-1.3,1.8-1.3,1.8s-1,0.2-3,1.5c-1.2,0.8-3.3,6.7-4.7,11.1c0.4-3,2.9-11.1,3.6-11.9c0.8-0.9,3.2-1.3,3.2-1.3
		s2.1-2.4,3.3-3c1.3-0.7,3-1,3-1s1-1.7,1.5-1.8s4.9-1.1,4.9-1.1s0.4-0.2,4.4-3.7c3.4-3,7.2-4.7,7.8-3.6
		C314,119.6,311.3,121.7,309.4,123z"/>
</g>
<linearGradient id="SVGID_00000012442819425837552620000016821449119499106712_" gradientUnits="userSpaceOnUse" x1="247.3731" y1="127.124" x2="300.2" y2="127.124" gradientTransform="matrix(1 0 0 -1 0 326.308)">
	<stop  offset="0" style="stop-color:#FFC05C"/>
	<stop  offset="1" style="stop-color:#FF3857"/>
</linearGradient>
<path style="fill:url(#SVGID_00000012442819425837552620000016821449119499106712_);" d="M300.2,158.2c0,0-0.4,1.1-1,3l0,0
	c-3.7,10.9-16.2,48.3-19.6,60.1c-4,13.8-5.5,28.9-23.4,23.4c-7.3-2.3-9.4-8.7-8.7-16.6c0.1-0.9,0.2-1.8,0.3-2.7
	c1.7-11,8-24.1,13-33.4c9.2-16.9,18.4-39.4,18.4-39.4l2.8,0.7L300.2,158.2z"/>
<path class="st10" d="M299.2,161.2c-3.7,10.9-16.2,48.3-19.6,60.1c-4,13.8-5.5,28.9-23.4,23.4c-7.3-2.3-9.4-8.7-8.7-16.6
	c6.7,9.6,20.2,4.9,26.9-18C280.4,190.1,293.5,169.6,299.2,161.2z"/>
<path class="st19" d="M282.1,153.4c-4.5,10.8-14.8,34.7-22.5,48.8c-7.2,13.1-10.4,20.2-11.7,23.2c1.7-11,8-24.1,13-33.4
	c9.2-16.9,18.4-39.4,18.4-39.4L282.1,153.4z"/>
<g>
	<path class="st6" d="M83.9,297.3c0,0-12.5,1.6-16.4-0.8c-3.9-2.3,0.8-3.9-1.1-6s-11-2-13.1-5.2c-2.2-3.2,3.9-4.7,1.6-7.9
		c-2.3-3.2-12.1-2.3-15.8-7.2c-3.7-4.9,3.2-5.1,4.9-6.8c1.7-1.6-0.8-4.4-6.6-6.7c-5.8-2.3-9.6-7.9-8.9-9.9s5.9,0.6,6.5-1.6
		c0.6-2.2-11.3-9.8-7.9-14.6s11.8,2.5,14.8,5.9c3,3.3-0.7-6.2-0.2-8s4.8-2.9,8.9,7.9c4,10.9,5.6,13.3,8,12.3
		c2.4-1.1-0.7-6.8,1.5-8.1c2.3-1.3,6.2,4.7,7.3,13.7c1.1,9,5.9,8.2,5.9,5s4.4-5.9,5.9,1c1.5,6.9,0,10.8,0.9,13
		c1,2.1,2.7-1.9,5.2-1.3s3.8,14.9,3.9,19.5C89.3,296.2,83.9,297.3,83.9,297.3z"/>
	<path class="st6" d="M83.5,279c-0.6-0.1-1.1,0.3-1.1,0.9l-1.1,8.5c-0.8-1-1.7-2-2.5-3l0.6-6.1c0.1-0.6-0.3-1-0.9-1.1
		s-1,0.3-1.1,0.9l-0.4,4.1c-0.3-0.4-0.7-0.8-1-1.2l0.5-12.5c0-0.6-0.4-1-1-1s-1,0.4-1,1l-0.4,10.2c-1.4-1.7-2.8-3.3-4.2-4.9l0.1-8.1
		c0-0.6-0.4-1-1-1s-1,0.4-1,1l-0.1,5.8c-1-1.1-2-2.3-2.9-3.4l-0.6-15c0-0.6-0.5-1-1-1c-0.6,0-1,0.5-1,1l0.5,12.5
		c-1.6-1.8-3.1-3.5-4.6-5.2l-1.1-7.5c-0.1-0.6-0.6-0.9-1.1-0.8s-0.9,0.6-0.8,1.1l0.7,4.4c-1-1.1-1.9-2.1-2.8-3.2l-2.1-13
		c-0.1-0.5-0.6-0.9-1.2-0.8c-0.5,0.1-0.9,0.6-0.8,1.2l1.6,9.8c-1.1-1.3-2.2-2.5-3.2-3.6l-1.1-7.5c-0.1-0.6-0.6-0.9-1.1-0.8
		c-0.6,0.1-0.9,0.6-0.8,1.1l0.7,4.6c-5.1-5.6-8.3-9-8.4-9.1c-0.4-0.4-1-0.4-1.4,0s-0.4,1,0,1.4c0.1,0.1,3.4,3.6,8.7,9.5l-4.3-0.6
		c-0.6-0.1-1.1,0.3-1.1,0.9c-0.1,0.6,0.3,1.1,0.9,1.1l6.7,1c1.1,1.2,2.3,2.5,3.6,3.9l-8.7-1.5c-0.5-0.1-1.1,0.3-1.2,0.8
		c-0.1,0.5,0.3,1.1,0.8,1.2l11.2,1.9c1,1.2,2.1,2.4,3.2,3.6l-5.4-0.8c-0.6-0.1-1.1,0.3-1.1,0.9c-0.1,0.6,0.3,1.1,0.9,1.1l7.8,1.1
		c1.6,1.8,3.2,3.7,4.9,5.6l-12-0.3c-0.6,0-1,0.4-1,1s0.4,1,1,1l13.9,0.3c1.1,1.3,2.2,2.5,3.3,3.8l-6,0.5c-0.6,0-1,0.5-0.9,1.1
		c0,0.6,0.5,1,1.1,0.9l7.4-0.7c1.5,1.7,3,3.5,4.5,5.3l-10.3,0.6c-0.6,0-1,0.5-0.9,1.1c0,0.6,0.5,1,1.1,0.9l11.8-0.7
		c0.4,0.5,0.8,0.9,1.2,1.4l-4.2,0.2c-0.6,0-1,0.5-1,1c0,0.6,0.5,1,1,1l5.7-0.2c0.9,1.1,1.9,2.2,2.8,3.4l-8.1,1
		c-0.6,0.1-0.9,0.6-0.9,1.1c0.1,0.6,0.6,0.9,1.1,0.9l9.4-1.2c1.1,1.3,2.1,2.6,3.2,3.9c0.3,0.4,0.8,0.5,1.2,0.3
		c0.1,0,0.2-0.1,0.2-0.1c0.4-0.4,0.5-1,0.1-1.4c-1.1-1.3-2.2-2.7-3.3-4l1.3-10.4C84.4,279.5,84,279,83.5,279z"/>
</g>
<g>
	<path class="st6" d="M88.1,293.4c0,0-8.3-7.5-8.9-11.5c-0.7-3.9,3.1-1.7,3.4-4.2s-5-8.5-4.1-11.8s5.4-0.1,6.2-3.4
		c0.8-3.4-5.4-9.5-4.3-14.8c1.2-5.3,5.3-0.8,7.4-0.6c2.1,0.2,2.6-3.1,0.7-8.3c-1.8-5.2-0.2-11,1.6-11.7c1.8-0.7,3,4.4,4.8,3.5
		s0.1-13.3,5.3-13.8c5.2-0.5,5.1,9.4,4.6,13.4c-0.5,3.9,3.8-4,5.3-4.7s4.7,1.6-0.2,10.5c-4.9,8.9-5.7,11.5-3.7,12.4
		c2.1,1,4.2-4.4,6.3-3.6c2.2,0.8,0.4,6.9-5,12.8c-5.4,5.9-2.1,8.7,0.1,6.8c2.2-1.8,6.5-0.5,2.7,4.6c-3.8,5-7.3,6.2-8.2,8.1
		c-0.9,1.9,2.9,0.7,3.9,2.7s-7.9,11.1-10.9,13.9C92,296.4,88.1,293.4,88.1,293.4z"/>
	<path class="st6" d="M100.3,282.5c-0.3-0.4-0.8-0.5-1.2-0.3l-6.4,4.2c0.2-1.2,0.4-2.3,0.6-3.5l4.4-3.1c0.4-0.3,0.5-0.8,0.2-1.2
		c-0.3-0.4-0.8-0.5-1.2-0.2l-3,2.1c0.1-0.5,0.2-0.9,0.2-1.4l8.7-6.9c0.4-0.3,0.5-0.9,0.1-1.3c-0.3-0.4-0.9-0.5-1.3-0.1l-7.1,5.7
		c0.3-1.9,0.6-3.8,0.9-5.7l5.5-4.6c0.4-0.3,0.4-0.9,0.1-1.3s-0.9-0.4-1.3-0.1l-4,3.3c0.2-1.3,0.4-2.6,0.6-3.9l9.7-9
		c0.4-0.3,0.4-0.9,0-1.3c-0.3-0.4-0.9-0.4-1.3,0l-8.1,7.5c0.3-2.1,0.6-4.1,0.9-6.1l4.4-5.1c0.3-0.4,0.3-0.9-0.1-1.3
		c-0.4-0.3-0.9-0.3-1.3,0.1l-2.6,3c0.2-1.3,0.3-2.5,0.5-3.7l7.5-8.9c0.3-0.4,0.3-0.9-0.1-1.3c-0.4-0.3-0.9-0.3-1.3,0.1l-5.7,6.8
		c0.2-1.5,0.4-2.9,0.5-4.3l4.4-5.1c0.3-0.4,0.3-0.9-0.1-1.3c-0.4-0.3-0.9-0.3-1.3,0.1l-2.7,3.1c0.8-6.7,1.3-10.8,1.3-10.9
		c0.1-0.5-0.3-0.9-0.8-1s-0.9,0.3-1,0.8c0,0.1-0.5,4.4-1.3,11.3l-2.1-3.3c-0.3-0.4-0.8-0.5-1.2-0.3c-0.4,0.3-0.5,0.8-0.3,1.2
		l3.2,5.1c-0.2,1.5-0.4,3-0.6,4.7l-4-6.7c-0.3-0.4-0.8-0.6-1.2-0.3c-0.4,0.3-0.6,0.8-0.3,1.2l5.2,8.7c-0.2,1.4-0.4,2.8-0.6,4.3
		l-2.6-4.1c-0.3-0.4-0.8-0.5-1.2-0.3c-0.4,0.3-0.5,0.8-0.3,1.2l3.7,5.9c-0.3,2.1-0.6,4.3-0.9,6.5l-6.7-8.3c-0.3-0.4-0.9-0.4-1.3-0.1
		s-0.4,0.9-0.1,1.3l7.8,9.5c-0.2,1.5-0.4,2.9-0.7,4.5l-3.8-3.7c-0.4-0.3-0.9-0.3-1.3,0c-0.3,0.4-0.3,0.9,0,1.3l4.7,4.6
		c-0.3,2-0.6,4-1,6.1l-6.3-6.6c-0.3-0.4-0.9-0.4-1.3,0c-0.4,0.3-0.4,0.9,0,1.3l7.3,7.6c-0.1,0.5-0.2,1.1-0.3,1.6l-2.5-2.7
		c-0.3-0.4-0.9-0.4-1.3,0c-0.4,0.3-0.4,0.9,0,1.3l3.5,3.7c-0.2,1.3-0.4,2.5-0.7,3.8l-5.4-4.9c-0.4-0.3-0.9-0.3-1.3,0.1
		c-0.3,0.4-0.3,0.9,0.1,1.3l6.2,5.7c-0.3,1.5-0.5,2.9-0.8,4.4c-0.1,0.4,0.1,0.8,0.5,1c0.1,0,0.1,0.1,0.2,0.1c0.5,0.1,1-0.2,1-0.7
		c0.3-1.5,0.6-3,0.8-4.5l7.8-5.1C100.4,283.5,100.6,282.9,100.3,282.5z"/>
</g>
<path class="st25" d="M87.1,294.2c0,0-11.4,7.1-16.1,6.6c-4.8-0.5-1-4.2-3.8-5.3c-2.8-1.2-11.4,3-15,0.9c-3.5-2.1,1.7-6.3-1.9-8.3
	s-12.7,3.2-18.4,0.1s0.8-6.4,1.7-8.7c0.9-2.3-2.7-3.9-9.4-3.6c-6.6,0.4-12.7-3.3-13-5.6c-0.2-2.3,6-2,5.6-4.4s-15.3-4.4-14.2-10.6
	c1.1-6.2,12.5-2.8,16.9-0.9c4.4,1.9-3.4-5.7-3.8-7.7c-0.3-2,3.4-5,12.1,3.7c8.7,8.7,11.4,10.3,13.2,8.3c1.8-2.1-3.7-6.2-2.1-8.5
	c1.6-2.2,8.1,1.8,13.1,10c5.1,8.2,9.3,5.2,7.9,2.1c-1.4-3.1,1.6-7.6,6.1-1.6c4.6,6,4.8,10.5,6.7,12.1c1.9,1.6,1.7-3.1,4.4-3.6
	s10.3,12.7,12.4,17.1C91.9,290.7,87.1,294.2,87.1,294.2z"/>
<path class="st26" d="M78.5,276.7c-0.6,0.2-0.9,0.8-0.7,1.3l2.7,8.7c-1.3-0.6-2.5-1.2-3.8-1.8l-2.1-6.1c-0.2-0.6-0.8-0.9-1.4-0.7
	c-0.6,0.2-0.9,0.8-0.7,1.4l1.4,4.1c-0.5-0.2-1-0.5-1.5-0.7l-5.1-12.2c-0.2-0.5-0.9-0.8-1.4-0.6c-0.5,0.2-0.8,0.9-0.6,1.4l4.2,10
	c-2.1-1-4.2-1.9-6.2-2.9l-3.5-7.8c-0.2-0.5-0.9-0.8-1.4-0.5c-0.5,0.2-0.8,0.9-0.5,1.4l2.5,5.6c-1.5-0.7-2.9-1.3-4.3-2l-7.3-14.1
	c-0.3-0.5-0.9-0.7-1.4-0.5c-0.5,0.3-0.7,0.9-0.5,1.4l6,11.8c-2.3-1-4.6-2-6.7-3l-4.4-6.7c-0.3-0.5-1-0.6-1.5-0.3
	c-0.5,0.3-0.6,1-0.3,1.5l2.6,4c-1.4-0.6-2.8-1.2-4.1-1.8l-7.8-11.5c-0.3-0.5-1-0.6-1.5-0.3c-0.5,0.3-0.6,1-0.3,1.5l5.9,8.8
	c-1.7-0.7-3.2-1.4-4.7-2l-4.5-6.8c-0.3-0.5-1-0.6-1.5-0.3c-0.5,0.3-0.6,1-0.3,1.5l2.7,4.1c-7.5-3.1-12.1-5-12.2-5
	c-0.6-0.2-1.2,0-1.4,0.6c-0.2,0.5,0,1.2,0.6,1.4c0.1,0.1,4.9,2,12.6,5.2l-4.5,1.3c-0.6,0.2-0.9,0.8-0.7,1.3c0.2,0.6,0.8,0.9,1.3,0.7
	l6.9-2.1c1.6,0.7,3.4,1.4,5.2,2.2l-9.1,2.5c-0.6,0.2-0.9,0.7-0.8,1.3c0.2,0.6,0.7,0.9,1.3,0.8l11.7-3.2c1.5,0.7,3.1,1.3,4.7,2
	l-5.6,1.7c-0.6,0.2-0.9,0.8-0.7,1.3c0.2,0.6,0.8,0.9,1.3,0.7l8-2.4c2.3,1,4.7,2.1,7.2,3.2l-11.7,5.1c-0.5,0.2-0.8,0.9-0.6,1.4
	s0.9,0.8,1.4,0.6l13.5-5.9c1.6,0.7,3.3,1.5,4.9,2.2l-5.5,3.2c-0.5,0.3-0.7,1-0.4,1.5s1,0.7,1.5,0.4l6.8-3.9c2.2,1,4.4,2,6.7,3.1
	l-9.7,5.2c-0.5,0.3-0.7,0.9-0.4,1.4s0.9,0.7,1.5,0.4l11.1-5.9c0.6,0.3,1.2,0.5,1.7,0.8l-4,2c-0.5,0.3-0.7,0.9-0.5,1.4
	c0.3,0.5,0.9,0.7,1.4,0.5l5.4-2.8c1.4,0.7,2.8,1.3,4.2,2l-7.4,4.6c-0.5,0.3-0.7,1-0.3,1.5c0.3,0.5,1,0.7,1.5,0.3l8.5-5.3
	c1.6,0.8,3.2,1.6,4.8,2.3c0.4,0.2,1,0.1,1.3-0.3c0.1-0.1,0.1-0.1,0.2-0.2c0.3-0.5,0-1.2-0.5-1.4c-1.7-0.8-3.3-1.6-5-2.4l-3.3-10.6
	C79.7,276.8,79.1,276.5,78.5,276.7z"/>
<path class="st25" d="M83.6,294.5c0,0-12.3-5.3-14.6-9.5c-2.3-4.2,2.9-3.2,2.2-6.1c-0.6-2.9-9-7.7-9.3-11.8
	c-0.3-4.1,6.1-2.2,5.7-6.3s-9.9-8.6-10.6-15c-0.8-6.4,5.7-3,8.2-3.6c2.5-0.6,1.7-4.5-2.4-9.7s-4.6-12.3-2.8-13.8
	c1.7-1.5,5.1,3.8,6.8,2c1.7-1.7-5.1-15,0.6-17.7c5.7-2.6,9.5,8.7,10.4,13.3s2.7-6.1,4.1-7.5c1.5-1.4,6-0.1,3.9,12s-2,15.2,0.7,15.5
	s3-6.6,5.7-6.6c2.7,0.1,3.1,7.6-0.7,16.5c-3.8,8.8,1,10.6,2.8,7.7c1.7-2.9,7.2-3.1,4.8,4.1c-2.3,7.2-5.8,9.9-6.1,12.4
	c-0.3,2.5,3.5-0.3,5.5,1.5c2,1.9-4.5,15.7-6.9,20C89.2,296.4,83.6,294.5,83.6,294.5z"/>
<path class="st26" d="M93.1,277.4c-0.5-0.4-1.1-0.3-1.5,0.2l-5.6,7.2c-0.2-1.4-0.5-2.8-0.7-4.2l3.8-5.2c0.3-0.5,0.2-1.1-0.2-1.5
	c-0.5-0.3-1.1-0.2-1.5,0.2l-2.6,3.5c-0.1-0.6-0.2-1.1-0.3-1.7l7.1-11.2c0.3-0.5,0.2-1.2-0.3-1.5s-1.2-0.2-1.5,0.3l-5.8,9.2
	c-0.4-2.3-0.8-4.5-1.2-6.8l4.4-7.3c0.3-0.5,0.1-1.2-0.4-1.5s-1.2-0.1-1.5,0.4l-3.2,5.3c-0.3-1.6-0.6-3.1-0.9-4.7l7.5-14.1
	c0.3-0.5,0.1-1.2-0.4-1.4c-0.5-0.3-1.2-0.1-1.4,0.4l-6.2,11.7c-0.5-2.5-0.9-4.9-1.4-7.2l3-7.5c0.2-0.5,0-1.2-0.6-1.4
	c-0.5-0.2-1.2,0-1.4,0.6l-1.8,4.4c-0.3-1.5-0.6-3-0.9-4.4l5-13c0.2-0.6-0.1-1.2-0.6-1.4c-0.6-0.2-1.2,0.1-1.4,0.6l-3.8,9.9
	c-0.4-1.8-0.7-3.4-1.1-5l3-7.5c0.2-0.5,0-1.2-0.6-1.4c-0.5-0.2-1.2,0-1.4,0.6l-1.8,4.5c-1.7-7.9-2.8-12.7-2.8-12.9
	c-0.1-0.6-0.7-0.9-1.3-0.8c-0.6,0.1-0.9,0.7-0.8,1.3c0,0.1,1.2,5.1,2.9,13.4l-3.6-2.9c-0.5-0.4-1.1-0.3-1.5,0.2s-0.3,1.1,0.2,1.5
	l5.7,4.5c0.4,1.7,0.8,3.6,1.2,5.5l-7.2-6c-0.5-0.4-1.1-0.3-1.5,0.1c-0.4,0.5-0.3,1.1,0.1,1.5l9.3,7.8c0.3,1.6,0.7,3.3,1,5l-4.6-3.6
	c-0.5-0.4-1.1-0.3-1.5,0.2s-0.3,1.1,0.2,1.5l6.5,5.2c0.5,2.5,1,5.1,1.5,7.7l-10.9-6.5c-0.5-0.3-1.2-0.2-1.5,0.4
	c-0.3,0.5-0.2,1.2,0.4,1.5l12.5,7.7c0.3,1.7,0.7,3.5,1,5.3l-5.7-2.7c-0.5-0.3-1.2,0-1.4,0.5c-0.3,0.5,0,1.2,0.5,1.4l7.1,3.4
	c0.4,2.4,0.9,4.8,1.3,7.2l-9.8-5c-0.5-0.3-1.2-0.1-1.4,0.5c-0.3,0.5-0.1,1.2,0.5,1.4l11.2,5.7c0.1,0.6,0.2,1.3,0.3,1.9l-3.9-2.1
	c-0.5-0.3-1.2-0.1-1.4,0.4c-0.3,0.5-0.1,1.2,0.4,1.4l5.4,2.9c0.3,1.5,0.5,3,0.8,4.6l-8-3.4c-0.5-0.2-1.2,0-1.4,0.6
	c-0.2,0.5,0,1.2,0.6,1.4l9.3,4c0.3,1.8,0.6,3.5,0.8,5.3c0.1,0.5,0.5,0.9,0.9,0.9c0.1,0,0.2,0,0.3,0c0.6-0.1,1-0.6,0.9-1.2
	c-0.3-1.8-0.6-3.6-0.9-5.4l6.8-8.8C93.6,278.4,93.5,277.8,93.1,277.4z"/>
<g>
	<g>
		<g>
			<defs>
				<path id="SVGID_00000016758679608139023460000007986253212455023239_" d="M518.9,295.8h-59.1c-16.7,0-30.2-13.5-30.2-30.2l0,0
					c0-30.5,24.7-55.2,55.2-55.2h9c30.5,0,55.2,24.7,55.2,55.2l0,0C549.1,282.3,535.6,295.8,518.9,295.8z"/>
			</defs>
			<clipPath id="SVGID_00000179614720863894399550000015864138288400620677_">
				<use xlink:href="#SVGID_00000016758679608139023460000007986253212455023239_"  style="overflow:visible;"/>
			</clipPath>
			<g style="clip-path:url(#SVGID_00000179614720863894399550000015864138288400620677_);">
				<g>
					<path class="st6" d="M483,289.1c0,0-9.3,5-13-6.6s4.2-19.3,14-22.5s17.3-22.1,28.7-21.5s2.8,17.9-1,28.6
						c-3.9,10.7-4.2,20.6-8.6,25.9C498.6,298.4,487.2,300.4,483,289.1z"/>
					<path class="st6" d="M511.8,252.1c-0.2-0.5-0.8-0.8-1.3-0.6l-2.8,1c2.3-3.2,3.7-5.1,3.8-5.2c0.3-0.4,0.3-1.1-0.2-1.4
						c-0.4-0.3-1.1-0.3-1.4,0.2c-0.1,0.1-1.6,2-4,5.4v-2.7c0-0.5-0.5-1-1-1s-1,0.5-1,1l0.1,5.3c-1.9,2.8-4.3,6.2-6.8,10l-0.2-8.9
						c0-0.5-0.5-1-1-1s-1,0.5-1,1l0.2,11.9c-1,1.6-2.1,3.3-3.2,5l-0.6-6c-0.1-0.5-0.5-0.9-1.1-0.9c-0.5,0.1-0.9,0.5-0.9,1.1l0.9,8.5
						c-1.6,2.6-3.3,5.4-4.9,8.3c-0.8-3.2-2.4-9.5-3.4-13.7c-0.1-0.5-0.7-0.9-1.2-0.7c-0.5,0.1-0.9,0.7-0.7,1.2
						c2.4,10.2,3.4,14.1,3.9,15.7c-6.9,12.3-13.8,26.4-18.4,40.3c-0.2,0.5,0.1,1.1,0.6,1.2c0.1,0,0.2,0.1,0.3,0
						c0.4,0,0.8-0.3,0.9-0.7c4.5-13.8,11.3-27.8,18.2-40c1.8-0.5,10.5-2.4,15.9-3.6c0.5-0.1,0.9-0.6,0.8-1.2
						c-0.1-0.5-0.6-0.9-1.2-0.8c-7.7,1.7-11.9,2.6-14.1,3.1c1.6-2.8,3.3-5.6,4.9-8.2l9.6-3c0.5-0.2,0.8-0.7,0.6-1.2
						c-0.2-0.5-0.7-0.8-1.2-0.6l-7.4,2.3c1.1-1.8,2.2-3.6,3.3-5.2l11.5-5c0.5-0.2,0.7-0.8,0.5-1.3s-0.8-0.7-1.3-0.5l-8.7,3.8
						c2.5-3.8,4.8-7.2,6.7-9.9l5.5-2C511.7,253.2,512,252.7,511.8,252.1z"/>
				</g>
				<g>
					<path class="st6" d="M459.4,283.9c0,0-1.6,9-11.6,5.3c-9.9-3.7-10.9-13.3-7.7-21.7c3.1-8.4-5.6-23.7,0.9-31.2
						c6.6-7.5,13.7,7.8,18.9,16.2c5.2,8.4,11.7,14,13,20C474.2,278.4,469.4,287.2,459.4,283.9z"/>
					<path class="st6" d="M449.9,244.3c-0.4-0.2-0.9,0.1-1.1,0.5l-0.8,2.5c-0.9-3.3-1.4-5.3-1.4-5.4c-0.1-0.5-0.6-0.7-1-0.6
						c-0.5,0.1-0.7,0.6-0.6,1c0,0.1,0.5,2.2,1.5,5.6l-1.8-1.4c-0.4-0.3-0.9-0.2-1.2,0.2c-0.3,0.4-0.2,0.9,0.2,1.2l3.7,2.8
						c0.8,2.8,1.9,6.2,3.1,10.1l-6.2-4.7c-0.4-0.3-0.9-0.2-1.2,0.2c-0.3,0.4-0.2,0.9,0.2,1.2l8.2,6.3c0.5,1.6,1.1,3.2,1.7,4.9
						l-4.4-2.8c-0.4-0.3-0.9-0.2-1.2,0.3c-0.3,0.4-0.1,0.9,0.3,1.2l6.3,4c0.9,2.5,1.9,5.2,3,7.8c-2.7-1.2-7.7-3.5-11.2-5.2
						c-0.4-0.2-0.9,0-1.1,0.4s0,0.9,0.4,1.1c8.2,3.9,11.4,5.4,12.8,5.8c4.6,11.4,10.5,23.7,17.5,34.4c0.3,0.4,0.8,0.5,1.2,0.2
						c0.1-0.1,0.2-0.1,0.2-0.2c0.2-0.3,0.2-0.7,0-1c-6.9-10.6-12.7-22.8-17.3-34.1c0.6-1.5,4-8.4,6.2-12.8c0.2-0.4,0-0.9-0.4-1.2
						c-0.4-0.2-0.9,0-1.2,0.4c-3.1,6.1-4.7,9.5-5.5,11.3c-1-2.6-2-5.2-2.9-7.7l3.2-8.2c0.2-0.4,0-0.9-0.5-1.1
						c-0.4-0.2-0.9,0-1.1,0.5l-2.5,6.3c-0.6-1.8-1.2-3.5-1.8-5.1l2.8-10.6c0.1-0.5-0.2-0.9-0.6-1.1c-0.5-0.1-0.9,0.2-1.1,0.6l-2.1,8
						c-1.2-3.8-2.3-7.2-3.1-9.9l1.6-4.8C450.6,244.9,450.3,244.4,449.9,244.3z"/>
				</g>
				<g>
					<path class="st25" d="M501.5,282.5c0,0-9,1.8-9.2-8.8c-0.2-10.6,8.4-15,17.4-15.2c9-0.2,20-14,29.4-10.6
						c9.3,3.4-2.2,15.6-8.1,23.6c-5.9,7.9-8.7,16.1-13.8,19.4C512.1,294.2,502.2,293,501.5,282.5z"/>
					<path class="st26" d="M534.9,259.1c0-0.5-0.4-0.8-0.9-0.8l-2.6,0.1c2.8-2.1,4.4-3.3,4.5-3.3c0.4-0.3,0.5-0.8,0.2-1.2
						c-0.3-0.4-0.8-0.5-1.2-0.2c-0.1,0.1-1.8,1.3-4.7,3.5l0.6-2.2c0.1-0.5-0.1-0.9-0.6-1.1c-0.5-0.1-0.9,0.1-1.1,0.6l-1.3,4.5
						c-2.3,1.8-5.1,4-8.2,6.6l2.1-7.5c0.1-0.5-0.1-0.9-0.6-1.1c-0.5-0.1-0.9,0.1-1.1,0.6l-2.8,9.9c-1.3,1.1-2.6,2.2-3.9,3.4l1-5.1
						c0.1-0.5-0.2-0.9-0.7-1s-0.9,0.2-1,0.7l-1.4,7.3c-2,1.8-4.1,3.7-6.2,5.7c0.1-2.9,0.5-8.5,0.7-12.3c0-0.5-0.3-0.9-0.8-0.9
						s-0.9,0.3-0.9,0.8c-0.6,9.1-0.8,12.6-0.7,14c-8.9,8.5-18.2,18.5-25.5,28.9c-0.3,0.4-0.2,0.9,0.2,1.2c0.1,0.1,0.2,0.1,0.3,0.1
						c0.3,0.1,0.7,0,0.9-0.3c7.3-10.3,16.5-20.2,25.4-28.7c1.6,0,9.3,0.7,14.1,1.1c0.5,0,0.9-0.3,0.9-0.8s-0.3-0.9-0.8-0.9
						c-6.8-0.6-10.5-0.9-12.6-1c2.1-1.9,4.1-3.8,6.1-5.6h8.8c0.5,0,0.9-0.4,0.9-0.9s-0.4-0.9-0.9-0.9h-6.8c1.4-1.2,2.8-2.4,4.1-3.5
						l10.8-1.3c0.5-0.1,0.8-0.5,0.8-1c-0.1-0.5-0.5-0.8-1-0.8l-8.2,1c3.1-2.5,5.8-4.7,8.1-6.5l5.1-0.3
						C534.6,260,534.9,259.6,534.9,259.1z"/>
				</g>
				<g>
					<path class="st25" d="M472.8,269.9c0,0-7.6,7.2-14.2-2.9s-1.1-19.6,7.5-25.3c8.5-5.7,10.7-25.7,21.8-28.2
						c11.1-2.5,7.5,16.4,6.6,27.7c-0.9,11.3,1.4,20.8-1.4,27.1C490.2,274.7,479.9,279.6,472.8,269.9z"/>
					<path class="st26" d="M490.6,226.9c-0.3-0.4-0.9-0.5-1.4-0.2l-2.4,1.7c1.4-3.7,2.2-5.8,2.3-5.9c0.2-0.5,0-1.1-0.5-1.3
						s-1.1,0-1.3,0.5c0,0.1-1,2.3-2.4,6.2l-0.7-2.5c-0.2-0.5-0.7-0.8-1.2-0.7c-0.5,0.2-0.8,0.7-0.7,1.2l1.5,5.1
						c-1.1,3.2-2.5,7-3.9,11.4l-2.5-8.5c-0.2-0.5-0.7-0.8-1.2-0.7c-0.5,0.2-0.8,0.7-0.7,1.2l3.3,11.3c-0.6,1.8-1.1,3.7-1.7,5.7
						l-2.2-5.5c-0.2-0.5-0.8-0.8-1.3-0.6c-0.5,0.2-0.8,0.8-0.6,1.3l3.1,7.9c-0.8,3-1.7,6-2.5,9.2c-1.7-2.9-4.8-8.5-6.9-12.3
						c-0.3-0.5-0.9-0.6-1.3-0.4c-0.5,0.3-0.6,0.9-0.4,1.3c5,9.1,6.9,12.6,7.9,14c-3.4,13.7-6.2,28.9-6.9,43.5c0,0.5,0.4,1,0.9,1
						c0.1,0,0.2,0,0.3,0c0.4-0.1,0.7-0.5,0.7-0.9c0.7-14.4,3.5-29.6,6.9-43.2c1.6-0.9,9.4-5.1,14.3-7.6c0.5-0.3,0.7-0.8,0.4-1.3
						c-0.3-0.5-0.8-0.7-1.3-0.4c-6.9,3.6-10.7,5.6-12.7,6.7c0.8-3.1,1.6-6.2,2.5-9.1l8.4-5.4c0.5-0.3,0.6-0.9,0.3-1.4
						c-0.3-0.5-0.9-0.6-1.4-0.3l-6.3,4.3c0.6-2,1.2-4,1.8-5.9l9.7-7.9c0.4-0.3,0.5-1,0.1-1.4c-0.3-0.4-1-0.5-1.4-0.1l-7.4,6
						c1.4-4.3,2.7-8.1,3.8-11.2l4.7-3.3C490.8,228,491,227.4,490.6,226.9z"/>
				</g>
			</g>
		</g>
	</g>
</g>
<path class="st28" d="M527.3,302.6h-472c-3.8,0-6.8-2.1-6.8-4.6l0,0c0-2.5,3.1-4.6,6.8-4.6h472c3.8,0,6.8,2.1,6.8,4.6l0,0
	C534.1,300.6,531.1,302.6,527.3,302.6z"/>
<g>
	<path class="st9" d="M423.7,275.8c-3.7,0-6.7,3-6.7,6.7s3,6.7,6.7,6.7s6.7-3,6.7-6.7C430.4,278.8,427.4,275.8,423.7,275.8z
		 M423.7,287.2c-2.6,0-4.6-2.1-4.6-4.6c0-2.6,2.1-4.6,4.6-4.6c2.6,0,4.6,2.1,4.6,4.6C428.3,285.1,426.3,287.2,423.7,287.2z"/>
	<path class="st9" d="M419.4,277.1c0,0-0.2,18-15.8,20.4h-3.9c-15.6-2.4-15.8-20.4-15.8-20.4l17.7,1.3L419.4,277.1z"/>
	<path class="st29" d="M419.4,277.1c0,1.4-7.9,2.5-17.7,2.5c-9.8,0-17.7-1.1-17.7-2.5s7.9-2.5,17.7-2.5
		C411.4,274.5,419.4,275.7,419.4,277.1z"/>
	<path class="st6" d="M414.5,277.1c0,0.7-5.8,1.3-12.9,1.3s-12.9-0.6-12.9-1.3c0-0.7,5.8-1.3,12.9-1.3S414.5,276.4,414.5,277.1z"/>
</g>
<g>
	<path class="st19" d="M223.5,127.4l-9,5.3v11.1c0,3.7-3,6.6-6.6,6.6H154c-3.7,0-6.6-3-6.6-6.6V111c0-3.7,3-6.6,6.6-6.6h53.9
		c3.7,0,6.6,3,6.6,6.6v11.2L223.5,127.4z"/>
	<g>
		<path class="st9" d="M197.9,140.8h-34.1c-1.4,0-2.4-1.1-2.4-2.4v-21.8c0-1.4,1.1-2.4,2.4-2.4h34.1c1.4,0,2.4,1.1,2.4,2.4v21.8
			C200.3,139.7,199.2,140.8,197.9,140.8z"/>
		<polyline class="st30" points="197.1,118.2 180.8,127.4 164.6,118.2 		"/>
	</g>
</g>
<linearGradient id="SVGID_00000039850849904497338910000003377984772737035165_" gradientUnits="userSpaceOnUse" x1="53.1" y1="205.754" x2="120.2" y2="205.754" gradientTransform="matrix(1 0 0 -1 0 326.308)">
	<stop  offset="0" style="stop-color:#FFC05C"/>
	<stop  offset="1" style="stop-color:#FF3857"/>
</linearGradient>
<path style="fill:url(#SVGID_00000039850849904497338910000003377984772737035165_);" d="M120.2,99.7v32.8c0,3.7-3,6.6-6.6,6.6H91.9
	l-5.3,9l-5.3-9H59.7c-3.7,0-6.6-3-6.6-6.6V99.7c0-3.7,3-6.6,6.6-6.6h53.9C117.3,93.1,120.2,96,120.2,99.7z"/>
<g>
	<path class="st19" d="M75.3,116.2c0,2.4-1.9,4.3-4.3,4.3s-4.3-1.9-4.3-4.3c0-2.4,1.9-4.3,4.3-4.3S75.3,113.9,75.3,116.2z"/>
	<path class="st19" d="M91,116.2c0,2.4-1.9,4.3-4.3,4.3s-4.3-1.9-4.3-4.3c0-2.4,1.9-4.3,4.3-4.3C89,111.9,91,113.9,91,116.2z"/>
	<path class="st19" d="M106.7,116.2c0,2.4-1.9,4.3-4.3,4.3s-4.3-1.9-4.3-4.3c0-2.4,1.9-4.3,4.3-4.3
		C104.7,111.9,106.7,113.9,106.7,116.2z"/>
</g>
<g>
	
		<linearGradient id="SVGID_00000155830915569020198130000003322010554609247624_" gradientUnits="userSpaceOnUse" x1="475.448" y1="245.804" x2="483.4189" y2="245.804" gradientTransform="matrix(1 0 0 -1 0 326.308)">
		<stop  offset="0" style="stop-color:#FFC05C"/>
		<stop  offset="1" style="stop-color:#FF3857"/>
	</linearGradient>
	<path style="fill:url(#SVGID_00000155830915569020198130000003322010554609247624_);" d="M482.6,86.4l-2.6,0.8
		c-0.6,0.2-1.3-0.2-1.4-0.8l-3.1-10.3c-0.2-0.6,0.2-1.3,0.8-1.4l2.6-0.8c0.6-0.2,1.3,0.2,1.4,0.8l3.1,10.3
		C483.5,85.6,483.2,86.2,482.6,86.4z"/>
	
		<linearGradient id="SVGID_00000101791706832413686820000012035622876368072352_" gradientUnits="userSpaceOnUse" x1="465.6354" y1="228.6342" x2="488.4" y2="228.6342" gradientTransform="matrix(1 0 0 -1 0 326.308)">
		<stop  offset="0" style="stop-color:#FFC05C"/>
		<stop  offset="1" style="stop-color:#FF3857"/>
	</linearGradient>
	<path style="fill:url(#SVGID_00000101791706832413686820000012035622876368072352_);" d="M472.5,91.7c-0.3,2.3-0.4,5.4,0.5,8.6
		c1,3.2,2.8,5.7,4.3,7.5c1.5,1.7,3.8,2.3,5.9,1.7l2-0.6l3.2,10.5c0,0-15.7,1.7-21.4-17.2c-5.7-18.9,8.3-26.2,8.3-26.2l3.2,10.5
		l-2,0.6C474.4,87.6,472.8,89.5,472.5,91.7z"/>
	
		<linearGradient id="SVGID_00000157310252155074359390000018375757741351526585_" gradientUnits="userSpaceOnUse" x1="485.148" y1="213.204" x2="493.152" y2="213.204" gradientTransform="matrix(1 0 0 -1 0 326.308)">
		<stop  offset="0" style="stop-color:#FFC05C"/>
		<stop  offset="1" style="stop-color:#FF3857"/>
	</linearGradient>
	<path style="fill:url(#SVGID_00000157310252155074359390000018375757741351526585_);" d="M488.6,106.5l-2.6,0.8
		c-0.6,0.2-1,0.8-0.8,1.4l3.1,10.3c0.2,0.6,0.8,1,1.4,0.8l2.6-0.8c0.6-0.2,1-0.8,0.8-1.4l-3.1-10.3
		C489.9,106.7,489.2,106.3,488.6,106.5z"/>
</g>
<path class="st8" d="M463.7,123.8l2-3.6c-3.2-1.5-14.7-7.9-15.9-20.9c-1.6-16.4,8-25.9,8-25.9l9,5.1c0,0-9.1,8.1-9.1,20.2
	c0,11.5,6.9,17.3,9.4,19.1l1.8-3.2l6.2,9.3h-11.4V123.8z"/>
<path class="st8" d="M500.5,70.2l-2,3.6c3.2,1.5,14.7,7.9,15.9,20.9c1.6,16.4-8,25.9-8,25.9l-9-5.1c0,0,9.1-8.1,9.1-20.2
	c0-11.5-6.9-17.3-9.4-19.1l-1.8,3.2l-6.3-9.2H500.5z"/>
<g>
	<path class="st19" d="M502.5,148.7v35.4c0,3.6-2.9,6.6-6.6,6.6h-35.4c-3.6,0-6.6-2.9-6.6-6.6v-35.4c0-3.6,2.9-6.6,6.6-6.6H496
		C499.6,142.1,502.5,145.1,502.5,148.7z"/>
	
		<ellipse transform="matrix(0.7071 -0.7071 0.7071 0.7071 26.6411 385.2015)" class="st9" cx="478.3" cy="160.4" rx="8.7" ry="8.7"/>
	<path class="st9" d="M493.2,187.1v3.5h-29.8v-3.5c0-8.2,6.7-14.9,14.9-14.9c4.1,0,7.8,1.7,10.5,4.4
		C491.5,179.3,493.2,183,493.2,187.1z"/>
</g>
<g>
	<g>
		<path class="st35" d="M424.6,78.9c1.4-1.4,3.7-1.3,5,0.1c1.4,1.4,1.3,3.7-0.1,5c-1.4,1.4-3.7,1.3-5-0.1
			C423.1,82.5,423.1,80.2,424.6,78.9z"/>
		<path class="st36" d="M417.8,56.5c1.2-1.1,3.1-1.1,4.2,0.1s1.1,3.1-0.1,4.2s-3.1,1.1-4.2-0.1C416.6,59.5,416.6,57.6,417.8,56.5z"
			/>
		<path class="st37" d="M398.6,53.9c0.8-0.7,2-0.7,2.7,0.1c0.7,0.8,0.7,2-0.1,2.7c-0.8,0.7-2,0.7-2.7-0.1S397.9,54.6,398.6,53.9z"/>
	</g>
	<g>
		<path class="st35" d="M232.7,90.1c-1.9-0.6-2.9-2.6-2.3-4.5c0.6-1.9,2.6-2.9,4.5-2.3s2.9,2.6,2.3,4.5S234.6,90.8,232.7,90.1z"/>
		<path class="st36" d="M218.2,95.7c-1.6-0.5-2.4-2.2-1.9-3.8c0.5-1.6,2.2-2.4,3.8-1.9s2.4,2.2,1.9,3.8
			C221.5,95.4,219.8,96.2,218.2,95.7z"/>
		<path class="st37" d="M224.8,112.1c-1-0.3-1.5-1.4-1.2-2.4s1.4-1.5,2.4-1.2s1.5,1.4,1.2,2.4C226.8,111.9,225.8,112.4,224.8,112.1z
			"/>
	</g>
</g>
<linearGradient id="SVGID_00000127001830593782959390000002099342594522930337_" gradientUnits="userSpaceOnUse" x1="98.3" y1="103.404" x2="244.4" y2="103.404" gradientTransform="matrix(1 0 0 -1 0 326.308)">
	<stop  offset="0" style="stop-color:#40D5E6"/>
	<stop  offset="1" style="stop-color:#5577FF"/>
</linearGradient>
<path style="fill:url(#SVGID_00000127001830593782959390000002099342594522930337_);" d="M116.5,267l-18.2-87.3c0-0.1,0-0.3,0-0.4
	c0-1,0.8-1.9,1.9-1.9h125.2l19,91.1h-126C117.4,268.5,116.7,267.9,116.5,267z"/>
<linearGradient id="SVGID_00000137109979631179376070000015670316625095610260_" gradientUnits="userSpaceOnUse" x1="225.4" y1="103.404" x2="251.3342" y2="103.404" gradientTransform="matrix(1 0 0 -1 0 326.308)">
	<stop  offset="0" style="stop-color:#40D5E6"/>
	<stop  offset="1" style="stop-color:#5577FF"/>
</linearGradient>
<path style="fill:url(#SVGID_00000137109979631179376070000015670316625095610260_);" d="M231.2,177.4h-5.8l19,91.1h5
	c0.1,0,0.3,0,0.4,0c1-0.2,1.7-1.2,1.5-2.2L233.1,179C232.9,178,232.1,177.4,231.2,177.4z"/>
<linearGradient id="SVGID_00000091733614024669676600000014941771136959101603_" gradientUnits="userSpaceOnUse" x1="132.4135" y1="56.9833" x2="183.4" y2="56.9833" gradientTransform="matrix(1 0 0 -1 0 326.308)">
	<stop  offset="0" style="stop-color:#40D5E6"/>
	<stop  offset="1" style="stop-color:#5577FF"/>
</linearGradient>
<path style="fill:url(#SVGID_00000091733614024669676600000014941771136959101603_);" d="M133.7,296.6c-1-0.3-1.5-1.4-1.2-2.4
	l17.7-50.9c0.3-0.8,1-1.3,1.8-1.3h31.4l-19,54.7h-30.1C134.1,296.8,133.9,296.7,133.7,296.6z"/>
<path d="M189,244c0-1-0.8-1.9-1.9-1.9h-3.7l-19,54.7h5c0.8,0,1.5-0.5,1.8-1.3l17.7-50.9C189,244.4,189,244.2,189,244z"/>
<path d="M177.9,223L177.9,223c0,2.4-1.9,4.3-4.3,4.3h-5c-2.4,0-4.3-1.9-4.3-4.3l0,0c0-2.4,1.9-4.3,4.3-4.3h5
	C176,218.6,177.9,220.6,177.9,223z"/>
</svg>
