<?xml version="1.0" encoding="utf-8"?>
<!-- Generator: Adobe Illustrator 26.1.0, SVG Export Plug-In . SVG Version: 6.00 Build 0)  -->
<svg version="1.1" id="Layer_1" xmlns="http://www.w3.org/2000/svg" xmlns:xlink="http://www.w3.org/1999/xlink" x="0px" y="0px"
	 viewBox="0 0 500 500" style="enable-background:new 0 0 500 500;" xml:space="preserve">
<style type="text/css">
	.st0{opacity:0.1;fill:#FFFFFF;enable-background:new    ;}
	.st1{opacity:0.36;fill:#7DBBF1;enable-background:new    ;}
	.st2{fill:#48BE97;}
	.st3{fill:none;stroke:#48BE97;stroke-width:2.0108;stroke-linecap:round;stroke-miterlimit:10;}
	.st4{fill:#36A871;}
	.st5{fill:none;stroke:#FFFFFF;stroke-width:0.794;stroke-linecap:round;stroke-miterlimit:10;}
	.st6{fill:none;stroke:#FFFFFF;stroke-width:0.7248;stroke-linecap:round;stroke-miterlimit:10;}
	.st7{fill:none;stroke:#36A871;stroke-width:1.3805;stroke-linecap:round;stroke-miterlimit:10;}
	.st8{fill:url(#SVGID_1_);}
	.st9{fill:url(#SVGID_00000003804919649487835270000009625209426942487972_);}
	.st10{fill:#0A1930;}
	.st11{fill:none;stroke:#7DBBF1;stroke-width:0.8477;stroke-linecap:round;stroke-linejoin:round;stroke-miterlimit:10;}
	.st12{fill:#F4A484;}
	.st13{fill:none;stroke:#E08D68;stroke-width:0.5651;stroke-linecap:round;stroke-linejoin:round;stroke-miterlimit:10;}
	.st14{fill:#24292D;}
	.st15{fill:url(#SVGID_00000091728020857455022320000008904251357265016199_);}
	.st16{fill:url(#SVGID_00000097500338331394974610000008845769420314333079_);}
	.st17{opacity:0.36;fill:#FE5456;enable-background:new    ;}
	.st18{fill:#021946;}
	.st19{opacity:0.36;fill:#021946;enable-background:new    ;}
	.st20{fill:#E08D68;}
	.st21{fill:#E5744C;}
	.st22{fill:#FFFFFF;}
	.st23{fill:#FE5456;}
	.st24{fill:#1B84C1;}
	.st25{fill:url(#SVGID_00000130606054265340198100000012104802809764624771_);}
	.st26{opacity:0.2;fill:#712A5C;enable-background:new    ;}
	.st27{fill:url(#SVGID_00000111189653909513500010000003092945947062691473_);}
	.st28{fill:url(#SVGID_00000122710373098204379190000003376496984337553309_);}
	.st29{fill:url(#SVGID_00000026137461624973942520000016472723116990958219_);}
	.st30{fill:url(#SVGID_00000027570812440102369090000001104340422975740842_);}
	.st31{fill:url(#SVGID_00000168822783104013209550000017773050742103499939_);}
	.st32{fill:url(#SVGID_00000091696038206461550120000008773711912996095621_);}
	.st33{fill:url(#SVGID_00000160164005820547680670000005387275992331488929_);}
	.st34{fill:url(#SVGID_00000101089649968390254200000011568031900519497914_);}
	.st35{fill:url(#SVGID_00000068672462078158811380000009427877584029297800_);}
	.st36{fill:url(#SVGID_00000005976554182507447860000000141464905584628894_);}
	.st37{fill:url(#SVGID_00000176741833135810452630000012723451572701032877_);}
</style>
<g id="BACKGROUND">
</g>
<circle class="st0" cx="208.8" cy="175.8" r="169.9"/>
<ellipse class="st1" cx="256.1" cy="479.7" rx="233.9" ry="15.6"/>
<g>
	<path class="st2" d="M184.5,329.2c0,0-0.7-13.5-19.7-20.7C164.7,308.6,167.7,326.8,184.5,329.2z"/>
	<path class="st2" d="M183,353.1c0,0-2-17.4-27.3-25.1C155.7,328,161,351.3,183,353.1z"/>
	<path class="st2" d="M189.3,387.6c0,0-2.9-20.2-32.6-28.3C156.7,359.3,163.7,386.2,189.3,387.6z"/>
	<path class="st2" d="M210,423.7c0,0-11.2-21.8-48.2-19.3C161.8,404.4,180.4,432.3,210,423.7z"/>
	<path class="st2" d="M184.4,329.5c0,0,2.6-13.2,22.5-17.6C207,311.9,201.4,329.5,184.4,329.5z"/>
	<path class="st2" d="M182.5,353.3c0,0,4.5-16.9,30.6-20.9C213.1,332.4,204.4,354.7,182.5,353.3z"/>
	<path class="st2" d="M188.8,387.4c0,0-2.5-20.2,24-35.9C212.8,351.5,213.1,379.4,188.8,387.4z"/>
	<path class="st2" d="M208.4,423.9c0,0-9.9-22.4,15.3-49.6C223.6,374.3,233.6,406.3,208.4,423.9z"/>
	<path class="st3" d="M184.8,328.8c0,0-18.7,77.7,66.8,133.3"/>
</g>
<g>
	<path class="st2" d="M325.5,354.2c0,0,2.5-13.3,22.4-17.7C347.9,336.4,342.5,354.1,325.5,354.2z"/>
	<path class="st2" d="M323.2,378.2c0,0,4.4-17,30.5-21.1C353.7,357.1,345.2,379.5,323.2,378.2z"/>
	<path class="st2" d="M312.9,410.7c0,0,10.5-17.5,41-13.4C353.9,397.3,337,419.4,312.9,410.7z"/>
	<path class="st2" d="M288.2,444.2c0,0,17.8-16.9,51.9-2.3C340.1,441.9,313.3,462.1,288.2,444.2z"/>
	<path class="st2" d="M325.5,354.4c0,0-0.8-13.5-19.9-20.5C305.6,333.9,308.7,352.1,325.5,354.4z"/>
	<path class="st2" d="M323.2,378.2c0,0-2.1-17.4-27.5-24.9C295.8,353.3,301.3,376.5,323.2,378.2z"/>
	<path class="st2" d="M313.2,411.2c0,0,5.3-19.7-18.8-38.8C294.4,372.4,290.2,399.9,313.2,411.2z"/>
	<path class="st2" d="M288.7,444.7c0,0,12.9-20.9-8.3-51.3C280.5,393.4,266.1,423.7,288.7,444.7z"/>
	<path class="st3" d="M325.3,353.7c0,0,2.7,65.3-48.4,99.7"/>
</g>
<g>
	<path class="st4" d="M80.7,479.7c5.8-12.5,16-49.2,0.2-56.9c-9.9-4.8-12.8,3.4-12.8,3.4s7.2-40.1-9.8-40.2
		c-9.9,0-11.6,11.3-11.6,11.3s-5.4-12.6-12-16.2c-14.3-7.9-31.4,0.3-18.2,22.7c3.6,6.1,8.6,10.5,8.6,10.5s-14.9-5.6-16.4,5.1
		C7.2,430,35.6,447,35.6,447s-8.5,0.3-8.8,10.1c-0.5,13.2,26.9,22.6,26.9,22.6H80.7z"/>
	<path class="st5" d="M26.7,390.9c18.6,27.2,33.8,35.3,46.3,86"/>
</g>
<g>
	<path class="st2" d="M93.3,479.7c-0.6-18.6,26.8-57.2,10.2-66.6c-10.4-5.9-13.4,4.7-13.4,4.7s23.5-39.8,1-42.5
		c-7.8-0.9-12.4,10.5-12.4,10.5s-0.2-20.5-6.5-28.2c-10.2-12.5-31.6-5.5-26.6,21.5c2.8,14.8,12.9,20.7,12.9,20.7s-10.3-7.9-15.2,2.5
		C36.9,416.1,59,434,59,434s-9.9-7.3-16.4,4.6c-8.8,16.1,24.7,41.1,24.7,41.1H93.3z"/>
	<path class="st5" d="M63.6,372.6c12.6,31.9,19.1,67,21.8,104"/>
</g>
<g>
	<path class="st4" d="M423.6,479.7c4.1-15.1-15.6-44.8-0.3-52.5c9.6-4.8,14.7,0.1,14.7,0.1s-11.3-30,7.4-32.2
		c6.5-0.8,8.5,5.1,8.5,5.1s2.6-8.9,9.6-14.5c13.3-10.6,30.6-6.6,21.3,15.3c-5.1,12-9.1,13.8-9.1,13.8s9.2-1.8,11.2,6.6
		c2.7,11.2-19.4,30-19.4,30s7.9,0.7,9,6.7c2.3,13.1-25.5,21.6-25.5,21.6H423.6z"/>
	<path class="st6" d="M478.8,388c-25.4,20.6-26.4,62.7-39.3,86.9"/>
</g>
<g>
	<path class="st2" d="M412.1,479.7c-9.2-15.1-29.2-59.6-14.6-68.9c9.2-5.8,14.3,4.2,14.3,4.2s-17.6-48.6,0.2-48.7
		c10.4-0.1,15,13.7,15,13.7s3.5-14.3,8.5-22.8c11.4-19.7,38.1-11.8,28.6,19.5c-2.4,7.9-9.6,18-9.6,18s16.6-1,16.1,13.3
		c-0.4,13.6-23.4,26.4-23.4,26.4s15.3-3.4,18.1,8.5c3.8,16-29.9,36.9-29.9,36.9h-23.3V479.7z"/>
	<path class="st6" d="M451.5,365c-12.8,43.5-31.6,50-31.9,111.4"/>
</g>
<g>
	<path class="st4" d="M256.2,366.8c0,0,1-9.2,14.4-13.3C270.7,353.5,267.8,365.9,256.2,366.8z"/>
	<path class="st4" d="M256.2,383.2c0,0,2.1-11.8,19.8-16C276,367.2,271.3,383,256.2,383.2z"/>
	<path class="st4" d="M250.4,406.6c0,0,2.9-13.7,23.5-18C273.9,388.6,268,406.8,250.4,406.6z"/>
	<path class="st4" d="M234.6,430.4c0,0,8.7-14.4,33.9-11.1C268.5,419.3,254.5,437.6,234.6,430.4z"/>
	<path class="st4" d="M256.2,367c0,0-1.2-9.2-14.7-13C241.6,354,244.6,366.3,256.2,367z"/>
	<path class="st4" d="M256.6,383.4c0,0-2.3-11.8-20.1-15.6C236.5,367.8,241.5,383.4,256.6,383.4z"/>
	<path class="st4" d="M250.7,406.5c0,0,2.6-13.7-14.8-25.6C235.9,380.9,234.4,399.9,250.7,406.5z"/>
	<path class="st4" d="M235.7,430.7c0,0,7.8-14.9-8.3-34.7C227.4,396,219.2,417.5,235.7,430.7z"/>
	<path class="st7" d="M256.1,366.5c0,0,9.4,54.1-51.6,88.4"/>
</g>
<linearGradient id="SVGID_1_" gradientUnits="userSpaceOnUse" x1="222.6505" y1="343.269" x2="17.1412" y2="619.2728" gradientTransform="matrix(1 0 0 -1 0 500)">
	<stop  offset="0" style="stop-color:#7C3596"/>
	<stop  offset="1" style="stop-color:#3098FF"/>
</linearGradient>
<path class="st8" d="M257.7,479.7c-15.6,0-14.8,0-17.6,0c-12.2,0-31.3-34.3-31.3-47.6c0-13.2,19-48.3,31.3-48.3c6,0,2,0,17.6,0
	s27.9,4.9,36.6,14.4c8.4,9.2,12.6,20.6,12.6,33.8c0,13.3-4.3,24.7-12.8,33.7C285.5,475,273.2,479.7,257.7,479.7z M211.1,342.4
	l0.3-13.8c0.5-23.8,3.7-42.3,9.9-56.7c6.2-14.5,18.1-29.8,36.4-46.7l0.3-0.3l42.3-36.9c15.4-14.8,22.9-29.9,22.9-46.1
	c0-15.4-4.4-26.9-13.5-35.2c-9.3-8.5-23.7-12.8-42.8-12.8c-19,0-34.3,4.1-45.2,12.2c-10,7.4-14.7,16.6-14.7,29.1v13.5h-87.3
	l0.2-13.7c0.5-34,14.9-61.8,43-82.6c26.8-19.9,61.8-30.1,104-30.1c43.9,0,79,10.4,104.2,30.9c26,21.2,39.2,50.5,39.2,87
	c0,35.9-19.2,71.3-57.1,104.9l-0.3,0.3l-35.1,29.4c-12.9,12.3-19.2,29.9-19.2,54v13.5L211.1,342.4L211.1,342.4z"/>
<linearGradient id="SVGID_00000047034288881201850260000001540691891567560847_" gradientUnits="userSpaceOnUse" x1="102" y1="249" x2="392.6" y2="249" gradientTransform="matrix(1 0 0 -1 0 500)">
	<stop  offset="0" style="stop-color:#7C3596"/>
	<stop  offset="1" style="stop-color:#3098FF"/>
</linearGradient>
<path style="fill:url(#SVGID_00000047034288881201850260000001540691891567560847_);" d="M240.1,479.7c-15.6,0-27.8-4.7-36.4-14
	c-8.3-9-12.5-20.3-12.5-33.6c0-13.2,4.2-24.6,12.4-33.7c8.6-9.6,20.9-14.5,36.5-14.5s27.9,4.9,36.6,14.4
	c8.4,9.2,12.6,20.6,12.6,33.8c0,13.3-4.3,24.7-12.8,33.7C267.9,475,255.6,479.7,240.1,479.7z M193.5,342.4l0.3-13.8
	c0.5-23.8,3.7-42.3,9.9-56.7c6.2-14.5,18.1-29.8,36.4-46.7l0.3-0.3l42.3-36.9c15.4-14.8,22.9-29.9,22.9-46.1
	c0-15.4-4.4-26.9-13.5-35.2c-9.3-8.5-23.7-12.8-42.8-12.8c-19,0-34.3,4.1-45.2,12.2c-10,7.4-14.7,16.6-14.7,29.1v13.5H102l0.2-13.7
	c0.5-34,14.9-61.8,43-82.6c26.8-19.9,61.8-30.1,104-30.1c43.9,0,79,10.4,104.2,30.9c26,21.2,39.2,50.5,39.2,87
	c0,35.9-19.2,71.3-57.1,104.9l-0.3,0.3l-35.1,29.4c-12.9,12.3-19.2,29.9-19.2,54v13.5L193.5,342.4L193.5,342.4z"/>
<g>
	<path class="st10" d="M128.5,461c0.4,5.7-1.4,18.4,0.1,18.7h42c0,0,0.4-6.4-4.6-7.8c-6.6-1.9-14.7-3.2-17.7-5.9
		c-1.5-1.3-2.2-5-2.2-5L128.5,461L128.5,461z"/>
	<path class="st11" d="M159,470.1c0,0-5.3-0.5-7.2,2.6"/>
	<path class="st11" d="M154.2,468.7c0,0-5.3-0.5-7.2,2.6"/>
</g>
<g>
	<path class="st10" d="M104,461c-0.5,8.2,0.9,18-1.4,18.7H74.7c0,0-0.4-4.6,3.3-8.4c1.5-1.6,5.1-3.3,6.8-5c1.5-1.5,1.7-5.3,1.7-5.3
		L104,461L104,461z"/>
	<path class="st11" d="M87.2,471.1c0,0-3.6-4.2-8.1-0.8"/>
	<path class="st11" d="M91.6,469c0,0-5.3-4.4-9.4-1"/>
</g>
<g>
	<path class="st12" d="M159,233.9c1.2,7.5,0.8,15.6,1.2,15.2c1-1.1,13-7,13.9-7.4c4.4-2.2,7.8-2.1,10.3-2c0.8,0,3.2-0.1,3.2-0.1
		s1.9-0.5,3.2,0.1s1.7,1.7,0.5,2.1c-1.1,0.4-3.2,0.7-3.2,0.7s4.3-0.1,7.7-0.4c1.3-0.1,1.4,1.6,1.4,1.6s0.5-0.1,0.8-0.1
		c1.7-0.4,2.4,2.2,1.7,2.4c-1.2,0.3-1.9,0.4-1.9,0.4c0.4,0.2,1.2,1.4,0.1,1.7c-1.2,0.3-4.3,1-4.3,1c0.7,0,1.4,1.4,0.9,1.6
		c-1.7,0.6-7.7,2.1-8.5,2.2c-0.8,0.1-4.6,0-6.3-0.2c-1.4-0.2-4.3-0.9-4.3-0.9s-19.4,15.8-22.2,15.1c-2.1-0.5-6.2-3.1-6.9-6.9
		s-5.3-26.5-5.3-26.5C142.7,222,157.1,222.5,159,233.9z"/>
	<path class="st13" d="M173.9,246c0,0-0.1,3.7,1.1,5.4"/>
	<path class="st13" d="M185.2,242.8c0,0-1.9,3.2-7.9,2.8c4.5,0.8,7.4,5.4,7.4,5.4"/>
	<line class="st13" x1="193.1" y1="249" x2="186.6" y2="250"/>
	<line class="st13" x1="196.7" y1="246.3" x2="187" y2="247.4"/>
	<line class="st13" x1="196.3" y1="243.7" x2="187.5" y2="244.5"/>
</g>
<path class="st14" d="M141,153.6c0,0,1.8,1.9,2.2,6c0.4,4.2-2.8,9.7-2.8,9.7L141,153.6z"/>
<linearGradient id="SVGID_00000058571649593565717540000017390930541847601560_" gradientUnits="userSpaceOnUse" x1="137.3327" y1="221.9853" x2="137.3327" y2="22.0146" gradientTransform="matrix(1 0 0 -1 0 500)">
	<stop  offset="0" style="stop-color:#FFC05C"/>
	<stop  offset="1" style="stop-color:#FF3857"/>
</linearGradient>
<path style="fill:url(#SVGID_00000058571649593565717540000017390930541847601560_);" d="M153.1,289.9c1.4,12.9-6,172.8-6,172.8
	h-18.7c0,0-5.9-113.8-5.1-130.4s-2.8-32.3-1.7-42.4C122.7,279.8,150.9,268.2,153.1,289.9z"/>
<linearGradient id="SVGID_00000018235160386840285350000006553873945492384384_" gradientUnits="userSpaceOnUse" x1="106.75" y1="230.7805" x2="106.75" y2="-20.526" gradientTransform="matrix(1 0 0 -1 0 500)">
	<stop  offset="0" style="stop-color:#FFC05C"/>
	<stop  offset="1" style="stop-color:#FF3857"/>
</linearGradient>
<path style="fill:url(#SVGID_00000018235160386840285350000006553873945492384384_);" d="M128.1,290.4c0,57.8-23.4,172.3-23.4,172.3
	H85.4c0,0,9.7-130.3,10.1-146.9c0.3-12,1.6-20.3,2.8-30.4C100.3,268.3,128.1,268.6,128.1,290.4z"/>
<path class="st17" d="M153.3,302c-0.9-0.5-1.8-1-2.8-1.6c-2.8-1.7-3.6-1.3-22.5-0.1c-0.2,0-0.5,0-0.7,0c-1.9,0.1-3.7,0.1-5.5,0.1
	c-11.9-0.5-21.7-4.7-24.5-6c0.4-2.9,0.7-5.8,1.1-8.9c1.7-14.7,22.7-16.5,28.4-2.8c8.5-6.5,24.8-9,26.5,7.3
	C153.3,291.6,153.3,295.9,153.3,302z"/>
<path class="st18" d="M147.3,197.9c13.7,12.9,13,47.1,13,47.1s-12.6,8.4-20.1,5.1c0,0-5.7-35.1-2.7-46
	C139.2,197.6,144.7,195.5,147.3,197.9z"/>
<path class="st19" d="M156.8,230.5c-0.2,6.6-0.1,12.7-0.5,16.8c-4.3,2.2-11.3,5-16.2,2.9c0,0-5.7-35.1-2.7-46c0.8-2.9,2.3-4.9,4-6.1
	l5.9-0.2l0,0C148,198.7,157.5,206.4,156.8,230.5z"/>
<path class="st18" d="M112.1,192.7c0,0-20.1,3.3-20.7,7c-0.6,3.7,7,56.6,7,69c0,12.4-1.5,24.2-1.5,24.2s16.1,4.5,31.5,4.2
	s25.2-2.6,25.2-2.6s-0.9-15.3-1.2-25.4c-0.3-10.2,2.1-39.8,2.1-50.7c0-9.4-4.4-17.2-7.3-20.5c-2.4-2.8-15-5.7-15-5.7L112.1,192.7z"
	/>
<path class="st19" d="M102.5,264.6c-1.7,3.1-3.1,5.7-4.2,7.9c0-1.2,0.1-2.5,0.1-3.8c0-8.3-3.4-34.4-5.5-52.1l15.6-9
	C110.4,213.7,110.4,250.3,102.5,264.6z"/>
<path class="st20" d="M113.9,185.3l-1.8,7.5c0,0,7.9,13.2,17.2,11.8c9.3-1.3,3-12.4,3-12.4l0.4-4.9l-17.2-10.2L113.9,185.3z"/>
<path class="st12" d="M141.9,157.1c0.5,2.5,0.3,10.6-0.2,16.8c-0.5,6-2.1,14.8-5.5,15.5c-3.4,0.8-18.1-2.1-18.8-10.5
	c-2.5-2-12-13.6-8.7-19.4C114.6,149.2,140.3,149.2,141.9,157.1z"/>
<ellipse class="st14" cx="129.9" cy="169.8" rx="1" ry="1.5"/>
<path class="st14" d="M140.1,169.4c0,0.8-0.5,1.5-1,1.5s-1-0.7-1-1.5s0.5-1.5,1-1.5S140.1,168.5,140.1,169.4z"/>
<g>
	<path class="st14" d="M131.6,166.1c-1.9-0.7-3.7-0.5-5.2,0.9C127.2,164.8,130.2,164.5,131.6,166.1L131.6,166.1z"/>
</g>
<g>
	<path class="st14" d="M136.1,165.7c1.4-1.6,4.4-1.3,5.2,0.9C139.9,165.1,138,165,136.1,165.7L136.1,165.7z"/>
</g>
<g>
	<path class="st21" d="M135.4,171.6c0.4,2.1,2.2,4.2,3,6.1c0.9,1.9-1.8,2.3-3.1,2.3v-0.1c0.9-0.4,2.1-0.7,2.5-1.4
		c-0.2-1.1-1.3-3.2-1.7-4.3C135.7,173.4,135.4,172.6,135.4,171.6L135.4,171.6L135.4,171.6z"/>
</g>
<path class="st22" d="M138.6,181.4c0,0-2.8-0.3-5.5,1.1c0,0,4.7,0.7,5.1,0.2C138.7,182.2,138.6,181.4,138.6,181.4z"/>
<path class="st14" d="M142.4,159.3c-0.7,1.6-5.9,3.9-15.3,3.4c0,0,4.7-1.3,5.7-5c0,0-3.8,5.8-11.2,5.6c0,0,0.6,5.2-2.5,10.5
	c0,0-2.1,2.8-1.8,5c0.3,2.1-1.9,5.9-3.4,6.8c-0.9-6.7-7.9-19.8-6.5-27.2c1.4-7.5,8.1-7.6,8.1-7.6c3.1-4.9,14.4-6.9,21.7-2.8
	C142.7,151.1,143.7,156.3,142.4,159.3z"/>
<path class="st12" d="M119.9,171.6c-1.6-3.9-6.9-3.5-6.9-0.3c0,5.3,3.2,6.9,4.3,7.6C118.5,179.6,120.9,173.9,119.9,171.6z"/>
<g>
	<path class="st12" d="M104,242.6c-1.2,7.5-2.5,14.9-2,14.6c1.3-0.7,19.3,0.2,20.5-0.1c5.8-1.3,9,0.2,11.1,0.9l3.1,0.9
		c0,0,1.9,0.2,3,1.1c1.1,1,1.1,2.1-0.2,2.1c-1.2,0-3.2-0.3-3.2-0.3s4.1,1.2,7.4,2c1.2,0.3,0.8,2,0.8,2s0.5,0.1,0.8,0.1
		c1.8,0.2,1.6,2.8,0.9,2.8c-1.2,0-2-0.2-2-0.2c0.4,0.3,0.7,1.7-0.4,1.6c-1.2,0-4.4-0.4-4.4-0.4c0.7,0.2,0.9,1.8,0.4,1.8
		c-1.9,0.1-7.9-0.4-8.8-0.6c-0.7-0.2-4.4-1.4-6-2.2c-1.2-0.6-3.9-1.6-3.9-1.6s-27.1,3.7-30,3.1c-2.6-0.5-6.6-2.8-6.7-7
		c-0.1-3.9,1.7-26.7,1.7-26.7C91.4,226.4,105.8,231.2,104,242.6z"/>
	<path class="st13" d="M120.9,266.9c0,0-0.6-1.9-0.2-4.1"/>
	<path class="st13" d="M133.4,261.4c0,0-2.8,2.4-8.3,0.2c4,2.2,5.3,7.4,5.3,7.4"/>
	<line class="st13" x1="139" y1="269.7" x2="132.5" y2="268.6"/>
	<line class="st13" x1="143.3" y1="268.2" x2="133.7" y2="266.3"/>
	<line class="st13" x1="143.7" y1="265.6" x2="135.1" y2="263.7"/>
</g>
<path class="st18" d="M91.3,199.7C84.6,213,84.4,243,84.4,243s13.2,6.8,21,3.7c0,0,5.1-28.6,3.1-39.1
	C107.3,201.2,94.6,193.2,91.3,199.7z"/>
<g>
	<path class="st23" d="M373.4,461c-0.4,5.7,1.4,18.4-0.1,18.7h-42c0,0-0.4-6.4,4.6-7.8c6.6-1.9,14.7-3.2,17.7-5.9
		c1.5-1.3,2.2-5,2.2-5L373.4,461L373.4,461z"/>
	<path class="st11" d="M342.9,470.1c0,0,5.3-0.5,7.2,2.6"/>
	<path class="st11" d="M347.7,468.7c0,0,5.3-0.5,7.2,2.6"/>
</g>
<g>
	<path class="st23" d="M397.9,461c0.5,8.2-0.9,18,1.4,18.7h27.9c0,0,0.4-4.6-3.3-8.4c-1.5-1.6-5.1-3.3-6.8-5
		c-1.5-1.5-1.7-5.3-1.7-5.3L397.9,461L397.9,461z"/>
	<path class="st11" d="M414.7,471.1c0,0,3.6-4.2,8.1-0.8"/>
	<path class="st11" d="M410.3,469c0,0,5.3-4.4,9.4-1"/>
</g>
<path class="st18" d="M347.5,289.4c-1.4,12.9,7.7,173.3,7.7,173.3h18.7c0,0,5.9-113.8,5.1-130.4s2.8-32.3,1.7-42.4
	C379.6,279.8,349.7,267.7,347.5,289.4z"/>
<path class="st18" d="M374.2,290.4c0,57.8,23.4,172.3,23.4,172.3h19.3c0,0-9.7-130.3-10.1-146.9c-0.3-12-1.6-20.3-2.8-30.4
	C402,268.3,374.2,268.6,374.2,290.4z"/>
<path class="st19" d="M405.2,294.8c-3.2,1.4-12.9,5.2-24.6,5.2c-1.1,0-2.2,0-3.3-0.1c-1-0.1-2-0.1-3-0.2
	c-14.1-0.7-21.9-0.4-24.3,0.3c-1,0.3-1.9,1.1-2.6,2c-0.1-6.4-0.2-10.8,0-12.6c1.7-16.4,19.3-13.5,28.1-6.7c1.4-3.4,3.8-5.9,6.5-7.5
	l13.3-1c4.4,1.7,7.9,5.4,8.6,11.1C404.4,288.7,404.8,291.7,405.2,294.8z"/>
<path class="st24" d="M355.9,197.9c-13.7,12.9-13,47.1-13,47.1s12.6,8.4,20.1,5.1c0,0,5.7-35.1,2.7-46
	C363.9,197.6,358.4,195.5,355.9,197.9z"/>
<linearGradient id="SVGID_00000000938841835946717680000015181698366923821955_" gradientUnits="userSpaceOnUse" x1="346.931" y1="255.3928" x2="414.0623" y2="255.3928" gradientTransform="matrix(1 0 0 -1 0 500)">
	<stop  offset="0" style="stop-color:#FFC05C"/>
	<stop  offset="1" style="stop-color:#FF3857"/>
</linearGradient>
<path style="fill:url(#SVGID_00000000938841835946717680000015181698366923821955_);" d="M394.3,192.7c0,0,19.2,6.1,19.8,9.8
	c0.6,3.7-10,53.2-10,65.6c0,12.4,1.4,24.8,1.4,24.8s-16.1,4.5-31.5,4.2s-26.9-3.1-26.9-3.1s0.8-15.2,1.1-25.4
	c0.3-10.2,0.5-39.4,0.5-50.3c0-9.4,4.4-17.2,7.3-20.5c2.4-2.8,18.1-5.7,18.1-5.7L394.3,192.7z"/>
<path class="st26" d="M404,268.1c0,3.5,0.1,6.9,0.3,10.1c-3.1-6-8.8-11.6-11.8-12.5c-3.7-1.2-35.2-14.1-37.7-13.5
	c-1.3,0.3-4.1-0.1-6.4-0.5c0.1-3.6,0.1-7.5,0.1-11.2l16.5-46.2c4.6-1.2,9.1-2,9.1-2c-1.4,1.1-3.2,7.2-4.6,10.3s-9,35-9,35l25.7,2.6
	c3.2-24.6,10.1-34.4,10.1-34.4l15.3,12.9C408.7,235.3,404,259.9,404,268.1z"/>
<path class="st20" d="M392.4,185.3l1.8,7.5c0,0-7.9,13.2-17.2,11.8c-9.3-1.3-3-12.4-3-12.4l-0.4-4.9l17.2-10.2L392.4,185.3z"/>
<path class="st12" d="M365.1,157.2c-0.5,2.5-1,10.5-0.5,16.7c0.5,6,2.1,14.8,5.5,15.5c3.4,0.8,18.1-2.1,18.8-10.5
	c2.5-2,12-13.6,8.7-19.4C391.7,149.2,366.7,149.2,365.1,157.2z"/>
<ellipse class="st14" cx="376.5" cy="169.8" rx="1" ry="1.5"/>
<ellipse class="st14" cx="367.5" cy="169.2" rx="1" ry="1.5"/>
<g>
	<path class="st14" d="M374.7,166.7c1.2-2,4.5-1.9,5.5,0.2C378.4,165.9,376.6,165.8,374.7,166.7L374.7,166.7z"/>
</g>
<g>
	<path class="st14" d="M370.9,166.1c-2-0.9-3.7-0.8-5.5,0.2C366.4,164.2,369.7,164.1,370.9,166.1L370.9,166.1z"/>
</g>
<g>
	<path class="st20" d="M371,171.6c-0.2,2.4-2,4.9-2.5,7.2v0.1l0,0c0.6,0.7,1.6,1,2.5,1.4v0.1c-1,0-2-0.2-2.8-0.8
		c-0.2-0.2-0.4-0.4-0.4-0.6c0-0.9,0.5-1.6,0.8-2.3C369.5,175.1,370.5,173.3,371,171.6L371,171.6z"/>
</g>
<path class="st22" d="M367.5,182.5c0,0,2.7-1,5.4,0.4c0,0-4.7,0.7-5.1,0.2C367.3,182.6,367.5,182.5,367.5,182.5z"/>
<path class="st14" d="M364.6,160.4c0.7,1.6,14.3,1.5,21.6,1.3c0,0-2.2,6.8,1,12.1c0,0,2.1,2.8,1.8,5c-0.3,2.1,3.2,7,3.4,5.3
	c0.6-5.3,8-20.4,6-27.6c-1.7-6.1-5.5-5.8-5.5-5.8c-3.1-4.9-10.7-2.2-26-5.6C360.8,143.9,363.2,157.5,364.6,160.4z"/>
<path class="st12" d="M386.4,171.6c1.6-3.9,6.9-3.5,6.9-0.3c0,5.3-3.2,6.9-4.3,7.6C387.9,179.6,385.5,173.9,386.4,171.6z"/>
<g>
	<path class="st12" d="M346.7,248.7c2.3,0.8,3,1,3.9,1c2.3,0.1,3.8-0.1,3.8-0.1s34.2,12,37.4,11.8c2.4-0.2,7.6-1.7,9.9-5.5
		c2.2-3.7,6.9-18.3,8.7-24.8c3.3-12.2-13-14.2-17.3-2.3c-2.8,7.9-3.6,16-3.9,15.5c-0.9-1.4-29.3-4.3-29.8-5.3c-1.1-2-5.2-2.9-6.4-3
		c-1.3-0.1-1.8-0.3-2.3-0.4c-1.6-0.3-2.9,1.2-1.4,1.9c1.2,0.5,3.3,1.4,3.3,1.4s-7.3-2.6-8.7-3.1c-1.4-0.5-3,1.5-1.1,2.6
		s2.3,1.3,2.3,1.3s-1.3-0.9-2.6-0.6c-0.9,0.2-0.4,2.6,0.6,2.9c0.1,0,0.5,0.1,0.5,0.1s-1.9,1.9,0.7,2.8c0.2,0.1,0.4,0.2,0.4,0.2
		s-1.5,1.3-0.3,2.1C345.5,247.9,346.7,248.7,346.7,248.7z"/>
</g>
<g>
	<path class="st12" d="M370.3,197.5c-0.8,3.5-2.3,2.6-2.8,3.7c-0.5,1.1-9.6,35.6-10,37.2c-1.1,5.1-7.5,9.1-11.2,7.4
		c-4-1.8-5.4-7.5-4.7-10.7c0.7-3.2,17.2-36.5,17.2-36.5s1.2-10.4,1.9-10.8c1.8-1,5.2-2.2,5.6-2.3c1.2-0.2,7,0,7,0s-0.1,1.3-1,1.9
		c-0.4,0.3-4.9,0.7-4.9,0.7s4.2,0.2,4.4,0.6c0.2,0.4,0.7,5.1,0.5,5.6C371.6,196.1,370.4,197.1,370.3,197.5z"/>
	<line class="st13" x1="363.6" y1="188.9" x2="365.6" y2="188.4"/>
	<path class="st13" d="M364,190.7c0,0,5.9,0.1,6.1,0.2c0.2,0.1,0.6,2.8,1,3.1c0.4,0.4,0.7,0.4,0.7,0.4"/>
	<path class="st13" d="M363.1,193c0,0,4.8,0.5,5.1,0.7c0.3,0.1,0.8,2.8,1.7,2.9c0.9,0,1.2-1,1.2-1"/>
	<line class="st13" x1="363.4" y1="195.4" x2="367.3" y2="196"/>
	<path class="st13" d="M365.9,197.2c-0.9,0.1-0.5,1.7,0,1.8s2.1,0.2,2.5,0s1-1.1,1-1.8c0-0.3-0.5-1.8-0.5-1.8"/>
	<path class="st13" d="M368.2,200.4c0,0-2.2,1.3-5.4,0.7"/>
	<path class="st13" d="M367.1,201.7c0,0-1,0.6-3.1-0.2"/>
	<path class="st13" d="M367,185.3c0,0,6.1,0.1,6.4,0.1s-0.2,1.7-1,1.9s-4.9,0.7-4.9,0.7s4.3,0.3,4.4,0.6s0.3,2.2,0.3,2.2"/>
</g>
<linearGradient id="SVGID_00000111895642493929351260000016019465981714685067_" gradientUnits="userSpaceOnUse" x1="388" y1="276.8581" x2="415.7072" y2="276.8581" gradientTransform="matrix(1 0 0 -1 0 500)">
	<stop  offset="0" style="stop-color:#FFC05C"/>
	<stop  offset="1" style="stop-color:#FF3857"/>
</linearGradient>
<path style="fill:url(#SVGID_00000111895642493929351260000016019465981714685067_);" d="M414.1,202.5c6.3,6.8-7.5,44.2-7.5,44.2
	s-10.7-0.7-18.6-3.9c0,0,6-32.6,8.4-37.1C399.3,199.8,409.2,197.1,414.1,202.5z"/>
<path class="st13" d="M357.7,237.5c-0.9,3.9-4.3,9.4-10.2,8.5c-4.9-0.8-5.8-7-5.8-7"/>
<g>
	
		<linearGradient id="SVGID_00000018958738251263943340000008784501381140447160_" gradientUnits="userSpaceOnUse" x1="30.5" y1="413.5" x2="117.7" y2="413.5" gradientTransform="matrix(1 0 0 -1 0 500)">
		<stop  offset="0" style="stop-color:#FFC05C"/>
		<stop  offset="1" style="stop-color:#FF3857"/>
	</linearGradient>
	<circle style="fill:url(#SVGID_00000018958738251263943340000008784501381140447160_);" cx="74.1" cy="86.5" r="43.6"/>
	
		<linearGradient id="SVGID_00000016756748773631232660000014655585357565014918_" gradientUnits="userSpaceOnUse" x1="48.1686" y1="413.5" x2="59.2878" y2="413.5" gradientTransform="matrix(1 0 0 -1 0 500)">
		<stop  offset="0" style="stop-color:#FFC05C"/>
		<stop  offset="1" style="stop-color:#FF3857"/>
	</linearGradient>
	<path style="fill:url(#SVGID_00000016756748773631232660000014655585357565014918_);" d="M59.3,86.5c0,3.1-2.5,5.6-5.6,5.6
		s-5.6-2.5-5.6-5.6s2.5-5.6,5.6-5.6S59.3,83.4,59.3,86.5z"/>
	
		<linearGradient id="SVGID_00000178202758133452727890000011900860967150479262_" gradientUnits="userSpaceOnUse" x1="68.5557" y1="413.5" x2="79.6748" y2="413.5" gradientTransform="matrix(1 0 0 -1 0 500)">
		<stop  offset="0" style="stop-color:#FFC05C"/>
		<stop  offset="1" style="stop-color:#FF3857"/>
	</linearGradient>
	<path style="fill:url(#SVGID_00000178202758133452727890000011900860967150479262_);" d="M79.7,86.5c0,3.1-2.5,5.6-5.6,5.6
		s-5.6-2.5-5.6-5.6s2.5-5.6,5.6-5.6C77.2,81,79.7,83.4,79.7,86.5z"/>
	
		<linearGradient id="SVGID_00000001637638439068398960000014399160096485020602_" gradientUnits="userSpaceOnUse" x1="88.9428" y1="413.5" x2="100.0619" y2="413.5" gradientTransform="matrix(1 0 0 -1 0 500)">
		<stop  offset="0" style="stop-color:#FFC05C"/>
		<stop  offset="1" style="stop-color:#FF3857"/>
	</linearGradient>
	<path style="fill:url(#SVGID_00000001637638439068398960000014399160096485020602_);" d="M100.1,86.5c0,3.1-2.5,5.6-5.6,5.6
		s-5.6-2.5-5.6-5.6s2.5-5.6,5.6-5.6C97.6,81,100.1,83.4,100.1,86.5z"/>
	
		<linearGradient id="SVGID_00000152258712640359721200000017983253800892693377_" gradientUnits="userSpaceOnUse" x1="72.2" y1="368.75" x2="94.5" y2="368.75" gradientTransform="matrix(1 0 0 -1 0 500)">
		<stop  offset="0" style="stop-color:#FFC05C"/>
		<stop  offset="1" style="stop-color:#FF3857"/>
	</linearGradient>
	<path style="fill:url(#SVGID_00000152258712640359721200000017983253800892693377_);" d="M72.2,126.9c0,0,4.5,11,22.3,11.6
		c0,0-7.6-5.5-7.7-14.5L72.2,126.9z"/>
</g>
<g>
	
		<linearGradient id="SVGID_00000145043351633515704930000014131834486675822242_" gradientUnits="userSpaceOnUse" x1="395.5" y1="379.3" x2="482.7" y2="379.3" gradientTransform="matrix(1 0 0 -1 0 500)">
		<stop  offset="0" style="stop-color:#FFC05C"/>
		<stop  offset="1" style="stop-color:#FF3857"/>
	</linearGradient>
	<circle style="fill:url(#SVGID_00000145043351633515704930000014131834486675822242_);" cx="439.1" cy="120.7" r="43.6"/>
	
		<linearGradient id="SVGID_00000178177172999360331170000011559364979507314084_" gradientUnits="userSpaceOnUse" x1="453.9478" y1="379.3" x2="465.067" y2="379.3" gradientTransform="matrix(1 0 0 -1 0 500)">
		<stop  offset="0" style="stop-color:#FFC05C"/>
		<stop  offset="1" style="stop-color:#FF3857"/>
	</linearGradient>
	<path style="fill:url(#SVGID_00000178177172999360331170000011559364979507314084_);" d="M453.9,120.7c0,3.1,2.5,5.6,5.6,5.6
		s5.6-2.5,5.6-5.6s-2.5-5.6-5.6-5.6C456.4,115.2,453.9,117.7,453.9,120.7z"/>
	
		<linearGradient id="SVGID_00000036244903280404421160000015311954503018885559_" gradientUnits="userSpaceOnUse" x1="433.5607" y1="379.3" x2="444.6798" y2="379.3" gradientTransform="matrix(1 0 0 -1 0 500)">
		<stop  offset="0" style="stop-color:#FFC05C"/>
		<stop  offset="1" style="stop-color:#FF3857"/>
	</linearGradient>
	<path style="fill:url(#SVGID_00000036244903280404421160000015311954503018885559_);" d="M433.6,120.7c0,3.1,2.5,5.6,5.6,5.6
		s5.6-2.5,5.6-5.6s-2.5-5.6-5.6-5.6S433.6,117.7,433.6,120.7z"/>
	
		<linearGradient id="SVGID_00000107588214311129772560000009558532286095756468_" gradientUnits="userSpaceOnUse" x1="413.1736" y1="379.3" x2="424.2927" y2="379.3" gradientTransform="matrix(1 0 0 -1 0 500)">
		<stop  offset="0" style="stop-color:#FFC05C"/>
		<stop  offset="1" style="stop-color:#FF3857"/>
	</linearGradient>
	<path style="fill:url(#SVGID_00000107588214311129772560000009558532286095756468_);" d="M413.2,120.7c0,3.1,2.5,5.6,5.6,5.6
		s5.6-2.5,5.6-5.6s-2.5-5.6-5.6-5.6C415.7,115.2,413.2,117.7,413.2,120.7z"/>
	
		<linearGradient id="SVGID_00000036965638248867057720000010914366006179627454_" gradientUnits="userSpaceOnUse" x1="418.7332" y1="334.55" x2="441.0332" y2="334.55" gradientTransform="matrix(1 0 0 -1 0 500)">
		<stop  offset="0" style="stop-color:#FFC05C"/>
		<stop  offset="1" style="stop-color:#FF3857"/>
	</linearGradient>
	<path style="fill:url(#SVGID_00000036965638248867057720000010914366006179627454_);" d="M441,161.1c0,0-4.5,11-22.3,11.6
		c0,0,7.6-5.5,7.7-14.5L441,161.1z"/>
</g>
<g>
	<path class="st2" d="M188.9,479.7c0,0,0.7-16.7-15.1-29.1c0,0,22,2.4,23.7,29.1H188.9z"/>
	<path class="st4" d="M191.2,479.7c0,0-2.1-27.6,22.6-33.3c0,0-14.2,10-15.6,33.3H191.2z"/>
	<path class="st2" d="M191.2,479.7c0,0,5.6-24.6,28.9-23.8c0,0-17.6,9.9-18.7,23.8H191.2z"/>
</g>
<g>
	<path class="st2" d="M309.5,479.7c0,0-3.1-10.4,10.8-16.1c0,0-15.7-3-17,16.1H309.5z"/>
	<path class="st4" d="M307.9,479.7c0,0-2.9-11.6,3.1-26.1c0,0-11.1,5.5-8.1,26.1H307.9z"/>
	<path class="st2" d="M307.9,479.7c0,0-0.9-13.3-17.6-12.7c0,0,12,3.9,10.3,12.7H307.9z"/>
</g>
</svg>
