<?xml version="1.0" encoding="utf-8"?>
<!-- Generator: Adobe Illustrator 26.1.0, SVG Export Plug-In . SVG Version: 6.00 Build 0)  -->
<svg version="1.1" xmlns="http://www.w3.org/2000/svg" xmlns:xlink="http://www.w3.org/1999/xlink" x="0px" y="0px"
	 viewBox="0 0 593.3 500" style="enable-background:new 0 0 593.3 500;" xml:space="preserve">
<style type="text/css">
	.st0{fill:#FFFFFF;}
	.st1{fill:#A0C6F4;}
	.st2{fill:none;stroke:#2A1E17;stroke-linecap:round;stroke-linejoin:round;stroke-miterlimit:10;}
	.st3{fill:none;stroke:#FFF7DC;stroke-linecap:round;stroke-linejoin:round;stroke-miterlimit:10;}
	.st4{fill:#2A1E17;}
	.st5{fill:#EAECEC;}
	.st6{fill:#F9865F;}
	.st7{fill:#F2D2C9;}
	.st8{fill:#320659;}
	.st9{fill:#2A1E33;}
	.st10{fill:url(#SVGID_1_);}
	.st11{fill:url(#SVGID_00000175305146046585799130000002961138318349878144_);}
	.st12{opacity:0.5;fill:#2A1E17;}
	.st13{fill:url(#SVGID_00000003066945451005872050000002452686631566342291_);}
	.st14{fill:none;stroke:#2A1E33;stroke-linecap:round;stroke-linejoin:round;stroke-miterlimit:10;}
	.st15{fill:url(#SVGID_00000166651450470442656220000010771089716721225347_);}
	.st16{fill:url(#SVGID_00000114776558581471758570000011888026413844462251_);}
	.st17{fill:url(#SVGID_00000080167761802428171730000009024189074196625067_);}
	.st18{fill:#FAD8B0;}
	.st19{fill:#4B3E56;}
	.st20{fill:#7CCECC;}
	.st21{fill:none;stroke:#603018;stroke-linecap:round;stroke-linejoin:round;stroke-miterlimit:10;}
	.st22{fill:#FF6D66;}
	.st23{fill:url(#SVGID_00000157298166086719331570000007708972345549335209_);}
	.st24{fill:#FFF7DC;}
	.st25{fill:#FFE1C0;}
	.st26{fill:#FFFFFF;stroke:#2A1E17;stroke-linecap:round;stroke-linejoin:round;stroke-miterlimit:10;}
	.st27{fill:url(#SVGID_00000026123856130286605810000009421628103950481822_);}
	.st28{fill:url(#SVGID_00000163046820970625158950000007029054664928267906_);}
	.st29{fill:#7595EC;}
	.st30{fill:#91BA83;}
	.st31{fill:none;stroke:#680068;stroke-linecap:round;stroke-linejoin:round;stroke-miterlimit:10;}
	.st32{fill:url(#SVGID_00000047771021168054632150000010568326587736148926_);}
	.st33{fill:url(#SVGID_00000169548638797136114950000012623576700538652062_);}
	.st34{fill:url(#SVGID_00000182498066978056412220000000825037002950279076_);}
	.st35{fill:url(#SVGID_00000022554524081991346300000006980711374249139877_);}
	.st36{fill:none;stroke:#6B4E40;stroke-linecap:round;stroke-linejoin:round;stroke-miterlimit:10;}
	.st37{fill:#96BD89;}
	.st38{fill:none;stroke:#FF6D66;stroke-linecap:round;stroke-linejoin:round;stroke-miterlimit:10;}
	.st39{fill:none;stroke:#FAD8B0;stroke-miterlimit:10;}
	.st40{fill:none;stroke:#A0C6F4;stroke-linecap:round;stroke-linejoin:round;stroke-miterlimit:10;}
	.st41{fill:#FFE179;stroke:#FFE179;stroke-width:0.7222;stroke-miterlimit:10;}
	.st42{fill:none;stroke:#2A1E17;stroke-width:0.7222;stroke-linecap:round;stroke-linejoin:round;stroke-miterlimit:10;}
	.st43{fill:none;stroke:#FFFFFF;stroke-width:0.7222;stroke-linecap:round;stroke-linejoin:round;stroke-miterlimit:10;}
	.st44{fill:#F9F9F8;}
	.st45{fill:#9FCA78;}
	.st46{fill:#FFE179;}
	.st47{fill:#F9F8F6;}
	.st48{fill:url(#SVGID_00000156574414622170856460000017123960270845817986_);}
	.st49{fill:url(#SVGID_00000093146126445769068700000005907156098870747065_);}
</style>
<g id="BACKGROUND">
</g>
<g id="OBJECTS">
	<g>
		<g>
			<path class="st0" d="M405.5,151.4c-46-43.5-100.4-53.9-112.7-55.8c9.6-25.9,24.7-65.2,28.1-69.8c1-0.2,3.6-0.5,7.5-0.5
				c10.3,0,32.3,2.1,64.1,16.4c47.1,21.2,58.9,45.2,61,50.2L405.5,151.4z"/>
			<path class="st1" d="M328.4,27.4c10.1,0,31.8,2.1,63.3,16.3c26.9,12.1,41.8,25.1,49.7,33.8c5.8,6.5,8.6,11.7,9.8,14.3l-45.8,56.7
				c-26.7-24.7-55.8-38.3-75.7-45.4c-15.3-5.4-27.5-8-34-9c10.8-29.2,23-60.1,26.6-66.3C323.3,27.6,325.4,27.4,328.4,27.4
				 M328.4,23.4c-5.6,0-8.4,0.6-8.4,0.6c-3.3,1.1-29.9,73.3-29.9,73.3s63.2,6.5,115.6,57.1l50-61.9c0,0-8.3-28.1-62.4-52.4
				C361.6,25.8,339.5,23.4,328.4,23.4L328.4,23.4z"/>
		</g>
		<path class="st2" d="M299.3,102.9c0,0,62.2,6.3,100.5,41.5"/>
		<polygon class="st1" points="353,99.9 376.2,54.8 400,101.8 		"/>
		<polygon class="st2" points="357.5,99.2 380.7,54.1 404.6,101.2 		"/>
	</g>
	<path class="st3" d="M335.7,20.6c0,0,69.7,6.3,113,57.8"/>
	<path class="st4" d="M371.4,220.5c-3.8-2.8-6.3-4.7-6.3-4.7c1.1-1.4,17.8-19.3,27.6-33.7C392.6,182.1,372.9,221.7,371.4,220.5z"/>
	<path class="st2" d="M133.7,90.2c1.9,3.1,2.7,1.9,8.1,1.5c5.4-0.4,13.1,3.5,15.8,10.2c2.7,6.6,1.9,7.7,0.4,8.5
		c-1.5,0.8-11.8,2.1-12.2,4.2"/>
	<path class="st5" d="M177.2,441.9"/>
	<polygon class="st6" points="273.5,428.1 268.7,419.9 251.5,448.5 256,452 	"/>
	<path class="st7" d="M159.6,357.2c0,0-8.9-14.5-5.1-21.5l28.4,3L159.6,357.2z"/>
	<path class="st8" d="M159.6,357.2l1.7,3.9l-5.2,20.4c-0.7,2.6,0.2,5.3,2.2,7l0,0l25.9-38.3c2.5-3.6,1.9-8.5-1.3-11.5l-5.8-5.4
		L159.6,357.2z"/>
	<path class="st9" d="M145.7,114.5c8.1-0.2,18.4-0.7,16.4-6.9c-2.1-6.2-9.8-21.6-27.3-17c0,0-6.2,5.1,1.5,14.4
		C144,114.3,145.7,114.5,145.7,114.5z"/>
	<linearGradient id="SVGID_1_" gradientUnits="userSpaceOnUse" x1="138.0243" y1="286.8076" x2="252.9675" y2="286.8076">
		<stop  offset="0" style="stop-color:#26FFFF"/>
		<stop  offset="1" style="stop-color:#006DFF"/>
	</linearGradient>
	<path class="st10" d="M186.8,339c0,0-13.9-40.9-2.1-58.9c9.7-14.8,41.3,9.3,45.7,12.5l22.6-40.9c0,0-5.2-7.3-18.1-14.5
		c-12.8-7.2-65.8-28.7-90.7,10.6c-9.2,14.5-9.3,76.8,8.3,100.7L186.8,339z"/>
	<path class="st2" d="M186.8,339c0,0-13.9-40.9-2.1-58.9c9.7-14.8,41.3,9.3,45.7,12.5"/>
	
		<linearGradient id="SVGID_00000080166821598605537900000011604100064516781470_" gradientUnits="userSpaceOnUse" x1="201.2899" y1="354.4886" x2="303.1521" y2="354.4886">
		<stop  offset="0" style="stop-color:#26FFFF"/>
		<stop  offset="1" style="stop-color:#006DFF"/>
	</linearGradient>
	<path style="fill:url(#SVGID_00000080166821598605537900000011604100064516781470_);" d="M253,251.8
		c-10.3,10.8-40.8,63.6-47.7,88.9c-9.2,33.7-5.7,61.7,44.7,116.5l24.4-35.5c0,0-17.1-26-13.9-50.6c4.6-35.5,29.9-69.9,42.7-91.8
		L253,251.8z"/>
	<polygon class="st12" points="256.8,256.4 297.4,288.2 309.5,269.8 	"/>
	<path class="st7" d="M489.9,222.9c6.3,1.4,11.1,3.8,14.5,7.2c3.3,3.5,1.8,5.3,0.6,6.3c-1.2,1.1-5.9-0.2-9.9-3.8
		S489.9,222.9,489.9,222.9z"/>
	<path class="st7" d="M365,215.8c1.1-1.4,17.8-19.3,27.6-33.7c0,0,29.4,32.9,32.5,34c1.2,0.4,8.4,0.3,17.3,0.2
		c15.1-0.2,35.2-0.3,39.6,1.9c7.1,3.5,11.3,5.3,13.1,10.3c1.8,5,2.5,8.2-1.8,8.5c-5,0.4-8.1-6-8.1-6s-4,2.4-14.5,6.4
		c0,0-37.6,14.6-62.8,7.5C401.1,242.9,365,215.8,365,215.8z"/>
	<path class="st7" d="M137,84.4c-3.2,1.2-5.2,2.7-3.3,5.8s2.7,1.9,8.1,1.5c5.4-0.4,13.1,3.5,15.8,10.2c2.7,6.6,1.9,7.7,0.4,8.5
		c-1.5,0.8-11.8,2.1-12.2,4.2c-0.4,2.1,4.2,8.2,13.8,7.8l2.3-0.4c0,0,20.1,19.6,23,22.5c2.9,2.9,24.3,17.4,36,20.3
		c8.9,2.2,27.1-0.6,37.9-2.8c5.3-1,8.9-1.9,8.9-1.9s-8.2-14.7-9.8-37.3c0,0-19.5,3.1-32.5,6c0,0-30.3-16.9-45-24.4
		c0,0-12.9-15.8-18.9-17.9C155.2,84.4,141.3,82.8,137,84.4z"/>
	<path class="st4" d="M258.7,162c5.3-1,8.9-1.9,8.9-1.9s-9.9-12.5-11.5-35.1c0,0-4.5,4.8-3.1,17.6C254.7,158.7,258.7,162,258.7,162z
		"/>
	
		<linearGradient id="SVGID_00000097474139232679197830000003014926663458529155_" gradientUnits="userSpaceOnUse" x1="219.6553" y1="198.8872" x2="392.5767" y2="198.8872">
		<stop  offset="0" style="stop-color:#FF2574"/>
		<stop  offset="0.9987" style="stop-color:#FFA35A"/>
	</linearGradient>
	<path style="fill:url(#SVGID_00000097474139232679197830000003014926663458529155_);" d="M255.6,122.5c0,0,0.3,27.7,7.7,39.2
		l2.7-1.1c0,0-34.9,40.8-46.2,67.5c-1.8,4.4,72.5,51.8,83.5,51.2c0,0,36.2-55.3,48.6-71.7l13.3,10.3c0,0,26.1-26.4,27.5-35.8
		c0,0-25.2-30.7-45.9-39.7c-20.6-9-39.1-24.4-61.2-24C266.3,118.8,255.6,122.5,255.6,122.5z"/>
	<polygon class="st4" points="365.1,217.9 351.8,207.6 353.9,201.9 	"/>
	<path class="st7" d="M385.3,108.6c-2.3,7.2-9.1,28.2-16.6,30.8c-7.5,2.6-15.3-0.7-15.3-0.7l-8,4.1c-0.9,2.7-7.2,5-15.4,5.3
		c-6,0.2-9.7-7.5-7.9-13.1c0.8-2.6,3.9-15.3,3.9-15.3s6.5-23.8,12.4-28.7c6-4.9,11.6-9.8,27.4-3.4
		C390.2,97.5,385.3,108.6,385.3,108.6z"/>
	<path class="st8" d="M337.1,109.6c-1.1,4.5-5.7,13.4-8.7,11.8c-3-1.6-4.1-5.7-2-13.5s3.9-25.6,10-28.8s8.7,0.5,8.7,0.5
		s-2.7-13,5.2-14.8c0,0,2.7-1.2,1.6,7.7c0,0,3-8.2,12.8-7.1c9.8,1.1,13.2,14.8,13.2,14.8s0.7-3.7,5.2-3.7s11.2,6.6,9.6,13.9
		c0,0,11.4-3.6,17.4,5.5c6.1,9.1,5.3,19.1-9.3,23c-15.3,4.1-15.1-13.7-17.4-16c-2.3-2.3-4.8-5-13.4-1.8s-17.4-6.2-17.4-6.2
		s-1.4,11.4-2.8,12.5c-1.4,1.1-4.3,2.5-3.6-2.8c0.7-5.3,1.6-4.8,1.1-6.2c-0.5-1.4-2.9-5.9-8-2C333.5,100.6,337.1,109.6,337.1,109.6z
		"/>
	<path class="st14" d="M339.5,111.6c-3.4-2.9-5.8-7.9-2.8-12.9c3-5,7.9-5.7,9.4-3.8c1.5,1.9,2.1,5.1,0.7,8.9"/>
	<path class="st8" d="M256,452l1.7,3.9l-5.2,20.4c-0.7,2.6,0.2,5.3,2.2,7l0,0l25.9-38.3c2.5-3.6,1.9-8.5-1.3-11.5l-5.8-5.4L256,452z
		"/>
	<path class="st14" d="M345.1,79.6c0,0-2-6.5-7.9-8.2"/>
	<line class="st0" x1="218.9" y1="226.2" x2="290.7" y2="125.8"/>
	<path class="st2" d="M320.4,132.8c-2.6,3.4-3.8,17.9,8.1,18.8c11.9,0.9,19.5-4.3,19.5-4.3"/>
	<path class="st2" d="M161.3,86.5c0,0,8.2,10.9,9.5,14.7"/>
	<path class="st2" d="M468.8,232.3c0,0,5.5,4.5,16.4-1.3c4-2.1,1.1-7.1-3.9-5.9s-11-0.6-11-0.6"/>
	<path class="st2" d="M491.8,223.5c0,0,5.3,6.1,5.1,9.8"/>
	<path class="st2" d="M414.3,222.9c0,0,4.8-6.3,10.8-6.8"/>
	<path class="st2" d="M213.5,139c0,0,2.8-8.7,11.7-10.2"/>
	<path class="st2" d="M237.7,270.4L227,290.7c0,0-35,59.3-23.1,97.6"/>
	<path class="st2" d="M268.7,338.4l34.5-59.1c0,0,45.2-65.5,49.8-74.8l15.9-29.5"/>
	<path class="st2" d="M223.7,232.5c0,0,61.3,44.7,79.5,46.8"/>
	<path class="st2" d="M255.6,122.5c0,0-0.1,28,7.5,39.5"/>
	<path class="st2" d="M390.6,177.7c-1.9,11.6-27.5,35.8-27.5,35.8"/>
	<path class="st4" d="M384.6,211.7"/>
	<path class="st6" d="M499.3,294.7"/>
	<circle class="st4" cx="199.7" cy="318" r="3.6"/>
	
		<linearGradient id="SVGID_00000023266675155316927630000003578874923722933128_" gradientUnits="userSpaceOnUse" x1="539.1456" y1="389.2277" x2="551.0193" y2="389.2277">
		<stop  offset="0" style="stop-color:#FF2574"/>
		<stop  offset="0.9987" style="stop-color:#FFA35A"/>
	</linearGradient>
	<polygon style="fill:url(#SVGID_00000023266675155316927630000003578874923722933128_);" points="541.2,396.2 539.1,382.3 
		551,390.2 544.8,391.5 	"/>
	<path class="st3" d="M147.4,158.6c-22.5-19.9-59.7,29.7,76.4,187.2c78.5,90.9,140.1,99,148.5,67.4c15-56.7-39.1-71.1-19-48.9
		c29.3,32.3,112.6,39.1,174.6,9c61.2-29.8,23.6-76,19.8-78.7"/>
	
		<linearGradient id="SVGID_00000036226410205021855380000004257167244625352580_" gradientUnits="userSpaceOnUse" x1="525.2368" y1="373.0404" x2="532.5158" y2="373.0404">
		<stop  offset="0" style="stop-color:#FF2574"/>
		<stop  offset="0.9987" style="stop-color:#FFA35A"/>
	</linearGradient>
	<circle style="fill:url(#SVGID_00000036226410205021855380000004257167244625352580_);" cx="528.9" cy="373" r="3.6"/>
	<line class="st3" x1="475.9" y1="402.7" x2="583.8" y2="341.9"/>
	<circle class="st4" cx="149.6" cy="161.5" r="3.6"/>
	
		<linearGradient id="SVGID_00000029763799480468630070000011805682099747368600_" gradientUnits="userSpaceOnUse" x1="234.6191" y1="86.3567" x2="250.2348" y2="86.3567">
		<stop  offset="0" style="stop-color:#FF2574"/>
		<stop  offset="0.9987" style="stop-color:#FFA35A"/>
	</linearGradient>
	<circle style="fill:url(#SVGID_00000029763799480468630070000011805682099747368600_);" cx="242.4" cy="86.4" r="7.8"/>
	<g>
		<path class="st1" d="M100.7,26.8c-1.9,0-3.4,1.5-3.4,3.4s1.5,3.4,3.4,3.4s3.4-1.5,3.4-3.4S102.6,26.8,100.7,26.8L100.7,26.8z"/>
	</g>
	<circle class="st18" cx="560.7" cy="449.7" r="11.3"/>
	<path class="st19" d="M499.3,294.7l-36.9-17.3c-3-1.4-2.9-5.6,0.1-7l68.6-30.2c1-0.4,2.1-0.4,3.1,0l47.2,20.2L499.3,294.7z"/>
	<path class="st20" d="M497,237.8c0.1,15.3,2.3,56.9,2.3,56.9l82-34.3l-1.8-57.9c-0.1-3.6-3.8-5.9-7-4.4l-70.6,32.2
		C498.9,231.6,497,234.5,497,237.8z"/>
	<path class="st21" d="M499.3,294.7l82-34.3l-1.8-57.9c0,0-0.5-6.3-7-4.4"/>
	<line class="st2" x1="539" y1="253" x2="544.6" y2="239.9"/>
	<line class="st2" x1="544.6" y1="253" x2="550.1" y2="239.9"/>
	<circle class="st22" cx="115.5" cy="392.4" r="18.2"/>
	
		<linearGradient id="SVGID_00000178913322955141802100000006595316721143940026_" gradientUnits="userSpaceOnUse" x1="394.43" y1="409.393" x2="415.4496" y2="409.393">
		<stop  offset="0" style="stop-color:#FF2574"/>
		<stop  offset="0.9987" style="stop-color:#FFA35A"/>
	</linearGradient>
	<circle style="fill:url(#SVGID_00000178913322955141802100000006595316721143940026_);" cx="404.9" cy="409.4" r="10.5"/>
	<g>
		<path class="st24" d="M151.1,443.3c5.6,2.7,21.8,9.4,43.3,9.3c1.2,0,2.1,1,1.9,2.2l-3,23.8c-0.1,0.8-0.7,1.5-1.6,1.7
			c-6.1,1.1-30.6,4.5-48.9-11c-0.6-0.5-0.8-1.3-0.6-2l6.1-22.7C148.7,443.4,150,442.8,151.1,443.3z"/>
		<path class="st2" d="M153.3,450.3c0,0,10.6,14.9,14.4,17c3.8,2.1,24.1-10,24.1-10"/>
		<line class="st2" x1="177.6" y1="465.2" x2="188.7" y2="476.6"/>
		<line class="st2" x1="162.2" y1="463" x2="149.2" y2="466.5"/>
	</g>
	<rect x="479" y="162.1" class="st25" width="12.4" height="12.4"/>
	<g>
		<polygon class="st1" points="480.7,329.6 484.4,336 488.1,342.4 480.7,342.4 473.3,342.4 477,336 		"/>
	</g>
	<g>
		<path class="st3" d="M182.3,46.4l1-29c-0.1-2.7,1-3.6,2.7-3.9c7.9-1.7,31.9-7.1,57.9,0.6c3.4,1,3.3,2.8,3.2,4.4l-0.9,27.7
			c-0.1,2-2.2,3.5-4.6,3.2c-7.6-1.1-18-1.5-28.5-1.4c-10.9,0.1-20.5,0.9-27.3,2.2C183.2,50.6,182.2,48.7,182.3,46.4z"/>
		<path class="st3" d="M191,42.2l15.2-17.8L223,41C217.2,39.1,191,42.2,191,42.2z"/>
		<polyline class="st3" points="215.5,32.6 227.8,22.8 238.1,30.2 238.5,41.7 223,41 		"/>
		<ellipse transform="matrix(0.1006 -0.9949 0.9949 0.1006 152.4221 214.1964)" class="st3" cx="194.7" cy="22.8" rx="2.5" ry="3"/>
	</g>
	<g>
		<path class="st3" d="M475.6,423.5l10.2,18.8c1.1,1.7,0.7,2.6-0.2,3.5c-4.4,4-17.6,16.3-37,21.1c-2.5,0.6-3.1-0.6-3.7-1.6
			l-9.7-17.9c-0.7-1.3,0.1-3,1.7-3.7c5.2-2.1,12-5.8,18.6-9.7c6.9-4.1,12.7-8.2,16.5-11.6C473.5,421.1,474.9,422,475.6,423.5z"/>
		<path class="st3" d="M471.7,429.4l-3,16.9l-16.8-4.3C456.2,441.1,471.7,429.4,471.7,429.4z"/>
		<polyline class="st3" points="459.7,444.6 455.5,455.4 446.2,454.5 441.7,447.3 451.8,442.1 		"/>
		
			<ellipse transform="matrix(0.9095 -0.4157 0.4157 0.9095 -141.064 238.2062)" class="st3" cx="476.5" cy="443.1" rx="2.2" ry="1.9"/>
	</g>
	<g>
		<path class="st26" d="M426.1,102.6l41.3,31.6c0.9,0.7,2.2,0.5,2.9-0.4l6.2-8.5c0.7-0.9,0.5-2.1-0.4-2.8L435.4,90
			c-0.9-0.7-2.2-0.5-2.9,0.4l-6.8,9.4C425,100.7,425.2,102,426.1,102.6z"/>
		<polygon class="st22" points="429.2,101.2 439.2,108.3 445.1,101.2 435.1,92.8 		"/>
		<polygon class="st18" points="443,111 453,119 458.4,112.4 448.3,104.2 		"/>
		<polygon class="st1" points="456.4,122 466.4,129.1 471.2,122.9 461.7,115 		"/>
	</g>
	<path class="st0" d="M508.6,58.4l9.4,79.2c0.2,1.7,1.8,3,3.5,2.7l16-2.2c1.7-0.2,2.9-1.7,2.7-3.4l-7.7-79.6
		c-0.2-1.8-1.8-3.1-3.6-2.8l-17.6,2.6C509.6,55.2,508.4,56.7,508.6,58.4z"/>
	<polygon class="st1" points="513.4,60.2 516.4,78.8 530.5,77.7 529,57.8 	"/>
	<polygon class="st6" points="517.4,85.8 519.4,105.4 532.4,104.2 530.6,84.4 	"/>
	<polygon class="st18" points="519.7,112.3 522.6,130.9 534.5,129.6 533.1,110.6 	"/>
	<path class="st0" d="M488,75.3l26.1,76.7c0.4,1.3,1.9,2,3.2,1.5l16.3-5.9c1.3-0.5,1.9-1.8,1.5-3.1l-24.5-77.5
		c-0.4-1.4-1.9-2.1-3.2-1.6l-17.9,6.6C488.3,72.6,487.6,74,488,75.3z"/>
	<polygon class="st8" points="493.3,76.7 500.1,94.1 513.7,90.2 508,71 	"/>
	
		<linearGradient id="SVGID_00000054960915599500530720000014949795641360164256_" gradientUnits="userSpaceOnUse" x1="502.5769" y1="108.0955" x2="521.062" y2="108.0955">
		<stop  offset="0" style="stop-color:#FF2574"/>
		<stop  offset="0.9987" style="stop-color:#FFA35A"/>
	</linearGradient>
	<polygon style="fill:url(#SVGID_00000054960915599500530720000014949795641360164256_);" points="502.6,100.9 508.6,119.5 
		521.1,115.7 515.2,96.7 	"/>
	
		<linearGradient id="SVGID_00000153704310492120406040000002730562242728962450_" gradientUnits="userSpaceOnUse" x1="510.2667" y1="132.8324" x2="528.344" y2="132.8324">
		<stop  offset="0" style="stop-color:#26FFFF"/>
		<stop  offset="1" style="stop-color:#006DFF"/>
	</linearGradient>
	<polygon style="fill:url(#SVGID_00000153704310492120406040000002730562242728962450_);" points="510.3,126.3 517,143.8 
		528.3,140.1 523,121.9 	"/>
	<g>
		<path class="st29" d="M293.5,205.2h-136c-3,0-5.5-2.5-5.5-5.5v-22.1c0-3,2.5-5.5,5.5-5.5h136c3,0,5.5,2.5,5.5,5.5v22.1
			C299,202.7,296.5,205.2,293.5,205.2z"/>
		<path class="st0" d="M242.7,186.9h-73.2c-1,0-1.8-0.8-1.8-1.8v-1.4c0-1,0.8-1.8,1.8-1.8h73.2c1,0,1.8,0.8,1.8,1.8v1.4
			C244.5,186.1,243.7,186.9,242.7,186.9z"/>
		<line class="st2" x1="168.4" y1="193.4" x2="290.5" y2="193.4"/>
	</g>
	<g>
		<path class="st30" d="M108.4,112.7l-2.5-2.8l-6.9,6.3l2.5,2.8c0.6,0.7,1.7,0.7,2.4,0.1l4.4-4C109,114.5,109.1,113.4,108.4,112.7z"
			/>
		<path class="st2" d="M95.7,97.2l10.3,11.3c0.4,0.4,0.3,1-0.1,1.4l-7.3,6.7c-0.4,0.4-1,0.3-1.4-0.1L87,105.3
			c-0.4-0.4-0.3-1,0.1-1.4l7.3-6.7C94.8,96.8,95.4,96.8,95.7,97.2z"/>
	</g>
	<g>
		<rect x="64.7" y="154.3" class="st22" width="12.3" height="11.2"/>
		<polyline class="st2" points="64.7,147.1 64.7,154.3 57.3,154.3 		"/>
	</g>
	<rect x="470.2" y="27.3" class="st18" width="12.3" height="11.2"/>
	<polyline class="st31" points="470.2,20.1 470.2,27.3 462.9,27.3 	"/>
	<path class="st3" d="M137.1,96.8c-127.6-52.9-225.9,49,14.7,205c18.9,12.3,48,16.6,48,16.6"/>
	
		<linearGradient id="SVGID_00000168086166850895743350000017987568981226097560_" gradientUnits="userSpaceOnUse" x1="91.3677" y1="83.9355" x2="98.6467" y2="83.9355">
		<stop  offset="0" style="stop-color:#FF2574"/>
		<stop  offset="0.9987" style="stop-color:#FFA35A"/>
	</linearGradient>
	<circle style="fill:url(#SVGID_00000168086166850895743350000017987568981226097560_);" cx="95" cy="83.9" r="3.6"/>
	<g>
		
			<linearGradient id="SVGID_00000178908157116051194440000000978614163041919130_" gradientUnits="userSpaceOnUse" x1="71.8485" y1="69.8569" x2="89.5893" y2="69.8569">
			<stop  offset="0" style="stop-color:#26FFFF"/>
			<stop  offset="1" style="stop-color:#006DFF"/>
		</linearGradient>
		<polygon style="fill:url(#SVGID_00000178908157116051194440000000978614163041919130_);" points="71.8,64 75.8,60.1 85,65.4 
			89.6,79.6 75.5,73.7 		"/>
		
			<linearGradient id="SVGID_00000039101722025512970730000005809852493338432901_" gradientUnits="userSpaceOnUse" x1="69.6181" y1="60.7751" x2="75.8313" y2="60.7751">
			<stop  offset="0" style="stop-color:#26FFFF"/>
			<stop  offset="1" style="stop-color:#006DFF"/>
		</linearGradient>
		<polygon style="fill:url(#SVGID_00000039101722025512970730000005809852493338432901_);" points="75.8,60.1 71.8,64 69.6,61.3 
			73.4,57.6 		"/>
		
			<linearGradient id="SVGID_00000047768971488150538790000010437546376500657307_" gradientUnits="userSpaceOnUse" x1="80.4504" y1="74.5557" x2="89.5893" y2="74.5557">
			<stop  offset="0" style="stop-color:#26FFFF"/>
			<stop  offset="1" style="stop-color:#006DFF"/>
		</linearGradient>
		<line style="fill:url(#SVGID_00000047768971488150538790000010437546376500657307_);" x1="89.6" y1="79.6" x2="80.5" y2="69.5"/>
	</g>
	<g>
		<path class="st26" d="M31.7,341.6l13.7,70.7c0.3,1.6,1.8,2.6,3.4,2.2l14.2-3c1.5-0.3,2.5-1.7,2.2-3.2L53,337.1
			c-0.3-1.6-1.8-2.6-3.4-2.3l-15.7,3.5C32.4,338.7,31.4,340.1,31.7,341.6z"/>
		<polygon class="st22" points="36.2,343 40.1,359.5 52.7,357.6 50,339.7 		"/>
		<polygon class="st18" points="41.5,365.8 44.6,383.3 56.2,381.4 53.3,363.6 		"/>
		<polygon class="st1" points="45.3,389.5 49.2,406 59.7,404.1 57.2,387.1 		"/>
	</g>
	<g>
		<polygon class="st3" points="320.4,478.9 362.4,467.7 364,472.2 321.6,483.2 		"/>
		<g>
			<line class="st3" x1="314.6" y1="473" x2="315.8" y2="476.8"/>
			<line class="st3" x1="313.4" y1="475.5" x2="317" y2="474.3"/>
		</g>
		<g>
			<line class="st3" x1="312.6" y1="487.6" x2="314.9" y2="494.8"/>
			<line class="st3" x1="310.6" y1="492.1" x2="316.9" y2="490.1"/>
		</g>
		<g>
			<line class="st3" x1="303" y1="475.7" x2="306" y2="485.2"/>
			<line class="st3" x1="300.1" y1="481.6" x2="308.9" y2="478.8"/>
		</g>
	</g>
	<g>
		<polygon class="st3" points="34.8,63.5 8.2,51.5 9.3,48.5 36,60.8 		"/>
		<g>
			<line class="st3" x1="35.3" y1="69" x2="36.3" y2="66.5"/>
			<line class="st3" x1="37" y1="68.2" x2="34.6" y2="67.3"/>
		</g>
		<g>
			<line class="st3" x1="42.5" y1="62.3" x2="44.4" y2="57.6"/>
			<line class="st3" x1="45.5" y1="60.8" x2="41.3" y2="59.1"/>
		</g>
		<g>
			<line class="st3" x1="42.5" y1="72.5" x2="45" y2="66.3"/>
			<line class="st3" x1="46.5" y1="70.7" x2="40.7" y2="68.4"/>
		</g>
	</g>
	<path class="st18" d="M113.9,247.5c-18.7-13.5-37.1-34.4-29-55.9c0,0,12.9-8.6,33.3,2.1s20.4,10.7,20.4,10.7L113.9,247.5z"/>
	<g>
		<path class="st0" d="M105.7,338c-7.4-3.4-45-22.4-51.6-55.3c-5.8-28.9,17.4-68.2,27.5-83.6c-2.3,22.5,20.6,41.8,31.4,49.6
			c10.9,7.8,18.8,11.6,29.9,15.7L105.7,338z"/>
		<path class="st18" d="M80,204.4c1.3,20.9,21.9,38.2,32.2,45.6c10.5,7.5,18.3,11.3,28.7,15.3L105,336c-9.6-4.6-43.3-23-49.4-53.6
			C50.4,256.5,69.1,221.8,80,204.4 M84.9,191.7c0,0-39.8,53.7-32.2,91.3c7.5,37.6,53.7,57,53.7,57l38.7-76.3
			c-12.1-4.4-19.9-8-31.2-16.1C95.2,234.1,76.8,213.1,84.9,191.7L84.9,191.7z"/>
	</g>
	<path class="st36" d="M74.4,222.9c0,0,2.3,21.6,23.9,33.1"/>
	<line class="st36" x1="109.9" y1="263.7" x2="131.5" y2="275.3"/>
	<path class="st36" d="M77.5,253.7c0,0,6.9,15.4,29.3,25.4"/>
	<path class="st2" d="M59.8,256c0,0,0.8,16.2,11.6,21.6"/>
	<path class="st36" d="M84.5,199.8c0,0-2,20.8,29.4,47.8"/>
	<path class="st36" d="M96,203.6c0,0,10-0.8,24.7,10"/>
	<path class="st3" d="M48.9,270c-0.6,10.3,0.6,47.7,54.8,71.5"/>
	<g>
		<path class="st30" d="M394.5,249.2l-23,46c0,0,15.6,5.7,3.4,23.6c0,0,28.8,11.9,47.6-19.1C441.4,268.7,394.5,249.2,394.5,249.2z"
			/>
		<g>
			<path class="st0" d="M342,390.4c-11.9,0-24.4-4.9-37.2-14.5l43.5-72.1l26,16.4l0.1,0c0.2,0.1,5.8,2.4,13.7,2.4c0,0,0,0,0,0
				c7,0,16-1.8,24.5-8.8L379.7,370C379.6,370.1,366,390.4,342,390.4C342,390.4,342,390.4,342,390.4z"/>
			<path class="st37" d="M348.7,305.8l24.6,15.5l0.2,0.1l0.2,0.1c0.2,0.1,6.1,2.5,14.3,2.5c5.7,0,12.8-1.2,19.8-5.2l-29.4,50.3
				c-0.8,1.2-14,19.7-36.5,19.7c-11.2,0-23.1-4.5-35.2-13.4L348.7,305.8 M422.5,299.7c-10.6,17.5-24.5,21.3-34.5,21.3
				c-7.7,0-13.2-2.3-13.2-2.3l-27.2-17.1l-45,74.6c15.1,11.6,28.2,15.7,39.2,15.7c25.1,0,39.1-21.1,39.1-21.1L422.5,299.7
				L422.5,299.7z"/>
		</g>
		<path class="st2" d="M371.5,295.2c0,0,17.1,6,3.4,23.6"/>
		<path class="st2" d="M347.2,300.1c0,0,23.3,21.4,36.2,21.2c12.9-0.1,28.1-3.2,37-18.6"/>
		<path class="st2" d="M350.1,327.7c0,0,16,14.2,33.9,9.6"/>
		<path class="st2" d="M366.9,348.9c0,0,8.4,6.3,20.1,0.3"/>
		<path class="st2" d="M328.3,357.7c0,0,19.4,19.3,49.9,6.6"/>
		<path class="st2" d="M338.8,338.9c0,0,7.9,5.7,12.9,7.5"/>
		<path class="st2" d="M398.4,262.5c0,0,17.7,5.8,19.8,29.1"/>
		<path class="st2" d="M407.3,291.4c0,0,8.1,12.6-5.6,25.2"/>
		<path class="st2" d="M304.4,379.7c0,0,44.4,38.1,76.7-6.4"/>
	</g>
	<line class="st38" x1="23.7" y1="234.8" x2="34" y2="234.8"/>
	<line class="st38" x1="560.7" y1="110.3" x2="571" y2="110.3"/>
	<line class="st39" x1="282.9" y1="39.2" x2="293.3" y2="39.2"/>
	<line class="st39" x1="580.4" y1="164" x2="590.6" y2="165.8"/>
	<line class="st40" x1="173.6" y1="422.4" x2="183.9" y2="422.4"/>
	<circle class="st30" cx="572.7" cy="293.3" r="3.4"/>
	<g>
		<g>
			<path class="st41" d="M412.4,63.6c0,0,3-3.8,4.5-5.2c4.8-4.6,10.5-5.4,13.1-10.7c2.6-5.3-0.9-18-13.7-16.8
				c-10.9,1-11.5,12.4-11.4,17.3c0.1,5-2.6,8.8-2.6,8.8s2.2-0.8,5.9,2.1C411.9,62.1,412.4,63.6,412.4,63.6z"/>
			<path class="st42" d="M412.4,63.6c0,0-3.5,5.7-9.2,2.3c-5.7-3.5-1-8.8-1-8.8s2.3-0.5,5.9,2.1C411.8,61.8,412.4,63.6,412.4,63.6z"
				/>
			<line class="st42" x1="405.4" y1="57.6" x2="410.1" y2="46.6"/>
			<line class="st42" x1="410.3" y1="60.1" x2="418.9" y2="51.3"/>
			<path class="st42" d="M410,47.7c0,0,2.2,1.6,5.4-0.4c0,0-0.8,5.2,2.3,5.2"/>
			<path class="st42" d="M401,60.7c0,0,6.2-0.7,9.1,5.6"/>
		</g>
		<path class="st43" d="M423.8,36.2c0,0,5,3.5,3.8,9.4"/>
	</g>
	<g>
		<path class="st44" d="M443,363.2h-27.8c-0.6,0-1.1-0.5-1.1-1.1v-18.4c0-0.6,0.5-1.1,1.1-1.1H443c0.6,0,1.1,0.5,1.1,1.1v18.4
			C444.2,362.7,443.7,363.2,443,363.2z"/>
		<path class="st45" d="M418.9,360.9h11.6c0.4,0,0.6-0.5,0.3-0.7l-5.3-5.1c-0.4-0.4-1.1-0.4-1.6,0l-5.3,5.1
			C418.3,360.4,418.5,360.9,418.9,360.9z"/>
		<path class="st45" d="M429.7,357.6l3.1,3.1h8.9v-5.5c0-0.1,0-0.2-0.1-0.3l-4.4-4.4c-0.5-0.5-1.2-0.4-1.7,0
			c-1.6,1.7-4.9,5.4-5.8,6.5C429.5,357.2,429.5,357.5,429.7,357.6z"/>
		<circle class="st46" cx="423.5" cy="349.2" r="2.3"/>
	</g>
	<g>
		<path class="st46" d="M161.3,68.4h-43c-1.1,0-2.1-0.9-2.1-2.1v-15c0-1.1,0.9-2.1,2.1-2.1h43c1.1,0,2.1,0.9,2.1,2.1v15
			C163.4,67.4,162.5,68.4,161.3,68.4z"/>
		<line class="st42" x1="144.5" y1="60.9" x2="157.4" y2="60.9"/>
		<line class="st42" x1="144.5" y1="57.1" x2="157.4" y2="57.1"/>
		<path class="st47" d="M139,61.5h-13.9c-1,0-1.8-0.8-1.8-1.8v-1.5c0-1,0.8-1.8,1.8-1.8H139c1,0,1.8,0.8,1.8,1.8v1.5
			C140.9,60.7,140,61.5,139,61.5z"/>
	</g>
	
		<linearGradient id="SVGID_00000104688632033719843780000006985065198734041763_" gradientUnits="userSpaceOnUse" x1="505.905" y1="186.0312" x2="545.402" y2="186.0312">
		<stop  offset="0" style="stop-color:#FF2574"/>
		<stop  offset="0.9987" style="stop-color:#FFA35A"/>
	</linearGradient>
	<path style="fill:url(#SVGID_00000104688632033719843780000006985065198734041763_);" d="M514.2,201.3l1.9-4.8l-7.5-3.9
		c-2.4-1.3-3.4-4.3-2.1-6.7l8.1-15.5c1.3-2.4,4.3-3.4,6.7-2.1l21.5,11.2c2.4,1.3,3.4,4.3,2.1,6.7l-8,15.4c-1.3,2.4-4.3,3.4-6.7,2.1
		l-8.5-4.4L514.2,201.3z"/>
	
		<linearGradient id="SVGID_00000179621481274723988300000011599979853282732460_" gradientUnits="userSpaceOnUse" x1="513.8461" y1="184.213" x2="522.5543" y2="184.213">
		<stop  offset="0" style="stop-color:#26FFFF"/>
		<stop  offset="1" style="stop-color:#006DFF"/>
	</linearGradient>
	<polyline style="fill:url(#SVGID_00000179621481274723988300000011599979853282732460_);" points="517.9,189.9 513.8,187.8 
		518.7,178.5 522.6,180.6 	"/>
	<path class="st0" d="M527.3,175.6L527.3,175.6c0.9,0.5,1.2,1.5,0.8,2.4l-1.8,3.5l5.4,2.8c1.3,0.7,1.8,2.3,1.2,3.7l-2.7,5.3
		c-0.7,1.3-2.3,1.8-3.7,1.2l-8.5-4.4l7-13.5C525.4,175.5,526.5,175.2,527.3,175.6z"/>
</g>
</svg>
