<?xml version="1.0" encoding="utf-8"?>
<!-- Generator: Adobe Illustrator 26.0.1, SVG Export Plug-In . SVG Version: 6.00 Build 0)  -->
<svg version="1.1" id="Слой_1" xmlns="http://www.w3.org/2000/svg" xmlns:xlink="http://www.w3.org/1999/xlink" x="0px" y="0px"
	 viewBox="0 0 3200 1909.8" style="enable-background:new 0 0 3200 1909.8;" xml:space="preserve">
<style type="text/css">
	.st0{fill:#233862;}
	.st1{fill:#2A4E96;}
	.st2{fill:#AEC3FF;}
	.st3{fill:#FFB27D;}
	.st4{fill:#ED7D2B;}
	.st5{fill:#F99746;}
	.st6{fill:#FFFFFF;}
	.st7{fill:#E2915A;}
	.st8{fill:#DB6516;}
	.st9{fill:#9DB0F4;}
	.st10{fill:#163560;}
	.st11{fill:#ED975D;}
	.st12{fill:#2B478B;}
	.st13{fill:#6BB7BF;}
	.st14{fill:#86D1CD;}
	.st15{fill:#F1A34F;}
	.st16{fill:#DB7714;}
	.st17{fill:#5685D8;}
	.st18{fill:#739AF0;}
	.st19{fill:#A9453D;}
	.st20{fill:#2E3552;}
</style>
<g>
	<path class="st0" d="M1338.9,1840.2c0,0,3.7,42.8-5.4,47.3l-115.8-0.2c0,0,0-13.4,18.6-16.3c18.6-3,51.3-13.9,56.8-38.1
		C1298.7,1808.5,1338.9,1840.2,1338.9,1840.2z"/>
	<path class="st0" d="M1671.3,1823.6c0,0,3.5,59.4-5.6,63.8l-115.8-0.2c0,0,0-13.4,18.6-16.3c18.6-3,51.3-13.9,56.8-38.1
		C1630.9,1808.5,1671.3,1823.6,1671.3,1823.6z"/>
	<path class="st1" d="M1675.2,1830.9c0,0-23,11.8-32.8,14c-10.9,2.4-31.5,0.9-31.5,0.9c-39.4-105.6-161.6-535-161.6-535
		c-5.3,118.7-26.7,237.1-49,332.3c-0.6,2.5-1.2,5.1-1.8,7.6l0,0c-0.5,2.3-1.1,4.6-1.6,6.8c0,0.1-0.1,0.2-0.1,0.3
		c-27,112.3-54.1,188.8-54.1,188.8s-7,8.9-26.5,4.8c-22.3-4.6-29.8-14.4-29.8-14.4c14.4-457.5,22.5-715.4,22.5-715.4
		s193.4-104.5,245.9-15.2C1607.5,1195.7,1675.2,1830.9,1675.2,1830.9z"/>
	<path class="st2" d="M1597.3,1168.1c-25.1-89.6-29.2-174.7-29-245.2c0.3-100.3,9.3-170.9-20.9-182.8c0,0-93.3-27.1-157.4-39.1
		c-10.2-5.6-21.6-11.5-30.2-15c-20.3-8.2-99.3-123.1-112.7-150.6c-13.4-27.5-35.6-147.3-35.6-147.3l-30.8,9.8
		c0,0-9.2,134.5-4.8,169.5c4.4,35.1,102.3,185.8,110.4,199l0,0c34.8,127.3,0,334.5,15.9,380.7c8.2,23.8,160,67.3,243.1,61.8
		c4.1-0.3,8.1-0.7,11.9-1.2l0,0c19.7-2.7,34-9,39.2-20C1599.1,1182.3,1599.5,1175.8,1597.3,1168.1z"/>
	<path class="st3" d="M1211.5,388.1c0,0,17.4-50.5,4.7-52c-12.7-1.5-44.7-1.3-48.6,7.2s13.1,54.6,13.1,54.6L1211.5,388.1z"/>
	<g>
		<g>
			<g>
				<path class="st4" d="M880.3,514.1L777.6,452c4.6-7.5,11.7-12.5,19.7-14.5c7.9-1.9,16.6-0.9,24.1,3.7c6.6,4,15.3,1.9,19.3-4.8
					l27.8-46l24,14.5l-27.8,46c-2,3.3-2.5,7.1-1.6,10.6s3.1,6.7,6.4,8.7c7.5,4.6,12.5,11.7,14.5,19.7
					C886,497.9,884.9,506.5,880.3,514.1z"/>
				<path class="st5" d="M880.3,514.1L812,472.8c-15.8-13.2-8.1-24.5-0.2-26.5c7.9-1.9,16.6-0.9,24.1,3.7c6.6,4,15.3,1.9,19.3-4.8
					l27.8-46l9.4,5.7l-27.8,46c-2,3.3-2.5,7.1-1.6,10.6s3.1,6.7,6.4,8.7c7.5,4.6,12.5,11.7,14.5,19.7
					C886,497.9,884.9,506.5,880.3,514.1z"/>
				<path class="st5" d="M1180.8,214.7l-83.1,104.8c-28.9,47.8-78.9,70.7-126.7,72.6l0,0c-16.3,0.7-32.4-1.1-47.3-5.2
					c-12.3-3.4-26.5,3.3-34.3,16.1l-1.6,2.7c-4.8,8-8.9,14.6-8.9,14.6l-17.5-10.6c0,0,4.1-6.8,8.9-14.8c8.5-14.2,8.1-31.4-1.3-41.9
					c-40-44.7-55-118.8-16.8-182l56.3-121L1180.8,214.7z"/>
				<g>
					<path class="st4" d="M833.1,256.1c6.8-39.3-12.2-60.6-32.3-83.3c-16.1-18.1-32.7-36.8-36.3-64.7c-4-30.9,10.4-62.5,35.8-78.5
						c19.3-12.2,40.6-12.6,58.5-1.1c25.4,16.3,34.9,47.9,27.3,91.4c-5.4,31.1-17.5,57.4-18,58.5l-16-7.4c0.4-1,44.4-97.4-2.9-127.8
						c-16.3-10.5-31.8-3.8-39.6,1.2C790.3,56.7,778.9,82,782,105.8c2.9,22.5,17,38.4,32,55.3c21,23.6,44.7,50.4,36.5,98L833.1,256.1
						z"/>
				</g>
				<g>
					<path class="st5" d="M1031.2,375.9c31.6-24.2,59.4-17.4,88.8-10.1c23.5,5.8,47.8,11.8,74.1,2.1c29.2-10.8,50.5-38.2,52.9-68.2
						c1.8-22.8-7.7-41.8-26.2-52.4c-26.3-14.9-58.7-8.6-93.7,18.3c-25.1,19.2-42.7,42.2-43.5,43.1l14,10.7
						c0.7-0.8,65.7-84.5,114.5-56.8c16.8,9.6,18.1,26.4,17.4,35.6c-1.8,22.9-18.9,44.7-41.5,53.1c-21.3,7.9-41.9,2.8-63.8-2.7
						c-30.6-7.6-65.4-16.2-103.7,13.2L1031.2,375.9z"/>
				</g>
				<path class="st4" d="M970.9,392c-16.3,0.7-32.4-1.1-47.3-5.2c-12.3-3.4-26.5,3.3-34.3,16.1l-1.6,2.7
					c-6.1,3.2-10.7,7.1-12.9,12.2l-13.4-8.1c0,0,4.1-6.8,8.9-14.8c8.5-14.2,8.1-31.4-1.3-41.9c-40-44.7-55-118.8-16.8-182l56.3-121
					l45,27.2C953.5,77.2,770.8,324.9,970.9,392z"/>
				<path class="st5" d="M889.9,431l-44.8-27.1c-6.1-3.7-8.1-11.7-4.4-17.8l0,0c3.7-6.1,11.7-8.1,17.8-4.4l44.8,27.1
					c6.1,3.7,8.1,11.7,4.4,17.8l0,0C904,432.7,896,434.7,889.9,431z"/>
			</g>
			<g>
				<path class="st6" d="M903.6,280.3l4.8-8c22.8,12.3,25.7,10.9,35.1-4.6l47.1-77.9c6.6-11,3.3-14.2-4.9-20.6l-5.8-5l4.3-7.1
					c17.7,8.1,38.8,15,54.2,18.1L972.1,285c-9.6,15.9-9.5,18.6,11.8,33l-4.8,8L903.6,280.3z"/>
			</g>
		</g>
	</g>
	<path class="st3" d="M1167.6,343.3c0,0-1.6,17.4,3.9,20.7c5.6,3.3,7.6-20.7,7.6-20.7s0.3,19.7,4.6,21c4.3,1.3,6.9-22.6,6.9-22.6
		s0.5,19,3.3,18.4c2.9-0.7,4.9-18.4,4.9-18.4s1.3,13.8,5.3,11.3c3.9-2.5,7.7-17.3,7.7-17.3L1167.6,343.3z"/>
	<path class="st3" d="M1211.5,388.1c0,0,11.9-9.3,14.5-17.9c2.6-8.5,10.3-22.9,6.2-24.6c-4.1-1.7-16.1,16.7-16.1,16.7L1211.5,388.1z
		"/>
	<path class="st3" d="M1417.8,687.3l-1.5,7.8c0,0-6.9,23.9,22.3,33.3c29.2,9.5,53.8,13.9,56.7-5.1c0.2-15.1-0.2-38.5,2-50.6
		c0.8-4.5,2.1-9.2,3.9-14.3l-57.7-12.6l-17.6-0.6L1417.8,687.3z"/>
	<path class="st7" d="M1425.9,645.2l-5.4,28.4c54.9,14.5,78.9-10,80.8-15.1l-57.7-12.6L1425.9,645.2z"/>
	<path class="st3" d="M1509.7,646.7c-17,34.6-63.8,20.2-83.5,12.2c-5.5-2.2-8.9-4-8.9-4c-6-3.5-6.7-14.7-4.7-28.5
		c4.1-27.3,19.1-64.8,26.4-73.5c10.9-13,28-25.6,72.2-0.7C1555.3,577.2,1531.5,602.3,1509.7,646.7z"/>
	<path class="st0" d="M1434.2,514.1c0,0,21.3,4.3,48.9,0.5c22.4-3.1,44.9,13.6,51.9,20.2c0.1-1.4,0.1-3.3-0.6-5.5
		c0,0,2.9,3.6,2.5,7.4c0.3,0.4,0.4,0.6,0.3,0.7c0,0,4.4,0.4,6.7,2.4c0,0-1.8-0.8-2.8,0.2c-0.1,0.1-0.2,0.2-0.4,0.2
		c26.9,23.8,16,73.9,2.8,82.4c-15.9,10.3-43.2,38.7-43.2,38.7s1-10.4,6.5-21.8c5.6-11.4-4.8-14.4-16.5-23.6
		c-11.6-9.2,3.7-21.5-5.2-34c-8.9-12.6-52.7-18.9-50.1-25.9C1420.9,545.9,1433.8,515.7,1434.2,514.1z"/>
	<path class="st6" d="M1441.2,633.9c0,0-2.8,4.3-14.2-0.8c0,0-9.6-4.2-7.4-9.3C1419.6,623.9,1430.5,623.7,1441.2,633.9z"/>
	<path class="st4" d="M1428.4,750.8c0,0-26.3,174.8-223.3,296.1l-18.4,53.4h71.1c0,0,176.4-148,188.3-344.5L1428.4,750.8z"/>
	<polygon class="st8" points="1428.4,750.8 1428.4,724.3 1460.9,733.5 1446.1,755.8 	"/>
	<path class="st9" d="M1417.8,687.3l-19,16.2c0,0-5.3,22.7,7.6,47.3l38.3-21.9C1444.6,728.9,1422,718,1417.8,687.3z"/>
	<path class="st9" d="M1444.6,728.9c0,0,3.8,20.6,13.8,30.7c0,0,43.2-7.6,55.1-28.2l-18.1-28.2
		C1495.5,703.2,1491.1,722.5,1444.6,728.9z"/>
	<path class="st3" d="M1703.2,1181.9c0,0,0.1,39.1-3.5,46.9s-19.7,33.1-27.2,38.6c-7.4,5.4,1.6-31.3-0.7-38.1
		c-2.3-6.7-5.2,13.3-8.6,14.1c-3.4,0.8-4.4-16.8-5.2-23.2s14.7-23.9,19.3-38.1C1681.8,1167.9,1703.2,1181.9,1703.2,1181.9z"/>
	<path class="st2" d="M1546.8,740.1c0,0,37.9,10.3,63.7,66.9c27,59.3,99.1,191.1,101.8,209.3c2.7,18.2-4.8,188.1-4.8,188.1
		s-31.6,1.2-41.3-13.8c0,0-11-149.1-15.9-157.2s-129.1-156.3-118.7-193.9C1542.1,801.8,1546.8,740.1,1546.8,740.1z"/>
	<path class="st9" d="M1596.5,1187.7c-9.4,8.1-22.1,15.1-39.2,20l0,0c-4.2,1.2-8.2,1.6-11.9,1.2c-69.4-7.2-58.8-277-25.1-296.9
		c35.5-21,48.1,10.9,48.1,10.9c-0.2,70.5,3.9,155.6,29,245.2C1599.5,1175.8,1599.1,1182.3,1596.5,1187.7z"/>
	<path class="st0" d="M1396.9,1657.6c0.5-2.1,1-4.4,1.6-6.8C1398,1653.1,1397.5,1655.3,1396.9,1657.6z"/>
	<path class="st0" d="M1400.3,1643.1c21.2-100.6-1.7-370.1,8.6-375.2c10.5-5.3,40.4,42.9,40.4,42.9
		C1444,1429.6,1422.6,1548,1400.3,1643.1z"/>
</g>
<g>
	<polygon class="st3" points="880.7,1848.6 874.6,1804.4 900.3,1782.9 908.5,1841.3 	"/>
	<path class="st0" d="M966.2,1888H861.3c0,0-2.5-16,3-28.1c5.2-11.6,13.4-18.8,14.2-27.7c6.7,6.9,14.9,11.3,30,9.2
		c1.9,3,12,19.1,18.2,23.6C933.5,1869.9,964.1,1868.1,966.2,1888z"/>
	<path class="st5" d="M945.1,1252.8c-6.9,55.2-12.5,107.2-17,155.7c-24.4,258.3-19.6,416.2-19.6,416.2s-1.8,4.7-16.9,4.7
		c-8.6,0-16.9-1.8-16.9-1.8S820,1659,824.2,1563c0.5-11.5,1.9-22,4.3-31.1c13.1-49.1-48.5-237,18.5-306.9
		C913.9,1155.1,948.3,1227.5,945.1,1252.8z"/>
	<path class="st4" d="M945.1,1252.8c-6.9,55.2-12.5,107.2-17,155.7L824.2,1563c0.5-11.5,1.9-22,4.3-31.1
		c13.1-49.1-48.5-237,18.5-306.9C913.9,1155.1,948.3,1227.5,945.1,1252.8z"/>
	<path class="st3" d="M1027.7,726.5c0,0-2.5-12.6-5.4-22.2c-1.3-4.3,7.5-32.2,13.6-35.7c6.1-3.4,21.9,15.4,17.4,29.8
		c-2.3,7.4-6.1,31.6-6.1,31.6L1027.7,726.5z"/>
	<path class="st3" d="M1027.7,726.5c0,0-3.3-7.3-6.3-8.5c-3-1.2-6.2-13.1-8.4-17.9c0,0,2.1-3.1,5.8,0.9c2.3,2.4,7.3,9.6,7.3,9.6
		L1027.7,726.5z"/>
	<path class="st3" d="M594.6,768.9c-0.6,1.3-1.5,3.7-2.3,5.9c0-0.6,0-1.2,0-1.8c0-4.4-16.6-28.6-23.4-30.1
		c-6.8-1.5-16.4,21.1-7.9,33.6c4.3,6.5,15,28.5,15,28.5l17.7-9.1c0,0,1-8,3.5-10s2.1-14.4,2.8-19.5C599.9,766.4,597,764,594.6,768.9
		z"/>
	<path class="st3" d="M704.8,1835.3c-1.5-14.1-1.9-51.3-1.9-51.3s37.9-12.1,36.5-3.8c-6.9,40.9-5,61.2-5,61.2l-15.3,9.2
		L704.8,1835.3z"/>
	<path class="st5" d="M913.4,1250.2c0,0-146.4,401.4-175.3,575.5c0,0-6.7,4.6-19.1,3.1c-14.1-1.7-18-11.5-18-11.5
		s-26.5-208.7,26.1-281.1c36.1-49.8-15.6-268.4,68.6-285.9C879.9,1232.7,913.4,1250.2,913.4,1250.2z"/>
	<path class="st10" d="M887.4,864.1L887.4,864.1c0-0.2-0.1-0.4-0.1-0.5c-0.9-3.5-1.8-7-2.8-10.5l0,0c-3.1-10.6-6.7-20.6-10.6-29.5
		c-2.3-5.1-4.6-9.8-7-14c-0.4-0.6-0.7-1.3-1.1-1.9l0,0c-5.7-9.5-11.5-16.1-16.7-18.1c-9.6-3.7-20.2-2.7-27.6-1.1
		c1.6-2.2,5.3-3.5,5.3-3.5c-4.7,0-14.2,6.1-14.2,6.1c-67.4-15.1-63.5,80.3-58.9,102c4.6,21.6-17.1,32.1-47.8,54.3
		c-58.4,42.2-57.5,87-57.5,87c0.5,0.2,1.1,0.5,1.7,0.8c2.4-5.8,7.3-16.7,12.6-19.1c-0.1,0.5-4.4,14.7-5.6,22.7
		c8.9,4.9,21.2,12.5,34.6,21.1l0,0c17.9,11.5,37.7,24.6,53.5,35.3c-0.8-4.4-1.5-10.6-0.4-14.1l5,15.6l0.7,2
		c10.1,6.8,18.1,12.3,22.1,15.1c0.4,0.3,0.8,0.5,1.1,0.8c1.2,0.8,1.8,1.3,1.8,1.3c-1.3-5.5,4.6-19.9,14.4-38.1
		c0.7-1.3,1.4-2.6,2.1-3.9c3.2-5.7,6.8-11.8,10.6-18c1.4-2.3,2.8-4.5,4.2-6.8l0,0c1.2-1.8,2.3-3.7,3.6-5.5l0,0
		c2.9-4.4,5.8-8.9,8.9-13.4c7.8-11.6,16.1-23.1,24.3-33.6c11.9-15.4,23.6-28.7,33.4-37.4c0.3-0.7,0.6-1.3,0.9-2
		c1.5-3.6,2.7-7.5,3.6-11.5c0.3-1.2,0.5-2.4,0.8-3.6c2.4-12.8,2.5-25.6,2.5-28.6c0.8,12.4,0.5,21.8-0.4,28.8c-0.2,1.6-0.4,3-0.6,4.3
		l0,0c-0.5,3-1.1,5.5-1.8,7.6c1.6-2,3-4.2,4.3-6.5c0.8-1.6,1.6-3.2,2.2-4.9C896.4,922.3,894.3,892.3,887.4,864.1z"/>
	<path class="st3" d="M874.8,960.7c0.2,0.1-18.9,13.9-35.1,12c-15.2-1.8-27.6-19.4-27.4-19.5c6-2.2,6.5-10.9,1-47.6l2.9,0.1
		l48.6,2.3c0,0,1.1,15,3.2,29C869.5,948.9,871.9,959.9,874.8,960.7z"/>
	<path class="st11" d="M864.6,908.1c0,0,1.1,15,3.2,29c-26.5,3.2-44-18.8-51.7-31.3L864.6,908.1z"/>
	<path class="st10" d="M810.4,901.4c0,0-17.1-19.8-23.2-38c-4.4-13-4.9-63.5,45.8-63.7c0,0,14.6-0.7,29.6,6.4
		c11.9,5.7,29.8,19.1,18.8,64.8l-2.4,15.2L810.4,901.4z"/>
	<path class="st6" d="M951.2,1242.5c0,0-63.2,37.5-142.5,18.2c-0.9-0.2-65.3-10.5-65.3-10.5c1.1-3,9.4-52.8,10.5-55.5
		c14.1-36.3,39.8-233.4,61.3-243.1c5.5,6,21.2,10.1,34.6,8.9c15.5-1.4,20.6-8,19.3-15.2c17.1,8.1,30.2,15.6,30.2,15.6
		C915,984.2,951.2,1242.5,951.2,1242.5z"/>
	<path class="st3" d="M875.4,920c0,0-62.3,10.3-68.1-28.6c-5.8-38.9-17.8-63.8,21.7-72s49.5,5.4,54.6,18S891.5,916.4,875.4,920z"/>
	<path class="st10" d="M857.3,814.3c0,0-10.3,48.2-35.5,58.8s-37.7,5.3-37.7,5.3s17.7-19,17.8-47.5
		C801.9,830.9,841.2,794.5,857.3,814.3z"/>
	<path class="st10" d="M853.6,818.6c0,0,14.3,8.3,18.9,17.7c4.6,9.4,9,29.6,14.9,28c0,0,8.3-32.9-8.8-48.3
		C860.4,799.8,853.6,818.6,853.6,818.6z"/>
	<path class="st12" d="M1047.7,727.4c-2.5-0.9-6.3-3-11.1-3.4c-4.3-0.4-9.8,1-9.8,1s-17.6,109.2-18.9,115
		c-1.3,5.8-75.4,89.2-95.4,88.9c-18-0.3-39.4,13.6-43.4,16.3c0,0,42,88.8,44.1,105.5c2.3,18.2,24,297.7,24,297.7s-1.3,13,23,6
		s30.4-12.8,30.4-12.8s-22.3-220.1-27-288.5c-0.6-9.2-2.1-17.7-4.3-25.5c-2.1-7.6-0.4-15.7,4.2-22c30.7-42.2,79.2-110.5,81.9-125
		C1049.4,859.2,1047.7,727.4,1047.7,727.4z"/>
	<path class="st0" d="M792.2,1888H687.3c0,0-2.5-16,3-28.1c5.2-11.6,13.4-18.8,14.2-27.7c6.7,6.9,14.9,11.3,30,9.2
		c1.9,3,12,19.1,18.2,23.6C759.5,1869.9,790.1,1868.1,792.2,1888z"/>
	<path class="st12" d="M864.3,1059.3c-3.5-21.8-48.7-109.1-48.7-109.1s-28.5-8.5-47.3-1.7s-115.9-48.1-119.1-53.1
		c-3.1-5.1-55.2-102-55.2-102s-4.3-2.5-11.2,1.1C576,798,576,805,576,805s40.2,122.1,50.9,141c6.4,11.4,60.6,51,102.6,80.7
		c8,5.7,12.2,15.3,10.9,25.1c-5.6,41.8-7.1,65.3-13.6,136.9c-5.4,59.4-7.5,174.5-7.5,174.5s47,16.3,79.4,18.4
		c32.4,2.2,39.5-32,39.5-32S867.9,1081.7,864.3,1059.3z"/>
	<path class="st6" d="M855,900.8c0,0,7.6,4.4,16.5,3.1c6.1-0.9,7.5-8.2,7.5-8.2s-4.3-1.3-11,0C861.2,897.1,855,900.8,855,900.8z"/>
</g>
<g>
	<path class="st10" d="M2068.4,892.7c0,0,19.4,31.9-17,52c0,0,28,10.1,37.7,6.3c0,0-2.4,2.5-4.2,3.4c0,0,26.3,8.3,39.4,3.8
		c13.1-4.6,41.3-131.8-36.3-138.5c0,0-61.2-21.9-74.1,46.4s-36.5,61.7-36.5,61.7s5.7,4.8,8.9,5.7c0,0,5.1-0.3,6.7-2.4
		c0,0-2,3.4-3.5,4.3c0,0,24.8,9.4,40,4.1C2044.6,934,2068.1,907.4,2068.4,892.7z"/>
	<path class="st0" d="M1990.5,1897.3h99c0,0,2.4-15.1-2.8-26.5c-5-11-12.7-17.8-13.4-26.2c-6.3,6.5-14,10.6-28.3,8.7
		c-1.8,2.8-11.3,18.1-17.2,22.3C2021.3,1880.2,1992.5,1878.5,1990.5,1897.3z"/>
	<path class="st12" d="M2072.3,1859.5c0,0-8.4,2.7-17.3,3.5c-15.6,1.4-17.9-3.3-17.9-3.3s-15.5-137.9-65.6-401.5
		c-7.2-38.1-10.1-59.1-12.7-93c-0.8-10.1-1.5-21.4-2.4-34.6c-2.3-35.5,3.1-95.3,29.8-111c12.1-7.2,28.6-5.2,50.8,12.3
		c1.7,1.4,3.5,2.9,5.4,4.4c65,56.2,38.3,217.6,41,293.5c0.4,12.6,1.7,22.8,4.3,29.8c3.4,9.1,10.6,21.6,12.2,33.5
		C2113.5,1691.6,2072.3,1859.5,2072.3,1859.5z"/>
	<path class="st0" d="M2083.4,1529.8l-124.6-164.6c-0.8-10.1-1.5-21.4-2.4-34.6c-2.3-35.5,3.1-95.3,29.8-111l50.8,12.3
		c1.7,1.4,3.5,2.9,5.4,4.4C2107.4,1292.5,2080.8,1454,2083.4,1529.8z"/>
	<path class="st0" d="M2435.5,1689l-41.2-90c0,0-14.7,4.1-23,13.6c-7.9,9.1-13.7,7.5-31.7-5.1c6.8,10.5,7.7,16.7,11.9,30.5
		c3.3,0.4,22.2,18.7,41.5,23.7C2400.7,1663.7,2417.6,1695,2435.5,1689z"/>
	<path class="st12" d="M2003.6,1259.1c0,0,88.7,308.3,121.2,328.1s203.3,47.1,238.1,62c0,0,4.2-6.1,1.7-19
		c-0.6-2.9-5.5-13.2-5.5-13.2s-106.1-79.8-175.9-87.8c-17.3-2,35.3-266.6-81.8-277.2C1994.4,1242.3,2003.6,1259.1,2003.6,1259.1z"/>
	<path class="st3" d="M1877.1,753.3c0,0,2.4-11.9,5.1-21c1.2-4-7.1-30.4-12.8-33.6c-5.7-3.2-20.7,14.5-16.4,28.2
		c2.2,7,5.7,29.8,5.7,29.8L1877.1,753.3z"/>
	<path class="st3" d="M1877.1,753.3c0,0,3.1-6.9,5.9-8s5.8-12.4,7.9-16.9c0,0-2-2.9-5.5,0.8c-2.1,2.3-6.9,9-6.9,9L1877.1,753.3z"/>
	<path class="st3" d="M2285.6,793.3c0.6,1.3,1.5,3.5,2.2,5.6c0-0.6,0-1.1,0-1.7c0-4.2,15.7-27,22.1-28.4c6.4-1.4,15.5,19.9,7.5,31.7
		c-4.1,6.1-14.2,26.8-14.2,26.8l-16.7-8.6c0,0-1-7.5-3.3-9.4c-2.4-1.9-1.9-13.6-2.6-18.4C2280.6,790.9,2283.4,788.7,2285.6,793.3z"
		/>
	<path class="st3" d="M2021.3,974.3c-0.2,0.1,17.8,13.1,33.1,11.3c14.4-1.7,26.1-18.3,25.9-18.4c-5.7-2-6.2-10.3-0.9-44.9l-2.7,0.1
		l-45.8,2.2c0,0-1.1,14.2-3,27.4C2026.3,963.1,2024.1,973.5,2021.3,974.3z"/>
	<path class="st11" d="M2030.9,924.7c0,0-1.1,14.2-3,27.4c25,3,41.5-17.8,48.8-29.5L2030.9,924.7z"/>
	<path class="st10" d="M2082,918.3c0,0,16.1-18.7,21.9-35.8c4.1-12.3,4.6-59.9-43.2-60.1c0,0-13.8-0.7-27.9,6.1
		c-11.2,5.4-28.1,18-17.7,61.2l2.2,14.4L2082,918.3z"/>
	<path class="st3" d="M1963.9,1247.2c0,0,44.9,28.4,119.8,10.1c0.9-0.2,42.6-6.9,42.6-6.9c-1-2.9-44.8-75.2-45.9-77.8
		c-13.3-34.3,17.5-197.9-2.8-207c-5.2,5.6-20,9.5-32.6,8.4c-14.6-1.3-19.5-7.6-18.3-14.4c-16.1,7.6-28.5,14.7-28.5,14.7
		C1983.4,996.5,1963.9,1247.2,1963.9,1247.2z"/>
	<path class="st3" d="M2020.7,935.9c0,0,58.8,9.7,64.3-27s16.8-60.1-20.5-67.9c-37.3-7.8-46.7,5.1-51.5,16.9
		C2008.2,869.8,2005.6,932.4,2020.7,935.9z"/>
	<path class="st10" d="M2037.8,836.1c0,0,9.7,45.5,33.5,55.5s35.5,5,35.5,5s-16.7-17.9-16.8-44.8
		C2090.1,851.8,2053,817.5,2037.8,836.1z"/>
	<path class="st10" d="M2041.3,840.2c0,0-13.5,7.8-17.8,16.7s-8.5,28-14,26.5c0,0-7.8-31.1,8.3-45.6
		C2034.9,822.4,2041.3,840.2,2041.3,840.2z"/>
	<path class="st5" d="M2299.4,827.4c0,0-37.9,115.2-48,133c-6.1,10.7-74.3,53.3-114,81.3c-0.4,0.3-0.9,0.9-1.5,1.8c0,0,0,0,0,0.1
		c-9.9,15.3-40.6,110-33.3,126.9c30.9,71.4,52.1,99,59.8,119.1c3.8,10-1.3,21.2-11.4,24.8c-12.7,4.5-31.4,10.2-53.5,14
		c-4.2,0.7-8.5,1.4-13,1.9c-60.9,7.7-102.1-6.6-123.1-17.1c-9.9-5-15.9-15.4-15.3-26.5c1.3-22.6,12.6-45,17.7-99.3
		c3.9-41.2-31.7-104-30.2-125.9c0.6-8.7,7.4-19.1,11.1-25.8l0,0c6.5-11.9,10.1-22.7,5.8-28.6c-29-39.8-91.6-94.6-94.1-108.3
		c-3.7-20.1-2.1-144.5-2.1-144.5c2.4-0.8,5.9-2.8,10.5-3.2c4.1-0.4,9.2,1,9.2,1s16.6,103.1,17.8,108.5c1.2,5.5,71.1,84.2,90,83.9
		c17-0.3,41,12.9,44.7,15.4c0,0-15.3,27.1-19.1,63.6c-2.7,25.6,14.4,14.2,25.1-3.3c14.5-23.7,43.8-57.5,43.8-57.5s23.8-6.2,41.5,0.2
		s109.4-45.3,112.3-50.1c2.9-4.8,52-96.3,52-96.3s4.1-2.4,10.6,1C2299.4,820.8,2299.4,827.4,2299.4,827.4z"/>
	<path class="st6" d="M2037.8,916c0,0-2.5,5.1-5.9,5.2c-3.4,0.1-12-0.7-12.6-1.6c-0.6-0.9-2-6.2-2-6.2S2031.5,912.8,2037.8,916z"/>
	<path class="st4" d="M2151,1314.3c-12.7,4.5-31.4,10.2-53.5,14c-21-29-56.6-65.4-47.4-132.5c9.5-69.3,77.6-142.3,85.8-152.3
		c-9.9,15.3-40.6,110-33.3,126.9c30.9,71.4,52.1,99,59.8,119.1C2166.3,1299.5,2161.1,1310.7,2151,1314.3z"/>
	<path class="st4" d="M1944.8,1035.6c6.5-11.9,10.1-22.7,5.8-28.6c-29-39.8-91.6-94.6-94.1-108.3c6.2,14.9,82,59.4,103.3,78.5
		C1980.8,996,1945.7,1034.7,1944.8,1035.6z"/>
</g>
<g>
	<path class="st13" d="M672.6,487.1c0,0,14.2,19.5,12.7,41.6c-1.1,16.5-15.8,33.1-16.8,33.8l23.2,12.4c0,0,17.2-30.5,11.4-56
		c-1.8-7.8-10-20.3-16-25.9C680.4,486.9,672.6,487.1,672.6,487.1z"/>
	<path class="st14" d="M625.2,489.1l-14.7-32.4c0,0,68.5,2.3,91.2,58.1C701.7,514.8,653.8,480.6,625.2,489.1z"/>
</g>
<g>
	<path class="st13" d="M366.5,1314.5c0,0-16.3-12.3-20.5-30.7c-3.1-13.7,4.7-30.8,5.4-31.6l-21.9-4.4c0,0-6.5,29,4.5,48.3
		c3.4,5.9,13.1,14.1,19.4,17.1C360.2,1316.6,366.5,1314.5,366.5,1314.5z"/>
	<path class="st14" d="M404.5,1301.2l19.9,22.8c0,0-56.3,14.9-88.4-24.9C336,1299.1,383.4,1315.2,404.5,1301.2z"/>
</g>
<g>
	<path class="st15" d="M2870.1,1420.6c0,0-1.4-21.4,38.7-31.7c18-4.6,58.1,3.6,32.7,43c-26.4,41-50,26.2-50,26.2
		s55.1-43.1,33.1-62.9c-24.3-21.8-33.7,21.4-33.7,21.4S2881,1416.1,2870.1,1420.6z"/>
	<path class="st16" d="M2884.3,1460.5c0,0-15-8.1-9.1-26.2l21.6,3.7c0,0-8.3,19.5,12,21.9C2908.8,1460,2889.3,1464.7,2884.3,1460.5z
		"/>
</g>
<g>
	<path class="st17" d="M1475.8,313.1c0,0,22.4-32.3,56.9-9.4l21-20c0,0-19.6-14.9-64.7,11.8C1459.4,312.8,1475.8,313.1,1475.8,313.1
		z"/>
	<path class="st18" d="M1453.7,344.8c0,0-4.4-37.1,57.7-60.2c0,0-22.4,10.9-29.4,47.9L1453.7,344.8z"/>
</g>
<path class="st5" d="M1703.2,148c0,0,18.4-11.6,20.3-25.6c0,0,17.9,1,21.7,6.8c0,0-8.2,23.2-17.9,27.5
	C1727.3,156.7,1705.6,158.2,1703.2,148z"/>
<path class="st5" d="M1112.6,1470.4c0,0-19.6-12.4-21.6-27.3c0,0-19.1,1-23.2,7.2c0,0,8.8,24.7,19.1,29.4
	C1086.9,1479.7,1110.1,1481.2,1112.6,1470.4z"/>
<path class="st14" d="M1916.2,513.2c0,0,19.7-12.4,21.7-27.4c0,0,19.1,1,23.3,7.2c0,0-8.8,24.8-19.1,29.5
	C1942.1,522.5,1918.8,524,1916.2,513.2z"/>
<g>
	<path class="st3" d="M2298.9,1082.5c0,0-11.4-13.8-17.5-15.7c-6.1-1.9-17.9-11.1-19.5-7.3c-1.5,3.8,8,9.6,7.5,13.9
		s-30.2,11.2-30,15.8c0.2,4.6,7,15.6,18.3,14.3c11.3-1.3,40-8.1,45.9-5.1C2309.5,1101.3,2298.9,1082.5,2298.9,1082.5z"/>
	<path class="st2" d="M2605,1015.4c-16.8,22.5-36.4,40.3-56.5,54.3c-64.1,44.6-133.6,51.2-133.6,51.2c-16.7-5.3-67.8-10.9-98.1-15.8
		l0,0c-13.2-2.1-22.4-4.1-23-5.9l0.8-26.3c0,0,111-5.9,129.4-14.4c29-25,54.6-57.4,71.3-82.7c14.1-21.4,29.9-37.2,55.9-46.5
		C2588.7,916,2657.1,945.5,2605,1015.4z"/>
	<path class="st9" d="M2554.1,1053.2l-5.7,16.6c-64.1,44.6-133.6,51.2-133.6,51.2c-13.4,0-67.8-10.9-98.1-15.8
		c1.2,0.1,82.3,6.4,100.3,4.6c18.1-1.9,102.2-74.8,102.2-74.8L2554.1,1053.2z"/>
	<path class="st0" d="M2481.7,1888h122.7c8.8-6-2.4-64.2-2.4-64.2s-33.5-12.7-39.3,13.1c-5.8,25.8-42.6,34-62.1,37.2
		C2487.2,1876.2,2483,1883.5,2481.7,1888z"/>
	<path class="st0" d="M2663.6,1888h122.7c8.8-6-2.4-64.2-2.4-64.2s-33.5-12.7-39.3,13.1c-5.8,25.8-42.6,34-62.1,37.2
		C2669.2,1876.2,2664.9,1883.5,2663.6,1888z"/>
	<path class="st12" d="M2514.7,1293.5c0,0,5.5,68.8,12,151.5c8.8,112.3,32.6,390.8,32.6,390.8s15.6,13.3,50.1,6
		c0,0,29.4-96.1,38.1-205.7c0.1-1.8,0.3-3.6,0.4-5.4c8.2-111.6,20.9-346.7,20.9-346.7L2514.7,1293.5z"/>
	<path class="st0" d="M2512.8,1269.7c0,0,7.4,92.6,13.9,175.3l120.8,191.1c0.1-1.8,0.3-3.6,0.4-5.4c8.2-111.6,20.9-346.7,20.9-346.7
		L2512.8,1269.7z"/>
	<path class="st12" d="M2548,1269.7c0,0,87.6,218.1,115.6,300.7c19.9,58.9,76.2,265.4,76.2,265.4s24.5,7.4,45-6.9
		c0,0,20.9-211-21.3-270.5c-22.4-31.6-5.6-328.2-96.5-330.7C2576,1225.1,2548,1269.7,2548,1269.7z"/>
	<path class="st3" d="M2587.1,948.3c13.4,7,26.4,7.5,37.7,5.1c10.4-2.2,19.2-6.7,25.6-10.8c6.5-4.2,10.3-7.8,10.3-7.8
		s-0.5-0.7-1.2-1.9c-4-6.8-15.9-31.1-10.6-70.1c0.1-0.5-3.8,0.2-9.6,1.6c-17.4,4.1-52.3,14-53.9,14.5h-0.1c0,0-0.4,8.2-1.9,22.9
		c-0.1,1.3-0.2,2.7-0.4,4.1c-0.2,1.7-0.4,3.6-0.6,5.4C2580.9,926.5,2587.1,948.3,2587.1,948.3z"/>
	<path class="st11" d="M2583.5,901.7c25.9,5.9,64.7-32.4,64.7-32.4c-2.8-2.1-5.8-3.8-8.9-5c-17.4,4.1-52.3,14-53.9,14.5h-0.1
		C2585.3,878.8,2584.9,887,2583.5,901.7z"/>
	<path class="st3" d="M2574.7,876.7c0,0,10.7,3.8,24.3,5.7c19.9,2.7,46.1,1.1,54.3-23c13.8-40.5,31.5-64.8-9.2-81.3
		c-21.8-8.9-35.8-9.3-45.2-5.9c-8.2,2.9-13.1,8.7-16.8,14.5C2574.1,799,2558.2,869.6,2574.7,876.7z"/>
	<path class="st19" d="M2550,789.8c23.6,17,56.2,0.3,66.4,4.8c10.1,4.5,11.9,21.5,12.1,26.9c0.2,5.4,0.9,10,14.6,6.7
		c2.3-0.5,3.9-0.4,5,0.3c5.7,3.4-1.6,19.8-3.8,23.3c0,0-3.2,11.8,3.9,17.5c0.8,0.7,14.6,6.7,47.9-44.2c5.2-8,10.2-26,2.1-43.3
		c-8.1-17.3-41.8-34.1-70.3-43c-10.7-3.3-18.7-3.2-24.9-0.9c-10.4,3.8-15.9,13.6-21.4,23.4C2572.4,777.9,2550,789.8,2550,789.8z"/>
	<path class="st2" d="M2701.7,1284.9c0,0-11.4,2.5-25.8,4.9c-14.1,2.4-31.1,4.7-43.2,4.6c-61.5-0.5-113-18.6-113-18.6
		c-11.6,0-16.8-17.9-18.7-42.9c-1.3-16.9-1-37.1-0.1-57.2c0.3-6.5,0.7-13,1.1-19.4c0.8-12.6,1.8-24.8,2.6-35.5
		c0.8-10.1,1.5-18.9,2-25.7c0,0-1.6-47.9-1-90c0.5-30.2,17.4-57.7,21.7-62.2c12.3-13,48-21.3,55.1-22.4c0.5-0.1,0.8-0.1,0.8-0.1
		c29.3,16.5,68.8-5.8,68.8-5.8c0.9,0.1,1.8,0.4,2.6,0.5c2.9-0.6,32.5,3.8,39.5,7.5c17.1,9.3,27,112.4,27,112.4
		c2.8,70.1-0.7,182.3,4.8,225.1C2727.7,1274.5,2714.1,1282.1,2701.7,1284.9z"/>
	<path class="st9" d="M2654.5,915.3c0,0-43.7,45.1-75,35.8c0,0-4.2-6.1,9.9-8C2603.5,941.1,2618.7,941.9,2654.5,915.3z"/>
	<path class="st6" d="M2574.4,850.6c0,0-0.9,5.2,11.3,9.4c0,0,10.2,3.5,12.1-1.9C2597.8,858.1,2589.7,850.4,2574.4,850.6z"/>
	<path class="st9" d="M2678.4,1085.8c0,0-63.5,106.2-99.5,124.9c-24.3,12.6-58.4,19.3-78,22.3c-1.3-16.9-1-37.1-0.1-57.2
		c25.8-3.1,65.1-8.1,65.1-8.1L2678.4,1085.8z"/>
	<path class="st9" d="M2594.8,1032.5l-33.8,122.1c0,0-39.8,2.5-59,1.8c0.8-12.6,0.8-13.1,1.7-23.8
		C2503.7,1132.7,2549.4,1108.8,2594.8,1032.5z"/>
	<path class="st3" d="M2391.1,1163.7c0,0-11.4-13.8-17.5-15.7c-6.1-1.9-17.9-11.1-19.5-7.3c-1.5,3.8,7.9,9.6,7.4,13.9
		s-30.2,11.2-30,15.8c0.2,4.6,7,15.6,18.3,14.3c11.3-1.3,40-8.1,45.9-5.1C2401.7,1182.5,2391.1,1163.7,2391.1,1163.7z"/>
	<path class="st2" d="M2724.6,994.2c0,0,2,64.7-145.4,194.5l-29.6-53c-5.5-3.2,95.2-219.8,124.2-218
		C2729.8,921,2724.6,994.2,2724.6,994.2z"/>
	<path class="st2" d="M2567.2,1129.3c0,0-167.7,19.2-173.9,22.5s-19.5,16.3-15.1,32.6c0,0,86.8,10.9,134.5,10.7
		c41.2-0.2,67.8-6.8,67.8-6.8L2567.2,1129.3z"/>
</g>
<path class="st20" d="M3170.7,1897.3H19.6c-1.9,0-3.4-1.5-3.4-3.4v-3c0-1.9,1.5-3.4,3.4-3.4h3151.2c1.9,0,3.4,1.5,3.4,3.4v3
	C3174.1,1895.7,3172.6,1897.3,3170.7,1897.3z"/>
</svg>
