<?xml version="1.0" encoding="utf-8"?>
<!-- Generator: Adobe Illustrator 26.1.0, SVG Export Plug-In . SVG Version: 6.00 Build 0)  -->
<svg version="1.1" id="Слой_1" xmlns="http://www.w3.org/2000/svg" xmlns:xlink="http://www.w3.org/1999/xlink" x="0px" y="0px"
	 viewBox="0 0 152.28 100.91" style="enable-background:new 0 0 152.28 100.91;" xml:space="preserve">
<g>
	<linearGradient id="SVGID_1_" gradientUnits="userSpaceOnUse" x1="109.0843" y1="62.9175" x2="150.6862" y2="62.9175">
		<stop  offset="0" style="stop-color:#96CBFF"/>
		<stop  offset="1" style="stop-color:#5599FF"/>
	</linearGradient>
	<path style="fill:url(#SVGID_1_);" d="M145.24,72.14c0.87-1.44,1.52-2.99,1.94-4.57l3.44-0.66l0.04-3.8l0.04-3.8l-3.42-0.72
		c-0.4-1.6-1.01-3.15-1.86-4.61l1.96-2.89l-2.66-2.71l-2.66-2.71l-2.93,1.91c-1.44-0.87-2.98-1.52-4.57-1.94l-0.66-3.44l-3.8-0.04
		l-3.8-0.04l-0.72,3.42c-1.6,0.4-3.15,1.01-4.61,1.86l-2.89-1.96l-2.71,2.66l-2.71,2.66l1.91,2.93c-0.87,1.44-1.52,2.98-1.94,4.57
		l-3.44,0.66l-0.04,3.8l-0.04,3.8l3.42,0.72c0.4,1.6,1.01,3.15,1.86,4.61l-1.96,2.89l2.66,2.71l2.66,2.71l2.93-1.91
		c1.44,0.87,2.98,1.52,4.57,1.94l0.66,3.44l3.8,0.04l3.8,0.04l0.72-3.42c1.6-0.4,3.15-1.01,4.61-1.86l2.89,1.96l2.71-2.66l2.71-2.66
		L145.24,72.14z M123.23,69.45c-3.61-3.67-3.55-9.58,0.12-13.18c3.67-3.61,9.58-3.55,13.18,0.12c3.61,3.67,3.55,9.58-0.12,13.18
		C132.74,73.18,126.84,73.12,123.23,69.45z"/>
	
		<linearGradient id="SVGID_00000033339393670672467690000000797654621782888126_" gradientUnits="userSpaceOnUse" x1="-188.6848" y1="745.6168" x2="-157.6209" y2="745.6168" gradientTransform="matrix(0.9948 -0.1022 0.1022 0.9948 138.893 -723.67)">
		<stop  offset="0" style="stop-color:#96CBFF"/>
		<stop  offset="1" style="stop-color:#5599FF"/>
	</linearGradient>
	<path style="fill:url(#SVGID_00000033339393670672467690000000797654621782888126_);" d="M54.95,41.45
		c0.54-1.14,0.9-2.33,1.09-3.55l2.5-0.75l-0.26-2.83l-0.26-2.83l-2.6-0.28c-0.42-1.16-0.99-2.26-1.73-3.28l1.24-2.3l-2.19-1.81
		l-2.19-1.81l-2.03,1.64c-1.14-0.54-2.33-0.9-3.55-1.09l-0.75-2.5l-2.83,0.26l-2.83,0.26l-0.28,2.6c-1.16,0.42-2.26,0.99-3.28,1.73
		l-2.3-1.24l-1.81,2.19l-1.81,2.19l1.64,2.03c-0.54,1.14-0.9,2.33-1.09,3.55l-2.5,0.75l0.26,2.83l0.26,2.83l2.6,0.28
		c0.42,1.16,0.99,2.26,1.73,3.28l-1.24,2.3l2.19,1.81l2.19,1.81l2.03-1.64c1.14,0.54,2.33,0.9,3.55,1.09l0.75,2.5l2.83-0.26
		l2.83-0.26l0.28-2.6c1.16-0.42,2.26-0.99,3.28-1.73l2.3,1.24l1.81-2.19l1.81-2.19L54.95,41.45z M38.4,41.12
		c-2.96-2.45-3.37-6.84-0.91-9.8c2.45-2.96,6.84-3.37,9.8-0.91c2.96,2.45,3.37,6.84,0.91,9.8C45.75,43.17,41.36,43.58,38.4,41.12z"
		/>
	<g>
		<path style="fill:#64A4FF;" d="M138.83,98.62h-0.24V81.68c0-3.77-3.07-6.84-6.84-6.84h-17.43c-3.9,0-7.07-3.17-7.07-7.07V36.11
			c0-3.77-3.07-6.84-6.84-6.84H55.98v-0.24h44.44c3.9,0,7.07,3.17,7.07,7.07v31.66c0,3.77,3.07,6.84,6.84,6.84h17.43
			c3.9,0,7.07,3.17,7.07,7.07V98.62z"/>
	</g>
	<g>
		<g>
			<g>
				<g>
					<g>
						<path style="fill:#BBD070;" d="M67.37,18.31c0,0,2.69,10.71-3.77,13.64c-6.46,2.93-5.22-2.43-5.22-2.43s-2.65-0.74,4.56-4.82
							C66.34,22.76,67.37,18.31,67.37,18.31z"/>
					</g>
				</g>
			</g>
		</g>
		<g>
			<g>
				<g>
					<g>
						<path style="fill:#97A43C;" d="M84.29,19.24c0,0,1.32,9.34-10.9,13.37c-12.22,4.04-13.96,9.15-13.96,9.15
							S59.06,21.07,84.29,19.24z"/>
					</g>
				</g>
			</g>
		</g>
		<g>
			<g>
				<g>
					<g>
						<path style="fill:#48753A;" d="M59.37,37.96c-3.62-1.38,4.99-8.8,11.61-8.6c6.62,0.2,11.11,2.65,15.54,1.62
							C86.52,30.98,77.22,44.78,59.37,37.96z"/>
					</g>
				</g>
			</g>
		</g>
	</g>
	<g>
		<g>
			<g>
				<path style="fill:#DBD8E3;" d="M71.55,44.16c0.21-2.82,0.35-5.45,0.44-7.9c-0.68-0.36-1.5-0.78-2.15-1.09
					c-2.02-0.96-4.84-2.26-6.65-3.09c-1.06-0.49-2.1-0.84-2.1-0.84s-7.23-0.69-7.81-0.66c-0.18,0.01-1.09,0.33-2.27,0.78
					c-2.56,0.97-7.5,2.95-8.29,3.52c-1.15,0.83-5.28,21.06-5.39,22.44c-0.11,1.33,5.61,3.16,10.91,4.56c0,2.05-0.05,4.93-0.09,7.55
					c-0.01,0.45-0.02,0.89-0.02,1.31H71.3c-0.03-0.45-0.06-0.9-0.08-1.31c0-0.06-0.01-0.11-0.01-0.17
					c-0.09-1.78-0.43-4.96-0.35-8.06c0,0-0.06-3.27,0.27-4.67C71.17,50.31,71.55,44.16,71.55,44.16z M42.15,56.06
					c0.04-2.63,3.55-7.53,3.55-7.53s0.16-0.07,0.16-0.06c0,0,0.18-0.03,0.18-0.02c0,0,0.54-0.52,0.55-0.52
					c0.13,0.47,1.29,7.09,1.58,10.94C44.87,58.21,42.13,57.31,42.15,56.06z"/>
			</g>
		</g>
		<g>
			<g>
				<path style="fill:#323657;" d="M71.98,69.42c-0.15-1.1-0.3-2.19-0.43-3.27c0-0.01,0-0.01,0-0.02c-0.04-0.36-0.08-0.71-0.13-1.06
					c0-0.02,0-0.04-0.01-0.06c-0.17-1.48-0.31-2.9-0.41-4.2c-0.08-1-0.01-1.97,0.13-2.92c0.4-6.64,0.6-13.65,0.6-13.65
					c0.21-2.87,0.33-5.55,0.41-8.04c0,0-9.07-4.29-9.9-4.53c0,0,1.72,4.04,3.01,13.08c0.5,3.47,1.41,9.31,2.08,15.27v0
					c0.36,3.22,1.04,6.49,1.55,9.39c0.08,0.45,0.15,0.89,0.22,1.31h3.04C72.1,70.3,72.04,69.86,71.98,69.42z"/>
			</g>
		</g>
		<g>
			<g>
				<path style="fill:#323657;" d="M56.87,58.75c0.36-3.36,0.68-6.71,0.52-8.55c-1.25-14.77-4.79-18.68-5.31-19.25
					c-0.4,0.15-1.91,0.72-2.35,0.89c-2.42,0.95-7.36,2.7-8.02,3.18c-1.15,0.83-5.7,22.04-5.84,23.41c-0.09,0.93,5.84,2.87,11.9,4.6
					c-0.06,1.66,0.1,4-0.45,6.45c-0.1,0.43-0.24,0.71-0.26,1.28l8.44-0.03c0.05-0.44,0.11-0.87,0.16-1.31
					c0.16-1.32,0.33-2.67,0.5-4.11c2.53,0.66,4.25,1.08,4.25,1.08s2.38-4.02,3.07-5.65C63.59,60.46,60.53,59.73,56.87,58.75z
					 M45.95,53.67c-0.08-3.02-0.07-5.13-0.07-5.13c0.3,1.04,0.71,4,1.08,6.94C45.73,54.85,45.96,54.28,45.95,53.67z"/>
			</g>
		</g>
		<g>
			<g>
				<path style="fill:#EEA987;" d="M52.9,30.81c0,0,0.92-1.74,0.67-6.67c-0.07-1.37,7.18,3.24,7.18,3.24s-0.03,0.47-0.04,1.11
					c-0.01,0.26-0.01,0.55-0.01,0.85c0,0.08,0,0.16,0,0.25c0,0.13,0,0.27,0,0.4c0,0.17,0.01,0.33,0.02,0.48
					c0.01,0.18,0.02,0.35,0.04,0.5c0.03,0.3,0.2,0.82,0.27,0.97C61.34,32.71,55.61,32.75,52.9,30.81z"/>
			</g>
		</g>
		<g>
			<path style="fill:#E8734D;" d="M58.97,33.95l1.34,1.79c0,0-0.78,1.05-2.17,0.27L58.97,33.95z"/>
		</g>
		<g>
			<path style="fill:#E8734D;" d="M59.95,35.81c0,0,4.89,11.95,3.85,27.13l-1.54,2.8l-1.74-2.39c0,0-0.28-20.16-1.67-27.59
				L59.95,35.81z"/>
		</g>
		<g>
			<path style="fill:#EEA987;" d="M60.4,32.27l-1.43,1.67c0,0-2.29-0.44-2.97-1.64C55.33,31.1,60.4,32.27,60.4,32.27z"/>
		</g>
		<g>
			<path style="fill:#C4C1CC;" d="M60.73,30.81c0,0-0.17,1.28-1.76,3.14l1.74,2.33l0.94-4.84L60.73,30.81z"/>
		</g>
		<g>
			<path style="fill:#C4C1CC;" d="M53.33,29.28c0,0,3.32,3.75,5.64,4.67l-1.08,2.67l-5.3-5.84L53.33,29.28z"/>
		</g>
		<g>
			<g>
				<path style="fill:#323657;" d="M87.44,63.23c0,0-4.4-4.27-7.29-4.98c-1.34-0.33-3.09-2.17-4.77-4.34
					c-0.55-0.71-1.09-1.46-1.61-2.2c0,0,0,0,0,0c-2.05-2.96-3.66-5.8-3.66-5.8s-6.06-7.1-1.2-10.27c0,0,2.08-0.04,3.23,0.58
					c1.18,0.64,3.68,5.87,4.11,6.8c0.43,0.93,5.03,9.53,5.34,9.73c0.31,0.19,0.82,0.9,2.67,1.89c2.26,1.21,5.8,4.77,5.8,4.77
					L87.44,63.23z"/>
			</g>
		</g>
		<g>
			<path style="fill:#EFAA88;" d="M66.3,68.18c0,0-0.62-0.02-0.88-0.17c0,0-0.46-0.3-0.8-0.49c-0.11-0.06-0.2-0.11-0.27-0.14
				c-0.27-0.11-0.9-0.26-1.48-0.7c-0.58-0.44-2.47-2.21-2.47-2.21l1.22-1.88l0.56-1.86c0,0,4.4,0.44,4.99,0.79
				c0.06,0.03,0.11,0.07,0.16,0.11c0.47,0.34,0.67,0.8,0.9,1c0.08,0.08,0.85,0.9,0.81,1.23c-0.06,0.46-0.29,0.76-0.57,0.9
				c0,0-0.16,0.9-0.62,1.3c0,0-0.12,0.83-0.84,1.17C67.02,67.24,66.8,68.08,66.3,68.18z"/>
		</g>
		<g>
			<path style="fill:#EEA886;" d="M59.29,11.42c0,0,7.96-1.92,6.28,8.16c-1.68,10.07-3.58,10.89-8.43,8.88
				c-4.85-2.01-4.51-8.45-4.8-11.6C52.05,13.7,56.75,11.57,59.29,11.42z"/>
		</g>
		<g>
			<path style="fill:#EEA886;" d="M55.11,18.4c-0.12-0.88-1.87-1.18-2,0.15c-0.12,1.33,0.85,3.65,1.51,3.41
				C55.29,21.71,55.28,19.62,55.11,18.4z"/>
		</g>
		<g>
			<path style="fill:#16202E;" d="M52.81,22c0,0,0.16-3.17,1.31-3.28c1.15-0.12,1.35,1.16,1.35,1.16l1.17,0.2
				c0,0-0.41-2.77,0.74-3.27c1.15-0.5,7.5,1.42,8.42,0.59c0.91-0.83,0.4-6.45-1.29-7.2c-1.69-0.75-6.34-2.4-9.7-0.06
				c0,0-2.65-0.26-3.01,1.88C51.44,14.16,52.07,20.43,52.81,22z"/>
		</g>
		<g>
			<path style="fill:#323657;" d="M63.69,60.74l-3.29,5.65c0,0-8.7-2.24-10.73-2.82l4.64-5.53C54.32,58.05,61.16,59.61,63.69,60.74z
				"/>
		</g>
		<g>
			<path style="fill:#A77860;" d="M60.71,30.47L60.71,30.47c-4.27-0.44-5.92-3.72-5.92-3.72c2.68,2.66,5.9,2.59,5.9,2.59
				c0,0.08,0,0.16,0,0.25c0,0.13,0,0.27,0,0.4C60.69,30.15,60.7,30.32,60.71,30.47z"/>
		</g>
	</g>
	<g>
		<path style="fill:#4DA8F2;" d="M119.64,80.54c-0.23-0.31-0.6-0.51-1.02-0.52c-0.58-0.01-1.07,0.36-1.25,0.88l0,0l0,0
			c-0.04,0.13-0.07,0.26-0.07,0.4c0,0.16,0.03,0.32,0.08,0.46c0.08,0.23,0.23,0.43,0.42,0.58c0.19,0.15,0.42,0.24,0.68,0.27
			c0.03,0,0.07,0.01,0.1,0.01c0.02,0,0.04,0,0.06,0c0.01,0,0.02,0,0.02,0c0.13-0.01,0.26-0.03,0.37-0.08
			c0.49-0.18,0.85-0.65,0.85-1.2C119.91,81.04,119.81,80.76,119.64,80.54z M118.94,82.23L118.94,82.23
			c-0.09,0.03-0.18,0.05-0.28,0.06l0,0c-0.02,0-0.04,0-0.07,0c-0.09,0-0.18-0.02-0.27-0.04c-0.12-0.03-0.22-0.09-0.32-0.16
			c-0.03-0.03-0.07-0.06-0.1-0.09c-0.18-0.18-0.28-0.43-0.28-0.7c0-0.07,0.01-0.14,0.03-0.21c0.01-0.03,0.02-0.06,0.03-0.09
			c0.13-0.39,0.5-0.67,0.93-0.66c0.31,0,0.59,0.15,0.76,0.38c0.13,0.17,0.2,0.38,0.2,0.6C119.57,81.75,119.3,82.1,118.94,82.23z"/>
	</g>
	<g>
		<path style="fill:#EEA886;" d="M69.87,56.1c4.95,5.09,11.48,11.5,11.48,11.5l2.55-4.85c0,0-5.8-6.8-9.74-11.35
			C72.96,52,70.74,53.41,69.87,56.1z"/>
	</g>
	<g>
		<g>
			<path style="fill:#EEA886;" d="M66.81,62.95c0,0,1.33,0.64,1.68,0.93c0.35,0.29,1.76,1.34,2.1,1.59
				c0.34,0.25-0.51,0.95-3.03-0.14C65.04,64.24,66.81,62.95,66.81,62.95z"/>
		</g>
	</g>
	<g>
		<polygon style="fill:#FFC955;" points="66.93,48.37 64.61,69.95 95.16,69.95 97.48,48.37 		"/>
	</g>
	<g>
		<path style="fill:#FFC955;" d="M96.9,68.96H66.11l2.35-21.82h30.79L96.9,68.96z M66.38,68.72h30.31l2.3-21.34H68.67L66.38,68.72z"
			/>
	</g>
	<g>
		
			<rect x="62.18" y="68.01" transform="matrix(-1 -1.224647e-16 1.224647e-16 -1 129.4579 137.9666)" style="fill:#FFC955;" width="5.1" height="1.94"/>
	</g>
	<g>
		<g>
			<defs>
				<rect id="SVGID_00000158735793087813522660000004529396021523388852_" x="13.09" y="69.91" width="83.02" height="1.31"/>
			</defs>
			<clipPath id="SVGID_00000163044397105726218200000000784575190039194298_">
				<use xlink:href="#SVGID_00000158735793087813522660000004529396021523388852_"  style="overflow:visible;"/>
			</clipPath>
			<path style="clip-path:url(#SVGID_00000163044397105726218200000000784575190039194298_);fill:#96CBFF;" d="M13.09,69.91v1.31
				V69.91z"/>
			
				<rect x="13.09" y="69.91" style="clip-path:url(#SVGID_00000163044397105726218200000000784575190039194298_);fill:#96CBFF;" width="1.28" height="1.31"/>
			
				<rect x="14.37" y="69.91" style="clip-path:url(#SVGID_00000163044397105726218200000000784575190039194298_);fill:#95CAFF;" width="1.28" height="1.31"/>
			
				<rect x="15.65" y="69.91" style="clip-path:url(#SVGID_00000163044397105726218200000000784575190039194298_);fill:#94C9FF;" width="1.28" height="1.31"/>
			
				<rect x="16.92" y="69.91" style="clip-path:url(#SVGID_00000163044397105726218200000000784575190039194298_);fill:#93C9FF;" width="1.28" height="1.31"/>
			
				<rect x="18.2" y="69.91" style="clip-path:url(#SVGID_00000163044397105726218200000000784575190039194298_);fill:#92C8FF;" width="1.28" height="1.31"/>
			
				<rect x="19.48" y="69.91" style="clip-path:url(#SVGID_00000163044397105726218200000000784575190039194298_);fill:#91C7FF;" width="1.28" height="1.31"/>
			
				<rect x="20.76" y="69.91" style="clip-path:url(#SVGID_00000163044397105726218200000000784575190039194298_);fill:#90C6FF;" width="1.28" height="1.31"/>
			
				<rect x="22.03" y="69.91" style="clip-path:url(#SVGID_00000163044397105726218200000000784575190039194298_);fill:#8FC6FF;" width="1.28" height="1.31"/>
			
				<rect x="23.31" y="69.91" style="clip-path:url(#SVGID_00000163044397105726218200000000784575190039194298_);fill:#8EC5FF;" width="1.28" height="1.31"/>
			
				<rect x="24.59" y="69.91" style="clip-path:url(#SVGID_00000163044397105726218200000000784575190039194298_);fill:#8DC4FF;" width="1.28" height="1.31"/>
			
				<rect x="25.87" y="69.91" style="clip-path:url(#SVGID_00000163044397105726218200000000784575190039194298_);fill:#8CC3FF;" width="1.28" height="1.31"/>
			
				<rect x="27.14" y="69.91" style="clip-path:url(#SVGID_00000163044397105726218200000000784575190039194298_);fill:#8BC2FF;" width="1.28" height="1.31"/>
			
				<rect x="28.42" y="69.91" style="clip-path:url(#SVGID_00000163044397105726218200000000784575190039194298_);fill:#8AC2FF;" width="1.28" height="1.31"/>
			
				<rect x="29.7" y="69.91" style="clip-path:url(#SVGID_00000163044397105726218200000000784575190039194298_);fill:#89C1FF;" width="1.28" height="1.31"/>
			
				<rect x="30.97" y="69.91" style="clip-path:url(#SVGID_00000163044397105726218200000000784575190039194298_);fill:#88C0FF;" width="1.28" height="1.31"/>
			
				<rect x="32.25" y="69.91" style="clip-path:url(#SVGID_00000163044397105726218200000000784575190039194298_);fill:#87BFFF;" width="1.28" height="1.31"/>
			
				<rect x="33.53" y="69.91" style="clip-path:url(#SVGID_00000163044397105726218200000000784575190039194298_);fill:#86BFFF;" width="1.28" height="1.31"/>
			
				<rect x="34.81" y="69.91" style="clip-path:url(#SVGID_00000163044397105726218200000000784575190039194298_);fill:#85BEFF;" width="1.28" height="1.31"/>
			
				<rect x="36.08" y="69.91" style="clip-path:url(#SVGID_00000163044397105726218200000000784575190039194298_);fill:#84BDFF;" width="1.28" height="1.31"/>
			
				<rect x="37.36" y="69.91" style="clip-path:url(#SVGID_00000163044397105726218200000000784575190039194298_);fill:#83BCFF;" width="1.28" height="1.31"/>
			
				<rect x="38.64" y="69.91" style="clip-path:url(#SVGID_00000163044397105726218200000000784575190039194298_);fill:#82BBFF;" width="1.28" height="1.31"/>
			
				<rect x="39.92" y="69.91" style="clip-path:url(#SVGID_00000163044397105726218200000000784575190039194298_);fill:#81BBFF;" width="1.28" height="1.31"/>
			
				<rect x="41.19" y="69.91" style="clip-path:url(#SVGID_00000163044397105726218200000000784575190039194298_);fill:#80BAFF;" width="1.28" height="1.31"/>
			
				<rect x="42.47" y="69.91" style="clip-path:url(#SVGID_00000163044397105726218200000000784575190039194298_);fill:#7FB9FF;" width="1.28" height="1.31"/>
			
				<rect x="43.75" y="69.91" style="clip-path:url(#SVGID_00000163044397105726218200000000784575190039194298_);fill:#7EB8FF;" width="1.28" height="1.31"/>
			
				<rect x="45.02" y="69.91" style="clip-path:url(#SVGID_00000163044397105726218200000000784575190039194298_);fill:#7DB7FF;" width="1.28" height="1.31"/>
			
				<rect x="46.3" y="69.91" style="clip-path:url(#SVGID_00000163044397105726218200000000784575190039194298_);fill:#7CB7FF;" width="1.28" height="1.31"/>
			
				<rect x="47.58" y="69.91" style="clip-path:url(#SVGID_00000163044397105726218200000000784575190039194298_);fill:#7BB6FF;" width="1.28" height="1.31"/>
			
				<rect x="48.86" y="69.91" style="clip-path:url(#SVGID_00000163044397105726218200000000784575190039194298_);fill:#7AB5FF;" width="1.28" height="1.31"/>
			
				<rect x="50.13" y="69.91" style="clip-path:url(#SVGID_00000163044397105726218200000000784575190039194298_);fill:#79B4FF;" width="1.28" height="1.31"/>
			
				<rect x="51.41" y="69.91" style="clip-path:url(#SVGID_00000163044397105726218200000000784575190039194298_);fill:#78B4FF;" width="1.28" height="1.31"/>
			
				<rect x="52.69" y="69.91" style="clip-path:url(#SVGID_00000163044397105726218200000000784575190039194298_);fill:#77B3FF;" width="1.28" height="1.31"/>
			
				<rect x="53.97" y="69.91" style="clip-path:url(#SVGID_00000163044397105726218200000000784575190039194298_);fill:#76B2FF;" width="1.28" height="1.31"/>
			
				<rect x="55.24" y="69.91" style="clip-path:url(#SVGID_00000163044397105726218200000000784575190039194298_);fill:#74B1FF;" width="1.28" height="1.31"/>
			
				<rect x="56.52" y="69.91" style="clip-path:url(#SVGID_00000163044397105726218200000000784575190039194298_);fill:#73B0FF;" width="1.28" height="1.31"/>
			
				<rect x="57.8" y="69.91" style="clip-path:url(#SVGID_00000163044397105726218200000000784575190039194298_);fill:#72B0FF;" width="1.28" height="1.31"/>
			
				<rect x="59.07" y="69.91" style="clip-path:url(#SVGID_00000163044397105726218200000000784575190039194298_);fill:#71AFFF;" width="1.28" height="1.31"/>
			
				<rect x="60.35" y="69.91" style="clip-path:url(#SVGID_00000163044397105726218200000000784575190039194298_);fill:#70AEFF;" width="1.28" height="1.31"/>
			
				<rect x="61.63" y="69.91" style="clip-path:url(#SVGID_00000163044397105726218200000000784575190039194298_);fill:#6FADFF;" width="1.28" height="1.31"/>
			
				<rect x="62.91" y="69.91" style="clip-path:url(#SVGID_00000163044397105726218200000000784575190039194298_);fill:#6EADFF;" width="1.28" height="1.31"/>
			
				<rect x="64.18" y="69.91" style="clip-path:url(#SVGID_00000163044397105726218200000000784575190039194298_);fill:#6DACFF;" width="1.28" height="1.31"/>
			
				<rect x="65.46" y="69.91" style="clip-path:url(#SVGID_00000163044397105726218200000000784575190039194298_);fill:#6CABFF;" width="1.28" height="1.31"/>
			
				<rect x="66.74" y="69.91" style="clip-path:url(#SVGID_00000163044397105726218200000000784575190039194298_);fill:#6BAAFF;" width="1.28" height="1.31"/>
			
				<rect x="68.02" y="69.91" style="clip-path:url(#SVGID_00000163044397105726218200000000784575190039194298_);fill:#6AA9FF;" width="1.28" height="1.31"/>
			
				<rect x="69.29" y="69.91" style="clip-path:url(#SVGID_00000163044397105726218200000000784575190039194298_);fill:#69A9FF;" width="1.28" height="1.31"/>
			
				<rect x="70.57" y="69.91" style="clip-path:url(#SVGID_00000163044397105726218200000000784575190039194298_);fill:#68A8FF;" width="1.28" height="1.31"/>
			
				<rect x="71.85" y="69.91" style="clip-path:url(#SVGID_00000163044397105726218200000000784575190039194298_);fill:#67A7FF;" width="1.28" height="1.31"/>
			
				<rect x="73.13" y="69.91" style="clip-path:url(#SVGID_00000163044397105726218200000000784575190039194298_);fill:#66A6FF;" width="1.28" height="1.31"/>
			
				<rect x="74.4" y="69.91" style="clip-path:url(#SVGID_00000163044397105726218200000000784575190039194298_);fill:#65A6FF;" width="1.28" height="1.31"/>
			
				<rect x="75.68" y="69.91" style="clip-path:url(#SVGID_00000163044397105726218200000000784575190039194298_);fill:#64A5FF;" width="1.28" height="1.31"/>
			
				<rect x="76.96" y="69.91" style="clip-path:url(#SVGID_00000163044397105726218200000000784575190039194298_);fill:#63A4FF;" width="1.28" height="1.31"/>
			
				<rect x="78.23" y="69.91" style="clip-path:url(#SVGID_00000163044397105726218200000000784575190039194298_);fill:#62A3FF;" width="1.28" height="1.31"/>
			
				<rect x="79.51" y="69.91" style="clip-path:url(#SVGID_00000163044397105726218200000000784575190039194298_);fill:#61A2FF;" width="1.28" height="1.31"/>
			
				<rect x="80.79" y="69.91" style="clip-path:url(#SVGID_00000163044397105726218200000000784575190039194298_);fill:#60A2FF;" width="1.28" height="1.31"/>
			
				<rect x="82.07" y="69.91" style="clip-path:url(#SVGID_00000163044397105726218200000000784575190039194298_);fill:#5FA1FF;" width="1.28" height="1.31"/>
			
				<rect x="83.34" y="69.91" style="clip-path:url(#SVGID_00000163044397105726218200000000784575190039194298_);fill:#5EA0FF;" width="1.28" height="1.31"/>
			
				<rect x="84.62" y="69.91" style="clip-path:url(#SVGID_00000163044397105726218200000000784575190039194298_);fill:#5D9FFF;" width="1.28" height="1.31"/>
			
				<rect x="85.9" y="69.91" style="clip-path:url(#SVGID_00000163044397105726218200000000784575190039194298_);fill:#5C9EFF;" width="1.28" height="1.31"/>
			
				<rect x="87.18" y="69.91" style="clip-path:url(#SVGID_00000163044397105726218200000000784575190039194298_);fill:#5B9EFF;" width="1.28" height="1.31"/>
			
				<rect x="88.45" y="69.91" style="clip-path:url(#SVGID_00000163044397105726218200000000784575190039194298_);fill:#5A9DFF;" width="1.28" height="1.31"/>
			
				<rect x="89.73" y="69.91" style="clip-path:url(#SVGID_00000163044397105726218200000000784575190039194298_);fill:#599CFF;" width="1.28" height="1.31"/>
			
				<rect x="91.01" y="69.91" style="clip-path:url(#SVGID_00000163044397105726218200000000784575190039194298_);fill:#589BFF;" width="1.28" height="1.31"/>
			
				<rect x="92.28" y="69.91" style="clip-path:url(#SVGID_00000163044397105726218200000000784575190039194298_);fill:#579BFF;" width="1.28" height="1.31"/>
			
				<rect x="93.56" y="69.91" style="clip-path:url(#SVGID_00000163044397105726218200000000784575190039194298_);fill:#569AFF;" width="1.28" height="1.31"/>
			
				<rect x="94.84" y="69.91" style="clip-path:url(#SVGID_00000163044397105726218200000000784575190039194298_);fill:#5599FF;" width="1.28" height="1.31"/>
			<path style="clip-path:url(#SVGID_00000163044397105726218200000000784575190039194298_);fill:#5599FF;" d="M96.12,71.22v-1.31
				V71.22z"/>
		</g>
	</g>
	<g>
		<rect x="74.92" y="97.96" style="fill:#FFC955;" width="71.93" height="1.31"/>
	</g>
	<g>
		<path style="fill:#CFA345;" d="M79.35,58.82c-0.25,1.2,0.31,2.33,1.25,2.52c0.94,0.19,1.9-0.63,2.14-1.83
			c0.25-1.2-0.31-2.33-1.25-2.52C80.55,56.8,79.59,57.62,79.35,58.82z"/>
	</g>
	<g>
		<g>
			<g>
				<path style="fill:#6069A8;" d="M137.61,50.26c0,0,0.7,1.19,1,1.39c0.4,0.26,0.15,0.53-0.04,0.53c-0.19,0-1.17,0.07-1.39-0.17
					c-0.22-0.24-0.32-0.98-0.52-1.17c-0.2-0.19-0.41-0.96,0.1-1.14C137.21,49.54,137.61,50.26,137.61,50.26z"/>
			</g>
		</g>
	</g>
	<g>
		<g>
			<g>
				<path style="fill:#202338;" d="M137.31,49.74c0,0,0.81,1.4,0.95,1.61c0.14,0.21-0.26,0.21-0.51,0.11
					c-0.25-0.1-0.87-1.1-0.96-1.28c-0.11-0.22-0.02-0.47-0.02-0.47L137.31,49.74z"/>
			</g>
		</g>
	</g>
	<g>
		<g>
			<g>
				<polygon style="fill:#6069A8;" points="136.49,50.49 136.68,51.93 136.77,51.93 136.74,50.9 				"/>
			</g>
		</g>
	</g>
	<g>
		<g>
			<g>
				<path style="fill:#6069A8;" d="M130.62,50.26c0,0,0.7,1.19,1,1.39c0.4,0.26,0.15,0.53-0.04,0.53c-0.19,0-1.17,0.07-1.39-0.17
					c-0.22-0.24-0.32-0.98-0.52-1.17c-0.2-0.19-0.41-0.97,0.1-1.14C130.22,49.56,130.62,50.26,130.62,50.26z"/>
			</g>
		</g>
	</g>
	<g>
		<g>
			<g>
				<path style="fill:#202338;" d="M130.36,49.74c0,0,0.76,1.4,0.9,1.6c0.14,0.21-0.26,0.21-0.51,0.11c-0.25-0.1-0.87-1.1-0.96-1.28
					c-0.11-0.22-0.02-0.47-0.02-0.47L130.36,49.74z"/>
			</g>
		</g>
	</g>
	<g>
		<g>
			<g>
				<polygon style="fill:#6069A8;" points="129.5,50.49 129.69,51.93 129.79,51.93 129.76,50.9 				"/>
			</g>
		</g>
	</g>
	<g>
		<g>
			<g>
				<path style="fill:#202338;" d="M127.5,39.39l6.38,2.91c0,0,0.71,0.23,0.79,1.02c0.25,2.47,2.09,6.38,2.09,6.38
					c0.59,0.29,0.55,0.04,0.55,0.04c-0.37-1.2-0.83-6.13-0.99-8.12c-0.03-0.42-0.06-0.71-0.06-0.8c0-0.06-0.07-0.14-0.19-0.24
					c-0.87-0.71-4.48-2.18-4.48-2.18C128.89,38.33,127.5,39.39,127.5,39.39z"/>
			</g>
		</g>
	</g>
	<g>
		<g>
			<g>
				<path style="fill:#202338;" d="M126.3,40.64c0.2,1.72,2.66,1.53,2.66,1.53h2.98c0,0-0.78,1.74-1.09,3.21
					c-0.32,1.56-1.08,4.32-1.08,4.32s0.05,0.09,0.59,0.04c0,0,2.34-4.67,3.24-5.84c0.19-0.25,0.75-1.62,0.84-2.44
					c0.03-0.28,0.01-0.49-0.09-0.57c-0.1-0.09-0.34-0.25-0.66-0.45c-0.93-0.59-2.56-1.5-3.46-1.7c-1.21-0.27-3.13-0.78-3.13-0.78
					S126.1,38.92,126.3,40.64z"/>
			</g>
		</g>
	</g>
	<g>
		<path style="fill:#464240;" d="M128.32,27.36c0,0-0.45-0.85-0.23-1.75c0.22-0.9,1.05-1.8,2.28-1.39c1.23,0.41,2.22,1.37,1.48,2.47
			c-0.73,1.1,0.66,1.6,0.31,2.12c-0.36,0.52-0.22,1.07-0.07,1.19c0.15,0.12,0.64,0.56,0.58,1.07c-0.05,0.51-2.38-1.5-2.38-1.5
			S129.04,27.04,128.32,27.36z"/>
	</g>
	<g>
		<path style="fill:#EB4747;" d="M132.06,38.19c0,0-0.18,0.9-4.95-0.24C127.11,37.96,128.71,37.43,132.06,38.19z"/>
	</g>
	<g>
		<g>
			<path style="fill:#5F8CC9;" d="M127.06,38.21c-0.07,0.14-0.15,0.28-0.22,0.42c1.74,0.05,3.48,0.1,5.22,0.15
				c-0.28-0.92-0.19-2.17-0.14-3.12c0.06-1.16,0.7-1.96,0.63-3.13c0.34,0.06,0.4,0.07,0.75,0.12c-0.53-1.5-0.71-2.25-2.35-2.83
				c-0.53-0.19-0.88-0.23-1.46-0.18c-1.9,0.16-2.47,0.18-3.4,1.9c1.46,0.23,1.22,0.76,1.66,2.21c0.22,0.71,0.44,1.5,0.33,2.24
				C127.96,36.73,127.06,37.54,127.06,38.21z"/>
		</g>
	</g>
	<g>
		<g>
			<path style="fill:#EEA886;" d="M130.09,30.19c-0.78-0.15-0.61-0.58-0.61-0.58s0.04-0.24,0.05-0.55c0-0.08,0.01-0.16,0.01-0.25
				c0-0.13-0.01-0.26-0.02-0.38c-0.06-0.52,1.41-0.21,1.41-0.21s-0.09,1.06,0.12,1.37C131.24,29.91,130.87,30.34,130.09,30.19z"/>
		</g>
	</g>
	<g>
		<g>
			<path style="fill:#EEA886;" d="M128.61,29.61c0,0,1.57,1.81,2.15,2.23c0,0,0.67-0.6,0.26-2.19
				C131.01,29.65,130.25,29.27,128.61,29.61z"/>
		</g>
	</g>
	<g>
		<path style="fill:#EEA886;" d="M128.65,25.25c0,0-0.81,1.57-0.01,3.05c0.81,1.49,2.39-0.65,2.5-0.9c0.1-0.25,0.65-1.66-0.44-2.09
			C129.62,24.89,128.88,24.83,128.65,25.25z"/>
	</g>
	<g>
		<path style="fill:#464240;" d="M128.92,25.81c0,0-0.56,0.74-0.63,1.28c0,0-0.22-1.03,0.41-2.02c0.63-0.99,2.23-0.05,2.45,0.35
			c0.21,0.39,0.84,0.74-0.21,2.44C130.94,27.86,129.04,26.54,128.92,25.81z"/>
	</g>
	<g>
		<path style="fill:#A77860;" d="M130.22,28.46c0,0-0.14,0.31-0.69,0.6c0-0.08,0.01-0.16,0.01-0.25
			C129.53,28.81,129.91,28.77,130.22,28.46z"/>
	</g>
	<g>
		<path style="fill:#EEA886;" d="M122,36.8c0,0-0.39,0.17-0.57,0.09s-0.47-0.09-0.56-0.09c-0.12,0-0.49-0.13-0.49,0.01
			c0.01,0.15,0.61,0.25,0.73,0.29c0.12,0.05-0.37,0.32-0.41,0.44c-0.05,0.12,0.51,0.91,0.82,0.68c0.31-0.22,0.48-0.67,0.55-0.7
			c0.06-0.03,0.23-0.15,0.23-0.15L122,36.8z"/>
	</g>
	<g>
		<path style="fill:#EEA886;" d="M120.76,37.47c0,0-0.91,0.75-0.92,0.85c-0.01,0.1,0.03,0.15,0.12,0.08c0.09-0.07,0.9-0.7,0.9-0.7
			s-0.91,1.07-0.94,1.15c-0.02,0.05,0.07,0.14,0.12,0.11c0.05-0.03,1.02-1.04,1.02-1.04s-0.85,1-0.85,1.08
			c0,0.07,0.1,0.14,0.17,0.07c0.07-0.07,0.91-0.96,0.91-0.96s-0.57,0.77-0.53,0.84c0.02,0.04,0.09,0.13,0.23-0.08
			c0.14-0.2,0.52-0.65,0.52-0.65L120.76,37.47z"/>
	</g>
	<g>
		<g>
			<path style="fill:#FFC955;" d="M131.62,42.17h-2.67c0,0-2.46,0.2-2.66-1.53c-0.2-1.72,0.81-2.68,0.81-2.68s1.3,0.35,2.43,0.62
				c0.57-0.12,1.25-0.2,2.05-0.18c0,0,4.81,1.59,4.67,2.43C136.26,40.83,134.24,39.75,131.62,42.17z"/>
		</g>
	</g>
	<g>
		<polygon style="fill:#5E5853;" points="129.89,39.18 134.98,39.11 132.41,40.41 		"/>
	</g>
	<g>
		<path style="fill:#5F8CC9;" d="M131.47,38.53c0,0-1.15,0.44-2.55,0.04l-0.07-0.52l2.89,0.16L131.47,38.53z"/>
	</g>
	<g>
		<polygon style="fill:#91887F;" points="132.41,40.41 129.89,39.44 129.89,39.18 132.61,40.16 		"/>
	</g>
	<g>
		<g>
			<path style="fill:#EDDAD3;" d="M131.45,38.77c-0.01,0.19,0.18,0.32,0.35,0.25l0.3-0.13c0.09-0.04,0.14-0.13,0.13-0.23
				c-0.12-0.77-0.39-3.77,0-4.28c0.14-0.19,0.23-0.36,0.28-0.5c0.25,0.66,0.57,1.5,0.7,1.96l2.41,3.2l0.81,0.2
				c-1.01-2.43-1.82-3.71-1.82-3.71c-0.16-0.42-0.61-1.7-1.01-2.84c-0.25-0.72-0.48-1.38-0.61-1.74c-0.06-0.18-0.19-0.33-0.35-0.43
				c-0.37-0.22-0.99-0.57-1.56-0.85c0,0,0,0-0.01,0c-0.02-0.01-0.04-0.02-0.05-0.03c0,0,0,0,0,0c0,0,0,0,0,0
				C132.08,31.27,131.66,35.84,131.45,38.77C131.45,38.77,131.45,38.77,131.45,38.77z"/>
		</g>
		<g>
			<path style="fill:#EDDAD3;" d="M127.48,29.79c-0.34,0.05-1.19,0.88-1.64,1.71c-0.52,0.95-1.04,2.03-1.43,2.39
				c-0.72,0.66-2.75,2.97-2.84,2.91c-0.04-0.02,0.55,0.69,0.63,0.72c0.04,0.02,3.33-2.83,3.64-3.27c0.3-0.41,1.1-2.14,1.34-2.1
				c0,0,0,0,0,0c0,0,0,0,0,0c0.02,0.04,0.31,0.67,0.59,1.59c0,0.02,0.01,0.03,0.01,0.05c0.19,0.64,0.17,1.34,0.07,2.13
				c-0.08,0.59-0.52,1.56-0.79,2.03c-0.03,0.06-0.02,0.16,0.01,0.25c0,0,0,0,0,0c0.02,0.05,0.05,0.09,0.09,0.1l0.97,0.36l0.23,0.08
				c0.16,0.06,0.33,0.03,0.46-0.06c0.11-0.08,0.18-0.19,0.2-0.34c0.21-1.65,0.49-3.34,0.7-3.97c0.95-2.79-0.37-4.88-0.37-4.88
				S127.78,29.67,127.48,29.79z"/>
		</g>
	</g>
	<g>
		<polygon style="fill:#6E6760;" points="132.41,40.41 133.92,36.28 138.8,36.36 137.36,40.17 		"/>
	</g>
	<g>
		<path style="fill:#807066;" d="M135.48,38.11c-0.15,0.3-0.1,0.62,0.1,0.72c0.2,0.1,0.49-0.06,0.64-0.35
			c0.15-0.3,0.1-0.62-0.1-0.72C135.92,37.65,135.63,37.81,135.48,38.11z"/>
	</g>
	<g>
		<path style="fill:#464240;" d="M130.34,26.82c0,0,0.31,0.49,0.02,0.91c-0.29,0.42,0.07,0.83,0.14,1.28
			c0.06,0.44-1.21,1.63,0.2,2.22c1.41,0.59,1.86-0.39,1.5-0.93c-0.36-0.54-0.62-0.98-0.65-1.75
			C131.52,27.77,131.27,26.57,130.34,26.82z"/>
	</g>
	<g>
		<polygon style="fill:#FFCB55;" points="123.44,24.8 126.38,24.8 126.38,26.93 126.38,27.38 125.93,26.93 123.44,26.93 		"/>
	</g>
	<g>
		<g>
			<g>
				<g>
					<g>
						<path style="fill:#BBD070;" d="M106.91,57.54c0,0-6.42,6.11-3.3,10.86c3.12,4.75,4.58,0.59,4.58,0.59s2.11,0.64-1.02-5.22
							C105.7,61,106.91,57.54,106.91,57.54z"/>
					</g>
				</g>
			</g>
		</g>
		<g>
			<g>
				<g>
					<g>
						<path style="fill:#97A43C;" d="M95.05,50.92c0,0-4.9,5.76,1.65,13.74c6.55,7.98,5.54,12.19,5.54,12.19
							S111.36,62.98,95.05,50.92z"/>
					</g>
				</g>
			</g>
		</g>
		<g>
			<g>
				<g>
					<g>
						<path style="fill:#48753A;" d="M103.71,74.45c3.05,0.62,0.58-8.25-3.99-10.95c-4.57-2.7-8.66-2.97-11.23-5.57
							C88.5,57.92,88.7,71.41,103.71,74.45z"/>
					</g>
				</g>
			</g>
		</g>
	</g>
	<g>
		<g>
			<g>
				<g>
					<path style="fill:#EEA886;" d="M83.78,78.33c0,0,0.14-0.35,0.16-0.4c0.02-0.05,0.16-0.14,0.32-0.22
						c0.16-0.08,0.42-0.13,0.45-0.11c0.03,0.02,0.06,0.02,0.1,0.09c0.04,0.07,0.03,0.15,0.03,0.15s0.09,0.07,0.07,0.17
						c0,0,0.08,0.07,0.04,0.18c0,0,0.07,0.07,0.04,0.15c0,0-0.13,0.09-0.18,0.13c-0.04,0.05-0.33,0.2-0.64,0.31
						C84.17,78.79,83.85,78.79,83.78,78.33z"/>
				</g>
			</g>
		</g>
		<g>
			<g>
				<g>
					<path style="fill:#CF8C6C;" d="M84.28,78.15c0,0,0,0.19-0.02,0.24c-0.03,0.05,0.38,0.17,0.38,0.17S84.51,78.15,84.28,78.15z"/>
				</g>
			</g>
		</g>
		<g>
			<g>
				<g>
					<polygon style="fill:#3B3F66;" points="76.7,96.48 76.88,95.93 77.63,96.05 77.52,96.55 					"/>
				</g>
			</g>
		</g>
		<g>
			<g>
				<g>
					<polygon style="fill:#555C94;" points="82.85,96.42 82.89,96.72 83.72,96.58 83.67,96.13 					"/>
				</g>
			</g>
		</g>
		<g>
			<g>
				<g>
					<g>
						<path style="fill:#354C70;" d="M81.07,87.91c0,0-0.12,0.66-0.26,1.39c-0.02,0.13-0.05,0.26-0.07,0.39
							c-0.14,0.7-0.28,1.38-0.33,1.52c-0.12,0.32-2.63,4.93-2.63,4.93s-1.03-0.08-1.07-0.21c0,0,2.11-5,2.1-5.19
							c-0.01-0.18,0.26-5.31,0.26-5.31S81.02,87.61,81.07,87.91z"/>
					</g>
				</g>
			</g>
		</g>
		<g>
			<g>
				<g>
					<g>
						<path style="fill:#354C70;" d="M82.22,85.14c0,0,0.98,5.04,1.07,5.42c0.08,0.39,0.46,5.55,0.46,5.55s-0.22,0.46-1.04,0.28
							c0,0-1.11-5.55-1.21-5.73c-0.36-0.72-2.15-4.21-2.33-4.71c-0.17-0.5-0.12-1.08-0.12-1.08S80.38,84.12,82.22,85.14z"/>
					</g>
				</g>
			</g>
		</g>
		<g>
			<g>
				<g>
					<g>
						<path style="fill:#DEB135;" d="M81.81,78.61c0,0,0.43,1.08,0.54,1.04c0.11-0.03,1.35-1.49,1.35-1.49s0.57,0.71,0.49,0.79
							c-0.11,0.11-1.57,2.55-1.77,2.5c-0.2-0.04-1.1-1.53-1.1-1.53S81.26,78.81,81.81,78.61z"/>
					</g>
				</g>
			</g>
		</g>
		<g>
			<g>
				<g>
					<g>
						<path style="fill:#F2C344;" d="M79.96,76.56c0,0,1.12,0.86,1.43,1.19c0.31,0.34,1.16,1.75,1.1,2.17
							c-0.24,1.62-0.35,3.01-0.35,4.11c-0.01,0.96,0.3,1.21,0.11,1.22c-0.22,0.02-3.04,1.04-3.45,1.16c0,0,0.27-3.4,0.41-3.79
							C79.34,82.24,78.76,78.13,79.96,76.56z"/>
					</g>
				</g>
			</g>
		</g>
		<g>
			<g>
				<g>
					<path style="fill:#D9D0C4;" d="M87.17,74.93l0.25,1.26l0.25,1.27c0,0-1.44-0.45-3.07-0.13l-0.11-0.56l-0.11-0.56
						C86.01,75.89,87.17,74.93,87.17,74.93z"/>
				</g>
			</g>
		</g>
		<g>
			<g>
				<g>
					<path style="fill:#84BDFF;" d="M82.89,96.72c0,0,0.62-0.12,0.64-0.14c0.02-0.02,0.15-0.26,0.25-0.22
						c0.1,0.04,0.1,0.34,0.19,0.39c0.09,0.05,0.83,0.55,0.92,0.64c0.09,0.09,0.65,0.04,0.72,0.2c0.06,0.16,0.07,0.53-0.77,0.44
						c-0.84-0.09-1.79,0.05-1.97-0.05C82.7,97.88,82.84,96.96,82.89,96.72z"/>
				</g>
			</g>
		</g>
		<g>
			<g>
				<g>
					<path style="fill:#84BDFF;" d="M76.69,96.47c0,0,0.63-0.02,0.66-0.03c0.02-0.01,0.2-0.24,0.28-0.18
						c0.09,0.06,0.04,0.35,0.13,0.42c0.08,0.06,0.73,0.68,0.81,0.78c0.08,0.1,0.64,0.14,0.67,0.31s-0.02,0.54-0.83,0.32
						c-0.81-0.22-1.77-0.24-1.94-0.37C76.32,97.58,76.6,96.7,76.69,96.47z"/>
				</g>
			</g>
		</g>
		<g>
			<g>
				<g>
					<g>
						<path style="fill:#EEA987;" d="M81.59,85.37c0,0,0.08,0.31,0.2,0.37c0.12,0.07-0.56,0.72-0.56,0.72s-0.28-0.61-0.27-0.67
							C80.96,85.73,81.59,85.37,81.59,85.37z"/>
					</g>
				</g>
			</g>
		</g>
		<g>
			<g>
				<g>
					<g>
						<path style="fill:#FFD255;" d="M79.47,77.88c0,0-0.8,3.82-0.87,4.21c-0.06,0.37,2.35,3.9,2.35,3.9l0.8-0.48
							c0,0-1.95-3.55-1.95-3.71c0-0.16,0.94-3.24,0.94-3.24s0.39-0.67-0.3-1C79.75,77.25,79.47,77.88,79.47,77.88z"/>
					</g>
				</g>
			</g>
		</g>
		<g>
			<g>
				<g>
					<path style="fill:#3C5780;" d="M82.07,85.63c0,0,0.26,1.3,0.25,1.7c-0.02,0.4-1.5-0.63-1.42-1.02L82.07,85.63z"/>
				</g>
			</g>
		</g>
		<g>
			<g>
				<g>
					<g>
						<g>
							<path style="fill:#EEA886;" d="M79.96,76.56c0,0,2.04,2.23,1.91,1.98c-0.45-0.88-0.76-1.03-0.75-1.19
								c0.01-0.13,0.05-0.49,0.06-0.61c0.02-0.23,0.03-0.42,0.03-0.42s-1.01-1.42-0.97-0.94C80.3,75.85,79.96,76.56,79.96,76.56z"/>
						</g>
					</g>
				</g>
			</g>
		</g>
		<g>
			<g>
				<g>
					<g>
						<g>
							<path style="fill:#EEA886;" d="M81.9,73.94c0,0,0.28,0.66,0.28,0.81c0,0.15-0.04,0.27-0.01,0.45
								c0.02,0.18,0.18,0.57,0.16,0.68c-0.02,0.13-0.29,0.06-0.33,0.27c-0.04,0.21-0.23,0.61-0.33,0.62
								c-0.25,0.02-1.22-0.37-1.28-0.58c-0.06-0.2-0.41-1.33-0.52-1.54c-0.11-0.21,1.7-1.39,1.87-1.05
								C81.9,73.94,81.9,73.94,81.9,73.94z"/>
						</g>
					</g>
				</g>
			</g>
		</g>
		<g>
			<g>
				<g>
					<path style="fill:#16202E;" d="M79.44,74.42c-0.13-0.56,0.51-0.63,0.51-0.63s0.42-0.49,1.42-0.43c1,0.06,0.85,1.36,0.85,1.36
						s-0.69-0.1-0.99-0.03c0,0-0.04,0.56,0,0.7l-0.38-0.03c0,0,0.04-0.49-0.14-0.52c-0.18-0.02-0.24,1.05-0.58,1.28
						c0,0,0-0.08-0.05-0.15l0,0l0,0c-0.07-0.12-0.17-0.32-0.26-0.55C79.67,75.11,79.51,74.71,79.44,74.42z"/>
				</g>
			</g>
		</g>
		<g>
			<g>
				<g>
					<g>
						<g>
							<path style="fill:#EEA886;" d="M80.96,74.97c0,0-0.14-0.38-0.47-0.13c-0.24,0.18,0.01,0.82,0.24,0.81
								C80.96,75.64,81.06,75.3,80.96,74.97z"/>
						</g>
					</g>
				</g>
			</g>
		</g>
		<g>
			<g>
				<g>
					<path style="fill:#C48A6F;" d="M80.34,76.01c0,0,0.05,0.2,0.1,0.25c0.05,0.05,0.31,0.25,0.75,0.39l-0.04,0.4
						C81.15,77.05,80.29,76.72,80.34,76.01z"/>
				</g>
			</g>
		</g>
		<g>
			<g>
				<g>
					<g>
						<defs>
							<path id="SVGID_00000021088570532798306050000013629302092540104363_" d="M84.83,78.72l0.14-0.07l-0.65-1.38l-0.37,0.17
								l0.55,1.17C84.57,78.75,84.7,78.78,84.83,78.72z"/>
						</defs>
						<clipPath id="SVGID_00000008862699396719874760000002478569470529981069_">
							<use xlink:href="#SVGID_00000021088570532798306050000013629302092540104363_"  style="overflow:visible;"/>
						</clipPath>
						<path style="clip-path:url(#SVGID_00000008862699396719874760000002478569470529981069_);fill:#96CBFF;" d="M83.96,77.27v1.51
							V77.27z"/>
						
							<rect x="83.96" y="77.27" style="clip-path:url(#SVGID_00000008862699396719874760000002478569470529981069_);fill:#96CBFF;" width="0.02" height="1.51"/>
						
							<rect x="83.98" y="77.27" style="clip-path:url(#SVGID_00000008862699396719874760000002478569470529981069_);fill:#95CAFF;" width="0.02" height="1.51"/>
						
							<rect x="83.99" y="77.27" style="clip-path:url(#SVGID_00000008862699396719874760000002478569470529981069_);fill:#94C9FF;" width="0.02" height="1.51"/>
						
							<rect x="84.01" y="77.27" style="clip-path:url(#SVGID_00000008862699396719874760000002478569470529981069_);fill:#93C9FF;" width="0.02" height="1.51"/>
						
							<rect x="84.02" y="77.27" style="clip-path:url(#SVGID_00000008862699396719874760000002478569470529981069_);fill:#92C8FF;" width="0.02" height="1.51"/>
						
							<rect x="84.04" y="77.27" style="clip-path:url(#SVGID_00000008862699396719874760000002478569470529981069_);fill:#91C7FF;" width="0.02" height="1.51"/>
						
							<rect x="84.05" y="77.27" style="clip-path:url(#SVGID_00000008862699396719874760000002478569470529981069_);fill:#90C6FF;" width="0.02" height="1.51"/>
						
							<rect x="84.07" y="77.27" style="clip-path:url(#SVGID_00000008862699396719874760000002478569470529981069_);fill:#8FC6FF;" width="0.02" height="1.51"/>
						
							<rect x="84.09" y="77.27" style="clip-path:url(#SVGID_00000008862699396719874760000002478569470529981069_);fill:#8EC5FF;" width="0.02" height="1.51"/>
						
							<rect x="84.1" y="77.27" style="clip-path:url(#SVGID_00000008862699396719874760000002478569470529981069_);fill:#8DC4FF;" width="0.02" height="1.51"/>
						
							<rect x="84.12" y="77.27" style="clip-path:url(#SVGID_00000008862699396719874760000002478569470529981069_);fill:#8CC3FF;" width="0.02" height="1.51"/>
						
							<rect x="84.13" y="77.27" style="clip-path:url(#SVGID_00000008862699396719874760000002478569470529981069_);fill:#8BC2FF;" width="0.02" height="1.51"/>
						
							<rect x="84.15" y="77.27" style="clip-path:url(#SVGID_00000008862699396719874760000002478569470529981069_);fill:#8AC2FF;" width="0.02" height="1.51"/>
						
							<rect x="84.16" y="77.27" style="clip-path:url(#SVGID_00000008862699396719874760000002478569470529981069_);fill:#89C1FF;" width="0.02" height="1.51"/>
						
							<rect x="84.18" y="77.27" style="clip-path:url(#SVGID_00000008862699396719874760000002478569470529981069_);fill:#88C0FF;" width="0.02" height="1.51"/>
						
							<rect x="84.19" y="77.27" style="clip-path:url(#SVGID_00000008862699396719874760000002478569470529981069_);fill:#87BFFF;" width="0.02" height="1.51"/>
						
							<rect x="84.21" y="77.27" style="clip-path:url(#SVGID_00000008862699396719874760000002478569470529981069_);fill:#86BFFF;" width="0.02" height="1.51"/>
						
							<rect x="84.23" y="77.27" style="clip-path:url(#SVGID_00000008862699396719874760000002478569470529981069_);fill:#85BEFF;" width="0.02" height="1.51"/>
						
							<rect x="84.24" y="77.27" style="clip-path:url(#SVGID_00000008862699396719874760000002478569470529981069_);fill:#84BDFF;" width="0.02" height="1.51"/>
						
							<rect x="84.26" y="77.27" style="clip-path:url(#SVGID_00000008862699396719874760000002478569470529981069_);fill:#83BCFF;" width="0.02" height="1.51"/>
						
							<rect x="84.27" y="77.27" style="clip-path:url(#SVGID_00000008862699396719874760000002478569470529981069_);fill:#82BBFF;" width="0.02" height="1.51"/>
						
							<rect x="84.29" y="77.27" style="clip-path:url(#SVGID_00000008862699396719874760000002478569470529981069_);fill:#81BBFF;" width="0.02" height="1.51"/>
						
							<rect x="84.3" y="77.27" style="clip-path:url(#SVGID_00000008862699396719874760000002478569470529981069_);fill:#80BAFF;" width="0.02" height="1.51"/>
						
							<rect x="84.32" y="77.27" style="clip-path:url(#SVGID_00000008862699396719874760000002478569470529981069_);fill:#7FB9FF;" width="0.02" height="1.51"/>
						
							<rect x="84.34" y="77.27" style="clip-path:url(#SVGID_00000008862699396719874760000002478569470529981069_);fill:#7EB8FF;" width="0.02" height="1.51"/>
						
							<rect x="84.35" y="77.27" style="clip-path:url(#SVGID_00000008862699396719874760000002478569470529981069_);fill:#7DB7FF;" width="0.02" height="1.51"/>
						
							<rect x="84.37" y="77.27" style="clip-path:url(#SVGID_00000008862699396719874760000002478569470529981069_);fill:#7CB7FF;" width="0.02" height="1.51"/>
						
							<rect x="84.38" y="77.27" style="clip-path:url(#SVGID_00000008862699396719874760000002478569470529981069_);fill:#7BB6FF;" width="0.02" height="1.51"/>
						
							<rect x="84.4" y="77.27" style="clip-path:url(#SVGID_00000008862699396719874760000002478569470529981069_);fill:#7AB5FF;" width="0.02" height="1.51"/>
						
							<rect x="84.41" y="77.27" style="clip-path:url(#SVGID_00000008862699396719874760000002478569470529981069_);fill:#79B4FF;" width="0.02" height="1.51"/>
						
							<rect x="84.43" y="77.27" style="clip-path:url(#SVGID_00000008862699396719874760000002478569470529981069_);fill:#78B4FF;" width="0.02" height="1.51"/>
						
							<rect x="84.44" y="77.27" style="clip-path:url(#SVGID_00000008862699396719874760000002478569470529981069_);fill:#77B3FF;" width="0.02" height="1.51"/>
						
							<rect x="84.46" y="77.27" style="clip-path:url(#SVGID_00000008862699396719874760000002478569470529981069_);fill:#76B2FF;" width="0.02" height="1.51"/>
						
							<rect x="84.48" y="77.27" style="clip-path:url(#SVGID_00000008862699396719874760000002478569470529981069_);fill:#74B1FF;" width="0.02" height="1.51"/>
						
							<rect x="84.49" y="77.27" style="clip-path:url(#SVGID_00000008862699396719874760000002478569470529981069_);fill:#73B0FF;" width="0.02" height="1.51"/>
						
							<rect x="84.51" y="77.27" style="clip-path:url(#SVGID_00000008862699396719874760000002478569470529981069_);fill:#72B0FF;" width="0.02" height="1.51"/>
						
							<rect x="84.52" y="77.27" style="clip-path:url(#SVGID_00000008862699396719874760000002478569470529981069_);fill:#71AFFF;" width="0.02" height="1.51"/>
						
							<rect x="84.54" y="77.27" style="clip-path:url(#SVGID_00000008862699396719874760000002478569470529981069_);fill:#70AEFF;" width="0.02" height="1.51"/>
						
							<rect x="84.55" y="77.27" style="clip-path:url(#SVGID_00000008862699396719874760000002478569470529981069_);fill:#6FADFF;" width="0.02" height="1.51"/>
						
							<rect x="84.57" y="77.27" style="clip-path:url(#SVGID_00000008862699396719874760000002478569470529981069_);fill:#6EADFF;" width="0.02" height="1.51"/>
						
							<rect x="84.59" y="77.27" style="clip-path:url(#SVGID_00000008862699396719874760000002478569470529981069_);fill:#6DACFF;" width="0.02" height="1.51"/>
						
							<rect x="84.6" y="77.27" style="clip-path:url(#SVGID_00000008862699396719874760000002478569470529981069_);fill:#6CABFF;" width="0.02" height="1.51"/>
						
							<rect x="84.62" y="77.27" style="clip-path:url(#SVGID_00000008862699396719874760000002478569470529981069_);fill:#6BAAFF;" width="0.02" height="1.51"/>
						
							<rect x="84.63" y="77.27" style="clip-path:url(#SVGID_00000008862699396719874760000002478569470529981069_);fill:#6AA9FF;" width="0.02" height="1.51"/>
						
							<rect x="84.65" y="77.27" style="clip-path:url(#SVGID_00000008862699396719874760000002478569470529981069_);fill:#69A9FF;" width="0.02" height="1.51"/>
						
							<rect x="84.66" y="77.27" style="clip-path:url(#SVGID_00000008862699396719874760000002478569470529981069_);fill:#68A8FF;" width="0.02" height="1.51"/>
						
							<rect x="84.68" y="77.27" style="clip-path:url(#SVGID_00000008862699396719874760000002478569470529981069_);fill:#67A7FF;" width="0.02" height="1.51"/>
						
							<rect x="84.7" y="77.27" style="clip-path:url(#SVGID_00000008862699396719874760000002478569470529981069_);fill:#66A6FF;" width="0.02" height="1.51"/>
						
							<rect x="84.71" y="77.27" style="clip-path:url(#SVGID_00000008862699396719874760000002478569470529981069_);fill:#65A6FF;" width="0.02" height="1.51"/>
						
							<rect x="84.73" y="77.27" style="clip-path:url(#SVGID_00000008862699396719874760000002478569470529981069_);fill:#64A5FF;" width="0.02" height="1.51"/>
						
							<rect x="84.74" y="77.27" style="clip-path:url(#SVGID_00000008862699396719874760000002478569470529981069_);fill:#63A4FF;" width="0.02" height="1.51"/>
						
							<rect x="84.76" y="77.27" style="clip-path:url(#SVGID_00000008862699396719874760000002478569470529981069_);fill:#62A3FF;" width="0.02" height="1.51"/>
						
							<rect x="84.77" y="77.27" style="clip-path:url(#SVGID_00000008862699396719874760000002478569470529981069_);fill:#61A2FF;" width="0.02" height="1.51"/>
						
							<rect x="84.79" y="77.27" style="clip-path:url(#SVGID_00000008862699396719874760000002478569470529981069_);fill:#60A2FF;" width="0.02" height="1.51"/>
						
							<rect x="84.8" y="77.27" style="clip-path:url(#SVGID_00000008862699396719874760000002478569470529981069_);fill:#5FA1FF;" width="0.02" height="1.51"/>
						
							<rect x="84.82" y="77.27" style="clip-path:url(#SVGID_00000008862699396719874760000002478569470529981069_);fill:#5EA0FF;" width="0.02" height="1.51"/>
						
							<rect x="84.84" y="77.27" style="clip-path:url(#SVGID_00000008862699396719874760000002478569470529981069_);fill:#5D9FFF;" width="0.02" height="1.51"/>
						
							<rect x="84.85" y="77.27" style="clip-path:url(#SVGID_00000008862699396719874760000002478569470529981069_);fill:#5C9EFF;" width="0.02" height="1.51"/>
						
							<rect x="84.87" y="77.27" style="clip-path:url(#SVGID_00000008862699396719874760000002478569470529981069_);fill:#5B9EFF;" width="0.02" height="1.51"/>
						
							<rect x="84.88" y="77.27" style="clip-path:url(#SVGID_00000008862699396719874760000002478569470529981069_);fill:#5A9DFF;" width="0.02" height="1.51"/>
						
							<rect x="84.9" y="77.27" style="clip-path:url(#SVGID_00000008862699396719874760000002478569470529981069_);fill:#599CFF;" width="0.02" height="1.51"/>
						
							<rect x="84.91" y="77.27" style="clip-path:url(#SVGID_00000008862699396719874760000002478569470529981069_);fill:#589BFF;" width="0.02" height="1.51"/>
						
							<rect x="84.93" y="77.27" style="clip-path:url(#SVGID_00000008862699396719874760000002478569470529981069_);fill:#579BFF;" width="0.02" height="1.51"/>
						
							<rect x="84.95" y="77.27" style="clip-path:url(#SVGID_00000008862699396719874760000002478569470529981069_);fill:#569AFF;" width="0.02" height="1.51"/>
						
							<rect x="84.96" y="77.27" style="clip-path:url(#SVGID_00000008862699396719874760000002478569470529981069_);fill:#5599FF;" width="0.02" height="1.51"/>
						<path style="clip-path:url(#SVGID_00000008862699396719874760000002478569470529981069_);fill:#5599FF;" d="M84.98,78.78
							v-1.51V78.78z"/>
					</g>
				</g>
			</g>
		</g>
		<g>
			<g>
				<g>
					<path style="fill:#DB9C7C;" d="M84.67,77.62c0,0-0.41,0.22-0.38,0.29c0.03,0.07,0.08,0.08,0.08,0.08l-0.13,0.17
						c0,0-0.02,0.16,0.16,0.13c0,0-0.03,0.15,0.14,0.1c0,0,0.02,0.11,0.1,0.1c0.08-0.01,0.34-0.16,0.34-0.16s0.04-0.06-0.04-0.15
						c0,0,0.05-0.1-0.04-0.18c0,0,0.02-0.09-0.07-0.17c0,0,0.04-0.2-0.12-0.25C84.72,77.6,84.69,77.62,84.67,77.62z"/>
				</g>
			</g>
		</g>
		<g>
			<g>
				<g>
					<g>
						<defs>
							<polygon id="SVGID_00000008851954083079890470000003774454967007752598_" points="83.48,77.57 84.92,77.3 84.68,76.12 
								83.26,76.45 							"/>
						</defs>
						<clipPath id="SVGID_00000063627925374986396370000016510911033866082964_">
							<use xlink:href="#SVGID_00000008851954083079890470000003774454967007752598_"  style="overflow:visible;"/>
						</clipPath>
						<path style="clip-path:url(#SVGID_00000063627925374986396370000016510911033866082964_);fill:#96CBFF;" d="M83.26,76.12v1.45
							V76.12z"/>
						
							<rect x="83.26" y="76.12" style="clip-path:url(#SVGID_00000063627925374986396370000016510911033866082964_);fill:#96CBFF;" width="0.03" height="1.45"/>
						
							<rect x="83.28" y="76.12" style="clip-path:url(#SVGID_00000063627925374986396370000016510911033866082964_);fill:#95CAFF;" width="0.03" height="1.45"/>
						
							<rect x="83.31" y="76.12" style="clip-path:url(#SVGID_00000063627925374986396370000016510911033866082964_);fill:#94C9FF;" width="0.03" height="1.45"/>
						
							<rect x="83.33" y="76.12" style="clip-path:url(#SVGID_00000063627925374986396370000016510911033866082964_);fill:#93C9FF;" width="0.03" height="1.45"/>
						
							<rect x="83.36" y="76.12" style="clip-path:url(#SVGID_00000063627925374986396370000016510911033866082964_);fill:#92C8FF;" width="0.03" height="1.45"/>
						
							<rect x="83.38" y="76.12" style="clip-path:url(#SVGID_00000063627925374986396370000016510911033866082964_);fill:#91C7FF;" width="0.03" height="1.45"/>
						
							<rect x="83.41" y="76.12" style="clip-path:url(#SVGID_00000063627925374986396370000016510911033866082964_);fill:#90C6FF;" width="0.03" height="1.45"/>
						
							<rect x="83.43" y="76.12" style="clip-path:url(#SVGID_00000063627925374986396370000016510911033866082964_);fill:#8FC6FF;" width="0.03" height="1.45"/>
						
							<rect x="83.46" y="76.12" style="clip-path:url(#SVGID_00000063627925374986396370000016510911033866082964_);fill:#8EC5FF;" width="0.03" height="1.45"/>
						
							<rect x="83.49" y="76.12" style="clip-path:url(#SVGID_00000063627925374986396370000016510911033866082964_);fill:#8DC4FF;" width="0.03" height="1.45"/>
						
							<rect x="83.51" y="76.12" style="clip-path:url(#SVGID_00000063627925374986396370000016510911033866082964_);fill:#8CC3FF;" width="0.03" height="1.45"/>
						
							<rect x="83.54" y="76.12" style="clip-path:url(#SVGID_00000063627925374986396370000016510911033866082964_);fill:#8BC2FF;" width="0.03" height="1.45"/>
						
							<rect x="83.56" y="76.12" style="clip-path:url(#SVGID_00000063627925374986396370000016510911033866082964_);fill:#8AC2FF;" width="0.03" height="1.45"/>
						
							<rect x="83.59" y="76.12" style="clip-path:url(#SVGID_00000063627925374986396370000016510911033866082964_);fill:#89C1FF;" width="0.03" height="1.45"/>
						
							<rect x="83.61" y="76.12" style="clip-path:url(#SVGID_00000063627925374986396370000016510911033866082964_);fill:#88C0FF;" width="0.03" height="1.45"/>
						
							<rect x="83.64" y="76.12" style="clip-path:url(#SVGID_00000063627925374986396370000016510911033866082964_);fill:#87BFFF;" width="0.03" height="1.45"/>
						
							<rect x="83.66" y="76.12" style="clip-path:url(#SVGID_00000063627925374986396370000016510911033866082964_);fill:#86BFFF;" width="0.03" height="1.45"/>
						
							<rect x="83.69" y="76.12" style="clip-path:url(#SVGID_00000063627925374986396370000016510911033866082964_);fill:#85BEFF;" width="0.03" height="1.45"/>
						
							<rect x="83.72" y="76.12" style="clip-path:url(#SVGID_00000063627925374986396370000016510911033866082964_);fill:#84BDFF;" width="0.03" height="1.45"/>
						
							<rect x="83.74" y="76.12" style="clip-path:url(#SVGID_00000063627925374986396370000016510911033866082964_);fill:#83BCFF;" width="0.03" height="1.45"/>
						
							<rect x="83.77" y="76.12" style="clip-path:url(#SVGID_00000063627925374986396370000016510911033866082964_);fill:#82BBFF;" width="0.03" height="1.45"/>
						
							<rect x="83.79" y="76.12" style="clip-path:url(#SVGID_00000063627925374986396370000016510911033866082964_);fill:#81BBFF;" width="0.03" height="1.45"/>
						
							<rect x="83.82" y="76.12" style="clip-path:url(#SVGID_00000063627925374986396370000016510911033866082964_);fill:#80BAFF;" width="0.03" height="1.45"/>
						
							<rect x="83.84" y="76.12" style="clip-path:url(#SVGID_00000063627925374986396370000016510911033866082964_);fill:#7FB9FF;" width="0.03" height="1.45"/>
						
							<rect x="83.87" y="76.12" style="clip-path:url(#SVGID_00000063627925374986396370000016510911033866082964_);fill:#7EB8FF;" width="0.03" height="1.45"/>
						
							<rect x="83.89" y="76.12" style="clip-path:url(#SVGID_00000063627925374986396370000016510911033866082964_);fill:#7DB7FF;" width="0.03" height="1.45"/>
						
							<rect x="83.92" y="76.12" style="clip-path:url(#SVGID_00000063627925374986396370000016510911033866082964_);fill:#7CB7FF;" width="0.03" height="1.45"/>
						
							<rect x="83.95" y="76.12" style="clip-path:url(#SVGID_00000063627925374986396370000016510911033866082964_);fill:#7BB6FF;" width="0.03" height="1.45"/>
						
							<rect x="83.97" y="76.12" style="clip-path:url(#SVGID_00000063627925374986396370000016510911033866082964_);fill:#7AB5FF;" width="0.03" height="1.45"/>
						
							<rect x="84" y="76.12" style="clip-path:url(#SVGID_00000063627925374986396370000016510911033866082964_);fill:#79B4FF;" width="0.03" height="1.45"/>
						
							<rect x="84.02" y="76.12" style="clip-path:url(#SVGID_00000063627925374986396370000016510911033866082964_);fill:#78B4FF;" width="0.03" height="1.45"/>
						
							<rect x="84.05" y="76.12" style="clip-path:url(#SVGID_00000063627925374986396370000016510911033866082964_);fill:#77B3FF;" width="0.03" height="1.45"/>
						
							<rect x="84.07" y="76.12" style="clip-path:url(#SVGID_00000063627925374986396370000016510911033866082964_);fill:#76B2FF;" width="0.03" height="1.45"/>
						
							<rect x="84.1" y="76.12" style="clip-path:url(#SVGID_00000063627925374986396370000016510911033866082964_);fill:#74B1FF;" width="0.03" height="1.45"/>
						
							<rect x="84.12" y="76.12" style="clip-path:url(#SVGID_00000063627925374986396370000016510911033866082964_);fill:#73B0FF;" width="0.03" height="1.45"/>
						
							<rect x="84.15" y="76.12" style="clip-path:url(#SVGID_00000063627925374986396370000016510911033866082964_);fill:#72B0FF;" width="0.03" height="1.45"/>
						
							<rect x="84.18" y="76.12" style="clip-path:url(#SVGID_00000063627925374986396370000016510911033866082964_);fill:#71AFFF;" width="0.03" height="1.45"/>
						
							<rect x="84.2" y="76.12" style="clip-path:url(#SVGID_00000063627925374986396370000016510911033866082964_);fill:#70AEFF;" width="0.03" height="1.45"/>
						
							<rect x="84.23" y="76.12" style="clip-path:url(#SVGID_00000063627925374986396370000016510911033866082964_);fill:#6FADFF;" width="0.03" height="1.45"/>
						
							<rect x="84.25" y="76.12" style="clip-path:url(#SVGID_00000063627925374986396370000016510911033866082964_);fill:#6EADFF;" width="0.03" height="1.45"/>
						
							<rect x="84.28" y="76.12" style="clip-path:url(#SVGID_00000063627925374986396370000016510911033866082964_);fill:#6DACFF;" width="0.03" height="1.45"/>
						
							<rect x="84.3" y="76.12" style="clip-path:url(#SVGID_00000063627925374986396370000016510911033866082964_);fill:#6CABFF;" width="0.03" height="1.45"/>
						
							<rect x="84.33" y="76.12" style="clip-path:url(#SVGID_00000063627925374986396370000016510911033866082964_);fill:#6BAAFF;" width="0.03" height="1.45"/>
						
							<rect x="84.35" y="76.12" style="clip-path:url(#SVGID_00000063627925374986396370000016510911033866082964_);fill:#6AA9FF;" width="0.03" height="1.45"/>
						
							<rect x="84.38" y="76.12" style="clip-path:url(#SVGID_00000063627925374986396370000016510911033866082964_);fill:#69A9FF;" width="0.03" height="1.45"/>
						
							<rect x="84.41" y="76.12" style="clip-path:url(#SVGID_00000063627925374986396370000016510911033866082964_);fill:#68A8FF;" width="0.03" height="1.45"/>
						
							<rect x="84.43" y="76.12" style="clip-path:url(#SVGID_00000063627925374986396370000016510911033866082964_);fill:#67A7FF;" width="0.03" height="1.45"/>
						
							<rect x="84.46" y="76.12" style="clip-path:url(#SVGID_00000063627925374986396370000016510911033866082964_);fill:#66A6FF;" width="0.03" height="1.45"/>
						
							<rect x="84.48" y="76.12" style="clip-path:url(#SVGID_00000063627925374986396370000016510911033866082964_);fill:#65A6FF;" width="0.03" height="1.45"/>
						
							<rect x="84.51" y="76.12" style="clip-path:url(#SVGID_00000063627925374986396370000016510911033866082964_);fill:#64A5FF;" width="0.03" height="1.45"/>
						
							<rect x="84.53" y="76.12" style="clip-path:url(#SVGID_00000063627925374986396370000016510911033866082964_);fill:#63A4FF;" width="0.03" height="1.45"/>
						
							<rect x="84.56" y="76.12" style="clip-path:url(#SVGID_00000063627925374986396370000016510911033866082964_);fill:#62A3FF;" width="0.03" height="1.45"/>
						
							<rect x="84.58" y="76.12" style="clip-path:url(#SVGID_00000063627925374986396370000016510911033866082964_);fill:#61A2FF;" width="0.03" height="1.45"/>
						
							<rect x="84.61" y="76.12" style="clip-path:url(#SVGID_00000063627925374986396370000016510911033866082964_);fill:#60A2FF;" width="0.03" height="1.45"/>
						
							<rect x="84.64" y="76.12" style="clip-path:url(#SVGID_00000063627925374986396370000016510911033866082964_);fill:#5FA1FF;" width="0.03" height="1.45"/>
						
							<rect x="84.66" y="76.12" style="clip-path:url(#SVGID_00000063627925374986396370000016510911033866082964_);fill:#5EA0FF;" width="0.03" height="1.45"/>
						
							<rect x="84.69" y="76.12" style="clip-path:url(#SVGID_00000063627925374986396370000016510911033866082964_);fill:#5D9FFF;" width="0.03" height="1.45"/>
						
							<rect x="84.71" y="76.12" style="clip-path:url(#SVGID_00000063627925374986396370000016510911033866082964_);fill:#5C9EFF;" width="0.03" height="1.45"/>
						
							<rect x="84.74" y="76.12" style="clip-path:url(#SVGID_00000063627925374986396370000016510911033866082964_);fill:#5B9EFF;" width="0.03" height="1.45"/>
						
							<rect x="84.76" y="76.12" style="clip-path:url(#SVGID_00000063627925374986396370000016510911033866082964_);fill:#5A9DFF;" width="0.03" height="1.45"/>
						
							<rect x="84.79" y="76.12" style="clip-path:url(#SVGID_00000063627925374986396370000016510911033866082964_);fill:#599CFF;" width="0.03" height="1.45"/>
						
							<rect x="84.81" y="76.12" style="clip-path:url(#SVGID_00000063627925374986396370000016510911033866082964_);fill:#589BFF;" width="0.03" height="1.45"/>
						
							<rect x="84.84" y="76.12" style="clip-path:url(#SVGID_00000063627925374986396370000016510911033866082964_);fill:#579BFF;" width="0.03" height="1.45"/>
						
							<rect x="84.87" y="76.12" style="clip-path:url(#SVGID_00000063627925374986396370000016510911033866082964_);fill:#569AFF;" width="0.03" height="1.45"/>
						
							<rect x="84.89" y="76.12" style="clip-path:url(#SVGID_00000063627925374986396370000016510911033866082964_);fill:#5599FF;" width="0.03" height="1.45"/>
						<path style="clip-path:url(#SVGID_00000063627925374986396370000016510911033866082964_);fill:#5599FF;" d="M84.92,77.57
							v-1.45V77.57z"/>
					</g>
				</g>
			</g>
		</g>
		<g>
			<g>
				<g>
					<path style="fill:#EEA886;" d="M83.96,77.93c0,0,0.32-0.01,0.5,0.06c0.04,0.02,0.08,0.04,0.08,0.08c0,0.04-0.06,0.1-0.2,0.11
						c-0.14,0.01-0.31,0.09-0.31,0.09S83.87,78.24,83.96,77.93z"/>
				</g>
			</g>
		</g>
		<g>
			<g>
				<g>
					<path style="fill:#293B57;" d="M80.81,89.3c-0.02,0.13-0.05,0.26-0.07,0.39l-0.82-2.16C80.03,87.74,80.81,89.3,80.81,89.3z"/>
				</g>
			</g>
		</g>
	</g>
	<g>
		<path style="fill:#FFC955;" d="M31.2,63.54h-3.54c-3.53,0-6.4-2.86-6.4-6.4V46.14c0-3.53,2.86-6.4,6.4-6.4h3.54
			c3.53,0,6.4,2.86,6.4,6.4v11.01C37.59,60.68,34.73,63.54,31.2,63.54z"/>
	</g>
	<g>
		<g>
			<g>
				<g>
					<g>
						<rect x="35.01" y="55.11" style="fill:#E3F2FF;" width="0.85" height="6.44"/>
					</g>
				</g>
			</g>
		</g>
		<g>
			<g>
				<g>
					<g>
						<rect x="33.34" y="55.83" style="fill:#E3F2FF;" width="0.85" height="5.72"/>
					</g>
				</g>
			</g>
		</g>
		<g>
			<g>
				<g>
					<g>
						<rect x="31.52" y="56.77" style="fill:#E3F2FF;" width="0.85" height="4.78"/>
					</g>
				</g>
			</g>
		</g>
		<g>
			<g>
				<g>
					<g>
						<rect x="29.66" y="57.96" style="fill:#E3F2FF;" width="0.85" height="3.6"/>
					</g>
				</g>
			</g>
		</g>
		<g>
			<g>
				<g>
					<polygon style="fill:#E3F2FF;" points="24.61,57.19 24.42,57.13 26.02,52.65 29.48,51.74 30.72,46.82 33.4,45.64 33.99,41.82 
						34.19,41.85 33.57,45.78 30.89,46.96 29.64,51.9 26.17,52.81 					"/>
				</g>
			</g>
		</g>
		<g>
			<g>
				<path style="fill:#FFC955;" d="M29.96,51.49c0.18,0.22,0.15,0.55-0.07,0.73c-0.22,0.18-0.55,0.15-0.73-0.07
					c-0.18-0.22-0.15-0.55,0.07-0.73C29.45,51.23,29.78,51.27,29.96,51.49z"/>
			</g>
		</g>
		<g>
			<g>
				<path style="fill:#E3F2FF;" d="M29.95,52.29c-0.26,0.22-0.65,0.18-0.87-0.09c-0.22-0.26-0.18-0.65,0.09-0.87
					c0.26-0.21,0.65-0.18,0.87,0.09C30.25,51.69,30.22,52.08,29.95,52.29z M29.29,51.49c-0.18,0.15-0.21,0.41-0.06,0.59
					c0.15,0.18,0.41,0.21,0.59,0.06c0.18-0.15,0.21-0.41,0.06-0.59C29.74,51.37,29.47,51.34,29.29,51.49z"/>
			</g>
		</g>
		<g>
			<g>
				<path style="fill:#FFC955;" d="M31.22,46.59c0.18,0.22,0.15,0.55-0.07,0.73c-0.22,0.18-0.55,0.15-0.73-0.07
					c-0.18-0.22-0.15-0.55,0.07-0.73C30.72,46.34,31.04,46.37,31.22,46.59z"/>
			</g>
		</g>
		<g>
			<g>
				<path style="fill:#E3F2FF;" d="M31.21,47.4c-0.26,0.22-0.65,0.18-0.87-0.09c-0.22-0.26-0.18-0.65,0.09-0.87
					c0.26-0.22,0.65-0.18,0.87,0.09C31.51,46.8,31.48,47.18,31.21,47.4z M30.55,46.6c-0.18,0.15-0.21,0.41-0.06,0.59
					c0.15,0.18,0.41,0.21,0.59,0.06c0.18-0.15,0.21-0.41,0.06-0.59C31,46.48,30.73,46.45,30.55,46.6z"/>
			</g>
		</g>
		<g>
			<g>
				<path style="fill:#FFC955;" d="M33.85,45.38c0.18,0.22,0.15,0.55-0.07,0.73c-0.22,0.18-0.55,0.15-0.73-0.07
					c-0.18-0.22-0.15-0.55,0.07-0.73C33.34,45.13,33.67,45.16,33.85,45.38z"/>
			</g>
		</g>
		<g>
			<g>
				<path style="fill:#E3F2FF;" d="M33.84,46.19c-0.26,0.22-0.65,0.18-0.87-0.09c-0.21-0.26-0.18-0.65,0.09-0.87
					c0.26-0.22,0.65-0.18,0.87,0.09C34.14,45.58,34.11,45.97,33.84,46.19z M33.18,45.38c-0.18,0.15-0.21,0.41-0.06,0.59
					c0.15,0.18,0.41,0.21,0.59,0.06c0.18-0.15,0.21-0.41,0.06-0.59C33.63,45.26,33.36,45.24,33.18,45.38z"/>
			</g>
		</g>
		<g>
			<g>
				<path style="fill:#FFC955;" d="M26.52,52.45c0.18,0.22,0.15,0.55-0.07,0.73c-0.22,0.18-0.55,0.15-0.73-0.07
					c-0.18-0.22-0.15-0.55,0.07-0.73C26.01,52.19,26.33,52.23,26.52,52.45z"/>
			</g>
		</g>
		<g>
			<g>
				<path style="fill:#E3F2FF;" d="M26.5,53.25c-0.26,0.22-0.65,0.18-0.87-0.09c-0.22-0.26-0.18-0.65,0.09-0.87
					c0.26-0.21,0.65-0.18,0.87,0.09C26.81,52.65,26.77,53.04,26.5,53.25z M25.85,52.45c-0.18,0.15-0.21,0.41-0.06,0.59
					c0.15,0.18,0.41,0.21,0.59,0.06c0.18-0.15,0.21-0.41,0.06-0.59C26.29,52.33,26.03,52.3,25.85,52.45z"/>
			</g>
		</g>
		<g>
			<g>
				<g>
					<g>
						<path style="fill:#EBEBEB;" d="M27.66,47.57h-4.12c-0.3,0-0.54-0.24-0.54-0.54v0c0-0.3,0.24-0.54,0.54-0.54h4.12
							c0.3,0,0.54,0.24,0.54,0.54l0,0C28.19,47.33,27.95,47.57,27.66,47.57z"/>
					</g>
				</g>
			</g>
		</g>
		<g>
			<g>
				<g>
					<g>
						<path style="fill:#EBEBEB;" d="M27.66,45.69h-4.12c-0.3,0-0.54-0.24-0.54-0.54v0c0-0.3,0.24-0.54,0.54-0.54h4.12
							c0.3,0,0.54,0.24,0.54,0.54l0,0C28.19,45.45,27.95,45.69,27.66,45.69z"/>
					</g>
				</g>
			</g>
		</g>
	</g>
	<g>
		<g>
			<path style="fill:#16202E;" d="M19.26,48.44c0,0-0.15,1.49,0.12,1.86c0,0-0.73-0.16-0.9-0.41S19.26,48.44,19.26,48.44z"/>
		</g>
		<g>
			<g>
				<path style="fill:#EEA886;" d="M23.8,53.19c0,0,0.26-0.18,0.3-0.2c0.04-0.03,0.18-0.02,0.33,0c0.16,0.02,0.36,0.11,0.37,0.14
					c0.01,0.02,0.04,0.04,0.03,0.11c-0.01,0.07-0.06,0.12-0.06,0.12s0.03,0.09-0.03,0.15c0,0,0.02,0.09-0.06,0.14
					c0,0,0.02,0.08-0.04,0.12c0,0-0.14,0-0.19,0.01c-0.05,0.01-0.33-0.01-0.6-0.08C23.86,53.69,23.56,53.63,23.8,53.19z"/>
			</g>
		</g>
		<g>
			<g>
				<path style="fill:#CF8C6C;" d="M24.25,53.31c0,0-0.08,0.14-0.12,0.17c-0.04,0.03,0.2,0.29,0.2,0.29S24.42,53.41,24.25,53.31z"/>
			</g>
		</g>
		<g>
			<g>
				<path style="fill:#EEA886;" d="M23.65,53.21c0,0,0.17-0.02,0.27-0.07c0.1-0.05-0.02,0.52-0.02,0.52s-0.25-0.17-0.41-0.18
					C23.32,53.48,23.65,53.21,23.65,53.21z"/>
			</g>
		</g>
		<g>
			<g>
				<path style="fill:#162D40;" d="M16.77,68.24c0,0,0.52,0.76,0.7,0.92c0,0,0.36,0.19,0.37,0.34c0.02,0.28,0.04,0.45-0.44,0.46
					c-0.48,0.01-0.77,0-0.86-0.29c-0.09-0.29-0.24-0.51-0.24-0.51l-0.04,0.75h-0.11c0,0-0.05-0.75-0.05-0.86
					c-0.01-0.11-0.08-0.52,0.15-0.7C16.48,68.16,16.77,68.24,16.77,68.24z"/>
			</g>
		</g>
		<g>
			<g>
				<path style="fill:#162D40;" d="M17.54,69.2c0,0-0.26,0.07-0.56,0c-0.31-0.08-0.6-0.81-0.69-0.87l-0.08-0.3h0.6
					c0,0,0.01,0.22,0.1,0.41C17,68.62,17.54,69.2,17.54,69.2z"/>
			</g>
		</g>
		<g>
			<g>
				<path style="fill:#162D40;" d="M20.14,67.96c0,0,0.08,0.18,0.22,0.38c0.11,0.14,0.44,0.72,0.59,0.76
					c0.15,0.04,0.6,0.12,0.64,0.38c0.04,0.25,0.06,0.44-0.39,0.46c-0.45,0.02-0.74,0.05-0.96-0.27c-0.21-0.32-0.56-0.54-0.56-0.54
					v0.82h-0.17c0,0-0.08-0.86-0.13-0.92c-0.05-0.06-0.17-0.72,0.25-1.06C20.05,67.62,20.14,67.96,20.14,67.96z"/>
			</g>
		</g>
		<g>
			<g>
				<path style="fill:#162D40;" d="M20.95,69.09c0,0-0.4,0.1-0.56,0c-0.15-0.1-0.68-0.99-0.85-1.04c0,0,0.17-0.34,0.59-0.09
					C20.14,67.96,20.84,68.94,20.95,69.09z"/>
			</g>
		</g>
		<g>
			<g>
				<path style="fill:#1D3B54;" d="M16.54,55.64c0,0-0.57,0.74-0.72,1.61c-0.15,0.88,0.09,3.81,0.08,4.25
					c-0.01,0.43-0.38,1.78-0.3,2.59c0.08,0.81,0.5,4.22,0.5,4.22l0.98-0.02c0,0-0.2-3.67-0.15-4.01c0.05-0.34,0.21-1.8,0.23-1.94
					c0.02-0.14,1.12-3.87,1.12-4.5C18.29,57.21,17.91,54.61,16.54,55.64z"/>
			</g>
		</g>
		<g>
			<g>
				<path style="fill:#1D3B54;" d="M19.39,55.93c0,0,0.93,3.56,1.04,4.05c0.11,0.49,0.33,1.14,0.32,1.23
					c-0.01,0.09-0.12,1.61-0.12,1.61l-0.26,5.17h-0.98c0,0-0.32-3.29-0.37-3.95c-0.05-0.66,0.36-1.69,0.26-1.97
					c-0.1-0.28-1.62-3.53-1.62-3.53S16.52,54.89,19.39,55.93z"/>
			</g>
		</g>
		<g>
			<g>
				<path style="fill:#EDDAD3;" d="M19.1,50.6c0,0,0.37,0.04,0.65,0.34c0.28,0.3,0.55,0.78,0.62,0.94c0.07,0.16,1.11,1.65,1.16,1.69
					c0.05,0.03,0.51-0.09,0.87-0.12c0.59-0.05,1.48-0.35,1.48-0.35l0.13,0.67c0,0-2.17,0.7-2.68,0.58
					c-0.61-0.15-2.03-1.96-2.03-1.96S18.26,51.15,19.1,50.6z"/>
			</g>
		</g>
		<g>
			<g>
				<path style="fill:#EDDAD3;" d="M18.45,50.34c0,0,0.48,0.23,0.65,0.26c0.17,0.03,0.82,0.88,0.93,1.19c0.11,0.31,0,0.77-0.23,1.31
					c-0.23,0.54-0.01,0.72-0.12,1.27c-0.11,0.54-0.11,2.02-0.09,2.33c0.02,0.3-3.11,0.87-3.73,0.32c0,0,0.42-1.39,0.92-1.92
					c0.11-0.11,0.1-0.87,0.02-1.05c-0.07-0.19-0.91-1.59-0.91-1.59s-0.06-1.42,0.3-1.7c0.32-0.24,1.17-0.33,1.33-0.39
					C17.69,50.32,18.14,50.29,18.45,50.34z"/>
			</g>
		</g>
		<g>
			<g>
				<path style="fill:#D1C0BA;" d="M18.61,51.42l0.29-0.34l-0.25-0.9C18.65,50.17,18.56,50.67,18.61,51.42z"/>
			</g>
		</g>
		<g>
			<g>
				<path style="fill:#EEA886;" d="M16.77,50.6c0,0-0.61-0.17-0.96,0.5c-0.35,0.67-0.26,1.03-0.34,1.33
					c-0.08,0.3-0.4,2.32-0.42,2.41c-0.02,0.09-0.33,1.11-0.29,1.43c0.04,0.32,0.33,2.7,0.32,2.78c-0.01,0.08,0.56-0.08,0.56-0.08
					s-0.02-2.44,0-2.64c0.02-0.2,0.04-1.26,0.19-1.53c0.15-0.27,0.52-1.93,0.6-2.1C16.5,52.53,17.28,50.82,16.77,50.6z"/>
			</g>
		</g>
		<g>
			<g>
				<path style="fill:#EEA886;" d="M18.68,49.78c0,0-0.1,0.89-0.08,1.17c0,0-0.5,0.5-1.07-0.59c0,0,0.24-0.45,0.06-1.06
					C17.41,48.7,18.68,49.78,18.68,49.78z"/>
			</g>
		</g>
		<g>
			<g>
				<polygon style="fill:#EEA886;" points="18.61,50.96 18.61,51.42 18.07,50.94 				"/>
			</g>
		</g>
		<g>
			<g>
				<polygon style="fill:#D1C0BA;" points="18.61,51.42 18.37,51.12 17.56,50.31 17.26,50.45 				"/>
			</g>
		</g>
		<g>
			<g>
				<polygon style="fill:#FAE6DE;" points="18.9,51.07 19.27,51.18 18.65,50.17 				"/>
			</g>
		</g>
		<g>
			<g>
				<polygon style="fill:#FAE6DE;" points="18.37,51.12 18.03,51.66 17.24,50.43 17.58,50.26 				"/>
			</g>
		</g>
		<g>
			<path style="fill:#D1C0BA;" d="M20.09,53.3c0,0,0.12-0.8-0.01-1.29c0,0-0.07,0.39-0.24,1.01L20.09,53.3z"/>
		</g>
		<g>
			<path style="fill:#D1C0BA;" d="M16.34,53.2c0,0,0.33-1.1,0.35-1.17c0,0-0.02,1.02-0.15,1.52C16.54,53.55,16.42,53.34,16.34,53.2z
				"/>
		</g>
		<g>
			<polygon style="fill:#54281A;" points="28.78,47.66 23.52,54.28 23.7,54.42 			"/>
		</g>
		<g>
			<g>
				<path style="fill:#DB9C7C;" d="M24.77,53.11c0,0-0.39-0.04-0.41,0.03c-0.01,0.06,0.02,0.09,0.02,0.09l-0.17,0.06
					c0,0-0.09,0.1,0.05,0.17c0,0-0.09,0.09,0.05,0.14c0,0-0.04,0.08,0.02,0.12c0.06,0.03,0.32,0.05,0.32,0.05s0.05-0.02,0.04-0.12
					c0,0,0.08-0.05,0.06-0.14c0,0,0.06-0.05,0.03-0.15c0,0,0.12-0.12,0.03-0.23C24.81,53.12,24.79,53.11,24.77,53.11z"/>
			</g>
		</g>
		<g>
			<g>
				<path style="fill:#EEA886;" d="M24.12,52.99c0,0,0.23,0.15,0.32,0.28c0.02,0.03,0.03,0.06,0.01,0.09
					c-0.02,0.03-0.09,0.04-0.19-0.02c-0.1-0.06-0.26-0.09-0.26-0.09S23.91,53.16,24.12,52.99z"/>
			</g>
		</g>
		<g>
			<path style="fill:#EEA886;" d="M18.28,46.77c0,0,0.89-0.02,1.05,1.03c0.16,1.05-0.21,1.98-0.36,2.13
				c-0.15,0.15-1.04,0.04-1.25-0.51c-0.21-0.55-0.52-0.95-0.47-1.42C17.3,47.53,17.18,46.75,18.28,46.77z"/>
		</g>
		<g>
			<path style="fill:#16202E;" d="M19.37,48.2c0,0,0.24-1.31-0.94-1.55c-1.18-0.23-1.59,0.57-1.71,1.05
				c-0.11,0.48,0.02,1.83,0.02,1.83s0.79,0.69,1.26,0.87c0,0-0.39-1.44-0.25-2.47c0,0,0.96,0.15,1.6-0.01
				C19.35,47.92,19.37,48.14,19.37,48.2z"/>
		</g>
		<g>
			<path style="fill:#A77860;" d="M18.66,49.98c0,0-0.31,0-0.73-0.27c0,0,0.3,0.37,0.71,0.51C18.64,50.21,18.67,50.03,18.66,49.98z"
				/>
		</g>
		<g>
			
				<rect x="13.66" y="57.02" transform="matrix(0.9869 -0.1612 0.1612 0.9869 -9.1958 3.2438)" style="fill:#366E9C;" width="3.48" height="2.57"/>
		</g>
		<g>
			<g>
				<g>
					<g>
						<g>
							<g>
								<path style="fill:#EEA886;" d="M14.95,59.82c0,0-0.05-0.09-0.06-0.14c0,0,0-0.09-0.01-0.16c0-0.02,0-0.04-0.01-0.05
									c-0.01-0.05-0.05-0.15-0.04-0.27c0.01-0.12,0.17-0.64,0.17-0.64l0.3,0.01l0.29-0.03c0,0,0.35,0.66,0.35,0.77
									c0,0.01,0,0.02,0,0.03c0,0.1-0.05,0.17-0.06,0.22c0,0.02-0.05,0.2-0.1,0.23c-0.07,0.03-0.13,0.03-0.18,0
									c0,0-0.14,0.06-0.24,0.04c0,0-0.13,0.06-0.24-0.01C15.15,59.83,15.01,59.88,14.95,59.82z"/>
							</g>
						</g>
					</g>
				</g>
			</g>
		</g>
		<g>
			<g>
				<path style="fill:#EDDAD3;" d="M16.77,50.6c0,0-0.61-0.17-0.96,0.5c-0.35,0.67-0.35,0.96-0.39,1.28
					c-0.04,0.31-0.47,2.15-0.49,2.23c-0.02,0.09-0.16,1.24-0.17,1.65c-0.01,0.32,0.07,2.4,0.05,2.48c-0.01,0.08,0.96-0.14,0.96-0.14
					s-0.11-1.92-0.09-2.12c0.02-0.2,0.06-1.2,0.16-1.5c0.12-0.35,0.57-2.09,0.65-2.26C16.58,52.56,17.28,50.82,16.77,50.6z"/>
			</g>
		</g>
	</g>
	<g>
		<g>
			<g>
				<path style="fill:#5C544D;" d="M48.23,68.66l0.06-0.59c0,0-0.83-0.01-0.93,0.06c0,0,0.07,0.5,0.08,0.57
					C47.45,68.78,48.23,68.66,48.23,68.66z"/>
			</g>
		</g>
		<g>
			<g>
				<path style="fill:#3C4145;" d="M46.81,69.89c0.99-0.01,1.47,0.06,1.57-0.1c0.11-0.16-0.15-1.18-0.15-1.18s-0.23,0.09-0.8,0.03
					c0,0-0.25,0.3-0.48,0.43c-0.24,0.13-0.61,0.18-0.75,0.32C46.09,69.48,45.83,69.9,46.81,69.89z"/>
			</g>
		</g>
		<g>
			<g>
				<path style="fill:#5C544D;" d="M42.66,68.66l0.06-0.59c0,0-0.83-0.01-0.93,0.06c0,0,0.07,0.5,0.08,0.57
					C41.88,68.78,42.66,68.66,42.66,68.66z"/>
			</g>
		</g>
		<g>
			<g>
				<path style="fill:#3C4145;" d="M41.24,69.89c0.99-0.03,1.47,0.06,1.57-0.1c0.11-0.16-0.15-1.18-0.15-1.18s-0.22,0.09-0.8,0.03
					c0,0-0.25,0.3-0.48,0.43c-0.24,0.13-1.11,0.24-1.26,0.37C40.02,69.54,39.85,69.93,41.24,69.89z"/>
			</g>
		</g>
		<g>
			<g>
				<path style="fill:#DBD8E3;" d="M47.09,55.35c0,0,0.41,1.23,0.36,2.29c-0.05,1.06,0.21,2.22,0.32,3.32
					c0.12,1.23,0.62,4.15,0.64,4.81c0.02,0.66-0.08,2.77-0.08,2.77l-1,0.02c0,0-0.84-5.11-1.06-5.63c-0.22-0.52-1.3-4.23-1.34-4.65
					C44.9,57.87,47.09,55.35,47.09,55.35z"/>
			</g>
		</g>
		<g>
			<g>
				<path style="fill:#DBD8E3;" d="M42.87,55.57c0,0-0.55,2.9-0.62,3.55c-0.07,0.65-0.12,3.14-0.16,3.54
					c-0.04,0.41-0.24,5.3-0.44,5.9h1.28c0,0,0.98-3.56,0.98-5.24c0-1.68,0.76-3.66,1.25-4.77c0.49-1.11,1.61-1.14,1.91-3.2
					C47.09,55.35,43.28,54.91,42.87,55.57z"/>
			</g>
		</g>
		<g>
			<g>
				<path style="fill:#EEA886;" d="M45.48,45.65c0,0-1.01-0.38-1.48,0.39c-0.47,0.77-0.42,2.31,0.09,2.5
					c0.51,0.19,1.27,0.09,1.53-0.39c0.26-0.48,0.5-1.18,0.48-1.64C46.1,46.04,45.74,45.78,45.48,45.65z"/>
			</g>
		</g>
		<g>
			<g>
				<path style="fill:#EEA886;" d="M44.26,48.49c0,0,0.04,0.26-0.03,0.4c-0.07,0.13,1.27,0.13,1.27,0.13s0.11-0.71,0.31-1.31
					C46.02,47.11,44.26,48.49,44.26,48.49z"/>
			</g>
		</g>
		<g>
			<g>
				<path style="fill:#FCCCA2;" d="M45.82,47.71c0,0-0.09,0.15-0.47,0.09c-0.38-0.06-0.84-0.56-0.99-0.62
					c-0.16-0.06-0.16-0.15-0.16-0.15l-0.1,0.14l-0.17,0.01c0,0,0.15-0.45-0.08-0.63c-0.23-0.18,0.24-1.45,1.45-1.03
					c0,0,0.87,0.17,0.92,0.7C46.27,46.79,46.03,47.45,45.82,47.71z"/>
			</g>
		</g>
		<g>
			<g>
				<path style="fill:#E2D2CA;" d="M44.15,48.87c0,0,0-0.25,0.12-0.27c0.11-0.02,1.25-0.13,1.39-0.08v0.29
					C45.66,48.81,45.39,48.97,44.15,48.87z"/>
			</g>
		</g>
		<g>
			<g>
				<path style="fill:#EEA886;" d="M44.22,46.85c0.02-0.09,0.25-0.34,0.33-0.07c0.09,0.27-0.13,0.64-0.25,0.6
					C44.18,47.35,44.17,47.07,44.22,46.85z"/>
			</g>
		</g>
		<g>
			<g>
				<path style="fill:#63A4FF;" d="M44.15,48.87c0,0-0.62,0.22-1.34,0.53c0,0-0.83,0.31-0.92,1.22c-0.05,0.49-0.56,3.06-0.66,3.28
					c-0.1,0.22-1.24,3.72-1.28,3.79c-0.04,0.07,0.94,0.48,1,0.45c0.06-0.03,1.11-3.19,1.21-3.43c0,0,0.6-1.9,0.62-2.18
					c0,0,0.02,0.81,0.05,1.03c0.03,0.23-0.53,4.62-0.52,4.74c0.02,0.12,2.58,0.28,3.6,0.16c1.03-0.11,1.85-0.35,1.85-0.35
					s-0.81-3.46-0.78-3.85c0.05-0.84,0.33-2.41,0.33-2.41l0.84,1.58l-1.07,2.75l0.24,0.84c0,0,1.99-3.01,2.05-3.28
					c0.06-0.27-0.1-0.62-0.2-0.85c-0.1-0.23-0.79-1.95-0.96-2.19c-0.16-0.24-0.43-1.21-1.09-1.48c-0.55-0.23-1.48-0.41-1.48-0.41
					L44.15,48.87z"/>
			</g>
		</g>
		<g>
			<g>
				
					<rect x="38.44" y="55.36" transform="matrix(0.9687 0.2484 -0.2484 0.9687 15.4487 -8.3615)" style="fill:#F25F54;" width="4.84" height="3.37"/>
			</g>
		</g>
		<g>
			<g>
				<path style="fill:#C98462;" d="M39.54,58.41c0,0-0.13,0.22-0.18,0.28c-0.05,0.06,0.12,0.1,0.19,0.04
					C39.62,58.66,39.54,58.41,39.54,58.41z"/>
			</g>
		</g>
		<g>
			<g>
				<path style="fill:#DE9D7D;" d="M40.52,59.15c0,0,0.08-0.08,0.1-0.14c0,0,0.02-0.1,0.04-0.17c0.01-0.02,0.01-0.04,0.02-0.05
					c0.02-0.05,0.09-0.15,0.11-0.28c0.02-0.13,0.08-0.73,0.08-0.73l-0.36-0.09l-0.29-0.06c0,0-0.63,0.63-0.66,0.75
					c0,0.01-0.01,0.02-0.01,0.04c-0.02,0.11,0.01,0.19,0.01,0.25c0,0.02,0,0.23,0.05,0.27c0.07,0.05,0.14,0.06,0.19,0.05
					c0,0,0.14,0.1,0.25,0.09c0,0,0.12,0.1,0.26,0.05C40.3,59.11,40.44,59.2,40.52,59.15z"/>
			</g>
		</g>
		<g>
			<g>
				<path style="fill:#63A4FF;" d="M41.93,55.36c0,0-0.83,2.52-0.98,2.78c0,0-0.61-0.13-1-0.45l0.91-2.72L41.93,55.36z"/>
			</g>
		</g>
	</g>
	<g>
		<g>
			<path style="fill:#252E3B;" d="M116.95,59.28c0,0,3.09-9.05-2.8-11.86c-5.89-2.81-10.89,1.25-11.84,3.45
				c-0.94,2.19-0.69,6.19,0.11,8.97c0.81,2.78,0.69,7.02-1.06,8.44c-1.75,1.42-3.92,3.77-3.81,8.56c0.07,2.97,11.69-7.6,11.69-7.6
				L116.95,59.28z"/>
		</g>
		<g>
			<path style="fill:#FFD255;" d="M108.67,70.05c0,0-4.84,1.07-6.76,2.2c-1.92,1.12-6.19,6.29-6.19,8.51c0,2.22,18.66,4.3,18.66,4.3
				l3.54,12.91c0,0,9.43-2.3,10.56-4.21c1.12-1.91-3.58-15.59-4.39-18.36c-0.82-2.82-4.2-4.79-8.13-5.34
				C112.02,69.5,108.67,70.05,108.67,70.05z"/>
		</g>
		<g>
			<path style="fill:#EEA886;" d="M115.62,70.01c0,0-0.11,5.88-4.78,6.06c-4.67,0.17-3.7-5.64-3.7-5.64S110.56,69.04,115.62,70.01z"
				/>
		</g>
		<g>
			<path style="fill:#252E3B;" d="M117.59,52.25c0,0,1.65,9.46-3.05,16.3C109.67,75.63,117.59,52.25,117.59,52.25z"/>
		</g>
		<g>
			<path style="fill:#EEA886;" d="M114.61,65.85c0,0-0.32,2.81,0.22,4.56c0.54,1.75-7.14,1.8-7.13,0.36c0.01-1.63,0.79-3,0.05-5.8
				C107.02,62.16,114.61,65.85,114.61,65.85z"/>
		</g>
		<g>
			<path style="fill:#A77860;" d="M108.66,66.2c0,0,2.42,2.53,5.52,0.26c0,0-0.26,1.61-2.49,1.82
				C109.47,68.5,108.66,66.2,108.66,66.2z"/>
		</g>
		<g>
			<path style="fill:#EEA886;" d="M111.69,48.97c0,0,6.13,1.81,5.25,10.31c-0.88,8.5-4.88,8.06-5.25,8.13
				c-0.38,0.06-5.13,0.37-6.63-9.94C103.57,47.16,111.69,48.97,111.69,48.97z"/>
		</g>
		<g>
			<path style="fill:#252E3B;" d="M110.11,52.76c0,0,3.33,5.3,6.83,6.52c0,0,1.91-8.89-5.99-10.75c-7.9-1.86-6.66,8.97-6.07,11.86
				C104.88,60.4,106.53,56.15,110.11,52.76z"/>
		</g>
		<g>
			<path style="fill:#88C0FF;" d="M105.65,51.96c0,0,1.75-3.39,4.71-3.54c2.96-0.15,4.72,2.42,4.72,2.42s-1.16-2.89-4.71-2.89
				C106.8,47.94,105.65,51.96,105.65,51.96z"/>
		</g>
	</g>
	<g>
		<polygon style="fill:#5FA0FF;" points="117.69,78.65 119.77,97.96 92.43,97.96 90.35,78.65 		"/>
	</g>
	<g>
		<path style="fill:#5FA0FF;" d="M119.11,97.3H91.53l-2.1-19.55h27.58L119.11,97.3z M91.74,97.06h27.1l-2.05-19.08h-27.1
			L91.74,97.06z"/>
	</g>
	<g>
		<path style="fill:#5189DB;" d="M106.76,87.99c0.25,1.2-0.31,2.33-1.25,2.52c-0.94,0.19-1.9-0.63-2.14-1.83
			c-0.25-1.2,0.31-2.33,1.25-2.52C105.55,85.97,106.51,86.79,106.76,87.99z"/>
	</g>
	<g>
		
			<rect x="117.19" y="96.02" transform="matrix(-1 -1.224647e-16 1.224647e-16 -1 239.4757 193.9859)" style="fill:#5FA0FF;" width="5.1" height="1.94"/>
	</g>
	<g>
		<path style="fill:#64A4FF;" d="M101.32,39.97c-2.32,0-4.21-1.89-4.21-4.21c0-2.32,1.89-4.21,4.21-4.21c2.32,0,4.21,1.89,4.21,4.21
			C105.53,38.09,103.64,39.97,101.32,39.97z M101.32,31.8c-2.19,0-3.97,1.78-3.97,3.97c0,2.19,1.78,3.97,3.97,3.97
			s3.97-1.78,3.97-3.97C105.29,33.58,103.51,31.8,101.32,31.8z"/>
	</g>
	<g>
		<path style="fill:#C2BEBC;" d="M27.14,82.74l0-0.36c0.71-0.01,1.43-0.03,2.14-0.06l0.02,0.36C28.58,82.71,27.86,82.73,27.14,82.74
			z M24.99,82.72c-0.71-0.02-1.43-0.05-2.15-0.1l0.02-0.36c0.72,0.05,1.43,0.08,2.14,0.1L24.99,82.72z M31.43,82.54l-0.03-0.36
			c0.71-0.06,1.42-0.14,2.13-0.23l0.05,0.35C32.86,82.4,32.14,82.48,31.43,82.54z M20.69,82.45c-0.73-0.07-1.45-0.17-2.14-0.28
			l0.06-0.35c0.68,0.11,1.39,0.2,2.11,0.27L20.69,82.45z M35.7,81.99l-0.06-0.35c0.69-0.12,1.4-0.25,2.1-0.39l0.07,0.35
			C37.11,81.74,36.4,81.88,35.7,81.99z M16.44,81.75c-0.72-0.17-1.42-0.38-2.07-0.6l0.12-0.34c0.64,0.22,1.33,0.42,2.04,0.59
			L16.44,81.75z M39.92,81.13l-0.08-0.35c0.66-0.16,1.33-0.33,2.07-0.53L42,80.6C41.26,80.8,40.58,80.97,39.92,81.13z M12.36,80.33
			c-0.67-0.32-1.31-0.68-1.89-1.06l0.2-0.3c0.57,0.38,1.19,0.73,1.84,1.04L12.36,80.33z M44.07,80.03l-0.1-0.34
			c0.3-0.08,0.6-0.17,0.89-0.25c0.4-0.11,0.79-0.22,1.18-0.33l0.1,0.34c-0.39,0.11-0.78,0.22-1.17,0.33
			C44.67,79.86,44.37,79.95,44.07,80.03z M62.71,79.73c-0.66-0.31-1.32-0.59-1.96-0.82l0.12-0.34c0.65,0.23,1.33,0.51,2,0.83
			L62.71,79.73z M48.2,78.89l-0.09-0.35c0.77-0.2,1.46-0.36,2.1-0.49l0.07,0.35C49.65,78.54,48.97,78.7,48.2,78.89z M58.71,78.31
			c-0.69-0.16-1.4-0.28-2.09-0.35l0.04-0.36c0.71,0.07,1.43,0.19,2.14,0.35L58.71,78.31z M52.38,78.05l-0.05-0.35
			c0.75-0.1,1.45-0.15,2.15-0.17l0.01,0.36C53.81,77.9,53.12,77.96,52.38,78.05z M8.77,77.93c-0.54-0.5-1.02-1.04-1.45-1.62
			L7.6,76.1c0.42,0.56,0.89,1.08,1.41,1.57L8.77,77.93z M6.18,74.45c-0.31-0.64-0.58-1.32-0.78-2.03l0.34-0.1
			c0.2,0.69,0.46,1.35,0.76,1.97L6.18,74.45z M4.95,70.3c-0.09-0.69-0.14-1.42-0.15-2.16l0.36,0c0,0.73,0.05,1.44,0.14,2.12
			L4.95,70.3z M5.27,66.01l-0.36-0.04c0.07-0.7,0.18-1.42,0.32-2.14l0.35,0.07C5.45,64.62,5.34,65.33,5.27,66.01z M6.09,61.84
			l-0.34-0.1c0.36-1.26,0.69-2.02,0.7-2.05l0.33,0.14C6.78,59.83,6.45,60.6,6.09,61.84z"/>
	</g>
	<g>
		<path style="fill:#C2BEBC;" d="M119.72,18.44c-0.01-0.01-0.6-0.54-1.67-1.33l0.21-0.29c1.08,0.81,1.69,1.35,1.7,1.35L119.72,18.44
			z M116.29,15.88c-0.59-0.39-1.2-0.78-1.81-1.15l0.18-0.31c0.62,0.37,1.23,0.76,1.82,1.15L116.29,15.88z M112.63,13.67
			c-0.63-0.34-1.27-0.67-1.91-0.97l0.15-0.32c0.64,0.31,1.29,0.64,1.92,0.98L112.63,13.67z M108.77,11.83
			c-0.66-0.28-1.33-0.54-1.99-0.77l0.12-0.34c0.67,0.24,1.34,0.5,2.01,0.78L108.77,11.83z M81.6,11.39l-0.01-0.36
			c0.69-0.02,1.4-0.08,2.11-0.2l0.06,0.35C83.04,11.3,82.31,11.37,81.6,11.39z M79.43,11.28c-0.7-0.09-1.41-0.23-2.13-0.42
			l0.09-0.35c0.7,0.19,1.4,0.32,2.08,0.41L79.43,11.28z M85.87,10.7l-0.1-0.34c0.23-0.07,0.46-0.14,0.7-0.22
			c0.45-0.15,0.9-0.29,1.35-0.42l0.1,0.34c-0.45,0.13-0.9,0.26-1.34,0.41C86.34,10.56,86.1,10.63,85.87,10.7z M104.75,10.39
			c-0.69-0.2-1.38-0.39-2.07-0.54l0.08-0.35c0.69,0.16,1.39,0.34,2.09,0.55L104.75,10.39z M75.26,10.18
			c-0.63-0.25-1.28-0.53-1.97-0.87l0.16-0.32c0.69,0.33,1.33,0.61,1.95,0.86L75.26,10.18z M89.99,9.57l-0.07-0.35
			c0.7-0.14,1.42-0.26,2.13-0.34l0.04,0.35C91.39,9.31,90.68,9.43,89.99,9.57z M100.59,9.43c-0.7-0.12-1.42-0.21-2.12-0.28
			l0.03-0.36c0.71,0.07,1.43,0.16,2.14,0.28L100.59,9.43z M37.74,9.09l-0.19-0.3c0.61-0.4,1.23-0.78,1.82-1.14l0.18,0.31
			C38.96,8.32,38.35,8.7,37.74,9.09z M94.22,9.05L94.2,8.69c0.71-0.03,1.44-0.04,2.16-0.02l-0.01,0.36
			C95.63,9.01,94.92,9.01,94.22,9.05z M71.37,8.32c-0.61-0.33-1.21-0.67-1.88-1.04l0.18-0.31c0.67,0.38,1.27,0.71,1.87,1.04
			L71.37,8.32z M41.41,6.89l-0.17-0.31c0.64-0.35,1.28-0.69,1.91-1l0.16,0.32C42.68,6.2,42.04,6.54,41.41,6.89z M67.62,6.23
			c-0.7-0.38-1.32-0.71-1.89-1l0.16-0.32c0.58,0.29,1.2,0.62,1.9,1L67.62,6.23z M45.24,4.99l-0.14-0.33c0.67-0.29,1.35-0.56,2-0.8
			l0.12,0.34C46.57,4.44,45.9,4.7,45.24,4.99z M63.79,4.34c-0.69-0.29-1.34-0.53-1.99-0.75l0.11-0.34c0.67,0.22,1.33,0.47,2.02,0.76
			L63.79,4.34z M49.24,3.54l-0.1-0.34c0.7-0.2,1.41-0.38,2.1-0.52l0.07,0.35C50.64,3.16,49.94,3.33,49.24,3.54z M59.75,3.03
			c-0.69-0.15-1.4-0.27-2.1-0.34l0.04-0.36c0.71,0.08,1.43,0.19,2.13,0.35L59.75,3.03z M53.41,2.7l-0.04-0.36
			c0.72-0.08,1.45-0.12,2.16-0.12l0,0.36C54.84,2.58,54.13,2.62,53.41,2.7z"/>
	</g>
	<g>
		<g>
			<g>
				<g>
					<polygon style="fill:#D6D6D6;" points="75.16,83.66 66.17,81.04 68.86,80.23 					"/>
				</g>
			</g>
		</g>
		<g>
			<g>
				<g>
					<polygon style="fill:#E8E8E8;" points="75.16,83.66 71.8,80.28 69.73,80.7 					"/>
				</g>
			</g>
		</g>
		<g>
			<g>
				<g>
					<polygon style="fill:#C2C2C2;" points="68.24,81.64 68.31,82.68 75.16,83.66 					"/>
				</g>
			</g>
		</g>
	</g>
	<g>
		<g>
			<g>
				<g>
					<polygon style="fill:#D6D6D6;" points="29.92,15.04 37.84,10.61 35.11,10.43 					"/>
				</g>
			</g>
		</g>
		<g>
			<g>
				<g>
					<polygon style="fill:#E8E8E8;" points="29.92,15.04 32.35,11.12 34.4,11.06 					"/>
				</g>
			</g>
		</g>
		<g>
			<g>
				<g>
					<polygon style="fill:#C2C2C2;" points="36.02,11.63 36.17,12.62 29.92,15.04 					"/>
				</g>
			</g>
		</g>
	</g>
</g>
</svg>
