<svg width="60" height="60" viewBox="0 0 60 60" fill="none" xmlns="http://www.w3.org/2000/svg">
<path fill-rule="evenodd" clip-rule="evenodd" d="M13.0124 0.0611885C11.8588 0.364352 10.8453 1.19639 10.3255 2.26729C10.0675 2.79867 10.0142 3.12223 9.97174 4.41608L9.92182 5.93929L6.83063 5.98007L3.73956 6.02086L2.79454 6.48818C1.65633 7.05097 0.946777 7.77591 0.396002 8.93864L0 9.77444V30.9886V52.2028L0.46732 53.1482C1.03011 54.2871 1.75455 54.9964 2.91778 55.5474L3.75357 55.9434L18.5522 55.9772L33.3506 56.011L33.6603 55.7013C34.0691 55.2925 34.0701 54.7185 33.6627 54.3112L33.3556 54.0041H18.9444C7.99549 54.0041 4.40957 53.9675 4.01833 53.8519C3.33105 53.6488 2.29456 52.6124 2.09149 51.9251C1.97563 51.5327 1.93935 47.6669 1.93935 35.6909V19.9716H29.966H57.9927V28.6731V37.3746L58.2999 37.6816C58.7073 38.0891 59.2812 38.088 59.6902 37.679L60 37.3692L59.966 23.5718L59.9321 9.77444L59.5361 8.93864C58.9853 7.77591 58.2757 7.05097 57.1375 6.48818L56.1925 6.02086L53.1036 5.98007L50.0146 5.93929L49.9628 4.41608C49.9136 2.97234 49.8889 2.8516 49.4876 2.10151C49.0291 1.24406 48.4986 0.735831 47.6117 0.30392C46.7762 -0.102968 45.16 -0.0895801 44.2922 0.331321C43.4947 0.718189 42.7433 1.4694 42.3559 2.26729C42.0976 2.79942 42.0448 3.12198 42.002 4.42559L41.9517 5.9583H37.9759H34L33.9478 4.42559C33.8984 2.97121 33.8741 2.85247 33.4724 2.10151C33.0138 1.24406 32.4833 0.735831 31.5965 0.30392C30.7609 -0.102968 29.1447 -0.0895801 28.2769 0.331321C27.4794 0.718189 26.7281 1.4694 26.3407 2.26729C26.0823 2.79942 26.0295 3.12198 25.9867 4.42559L25.9364 5.9583H21.9607H17.9847L17.9326 4.42559C17.8832 2.97121 17.8589 2.85247 17.4571 2.10151C16.7608 0.799767 15.6715 0.0974729 14.2152 0.0113909C13.7601 -0.0155097 13.2188 0.00688675 13.0124 0.0611885ZM15.0472 2.28881C15.227 2.42306 15.4902 2.68844 15.6321 2.8785C15.8792 3.20944 15.8901 3.38185 15.8901 6.95926C15.8901 10.5367 15.8792 10.7091 15.6321 11.04C15.1419 11.6965 14.742 11.9015 13.9508 11.9015C13.1597 11.9015 12.7599 11.6968 12.2694 11.0403C12.0261 10.7147 12.0093 10.5016 11.9731 7.29445C11.9521 5.42417 11.9685 3.71254 12.0094 3.49083C12.1018 2.99135 12.6255 2.35312 13.1313 2.12353C13.6377 1.89381 14.6331 1.97964 15.0472 2.28881ZM31.0624 2.28881C31.2422 2.42306 31.5055 2.68844 31.6474 2.8785C31.8945 3.20944 31.9054 3.38185 31.9054 6.95926C31.9054 10.5367 31.8945 10.7091 31.6474 11.04C31.1572 11.6965 30.7573 11.9015 29.966 11.9015C29.1749 11.9015 28.7751 11.6968 28.2847 11.0403C28.0413 10.7147 28.0246 10.5016 27.9884 7.29445C27.9674 5.42417 27.9838 3.71254 28.0247 3.49083C28.117 2.99135 28.6408 2.35312 29.1465 2.12353C29.653 1.89381 30.6483 1.97964 31.0624 2.28881ZM47.0777 2.28881C47.2575 2.42306 47.5207 2.68844 47.6626 2.8785C47.9097 3.20944 47.9206 3.38185 47.9206 6.95926C47.9206 10.5367 47.9097 10.7091 47.6626 11.04C47.1724 11.6965 46.7725 11.9015 45.9813 11.9015C45.1901 11.9015 44.7904 11.6968 44.2999 11.0403C44.0566 10.7147 44.0398 10.5016 44.0036 7.29445C43.9826 5.42417 43.999 3.71254 44.0399 3.49083C44.1323 2.99135 44.656 2.35312 45.1617 2.12353C45.6682 1.89381 46.6636 1.97964 47.0777 2.28881ZM9.97287 9.49292C10.0183 10.7325 10.0811 11.1341 10.3017 11.5925C10.7256 12.4739 11.2354 13.008 12.0959 13.472C12.8192 13.862 12.9787 13.8987 13.9508 13.8987C14.9221 13.8987 15.0827 13.8618 15.8027 13.4736C16.6826 12.999 17.0631 12.6043 17.5465 11.6646C17.8351 11.1032 17.8818 10.8395 17.9299 9.49292L17.9847 7.96021H21.9584H25.9321L25.9881 9.49292C26.0335 10.7325 26.0963 11.1341 26.3169 11.5925C26.7408 12.4739 27.2507 13.008 28.1111 13.472C28.8365 13.8631 28.9914 13.8985 29.966 13.896C30.8698 13.8936 31.1255 13.8433 31.6685 13.5612C32.6129 13.0704 33.0048 12.6912 33.474 11.814C33.8739 11.0665 33.8984 10.9461 33.9478 9.49292L34 7.96021H37.9737H41.9473L42.0034 9.49292C42.0488 10.7325 42.1116 11.1341 42.3322 11.5925C42.7561 12.4739 43.2659 13.008 44.1264 13.472C44.8497 13.862 45.0092 13.8987 45.9813 13.8987C46.9526 13.8987 47.1132 13.8618 47.8332 13.4736C48.7131 12.999 49.0936 12.6043 49.577 11.6646C49.8656 11.1032 49.9123 10.8395 49.9604 9.49292L50.0152 7.96021H52.7071C54.4547 7.96021 55.5794 8.01364 55.9137 8.11236C56.601 8.31542 57.6375 9.35191 57.8406 10.0392C57.945 10.3928 57.9927 11.7165 57.9927 14.262V17.9697H29.966H1.93935V14.262C1.93935 11.7165 1.98702 10.3928 2.09149 10.0392C2.2798 9.40183 3.32717 8.3173 3.94125 8.12374C4.1995 8.04241 5.51538 7.98048 7.14793 7.97297L9.91682 7.96021L9.97287 9.49292ZM9.12744 25.1487C8.62146 25.374 8.09859 26.0118 8.00324 26.5199C7.96095 26.7455 7.94456 27.7815 7.96696 28.8222C8.01125 30.8822 8.06943 31.0656 8.86907 31.6625C9.19338 31.9046 9.38243 31.9205 11.9489 31.9205C14.5153 31.9205 14.7044 31.9046 15.0287 31.6625C15.8597 31.0421 15.8901 30.9297 15.8901 28.4797C15.8901 26.4188 15.8701 26.2192 15.6321 25.9004C15.0043 25.0595 14.9346 25.0418 12.0965 25.0089C10.1345 24.9862 9.41684 25.02 9.12744 25.1487ZM21.1389 25.1487C20.6329 25.374 20.11 26.0118 20.0147 26.5199C19.9724 26.7455 19.956 27.7815 19.9784 28.8222C20.0227 30.8822 20.0809 31.0656 20.8805 31.6625C21.2048 31.9046 21.3939 31.9205 23.9603 31.9205C26.5268 31.9205 26.7158 31.9046 27.0401 31.6625C27.8712 31.0421 27.9016 30.9297 27.9016 28.4797C27.9016 26.4188 27.8815 26.2192 27.6436 25.9004C27.0157 25.0595 26.946 25.0418 24.108 25.0089C22.146 24.9862 21.4283 25.02 21.1389 25.1487ZM33.1503 25.1487C32.6443 25.374 32.1215 26.0118 32.0261 26.5199C31.9838 26.7455 31.9674 27.7815 31.9898 28.8222C32.0341 30.8822 32.0923 31.0656 32.8919 31.6625C33.2163 31.9046 33.4053 31.9205 35.9717 31.9205C38.5382 31.9205 38.7272 31.9046 39.0516 31.6625C39.8826 31.0421 39.913 30.9297 39.913 28.4797C39.913 26.4188 39.893 26.2192 39.655 25.9004C39.0272 25.0595 38.9575 25.0418 36.1194 25.0089C34.1574 24.9862 33.4397 25.02 33.1503 25.1487ZM45.1617 25.1487C44.6558 25.374 44.1329 26.0118 44.0376 26.5199C43.9953 26.7455 43.9789 27.7815 44.0013 28.8222C44.0456 30.8822 44.1037 31.0656 44.9034 31.6625C45.2277 31.9046 45.4167 31.9205 47.9832 31.9205C50.5496 31.9205 50.7387 31.9046 51.063 31.6625C51.894 31.0421 51.9244 30.9297 51.9244 28.4797C51.9244 26.4188 51.9044 26.2192 51.6664 25.9004C51.0386 25.0595 50.9689 25.0418 48.1308 25.0089C46.1688 24.9862 45.4511 25.02 45.1617 25.1487ZM13.9508 28.4797V29.9812H11.9489H9.94697V28.4797V26.9783H11.9489H13.9508V28.4797ZM25.9622 28.4797V29.9812H23.9603H21.9584V28.4797V26.9783H23.9603H25.9622V28.4797ZM37.9737 28.4797V29.9812H35.9717H33.9698V28.4797V26.9783H35.9717H37.9737V28.4797ZM49.9851 28.4797V29.9812H47.9832H45.9813V28.4797V26.9783H47.9832H49.9851V28.4797ZM9.12744 34.1573C8.62146 34.3826 8.09859 35.0203 8.00324 35.5285C7.96095 35.754 7.94456 36.79 7.96696 37.8308C8.01125 39.8907 8.06943 40.0742 8.86907 40.6711C9.19338 40.9132 9.38243 40.9291 11.9489 40.9291C14.5153 40.9291 14.7044 40.9132 15.0287 40.6711C15.8597 40.0506 15.8901 39.9383 15.8901 37.4883C15.8901 35.4274 15.8701 35.2278 15.6321 34.909C15.0043 34.0681 14.9346 34.0504 12.0965 34.0175C10.1345 33.9948 9.41684 34.0285 9.12744 34.1573ZM21.1389 34.1573C20.6329 34.3826 20.11 35.0203 20.0147 35.5285C19.9724 35.754 19.956 36.79 19.9784 37.8308C20.0227 39.8907 20.0809 40.0742 20.8805 40.6711C21.2048 40.9132 21.3939 40.9291 23.9603 40.9291C26.5268 40.9291 26.7158 40.9132 27.0401 40.6711C27.8712 40.0506 27.9016 39.9383 27.9016 37.4883C27.9016 35.4274 27.8815 35.2278 27.6436 34.909C27.0157 34.0681 26.946 34.0504 24.108 34.0175C22.146 33.9948 21.4283 34.0285 21.1389 34.1573ZM33.1503 34.161C32.6462 34.3806 32.1217 35.0185 32.0261 35.5285C31.9838 35.754 31.9674 36.79 31.9898 37.8308C32.0259 39.5096 32.0597 39.762 32.2885 40.0682C32.6993 40.6176 33.1479 40.8893 33.7584 40.958C34.2484 41.0133 34.3703 40.9779 34.6485 40.6998C35.0701 40.2781 35.0764 39.7096 34.6636 39.2969C34.4947 39.128 34.2695 38.9898 34.1632 38.9898C33.9995 38.9898 33.9698 38.7592 33.9698 37.4883V35.9869H36.1651C38.3291 35.9869 38.3648 35.9825 38.6674 35.6797C38.8611 35.4862 38.9746 35.2297 38.9746 34.9859C38.9746 34.7422 38.8611 34.4857 38.6674 34.2922C38.3623 33.9869 38.3456 33.985 35.9461 33.9899C34.2232 33.9934 33.4227 34.0424 33.1503 34.161ZM44.8328 34.1723C40.2004 34.9519 36.2267 38.3069 34.7059 42.7226C33.7747 45.4265 33.7564 48.4754 34.6555 51.1191C36.1372 55.4751 39.811 58.7501 44.2922 59.7092C47.8 60.4601 51.625 59.6628 54.5519 57.5707C55.4358 56.9388 56.9437 55.4355 57.5529 54.5786C58.6585 53.0236 59.5728 50.7294 59.8611 48.7876C60.3381 45.5739 59.4029 41.8911 57.4506 39.2942C56.7842 38.4078 55.1695 36.8342 54.3429 36.2654C51.6672 34.4245 48.0564 33.6299 44.8328 34.1723ZM13.9508 37.4883V38.9898H11.9489H9.94697V37.4883V35.9869H11.9489H13.9508V37.4883ZM25.9622 37.4883V38.9898H23.9603H21.9584V37.4883V35.9869H23.9603H25.9622V37.4883ZM49.6723 36.336C53.7442 37.451 56.6014 40.3399 57.6907 44.4429C58.0334 45.7341 58.0142 48.3498 57.6523 49.6874C56.57 53.6864 53.6712 56.5851 49.6723 57.6674C48.3346 58.0294 45.7189 58.0485 44.4278 57.7058C39.5951 56.4229 36.3242 52.5086 36.0082 47.6302C35.8071 44.5279 36.9678 41.5072 39.2299 39.245C40.8782 37.5967 42.7526 36.6022 45.0429 36.1611C46.2168 35.9348 48.5262 36.0222 49.6723 36.336ZM53.1131 42.5792C53.0098 42.6157 51.1379 44.4266 48.9532 46.6033L44.9812 50.561L43.1352 48.7191C41.003 46.5917 40.7472 46.4567 40.091 47.1129C39.4118 47.7921 39.5281 47.9872 42.2042 50.6571C44.3365 52.7844 44.5955 53.0031 44.9828 53.0031C45.3771 53.0031 45.7457 52.6684 49.7709 48.6552C52.1693 46.2638 54.2122 44.1553 54.3106 43.9695C54.5696 43.4799 54.5342 43.2693 54.1237 42.8588C53.7723 42.5075 53.5163 42.4367 53.1131 42.5792ZM9.12744 43.1659C8.62146 43.3912 8.09859 44.0289 8.00324 44.537C7.96095 44.7626 7.94456 45.7986 7.96696 46.8394C8.01125 48.8993 8.06943 49.0827 8.86907 49.6797C9.19338 49.9218 9.38243 49.9377 11.9489 49.9377C14.5153 49.9377 14.7044 49.9218 15.0287 49.6797C15.8597 49.0592 15.8901 48.9469 15.8901 46.4969C15.8901 44.4359 15.8701 44.2364 15.6321 43.9176C15.0043 43.0766 14.9346 43.059 12.0965 43.0261C10.1345 43.0033 9.41684 43.0371 9.12744 43.1659ZM21.1389 43.1659C20.6329 43.3912 20.11 44.0289 20.0147 44.537C19.9724 44.7626 19.956 45.7986 19.9784 46.8394C20.0227 48.8993 20.0809 49.0827 20.8805 49.6797C21.2048 49.9218 21.3939 49.9377 23.9603 49.9377C26.5268 49.9377 26.7158 49.9218 27.0401 49.6797C27.8712 49.0592 27.9016 48.9469 27.9016 46.4969C27.9016 44.4359 27.8815 44.2364 27.6436 43.9176C27.0157 43.0766 26.946 43.059 24.108 43.0261C22.146 43.0033 21.4283 43.0371 21.1389 43.1659ZM13.9508 46.4969V47.9983H11.9489H9.94697V46.4969V44.9955H11.9489H13.9508V46.4969ZM25.9622 46.4969V47.9983H23.9603H21.9584V46.4969V44.9955H23.9603H25.9622V46.4969Z" fill="#1199FC"/>
</svg>
