<svg width="60" height="49" viewBox="0 0 60 49" fill="none" xmlns="http://www.w3.org/2000/svg">
<path fill-rule="evenodd" clip-rule="evenodd" d="M12.5418 0.144928C11.3622 0.568671 10.5467 1.25531 10.0375 2.25346C9.90007 2.52289 9.44692 4.16948 9.03034 5.91246C8.61388 7.65543 8.24569 9.17698 8.21213 9.29373C8.15722 9.48449 7.82395 9.50987 4.91166 9.54506L1.67227 9.58414L1.13656 9.93889C0.752774 10.1931 0.511372 10.4892 0.284923 10.9839C-0.00775116 11.6232 -0.027355 11.7825 0.0193924 13.1425C0.082225 14.9724 0.341221 15.6474 1.32644 16.5478C2.18297 17.3305 2.86357 17.5639 4.28987 17.5639C4.8996 17.5639 5.39761 17.6064 5.39661 17.6581C5.39547 17.7099 4.68886 18.6854 3.82617 19.8259L2.25774 21.8993L2.25736 31.4813C2.25686 40.896 2.26126 41.0677 2.50819 41.3146C2.64642 41.4528 2.81607 41.5659 2.88519 41.5659C2.96134 41.5659 3.01085 42.1084 3.01085 42.9421C3.01085 45.5261 3.49454 46.7059 5.02878 47.8641C6.10272 48.6748 6.66117 48.7513 11.1791 48.7058L15.1375 48.666L15.8586 48.312C16.8176 47.8413 17.6706 46.9641 18.1354 45.9709C18.4869 45.2199 18.5189 45.032 18.5702 43.4258L18.6255 41.6916H30.096H41.5664L41.6097 43.4855C41.6514 45.2142 41.6677 45.3095 42.0613 46.1085C42.5455 47.0914 43.3347 47.8639 44.3327 48.3317L45.0458 48.666H49.3185H53.5911L54.3042 48.3317C55.3023 47.8639 56.0914 47.0914 56.5756 46.1085C56.9673 45.3133 56.9858 45.2076 57.028 43.5281L57.0719 41.7768L57.4993 41.3738L57.9265 40.9708V31.4803V21.9897L56.2824 19.8083L54.6385 17.6267L55.9369 17.5578C56.7252 17.516 57.4195 17.4078 57.704 17.2825C58.4121 16.9707 59.3693 16.0055 59.7037 15.266C59.9662 14.6855 60 14.4243 60 12.9771C60 11.068 59.8326 10.5908 58.9415 9.96114L58.4082 9.58414L55.1789 9.54694L51.9496 9.50975L51.1524 6.15398C50.714 4.30834 50.2452 2.58057 50.1107 2.31454C49.7284 1.55854 48.9178 0.762572 48.1425 0.38168L47.4335 0.0335884L30.2174 0.00682157C16.2669 -0.0149185 12.9141 0.0112202 12.5418 0.144928ZM47.3327 2.24479C47.6966 2.42097 47.976 2.6811 48.1759 3.0302C48.3771 3.38156 48.9312 5.47012 49.8706 9.41902C50.6382 12.6458 51.2663 15.346 51.2663 15.4195C51.2663 15.5135 44.9481 15.5532 30.0204 15.5532C9.84565 15.5532 8.77775 15.5422 8.83857 15.3333C8.87376 15.2123 9.47293 12.7101 10.1701 9.77264C11.7051 3.30453 11.7266 3.22775 12.1392 2.7374C12.7953 1.95765 11.7109 2.00289 30.0206 1.9917L46.7887 1.9814L47.3327 2.24479ZM7.6151 11.8147C7.57401 11.9703 7.35937 12.8751 7.13795 13.8253L6.73544 15.5532H4.94019H3.14494L2.72748 15.1358C2.49789 14.9063 2.24153 14.4897 2.15784 14.2101C1.95929 13.5476 1.95828 11.8808 2.15633 11.6827C2.26427 11.5748 3.0728 11.532 4.9985 11.532H7.68974L7.6151 11.8147ZM57.9014 11.6827C58.0894 11.8707 58.1012 13.5494 57.9192 14.2047C57.847 14.4652 57.5909 14.8751 57.3502 15.1158L56.9128 15.5532H55.1625H53.4123L53.2881 15.082C53.2197 14.8229 52.9997 13.9181 52.7993 13.0713L52.4346 11.532H55.0925C56.9923 11.532 57.7936 11.5749 57.9014 11.6827ZM53.5078 19.4603C54.2898 20.5033 54.8962 21.3901 54.8554 21.4308C54.8147 21.4716 53.4351 21.6577 51.7897 21.8443C49.9308 22.0552 48.6538 22.2584 48.4172 22.3807C47.7412 22.7302 47.3375 23.3496 45.634 26.6497C44.2281 29.3731 43.9735 29.9509 44.0419 30.2622C44.2085 31.0211 44.1164 31.01 50.289 31.01H55.9159V32.5819V34.1536L48.104 34.1213L40.2922 34.0888L39.3095 31.1357C38.552 28.8594 38.2526 28.1177 38.0036 27.8998L37.6804 27.6171L30.1161 27.619C24.3046 27.6204 22.479 27.6573 22.2376 27.7784C21.9697 27.9129 21.7673 28.3935 20.8623 31.0439L19.8012 34.1517H12.0344H4.2675V32.5809V31.01H9.88298C15.4755 31.01 15.4996 31.0089 15.7892 30.7369C15.9645 30.5721 16.08 30.3178 16.08 30.0963C16.08 29.5361 12.7969 23.256 12.2491 22.7684C11.6571 22.2414 11.2649 22.149 8.28879 21.8352C6.87191 21.6859 5.58812 21.5261 5.43594 21.4802C5.17971 21.4028 5.26604 21.2547 6.60035 19.4803L8.04148 17.5639H30.0638H52.0861L53.5078 19.4603ZM7.78613 23.7949C10.0634 24.0466 10.7855 24.169 10.9412 24.3298C11.0522 24.4444 11.6603 25.5421 12.2924 26.7689L13.4417 28.9994H8.85453H4.2675V26.2348V23.4701L4.55025 23.4693C4.7057 23.4688 6.16191 23.6153 7.78613 23.7949ZM55.9159 26.2348V28.9994H51.3291C48.8064 28.9994 46.7423 28.9789 46.7423 28.9538C46.7423 28.9288 47.2838 27.8543 47.9456 26.5663C48.8527 24.8006 49.2162 24.208 49.4221 24.1589C49.8372 24.0599 54.773 23.5016 55.3818 23.4848L55.9159 23.4701V26.2348ZM37.3698 31.7328C37.7558 32.8905 38.0714 33.8801 38.0714 33.9319C38.0714 33.9837 34.4523 34.026 30.0289 34.026C25.6054 34.026 21.9863 34.0099 21.9863 33.9903C21.9863 33.8967 23.3568 29.8742 23.4278 29.7593C23.4827 29.6703 25.6418 29.6277 30.0887 29.6277H36.6683L37.3698 31.7328ZM10.8021 37.8588V39.5553H7.5348H4.2675V37.8588V36.1623H7.5348H10.8021V37.8588ZM47.3707 37.8386V39.5147L43.5802 39.5979C38.6846 39.7052 21.4988 39.7052 16.6032 39.5979L12.8127 39.5147V37.8386V36.1623H30.0917H47.3707V37.8386ZM55.9159 37.8588V39.5553H52.6486H49.3813V37.8588V36.1623H52.6486H55.9159V37.8588ZM16.5633 43.231C16.5234 44.5897 16.4813 44.8361 16.2048 45.3303C16.0325 45.6382 15.6464 46.0623 15.3466 46.2728L14.8018 46.6554H10.8021H6.80242L6.25754 46.2728C5.95783 46.0623 5.57166 45.6382 5.39937 45.3303C5.12291 44.8361 5.08081 44.5897 5.04085 43.231L4.99561 41.6916H10.8021H16.6086L16.5633 43.231ZM55.0335 43.1682C55.0304 44.8076 54.8654 45.3685 54.2038 45.989C53.4644 46.6823 53.224 46.7182 49.3185 46.7182C45.4129 46.7182 45.1725 46.6823 44.4331 45.989C43.7715 45.3685 43.6065 44.8076 43.6035 43.1682L43.6007 41.6916H49.3185H55.0362L55.0335 43.1682Z" fill="#7B3DFF"/>
</svg>
