<svg width="128" height="112" viewBox="0 0 128 112" fill="none" xmlns="http://www.w3.org/2000/svg">
<path d="M51.52 22H53.912V36.768H51.52V22Z" fill="#0D2F50"/>
<path d="M62.2319 32.0882C62.2319 34.3762 60.3599 34.5842 59.7359 34.5842C58.2799 34.5842 58.0719 33.2322 58.0719 32.5042V26.7842H55.6799V32.4002C55.6799 33.7522 56.0959 35.0002 56.9279 35.7282C57.6559 36.4562 58.5919 36.7682 59.7359 36.7682C60.5679 36.7682 61.6079 36.5602 62.2319 35.9362V36.7682H64.6239V26.7842H62.2319V32.0882Z" fill="#0D2F50"/>
<path d="M69.304 23.144H66.912V26.784H65.144V29.072H66.912V36.768H69.304V29.072H71.072V26.784H69.304V23.144Z" fill="#0D2F50"/>
<path d="M78.56 33.7522C78.04 34.1682 77.312 34.4802 76.584 34.4802C74.92 34.4802 73.776 33.2322 73.776 31.5682C73.776 29.9042 74.92 28.7602 76.584 28.7602C77.312 28.7602 78.04 28.9682 78.56 29.4882L78.872 29.8002L80.536 28.2402L80.12 27.9282C79.184 27.0962 77.936 26.5762 76.584 26.5762C73.672 26.5762 71.488 28.7602 71.488 31.6722C71.488 34.5842 73.672 36.7682 76.584 36.7682C77.936 36.7682 79.184 36.2482 80.12 35.4162L80.536 35.1042L78.872 33.4402L78.56 33.7522Z" fill="#0D2F50"/>
<path d="M88.9599 27.616C88.2319 26.888 87.5039 26.576 86.3599 26.576C85.5279 26.576 84.6959 26.784 84.0719 27.408V22H81.6799V36.768H84.0719V31.256C84.0719 28.968 85.6319 28.76 86.2559 28.76C87.7119 28.76 87.6079 30.112 87.6079 30.84V36.664H89.9999V30.944C89.9999 29.592 89.6879 28.344 88.9599 27.616Z" fill="#0D2F50"/>
<path d="M76.4799 33.3368C77.3989 33.3368 78.1439 32.5918 78.1439 31.6728C78.1439 30.7538 77.3989 30.0088 76.4799 30.0088C75.5609 30.0088 74.8159 30.7538 74.8159 31.6728C74.8159 32.5918 75.5609 33.3368 76.4799 33.3368Z" fill="#EF4335"/>
<path d="M48.192 33.1281C47.36 33.9601 46.112 34.4801 44.76 34.4801C42.16 34.4801 40.288 32.4001 40.288 29.5921C40.288 26.7841 42.16 24.7041 44.864 24.7041C46.112 24.7041 47.36 25.2241 48.296 26.1601L48.608 26.4721L50.168 24.9121L49.856 24.6001C48.504 23.2481 46.736 22.5201 44.864 22.5201C40.912 22.4161 38 25.5361 38 29.5921C38 33.6481 40.912 36.7681 44.76 36.7681C46.632 36.7681 48.504 36.0401 49.752 34.6881L50.064 34.3761L48.504 32.8161L48.192 33.1281Z" fill="#0D2F50"/>
<path d="M48.7074 56.4438V55.1143L51.8139 52.2379C52.0781 51.9822 52.2997 51.7521 52.4787 51.5475C52.6605 51.343 52.7983 51.1427 52.892 50.9467C52.9858 50.7478 53.0327 50.5333 53.0327 50.3032C53.0327 50.0475 52.9744 49.8274 52.858 49.6427C52.7415 49.4552 52.5824 49.3117 52.3807 49.2123C52.179 49.11 51.9503 49.0589 51.6946 49.0589C51.4276 49.0589 51.1946 49.1129 50.9957 49.2208C50.7969 49.3288 50.6435 49.4836 50.5355 49.6853C50.4276 49.887 50.3736 50.1271 50.3736 50.4055H48.6222C48.6222 49.8345 48.7514 49.3387 49.0099 48.9183C49.2685 48.4978 49.6307 48.1725 50.0966 47.9424C50.5625 47.7123 51.0994 47.5973 51.7074 47.5973C52.3324 47.5973 52.8764 47.7081 53.3395 47.9296C53.8054 48.1484 54.1676 48.4524 54.4261 48.8416C54.6847 49.2308 54.8139 49.6768 54.8139 50.1796C54.8139 50.5092 54.7486 50.8345 54.6179 51.1555C54.4901 51.4765 54.2614 51.8331 53.9318 52.2251C53.6023 52.6143 53.1378 53.0816 52.5384 53.6271L51.2642 54.8757V54.9353H54.929V56.4438H48.7074ZM59.6879 56.6356C58.9549 56.6328 58.3242 56.4524 57.7958 56.0944C57.2702 55.7365 56.8654 55.218 56.5813 54.539C56.3001 53.86 56.1609 53.0433 56.1637 52.0887C56.1637 51.137 56.3043 50.3259 56.5856 49.6555C56.8697 48.985 57.2745 48.4751 57.8001 48.1257C58.3285 47.7734 58.9577 47.5973 59.6879 47.5973C60.418 47.5973 61.0458 47.7734 61.5714 48.1257C62.0998 48.4779 62.506 48.9893 62.7901 49.6598C63.0742 50.3274 63.2148 51.137 63.212 52.0887C63.212 53.0461 63.07 53.8643 62.7859 54.5433C62.5046 55.2223 62.1012 55.7407 61.5756 56.0987C61.0501 56.4566 60.4208 56.6356 59.6879 56.6356ZM59.6879 55.1058C60.1879 55.1058 60.587 54.8544 60.8853 54.3515C61.1836 53.8487 61.3313 53.0944 61.3285 52.0887C61.3285 51.4268 61.2603 50.8757 61.1239 50.4353C60.9904 49.995 60.8001 49.664 60.5529 49.4424C60.3086 49.2208 60.0202 49.11 59.6879 49.11C59.1907 49.11 58.793 49.3586 58.4947 49.8558C58.1964 50.3529 58.0458 51.0973 58.043 52.0887C58.043 52.7592 58.1097 53.3188 58.2433 53.7677C58.3796 54.2137 58.5714 54.549 58.8185 54.7734C59.0657 54.995 59.3555 55.1058 59.6879 55.1058ZM64.5277 56.4438V55.1143L67.6342 52.2379C67.8984 51.9822 68.12 51.7521 68.299 51.5475C68.4808 51.343 68.6186 51.1427 68.7124 50.9467C68.8061 50.7478 68.853 50.5333 68.853 50.3032C68.853 50.0475 68.7947 49.8274 68.6783 49.6427C68.5618 49.4552 68.4027 49.3117 68.201 49.2123C67.9993 49.11 67.7706 49.0589 67.5149 49.0589C67.2479 49.0589 67.0149 49.1129 66.8161 49.2208C66.6172 49.3288 66.4638 49.4836 66.3558 49.6853C66.2479 49.887 66.1939 50.1271 66.1939 50.4055H64.4425C64.4425 49.8345 64.5717 49.3387 64.8303 48.9183C65.0888 48.4978 65.451 48.1725 65.9169 47.9424C66.3828 47.7123 66.9197 47.5973 67.5277 47.5973C68.1527 47.5973 68.6967 47.7081 69.1598 47.9296C69.6257 48.1484 69.9879 48.4524 70.2464 48.8416C70.505 49.2308 70.6342 49.6768 70.6342 50.1796C70.6342 50.5092 70.5689 50.8345 70.4382 51.1555C70.3104 51.4765 70.0817 51.8331 69.7521 52.2251C69.4226 52.6143 68.9581 53.0816 68.3587 53.6271L67.0845 54.8757V54.9353H70.7493V56.4438H64.5277ZM72.0863 56.4438V55.1143L75.1928 52.2379C75.457 51.9822 75.6786 51.7521 75.8576 51.5475C76.0394 51.343 76.1772 51.1427 76.271 50.9467C76.3647 50.7478 76.4116 50.5333 76.4116 50.3032C76.4116 50.0475 76.3533 49.8274 76.2369 49.6427C76.1204 49.4552 75.9613 49.3117 75.7596 49.2123C75.5579 49.11 75.3292 49.0589 75.0735 49.0589C74.8065 49.0589 74.5735 49.1129 74.3746 49.2208C74.1758 49.3288 74.0224 49.4836 73.9144 49.6853C73.8065 49.887 73.7525 50.1271 73.7525 50.4055H72.0011C72.0011 49.8345 72.1303 49.3387 72.3888 48.9183C72.6474 48.4978 73.0096 48.1725 73.4755 47.9424C73.9414 47.7123 74.4783 47.5973 75.0863 47.5973C75.7113 47.5973 76.2553 47.7081 76.7184 47.9296C77.1843 48.1484 77.5465 48.4524 77.805 48.8416C78.0636 49.2308 78.1928 49.6768 78.1928 50.1796C78.1928 50.5092 78.1275 50.8345 77.9968 51.1555C77.869 51.4765 77.6403 51.8331 77.3107 52.2251C76.9812 52.6143 76.5167 53.0816 75.9173 53.6271L74.6431 54.8757V54.9353H78.3079V56.4438H72.0863Z" fill="#0D2F50"/>
<path d="M46.6747 68.196V67.1818H51.4531V68.196H49.6719V73H48.456V68.196H46.6747ZM53.5561 73.0852C53.1148 73.0852 52.7332 72.9915 52.4112 72.804C52.0911 72.6146 51.844 72.3513 51.6697 72.0142C51.4955 71.6752 51.4084 71.2822 51.4084 70.8352C51.4084 70.3845 51.4955 69.9905 51.6697 69.6534C51.844 69.3144 52.0911 69.0511 52.4112 68.8636C52.7332 68.6742 53.1148 68.5795 53.5561 68.5795C53.9974 68.5795 54.3781 68.6742 54.6982 68.8636C55.0201 69.0511 55.2682 69.3144 55.4425 69.6534C55.6167 69.9905 55.7038 70.3845 55.7038 70.8352C55.7038 71.2822 55.6167 71.6752 55.4425 72.0142C55.2682 72.3513 55.0201 72.6146 54.6982 72.804C54.3781 72.9915 53.9974 73.0852 53.5561 73.0852ZM53.5618 72.1477C53.7625 72.1477 53.9302 72.0909 54.0646 71.9773C54.1991 71.8617 54.3004 71.7045 54.3686 71.5057C54.4387 71.3068 54.4737 71.0805 54.4737 70.8267C54.4737 70.5729 54.4387 70.3466 54.3686 70.1477C54.3004 69.9489 54.1991 69.7917 54.0646 69.6761C53.9302 69.5606 53.7625 69.5028 53.5618 69.5028C53.3591 69.5028 53.1887 69.5606 53.0504 69.6761C52.9141 69.7917 52.8108 69.9489 52.7408 70.1477C52.6726 70.3466 52.6385 70.5729 52.6385 70.8267C52.6385 71.0805 52.6726 71.3068 52.7408 71.5057C52.8108 71.7045 52.9141 71.8617 53.0504 71.9773C53.1887 72.0909 53.3591 72.1477 53.5618 72.1477ZM56.4908 74.6364V68.6364H57.6839V69.3693H57.7379C57.791 69.2519 57.8677 69.1326 57.968 69.0114C58.0703 68.8883 58.2029 68.786 58.3658 68.7045C58.5305 68.6212 58.7351 68.5795 58.9794 68.5795C59.2976 68.5795 59.5911 68.6629 59.8601 68.8295C60.129 68.9943 60.344 69.2434 60.505 69.5767C60.666 69.9081 60.7464 70.3239 60.7464 70.8239C60.7464 71.3106 60.6679 71.7216 60.5107 72.0568C60.3554 72.3902 60.1432 72.643 59.8743 72.8153C59.6072 72.9858 59.308 73.071 58.9766 73.071C58.7417 73.071 58.5419 73.0322 58.3771 72.9545C58.2143 72.8769 58.0807 72.7794 57.9766 72.6619C57.8724 72.5426 57.7929 72.4223 57.7379 72.3011H57.701V74.6364H56.4908ZM57.6754 70.8182C57.6754 71.0777 57.7114 71.304 57.7834 71.4972C57.8554 71.6903 57.9595 71.8409 58.0959 71.9489C58.2322 72.0549 58.398 72.108 58.593 72.108C58.79 72.108 58.9567 72.054 59.093 71.946C59.2294 71.8362 59.3326 71.6847 59.4027 71.4915C59.4747 71.2964 59.5107 71.072 59.5107 70.8182C59.5107 70.5663 59.4756 70.3447 59.4055 70.1534C59.3355 69.9621 59.2322 69.8125 59.0959 69.7045C58.9595 69.5966 58.7919 69.5426 58.593 69.5426C58.3961 69.5426 58.2294 69.5947 58.093 69.6989C57.9586 69.803 57.8554 69.9508 57.7834 70.142C57.7114 70.3333 57.6754 70.5587 57.6754 70.8182ZM64.7372 73L63.0724 67.1818H64.4162L65.3793 71.2244H65.4276L66.4901 67.1818H67.6406L68.7003 71.233H68.7514L69.7145 67.1818H71.0582L69.3935 73H68.1946L67.0866 69.196H67.0412L65.9361 73H64.7372ZM73.2138 73.0852C72.7649 73.0852 72.3786 72.9943 72.0547 72.8125C71.7327 72.6288 71.4846 72.3693 71.3104 72.0341C71.1361 71.697 71.049 71.2983 71.049 70.8381C71.049 70.3892 71.1361 69.9953 71.3104 69.6562C71.4846 69.3172 71.7299 69.053 72.0462 68.8636C72.3643 68.6742 72.7375 68.5795 73.1655 68.5795C73.4534 68.5795 73.7214 68.6259 73.9695 68.7188C74.2195 68.8097 74.4373 68.947 74.6229 69.1307C74.8104 69.3144 74.9562 69.5455 75.0604 69.8239C75.1645 70.1004 75.2166 70.4242 75.2166 70.7955V71.1278H71.532V70.3778H74.0774C74.0774 70.2036 74.0395 70.0492 73.9638 69.9148C73.888 69.7803 73.7829 69.6752 73.6484 69.5994C73.5159 69.5218 73.3615 69.483 73.1854 69.483C73.0017 69.483 72.8388 69.5256 72.6967 69.6108C72.5566 69.6941 72.4467 69.8068 72.3672 69.9489C72.2876 70.089 72.2469 70.2453 72.245 70.4176V71.1307C72.245 71.3466 72.2848 71.5331 72.3643 71.6903C72.4458 71.8475 72.5604 71.9688 72.7081 72.054C72.8558 72.1392 73.031 72.1818 73.2337 72.1818C73.3681 72.1818 73.4912 72.1629 73.603 72.125C73.7147 72.0871 73.8104 72.0303 73.8899 71.9545C73.9695 71.8788 74.0301 71.786 74.0717 71.6761L75.1911 71.75C75.1342 72.0189 75.0178 72.2538 74.8416 72.4545C74.6674 72.6534 74.442 72.8087 74.1655 72.9205C73.8909 73.0303 73.5736 73.0852 73.2138 73.0852ZM76.0291 73V67.1818H77.2393V69.3693H77.2763C77.3293 69.2519 77.406 69.1326 77.5064 69.0114C77.6087 68.8883 77.7412 68.786 77.9041 68.7045C78.0689 68.6212 78.2734 68.5795 78.5178 68.5795C78.8359 68.5795 79.1295 68.6629 79.3984 68.8295C79.6674 68.9943 79.8823 69.2434 80.0433 69.5767C80.2043 69.9081 80.2848 70.3239 80.2848 70.8239C80.2848 71.3106 80.2062 71.7216 80.049 72.0568C79.8937 72.3902 79.6816 72.643 79.4126 72.8153C79.1456 72.9858 78.8464 73.071 78.5149 73.071C78.2801 73.071 78.0803 73.0322 77.9155 72.9545C77.7526 72.8769 77.6191 72.7794 77.5149 72.6619C77.4107 72.5426 77.3312 72.4223 77.2763 72.3011H77.2223V73H76.0291ZM77.2138 70.8182C77.2138 71.0777 77.2498 71.304 77.3217 71.4972C77.3937 71.6903 77.4979 71.8409 77.6342 71.9489C77.7706 72.0549 77.9363 72.108 78.1314 72.108C78.3284 72.108 78.495 72.054 78.6314 71.946C78.7678 71.8362 78.871 71.6847 78.9411 71.4915C79.013 71.2964 79.049 71.072 79.049 70.8182C79.049 70.5663 79.014 70.3447 78.9439 70.1534C78.8738 69.9621 78.7706 69.8125 78.6342 69.7045C78.4979 69.5966 78.3303 69.5426 78.1314 69.5426C77.9344 69.5426 77.7678 69.5947 77.6314 69.6989C77.4969 69.803 77.3937 69.9508 77.3217 70.142C77.2498 70.3333 77.2138 70.5587 77.2138 70.8182ZM32.7713 83H30.7088V77.1818H32.7884C33.3736 77.1818 33.8774 77.2983 34.2997 77.5312C34.7221 77.7623 35.0469 78.0947 35.2741 78.5284C35.5033 78.9621 35.6179 79.4811 35.6179 80.0852C35.6179 80.6913 35.5033 81.2121 35.2741 81.6477C35.0469 82.0833 34.7202 82.4176 34.294 82.6506C33.8698 82.8835 33.3622 83 32.7713 83ZM31.9389 81.946H32.7202C33.0838 81.946 33.3897 81.8816 33.6378 81.7528C33.8878 81.6222 34.0753 81.4205 34.2003 81.1477C34.3272 80.8731 34.3906 80.5189 34.3906 80.0852C34.3906 79.6553 34.3272 79.304 34.2003 79.0312C34.0753 78.7585 33.8887 78.5578 33.6406 78.429C33.3925 78.3002 33.0866 78.2358 32.723 78.2358H31.9389V81.946ZM38.495 83.0852C38.0462 83.0852 37.6598 82.9943 37.3359 82.8125C37.014 82.6288 36.7659 82.3693 36.5916 82.0341C36.4174 81.697 36.3303 81.2983 36.3303 80.8381C36.3303 80.3892 36.4174 79.9953 36.5916 79.6562C36.7659 79.3172 37.0111 79.053 37.3274 78.8636C37.6456 78.6742 38.0187 78.5795 38.4467 78.5795C38.7346 78.5795 39.0026 78.6259 39.2507 78.7188C39.5007 78.8097 39.7185 78.947 39.9041 79.1307C40.0916 79.3144 40.2375 79.5455 40.3416 79.8239C40.4458 80.1004 40.4979 80.4242 40.4979 80.7955V81.1278H36.8132V80.3778H39.3587C39.3587 80.2036 39.3208 80.0492 39.245 79.9148C39.1693 79.7803 39.0642 79.6752 38.9297 79.5994C38.7971 79.5218 38.6428 79.483 38.4666 79.483C38.2829 79.483 38.12 79.5256 37.978 79.6108C37.8378 79.6941 37.728 79.8068 37.6484 79.9489C37.5689 80.089 37.5282 80.2453 37.5263 80.4176V81.1307C37.5263 81.3466 37.5661 81.5331 37.6456 81.6903C37.727 81.8475 37.8416 81.9688 37.9893 82.054C38.1371 82.1392 38.3123 82.1818 38.5149 82.1818C38.6494 82.1818 38.7725 82.1629 38.8842 82.125C38.996 82.0871 39.0916 82.0303 39.1712 81.9545C39.2507 81.8788 39.3113 81.786 39.353 81.6761L40.4723 81.75C40.4155 82.0189 40.299 82.2538 40.1229 82.4545C39.9486 82.6534 39.7232 82.8087 39.4467 82.9205C39.1721 83.0303 38.8549 83.0852 38.495 83.0852ZM44.9183 79.8807L43.8104 79.9489C43.7914 79.8542 43.7507 79.7689 43.6882 79.6932C43.6257 79.6155 43.5433 79.554 43.4411 79.5085C43.3407 79.4612 43.2204 79.4375 43.0803 79.4375C42.8928 79.4375 42.7346 79.4773 42.6058 79.5568C42.477 79.6345 42.4126 79.7386 42.4126 79.8693C42.4126 79.9735 42.4543 80.0616 42.5376 80.1335C42.621 80.2055 42.764 80.2633 42.9666 80.3068L43.7564 80.4659C44.1806 80.553 44.4969 80.6932 44.7053 80.8864C44.9136 81.0795 45.0178 81.3333 45.0178 81.6477C45.0178 81.9337 44.9335 82.1847 44.7649 82.4006C44.5982 82.6165 44.3691 82.785 44.0774 82.9062C43.7876 83.0256 43.4534 83.0852 43.0746 83.0852C42.4969 83.0852 42.0367 82.965 41.6939 82.7244C41.353 82.482 41.1532 82.1525 41.0945 81.7358L42.2848 81.6733C42.3208 81.8494 42.4079 81.9839 42.5462 82.0767C42.6844 82.1676 42.8615 82.2131 43.0774 82.2131C43.2895 82.2131 43.46 82.1723 43.5888 82.0909C43.7195 82.0076 43.7857 81.9006 43.7876 81.7699C43.7857 81.66 43.7393 81.5701 43.6484 81.5C43.5575 81.428 43.4174 81.3731 43.228 81.3352L42.4723 81.1847C42.0462 81.0994 41.7289 80.9517 41.5206 80.7415C41.3142 80.5312 41.2109 80.2633 41.2109 79.9375C41.2109 79.6572 41.2867 79.4157 41.4382 79.2131C41.5916 79.0104 41.8066 78.8542 42.0831 78.7443C42.3615 78.6345 42.6873 78.5795 43.0604 78.5795C43.6115 78.5795 44.0452 78.696 44.3615 78.929C44.6797 79.1619 44.8653 79.4792 44.9183 79.8807ZM45.7798 83V78.6364H46.9901V83H45.7798ZM46.3878 78.0739C46.2079 78.0739 46.0535 78.0142 45.9247 77.8949C45.7978 77.7737 45.7344 77.6288 45.7344 77.4602C45.7344 77.2936 45.7978 77.1506 45.9247 77.0312C46.0535 76.91 46.2079 76.8494 46.3878 76.8494C46.5677 76.8494 46.7211 76.91 46.848 77.0312C46.9768 77.1506 47.0412 77.2936 47.0412 77.4602C47.0412 77.6288 46.9768 77.7737 46.848 77.8949C46.7211 78.0142 46.5677 78.0739 46.3878 78.0739ZM49.9254 84.7273C49.5334 84.7273 49.1972 84.6733 48.9169 84.5653C48.6385 84.4593 48.4169 84.3144 48.2521 84.1307C48.0874 83.947 47.9804 83.7405 47.9311 83.5114L49.0504 83.3608C49.0845 83.4479 49.1385 83.5294 49.2124 83.6051C49.2862 83.6809 49.3838 83.7415 49.505 83.7869C49.6281 83.8343 49.7777 83.858 49.9538 83.858C50.2171 83.858 50.4339 83.7936 50.6044 83.6648C50.7768 83.5379 50.8629 83.3248 50.8629 83.0256V82.2273H50.8118C50.7588 82.3485 50.6792 82.4631 50.5732 82.571C50.4671 82.679 50.3307 82.767 50.1641 82.8352C49.9974 82.9034 49.7985 82.9375 49.5675 82.9375C49.2398 82.9375 48.9415 82.8617 48.6726 82.7102C48.4055 82.5568 48.1925 82.3229 48.0334 82.0085C47.8762 81.6922 47.7976 81.2926 47.7976 80.8097C47.7976 80.3153 47.8781 79.9025 48.0391 79.571C48.2 79.2396 48.4141 78.9915 48.6811 78.8267C48.95 78.6619 49.2446 78.5795 49.5646 78.5795C49.8089 78.5795 50.0135 78.6212 50.1783 78.7045C50.343 78.786 50.4756 78.8883 50.576 79.0114C50.6783 79.1326 50.7569 79.2519 50.8118 79.3693H50.8572V78.6364H52.0589V83.0426C52.0589 83.4138 51.968 83.7244 51.7862 83.9744C51.6044 84.2244 51.3525 84.4119 51.0305 84.5369C50.7105 84.6638 50.3421 84.7273 49.9254 84.7273ZM49.951 82.0284C50.1461 82.0284 50.3108 81.9801 50.4453 81.8835C50.5817 81.785 50.6858 81.6449 50.7578 81.4631C50.8317 81.2794 50.8686 81.0597 50.8686 80.804C50.8686 80.5483 50.8326 80.3267 50.7607 80.1392C50.6887 79.9498 50.5845 79.803 50.4482 79.6989C50.3118 79.5947 50.1461 79.5426 49.951 79.5426C49.7521 79.5426 49.5845 79.5966 49.4482 79.7045C49.3118 79.8106 49.2086 79.9583 49.1385 80.1477C49.0684 80.3371 49.0334 80.5559 49.0334 80.804C49.0334 81.0559 49.0684 81.2737 49.1385 81.4574C49.2105 81.6392 49.3137 81.7803 49.4482 81.8807C49.5845 81.9792 49.7521 82.0284 49.951 82.0284ZM54.2322 80.4773V83H53.022V78.6364H54.1754V79.4062H54.2266C54.3232 79.1525 54.4851 78.9517 54.7124 78.804C54.9396 78.6544 55.2152 78.5795 55.5391 78.5795C55.8421 78.5795 56.1063 78.6458 56.3317 78.7784C56.5571 78.911 56.7322 79.1004 56.8572 79.3466C56.9822 79.5909 57.0447 79.8826 57.0447 80.2216V83H55.8345V80.4375C55.8364 80.1705 55.7682 79.9621 55.63 79.8125C55.4917 79.661 55.3014 79.5852 55.0589 79.5852C54.8961 79.5852 54.7521 79.6203 54.6271 79.6903C54.504 79.7604 54.4074 79.8627 54.3374 79.9972C54.2692 80.1297 54.2341 80.2898 54.2322 80.4773ZM65.0064 79.2188H63.7621C63.7393 79.0578 63.6929 78.9148 63.6229 78.7898C63.5528 78.6629 63.4628 78.5549 63.353 78.4659C63.2431 78.3769 63.1162 78.3087 62.9723 78.2614C62.8303 78.214 62.6759 78.1903 62.5092 78.1903C62.2081 78.1903 61.9458 78.2652 61.7223 78.4148C61.4988 78.5625 61.3255 78.7784 61.2024 79.0625C61.0793 79.3447 61.0178 79.6875 61.0178 80.0909C61.0178 80.5057 61.0793 80.8542 61.2024 81.1364C61.3274 81.4186 61.5017 81.6316 61.7251 81.7756C61.9486 81.9195 62.2071 81.9915 62.5007 81.9915C62.6655 81.9915 62.8179 81.9697 62.9581 81.9261C63.1001 81.8826 63.2261 81.8191 63.3359 81.7358C63.4458 81.6506 63.5367 81.5473 63.6087 81.4261C63.6825 81.3049 63.7337 81.1667 63.7621 81.0114L65.0064 81.017C64.9742 81.2841 64.8937 81.5417 64.7649 81.7898C64.638 82.036 64.4666 82.2566 64.2507 82.4517C64.0367 82.6449 63.781 82.7983 63.4837 82.9119C63.1882 83.0237 62.8539 83.0795 62.4808 83.0795C61.9619 83.0795 61.4979 82.9621 61.0888 82.7273C60.6816 82.4924 60.3596 82.1525 60.1229 81.7074C59.888 81.2623 59.7706 80.7235 59.7706 80.0909C59.7706 79.4564 59.8899 78.9167 60.1286 78.4716C60.3672 78.0265 60.6911 77.6875 61.1001 77.4545C61.5092 77.2197 61.9695 77.1023 62.4808 77.1023C62.8179 77.1023 63.1304 77.1496 63.4183 77.2443C63.7081 77.339 63.9647 77.4773 64.1882 77.6591C64.4117 77.839 64.5935 78.0597 64.7337 78.321C64.8757 78.5824 64.9666 78.8816 65.0064 79.2188ZM67.8374 83.0852C67.3961 83.0852 67.0144 82.9915 66.6925 82.804C66.3724 82.6146 66.1252 82.3513 65.951 82.0142C65.7768 81.6752 65.6896 81.2822 65.6896 80.8352C65.6896 80.3845 65.7768 79.9905 65.951 79.6534C66.1252 79.3144 66.3724 79.0511 66.6925 78.8636C67.0144 78.6742 67.3961 78.5795 67.8374 78.5795C68.2786 78.5795 68.6593 78.6742 68.9794 78.8636C69.3014 79.0511 69.5495 79.3144 69.7237 79.6534C69.898 79.9905 69.9851 80.3845 69.9851 80.8352C69.9851 81.2822 69.898 81.6752 69.7237 82.0142C69.5495 82.3513 69.3014 82.6146 68.9794 82.804C68.6593 82.9915 68.2786 83.0852 67.8374 83.0852ZM67.843 82.1477C68.0438 82.1477 68.2114 82.0909 68.3459 81.9773C68.4804 81.8617 68.5817 81.7045 68.6499 81.5057C68.7199 81.3068 68.755 81.0805 68.755 80.8267C68.755 80.5729 68.7199 80.3466 68.6499 80.1477C68.5817 79.9489 68.4804 79.7917 68.3459 79.6761C68.2114 79.5606 68.0438 79.5028 67.843 79.5028C67.6404 79.5028 67.4699 79.5606 67.3317 79.6761C67.1953 79.7917 67.0921 79.9489 67.022 80.1477C66.9538 80.3466 66.9197 80.5729 66.9197 80.8267C66.9197 81.0805 66.9538 81.3068 67.022 81.5057C67.0921 81.7045 67.1953 81.8617 67.3317 81.9773C67.4699 82.0909 67.6404 82.1477 67.843 82.1477ZM70.772 83V78.6364H71.9254V79.4062H71.9766C72.0675 79.1506 72.219 78.9489 72.4311 78.8011C72.6432 78.6534 72.897 78.5795 73.1925 78.5795C73.4917 78.5795 73.7464 78.6544 73.9567 78.804C74.1669 78.9517 74.3071 79.1525 74.3771 79.4062H74.4226C74.5116 79.1562 74.6726 78.9564 74.9055 78.8068C75.1404 78.6553 75.4179 78.5795 75.7379 78.5795C76.1451 78.5795 76.4756 78.7093 76.7294 78.9688C76.9851 79.2263 77.1129 79.5919 77.1129 80.0653V83H75.9055V80.304C75.9055 80.0616 75.8411 79.8797 75.7124 79.7585C75.5836 79.6373 75.4226 79.5767 75.2294 79.5767C75.0097 79.5767 74.8383 79.6468 74.7152 79.7869C74.5921 79.9252 74.5305 80.108 74.5305 80.3352V83H73.3572V80.2784C73.3572 80.0644 73.2957 79.8939 73.1726 79.767C73.0514 79.6402 72.8913 79.5767 72.6925 79.5767C72.558 79.5767 72.4368 79.6108 72.3288 79.679C72.2228 79.7453 72.1385 79.839 72.076 79.9602C72.0135 80.0795 71.9822 80.2197 71.9822 80.3807V83H70.772ZM78.0689 84.6364V78.6364H79.2621V79.3693H79.3161C79.3691 79.2519 79.4458 79.1326 79.5462 79.0114C79.6484 78.8883 79.781 78.786 79.9439 78.7045C80.1087 78.6212 80.3132 78.5795 80.5575 78.5795C80.8757 78.5795 81.1693 78.6629 81.4382 78.8295C81.7071 78.9943 81.9221 79.2434 82.0831 79.5767C82.2441 79.9081 82.3246 80.3239 82.3246 80.8239C82.3246 81.3106 82.246 81.7216 82.0888 82.0568C81.9335 82.3902 81.7214 82.643 81.4524 82.8153C81.1854 82.9858 80.8861 83.071 80.5547 83.071C80.3198 83.071 80.12 83.0322 79.9553 82.9545C79.7924 82.8769 79.6589 82.7794 79.5547 82.6619C79.4505 82.5426 79.371 82.4223 79.3161 82.3011H79.2791V84.6364H78.0689ZM79.2536 80.8182C79.2536 81.0777 79.2895 81.304 79.3615 81.4972C79.4335 81.6903 79.5376 81.8409 79.674 81.9489C79.8104 82.0549 79.9761 82.108 80.1712 82.108C80.3681 82.108 80.5348 82.054 80.6712 81.946C80.8075 81.8362 80.9107 81.6847 80.9808 81.4915C81.0528 81.2964 81.0888 81.072 81.0888 80.8182C81.0888 80.5663 81.0537 80.3447 80.9837 80.1534C80.9136 79.9621 80.8104 79.8125 80.674 79.7045C80.5376 79.5966 80.37 79.5426 80.1712 79.5426C79.9742 79.5426 79.8075 79.5947 79.6712 79.6989C79.5367 79.803 79.4335 79.9508 79.3615 80.142C79.2895 80.3333 79.2536 80.5587 79.2536 80.8182ZM84.3757 83.0824C84.0973 83.0824 83.8492 83.0341 83.6314 82.9375C83.4136 82.839 83.2412 82.6941 83.1143 82.5028C82.9893 82.3097 82.9268 82.0691 82.9268 81.7812C82.9268 81.5388 82.9714 81.3352 83.0604 81.1705C83.1494 81.0057 83.2706 80.8731 83.424 80.7727C83.5774 80.6723 83.7517 80.5966 83.9467 80.5455C84.1437 80.4943 84.3501 80.4583 84.5661 80.4375C84.8198 80.411 85.0244 80.3864 85.1797 80.3636C85.335 80.339 85.4477 80.303 85.5178 80.2557C85.5878 80.2083 85.6229 80.1383 85.6229 80.0455V80.0284C85.6229 79.8485 85.5661 79.7093 85.4524 79.6108C85.3407 79.5123 85.1816 79.4631 84.9751 79.4631C84.7573 79.4631 84.584 79.5114 84.4553 79.608C84.3265 79.7027 84.2412 79.822 84.1996 79.9659L83.0803 79.875C83.1371 79.6098 83.2488 79.3807 83.4155 79.1875C83.5821 78.9924 83.7971 78.8428 84.0604 78.7386C84.3255 78.6326 84.6323 78.5795 84.9808 78.5795C85.2232 78.5795 85.4553 78.608 85.6768 78.6648C85.9003 78.7216 86.0982 78.8097 86.2706 78.929C86.4448 79.0483 86.5821 79.2017 86.6825 79.3892C86.7829 79.5748 86.8331 79.7973 86.8331 80.0568V83H85.6854V82.3949H85.6513C85.5812 82.5312 85.4875 82.6515 85.37 82.7557C85.2526 82.858 85.1115 82.9384 84.9467 82.9972C84.782 83.054 84.5916 83.0824 84.3757 83.0824ZM84.7223 82.2472C84.9003 82.2472 85.0575 82.2121 85.1939 82.142C85.3303 82.0701 85.4373 81.9735 85.5149 81.8523C85.5926 81.7311 85.6314 81.5937 85.6314 81.4403V80.9773C85.5935 81.0019 85.5414 81.0246 85.4751 81.0455C85.4107 81.0644 85.3378 81.0824 85.2564 81.0994C85.175 81.1146 85.0935 81.1288 85.0121 81.142C84.9306 81.1534 84.8568 81.1638 84.7905 81.1733C84.6484 81.1941 84.5244 81.2273 84.4183 81.2727C84.3123 81.3182 84.2299 81.3797 84.1712 81.4574C84.1125 81.5331 84.0831 81.6278 84.0831 81.7415C84.0831 81.9062 84.1428 82.0322 84.2621 82.1193C84.3833 82.2045 84.5367 82.2472 84.7223 82.2472ZM88.9822 80.4773V83H87.772V78.6364H88.9254V79.4062H88.9766C89.0732 79.1525 89.2351 78.9517 89.4624 78.804C89.6896 78.6544 89.9652 78.5795 90.2891 78.5795C90.5921 78.5795 90.8563 78.6458 91.0817 78.7784C91.3071 78.911 91.4822 79.1004 91.6072 79.3466C91.7322 79.5909 91.7947 79.8826 91.7947 80.2216V83H90.5845V80.4375C90.5864 80.1705 90.5182 79.9621 90.38 79.8125C90.2417 79.661 90.0514 79.5852 89.8089 79.5852C89.6461 79.5852 89.5021 79.6203 89.3771 79.6903C89.254 79.7604 89.1574 79.8627 89.0874 79.9972C89.0192 80.1297 88.9841 80.2898 88.9822 80.4773ZM93.3395 84.6364C93.1861 84.6364 93.0421 84.6241 92.9077 84.5994C92.7751 84.5767 92.6652 84.5473 92.5781 84.5114L92.8509 83.608C92.9929 83.6515 93.1207 83.6752 93.2344 83.679C93.3499 83.6828 93.4493 83.6563 93.5327 83.5994C93.6179 83.5426 93.687 83.446 93.7401 83.3097L93.8111 83.125L92.2457 78.6364H93.5185L94.4219 81.8409H94.4673L95.3793 78.6364H96.6605L94.9645 83.4716C94.883 83.7064 94.7723 83.911 94.6321 84.0852C94.4938 84.2614 94.3187 84.3968 94.1065 84.4915C93.8944 84.5881 93.6387 84.6364 93.3395 84.6364Z" fill="#0D2F50"/>
<path d="M27.6472 2.79802C24.7962 5.39278 24.2837 9.47177 24.2837 9.47177C24.2837 9.47177 28.3947 9.33296 31.2457 6.7382C34.0967 4.14345 34.6093 0.0644531 34.6093 0.0644531C34.6093 0.0644531 30.4876 0.203267 27.6472 2.79802Z" fill="url(#paint0_linear_131_102)"/>
<path d="M47.6788 98.5688C50.1348 101.719 50.2843 105.435 50.2415 105.445C50.2522 105.488 45.0947 104.047 42.7776 100.576C40.4605 97.1486 41.5924 93.5929 41.5603 93.6035C41.5817 93.6356 45.2336 95.4508 47.6788 98.5688Z" fill="url(#paint1_linear_131_102)"/>
<path d="M44.0698 109.46C48.5972 108.691 50.2844 105.275 50.2844 105.296C50.231 105.317 45.3832 103.908 41.1974 104.399C36.9796 104.911 34.5023 107.538 34.4916 107.56C34.4382 107.592 39.4889 110.25 44.0698 109.46Z" fill="url(#paint2_linear_131_102)"/>
<path d="M38.7307 94.6285C40.4179 98.0882 39.8092 101.697 39.7772 101.697C39.7772 101.74 35.2497 99.4977 33.7228 95.7497C32.1958 92.0444 33.9363 88.7983 33.9043 88.7983C33.915 88.8411 37.0436 91.2116 38.7307 94.6285Z" fill="url(#paint3_linear_131_102)"/>
<path d="M33.2104 104.548C37.6097 104.559 39.8521 101.537 39.8414 101.569C39.788 101.58 35.5382 99.4229 31.4806 99.188C27.3802 98.9744 24.5185 101.089 24.5078 101.11C24.4544 101.121 28.7577 104.548 33.2104 104.548Z" fill="url(#paint4_linear_131_102)"/>
<path d="M31.0106 89.3111C31.9717 92.9417 30.6903 96.3266 30.6689 96.3266C30.6689 96.3693 26.7821 93.4328 26.0133 89.5354C25.2232 85.6806 27.4976 82.8296 27.4655 82.8296C27.4549 82.8723 30.0496 85.7127 31.0106 89.3111Z" fill="url(#paint5_linear_131_102)"/>
<path d="M23.8563 97.9707C28.0527 98.7289 30.7543 96.1875 30.7436 96.2195C30.7009 96.2195 27.0703 93.4112 23.2049 92.4929C19.3074 91.5853 16.1467 93.1336 16.1361 93.1656C16.0827 93.1549 19.6064 97.2126 23.8563 97.9707Z" fill="url(#paint6_linear_131_102)"/>
<path d="M24.5612 82.8295C24.8282 86.5134 22.9702 89.578 22.9488 89.578C22.9382 89.6207 19.7348 86.097 19.6707 82.1781C19.5959 78.302 22.2975 75.9208 22.2654 75.9102C22.2548 75.9529 24.2836 79.1669 24.5612 82.8295Z" fill="url(#paint7_linear_131_102)"/>
<path d="M16.0721 89.9942C19.9909 91.4571 23.0555 89.4496 23.0448 89.4816C23.0021 89.4709 20.023 86.1287 16.4245 84.5591C12.8046 83.0001 9.44111 83.9504 9.43043 83.9718C9.38772 83.9611 12.0999 88.5313 16.0721 89.9942Z" fill="url(#paint8_linear_131_102)"/>
<path d="M19.4464 75.3974C19.062 79.0386 16.7129 81.6868 16.6915 81.6761C16.6809 81.7188 14.1822 77.7359 14.7802 73.9025C15.3675 70.1011 18.4107 68.2538 18.3893 68.2432C18.3786 68.2752 19.8095 71.7883 19.4464 75.3974Z" fill="url(#paint9_linear_131_102)"/>
<path d="M9.92149 80.886C13.4879 83.0003 16.8195 81.5801 16.8088 81.6015C16.7767 81.5908 14.4596 77.8108 11.2135 75.6431C7.93538 73.4755 4.48639 73.8172 4.47571 73.8385C4.42232 73.8279 6.31233 78.7611 9.92149 80.886Z" fill="url(#paint10_linear_131_102)"/>
<path d="M15.7092 67.2394C14.7268 70.7312 11.9719 72.8988 11.9505 72.8881C11.9292 72.9308 10.1566 68.5956 11.3952 64.9437C12.6019 61.3238 15.8907 60.0532 15.8693 60.0425C15.8587 60.0745 16.6809 63.7798 15.7092 67.2394Z" fill="url(#paint11_linear_131_102)"/>
<path d="M5.46886 70.9128C8.60819 73.6143 12.0999 72.8135 12.0785 72.8348C12.0465 72.8135 10.4234 68.7131 7.60446 66.0223C4.76411 63.3207 1.3258 63.0324 1.30444 63.0538C1.27241 63.0324 2.28682 68.2006 5.46886 70.9128Z" fill="url(#paint12_linear_131_102)"/>
<path d="M13.424 58.5796C11.8757 61.8364 8.82183 63.4702 8.80047 63.4488C8.77912 63.4915 7.7647 58.9213 9.57996 55.5471C11.3631 52.2049 14.8015 51.5322 14.7801 51.5215C14.7588 51.5535 14.9403 55.3442 13.424 58.5796Z" fill="url(#paint13_linear_131_102)"/>
<path d="M2.76739 60.3524C5.39417 63.5558 8.93927 63.3956 8.91791 63.417C8.88588 63.3956 7.97825 59.0817 5.6718 55.921C3.33332 52.7496 0.0231407 51.8527 0.00178506 51.8634C-0.0195705 51.842 0.108567 57.1276 2.76739 60.3524Z" fill="url(#paint14_linear_131_102)"/>
<path d="M12.623 49.6313C10.5622 52.5678 7.29476 53.6249 7.28408 53.6035C7.25204 53.6356 7.02782 48.9586 9.37698 45.9367C11.6941 42.9469 15.1751 42.8935 15.1537 42.8828C15.1217 42.9148 14.6519 46.7162 12.623 49.6313Z" fill="url(#paint15_linear_131_102)"/>
<path d="M1.90236 49.4713C3.93118 53.1125 7.43356 53.5823 7.41221 53.6037C7.39085 53.5716 7.22 49.1616 5.50084 45.6272C3.76033 42.0714 0.674382 40.5765 0.653027 40.5872C0.610314 40.5445 -0.158494 45.8087 1.90236 49.4713Z" fill="url(#paint16_linear_131_102)"/>
<path d="M13.3706 40.6297C10.8399 43.1711 7.46566 43.6302 7.45499 43.6089C7.41227 43.6409 7.99956 38.9533 10.8399 36.3692C13.6482 33.8065 17.0652 34.3724 17.0545 34.351C17.0224 34.3831 15.8692 38.099 13.3706 40.6297Z" fill="url(#paint17_linear_131_102)"/>
<path d="M2.90622 38.5369C4.26233 42.5091 7.61523 43.609 7.58319 43.6196C7.56184 43.5876 8.14913 39.1883 7.10268 35.3442C6.03488 31.4894 3.29063 29.4499 3.26928 29.4606C3.24792 29.4286 1.52876 34.5326 2.90622 38.5369Z" fill="url(#paint18_linear_131_102)"/>
<path d="M15.7305 31.7885C12.7834 33.8814 9.40907 33.7319 9.39839 33.7105C9.35568 33.7319 10.7759 29.1724 14.054 27.0795C17.3002 25.008 20.5463 26.1825 20.5356 26.1612C20.4929 26.1719 18.6349 29.7063 15.7305 31.7885Z" fill="url(#paint19_linear_131_102)"/>
<path d="M5.86383 27.8376C6.45112 32.0448 9.53705 33.7426 9.5157 33.7533C9.50502 33.7212 10.8718 29.4393 10.5835 25.4031C10.2738 21.3454 7.98875 18.8147 7.95671 18.8147C7.93536 18.772 5.25518 23.5878 5.86383 27.8376Z" fill="url(#paint20_linear_131_102)"/>
<path d="M19.7347 23.3316C16.4245 24.9226 13.1464 24.1751 13.1357 24.1431C13.0823 24.1645 15.3674 19.8292 19.0406 18.2916C22.6711 16.7646 25.6503 18.5051 25.6396 18.4838C25.5969 18.5051 23.0128 21.7512 19.7347 23.3316Z" fill="url(#paint21_linear_131_102)"/>
<path d="M10.8293 17.6297C10.5624 21.965 13.2746 24.2073 13.2425 24.218C13.2319 24.186 15.4102 20.1283 15.9654 16.0066C16.4993 11.8636 14.7908 8.90575 14.7588 8.90575C14.7481 8.85236 11.0749 13.2517 10.8293 17.6297Z" fill="url(#paint22_linear_131_102)"/>
<path d="M25.4582 15.494C21.8277 16.5297 18.7524 15.2057 18.7524 15.1843C18.699 15.195 21.8704 11.2121 25.8853 10.2724C29.8468 9.33279 32.4416 11.5965 32.4309 11.5751C32.3775 11.5858 29.046 14.4582 25.4582 15.494Z" fill="url(#paint23_linear_131_102)"/>
<path d="M17.8767 8.19038C16.6701 12.5363 18.8911 15.2592 18.8591 15.2592C18.8591 15.2272 21.8703 11.5006 23.3545 7.41088C24.8281 3.29985 23.8137 0.000351615 23.771 0.000351615C23.7496 -0.0423604 19.0513 3.8124 17.8767 8.19038Z" fill="url(#paint24_linear_131_102)"/>
<path d="M64.7532 106.577L64.6784 105.777C58.0794 106.375 51.5125 105.638 45.1377 103.598C38.9338 101.601 33.1783 98.4621 28.0529 94.2443C17.4069 85.499 10.5516 73.0271 8.72565 59.1137C7.23073 47.7203 7.99955 37.5655 11.0001 28.9377C14.2142 19.6692 19.9483 12.4188 28.0422 7.38945L27.6151 6.70605C19.3717 11.8422 13.5201 19.2314 10.242 28.6707C7.1987 37.416 6.42989 47.6989 7.93549 59.2098C9.78279 73.3261 16.7449 85.9795 27.5403 94.853C32.7512 99.1348 38.5814 102.328 44.8814 104.346C51.3736 106.439 58.0581 107.186 64.7532 106.577Z" fill="url(#paint25_linear_131_102)"/>
<path d="M99.7131 2.79802C102.564 5.39278 103.077 9.47177 103.077 9.47177C103.077 9.47177 98.9656 9.33296 96.1146 6.7382C93.2636 4.14345 92.751 0.0644531 92.751 0.0644531C92.751 0.0644531 96.862 0.203267 99.7131 2.79802Z" fill="url(#paint26_linear_131_102)"/>
<path d="M79.6703 98.5688C77.2143 101.719 77.0648 105.435 77.1075 105.445C77.0969 105.488 82.2543 104.047 84.5715 100.576C86.8886 97.1486 85.7567 93.5929 85.7887 93.6035C85.7781 93.6356 82.1262 95.4508 79.6703 98.5688Z" fill="url(#paint27_linear_131_102)"/>
<path d="M83.2903 109.46C78.7628 108.691 77.0757 105.275 77.0757 105.296C77.1291 105.317 81.9769 103.908 86.1627 104.399C90.3805 104.911 92.8578 107.538 92.8685 107.56C92.9112 107.592 87.8605 110.25 83.2903 109.46Z" fill="url(#paint28_linear_131_102)"/>
<path d="M88.6185 94.6285C86.9314 98.0775 87.54 101.687 87.572 101.697C87.572 101.74 92.0995 99.4977 93.6265 95.7497C95.1534 92.0444 93.4129 88.7983 93.4449 88.7983C93.4449 88.8411 90.3056 91.2116 88.6185 94.6285Z" fill="url(#paint29_linear_131_102)"/>
<path d="M94.1497 104.548C89.7503 104.559 87.5079 101.537 87.5186 101.569C87.572 101.58 91.8218 99.4229 95.8795 99.188C99.9798 98.9744 102.842 101.089 102.852 101.11C102.895 101.121 98.5917 104.548 94.1497 104.548Z" fill="url(#paint30_linear_131_102)"/>
<path d="M96.3494 89.3111C95.3884 92.9417 96.6697 96.3266 96.6911 96.3266C96.6911 96.3693 100.578 93.4328 101.347 89.5354C102.137 85.6806 99.8624 82.8296 99.8945 82.8296C99.8945 82.8723 97.3104 85.7127 96.3494 89.3111Z" fill="url(#paint31_linear_131_102)"/>
<path d="M103.504 97.9707C99.3071 98.7289 96.6056 96.1875 96.6162 96.2195C96.659 96.2195 100.29 93.4112 104.155 92.4929C108.052 91.5853 111.213 93.1336 111.224 93.1656C111.267 93.1549 107.754 97.2126 103.504 97.9707Z" fill="url(#paint32_linear_131_102)"/>
<path d="M102.799 82.8295C102.532 86.5134 104.39 89.578 104.411 89.578C104.422 89.6207 107.625 86.097 107.689 82.1781C107.764 78.302 105.063 75.9208 105.095 75.9102C105.095 75.9529 103.076 79.1669 102.799 82.8295Z" fill="url(#paint33_linear_131_102)"/>
<path d="M111.288 89.9942C107.369 91.4571 104.304 89.4496 104.315 89.4816C104.358 89.4709 107.337 86.1287 110.935 84.5591C114.555 83.0001 117.919 83.9504 117.93 83.9718C117.972 83.9611 115.249 88.5313 111.288 89.9942Z" fill="url(#paint34_linear_131_102)"/>
<path d="M107.914 75.3974C108.298 79.0386 110.647 81.6868 110.669 81.6761C110.679 81.7188 113.178 77.7359 112.58 73.9025C111.993 70.1011 108.949 68.2538 108.971 68.2432C108.982 68.2752 107.54 71.7883 107.914 75.3974Z" fill="url(#paint35_linear_131_102)"/>
<path d="M117.439 80.886C113.872 83.0003 110.541 81.5801 110.551 81.6015C110.583 81.5908 112.9 77.8108 116.146 75.6431C119.425 73.4755 122.874 73.8172 122.884 73.8385C122.927 73.8279 121.048 78.7611 117.439 80.886Z" fill="url(#paint36_linear_131_102)"/>
<path d="M111.64 67.2394C112.623 70.7312 115.378 72.8988 115.399 72.8881C115.42 72.9308 117.193 68.5956 115.954 64.9437C114.748 61.3238 111.459 60.0532 111.48 60.0425C111.502 60.0745 110.679 63.7798 111.64 67.2394Z" fill="url(#paint37_linear_131_102)"/>
<path d="M121.891 70.9128C118.752 73.6143 115.26 72.8135 115.282 72.8348C115.314 72.8135 116.937 68.7131 119.756 66.0223C122.596 63.3207 126.034 63.0324 126.056 63.0538C126.088 63.0324 125.063 68.2006 121.891 70.9128Z" fill="url(#paint38_linear_131_102)"/>
<path d="M113.936 58.5796C115.484 61.8364 118.538 63.4702 118.56 63.4488C118.581 63.4915 119.595 58.9213 117.78 55.5471C115.997 52.2049 112.559 51.5322 112.58 51.5215C112.601 51.5535 112.409 55.3442 113.936 58.5796Z" fill="url(#paint39_linear_131_102)"/>
<path d="M124.582 60.3524C121.955 63.5558 118.41 63.3956 118.432 63.417C118.464 63.3956 119.371 59.0817 121.678 55.921C124.016 52.7496 127.326 51.8527 127.348 51.8634C127.38 51.842 127.241 57.1276 124.582 60.3524Z" fill="url(#paint40_linear_131_102)"/>
<path d="M114.737 49.6313C116.798 52.5678 120.065 53.6249 120.076 53.6035C120.108 53.6356 120.332 48.9586 117.983 45.9367C115.666 42.9469 112.185 42.8935 112.206 42.8828C112.228 42.9148 112.697 46.7162 114.737 49.6313Z" fill="url(#paint41_linear_131_102)"/>
<path d="M125.458 49.4713C123.429 53.1125 119.926 53.5823 119.948 53.6037C119.969 53.5716 120.14 49.1616 121.859 45.6272C123.6 42.0714 126.686 40.5765 126.707 40.5872C126.739 40.5445 127.518 45.8087 125.458 49.4713Z" fill="url(#paint42_linear_131_102)"/>
<path d="M113.979 40.6297C116.509 43.1711 119.873 43.6302 119.894 43.6089C119.937 43.6409 119.35 38.9533 116.509 36.3692C113.701 33.8065 110.284 34.3724 110.295 34.351C110.338 34.3831 111.491 38.099 113.979 40.6297Z" fill="url(#paint43_linear_131_102)"/>
<path d="M124.443 38.5369C123.087 42.5091 119.734 43.609 119.766 43.6196C119.788 43.5876 119.2 39.1883 120.247 35.3442C121.315 31.4894 124.059 29.4499 124.08 29.4606C124.112 29.4286 125.831 34.5326 124.443 38.5369Z" fill="url(#paint44_linear_131_102)"/>
<path d="M111.63 31.7885C114.577 33.8814 117.951 33.7319 117.962 33.7105C118.004 33.7319 116.584 29.1724 113.306 27.0795C110.06 25.008 106.814 26.1825 106.824 26.1612C106.867 26.1719 108.714 29.7063 111.63 31.7885Z" fill="url(#paint45_linear_131_102)"/>
<path d="M121.485 27.8376C120.898 32.0448 117.812 33.7426 117.834 33.7533C117.844 33.7212 116.477 29.4393 116.766 25.4031C117.075 21.3454 119.36 18.8147 119.393 18.8147C119.414 18.772 122.105 23.5878 121.485 27.8376Z" fill="url(#paint46_linear_131_102)"/>
<path d="M107.615 23.3316C110.925 24.9226 114.203 24.1751 114.214 24.1431C114.267 24.1645 111.982 19.8292 108.309 18.2916C104.678 16.7646 101.699 18.5051 101.71 18.4838C101.763 18.5051 104.347 21.7512 107.615 23.3316Z" fill="url(#paint47_linear_131_102)"/>
<path d="M116.52 17.6297C116.787 21.965 114.075 24.2073 114.107 24.218C114.118 24.186 111.939 20.1283 111.384 16.0066C110.85 11.8636 112.559 8.90575 112.591 8.90575C112.601 8.85236 116.285 13.2517 116.52 17.6297Z" fill="url(#paint48_linear_131_102)"/>
<path d="M101.891 15.494C105.522 16.5297 108.597 15.2057 108.597 15.1843C108.65 15.195 105.479 11.2121 101.464 10.2724C97.5026 9.33279 94.9079 11.5965 94.9185 11.5751C94.9719 11.5858 98.3035 14.4582 101.891 15.494Z" fill="url(#paint49_linear_131_102)"/>
<path d="M109.483 8.19038C110.69 12.5363 108.469 15.2592 108.501 15.2592C108.501 15.2272 105.49 11.5006 104.006 7.41088C102.532 3.29985 103.546 0.000351615 103.589 0.000351615C103.6 -0.0423604 108.298 3.8124 109.483 8.19038Z" fill="url(#paint50_linear_131_102)"/>
<path d="M62.5962 106.577L62.671 105.777C69.27 106.375 75.837 105.638 82.2117 103.598C88.4156 101.601 94.1711 98.4621 99.2965 94.2443C109.942 85.499 116.798 73.0271 118.624 59.1137C120.119 47.7203 119.35 37.5655 116.349 28.9377C113.135 19.6692 107.401 12.4188 99.3072 7.38945L99.7343 6.70605C107.978 11.8422 113.829 19.2314 117.107 28.6707C120.151 37.416 120.919 47.6989 119.414 59.2098C117.567 73.3261 110.605 85.9902 99.7984 94.8636C94.5875 99.1455 88.7573 102.338 82.4573 104.356C75.9865 106.439 69.302 107.186 62.5962 106.577Z" fill="url(#paint51_linear_131_102)"/>
<path d="M63.9097 102.509L69.9535 106.951L63.9097 111.393L57.8767 106.951L63.9097 102.509Z" fill="url(#paint52_linear_131_102)"/>
<defs>
<linearGradient id="paint0_linear_131_102" x1="29.4537" y1="9.46846" x2="29.4537" y2="0.0658688" gradientUnits="userSpaceOnUse">
<stop stop-color="#797979"/>
<stop offset="1" stop-color="#D7D7D7"/>
</linearGradient>
<linearGradient id="paint1_linear_131_102" x1="45.7856" y1="105.442" x2="45.7856" y2="93.6053" gradientUnits="userSpaceOnUse">
<stop stop-color="#797979"/>
<stop offset="1" stop-color="#D7D7D7"/>
</linearGradient>
<linearGradient id="paint2_linear_131_102" x1="42.3989" y1="109.605" x2="42.3989" y2="104.296" gradientUnits="userSpaceOnUse">
<stop stop-color="#797979"/>
<stop offset="1" stop-color="#D7D7D7"/>
</linearGradient>
<linearGradient id="paint3_linear_131_102" x1="36.507" y1="101.693" x2="36.507" y2="88.8003" gradientUnits="userSpaceOnUse">
<stop stop-color="#797979"/>
<stop offset="1" stop-color="#D7D7D7"/>
</linearGradient>
<linearGradient id="paint4_linear_131_102" x1="32.1851" y1="104.546" x2="32.1851" y2="99.1737" gradientUnits="userSpaceOnUse">
<stop stop-color="#797979"/>
<stop offset="1" stop-color="#D7D7D7"/>
</linearGradient>
<linearGradient id="paint5_linear_131_102" x1="28.6109" y1="96.3223" x2="28.6109" y2="82.8316" gradientUnits="userSpaceOnUse">
<stop stop-color="#797979"/>
<stop offset="1" stop-color="#D7D7D7"/>
</linearGradient>
<linearGradient id="paint6_linear_131_102" x1="23.4498" y1="98.1099" x2="23.4498" y2="92.2089" gradientUnits="userSpaceOnUse">
<stop stop-color="#797979"/>
<stop offset="1" stop-color="#D7D7D7"/>
</linearGradient>
<linearGradient id="paint7_linear_131_102" x1="22.1318" y1="89.5735" x2="22.1318" y2="75.9122" gradientUnits="userSpaceOnUse">
<stop stop-color="#797979"/>
<stop offset="1" stop-color="#D7D7D7"/>
</linearGradient>
<linearGradient id="paint8_linear_131_102" x1="16.2469" y1="90.5262" x2="16.2469" y2="83.6666" gradientUnits="userSpaceOnUse">
<stop stop-color="#797979"/>
<stop offset="1" stop-color="#D7D7D7"/>
</linearGradient>
<linearGradient id="paint9_linear_131_102" x1="17.1" y1="81.6717" x2="17.1" y2="68.2452" gradientUnits="userSpaceOnUse">
<stop stop-color="#797979"/>
<stop offset="1" stop-color="#D7D7D7"/>
</linearGradient>
<linearGradient id="paint10_linear_131_102" x1="10.6504" y1="82.0456" x2="10.6504" y2="73.8079" gradientUnits="userSpaceOnUse">
<stop stop-color="#797979"/>
<stop offset="1" stop-color="#D7D7D7"/>
</linearGradient>
<linearGradient id="paint11_linear_131_102" x1="13.5737" y1="72.8839" x2="13.5737" y2="60.0444" gradientUnits="userSpaceOnUse">
<stop stop-color="#797979"/>
<stop offset="1" stop-color="#D7D7D7"/>
</linearGradient>
<linearGradient id="paint12_linear_131_102" x1="6.69871" y1="72.9263" x2="6.69871" y2="63.0542" gradientUnits="userSpaceOnUse">
<stop stop-color="#797979"/>
<stop offset="1" stop-color="#D7D7D7"/>
</linearGradient>
<linearGradient id="paint13_linear_131_102" x1="11.6439" y1="63.4449" x2="11.6439" y2="51.5233" gradientUnits="userSpaceOnUse">
<stop stop-color="#797979"/>
<stop offset="1" stop-color="#D7D7D7"/>
</linearGradient>
<linearGradient id="paint14_linear_131_102" x1="4.46524" y1="63.4129" x2="4.46524" y2="51.865" gradientUnits="userSpaceOnUse">
<stop stop-color="#797979"/>
<stop offset="1" stop-color="#D7D7D7"/>
</linearGradient>
<linearGradient id="paint15_linear_131_102" x1="11.2144" y1="53.6001" x2="11.2144" y2="42.8844" gradientUnits="userSpaceOnUse">
<stop stop-color="#797979"/>
<stop offset="1" stop-color="#D7D7D7"/>
</linearGradient>
<linearGradient id="paint16_linear_131_102" x1="3.9499" y1="53.5991" x2="3.9499" y2="40.5889" gradientUnits="userSpaceOnUse">
<stop stop-color="#797979"/>
<stop offset="1" stop-color="#D7D7D7"/>
</linearGradient>
<linearGradient id="paint17_linear_131_102" x1="12.2604" y1="43.6063" x2="12.2604" y2="34.3134" gradientUnits="userSpaceOnUse">
<stop stop-color="#797979"/>
<stop offset="1" stop-color="#D7D7D7"/>
</linearGradient>
<linearGradient id="paint18_linear_131_102" x1="5.05396" y1="43.6146" x2="5.05396" y2="29.4626" gradientUnits="userSpaceOnUse">
<stop stop-color="#797979"/>
<stop offset="1" stop-color="#D7D7D7"/>
</linearGradient>
<linearGradient id="paint19_linear_131_102" x1="14.9743" y1="33.7181" x2="14.9743" y2="25.8498" gradientUnits="userSpaceOnUse">
<stop stop-color="#797979"/>
<stop offset="1" stop-color="#D7D7D7"/>
</linearGradient>
<linearGradient id="paint20_linear_131_102" x1="8.20209" y1="33.7481" x2="8.20209" y2="18.8167" gradientUnits="userSpaceOnUse">
<stop stop-color="#797979"/>
<stop offset="1" stop-color="#D7D7D7"/>
</linearGradient>
<linearGradient id="paint21_linear_131_102" x1="19.3959" y1="24.3439" x2="19.3959" y2="17.6646" gradientUnits="userSpaceOnUse">
<stop stop-color="#797979"/>
<stop offset="1" stop-color="#D7D7D7"/>
</linearGradient>
<linearGradient id="paint22_linear_131_102" x1="13.4434" y1="24.2126" x2="13.4434" y2="8.90758" gradientUnits="userSpaceOnUse">
<stop stop-color="#797979"/>
<stop offset="1" stop-color="#D7D7D7"/>
</linearGradient>
<linearGradient id="paint23_linear_131_102" x1="25.6009" y1="15.8873" x2="25.6009" y2="10.0448" gradientUnits="userSpaceOnUse">
<stop stop-color="#797979"/>
<stop offset="1" stop-color="#D7D7D7"/>
</linearGradient>
<linearGradient id="paint24_linear_131_102" x1="20.8388" y1="15.2538" x2="20.8388" y2="0.00229629" gradientUnits="userSpaceOnUse">
<stop stop-color="#797979"/>
<stop offset="1" stop-color="#D7D7D7"/>
</linearGradient>
<linearGradient id="paint25_linear_131_102" x1="36.0108" y1="106.747" x2="36.0108" y2="6.72111" gradientUnits="userSpaceOnUse">
<stop stop-color="#797979"/>
<stop offset="1" stop-color="#D7D7D7"/>
</linearGradient>
<linearGradient id="paint26_linear_131_102" x1="97.9213" y1="9.46846" x2="97.9213" y2="0.0658688" gradientUnits="userSpaceOnUse">
<stop stop-color="#797979"/>
<stop offset="1" stop-color="#D7D7D7"/>
</linearGradient>
<linearGradient id="paint27_linear_131_102" x1="81.576" y1="105.442" x2="81.576" y2="93.6053" gradientUnits="userSpaceOnUse">
<stop stop-color="#797979"/>
<stop offset="1" stop-color="#D7D7D7"/>
</linearGradient>
<linearGradient id="paint28_linear_131_102" x1="84.9833" y1="109.605" x2="84.9833" y2="104.296" gradientUnits="userSpaceOnUse">
<stop stop-color="#797979"/>
<stop offset="1" stop-color="#D7D7D7"/>
</linearGradient>
<linearGradient id="paint29_linear_131_102" x1="90.8517" y1="101.693" x2="90.8517" y2="88.8003" gradientUnits="userSpaceOnUse">
<stop stop-color="#797979"/>
<stop offset="1" stop-color="#D7D7D7"/>
</linearGradient>
<linearGradient id="paint30_linear_131_102" x1="95.1962" y1="104.546" x2="95.1962" y2="99.1737" gradientUnits="userSpaceOnUse">
<stop stop-color="#797979"/>
<stop offset="1" stop-color="#D7D7D7"/>
</linearGradient>
<linearGradient id="paint31_linear_131_102" x1="98.757" y1="96.3223" x2="98.757" y2="82.8316" gradientUnits="userSpaceOnUse">
<stop stop-color="#797979"/>
<stop offset="1" stop-color="#D7D7D7"/>
</linearGradient>
<linearGradient id="paint32_linear_131_102" x1="103.93" y1="98.1099" x2="103.93" y2="92.2089" gradientUnits="userSpaceOnUse">
<stop stop-color="#797979"/>
<stop offset="1" stop-color="#D7D7D7"/>
</linearGradient>
<linearGradient id="paint33_linear_131_102" x1="105.235" y1="89.5735" x2="105.235" y2="75.9122" gradientUnits="userSpaceOnUse">
<stop stop-color="#797979"/>
<stop offset="1" stop-color="#D7D7D7"/>
</linearGradient>
<linearGradient id="paint34_linear_131_102" x1="111.132" y1="90.5262" x2="111.132" y2="83.6666" gradientUnits="userSpaceOnUse">
<stop stop-color="#797979"/>
<stop offset="1" stop-color="#D7D7D7"/>
</linearGradient>
<linearGradient id="paint35_linear_131_102" x1="110.266" y1="81.6717" x2="110.266" y2="68.2452" gradientUnits="userSpaceOnUse">
<stop stop-color="#797979"/>
<stop offset="1" stop-color="#D7D7D7"/>
</linearGradient>
<linearGradient id="paint36_linear_131_102" x1="116.727" y1="82.0456" x2="116.727" y2="73.8079" gradientUnits="userSpaceOnUse">
<stop stop-color="#797979"/>
<stop offset="1" stop-color="#D7D7D7"/>
</linearGradient>
<linearGradient id="paint37_linear_131_102" x1="113.787" y1="72.8839" x2="113.787" y2="60.0444" gradientUnits="userSpaceOnUse">
<stop stop-color="#797979"/>
<stop offset="1" stop-color="#D7D7D7"/>
</linearGradient>
<linearGradient id="paint38_linear_131_102" x1="120.677" y1="72.9263" x2="120.677" y2="63.0542" gradientUnits="userSpaceOnUse">
<stop stop-color="#797979"/>
<stop offset="1" stop-color="#D7D7D7"/>
</linearGradient>
<linearGradient id="paint39_linear_131_102" x1="115.725" y1="63.4449" x2="115.725" y2="51.5233" gradientUnits="userSpaceOnUse">
<stop stop-color="#797979"/>
<stop offset="1" stop-color="#D7D7D7"/>
</linearGradient>
<linearGradient id="paint40_linear_131_102" x1="122.898" y1="63.4129" x2="122.898" y2="51.865" gradientUnits="userSpaceOnUse">
<stop stop-color="#797979"/>
<stop offset="1" stop-color="#D7D7D7"/>
</linearGradient>
<linearGradient id="paint41_linear_131_102" x1="116.156" y1="53.6001" x2="116.156" y2="42.8844" gradientUnits="userSpaceOnUse">
<stop stop-color="#797979"/>
<stop offset="1" stop-color="#D7D7D7"/>
</linearGradient>
<linearGradient id="paint42_linear_131_102" x1="123.418" y1="53.5991" x2="123.418" y2="40.5889" gradientUnits="userSpaceOnUse">
<stop stop-color="#797979"/>
<stop offset="1" stop-color="#D7D7D7"/>
</linearGradient>
<linearGradient id="paint43_linear_131_102" x1="115.102" y1="43.6063" x2="115.102" y2="34.3134" gradientUnits="userSpaceOnUse">
<stop stop-color="#797979"/>
<stop offset="1" stop-color="#D7D7D7"/>
</linearGradient>
<linearGradient id="paint44_linear_131_102" x1="122.306" y1="43.6146" x2="122.306" y2="29.4626" gradientUnits="userSpaceOnUse">
<stop stop-color="#797979"/>
<stop offset="1" stop-color="#D7D7D7"/>
</linearGradient>
<linearGradient id="paint45_linear_131_102" x1="112.401" y1="33.7181" x2="112.401" y2="25.8498" gradientUnits="userSpaceOnUse">
<stop stop-color="#797979"/>
<stop offset="1" stop-color="#D7D7D7"/>
</linearGradient>
<linearGradient id="paint46_linear_131_102" x1="119.155" y1="33.7481" x2="119.155" y2="18.8167" gradientUnits="userSpaceOnUse">
<stop stop-color="#797979"/>
<stop offset="1" stop-color="#D7D7D7"/>
</linearGradient>
<linearGradient id="paint47_linear_131_102" x1="107.971" y1="24.3439" x2="107.971" y2="17.6646" gradientUnits="userSpaceOnUse">
<stop stop-color="#797979"/>
<stop offset="1" stop-color="#D7D7D7"/>
</linearGradient>
<linearGradient id="paint48_linear_131_102" x1="113.913" y1="24.2126" x2="113.913" y2="8.90758" gradientUnits="userSpaceOnUse">
<stop stop-color="#797979"/>
<stop offset="1" stop-color="#D7D7D7"/>
</linearGradient>
<linearGradient id="paint49_linear_131_102" x1="101.768" y1="15.8873" x2="101.768" y2="10.0448" gradientUnits="userSpaceOnUse">
<stop stop-color="#797979"/>
<stop offset="1" stop-color="#D7D7D7"/>
</linearGradient>
<linearGradient id="paint50_linear_131_102" x1="106.531" y1="15.2538" x2="106.531" y2="0.00229629" gradientUnits="userSpaceOnUse">
<stop stop-color="#797979"/>
<stop offset="1" stop-color="#D7D7D7"/>
</linearGradient>
<linearGradient id="paint51_linear_131_102" x1="91.419" y1="106.747" x2="91.419" y2="6.72111" gradientUnits="userSpaceOnUse">
<stop stop-color="#797979"/>
<stop offset="1" stop-color="#D7D7D7"/>
</linearGradient>
<linearGradient id="paint52_linear_131_102" x1="63.9236" y1="111.39" x2="63.9236" y2="102.51" gradientUnits="userSpaceOnUse">
<stop stop-color="#797979"/>
<stop offset="1" stop-color="#D7D7D7"/>
</linearGradient>
</defs>
</svg>
