<?xml version="1.0" encoding="utf-8"?>
<!-- Generator: Adobe Illustrator 26.1.0, SVG Export Plug-In . SVG Version: 6.00 Build 0)  -->
<svg version="1.1" id="Layer_1" xmlns="http://www.w3.org/2000/svg" xmlns:xlink="http://www.w3.org/1999/xlink" x="0px" y="0px" width="120" height="112"
	 viewBox="0 0 128 112" style="enable-background:new 0 0 128 112;" xml:space="preserve">
<style type="text/css">
	.st0{fill:#f5f5f5;}
	.st1{fill:#EF4335;}
	.st2{fill:url(#SVGID_1_);}
	.st3{fill:url(#SVGID_00000003081326083585107230000004589816345335458738_);}
	.st4{fill:url(#SVGID_00000121241727733175172310000008747749104048032655_);}
	.st5{fill:url(#SVGID_00000096048084245205265360000007066771957668962966_);}
	.st6{fill:url(#SVGID_00000076586500976692347620000001946664962311733946_);}
	.st7{fill:url(#SVGID_00000047745742849525142760000012954886779489078969_);}
	.st8{fill:url(#SVGID_00000152231157636796671510000004050555499329972670_);}
	.st9{fill:url(#SVGID_00000087371260156775086940000013237991636268157874_);}
	.st10{fill:url(#SVGID_00000011003829863441850000000006994053412867330708_);}
	.st11{fill:url(#SVGID_00000089572133290811464530000009415130002681269173_);}
	.st12{fill:url(#SVGID_00000096773121004071180310000018338633924275180732_);}
	.st13{fill:url(#SVGID_00000165918329921346323130000012809676103254780051_);}
	.st14{fill:url(#SVGID_00000064350378970798924250000017420177669409572272_);}
	.st15{fill:url(#SVGID_00000138551461366933575940000008175034851761159095_);}
	.st16{fill:url(#SVGID_00000123426909954481126410000016208559171790919340_);}
	.st17{fill:url(#SVGID_00000079444770237066183830000002383662679276940674_);}
	.st18{fill:url(#SVGID_00000038414169400558595700000003929161216928334499_);}
	.st19{fill:url(#SVGID_00000077297382239448444020000004620187385485485222_);}
	.st20{fill:url(#SVGID_00000113340416705272193230000000820764397564356746_);}
	.st21{fill:url(#SVGID_00000016784541072259711790000013816892652577390734_);}
	.st22{fill:url(#SVGID_00000060729120546239656540000014282080567472332479_);}
	.st23{fill:url(#SVGID_00000180331954230861137710000000016749179227538335_);}
	.st24{fill:url(#SVGID_00000078759084852467819820000015064045244955022217_);}
	.st25{fill:url(#SVGID_00000101789793227364747410000016194434590395781276_);}
	.st26{fill:url(#SVGID_00000029035044101295047990000010022608691276811675_);}
	.st27{fill:url(#SVGID_00000026883552449309835750000010471351460600002210_);}
	.st28{fill:url(#SVGID_00000057127723617291522030000008662300658789557400_);}
	.st29{fill:url(#SVGID_00000109734669368808324210000008283570677851250842_);}
	.st30{fill:url(#SVGID_00000026124594756465280940000007544899658587128243_);}
	.st31{fill:url(#SVGID_00000101789943369165564250000004913786397031899526_);}
	.st32{fill:url(#SVGID_00000163056391176774532220000003186934221770231481_);}
	.st33{fill:url(#SVGID_00000065788824731526772050000002786214524700069045_);}
	.st34{fill:url(#SVGID_00000089545263149797224680000002567331869920276625_);}
	.st35{fill:url(#SVGID_00000162352863191729312640000007330931598159139986_);}
	.st36{fill:url(#SVGID_00000181786328231860972970000002594638068183073155_);}
	.st37{fill:url(#SVGID_00000020367295380356106760000008197976231157007016_);}
	.st38{fill:url(#SVGID_00000173873320582350251740000013224682733165692552_);}
	.st39{fill:url(#SVGID_00000139253019960873868330000004305307343250889116_);}
	.st40{fill:url(#SVGID_00000089562076546230589210000015381880862949669535_);}
	.st41{fill:url(#SVGID_00000171694046545953078650000007002729784218454409_);}
	.st42{fill:url(#SVGID_00000021098183349741308250000014963524705953982627_);}
	.st43{fill:url(#SVGID_00000039819988848455397720000016342140575126225814_);}
	.st44{fill:url(#SVGID_00000161623014788156737570000014271417117805183873_);}
	.st45{fill:url(#SVGID_00000073684478949902133950000012795580696943806606_);}
	.st46{fill:url(#SVGID_00000106142157959510798670000015055686246868288900_);}
	.st47{fill:url(#SVGID_00000030448104172073995800000002455385942375349128_);}
	.st48{fill:url(#SVGID_00000116208677948098759420000013463965496974066087_);}
	.st49{fill:url(#SVGID_00000165230063330808410330000017391512101080172418_);}
	.st50{fill:url(#SVGID_00000054976337327321815550000013652735123828439222_);}
	.st51{fill:url(#SVGID_00000172439417993146046560000017105380013873793411_);}
	.st52{fill:url(#SVGID_00000071548567123284174590000008013099469479772093_);}
	.st53{fill:url(#SVGID_00000039820437089606238640000017587718436399952562_);}
	.st54{fill:url(#SVGID_00000061442398432783210410000006540021593229005215_);}
</style>
<path class="st0" d="M51.5,22h2.4v14.8h-2.4V22z"/>
<path class="st0" d="M62.2,32.1c0,2.3-1.9,2.5-2.5,2.5c-1.5,0-1.7-1.4-1.7-2.1v-5.7h-2.4v5.6c0,1.4,0.4,2.6,1.2,3.3
	c0.7,0.7,1.7,1,2.8,1c0.8,0,1.9-0.2,2.5-0.8v0.8h2.4v-10h-2.4V32.1z"/>
<path class="st0" d="M69.3,23.1h-2.4v3.6h-1.8v2.3h1.8v7.7h2.4v-7.7h1.8v-2.3h-1.8V23.1z"/>
<path class="st0" d="M78.6,33.8c-0.5,0.4-1.2,0.7-2,0.7c-1.7,0-2.8-1.2-2.8-2.9c0-1.7,1.1-2.8,2.8-2.8c0.7,0,1.5,0.2,2,0.7l0.3,0.3
	l1.7-1.6l-0.4-0.3c-0.9-0.8-2.2-1.4-3.5-1.4c-2.9,0-5.1,2.2-5.1,5.1c0,2.9,2.2,5.1,5.1,5.1c1.4,0,2.6-0.5,3.5-1.4l0.4-0.3l-1.7-1.7
	L78.6,33.8z"/>
<path class="st0" d="M89,27.6c-0.7-0.7-1.5-1-2.6-1c-0.8,0-1.7,0.2-2.3,0.8V22h-2.4v14.8h2.4v-5.5c0-2.3,1.6-2.5,2.2-2.5
	c1.5,0,1.4,1.4,1.4,2.1v5.8H90v-5.7C90,29.6,89.7,28.3,89,27.6z"/>
<path class="st1" d="M76.5,33.3c0.9,0,1.7-0.7,1.7-1.7S77.4,30,76.5,30c-0.9,0-1.7,0.7-1.7,1.7S75.6,33.3,76.5,33.3z"/>
<path class="st0" d="M48.2,33.1c-0.8,0.8-2.1,1.4-3.4,1.4c-2.6,0-4.5-2.1-4.5-4.9s1.9-4.9,4.6-4.9c1.2,0,2.5,0.5,3.4,1.5l0.3,0.3
	l1.6-1.6l-0.3-0.3c-1.4-1.4-3.1-2.1-5-2.1c-4-0.1-6.9,3-6.9,7.1s2.9,7.2,6.8,7.2c1.9,0,3.7-0.7,5-2.1l0.3-0.3l-1.6-1.6L48.2,33.1z"
	/>
<path class="st0" d="M48.7,56.4v-1.3l3.1-2.9c0.3-0.3,0.5-0.5,0.7-0.7c0.2-0.2,0.3-0.4,0.4-0.6c0.1-0.2,0.1-0.4,0.1-0.6
	c0-0.3-0.1-0.5-0.2-0.7c-0.1-0.2-0.3-0.3-0.5-0.4c-0.2-0.1-0.4-0.2-0.7-0.2c-0.3,0-0.5,0.1-0.7,0.2c-0.2,0.1-0.4,0.3-0.5,0.5
	c-0.1,0.2-0.2,0.4-0.2,0.7h-1.8c0-0.6,0.1-1.1,0.4-1.5c0.3-0.4,0.6-0.7,1.1-1c0.5-0.2,1-0.3,1.6-0.3c0.6,0,1.2,0.1,1.6,0.3
	c0.5,0.2,0.8,0.5,1.1,0.9c0.3,0.4,0.4,0.8,0.4,1.3c0,0.3-0.1,0.7-0.2,1c-0.1,0.3-0.4,0.7-0.7,1.1c-0.3,0.4-0.8,0.9-1.4,1.4l-1.3,1.2
	v0.1h3.7v1.5H48.7z M59.7,56.6c-0.7,0-1.4-0.2-1.9-0.5c-0.5-0.4-0.9-0.9-1.2-1.6c-0.3-0.7-0.4-1.5-0.4-2.5c0-1,0.1-1.8,0.4-2.4
	c0.3-0.7,0.7-1.2,1.2-1.5c0.5-0.4,1.2-0.5,1.9-0.5c0.7,0,1.4,0.2,1.9,0.5c0.5,0.4,0.9,0.9,1.2,1.5c0.3,0.7,0.4,1.5,0.4,2.4
	c0,1-0.1,1.8-0.4,2.5c-0.3,0.7-0.7,1.2-1.2,1.6C61.1,56.5,60.4,56.6,59.7,56.6z M59.7,55.1c0.5,0,0.9-0.3,1.2-0.8
	c0.3-0.5,0.4-1.3,0.4-2.3c0-0.7-0.1-1.2-0.2-1.7c-0.1-0.4-0.3-0.8-0.6-1c-0.2-0.2-0.5-0.3-0.9-0.3c-0.5,0-0.9,0.2-1.2,0.7
	c-0.3,0.5-0.4,1.2-0.5,2.2c0,0.7,0.1,1.2,0.2,1.7c0.1,0.4,0.3,0.8,0.6,1C59.1,55,59.4,55.1,59.7,55.1z M64.5,56.4v-1.3l3.1-2.9
	c0.3-0.3,0.5-0.5,0.7-0.7c0.2-0.2,0.3-0.4,0.4-0.6c0.1-0.2,0.1-0.4,0.1-0.6c0-0.3-0.1-0.5-0.2-0.7c-0.1-0.2-0.3-0.3-0.5-0.4
	c-0.2-0.1-0.4-0.2-0.7-0.2c-0.3,0-0.5,0.1-0.7,0.2c-0.2,0.1-0.4,0.3-0.5,0.5c-0.1,0.2-0.2,0.4-0.2,0.7h-1.8c0-0.6,0.1-1.1,0.4-1.5
	c0.3-0.4,0.6-0.7,1.1-1c0.5-0.2,1-0.3,1.6-0.3c0.6,0,1.2,0.1,1.6,0.3c0.5,0.2,0.8,0.5,1.1,0.9c0.3,0.4,0.4,0.8,0.4,1.3
	c0,0.3-0.1,0.7-0.2,1c-0.1,0.3-0.4,0.7-0.7,1.1c-0.3,0.4-0.8,0.9-1.4,1.4l-1.3,1.2v0.1h3.7v1.5H64.5z M72.1,56.4v-1.3l3.1-2.9
	c0.3-0.3,0.5-0.5,0.7-0.7c0.2-0.2,0.3-0.4,0.4-0.6c0.1-0.2,0.1-0.4,0.1-0.6c0-0.3-0.1-0.5-0.2-0.7c-0.1-0.2-0.3-0.3-0.5-0.4
	c-0.2-0.1-0.4-0.2-0.7-0.2c-0.3,0-0.5,0.1-0.7,0.2c-0.2,0.1-0.4,0.3-0.5,0.5c-0.1,0.2-0.2,0.4-0.2,0.7H72c0-0.6,0.1-1.1,0.4-1.5
	c0.3-0.4,0.6-0.7,1.1-1c0.5-0.2,1-0.3,1.6-0.3c0.6,0,1.2,0.1,1.6,0.3c0.5,0.2,0.8,0.5,1.1,0.9c0.3,0.4,0.4,0.8,0.4,1.3
	c0,0.3-0.1,0.7-0.2,1c-0.1,0.3-0.4,0.7-0.7,1.1c-0.3,0.4-0.8,0.9-1.4,1.4l-1.3,1.2v0.1h3.7v1.5H72.1z"/>
<path class="st0" d="M46.7,68.2v-1h4.8v1h-1.8V73h-1.2v-4.8H46.7z M53.6,73.1c-0.4,0-0.8-0.1-1.1-0.3c-0.3-0.2-0.6-0.5-0.7-0.8
	c-0.2-0.3-0.3-0.7-0.3-1.2c0-0.5,0.1-0.8,0.3-1.2c0.2-0.3,0.4-0.6,0.7-0.8c0.3-0.2,0.7-0.3,1.1-0.3s0.8,0.1,1.1,0.3
	c0.3,0.2,0.6,0.5,0.7,0.8c0.2,0.3,0.3,0.7,0.3,1.2c0,0.4-0.1,0.8-0.3,1.2c-0.2,0.3-0.4,0.6-0.7,0.8C54.4,73,54,73.1,53.6,73.1z
	 M53.6,72.1c0.2,0,0.4-0.1,0.5-0.2c0.1-0.1,0.2-0.3,0.3-0.5c0.1-0.2,0.1-0.4,0.1-0.7s0-0.5-0.1-0.7c-0.1-0.2-0.2-0.4-0.3-0.5
	c-0.1-0.1-0.3-0.2-0.5-0.2c-0.2,0-0.4,0.1-0.5,0.2c-0.1,0.1-0.2,0.3-0.3,0.5c-0.1,0.2-0.1,0.4-0.1,0.7s0,0.5,0.1,0.7
	c0.1,0.2,0.2,0.4,0.3,0.5C53.2,72.1,53.4,72.1,53.6,72.1z M56.5,74.6v-6h1.2v0.7h0.1c0.1-0.1,0.1-0.2,0.2-0.4
	c0.1-0.1,0.2-0.2,0.4-0.3c0.2-0.1,0.4-0.1,0.6-0.1c0.3,0,0.6,0.1,0.9,0.2c0.3,0.2,0.5,0.4,0.6,0.7c0.2,0.3,0.2,0.7,0.2,1.2
	c0,0.5-0.1,0.9-0.2,1.2c-0.2,0.3-0.4,0.6-0.6,0.8c-0.3,0.2-0.6,0.3-0.9,0.3c-0.2,0-0.4,0-0.6-0.1c-0.2-0.1-0.3-0.2-0.4-0.3
	c-0.1-0.1-0.2-0.2-0.2-0.4h0v2.3H56.5z M57.7,70.8c0,0.3,0,0.5,0.1,0.7c0.1,0.2,0.2,0.3,0.3,0.5c0.1,0.1,0.3,0.2,0.5,0.2
	c0.2,0,0.4-0.1,0.5-0.2c0.1-0.1,0.2-0.3,0.3-0.5c0.1-0.2,0.1-0.4,0.1-0.7c0-0.3,0-0.5-0.1-0.7c-0.1-0.2-0.2-0.3-0.3-0.4
	c-0.1-0.1-0.3-0.2-0.5-0.2c-0.2,0-0.4,0.1-0.5,0.2c-0.1,0.1-0.2,0.3-0.3,0.4C57.7,70.3,57.7,70.6,57.7,70.8z M64.7,73l-1.7-5.8h1.3
	l1,4h0l1.1-4h1.2l1.1,4.1h0.1l1-4.1h1.3L69.4,73h-1.2l-1.1-3.8h0L65.9,73H64.7z M73.2,73.1c-0.4,0-0.8-0.1-1.2-0.3
	c-0.3-0.2-0.6-0.4-0.7-0.8c-0.2-0.3-0.3-0.7-0.3-1.2c0-0.4,0.1-0.8,0.3-1.2c0.2-0.3,0.4-0.6,0.7-0.8c0.3-0.2,0.7-0.3,1.1-0.3
	c0.3,0,0.6,0,0.8,0.1c0.2,0.1,0.5,0.2,0.7,0.4c0.2,0.2,0.3,0.4,0.4,0.7c0.1,0.3,0.2,0.6,0.2,1v0.3h-3.7v-0.8h2.5
	c0-0.2,0-0.3-0.1-0.5c-0.1-0.1-0.2-0.2-0.3-0.3c-0.1-0.1-0.3-0.1-0.5-0.1c-0.2,0-0.3,0-0.5,0.1c-0.1,0.1-0.2,0.2-0.3,0.3
	c-0.1,0.1-0.1,0.3-0.1,0.5v0.7c0,0.2,0,0.4,0.1,0.6c0.1,0.2,0.2,0.3,0.3,0.4s0.3,0.1,0.5,0.1c0.1,0,0.3,0,0.4-0.1
	c0.1,0,0.2-0.1,0.3-0.2c0.1-0.1,0.1-0.2,0.2-0.3l1.1,0.1c-0.1,0.3-0.2,0.5-0.3,0.7c-0.2,0.2-0.4,0.4-0.7,0.5
	C73.9,73,73.6,73.1,73.2,73.1z M76,73v-5.8h1.2v2.2h0c0.1-0.1,0.1-0.2,0.2-0.4c0.1-0.1,0.2-0.2,0.4-0.3c0.2-0.1,0.4-0.1,0.6-0.1
	c0.3,0,0.6,0.1,0.9,0.2c0.3,0.2,0.5,0.4,0.6,0.7c0.2,0.3,0.2,0.7,0.2,1.2c0,0.5-0.1,0.9-0.2,1.2c-0.2,0.3-0.4,0.6-0.6,0.8
	c-0.3,0.2-0.6,0.3-0.9,0.3c-0.2,0-0.4,0-0.6-0.1c-0.2-0.1-0.3-0.2-0.4-0.3c-0.1-0.1-0.2-0.2-0.2-0.4h-0.1V73H76z M77.2,70.8
	c0,0.3,0,0.5,0.1,0.7c0.1,0.2,0.2,0.3,0.3,0.5c0.1,0.1,0.3,0.2,0.5,0.2c0.2,0,0.4-0.1,0.5-0.2c0.1-0.1,0.2-0.3,0.3-0.5
	c0.1-0.2,0.1-0.4,0.1-0.7c0-0.3,0-0.5-0.1-0.7c-0.1-0.2-0.2-0.3-0.3-0.4c-0.1-0.1-0.3-0.2-0.5-0.2c-0.2,0-0.4,0.1-0.5,0.2
	c-0.1,0.1-0.2,0.3-0.3,0.4C77.2,70.3,77.2,70.6,77.2,70.8z M32.8,83h-2.1v-5.8h2.1c0.6,0,1.1,0.1,1.5,0.3c0.4,0.2,0.7,0.6,1,1
	c0.2,0.4,0.3,1,0.3,1.6c0,0.6-0.1,1.1-0.3,1.6c-0.2,0.4-0.6,0.8-1,1C33.9,82.9,33.4,83,32.8,83z M31.9,81.9h0.8
	c0.4,0,0.7-0.1,0.9-0.2c0.2-0.1,0.4-0.3,0.6-0.6c0.1-0.3,0.2-0.6,0.2-1.1c0-0.4-0.1-0.8-0.2-1.1c-0.1-0.3-0.3-0.5-0.6-0.6
	c-0.2-0.1-0.6-0.2-0.9-0.2h-0.8V81.9z M38.5,83.1c-0.4,0-0.8-0.1-1.2-0.3c-0.3-0.2-0.6-0.4-0.7-0.8c-0.2-0.3-0.3-0.7-0.3-1.2
	c0-0.4,0.1-0.8,0.3-1.2c0.2-0.3,0.4-0.6,0.7-0.8c0.3-0.2,0.7-0.3,1.1-0.3c0.3,0,0.6,0,0.8,0.1c0.2,0.1,0.5,0.2,0.7,0.4
	c0.2,0.2,0.3,0.4,0.4,0.7c0.1,0.3,0.2,0.6,0.2,1v0.3h-3.7v-0.8h2.5c0-0.2,0-0.3-0.1-0.5c-0.1-0.1-0.2-0.2-0.3-0.3
	c-0.1-0.1-0.3-0.1-0.5-0.1c-0.2,0-0.3,0-0.5,0.1c-0.1,0.1-0.2,0.2-0.3,0.3c-0.1,0.1-0.1,0.3-0.1,0.5v0.7c0,0.2,0,0.4,0.1,0.6
	c0.1,0.2,0.2,0.3,0.3,0.4c0.1,0.1,0.3,0.1,0.5,0.1c0.1,0,0.3,0,0.4-0.1c0.1,0,0.2-0.1,0.3-0.2c0.1-0.1,0.1-0.2,0.2-0.3l1.1,0.1
	c-0.1,0.3-0.2,0.5-0.3,0.7c-0.2,0.2-0.4,0.4-0.7,0.5C39.2,83,38.9,83.1,38.5,83.1z M44.9,79.9l-1.1,0.1c0-0.1-0.1-0.2-0.1-0.3
	c-0.1-0.1-0.1-0.1-0.2-0.2c-0.1,0-0.2-0.1-0.4-0.1c-0.2,0-0.3,0-0.5,0.1c-0.1,0.1-0.2,0.2-0.2,0.3c0,0.1,0,0.2,0.1,0.3
	c0.1,0.1,0.2,0.1,0.4,0.2l0.8,0.2c0.4,0.1,0.7,0.2,0.9,0.4c0.2,0.2,0.3,0.4,0.3,0.8c0,0.3-0.1,0.5-0.3,0.8c-0.2,0.2-0.4,0.4-0.7,0.5
	c-0.3,0.1-0.6,0.2-1,0.2c-0.6,0-1-0.1-1.4-0.4c-0.3-0.2-0.5-0.6-0.6-1l1.2-0.1c0,0.2,0.1,0.3,0.3,0.4c0.1,0.1,0.3,0.1,0.5,0.1
	c0.2,0,0.4,0,0.5-0.1c0.1-0.1,0.2-0.2,0.2-0.3c0-0.1,0-0.2-0.1-0.3c-0.1-0.1-0.2-0.1-0.4-0.2l-0.8-0.2c-0.4-0.1-0.7-0.2-1-0.4
	c-0.2-0.2-0.3-0.5-0.3-0.8c0-0.3,0.1-0.5,0.2-0.7c0.2-0.2,0.4-0.4,0.6-0.5c0.3-0.1,0.6-0.2,1-0.2c0.6,0,1,0.1,1.3,0.3
	C44.7,79.2,44.9,79.5,44.9,79.9z M45.8,83v-4.4H47V83H45.8z M46.4,78.1c-0.2,0-0.3-0.1-0.5-0.2c-0.1-0.1-0.2-0.3-0.2-0.4
	c0-0.2,0.1-0.3,0.2-0.4c0.1-0.1,0.3-0.2,0.5-0.2c0.2,0,0.3,0.1,0.5,0.2c0.1,0.1,0.2,0.3,0.2,0.4c0,0.2-0.1,0.3-0.2,0.4
	C46.7,78,46.6,78.1,46.4,78.1z M49.9,84.7c-0.4,0-0.7-0.1-1-0.2c-0.3-0.1-0.5-0.3-0.7-0.4c-0.2-0.2-0.3-0.4-0.3-0.6l1.1-0.2
	c0,0.1,0.1,0.2,0.2,0.2c0.1,0.1,0.2,0.1,0.3,0.2c0.1,0,0.3,0.1,0.4,0.1c0.3,0,0.5-0.1,0.7-0.2c0.2-0.1,0.3-0.3,0.3-0.6v-0.8h-0.1
	c-0.1,0.1-0.1,0.2-0.2,0.3c-0.1,0.1-0.2,0.2-0.4,0.3c-0.2,0.1-0.4,0.1-0.6,0.1c-0.3,0-0.6-0.1-0.9-0.2c-0.3-0.2-0.5-0.4-0.6-0.7
	c-0.2-0.3-0.2-0.7-0.2-1.2c0-0.5,0.1-0.9,0.2-1.2c0.2-0.3,0.4-0.6,0.6-0.7c0.3-0.2,0.6-0.2,0.9-0.2c0.2,0,0.4,0,0.6,0.1
	c0.2,0.1,0.3,0.2,0.4,0.3c0.1,0.1,0.2,0.2,0.2,0.4h0v-0.7h1.2V83c0,0.4-0.1,0.7-0.3,0.9c-0.2,0.2-0.4,0.4-0.8,0.6
	C50.7,84.7,50.3,84.7,49.9,84.7z M50,82c0.2,0,0.4,0,0.5-0.1c0.1-0.1,0.2-0.2,0.3-0.4c0.1-0.2,0.1-0.4,0.1-0.7s0-0.5-0.1-0.7
	c-0.1-0.2-0.2-0.3-0.3-0.4c-0.1-0.1-0.3-0.2-0.5-0.2c-0.2,0-0.4,0.1-0.5,0.2c-0.1,0.1-0.2,0.3-0.3,0.4S49,80.6,49,80.8
	c0,0.3,0,0.5,0.1,0.7c0.1,0.2,0.2,0.3,0.3,0.4C49.6,82,49.8,82,50,82z M54.2,80.5V83H53v-4.4h1.2v0.8h0.1c0.1-0.3,0.3-0.5,0.5-0.6
	c0.2-0.1,0.5-0.2,0.8-0.2c0.3,0,0.6,0.1,0.8,0.2c0.2,0.1,0.4,0.3,0.5,0.6c0.1,0.2,0.2,0.5,0.2,0.9V83h-1.2v-2.6
	c0-0.3-0.1-0.5-0.2-0.6c-0.1-0.2-0.3-0.2-0.6-0.2c-0.2,0-0.3,0-0.4,0.1c-0.1,0.1-0.2,0.2-0.3,0.3C54.3,80.1,54.2,80.3,54.2,80.5z
	 M65,79.2h-1.2c0-0.2-0.1-0.3-0.1-0.4c-0.1-0.1-0.2-0.2-0.3-0.3c-0.1-0.1-0.2-0.2-0.4-0.2c-0.1,0-0.3-0.1-0.5-0.1
	c-0.3,0-0.6,0.1-0.8,0.2c-0.2,0.1-0.4,0.4-0.5,0.6c-0.1,0.3-0.2,0.6-0.2,1c0,0.4,0.1,0.8,0.2,1c0.1,0.3,0.3,0.5,0.5,0.6
	c0.2,0.1,0.5,0.2,0.8,0.2c0.2,0,0.3,0,0.5-0.1c0.1,0,0.3-0.1,0.4-0.2c0.1-0.1,0.2-0.2,0.3-0.3c0.1-0.1,0.1-0.3,0.2-0.4l1.2,0
	c0,0.3-0.1,0.5-0.2,0.8c-0.1,0.2-0.3,0.5-0.5,0.7c-0.2,0.2-0.5,0.3-0.8,0.5c-0.3,0.1-0.6,0.2-1,0.2c-0.5,0-1-0.1-1.4-0.4
	c-0.4-0.2-0.7-0.6-1-1c-0.2-0.4-0.4-1-0.4-1.6c0-0.6,0.1-1.2,0.4-1.6c0.2-0.4,0.6-0.8,1-1c0.4-0.2,0.9-0.4,1.4-0.4
	c0.3,0,0.6,0,0.9,0.1c0.3,0.1,0.5,0.2,0.8,0.4c0.2,0.2,0.4,0.4,0.5,0.7C64.9,78.6,65,78.9,65,79.2z M67.8,83.1
	c-0.4,0-0.8-0.1-1.1-0.3c-0.3-0.2-0.6-0.5-0.7-0.8c-0.2-0.3-0.3-0.7-0.3-1.2c0-0.5,0.1-0.8,0.3-1.2c0.2-0.3,0.4-0.6,0.7-0.8
	c0.3-0.2,0.7-0.3,1.1-0.3c0.4,0,0.8,0.1,1.1,0.3c0.3,0.2,0.6,0.5,0.7,0.8c0.2,0.3,0.3,0.7,0.3,1.2c0,0.4-0.1,0.8-0.3,1.2
	c-0.2,0.3-0.4,0.6-0.7,0.8C68.7,83,68.3,83.1,67.8,83.1z M67.8,82.1c0.2,0,0.4-0.1,0.5-0.2c0.1-0.1,0.2-0.3,0.3-0.5
	c0.1-0.2,0.1-0.4,0.1-0.7s0-0.5-0.1-0.7c-0.1-0.2-0.2-0.4-0.3-0.5c-0.1-0.1-0.3-0.2-0.5-0.2c-0.2,0-0.4,0.1-0.5,0.2
	c-0.1,0.1-0.2,0.3-0.3,0.5c-0.1,0.2-0.1,0.4-0.1,0.7s0,0.5,0.1,0.7c0.1,0.2,0.2,0.4,0.3,0.5C67.5,82.1,67.6,82.1,67.8,82.1z
	 M70.8,83v-4.4h1.2v0.8H72c0.1-0.3,0.2-0.5,0.5-0.6c0.2-0.1,0.5-0.2,0.8-0.2c0.3,0,0.6,0.1,0.8,0.2c0.2,0.1,0.4,0.3,0.4,0.6h0
	c0.1-0.2,0.2-0.4,0.5-0.6c0.2-0.2,0.5-0.2,0.8-0.2c0.4,0,0.7,0.1,1,0.4c0.3,0.3,0.4,0.6,0.4,1.1V83h-1.2v-2.7c0-0.2-0.1-0.4-0.2-0.5
	c-0.1-0.1-0.3-0.2-0.5-0.2c-0.2,0-0.4,0.1-0.5,0.2c-0.1,0.1-0.2,0.3-0.2,0.5V83h-1.2v-2.7c0-0.2-0.1-0.4-0.2-0.5
	c-0.1-0.1-0.3-0.2-0.5-0.2c-0.1,0-0.3,0-0.4,0.1c-0.1,0.1-0.2,0.2-0.3,0.3C72,80.1,72,80.2,72,80.4V83H70.8z M78.1,84.6v-6h1.2v0.7
	h0.1c0.1-0.1,0.1-0.2,0.2-0.4c0.1-0.1,0.2-0.2,0.4-0.3c0.2-0.1,0.4-0.1,0.6-0.1c0.3,0,0.6,0.1,0.9,0.2c0.3,0.2,0.5,0.4,0.6,0.7
	c0.2,0.3,0.2,0.7,0.2,1.2c0,0.5-0.1,0.9-0.2,1.2c-0.2,0.3-0.4,0.6-0.6,0.8c-0.3,0.2-0.6,0.3-0.9,0.3c-0.2,0-0.4,0-0.6-0.1
	c-0.2-0.1-0.3-0.2-0.4-0.3c-0.1-0.1-0.2-0.2-0.2-0.4h0v2.3H78.1z M79.3,80.8c0,0.3,0,0.5,0.1,0.7c0.1,0.2,0.2,0.3,0.3,0.5
	c0.1,0.1,0.3,0.2,0.5,0.2c0.2,0,0.4-0.1,0.5-0.2c0.1-0.1,0.2-0.3,0.3-0.5c0.1-0.2,0.1-0.4,0.1-0.7c0-0.3,0-0.5-0.1-0.7
	c-0.1-0.2-0.2-0.3-0.3-0.4c-0.1-0.1-0.3-0.2-0.5-0.2c-0.2,0-0.4,0.1-0.5,0.2c-0.1,0.1-0.2,0.3-0.3,0.4
	C79.3,80.3,79.3,80.6,79.3,80.8z M84.4,83.1c-0.3,0-0.5,0-0.7-0.1c-0.2-0.1-0.4-0.2-0.5-0.4c-0.1-0.2-0.2-0.4-0.2-0.7
	c0-0.2,0-0.4,0.1-0.6c0.1-0.2,0.2-0.3,0.4-0.4c0.2-0.1,0.3-0.2,0.5-0.2c0.2-0.1,0.4-0.1,0.6-0.1c0.3,0,0.5-0.1,0.6-0.1
	c0.2,0,0.3-0.1,0.3-0.1c0.1,0,0.1-0.1,0.1-0.2v0c0-0.2-0.1-0.3-0.2-0.4c-0.1-0.1-0.3-0.1-0.5-0.1c-0.2,0-0.4,0-0.5,0.1
	c-0.1,0.1-0.2,0.2-0.3,0.4l-1.1-0.1c0.1-0.3,0.2-0.5,0.3-0.7c0.2-0.2,0.4-0.3,0.6-0.4c0.3-0.1,0.6-0.2,0.9-0.2c0.2,0,0.5,0,0.7,0.1
	c0.2,0.1,0.4,0.1,0.6,0.3c0.2,0.1,0.3,0.3,0.4,0.5c0.1,0.2,0.2,0.4,0.2,0.7V83h-1.1v-0.6h0c-0.1,0.1-0.2,0.3-0.3,0.4
	c-0.1,0.1-0.3,0.2-0.4,0.2C84.8,83.1,84.6,83.1,84.4,83.1z M84.7,82.2c0.2,0,0.3,0,0.5-0.1c0.1-0.1,0.2-0.2,0.3-0.3
	c0.1-0.1,0.1-0.3,0.1-0.4V81c0,0-0.1,0-0.2,0.1c-0.1,0-0.1,0-0.2,0.1c-0.1,0-0.2,0-0.2,0c-0.1,0-0.2,0-0.2,0c-0.1,0-0.3,0.1-0.4,0.1
	c-0.1,0-0.2,0.1-0.2,0.2c-0.1,0.1-0.1,0.2-0.1,0.3c0,0.2,0.1,0.3,0.2,0.4C84.4,82.2,84.5,82.2,84.7,82.2z M89,80.5V83h-1.2v-4.4h1.2
	v0.8H89c0.1-0.3,0.3-0.5,0.5-0.6c0.2-0.1,0.5-0.2,0.8-0.2c0.3,0,0.6,0.1,0.8,0.2c0.2,0.1,0.4,0.3,0.5,0.6c0.1,0.2,0.2,0.5,0.2,0.9
	V83h-1.2v-2.6c0-0.3-0.1-0.5-0.2-0.6c-0.1-0.2-0.3-0.2-0.6-0.2c-0.2,0-0.3,0-0.4,0.1c-0.1,0.1-0.2,0.2-0.3,0.3
	C89,80.1,89,80.3,89,80.5z M93.3,84.6c-0.2,0-0.3,0-0.4,0c-0.1,0-0.2-0.1-0.3-0.1l0.3-0.9c0.1,0,0.3,0.1,0.4,0.1
	c0.1,0,0.2,0,0.3-0.1c0.1-0.1,0.2-0.2,0.2-0.3l0.1-0.2l-1.6-4.5h1.3l0.9,3.2h0l0.9-3.2h1.3L95,83.5c-0.1,0.2-0.2,0.4-0.3,0.6
	c-0.1,0.2-0.3,0.3-0.5,0.4C93.9,84.6,93.6,84.6,93.3,84.6z"/>
<linearGradient id="SVGID_1_" gradientUnits="userSpaceOnUse" x1="29.4465" y1="104.5282" x2="29.4465" y2="113.9355" gradientTransform="matrix(1 0 0 -1 0 114)">
	<stop  offset="0" style="stop-color:#797979"/>
	<stop  offset="1" style="stop-color:#D7D7D7"/>
</linearGradient>
<path class="st2" d="M27.6,2.8c-2.9,2.6-3.4,6.7-3.4,6.7s4.1-0.1,7-2.7c2.9-2.6,3.4-6.7,3.4-6.7S30.5,0.2,27.6,2.8z"/>
<linearGradient id="SVGID_00000098216160764524432820000017234337042409643966_" gradientUnits="userSpaceOnUse" x1="45.7794" y1="8.5541" x2="45.7794" y2="20.3965" gradientTransform="matrix(1 0 0 -1 0 114)">
	<stop  offset="0" style="stop-color:#797979"/>
	<stop  offset="1" style="stop-color:#D7D7D7"/>
</linearGradient>
<path style="fill:url(#SVGID_00000098216160764524432820000017234337042409643966_);" d="M47.7,98.6c2.5,3.2,2.6,6.9,2.6,6.9
	c0,0-5.1-1.4-7.5-4.9c-2.3-3.4-1.2-7-1.2-7C41.6,93.6,45.2,95.5,47.7,98.6z"/>
<linearGradient id="SVGID_00000027564520355205944060000009230818475744936104_" gradientUnits="userSpaceOnUse" x1="42.3878" y1="4.3934" x2="42.3878" y2="9.7049" gradientTransform="matrix(1 0 0 -1 0 114)">
	<stop  offset="0" style="stop-color:#797979"/>
	<stop  offset="1" style="stop-color:#D7D7D7"/>
</linearGradient>
<path style="fill:url(#SVGID_00000027564520355205944060000009230818475744936104_);" d="M44.1,109.5c4.5-0.8,6.2-4.2,6.2-4.2
	c-0.1,0-4.9-1.4-9.1-0.9c-4.2,0.5-6.7,3.1-6.7,3.2C34.4,107.6,39.5,110.2,44.1,109.5z"/>
<linearGradient id="SVGID_00000148630427799208195710000011356552486728683169_" gradientUnits="userSpaceOnUse" x1="36.5022" y1="12.3024" x2="36.5022" y2="25.2017" gradientTransform="matrix(1 0 0 -1 0 114)">
	<stop  offset="0" style="stop-color:#797979"/>
	<stop  offset="1" style="stop-color:#D7D7D7"/>
</linearGradient>
<path style="fill:url(#SVGID_00000148630427799208195710000011356552486728683169_);" d="M38.7,94.6c1.7,3.5,1.1,7.1,1,7.1
	c0,0-4.5-2.2-6.1-5.9c-1.5-3.7,0.2-7,0.2-7C33.9,88.8,37,91.2,38.7,94.6z"/>
<linearGradient id="SVGID_00000183235739045381090220000017206164387419394973_" gradientUnits="userSpaceOnUse" x1="32.1744" y1="9.452" x2="32.1744" y2="14.8272" gradientTransform="matrix(1 0 0 -1 0 114)">
	<stop  offset="0" style="stop-color:#797979"/>
	<stop  offset="1" style="stop-color:#D7D7D7"/>
</linearGradient>
<path style="fill:url(#SVGID_00000183235739045381090220000017206164387419394973_);" d="M33.2,104.5c4.4,0,6.6-3,6.6-3
	c-0.1,0-4.3-2.1-8.4-2.4c-4.1-0.2-7,1.9-7,1.9C24.5,101.1,28.8,104.5,33.2,104.5z"/>
<linearGradient id="SVGID_00000083771059683661766590000015313227854283597980_" gradientUnits="userSpaceOnUse" x1="28.607" y1="17.6729" x2="28.607" y2="31.1704" gradientTransform="matrix(1 0 0 -1 0 114)">
	<stop  offset="0" style="stop-color:#797979"/>
	<stop  offset="1" style="stop-color:#D7D7D7"/>
</linearGradient>
<path style="fill:url(#SVGID_00000083771059683661766590000015313227854283597980_);" d="M31,89.3c1,3.6-0.3,7-0.3,7
	c0,0-3.9-2.9-4.7-6.8c-0.8-3.9,1.5-6.7,1.5-6.7C27.5,82.9,30,85.7,31,89.3z"/>
<linearGradient id="SVGID_00000067940789092578343640000006466736212795830679_" gradientUnits="userSpaceOnUse" x1="23.4396" y1="15.888" x2="23.4396" y2="21.792" gradientTransform="matrix(1 0 0 -1 0 114)">
	<stop  offset="0" style="stop-color:#797979"/>
	<stop  offset="1" style="stop-color:#D7D7D7"/>
</linearGradient>
<path style="fill:url(#SVGID_00000067940789092578343640000006466736212795830679_);" d="M23.9,98c4.2,0.8,6.9-1.8,6.9-1.8
	c0,0-3.7-2.8-7.5-3.7c-3.9-0.9-7.1,0.6-7.1,0.7C16.1,93.2,19.6,97.2,23.9,98z"/>
<linearGradient id="SVGID_00000048475883686142951500000014871272689895482795_" gradientUnits="userSpaceOnUse" x1="22.1283" y1="24.4216" x2="22.1283" y2="38.0898" gradientTransform="matrix(1 0 0 -1 0 114)">
	<stop  offset="0" style="stop-color:#797979"/>
	<stop  offset="1" style="stop-color:#D7D7D7"/>
</linearGradient>
<path style="fill:url(#SVGID_00000048475883686142951500000014871272689895482795_);" d="M24.6,82.8c0.3,3.7-1.6,6.7-1.6,6.7
	c0,0-3.2-3.5-3.3-7.4c-0.1-3.9,2.6-6.3,2.6-6.3C22.3,76,24.3,79.2,24.6,82.8z"/>
<linearGradient id="SVGID_00000174577464412447436710000008881580852146949526_" gradientUnits="userSpaceOnUse" x1="16.2374" y1="23.4713" x2="16.2374" y2="30.3345" gradientTransform="matrix(1 0 0 -1 0 114)">
	<stop  offset="0" style="stop-color:#797979"/>
	<stop  offset="1" style="stop-color:#D7D7D7"/>
</linearGradient>
<path style="fill:url(#SVGID_00000174577464412447436710000008881580852146949526_);" d="M16.1,90c3.9,1.5,7-0.5,7-0.5
	c0,0-3-3.4-6.6-4.9c-3.6-1.6-7-0.6-7-0.6C9.4,84,12.1,88.5,16.1,90z"/>
<linearGradient id="SVGID_00000183213346281182548980000007997026570601226372_" gradientUnits="userSpaceOnUse" x1="17.0966" y1="32.3236" x2="17.0966" y2="45.7568" gradientTransform="matrix(1 0 0 -1 0 114)">
	<stop  offset="0" style="stop-color:#797979"/>
	<stop  offset="1" style="stop-color:#D7D7D7"/>
</linearGradient>
<path style="fill:url(#SVGID_00000183213346281182548980000007997026570601226372_);" d="M19.4,75.4c-0.4,3.6-2.7,6.3-2.8,6.3
	c0,0-2.5-3.9-1.9-7.8c0.6-3.8,3.6-5.6,3.6-5.7C18.4,68.3,19.8,71.8,19.4,75.4z"/>
<linearGradient id="SVGID_00000174594195124836993570000010744872119485779854_" gradientUnits="userSpaceOnUse" x1="10.6417" y1="31.9515" x2="10.6417" y2="40.1934" gradientTransform="matrix(1 0 0 -1 0 114)">
	<stop  offset="0" style="stop-color:#797979"/>
	<stop  offset="1" style="stop-color:#D7D7D7"/>
</linearGradient>
<path style="fill:url(#SVGID_00000174594195124836993570000010744872119485779854_);" d="M9.9,80.9c3.6,2.1,6.9,0.7,6.9,0.7
	c0,0-2.3-3.8-5.6-6c-3.3-2.2-6.7-1.8-6.7-1.8C4.4,73.8,6.3,78.8,9.9,80.9z"/>
<linearGradient id="SVGID_00000130626899235653056040000015267818519808172221_" gradientUnits="userSpaceOnUse" x1="13.5701" y1="41.1116" x2="13.5701" y2="53.9575" gradientTransform="matrix(1 0 0 -1 0 114)">
	<stop  offset="0" style="stop-color:#797979"/>
	<stop  offset="1" style="stop-color:#D7D7D7"/>
</linearGradient>
<path style="fill:url(#SVGID_00000130626899235653056040000015267818519808172221_);" d="M15.7,67.2c-1,3.5-3.7,5.7-3.8,5.6
	c0,0-1.8-4.3-0.6-7.9c1.2-3.6,4.5-4.9,4.5-4.9C15.9,60.1,16.7,63.8,15.7,67.2z"/>
<linearGradient id="SVGID_00000131354718227443438210000018392438641680032395_" gradientUnits="userSpaceOnUse" x1="6.6912" y1="41.0702" x2="6.6912" y2="50.9472" gradientTransform="matrix(1 0 0 -1 0 114)">
	<stop  offset="0" style="stop-color:#797979"/>
	<stop  offset="1" style="stop-color:#D7D7D7"/>
</linearGradient>
<path style="fill:url(#SVGID_00000131354718227443438210000018392438641680032395_);" d="M5.5,70.9c3.1,2.7,6.6,1.9,6.6,1.9
	c0,0-1.7-4.1-4.5-6.8c-2.8-2.7-6.3-3-6.3-3C1.3,63,2.3,68.2,5.5,70.9z"/>
<linearGradient id="SVGID_00000096040748535474524690000006274221692654270120_" gradientUnits="userSpaceOnUse" x1="11.6395" y1="50.5509" x2="11.6395" y2="62.4785" gradientTransform="matrix(1 0 0 -1 0 114)">
	<stop  offset="0" style="stop-color:#797979"/>
	<stop  offset="1" style="stop-color:#D7D7D7"/>
</linearGradient>
<path style="fill:url(#SVGID_00000096040748535474524690000006274221692654270120_);" d="M13.4,58.6c-1.5,3.3-4.6,4.9-4.6,4.9
	c0,0-1-4.5,0.8-7.9c1.8-3.3,5.2-4,5.2-4C14.8,51.6,14.9,55.3,13.4,58.6z"/>
<linearGradient id="SVGID_00000080913864204140805660000002464720663610064269_" gradientUnits="userSpaceOnUse" x1="4.459" y1="50.583" x2="4.459" y2="62.1367" gradientTransform="matrix(1 0 0 -1 0 114)">
	<stop  offset="0" style="stop-color:#797979"/>
	<stop  offset="1" style="stop-color:#D7D7D7"/>
</linearGradient>
<path style="fill:url(#SVGID_00000080913864204140805660000002464720663610064269_);" d="M2.8,60.4c2.6,3.2,6.2,3,6.2,3.1
	c0,0-0.9-4.3-3.2-7.5C3.3,52.7,0,51.9,0,51.9C0,51.8,0.1,57.1,2.8,60.4z"/>
<linearGradient id="SVGID_00000074414294163182193270000017235793107841141671_" gradientUnits="userSpaceOnUse" x1="11.2089" y1="60.3962" x2="11.2089" y2="71.1172" gradientTransform="matrix(1 0 0 -1 0 114)">
	<stop  offset="0" style="stop-color:#797979"/>
	<stop  offset="1" style="stop-color:#D7D7D7"/>
</linearGradient>
<path style="fill:url(#SVGID_00000074414294163182193270000017235793107841141671_);" d="M12.6,49.6c-2.1,2.9-5.3,4-5.3,4
	c0,0-0.3-4.6,2.1-7.7c2.3-3,5.8-3,5.8-3.1C15.1,42.9,14.7,46.7,12.6,49.6z"/>
<linearGradient id="SVGID_00000037682586924546859470000004958746171655658146_" gradientUnits="userSpaceOnUse" x1="3.945" y1="60.3963" x2="3.945" y2="73.4131" gradientTransform="matrix(1 0 0 -1 0 114)">
	<stop  offset="0" style="stop-color:#797979"/>
	<stop  offset="1" style="stop-color:#D7D7D7"/>
</linearGradient>
<path style="fill:url(#SVGID_00000037682586924546859470000004958746171655658146_);" d="M1.9,49.5c2,3.6,5.5,4.1,5.5,4.1
	c0,0-0.2-4.4-1.9-8c-1.7-3.6-4.8-5.1-4.8-5C0.6,40.5-0.2,45.8,1.9,49.5z"/>
<linearGradient id="SVGID_00000181794828160671509350000001563685143884213689_" gradientUnits="userSpaceOnUse" x1="12.2537" y1="70.3904" x2="12.2537" y2="79.688" gradientTransform="matrix(1 0 0 -1 0 114)">
	<stop  offset="0" style="stop-color:#797979"/>
	<stop  offset="1" style="stop-color:#D7D7D7"/>
</linearGradient>
<path style="fill:url(#SVGID_00000181794828160671509350000001563685143884213689_);" d="M13.4,40.6c-2.5,2.5-5.9,3-5.9,3
	c0,0,0.5-4.7,3.4-7.2c2.8-2.6,6.2-2,6.2-2C17,34.4,15.9,38.1,13.4,40.6z"/>
<linearGradient id="SVGID_00000026127974882067003650000002184947334633932477_" gradientUnits="userSpaceOnUse" x1="5.0502" y1="70.3804" x2="5.0502" y2="84.5396" gradientTransform="matrix(1 0 0 -1 0 114)">
	<stop  offset="0" style="stop-color:#797979"/>
	<stop  offset="1" style="stop-color:#D7D7D7"/>
</linearGradient>
<path style="fill:url(#SVGID_00000026127974882067003650000002184947334633932477_);" d="M2.9,38.5c1.4,4,4.7,5.1,4.7,5.1
	c0,0,0.6-4.4-0.5-8.3c-1.1-3.9-3.8-5.9-3.8-5.9C3.2,29.4,1.5,34.5,2.9,38.5z"/>
<linearGradient id="SVGID_00000071521549692830665110000004609281304676098458_" gradientUnits="userSpaceOnUse" x1="14.9665" y1="80.2791" x2="14.9665" y2="88.1514" gradientTransform="matrix(1 0 0 -1 0 114)">
	<stop  offset="0" style="stop-color:#797979"/>
	<stop  offset="1" style="stop-color:#D7D7D7"/>
</linearGradient>
<path style="fill:url(#SVGID_00000071521549692830665110000004609281304676098458_);" d="M15.7,31.8c-2.9,2.1-6.3,1.9-6.3,1.9
	c0,0,1.4-4.5,4.7-6.6c3.2-2.1,6.5-0.9,6.5-0.9C20.5,26.2,18.6,29.7,15.7,31.8z"/>
<linearGradient id="SVGID_00000093148793532812327930000011323801972593244043_" gradientUnits="userSpaceOnUse" x1="8.1987" y1="80.2467" x2="8.1987" y2="95.1856" gradientTransform="matrix(1 0 0 -1 0 114)">
	<stop  offset="0" style="stop-color:#797979"/>
	<stop  offset="1" style="stop-color:#D7D7D7"/>
</linearGradient>
<path style="fill:url(#SVGID_00000093148793532812327930000011323801972593244043_);" d="M5.9,27.8c0.6,4.2,3.7,5.9,3.7,5.9
	c0,0,1.4-4.3,1.1-8.4C10.3,21.3,8,18.8,8,18.8C7.9,18.8,5.3,23.6,5.9,27.8z"/>
<linearGradient id="SVGID_00000152967697254902196130000014620106580568550790_" gradientUnits="userSpaceOnUse" x1="19.3872" y1="89.6538" x2="19.3872" y2="96.3364" gradientTransform="matrix(1 0 0 -1 0 114)">
	<stop  offset="0" style="stop-color:#797979"/>
	<stop  offset="1" style="stop-color:#D7D7D7"/>
</linearGradient>
<path style="fill:url(#SVGID_00000152967697254902196130000014620106580568550790_);" d="M19.7,23.3c-3.3,1.6-6.6,0.8-6.6,0.8
	c-0.1,0,2.2-4.3,5.9-5.9c3.6-1.5,6.6,0.2,6.6,0.2C25.6,18.5,23,21.8,19.7,23.3z"/>
<linearGradient id="SVGID_00000060732233556537230760000010103785496813773721_" gradientUnits="userSpaceOnUse" x1="13.4397" y1="89.782" x2="13.4397" y2="105.0947" gradientTransform="matrix(1 0 0 -1 0 114)">
	<stop  offset="0" style="stop-color:#797979"/>
	<stop  offset="1" style="stop-color:#D7D7D7"/>
</linearGradient>
<path style="fill:url(#SVGID_00000060732233556537230760000010103785496813773721_);" d="M10.8,17.6c-0.3,4.3,2.4,6.6,2.4,6.6
	c0,0,2.2-4.1,2.7-8.2c0.5-4.1-1.2-7.1-1.2-7.1C14.7,8.9,11.1,13.3,10.8,17.6z"/>
<linearGradient id="SVGID_00000008839698413745866060000001172961313387367069_" gradientUnits="userSpaceOnUse" x1="25.5913" y1="98.1106" x2="25.5913" y2="103.9561" gradientTransform="matrix(1 0 0 -1 0 114)">
	<stop  offset="0" style="stop-color:#797979"/>
	<stop  offset="1" style="stop-color:#D7D7D7"/>
</linearGradient>
<path style="fill:url(#SVGID_00000008839698413745866060000001172961313387367069_);" d="M25.5,15.5c-3.6,1-6.7-0.3-6.7-0.3
	c-0.1,0,3.1-4,7.1-4.9c4-0.9,6.6,1.3,6.5,1.3C32.4,11.6,29,14.5,25.5,15.5z"/>
<linearGradient id="SVGID_00000174581898433007444830000003218244397319281851_" gradientUnits="userSpaceOnUse" x1="20.8341" y1="98.7408" x2="20.8341" y2="114" gradientTransform="matrix(1 0 0 -1 0 114)">
	<stop  offset="0" style="stop-color:#797979"/>
	<stop  offset="1" style="stop-color:#D7D7D7"/>
</linearGradient>
<path style="fill:url(#SVGID_00000174581898433007444830000003218244397319281851_);" d="M17.9,8.2c-1.2,4.3,1,7.1,1,7.1
	c0,0,3-3.8,4.5-7.8C24.8,3.3,23.8,0,23.8,0C23.7,0,19.1,3.8,17.9,8.2z"/>
<linearGradient id="SVGID_00000162341877981682682360000004723273273490399142_" gradientUnits="userSpaceOnUse" x1="35.9706" y1="7.2178" x2="35.9706" y2="107.294" gradientTransform="matrix(1 0 0 -1 0 114)">
	<stop  offset="0" style="stop-color:#797979"/>
	<stop  offset="1" style="stop-color:#D7D7D7"/>
</linearGradient>
<path style="fill:url(#SVGID_00000162341877981682682360000004723273273490399142_);" d="M64.8,106.6l-0.1-0.8
	c-6.6,0.6-13.2-0.1-19.5-2.2c-6.2-2-12-5.1-17.1-9.4C17.4,85.5,10.6,73,8.7,59.1C7.2,47.7,8,37.6,11,28.9c3.2-9.3,8.9-16.5,17-21.5
	l-0.4-0.7c-8.2,5.1-14.1,12.5-17.4,22c-3,8.7-3.8,19-2.3,30.5C9.8,73.3,16.7,86,27.5,94.9c5.2,4.3,11,7.5,17.3,9.5
	C51.4,106.4,58.1,107.2,64.8,106.6z"/>
<linearGradient id="SVGID_00000110451674847676483480000011679322660682862251_" gradientUnits="userSpaceOnUse" x1="97.914" y1="104.5282" x2="97.914" y2="113.9355" gradientTransform="matrix(1 0 0 -1 0 114)">
	<stop  offset="0" style="stop-color:#797979"/>
	<stop  offset="1" style="stop-color:#D7D7D7"/>
</linearGradient>
<path style="fill:url(#SVGID_00000110451674847676483480000011679322660682862251_);" d="M99.7,2.8c2.9,2.6,3.4,6.7,3.4,6.7
	s-4.1-0.1-7-2.7c-2.9-2.6-3.4-6.7-3.4-6.7S96.9,0.2,99.7,2.8z"/>
<linearGradient id="SVGID_00000169552901394661508440000009635221563858164889_" gradientUnits="userSpaceOnUse" x1="81.5697" y1="8.5541" x2="81.5697" y2="20.3965" gradientTransform="matrix(1 0 0 -1 0 114)">
	<stop  offset="0" style="stop-color:#797979"/>
	<stop  offset="1" style="stop-color:#D7D7D7"/>
</linearGradient>
<path style="fill:url(#SVGID_00000169552901394661508440000009635221563858164889_);" d="M79.7,98.6c-2.5,3.2-2.6,6.9-2.6,6.9
	c0,0,5.1-1.4,7.5-4.9c2.3-3.4,1.2-7,1.2-7C85.8,93.6,82.1,95.5,79.7,98.6z"/>
<linearGradient id="SVGID_00000141429146983887428870000003596247751281590962_" gradientUnits="userSpaceOnUse" x1="84.9722" y1="4.3934" x2="84.9722" y2="9.7049" gradientTransform="matrix(1 0 0 -1 0 114)">
	<stop  offset="0" style="stop-color:#797979"/>
	<stop  offset="1" style="stop-color:#D7D7D7"/>
</linearGradient>
<path style="fill:url(#SVGID_00000141429146983887428870000003596247751281590962_);" d="M83.3,109.5c-4.5-0.8-6.2-4.2-6.2-4.2
	c0.1,0,4.9-1.4,9.1-0.9c4.2,0.5,6.7,3.1,6.7,3.2C92.9,107.6,87.9,110.2,83.3,109.5z"/>
<linearGradient id="SVGID_00000119097785007762272960000003558487139083770769_" gradientUnits="userSpaceOnUse" x1="90.847" y1="12.3024" x2="90.847" y2="25.2017" gradientTransform="matrix(1 0 0 -1 0 114)">
	<stop  offset="0" style="stop-color:#797979"/>
	<stop  offset="1" style="stop-color:#D7D7D7"/>
</linearGradient>
<path style="fill:url(#SVGID_00000119097785007762272960000003558487139083770769_);" d="M88.6,94.6c-1.7,3.4-1.1,7.1-1,7.1
	c0,0,4.5-2.2,6.1-5.9c1.5-3.7-0.2-7-0.2-7C93.4,88.8,90.3,91.2,88.6,94.6z"/>
<linearGradient id="SVGID_00000018207627940873372980000017213933226851486898_" gradientUnits="userSpaceOnUse" x1="95.1854" y1="9.452" x2="95.1854" y2="14.8272" gradientTransform="matrix(1 0 0 -1 0 114)">
	<stop  offset="0" style="stop-color:#797979"/>
	<stop  offset="1" style="stop-color:#D7D7D7"/>
</linearGradient>
<path style="fill:url(#SVGID_00000018207627940873372980000017213933226851486898_);" d="M94.1,104.5c-4.4,0-6.6-3-6.6-3
	c0.1,0,4.3-2.1,8.4-2.4c4.1-0.2,7,1.9,7,1.9C102.9,101.1,98.6,104.5,94.1,104.5z"/>
<linearGradient id="SVGID_00000169553475302964688290000001038526046296531106_" gradientUnits="userSpaceOnUse" x1="98.7531" y1="17.6729" x2="98.7531" y2="31.1704" gradientTransform="matrix(1 0 0 -1 0 114)">
	<stop  offset="0" style="stop-color:#797979"/>
	<stop  offset="1" style="stop-color:#D7D7D7"/>
</linearGradient>
<path style="fill:url(#SVGID_00000169553475302964688290000001038526046296531106_);" d="M96.3,89.3c-1,3.6,0.3,7,0.3,7
	c0,0,3.9-2.9,4.7-6.8c0.8-3.9-1.5-6.7-1.5-6.7C99.9,82.9,97.3,85.7,96.3,89.3z"/>
<linearGradient id="SVGID_00000098928363571977929100000018058426147893986438_" gradientUnits="userSpaceOnUse" x1="103.9203" y1="15.888" x2="103.9203" y2="21.792" gradientTransform="matrix(1 0 0 -1 0 114)">
	<stop  offset="0" style="stop-color:#797979"/>
	<stop  offset="1" style="stop-color:#D7D7D7"/>
</linearGradient>
<path style="fill:url(#SVGID_00000098928363571977929100000018058426147893986438_);" d="M103.5,98c-4.2,0.8-6.9-1.8-6.9-1.8
	c0,0,3.7-2.8,7.5-3.7c3.9-0.9,7.1,0.6,7.1,0.7C111.3,93.2,107.8,97.2,103.5,98z"/>
<linearGradient id="SVGID_00000106127309898843622230000001669917573941660833_" gradientUnits="userSpaceOnUse" x1="105.2317" y1="24.4216" x2="105.2317" y2="38.0898" gradientTransform="matrix(1 0 0 -1 0 114)">
	<stop  offset="0" style="stop-color:#797979"/>
	<stop  offset="1" style="stop-color:#D7D7D7"/>
</linearGradient>
<path style="fill:url(#SVGID_00000106127309898843622230000001669917573941660833_);" d="M102.8,82.8c-0.3,3.7,1.6,6.7,1.6,6.7
	c0,0,3.2-3.5,3.3-7.4c0.1-3.9-2.6-6.3-2.6-6.3C105.1,76,103.1,79.2,102.8,82.8z"/>
<linearGradient id="SVGID_00000030455952515505143210000009528363444646974863_" gradientUnits="userSpaceOnUse" x1="111.1227" y1="23.4713" x2="111.1227" y2="30.3345" gradientTransform="matrix(1 0 0 -1 0 114)">
	<stop  offset="0" style="stop-color:#797979"/>
	<stop  offset="1" style="stop-color:#D7D7D7"/>
</linearGradient>
<path style="fill:url(#SVGID_00000030455952515505143210000009528363444646974863_);" d="M111.3,90c-3.9,1.5-7-0.5-7-0.5
	c0,0,3-3.4,6.6-4.9c3.6-1.6,7-0.6,7-0.6C118,84,115.2,88.5,111.3,90z"/>
<linearGradient id="SVGID_00000172434248963291526800000012949407672577158068_" gradientUnits="userSpaceOnUse" x1="110.2622" y1="32.3236" x2="110.2622" y2="45.7568" gradientTransform="matrix(1 0 0 -1 0 114)">
	<stop  offset="0" style="stop-color:#797979"/>
	<stop  offset="1" style="stop-color:#D7D7D7"/>
</linearGradient>
<path style="fill:url(#SVGID_00000172434248963291526800000012949407672577158068_);" d="M107.9,75.4c0.4,3.6,2.7,6.3,2.8,6.3
	c0,0,2.5-3.9,1.9-7.8c-0.6-3.8-3.6-5.6-3.6-5.7C109,68.3,107.5,71.8,107.9,75.4z"/>
<linearGradient id="SVGID_00000038394797892209248490000000562779248613737884_" gradientUnits="userSpaceOnUse" x1="116.7178" y1="31.9515" x2="116.7178" y2="40.1934" gradientTransform="matrix(1 0 0 -1 0 114)">
	<stop  offset="0" style="stop-color:#797979"/>
	<stop  offset="1" style="stop-color:#D7D7D7"/>
</linearGradient>
<path style="fill:url(#SVGID_00000038394797892209248490000000562779248613737884_);" d="M117.4,80.9c-3.6,2.1-6.9,0.7-6.9,0.7
	c0,0,2.3-3.8,5.6-6c3.3-2.2,6.7-1.8,6.7-1.8C122.9,73.8,121,78.8,117.4,80.9z"/>
<linearGradient id="SVGID_00000041268789930522994610000005818622034215077504_" gradientUnits="userSpaceOnUse" x1="113.7831" y1="41.1116" x2="113.7831" y2="53.9575" gradientTransform="matrix(1 0 0 -1 0 114)">
	<stop  offset="0" style="stop-color:#797979"/>
	<stop  offset="1" style="stop-color:#D7D7D7"/>
</linearGradient>
<path style="fill:url(#SVGID_00000041268789930522994610000005818622034215077504_);" d="M111.6,67.2c1,3.5,3.7,5.7,3.8,5.6
	c0,0,1.8-4.3,0.6-7.9c-1.2-3.6-4.5-4.9-4.5-4.9C111.5,60.1,110.7,63.8,111.6,67.2z"/>
<linearGradient id="SVGID_00000024002225549082424360000009155015995498221714_" gradientUnits="userSpaceOnUse" x1="120.6693" y1="41.0702" x2="120.6693" y2="50.9472" gradientTransform="matrix(1 0 0 -1 0 114)">
	<stop  offset="0" style="stop-color:#797979"/>
	<stop  offset="1" style="stop-color:#D7D7D7"/>
</linearGradient>
<path style="fill:url(#SVGID_00000024002225549082424360000009155015995498221714_);" d="M121.9,70.9c-3.1,2.7-6.6,1.9-6.6,1.9
	c0,0,1.7-4.1,4.5-6.8c2.8-2.7,6.3-3,6.3-3C126.1,63,125.1,68.2,121.9,70.9z"/>
<linearGradient id="SVGID_00000163033750401193403730000003556412014707359387_" gradientUnits="userSpaceOnUse" x1="115.7205" y1="50.5509" x2="115.7205" y2="62.4785" gradientTransform="matrix(1 0 0 -1 0 114)">
	<stop  offset="0" style="stop-color:#797979"/>
	<stop  offset="1" style="stop-color:#D7D7D7"/>
</linearGradient>
<path style="fill:url(#SVGID_00000163033750401193403730000003556412014707359387_);" d="M113.9,58.6c1.5,3.3,4.6,4.9,4.6,4.9
	c0,0,1-4.5-0.8-7.9c-1.8-3.3-5.2-4-5.2-4C112.6,51.6,112.4,55.3,113.9,58.6z"/>
<linearGradient id="SVGID_00000173142346479129602680000016586997124261745057_" gradientUnits="userSpaceOnUse" x1="122.8917" y1="50.583" x2="122.8917" y2="62.1367" gradientTransform="matrix(1 0 0 -1 0 114)">
	<stop  offset="0" style="stop-color:#797979"/>
	<stop  offset="1" style="stop-color:#D7D7D7"/>
</linearGradient>
<path style="fill:url(#SVGID_00000173142346479129602680000016586997124261745057_);" d="M124.6,60.4c-2.6,3.2-6.2,3-6.2,3.1
	c0,0,0.9-4.3,3.2-7.5c2.3-3.2,5.6-4.1,5.7-4.1C127.4,51.8,127.2,57.1,124.6,60.4z"/>
<linearGradient id="SVGID_00000136410429346450411140000017043073192029525669_" gradientUnits="userSpaceOnUse" x1="116.151" y1="60.3962" x2="116.151" y2="71.1172" gradientTransform="matrix(1 0 0 -1 0 114)">
	<stop  offset="0" style="stop-color:#797979"/>
	<stop  offset="1" style="stop-color:#D7D7D7"/>
</linearGradient>
<path style="fill:url(#SVGID_00000136410429346450411140000017043073192029525669_);" d="M114.7,49.6c2.1,2.9,5.3,4,5.3,4
	c0,0,0.3-4.6-2.1-7.7c-2.3-3-5.8-3-5.8-3.1C112.2,42.9,112.7,46.7,114.7,49.6z"/>
<linearGradient id="SVGID_00000153697791180807240990000002034418018173974950_" gradientUnits="userSpaceOnUse" x1="123.4128" y1="60.3963" x2="123.4128" y2="73.4131" gradientTransform="matrix(1 0 0 -1 0 114)">
	<stop  offset="0" style="stop-color:#797979"/>
	<stop  offset="1" style="stop-color:#D7D7D7"/>
</linearGradient>
<path style="fill:url(#SVGID_00000153697791180807240990000002034418018173974950_);" d="M125.5,49.5c-2,3.6-5.5,4.1-5.5,4.1
	c0,0,0.2-4.4,1.9-8c1.7-3.6,4.8-5.1,4.8-5C126.7,40.5,127.5,45.8,125.5,49.5z"/>
<linearGradient id="SVGID_00000078755028083441459010000016805913075949779120_" gradientUnits="userSpaceOnUse" x1="115.0956" y1="70.3904" x2="115.0956" y2="79.688" gradientTransform="matrix(1 0 0 -1 0 114)">
	<stop  offset="0" style="stop-color:#797979"/>
	<stop  offset="1" style="stop-color:#D7D7D7"/>
</linearGradient>
<path style="fill:url(#SVGID_00000078755028083441459010000016805913075949779120_);" d="M114,40.6c2.5,2.5,5.9,3,5.9,3
	c0,0-0.5-4.7-3.4-7.2c-2.8-2.6-6.2-2-6.2-2C110.3,34.4,111.5,38.1,114,40.6z"/>
<linearGradient id="SVGID_00000086656240872815701130000000063778180654016950_" gradientUnits="userSpaceOnUse" x1="122.3024" y1="70.3804" x2="122.3024" y2="84.5396" gradientTransform="matrix(1 0 0 -1 0 114)">
	<stop  offset="0" style="stop-color:#797979"/>
	<stop  offset="1" style="stop-color:#D7D7D7"/>
</linearGradient>
<path style="fill:url(#SVGID_00000086656240872815701130000000063778180654016950_);" d="M124.4,38.5c-1.4,4-4.7,5.1-4.7,5.1
	c0,0-0.6-4.4,0.5-8.3c1.1-3.9,3.8-5.9,3.8-5.9C124.1,29.4,125.8,34.5,124.4,38.5z"/>
<linearGradient id="SVGID_00000116955685976075843010000000006323874263390655_" gradientUnits="userSpaceOnUse" x1="112.3934" y1="80.2791" x2="112.3934" y2="88.1514" gradientTransform="matrix(1 0 0 -1 0 114)">
	<stop  offset="0" style="stop-color:#797979"/>
	<stop  offset="1" style="stop-color:#D7D7D7"/>
</linearGradient>
<path style="fill:url(#SVGID_00000116955685976075843010000000006323874263390655_);" d="M111.6,31.8c2.9,2.1,6.3,1.9,6.3,1.9
	c0,0-1.4-4.5-4.7-6.6c-3.2-2.1-6.5-0.9-6.5-0.9C106.9,26.2,108.7,29.7,111.6,31.8z"/>
<linearGradient id="SVGID_00000160157777272990333070000008941201138882259604_" gradientUnits="userSpaceOnUse" x1="119.1518" y1="80.2467" x2="119.1518" y2="95.1856" gradientTransform="matrix(1 0 0 -1 0 114)">
	<stop  offset="0" style="stop-color:#797979"/>
	<stop  offset="1" style="stop-color:#D7D7D7"/>
</linearGradient>
<path style="fill:url(#SVGID_00000160157777272990333070000008941201138882259604_);" d="M121.5,27.8c-0.6,4.2-3.7,5.9-3.7,5.9
	c0,0-1.4-4.3-1.1-8.4c0.3-4.1,2.6-6.6,2.6-6.6C119.4,18.8,122.1,23.6,121.5,27.8z"/>
<linearGradient id="SVGID_00000021078493746179249180000000633053269725687192_" gradientUnits="userSpaceOnUse" x1="107.9624" y1="89.6538" x2="107.9624" y2="96.3364" gradientTransform="matrix(1 0 0 -1 0 114)">
	<stop  offset="0" style="stop-color:#797979"/>
	<stop  offset="1" style="stop-color:#D7D7D7"/>
</linearGradient>
<path style="fill:url(#SVGID_00000021078493746179249180000000633053269725687192_);" d="M107.6,23.3c3.3,1.6,6.6,0.8,6.6,0.8
	c0.1,0-2.2-4.3-5.9-5.9c-3.6-1.5-6.6,0.2-6.6,0.2C101.8,18.5,104.3,21.8,107.6,23.3z"/>
<linearGradient id="SVGID_00000014608669354021402680000014265704231755312262_" gradientUnits="userSpaceOnUse" x1="113.9096" y1="89.782" x2="113.9096" y2="105.0947" gradientTransform="matrix(1 0 0 -1 0 114)">
	<stop  offset="0" style="stop-color:#797979"/>
	<stop  offset="1" style="stop-color:#D7D7D7"/>
</linearGradient>
<path style="fill:url(#SVGID_00000014608669354021402680000014265704231755312262_);" d="M116.5,17.6c0.3,4.3-2.4,6.6-2.4,6.6
	c0,0-2.2-4.1-2.7-8.2c-0.5-4.1,1.2-7.1,1.2-7.1C112.6,8.9,116.3,13.3,116.5,17.6z"/>
<linearGradient id="SVGID_00000179614223579765615780000014481862173438969247_" gradientUnits="userSpaceOnUse" x1="101.7581" y1="98.1106" x2="101.7581" y2="103.9561" gradientTransform="matrix(1 0 0 -1 0 114)">
	<stop  offset="0" style="stop-color:#797979"/>
	<stop  offset="1" style="stop-color:#D7D7D7"/>
</linearGradient>
<path style="fill:url(#SVGID_00000179614223579765615780000014481862173438969247_);" d="M101.9,15.5c3.6,1,6.7-0.3,6.7-0.3
	c0.1,0-3.1-4-7.1-4.9c-4-0.9-6.6,1.3-6.5,1.3C95,11.6,98.3,14.5,101.9,15.5z"/>
<linearGradient id="SVGID_00000047048057328587736950000016375616085194215308_" gradientUnits="userSpaceOnUse" x1="106.5259" y1="98.7408" x2="106.5259" y2="114" gradientTransform="matrix(1 0 0 -1 0 114)">
	<stop  offset="0" style="stop-color:#797979"/>
	<stop  offset="1" style="stop-color:#D7D7D7"/>
</linearGradient>
<path style="fill:url(#SVGID_00000047048057328587736950000016375616085194215308_);" d="M109.5,8.2c1.2,4.3-1,7.1-1,7.1
	c0,0-3-3.8-4.5-7.8c-1.5-4.1-0.5-7.4-0.4-7.4C103.6,0,108.3,3.8,109.5,8.2z"/>
<linearGradient id="SVGID_00000145057801979718028260000003381269988018268062_" gradientUnits="userSpaceOnUse" x1="91.3787" y1="7.2176" x2="91.3787" y2="107.294" gradientTransform="matrix(1 0 0 -1 0 114)">
	<stop  offset="0" style="stop-color:#797979"/>
	<stop  offset="1" style="stop-color:#D7D7D7"/>
</linearGradient>
<path style="fill:url(#SVGID_00000145057801979718028260000003381269988018268062_);" d="M62.6,106.6l0.1-0.8
	c6.6,0.6,13.2-0.1,19.5-2.2c6.2-2,12-5.1,17.1-9.4c10.6-8.7,17.5-21.2,19.3-35.1c1.5-11.4,0.7-21.5-2.3-30.2
	c-3.2-9.3-8.9-16.5-17-21.5l0.4-0.7c8.2,5.1,14.1,12.5,17.4,22c3,8.7,3.8,19,2.3,30.5c-1.8,14.1-8.8,26.8-19.6,35.7
	c-5.2,4.3-11,7.5-17.3,9.5C76,106.4,69.3,107.2,62.6,106.6z"/>
<linearGradient id="SVGID_00000070106124471799857930000016674751615831510419_" gradientUnits="userSpaceOnUse" x1="63.9151" y1="2.607" x2="63.9151" y2="11.491" gradientTransform="matrix(1 0 0 -1 0 114)">
	<stop  offset="0" style="stop-color:#797979"/>
	<stop  offset="1" style="stop-color:#D7D7D7"/>
</linearGradient>
<path style="fill:url(#SVGID_00000070106124471799857930000016674751615831510419_);" d="M63.9,102.5l6,4.4l-6,4.4l-6-4.4
	L63.9,102.5z"/>
</svg>
