<svg width="60" height="45" viewBox="0 0 60 45" fill="none" xmlns="http://www.w3.org/2000/svg">
<path fill-rule="evenodd" clip-rule="evenodd" d="M12.3621 0.22021C11.2372 0.73622 10.7863 1.56772 10.7826 3.13298L10.78 4.21505L10.1647 4.52385C7.35858 5.93242 5.28188 8.39868 4.40174 11.3679C4.19841 12.0542 2.8107 20.1749 2.8107 20.6791C2.8107 21.3559 3.81365 21.7227 4.27388 21.2143C4.43221 21.0394 4.66719 19.9016 5.22398 16.6144C5.99618 12.0558 6.15955 11.3398 6.64884 10.3718C7.91443 7.86755 10.1496 6.08923 12.8612 5.42919C13.9418 5.1662 15.9826 5.17136 17.0499 5.43985C18.1524 5.71714 19.8345 6.54571 20.6244 7.20048L21.269 7.73477L21.3367 8.81894C21.4376 10.4324 21.9673 11.3238 23.1788 11.9186C23.8439 12.2453 23.8594 12.2469 26.2078 12.2469C28.3645 12.2469 28.5897 12.2277 28.8154 12.0236C29.151 11.7203 29.1514 11.016 28.816 10.7122C28.5965 10.5134 28.3177 10.4825 26.267 10.4304C23.7448 10.3662 23.5799 10.3235 23.2613 9.65197C23.1646 9.44828 23.0855 9.06541 23.0855 8.80125V8.32086H30H36.9145V8.80125C36.9145 9.37832 36.6252 10.0337 36.284 10.2294C36.1232 10.3215 35.2235 10.3924 33.733 10.4304C31.6823 10.4825 31.4035 10.5134 31.184 10.7122C30.8486 11.016 30.849 11.7203 31.1846 12.0236C31.4103 12.2277 31.6355 12.2469 33.7922 12.2469C36.1406 12.2469 36.1562 12.2453 36.8212 11.9186C38.0327 11.3238 38.5624 10.4324 38.6633 8.81894L38.731 7.73477L39.3756 7.20048C40.1857 6.52895 41.8776 5.69393 42.9501 5.43622C43.9475 5.19656 45.954 5.16796 46.9347 5.37938C50.1228 6.06661 52.7537 8.40712 53.7875 11.4756C54.0629 12.2932 58.2441 36.9566 58.2441 37.7637C58.2441 39.0263 57.6107 40.4949 56.6536 41.4521C54.9757 43.1301 52.3746 43.4893 50.2456 42.3371C49.5373 41.9538 48.5116 40.8819 48.1367 40.1331C47.9771 39.8143 47.6483 38.9469 47.4062 38.2057C47.1641 37.4644 46.8696 36.7568 46.7518 36.6333C46.3422 36.2037 45.571 36.4006 45.3461 36.992C45.2169 37.3321 46.2468 40.4458 46.7873 41.3486C48.6854 44.5193 52.7822 45.6674 56.1643 43.9762C58.3966 42.86 59.9919 40.2694 60 37.7471C60.0023 37.0147 55.8839 12.3364 55.5977 11.3679C54.7399 8.46525 52.6747 5.96993 50.0111 4.61773L49.22 4.2161V3.17048C49.22 1.61565 48.8184 0.815562 47.7775 0.296855C47.2046 0.0114848 47.0983 0 45.0209 0C42.6613 0 42.1926 0.0815679 41.5608 0.602384C40.8781 1.16527 40.6648 1.76602 40.6648 3.12689V4.30458L39.7412 4.84122C39.2331 5.13643 38.4971 5.64459 38.1056 5.9704L37.3936 6.56294H30H22.6064L21.8944 5.9704C21.5029 5.64459 20.7669 5.13643 20.2588 4.84122L19.3352 4.30458V3.12689C19.3352 1.76602 19.1219 1.16527 18.4392 0.602384C17.8064 0.0808647 17.3395 -0.000234019 14.9854 0.00257867C13.1476 0.00480538 12.762 0.0367991 12.3621 0.22021ZM17.3429 1.99232C17.53 2.17936 17.5773 2.38293 17.5773 3.00114C17.5773 3.76197 17.5723 3.77439 17.2937 3.70454C16.0744 3.39843 14.5019 3.35858 12.9774 3.59485L12.5379 3.66305V3.0193C12.5379 2.54548 12.602 2.29398 12.7809 2.06674L13.0237 1.75793H15.0662C16.9523 1.75793 17.1265 1.77586 17.3429 1.99232ZM47.2192 2.06674C47.398 2.29398 47.4621 2.54548 47.4621 3.0193V3.66305L47.0226 3.59485C45.4981 3.35858 43.9256 3.39843 42.7063 3.70454C42.4277 3.77439 42.4227 3.76197 42.4227 3.00114C42.4227 1.77152 42.4501 1.75793 44.9338 1.75793H46.9763L47.2192 2.06674ZM44.5908 7.95357C42.3313 8.98255 42.6857 12.2147 45.118 12.7612C46.6629 13.1083 48.1601 11.8747 48.1601 10.2546C48.1601 8.42118 46.2573 7.1945 44.5908 7.95357ZM14.0051 9.09412C13.1371 9.41184 12.4175 10.3243 12.2524 11.3166C12.1735 11.7905 12.1701 11.7931 11.4611 11.9396C10.8471 12.0664 10.665 12.1707 10.1377 12.698C9.65068 13.1851 9.49587 13.4368 9.37609 13.9358C9.00177 15.4961 10.0588 17.0928 11.6013 17.2974L12.1594 17.3715L12.2862 18.0034C12.7835 20.4801 15.8081 21.0973 17.2681 19.0199C17.4988 18.6918 17.6287 18.3398 17.6672 17.9391C17.7225 17.3644 17.7362 17.3449 18.0903 17.3437C18.2916 17.3431 18.72 17.218 19.0422 17.0656C20.1073 16.5622 20.6244 15.7533 20.6244 14.5908C20.6244 13.1567 19.6671 12.0752 18.2222 11.8772C17.7568 11.8134 17.6945 11.7703 17.6945 11.5121C17.6945 9.74783 15.7324 8.46185 14.0051 9.09412ZM46.1729 9.72721C46.4621 10.0163 46.477 10.5662 46.2022 10.8119C45.9414 11.0451 45.7266 11.0863 45.325 10.9803C45.0057 10.8959 44.7919 10.4725 44.8701 10.0788C44.9829 9.51016 45.7492 9.30343 46.1729 9.72721ZM15.6489 10.9525C15.9038 11.2073 15.9366 11.3415 15.9366 12.1297C15.9366 12.918 15.9694 13.0522 16.2243 13.3069C16.4714 13.5542 16.6204 13.5947 17.2848 13.5947C18.0946 13.5947 18.6667 13.7966 18.7937 14.1273C18.9501 14.535 18.8619 15.0162 18.5787 15.2993C18.325 15.5531 18.1887 15.587 17.4198 15.587C16.1677 15.587 16.0311 15.722 15.9431 17.0465C15.8842 17.9354 15.8387 18.1006 15.5999 18.2939C15.2254 18.5971 14.727 18.574 14.3331 18.2352C14.0336 17.9776 14.0019 17.8724 13.9624 17.0034C13.9065 15.7701 13.719 15.587 12.5131 15.587C11.763 15.587 11.6717 15.5592 11.3432 15.2307C11.0453 14.9328 10.9988 14.8128 11.0591 14.4982C11.0989 14.2913 11.2661 14.0034 11.431 13.8583C11.6828 13.6366 11.866 13.5947 12.5807 13.5947C13.7795 13.5947 13.8668 13.5084 13.9509 12.2402C14.0126 11.3116 14.0487 11.1911 14.3397 10.9406C14.7613 10.578 15.2792 10.5827 15.6489 10.9525ZM40.2546 12.2653C39.7242 12.544 39.1338 13.1365 38.9431 13.5816C38.7396 14.0565 38.7211 15.0404 38.9066 15.5279C39.2789 16.5068 40.1981 17.1273 41.2757 17.1272C42.0418 17.1272 42.3927 16.9982 42.944 16.5142C44.3741 15.2585 44.0189 12.9795 42.28 12.2531C41.7237 12.0207 40.7082 12.0268 40.2546 12.2653ZM48.9143 12.2389C48.3072 12.5031 47.7238 13.1818 47.5229 13.8574C46.7576 16.4316 49.9708 18.28 51.8214 16.3302C53.0213 15.066 52.5652 12.9269 50.9524 12.2531C50.4209 12.031 49.4079 12.024 48.9143 12.2389ZM41.8568 14.023C42.1238 14.2647 42.1346 14.8538 41.8772 15.1382C41.6355 15.4053 41.0464 15.4161 40.7619 15.1586C40.4948 14.917 40.4841 14.3278 40.7415 14.0434C40.9832 13.7763 41.5723 13.7655 41.8568 14.023ZM50.5611 14.0896C50.9627 14.6629 50.6513 15.354 49.9929 15.3508C49.5646 15.3487 49.4193 15.2659 49.2376 14.9208C49.0543 14.5726 49.0651 14.4946 49.3458 14.1379C49.6638 13.7334 50.2941 13.7083 50.5611 14.0896ZM24.1402 16.5245C23.8441 16.8207 23.8394 17.3542 24.1299 17.7128C24.3466 17.9806 24.4088 17.9895 26.0513 17.9895C27.556 17.9895 27.7767 17.9642 27.9954 17.7662C28.3173 17.4749 28.3235 16.8404 28.0077 16.5245C27.7949 16.3117 27.6171 16.2901 26.074 16.2901C24.5308 16.2901 24.3531 16.3117 24.1402 16.5245ZM31.9923 16.5245C31.6765 16.8404 31.6827 17.4749 32.0046 17.7662C32.2233 17.9642 32.444 17.9895 33.9487 17.9895C35.5912 17.9895 35.6534 17.9806 35.8701 17.7128C36.1606 17.3542 36.1559 16.8207 35.8598 16.5245C35.6469 16.3117 35.4692 16.2901 33.926 16.2901C32.3829 16.2901 32.2051 16.3117 31.9923 16.5245ZM44.6731 16.5303C42.8334 17.2685 42.5363 19.8887 44.1628 21.032C44.8293 21.5004 46.0113 21.5948 46.7105 21.2352C49.1476 19.9821 48.3346 16.3851 45.621 16.4147C45.2477 16.4188 44.8212 16.4709 44.6731 16.5303ZM46.193 18.3592C46.4601 18.6009 46.4709 19.19 46.2134 19.4745C45.7712 19.963 44.8545 19.5936 44.8545 18.927C44.8545 18.2719 45.7002 17.9132 46.193 18.3592ZM19.2453 20.6977C18.5246 20.9628 17.5459 21.9036 17.2188 22.6456C16.8332 23.5207 16.8383 24.7939 17.2305 25.6072C17.5911 26.3549 18.2955 27.059 19.0422 27.4182C19.4956 27.6363 19.8272 27.7012 20.5072 27.7054C21.6667 27.7126 22.4131 27.3863 23.1952 26.5307C23.9388 25.7171 24.1884 24.9928 24.1146 23.8634C24.0278 22.535 23.4019 21.5494 22.2453 20.9199C21.7326 20.6408 21.4587 20.5755 20.6844 20.5476C20.0475 20.5248 19.5845 20.573 19.2453 20.6977ZM38.3636 20.6368C37.3737 20.9237 36.2608 22.0586 35.9808 23.0667C35.804 23.7032 35.8341 24.7282 36.048 25.356C36.3057 26.1123 37.2212 27.0884 37.9962 27.4332C38.4483 27.6343 38.8338 27.7089 39.4342 27.7118C41.1733 27.7201 42.4547 26.7426 42.9532 25.0276C43.186 24.2272 43.1218 23.4525 42.7515 22.5918C42.4425 21.8734 41.4444 20.9488 40.7066 20.6974C40.1114 20.4945 38.9574 20.4648 38.3636 20.6368ZM21.4288 22.5095C22.0361 22.8548 22.3 23.2691 22.358 23.9684C22.4177 24.6881 22.2083 25.1669 21.6461 25.5957C20.502 26.4682 18.8531 25.7418 18.6718 24.2854C18.601 23.717 19.0189 22.8898 19.5577 22.5317C20.0725 22.1896 20.8501 22.1804 21.4288 22.5095ZM40.4423 22.5317C41.6769 23.3522 41.5685 25.1469 40.2457 25.7873C39.0102 26.3853 37.6177 25.5106 37.6177 24.1365C37.6177 23.3256 38.0246 22.7099 38.7896 22.3632C39.1927 22.1806 40.0447 22.2675 40.4423 22.5317ZM2.52591 23.4684C2.24335 23.7186 2.17104 24.0754 1.11312 30.4377C0.49984 34.1259 -0.00105309 37.422 1.66275e-06 37.7624C0.0106664 40.9826 2.38188 43.8885 5.57967 44.5998C6.73721 44.8574 8.31032 44.7834 9.37363 44.4213C10.923 43.8938 12.3935 42.7171 13.2119 41.35C13.4427 40.9644 14.2682 38.7208 15.305 35.6608L17.0171 30.6081L17.7367 30.8783C20.1105 31.7691 22.9139 31.3462 24.8045 29.8124L25.2931 29.416H29.9895H34.6858L35.2332 29.8338C37.2609 31.3816 39.8858 31.7705 42.2692 30.876L42.9945 30.6038L43.6048 32.435C44.2381 34.3348 44.5213 34.807 45.0282 34.807C45.4078 34.807 45.7802 34.518 45.872 34.1523C45.9945 33.6647 44.3738 28.9068 43.9796 28.5968C43.815 28.4672 43.6214 28.3607 43.5495 28.3598C43.4777 28.3591 42.9442 28.5955 42.3641 28.8852C40.0402 30.0457 37.8286 29.7801 35.8975 28.1088L35.3767 27.6581H30H24.6233L24.1025 28.1088C22.1714 29.7801 19.9598 30.0457 17.6359 28.8852C17.0558 28.5955 16.5223 28.3591 16.4505 28.3598C16.3786 28.3607 16.185 28.4672 16.0204 28.5968C15.7727 28.7915 15.4124 29.7597 13.9372 34.1929C12.9562 37.1412 12.0229 39.8143 11.8633 40.1331C11.4884 40.8819 10.4628 41.9538 9.7544 42.3371C8.20285 43.1768 6.40988 43.2373 4.86208 42.5023C3.00899 41.6222 1.75594 39.7049 1.75594 37.7494C1.75594 37.4611 2.25718 34.2592 2.86988 30.6341C4.03726 23.7263 4.04793 23.6077 3.52723 23.329C3.16732 23.1363 2.85113 23.1804 2.52591 23.4684Z" fill="#00B2FF"/>
</svg>
