<svg width="128" height="112" viewBox="0 0 128 112" fill="none" xmlns="http://www.w3.org/2000/svg">
<path d="M27.6472 2.79802C24.7962 5.39278 24.2837 9.47177 24.2837 9.47177C24.2837 9.47177 28.3947 9.33296 31.2457 6.7382C34.0967 4.14345 34.6093 0.0644531 34.6093 0.0644531C34.6093 0.0644531 30.4876 0.203267 27.6472 2.79802Z" fill="url(#paint0_linear_131_100)"/>
<path d="M47.6788 98.5688C50.1348 101.719 50.2843 105.435 50.2415 105.445C50.2522 105.488 45.0947 104.047 42.7776 100.576C40.4605 97.1486 41.5924 93.5929 41.5603 93.6035C41.5817 93.6356 45.2336 95.4508 47.6788 98.5688Z" fill="url(#paint1_linear_131_100)"/>
<path d="M44.0698 109.46C48.5972 108.691 50.2844 105.275 50.2844 105.296C50.231 105.317 45.3832 103.908 41.1974 104.399C36.9796 104.911 34.5023 107.538 34.4916 107.56C34.4382 107.592 39.4889 110.25 44.0698 109.46Z" fill="url(#paint2_linear_131_100)"/>
<path d="M38.7307 94.6285C40.4179 98.0882 39.8092 101.697 39.7772 101.697C39.7772 101.74 35.2497 99.4977 33.7228 95.7497C32.1958 92.0444 33.9363 88.7983 33.9043 88.7983C33.915 88.8411 37.0436 91.2116 38.7307 94.6285Z" fill="url(#paint3_linear_131_100)"/>
<path d="M33.2104 104.548C37.6097 104.559 39.8521 101.537 39.8414 101.569C39.788 101.58 35.5382 99.4229 31.4806 99.188C27.3802 98.9744 24.5185 101.089 24.5078 101.11C24.4544 101.121 28.7577 104.548 33.2104 104.548Z" fill="url(#paint4_linear_131_100)"/>
<path d="M31.0106 89.3111C31.9717 92.9417 30.6903 96.3266 30.6689 96.3266C30.6689 96.3693 26.7821 93.4328 26.0133 89.5354C25.2232 85.6806 27.4976 82.8296 27.4655 82.8296C27.4549 82.8723 30.0496 85.7127 31.0106 89.3111Z" fill="url(#paint5_linear_131_100)"/>
<path d="M23.8563 97.9707C28.0527 98.7289 30.7543 96.1875 30.7436 96.2195C30.7009 96.2195 27.0703 93.4112 23.2049 92.4929C19.3074 91.5853 16.1467 93.1336 16.1361 93.1656C16.0827 93.1549 19.6064 97.2126 23.8563 97.9707Z" fill="url(#paint6_linear_131_100)"/>
<path d="M24.5612 82.8295C24.8282 86.5134 22.9702 89.578 22.9488 89.578C22.9382 89.6207 19.7348 86.097 19.6707 82.1781C19.5959 78.302 22.2975 75.9208 22.2654 75.9102C22.2548 75.9529 24.2836 79.1669 24.5612 82.8295Z" fill="url(#paint7_linear_131_100)"/>
<path d="M16.0721 89.9942C19.9909 91.4571 23.0555 89.4496 23.0448 89.4816C23.0021 89.4709 20.023 86.1287 16.4245 84.5591C12.8046 83.0001 9.44111 83.9504 9.43043 83.9718C9.38772 83.9611 12.0999 88.5313 16.0721 89.9942Z" fill="url(#paint8_linear_131_100)"/>
<path d="M19.4464 75.3974C19.062 79.0386 16.7129 81.6868 16.6915 81.6761C16.6809 81.7188 14.1822 77.7359 14.7802 73.9025C15.3675 70.1011 18.4107 68.2538 18.3893 68.2432C18.3786 68.2752 19.8095 71.7883 19.4464 75.3974Z" fill="url(#paint9_linear_131_100)"/>
<path d="M9.92149 80.886C13.4879 83.0003 16.8195 81.5801 16.8088 81.6015C16.7767 81.5908 14.4596 77.8108 11.2135 75.6431C7.93538 73.4755 4.48639 73.8172 4.47571 73.8385C4.42232 73.8279 6.31233 78.7611 9.92149 80.886Z" fill="url(#paint10_linear_131_100)"/>
<path d="M15.7092 67.2394C14.7268 70.7312 11.9719 72.8988 11.9505 72.8881C11.9292 72.9308 10.1566 68.5956 11.3952 64.9437C12.6019 61.3238 15.8907 60.0532 15.8693 60.0425C15.8587 60.0745 16.6809 63.7798 15.7092 67.2394Z" fill="url(#paint11_linear_131_100)"/>
<path d="M5.46886 70.9128C8.60819 73.6143 12.0999 72.8135 12.0785 72.8348C12.0465 72.8135 10.4234 68.7131 7.60446 66.0223C4.76411 63.3207 1.3258 63.0324 1.30444 63.0538C1.27241 63.0324 2.28682 68.2006 5.46886 70.9128Z" fill="url(#paint12_linear_131_100)"/>
<path d="M13.424 58.5796C11.8757 61.8364 8.82183 63.4702 8.80047 63.4488C8.77912 63.4915 7.7647 58.9213 9.57996 55.5471C11.3631 52.2049 14.8015 51.5322 14.7801 51.5215C14.7588 51.5535 14.9403 55.3442 13.424 58.5796Z" fill="url(#paint13_linear_131_100)"/>
<path d="M2.76739 60.3524C5.39417 63.5558 8.93927 63.3956 8.91791 63.417C8.88588 63.3956 7.97825 59.0817 5.6718 55.921C3.33332 52.7496 0.0231407 51.8527 0.00178506 51.8634C-0.0195705 51.842 0.108567 57.1276 2.76739 60.3524Z" fill="url(#paint14_linear_131_100)"/>
<path d="M12.623 49.6313C10.5622 52.5678 7.29476 53.6249 7.28408 53.6035C7.25204 53.6356 7.02782 48.9586 9.37698 45.9367C11.6941 42.9469 15.1751 42.8935 15.1537 42.8828C15.1217 42.9148 14.6519 46.7162 12.623 49.6313Z" fill="url(#paint15_linear_131_100)"/>
<path d="M1.90236 49.4713C3.93118 53.1125 7.43356 53.5823 7.41221 53.6037C7.39085 53.5716 7.22 49.1616 5.50084 45.6272C3.76033 42.0714 0.674382 40.5765 0.653027 40.5872C0.610314 40.5445 -0.158494 45.8087 1.90236 49.4713Z" fill="url(#paint16_linear_131_100)"/>
<path d="M13.3706 40.6297C10.8399 43.1711 7.46566 43.6302 7.45499 43.6089C7.41227 43.6409 7.99956 38.9533 10.8399 36.3692C13.6482 33.8065 17.0652 34.3724 17.0545 34.351C17.0224 34.3831 15.8692 38.099 13.3706 40.6297Z" fill="url(#paint17_linear_131_100)"/>
<path d="M2.90622 38.5369C4.26233 42.5091 7.61523 43.609 7.58319 43.6196C7.56184 43.5876 8.14913 39.1883 7.10268 35.3442C6.03488 31.4894 3.29063 29.4499 3.26928 29.4606C3.24792 29.4286 1.52876 34.5326 2.90622 38.5369Z" fill="url(#paint18_linear_131_100)"/>
<path d="M15.7305 31.7885C12.7834 33.8814 9.40907 33.7319 9.39839 33.7105C9.35568 33.7319 10.7759 29.1724 14.054 27.0795C17.3002 25.008 20.5463 26.1825 20.5356 26.1612C20.4929 26.1719 18.6349 29.7063 15.7305 31.7885Z" fill="url(#paint19_linear_131_100)"/>
<path d="M5.86383 27.8376C6.45112 32.0448 9.53705 33.7426 9.5157 33.7533C9.50502 33.7212 10.8718 29.4393 10.5835 25.4031C10.2738 21.3454 7.98875 18.8147 7.95671 18.8147C7.93536 18.772 5.25518 23.5878 5.86383 27.8376Z" fill="url(#paint20_linear_131_100)"/>
<path d="M19.7347 23.3316C16.4245 24.9226 13.1464 24.1751 13.1357 24.1431C13.0823 24.1645 15.3674 19.8292 19.0406 18.2916C22.6711 16.7646 25.6503 18.5051 25.6396 18.4838C25.5969 18.5051 23.0128 21.7512 19.7347 23.3316Z" fill="url(#paint21_linear_131_100)"/>
<path d="M10.8293 17.6297C10.5624 21.965 13.2746 24.2073 13.2425 24.218C13.2319 24.186 15.4102 20.1283 15.9654 16.0066C16.4993 11.8636 14.7908 8.90575 14.7588 8.90575C14.7481 8.85236 11.0749 13.2517 10.8293 17.6297Z" fill="url(#paint22_linear_131_100)"/>
<path d="M25.4582 15.494C21.8277 16.5297 18.7524 15.2057 18.7524 15.1843C18.699 15.195 21.8704 11.2121 25.8853 10.2724C29.8468 9.33279 32.4416 11.5965 32.4309 11.5751C32.3775 11.5858 29.046 14.4582 25.4582 15.494Z" fill="url(#paint23_linear_131_100)"/>
<path d="M17.8767 8.19038C16.6701 12.5363 18.8911 15.2592 18.8591 15.2592C18.8591 15.2272 21.8703 11.5006 23.3545 7.41088C24.8281 3.29985 23.8137 0.000351615 23.771 0.000351615C23.7496 -0.0423604 19.0513 3.8124 17.8767 8.19038Z" fill="url(#paint24_linear_131_100)"/>
<path d="M64.7532 106.577L64.6784 105.777C58.0794 106.375 51.5125 105.638 45.1377 103.598C38.9338 101.601 33.1783 98.4621 28.0529 94.2443C17.4069 85.499 10.5516 73.0271 8.72565 59.1137C7.23073 47.7203 7.99955 37.5655 11.0001 28.9377C14.2142 19.6692 19.9483 12.4188 28.0422 7.38945L27.6151 6.70605C19.3717 11.8422 13.5201 19.2314 10.242 28.6707C7.1987 37.416 6.42989 47.6989 7.93549 59.2098C9.78279 73.3261 16.7449 85.9795 27.5403 94.853C32.7512 99.1348 38.5814 102.328 44.8814 104.346C51.3736 106.439 58.0581 107.186 64.7532 106.577Z" fill="url(#paint25_linear_131_100)"/>
<path d="M99.7131 2.79802C102.564 5.39278 103.077 9.47177 103.077 9.47177C103.077 9.47177 98.9656 9.33296 96.1146 6.7382C93.2636 4.14345 92.751 0.0644531 92.751 0.0644531C92.751 0.0644531 96.862 0.203267 99.7131 2.79802Z" fill="url(#paint26_linear_131_100)"/>
<path d="M79.6703 98.5688C77.2143 101.719 77.0648 105.435 77.1075 105.445C77.0969 105.488 82.2543 104.047 84.5715 100.576C86.8886 97.1486 85.7567 93.5929 85.7887 93.6035C85.7781 93.6356 82.1262 95.4508 79.6703 98.5688Z" fill="url(#paint27_linear_131_100)"/>
<path d="M83.2903 109.46C78.7628 108.691 77.0757 105.275 77.0757 105.296C77.1291 105.317 81.9769 103.908 86.1627 104.399C90.3805 104.911 92.8578 107.538 92.8685 107.56C92.9112 107.592 87.8605 110.25 83.2903 109.46Z" fill="url(#paint28_linear_131_100)"/>
<path d="M88.6185 94.6285C86.9314 98.0775 87.54 101.687 87.572 101.697C87.572 101.74 92.0995 99.4977 93.6265 95.7497C95.1534 92.0444 93.4129 88.7983 93.4449 88.7983C93.4449 88.8411 90.3056 91.2116 88.6185 94.6285Z" fill="url(#paint29_linear_131_100)"/>
<path d="M94.1497 104.548C89.7503 104.559 87.5079 101.537 87.5186 101.569C87.572 101.58 91.8218 99.4229 95.8795 99.188C99.9798 98.9744 102.842 101.089 102.852 101.11C102.895 101.121 98.5917 104.548 94.1497 104.548Z" fill="url(#paint30_linear_131_100)"/>
<path d="M96.3494 89.3111C95.3884 92.9417 96.6697 96.3266 96.6911 96.3266C96.6911 96.3693 100.578 93.4328 101.347 89.5354C102.137 85.6806 99.8624 82.8296 99.8945 82.8296C99.8945 82.8723 97.3104 85.7127 96.3494 89.3111Z" fill="url(#paint31_linear_131_100)"/>
<path d="M103.504 97.9707C99.3071 98.7289 96.6056 96.1875 96.6162 96.2195C96.659 96.2195 100.29 93.4112 104.155 92.4929C108.052 91.5853 111.213 93.1336 111.224 93.1656C111.267 93.1549 107.754 97.2126 103.504 97.9707Z" fill="url(#paint32_linear_131_100)"/>
<path d="M102.799 82.8295C102.532 86.5134 104.39 89.578 104.411 89.578C104.422 89.6207 107.625 86.097 107.689 82.1781C107.764 78.302 105.063 75.9208 105.095 75.9102C105.095 75.9529 103.076 79.1669 102.799 82.8295Z" fill="url(#paint33_linear_131_100)"/>
<path d="M111.288 89.9942C107.369 91.4571 104.304 89.4496 104.315 89.4816C104.358 89.4709 107.337 86.1287 110.935 84.5591C114.555 83.0001 117.919 83.9504 117.93 83.9718C117.972 83.9611 115.249 88.5313 111.288 89.9942Z" fill="url(#paint34_linear_131_100)"/>
<path d="M107.914 75.3974C108.298 79.0386 110.647 81.6868 110.669 81.6761C110.679 81.7188 113.178 77.7359 112.58 73.9025C111.993 70.1011 108.949 68.2538 108.971 68.2432C108.982 68.2752 107.54 71.7883 107.914 75.3974Z" fill="url(#paint35_linear_131_100)"/>
<path d="M117.439 80.886C113.872 83.0003 110.541 81.5801 110.551 81.6015C110.583 81.5908 112.9 77.8108 116.146 75.6431C119.425 73.4755 122.874 73.8172 122.884 73.8385C122.927 73.8279 121.048 78.7611 117.439 80.886Z" fill="url(#paint36_linear_131_100)"/>
<path d="M111.64 67.2394C112.623 70.7312 115.378 72.8988 115.399 72.8881C115.42 72.9308 117.193 68.5956 115.954 64.9437C114.748 61.3238 111.459 60.0532 111.48 60.0425C111.502 60.0745 110.679 63.7798 111.64 67.2394Z" fill="url(#paint37_linear_131_100)"/>
<path d="M121.891 70.9128C118.752 73.6143 115.26 72.8135 115.282 72.8348C115.314 72.8135 116.937 68.7131 119.756 66.0223C122.596 63.3207 126.034 63.0324 126.056 63.0538C126.088 63.0324 125.063 68.2006 121.891 70.9128Z" fill="url(#paint38_linear_131_100)"/>
<path d="M113.936 58.5796C115.484 61.8364 118.538 63.4702 118.56 63.4488C118.581 63.4915 119.595 58.9213 117.78 55.5471C115.997 52.2049 112.559 51.5322 112.58 51.5215C112.601 51.5535 112.409 55.3442 113.936 58.5796Z" fill="url(#paint39_linear_131_100)"/>
<path d="M124.582 60.3524C121.955 63.5558 118.41 63.3956 118.432 63.417C118.464 63.3956 119.371 59.0817 121.678 55.921C124.016 52.7496 127.326 51.8527 127.348 51.8634C127.38 51.842 127.241 57.1276 124.582 60.3524Z" fill="url(#paint40_linear_131_100)"/>
<path d="M114.737 49.6313C116.798 52.5678 120.065 53.6249 120.076 53.6035C120.108 53.6356 120.332 48.9586 117.983 45.9367C115.666 42.9469 112.185 42.8935 112.206 42.8828C112.228 42.9148 112.697 46.7162 114.737 49.6313Z" fill="url(#paint41_linear_131_100)"/>
<path d="M125.458 49.4713C123.429 53.1125 119.926 53.5823 119.948 53.6037C119.969 53.5716 120.14 49.1616 121.859 45.6272C123.6 42.0714 126.686 40.5765 126.707 40.5872C126.739 40.5445 127.518 45.8087 125.458 49.4713Z" fill="url(#paint42_linear_131_100)"/>
<path d="M113.979 40.6297C116.509 43.1711 119.873 43.6302 119.894 43.6089C119.937 43.6409 119.35 38.9533 116.509 36.3692C113.701 33.8065 110.284 34.3724 110.295 34.351C110.338 34.3831 111.491 38.099 113.979 40.6297Z" fill="url(#paint43_linear_131_100)"/>
<path d="M124.443 38.5369C123.087 42.5091 119.734 43.609 119.766 43.6196C119.788 43.5876 119.2 39.1883 120.247 35.3442C121.315 31.4894 124.059 29.4499 124.08 29.4606C124.112 29.4286 125.831 34.5326 124.443 38.5369Z" fill="url(#paint44_linear_131_100)"/>
<path d="M111.63 31.7885C114.577 33.8814 117.951 33.7319 117.962 33.7105C118.004 33.7319 116.584 29.1724 113.306 27.0795C110.06 25.008 106.814 26.1825 106.824 26.1612C106.867 26.1719 108.714 29.7063 111.63 31.7885Z" fill="url(#paint45_linear_131_100)"/>
<path d="M121.485 27.8376C120.898 32.0448 117.812 33.7426 117.834 33.7533C117.844 33.7212 116.477 29.4393 116.766 25.4031C117.075 21.3454 119.36 18.8147 119.393 18.8147C119.414 18.772 122.105 23.5878 121.485 27.8376Z" fill="url(#paint46_linear_131_100)"/>
<path d="M107.615 23.3316C110.925 24.9226 114.203 24.1751 114.214 24.1431C114.267 24.1645 111.982 19.8292 108.309 18.2916C104.678 16.7646 101.699 18.5051 101.71 18.4838C101.763 18.5051 104.347 21.7512 107.615 23.3316Z" fill="url(#paint47_linear_131_100)"/>
<path d="M116.52 17.6297C116.787 21.965 114.075 24.2073 114.107 24.218C114.118 24.186 111.939 20.1283 111.384 16.0066C110.85 11.8636 112.559 8.90575 112.591 8.90575C112.601 8.85236 116.285 13.2517 116.52 17.6297Z" fill="url(#paint48_linear_131_100)"/>
<path d="M101.891 15.494C105.522 16.5297 108.597 15.2057 108.597 15.1843C108.65 15.195 105.479 11.2121 101.464 10.2724C97.5026 9.33279 94.9079 11.5965 94.9185 11.5751C94.9719 11.5858 98.3035 14.4582 101.891 15.494Z" fill="url(#paint49_linear_131_100)"/>
<path d="M109.483 8.19038C110.69 12.5363 108.469 15.2592 108.501 15.2592C108.501 15.2272 105.49 11.5006 104.006 7.41088C102.532 3.29985 103.546 0.000351615 103.589 0.000351615C103.6 -0.0423604 108.298 3.8124 109.483 8.19038Z" fill="url(#paint50_linear_131_100)"/>
<path d="M62.5962 106.577L62.671 105.777C69.27 106.375 75.837 105.638 82.2117 103.598C88.4156 101.601 94.1711 98.4621 99.2965 94.2443C109.942 85.499 116.798 73.0271 118.624 59.1137C120.119 47.7203 119.35 37.5655 116.349 28.9377C113.135 19.6692 107.401 12.4188 99.3072 7.38945L99.7343 6.70605C107.978 11.8422 113.829 19.2314 117.107 28.6707C120.151 37.416 120.919 47.6989 119.414 59.2098C117.567 73.3261 110.605 85.9902 99.7984 94.8636C94.5875 99.1455 88.7573 102.338 82.4573 104.356C75.9865 106.439 69.302 107.186 62.5962 106.577Z" fill="url(#paint51_linear_131_100)"/>
<path d="M63.9097 102.509L69.9535 106.951L63.9097 111.393L57.8767 106.951L63.9097 102.509Z" fill="url(#paint52_linear_131_100)"/>
<path d="M50.0852 28.8466V27.5171L53.1917 24.6406C53.4559 24.385 53.6775 24.1548 53.8565 23.9503C54.0383 23.7457 54.1761 23.5455 54.2698 23.3494C54.3636 23.1506 54.4105 22.9361 54.4105 22.706C54.4105 22.4503 54.3522 22.2301 54.2358 22.0455C54.1193 21.858 53.9602 21.7145 53.7585 21.6151C53.5568 21.5128 53.3281 21.4617 53.0724 21.4617C52.8054 21.4617 52.5724 21.5156 52.3735 21.6236C52.1747 21.7315 52.0213 21.8864 51.9133 22.0881C51.8054 22.2898 51.7514 22.5298 51.7514 22.8082H50C50 22.2372 50.1292 21.7415 50.3877 21.321C50.6463 20.9006 51.0085 20.5753 51.4744 20.3452C51.9403 20.1151 52.4772 20 53.0852 20C53.7102 20 54.2542 20.1108 54.7173 20.3324C55.1832 20.5511 55.5454 20.8551 55.8039 21.2443C56.0625 21.6335 56.1917 22.0796 56.1917 22.5824C56.1917 22.9119 56.1264 23.2372 55.9957 23.5582C55.8679 23.8793 55.6392 24.2358 55.3096 24.6278C54.9801 25.0171 54.5156 25.4844 53.9162 26.0298L52.642 27.2784V27.3381H56.3068V28.8466H50.0852ZM61.0657 29.0384C60.3327 29.0355 59.702 28.8551 59.1736 28.4972C58.648 28.1392 58.2432 27.6207 57.9591 26.9418C57.6779 26.2628 57.5387 25.446 57.5415 24.4915C57.5415 23.5398 57.6821 22.7287 57.9634 22.0582C58.2475 21.3878 58.6523 20.8778 59.1779 20.5284C59.7063 20.1761 60.3355 20 61.0657 20C61.7958 20 62.4236 20.1761 62.9492 20.5284C63.4776 20.8807 63.8838 21.3921 64.1679 22.0625C64.452 22.7301 64.5926 23.5398 64.5898 24.4915C64.5898 25.4489 64.4478 26.2671 64.1637 26.946C63.8824 27.625 63.479 28.1435 62.9534 28.5014C62.4279 28.8594 61.7986 29.0384 61.0657 29.0384ZM61.0657 27.5085C61.5657 27.5085 61.9648 27.2571 62.2631 26.7543C62.5614 26.2514 62.7091 25.4972 62.7063 24.4915C62.7063 23.8296 62.6381 23.2784 62.5017 22.8381C62.3682 22.3977 62.1779 22.0668 61.9307 21.8452C61.6864 21.6236 61.398 21.5128 61.0657 21.5128C60.5685 21.5128 60.1708 21.7614 59.8725 22.2585C59.5742 22.7557 59.4236 23.5 59.4208 24.4915C59.4208 25.1619 59.4875 25.7216 59.6211 26.1705C59.7574 26.6165 59.9492 26.9517 60.1963 27.1761C60.4435 27.3977 60.7333 27.5085 61.0657 27.5085ZM65.9055 28.8466V27.5171L69.012 24.6406C69.2762 24.385 69.4978 24.1548 69.6768 23.9503C69.8586 23.7457 69.9964 23.5455 70.0902 23.3494C70.1839 23.1506 70.2308 22.9361 70.2308 22.706C70.2308 22.4503 70.1725 22.2301 70.0561 22.0455C69.9396 21.858 69.7805 21.7145 69.5788 21.6151C69.3771 21.5128 69.1484 21.4617 68.8927 21.4617C68.6257 21.4617 68.3927 21.5156 68.1939 21.6236C67.995 21.7315 67.8416 21.8864 67.7336 22.0881C67.6257 22.2898 67.5717 22.5298 67.5717 22.8082H65.8203C65.8203 22.2372 65.9495 21.7415 66.2081 21.321C66.4666 20.9006 66.8288 20.5753 67.2947 20.3452C67.7606 20.1151 68.2975 20 68.9055 20C69.5305 20 70.0745 20.1108 70.5376 20.3324C71.0035 20.5511 71.3657 20.8551 71.6242 21.2443C71.8828 21.6335 72.012 22.0796 72.012 22.5824C72.012 22.9119 71.9467 23.2372 71.816 23.5582C71.6882 23.8793 71.4595 24.2358 71.1299 24.6278C70.8004 25.0171 70.3359 25.4844 69.7365 26.0298L68.4623 27.2784V27.3381H72.1271V28.8466H65.9055ZM77.261 20.1193V28.8466H75.4158V21.8707H75.3647L73.3661 23.1236V21.4872L75.5266 20.1193H77.261Z" fill="#0D2F50"/>
<path d="M46.9659 38.5987V37.5845H51.7443V38.5987H49.9631V43.4027H48.7472V38.5987H46.9659ZM53.8473 43.4879C53.406 43.4879 53.0244 43.3941 52.7024 43.2066C52.3823 43.0172 52.1352 42.754 51.9609 42.4169C51.7867 42.0778 51.6996 41.6848 51.6996 41.2379C51.6996 40.7871 51.7867 40.3932 51.9609 40.0561C52.1352 39.717 52.3823 39.4538 52.7024 39.2663C53.0244 39.0769 53.406 38.9822 53.8473 38.9822C54.2886 38.9822 54.6693 39.0769 54.9894 39.2663C55.3113 39.4538 55.5594 39.717 55.7337 40.0561C55.9079 40.3932 55.995 40.7871 55.995 41.2379C55.995 41.6848 55.9079 42.0778 55.7337 42.4169C55.5594 42.754 55.3113 43.0172 54.9894 43.2066C54.6693 43.3941 54.2886 43.4879 53.8473 43.4879ZM53.853 42.5504C54.0537 42.5504 54.2214 42.4936 54.3558 42.3799C54.4903 42.2644 54.5916 42.1072 54.6598 41.9083C54.7299 41.7095 54.7649 41.4831 54.7649 41.2294C54.7649 40.9756 54.7299 40.7492 54.6598 40.5504C54.5916 40.3515 54.4903 40.1943 54.3558 40.0788C54.2214 39.9633 54.0537 39.9055 53.853 39.9055C53.6503 39.9055 53.4799 39.9633 53.3416 40.0788C53.2053 40.1943 53.102 40.3515 53.032 40.5504C52.9638 40.7492 52.9297 40.9756 52.9297 41.2294C52.9297 41.4831 52.9638 41.7095 53.032 41.9083C53.102 42.1072 53.2053 42.2644 53.3416 42.3799C53.4799 42.4936 53.6503 42.5504 53.853 42.5504ZM56.782 45.039V39.039H57.9751V39.772H58.0291C58.0822 39.6545 58.1589 39.5352 58.2592 39.414C58.3615 39.2909 58.4941 39.1886 58.657 39.1072C58.8217 39.0239 59.0263 38.9822 59.2706 38.9822C59.5888 38.9822 59.8823 39.0655 60.1513 39.2322C60.4202 39.397 60.6352 39.646 60.7962 39.9794C60.9572 40.3108 61.0376 40.7265 61.0376 41.2265C61.0376 41.7133 60.9591 42.1242 60.8019 42.4595C60.6466 42.7928 60.4344 43.0456 60.1655 43.218C59.8984 43.3884 59.5992 43.4737 59.2678 43.4737C59.0329 43.4737 58.8331 43.4348 58.6683 43.3572C58.5055 43.2795 58.3719 43.182 58.2678 43.0646C58.1636 42.9453 58.0841 42.825 58.0291 42.7038H57.9922V45.039H56.782ZM57.9666 41.2208C57.9666 41.4803 58.0026 41.7066 58.0746 41.8998C58.1466 42.093 58.2507 42.2436 58.3871 42.3515C58.5234 42.4576 58.6892 42.5106 58.8842 42.5106C59.0812 42.5106 59.2479 42.4566 59.3842 42.3487C59.5206 42.2388 59.6238 42.0873 59.6939 41.8941C59.7659 41.6991 59.8019 41.4746 59.8019 41.2208C59.8019 40.9689 59.7668 40.7473 59.6967 40.5561C59.6267 40.3648 59.5234 40.2152 59.3871 40.1072C59.2507 39.9992 59.0831 39.9453 58.8842 39.9453C58.6873 39.9453 58.5206 39.9973 58.3842 40.1015C58.2498 40.2057 58.1466 40.3534 58.0746 40.5447C58.0026 40.736 57.9666 40.9614 57.9666 41.2208ZM65.0284 43.4027L63.3636 37.5845H64.7074L65.6705 41.6271H65.7188L66.7813 37.5845H67.9318L68.9915 41.6356H69.0426L70.0057 37.5845H71.3494L69.6847 43.4027H68.4858L67.3778 39.5987H67.3324L66.2273 43.4027H65.0284ZM73.505 43.4879C73.0561 43.4879 72.6698 43.397 72.3459 43.2152C72.0239 43.0314 71.7758 42.772 71.6016 42.4367C71.4273 42.0996 71.3402 41.7009 71.3402 41.2407C71.3402 40.7919 71.4273 40.3979 71.6016 40.0589C71.7758 39.7199 72.0211 39.4557 72.3374 39.2663C72.6555 39.0769 73.0287 38.9822 73.4567 38.9822C73.7446 38.9822 74.0126 39.0286 74.2607 39.1214C74.5107 39.2123 74.7285 39.3496 74.9141 39.5333C75.1016 39.717 75.2474 39.9481 75.3516 40.2265C75.4557 40.503 75.5078 40.8269 75.5078 41.1981V41.5305H71.8232V40.7805H74.3686C74.3686 40.6063 74.3307 40.4519 74.255 40.3174C74.1792 40.183 74.0741 40.0778 73.9396 40.0021C73.8071 39.9244 73.6527 39.8856 73.4766 39.8856C73.2929 39.8856 73.13 39.9282 72.9879 40.0134C72.8478 40.0968 72.7379 40.2095 72.6584 40.3515C72.5788 40.4917 72.5381 40.6479 72.5362 40.8203V41.5333C72.5362 41.7492 72.576 41.9358 72.6555 42.093C72.737 42.2502 72.8516 42.3714 72.9993 42.4566C73.147 42.5419 73.3222 42.5845 73.5249 42.5845C73.6593 42.5845 73.7824 42.5655 73.8942 42.5277C74.0059 42.4898 74.1016 42.433 74.1811 42.3572C74.2607 42.2814 74.3213 42.1886 74.3629 42.0788L75.4823 42.1527C75.4254 42.4216 75.309 42.6564 75.1328 42.8572C74.9586 43.0561 74.7332 43.2114 74.4567 43.3231C74.1821 43.433 73.8648 43.4879 73.505 43.4879ZM76.3203 43.4027V37.5845H77.5305V39.772H77.5675C77.6205 39.6545 77.6972 39.5352 77.7976 39.414C77.8999 39.2909 78.0324 39.1886 78.1953 39.1072C78.3601 39.0239 78.5646 38.9822 78.809 38.9822C79.1271 38.9822 79.4207 39.0655 79.6896 39.2322C79.9586 39.397 80.1735 39.646 80.3345 39.9794C80.4955 40.3108 80.576 40.7265 80.576 41.2265C80.576 41.7133 80.4974 42.1242 80.3402 42.4595C80.1849 42.7928 79.9728 43.0456 79.7038 43.218C79.4368 43.3884 79.1376 43.4737 78.8061 43.4737C78.5713 43.4737 78.3715 43.4348 78.2067 43.3572C78.0438 43.2795 77.9103 43.182 77.8061 43.0646C77.7019 42.9453 77.6224 42.825 77.5675 42.7038H77.5135V43.4027H76.3203ZM77.505 41.2208C77.505 41.4803 77.541 41.7066 77.6129 41.8998C77.6849 42.093 77.7891 42.2436 77.9254 42.3515C78.0618 42.4576 78.2275 42.5106 78.4226 42.5106C78.6196 42.5106 78.7862 42.4566 78.9226 42.3487C79.059 42.2388 79.1622 42.0873 79.2323 41.8941C79.3042 41.6991 79.3402 41.4746 79.3402 41.2208C79.3402 40.9689 79.3052 40.7473 79.2351 40.5561C79.165 40.3648 79.0618 40.2152 78.9254 40.1072C78.7891 39.9992 78.6215 39.9453 78.4226 39.9453C78.2256 39.9453 78.059 39.9973 77.9226 40.1015C77.7881 40.2057 77.6849 40.3534 77.6129 40.5447C77.541 40.736 77.505 40.9614 77.505 41.2208ZM33.0625 53.4027H31V47.5845H33.0796C33.6648 47.5845 34.1686 47.7009 34.5909 47.9339C35.0133 48.165 35.3381 48.4973 35.5653 48.9311C35.7945 49.3648 35.9091 49.8837 35.9091 50.4879C35.9091 51.0939 35.7945 51.6148 35.5653 52.0504C35.3381 52.486 35.0114 52.8203 34.5852 53.0532C34.161 53.2862 33.6534 53.4027 33.0625 53.4027ZM32.2301 52.3487H33.0114C33.375 52.3487 33.6809 52.2843 33.929 52.1555C34.179 52.0248 34.3665 51.8231 34.4915 51.5504C34.6184 51.2758 34.6818 50.9216 34.6818 50.4879C34.6818 50.058 34.6184 49.7066 34.4915 49.4339C34.3665 49.1612 34.1799 48.9604 33.9318 48.8316C33.6837 48.7028 33.3778 48.6384 33.0142 48.6384H32.2301V52.3487ZM38.7862 53.4879C38.3374 53.4879 37.951 53.397 37.6271 53.2152C37.3052 53.0314 37.0571 52.772 36.8828 52.4367C36.7086 52.0996 36.6215 51.7009 36.6215 51.2407C36.6215 50.7919 36.7086 50.3979 36.8828 50.0589C37.0571 49.7199 37.3023 49.4557 37.6186 49.2663C37.9368 49.0769 38.3099 48.9822 38.7379 48.9822C39.0258 48.9822 39.2938 49.0286 39.5419 49.1214C39.7919 49.2123 40.0097 49.3496 40.1953 49.5333C40.3828 49.717 40.5287 49.9481 40.6328 50.2265C40.737 50.503 40.7891 50.8269 40.7891 51.1981V51.5305H37.1044V50.7805H39.6499C39.6499 50.6063 39.612 50.4519 39.5362 50.3174C39.4605 50.183 39.3554 50.0778 39.2209 50.0021C39.0883 49.9244 38.934 49.8856 38.7578 49.8856C38.5741 49.8856 38.4112 49.9282 38.2692 50.0134C38.129 50.0968 38.0192 50.2095 37.9396 50.3515C37.8601 50.4917 37.8194 50.6479 37.8175 50.8203V51.5333C37.8175 51.7492 37.8573 51.9358 37.9368 52.093C38.0182 52.2502 38.1328 52.3714 38.2805 52.4566C38.4283 52.5419 38.6035 52.5845 38.8061 52.5845C38.9406 52.5845 39.0637 52.5655 39.1754 52.5277C39.2872 52.4898 39.3828 52.433 39.4624 52.3572C39.5419 52.2814 39.6025 52.1886 39.6442 52.0788L40.7635 52.1527C40.7067 52.4216 40.5902 52.6564 40.4141 52.8572C40.2398 53.0561 40.0144 53.2114 39.7379 53.3231C39.4633 53.433 39.1461 53.4879 38.7862 53.4879ZM45.2095 50.2833L44.1016 50.3515C44.0826 50.2568 44.0419 50.1716 43.9794 50.0958C43.9169 50.0182 43.8345 49.9566 43.7323 49.9112C43.6319 49.8638 43.5116 49.8402 43.3715 49.8402C43.184 49.8402 43.0258 49.8799 42.897 49.9595C42.7682 50.0371 42.7038 50.1413 42.7038 50.272C42.7038 50.3761 42.7455 50.4642 42.8288 50.5362C42.9122 50.6081 43.0552 50.6659 43.2578 50.7095L44.0476 50.8686C44.4718 50.9557 44.7881 51.0958 44.9965 51.289C45.2048 51.4822 45.309 51.736 45.309 52.0504C45.309 52.3364 45.2247 52.5873 45.0561 52.8032C44.8894 53.0191 44.6603 53.1877 44.3686 53.3089C44.0788 53.4282 43.7446 53.4879 43.3658 53.4879C42.7881 53.4879 42.3279 53.3676 41.9851 53.1271C41.6442 52.8847 41.4444 52.5551 41.3857 52.1384L42.576 52.0759C42.612 52.2521 42.6991 52.3866 42.8374 52.4794C42.9756 52.5703 43.1527 52.6157 43.3686 52.6157C43.5807 52.6157 43.7512 52.575 43.88 52.4936C44.0107 52.4102 44.0769 52.3032 44.0788 52.1725C44.0769 52.0627 44.0305 51.9727 43.9396 51.9027C43.8487 51.8307 43.7086 51.7758 43.5192 51.7379L42.7635 51.5873C42.3374 51.5021 42.0201 51.3544 41.8118 51.1441C41.6054 50.9339 41.5021 50.6659 41.5021 50.3402C41.5021 50.0598 41.5779 49.8184 41.7294 49.6157C41.8828 49.4131 42.0978 49.2568 42.3743 49.147C42.6527 49.0371 42.9785 48.9822 43.3516 48.9822C43.9027 48.9822 44.3364 49.0987 44.6527 49.3316C44.9709 49.5646 45.1565 49.8818 45.2095 50.2833ZM46.071 53.4027V49.039H47.2813V53.4027H46.071ZM46.679 48.4765C46.4991 48.4765 46.3447 48.4169 46.2159 48.2975C46.089 48.1763 46.0256 48.0314 46.0256 47.8629C46.0256 47.6962 46.089 47.5532 46.2159 47.4339C46.3447 47.3127 46.4991 47.2521 46.679 47.2521C46.8589 47.2521 47.0123 47.3127 47.1392 47.4339C47.268 47.5532 47.3324 47.6962 47.3324 47.8629C47.3324 48.0314 47.268 48.1763 47.1392 48.2975C47.0123 48.4169 46.8589 48.4765 46.679 48.4765ZM50.2166 55.1299C49.8246 55.1299 49.4884 55.0759 49.2081 54.968C48.9297 54.8619 48.7081 54.717 48.5433 54.5333C48.3786 54.3496 48.2716 54.1432 48.2223 53.914L49.3416 53.7634C49.3757 53.8506 49.4297 53.932 49.5036 54.0078C49.5774 54.0835 49.675 54.1441 49.7962 54.1896C49.9193 54.2369 50.0689 54.2606 50.245 54.2606C50.5083 54.2606 50.7251 54.1962 50.8956 54.0674C51.068 53.9405 51.1541 53.7275 51.1541 53.4282V52.6299H51.103C51.05 52.7511 50.9704 52.8657 50.8644 52.9737C50.7583 53.0816 50.6219 53.1697 50.4553 53.2379C50.2886 53.3061 50.0897 53.3402 49.8587 53.3402C49.531 53.3402 49.2327 53.2644 48.9638 53.1129C48.6967 52.9595 48.4837 52.7256 48.3246 52.4112C48.1674 52.0949 48.0888 51.6953 48.0888 51.2123C48.0888 50.718 48.1693 50.3051 48.3303 49.9737C48.4912 49.6422 48.7053 49.3941 48.9723 49.2294C49.2412 49.0646 49.5358 48.9822 49.8558 48.9822C50.1001 48.9822 50.3047 49.0239 50.4695 49.1072C50.6342 49.1886 50.7668 49.2909 50.8672 49.414C50.9695 49.5352 51.0481 49.6545 51.103 49.772H51.1484V49.039H52.3501V53.4453C52.3501 53.8165 52.2592 54.1271 52.0774 54.3771C51.8956 54.6271 51.6437 54.8146 51.3217 54.9396C51.0017 55.0665 50.6333 55.1299 50.2166 55.1299ZM50.2422 52.4311C50.4373 52.4311 50.602 52.3828 50.7365 52.2862C50.8729 52.1877 50.977 52.0475 51.049 51.8657C51.1229 51.682 51.1598 51.4623 51.1598 51.2066C51.1598 50.9509 51.1238 50.7294 51.0519 50.5419C50.9799 50.3525 50.8757 50.2057 50.7394 50.1015C50.603 49.9973 50.4373 49.9453 50.2422 49.9453C50.0433 49.9453 49.8757 49.9992 49.7394 50.1072C49.603 50.2133 49.4998 50.361 49.4297 50.5504C49.3596 50.7398 49.3246 50.9585 49.3246 51.2066C49.3246 51.4585 49.3596 51.6763 49.4297 51.86C49.5017 52.0419 49.6049 52.183 49.7394 52.2833C49.8757 52.3818 50.0433 52.4311 50.2422 52.4311ZM54.5234 50.8799V53.4027H53.3132V49.039H54.4666V49.8089H54.5178C54.6144 49.5551 54.7763 49.3544 55.0036 49.2066C55.2308 49.057 55.5064 48.9822 55.8303 48.9822C56.1333 48.9822 56.3975 49.0485 56.6229 49.1811C56.8483 49.3136 57.0234 49.503 57.1484 49.7492C57.2734 49.9936 57.3359 50.2852 57.3359 50.6242V53.4027H56.1257V50.8402C56.1276 50.5731 56.0594 50.3648 55.9212 50.2152C55.7829 50.0636 55.5926 49.9879 55.3501 49.9879C55.1873 49.9879 55.0433 50.0229 54.9183 50.093C54.7952 50.1631 54.6986 50.2653 54.6286 50.3998C54.5604 50.5324 54.5253 50.6924 54.5234 50.8799ZM65.2976 49.6214H64.0533C64.0305 49.4604 63.9841 49.3174 63.9141 49.1924C63.844 49.0655 63.754 48.9576 63.6442 48.8686C63.5343 48.7795 63.4074 48.7114 63.2635 48.664C63.1215 48.6167 62.9671 48.593 62.8004 48.593C62.4993 48.593 62.237 48.6678 62.0135 48.8174C61.79 48.9652 61.6167 49.1811 61.4936 49.4652C61.3705 49.7473 61.309 50.0902 61.309 50.4936C61.309 50.9083 61.3705 51.2568 61.4936 51.539C61.6186 51.8212 61.7929 52.0343 62.0163 52.1782C62.2398 52.3222 62.4983 52.3941 62.7919 52.3941C62.9567 52.3941 63.1091 52.3723 63.2493 52.3288C63.3913 52.2852 63.5173 52.2218 63.6271 52.1384C63.737 52.0532 63.8279 51.95 63.8999 51.8288C63.9737 51.7076 64.0249 51.5693 64.0533 51.414L65.2976 51.4197C65.2654 51.6867 65.1849 51.9443 65.0561 52.1924C64.9292 52.4386 64.7578 52.6593 64.5419 52.8544C64.3279 53.0475 64.0722 53.2009 63.7749 53.3146C63.4794 53.4263 63.1451 53.4822 62.772 53.4822C62.2531 53.4822 61.7891 53.3648 61.38 53.1299C60.9728 52.8951 60.6508 52.5551 60.4141 52.11C60.1792 51.665 60.0618 51.1261 60.0618 50.4936C60.0618 49.8591 60.1811 49.3193 60.4198 48.8742C60.6584 48.4292 60.9823 48.0902 61.3913 47.8572C61.8004 47.6223 62.2607 47.5049 62.772 47.5049C63.1091 47.5049 63.4216 47.5523 63.7095 47.647C63.9993 47.7417 64.2559 47.8799 64.4794 48.0617C64.7029 48.2417 64.8847 48.4623 65.0249 48.7237C65.1669 48.985 65.2578 49.2843 65.2976 49.6214ZM68.1286 53.4879C67.6873 53.4879 67.3056 53.3941 66.9837 53.2066C66.6636 53.0172 66.4164 52.754 66.2422 52.4169C66.068 52.0778 65.9808 51.6848 65.9808 51.2379C65.9808 50.7871 66.068 50.3932 66.2422 50.0561C66.4164 49.717 66.6636 49.4538 66.9837 49.2663C67.3056 49.0769 67.6873 48.9822 68.1286 48.9822C68.5698 48.9822 68.9505 49.0769 69.2706 49.2663C69.5926 49.4538 69.8407 49.717 70.0149 50.0561C70.1892 50.3932 70.2763 50.7871 70.2763 51.2379C70.2763 51.6848 70.1892 52.0778 70.0149 52.4169C69.8407 52.754 69.5926 53.0172 69.2706 53.2066C68.9505 53.3941 68.5698 53.4879 68.1286 53.4879ZM68.1342 52.5504C68.335 52.5504 68.5026 52.4936 68.6371 52.3799C68.7716 52.2644 68.8729 52.1072 68.9411 51.9083C69.0111 51.7095 69.0462 51.4831 69.0462 51.2294C69.0462 50.9756 69.0111 50.7492 68.9411 50.5504C68.8729 50.3515 68.7716 50.1943 68.6371 50.0788C68.5026 49.9633 68.335 49.9055 68.1342 49.9055C67.9316 49.9055 67.7611 49.9633 67.6229 50.0788C67.4865 50.1943 67.3833 50.3515 67.3132 50.5504C67.245 50.7492 67.2109 50.9756 67.2109 51.2294C67.2109 51.4831 67.245 51.7095 67.3132 51.9083C67.3833 52.1072 67.4865 52.2644 67.6229 52.3799C67.7611 52.4936 67.9316 52.5504 68.1342 52.5504ZM71.0632 53.4027V49.039H72.2166V49.8089H72.2678C72.3587 49.5532 72.5102 49.3515 72.7223 49.2038C72.9344 49.0561 73.1882 48.9822 73.4837 48.9822C73.7829 48.9822 74.0376 49.057 74.2479 49.2066C74.4581 49.3544 74.5983 49.5551 74.6683 49.8089H74.7138C74.8028 49.5589 74.9638 49.3591 75.1967 49.2095C75.4316 49.058 75.7091 48.9822 76.0291 48.9822C76.4363 48.9822 76.7668 49.1119 77.0206 49.3714C77.2763 49.629 77.4041 49.9945 77.4041 50.468V53.4027H76.1967V50.7066C76.1967 50.4642 76.1323 50.2824 76.0036 50.1612C75.8748 50.04 75.7138 49.9794 75.5206 49.9794C75.3009 49.9794 75.1295 50.0494 75.0064 50.1896C74.8833 50.3278 74.8217 50.5106 74.8217 50.7379V53.4027H73.6484V50.6811C73.6484 50.467 73.5869 50.2966 73.4638 50.1697C73.3426 50.0428 73.1825 49.9794 72.9837 49.9794C72.8492 49.9794 72.728 50.0134 72.62 50.0816C72.514 50.1479 72.4297 50.2417 72.3672 50.3629C72.3047 50.4822 72.2734 50.6223 72.2734 50.7833V53.4027H71.0632ZM78.3601 55.039V49.039H79.5533V49.772H79.6073C79.6603 49.6545 79.737 49.5352 79.8374 49.414C79.9396 49.2909 80.0722 49.1886 80.2351 49.1072C80.3999 49.0239 80.6044 48.9822 80.8487 48.9822C81.1669 48.9822 81.4605 49.0655 81.7294 49.2322C81.9983 49.397 82.2133 49.646 82.3743 49.9794C82.5353 50.3108 82.6158 50.7265 82.6158 51.2265C82.6158 51.7133 82.5372 52.1242 82.38 52.4595C82.2247 52.7928 82.0126 53.0456 81.7436 53.218C81.4766 53.3884 81.1773 53.4737 80.8459 53.4737C80.611 53.4737 80.4112 53.4348 80.2465 53.3572C80.0836 53.2795 79.9501 53.182 79.8459 53.0646C79.7417 52.9453 79.6622 52.825 79.6073 52.7038H79.5703V55.039H78.3601ZM79.5448 51.2208C79.5448 51.4803 79.5807 51.7066 79.6527 51.8998C79.7247 52.093 79.8288 52.2436 79.9652 52.3515C80.1016 52.4576 80.2673 52.5106 80.4624 52.5106C80.6593 52.5106 80.826 52.4566 80.9624 52.3487C81.0987 52.2388 81.2019 52.0873 81.272 51.8941C81.344 51.6991 81.38 51.4746 81.38 51.2208C81.38 50.9689 81.3449 50.7473 81.2749 50.5561C81.2048 50.3648 81.1016 50.2152 80.9652 50.1072C80.8288 49.9992 80.6612 49.9453 80.4624 49.9453C80.2654 49.9453 80.0987 49.9973 79.9624 50.1015C79.8279 50.2057 79.7247 50.3534 79.6527 50.5447C79.5807 50.736 79.5448 50.9614 79.5448 51.2208ZM84.6669 53.485C84.3885 53.485 84.1404 53.4367 83.9226 53.3402C83.7048 53.2417 83.5324 53.0968 83.4055 52.9055C83.2805 52.7123 83.218 52.4718 83.218 52.1839C83.218 51.9415 83.2626 51.7379 83.3516 51.5731C83.4406 51.4083 83.5618 51.2758 83.7152 51.1754C83.8686 51.075 84.0429 50.9992 84.2379 50.9481C84.4349 50.897 84.6413 50.861 84.8573 50.8402C85.111 50.8136 85.3156 50.789 85.4709 50.7663C85.6262 50.7417 85.7389 50.7057 85.809 50.6583C85.879 50.611 85.9141 50.5409 85.9141 50.4481V50.4311C85.9141 50.2511 85.8573 50.1119 85.7436 50.0134C85.6319 49.915 85.4728 49.8657 85.2663 49.8657C85.0485 49.8657 84.8752 49.914 84.7465 50.0106C84.6177 50.1053 84.5324 50.2246 84.4908 50.3686L83.3715 50.2777C83.4283 50.0125 83.54 49.7833 83.7067 49.5902C83.8733 49.3951 84.0883 49.2455 84.3516 49.1413C84.6167 49.0352 84.9235 48.9822 85.272 48.9822C85.5144 48.9822 85.7465 49.0106 85.968 49.0674C86.1915 49.1242 86.3894 49.2123 86.5618 49.3316C86.736 49.4509 86.8733 49.6044 86.9737 49.7919C87.0741 49.9775 87.1243 50.2 87.1243 50.4595V53.4027H85.9766V52.7975H85.9425C85.8724 52.9339 85.7787 53.0542 85.6612 53.1583C85.5438 53.2606 85.4027 53.3411 85.2379 53.3998C85.0732 53.4566 84.8828 53.485 84.6669 53.485ZM85.0135 52.6498C85.1915 52.6498 85.3487 52.6148 85.4851 52.5447C85.6215 52.4727 85.7285 52.3761 85.8061 52.2549C85.8838 52.1337 85.9226 51.9964 85.9226 51.843V51.3799C85.8847 51.4045 85.8326 51.4273 85.7663 51.4481C85.7019 51.467 85.629 51.485 85.5476 51.5021C85.4662 51.5172 85.3847 51.5314 85.3033 51.5447C85.2218 51.5561 85.148 51.5665 85.0817 51.5759C84.9396 51.5968 84.8156 51.6299 84.7095 51.6754C84.6035 51.7208 84.5211 51.7824 84.4624 51.86C84.4037 51.9358 84.3743 52.0305 84.3743 52.1441C84.3743 52.3089 84.434 52.4348 84.5533 52.522C84.6745 52.6072 84.8279 52.6498 85.0135 52.6498ZM89.2734 50.8799V53.4027H88.0632V49.039H89.2166V49.8089H89.2678C89.3644 49.5551 89.5263 49.3544 89.7536 49.2066C89.9808 49.057 90.2564 48.9822 90.5803 48.9822C90.8833 48.9822 91.1475 49.0485 91.3729 49.1811C91.5983 49.3136 91.7734 49.503 91.8984 49.7492C92.0234 49.9936 92.0859 50.2852 92.0859 50.6242V53.4027H90.8757V50.8402C90.8776 50.5731 90.8094 50.3648 90.6712 50.2152C90.5329 50.0636 90.3426 49.9879 90.1001 49.9879C89.9373 49.9879 89.7933 50.0229 89.6683 50.093C89.5452 50.1631 89.4486 50.2653 89.3786 50.3998C89.3104 50.5324 89.2753 50.6924 89.2734 50.8799ZM93.6307 55.039C93.4773 55.039 93.3333 55.0267 93.1989 55.0021C93.0663 54.9794 92.9564 54.95 92.8693 54.914L93.1421 54.0106C93.2841 54.0542 93.4119 54.0778 93.5256 54.0816C93.6411 54.0854 93.7405 54.0589 93.8239 54.0021C93.9091 53.9453 93.9782 53.8487 94.0313 53.7123L94.1023 53.5277L92.5369 49.039H93.8097L94.7131 52.2436H94.7585L95.6705 49.039H96.9517L95.2557 53.8742C95.1742 54.1091 95.0635 54.3136 94.9233 54.4879C94.785 54.664 94.6099 54.7994 94.3977 54.8941C94.1856 54.9907 93.9299 55.039 93.6307 55.039Z" fill="#0D2F50"/>
<path d="M28.8337 65.9816C28.8337 65.9816 28.1808 65.9167 28.1808 66.4984V69.0824H32.4921V69.8579C32.4921 69.8579 32.505 70.2453 32.1002 70.2453H28.1808V73.6048H32.8841C32.8841 73.6048 35.7318 73.1653 35.7581 70.2453V65.9816H28.8337ZM35.6271 61.8467H27.1355C24.0649 62.5701 24 65.0897 24 65.0897V73.6048H27.2665V65.8523C27.2665 65.1933 27.9194 65.0774 27.9194 65.0774H35.6276V61.8467H35.6271ZM46.8376 71.1681C46.6136 71.3176 46.4479 71.4273 46.3309 71.4973C45.912 71.7565 45.5128 71.9564 45.1427 72.116C44.6069 72.3355 44.1293 72.4452 43.701 72.4452C42.2301 72.4452 41.0123 71.9962 40.028 71.088C39.0436 70.1798 38.5576 69.0427 38.5576 67.6658C38.5576 66.3389 38.996 65.191 39.8824 64.2129C40.7687 63.2353 41.8404 62.756 43.1069 62.756C43.6332 62.756 44.1976 62.8456 44.7821 63.0359C45.5419 63.275 46.1556 63.6345 46.6427 64.1031L45.795 65.041C45.435 64.6922 44.9675 64.4324 44.4216 64.2728C44.0128 64.153 43.5649 64.0936 43.0677 64.0936C42.1814 64.0936 41.4311 64.452 40.837 65.1608C40.243 65.8792 39.9412 66.7274 39.9412 67.7252C39.9412 68.7134 40.2816 69.5214 40.9636 70.1703C41.6455 70.8187 42.5123 71.1479 43.5643 71.1479C44.0028 71.1479 44.4512 71.0079 44.9087 70.7392C45.2889 70.4497 45.4837 70.3097 45.4932 70.2996V68.2543H42.6489L43.0576 66.9771H46.8376V71.1681ZM55.4294 68.6731C55.4294 69.6608 55.0789 70.5191 54.3773 71.2375C53.6757 71.9559 52.809 72.3254 51.7765 72.3254C50.8219 72.3254 49.9843 71.9659 49.2631 71.2577C48.5419 70.5494 48.1914 69.691 48.1914 68.6832C48.1914 67.6854 48.533 66.8271 49.2144 66.0886C49.8958 65.3501 50.734 64.9911 51.7177 64.9911C52.809 64.9911 53.6953 65.3405 54.3868 66.0488C55.0789 66.7375 55.4294 67.6154 55.4294 68.6731ZM54.0946 68.6933C54.0946 68.0247 53.8706 67.4559 53.4227 66.9967C52.9747 66.5275 52.4193 66.298 51.7569 66.298C51.1338 66.298 50.6074 66.5376 50.169 67.0169C49.7306 67.4956 49.5162 68.0443 49.5162 68.663C49.5162 69.312 49.7401 69.8607 50.1786 70.3198C50.617 70.7789 51.1629 71.018 51.8247 71.018C52.4389 71.018 52.9647 70.7884 53.4131 70.3293C53.8706 69.8702 54.0951 69.3215 54.0951 68.6933H54.0946ZM63.9042 68.6731C63.9042 69.6608 63.5537 70.5191 62.8521 71.2375C62.1505 71.9559 61.2838 72.3254 60.2513 72.3254C59.2967 72.3254 58.459 71.9659 57.7379 71.2577C57.0173 70.5494 56.6662 69.691 56.6662 68.6832C56.6662 67.6854 57.0078 66.8271 57.6892 66.0886C58.3711 65.3501 59.2088 64.9911 60.1925 64.9911C61.2838 64.9911 62.1701 65.3405 62.8616 66.0488C63.5537 66.7375 63.9042 67.6154 63.9042 68.6731ZM62.5693 68.6933C62.5693 68.0247 62.3454 67.4559 61.8974 66.9967C61.4495 66.5275 60.8941 66.298 60.2317 66.298C59.6085 66.298 59.0822 66.5376 58.6438 67.0169C58.2054 67.4956 57.991 68.0443 57.991 68.663C57.991 69.312 58.2149 69.8607 58.6539 70.3198C59.0917 70.7789 59.6377 71.018 60.3 71.018C60.9137 71.018 61.4394 70.7884 61.8879 70.3293C62.3454 69.8702 62.5699 69.3215 62.5699 68.6933H62.5693ZM71.7463 72.1255L70.5189 72.3153V71.1278L70.2558 71.4267C70.024 71.6439 69.7613 71.8256 69.4764 71.9659C69.0582 72.1588 68.6027 72.2577 68.1421 72.2554C67.1875 72.2554 66.3689 71.906 65.7065 71.1972C65.0441 70.4883 64.7132 69.6507 64.7132 68.6731C64.7132 67.6653 65.0441 66.7974 65.697 66.0785C66.3498 65.3596 67.1483 65.0007 68.1029 65.0007C68.6488 65.0007 69.1259 65.0903 69.5251 65.27C69.8078 65.3999 70.0514 65.5695 70.2558 65.7795C70.3241 65.8691 70.3924 65.9688 70.4607 66.0583V62.9452L71.7653 62.7554L71.7463 72.1255ZM70.5968 68.7627C70.5968 68.0645 70.3627 67.4755 69.8857 66.9967C69.4086 66.5074 68.8722 66.2683 68.2591 66.2683C67.5772 66.2683 67.0318 66.4979 66.613 66.957C66.2228 67.3954 66.0184 67.9346 66.0184 68.5634C66.0184 69.2717 66.2227 69.8601 66.632 70.3192C67.0408 70.7784 67.5576 71.0079 68.1908 71.0079C68.814 71.0079 69.3599 70.7985 69.847 70.3696C70.3437 69.9301 70.5973 69.3915 70.5973 68.7627H70.5968ZM78.6331 64.2431H74.9803V66.7274H77.8145V68.0046H74.9803V72.116L73.5581 72.3254V62.9553H78.3504L78.6331 64.2431ZM81.5654 63.5141L80.6886 64.6216L79.8509 63.5141L80.7373 62.4167L81.5654 63.5141ZM81.3022 72.1255L79.9971 72.3052V65.3702L81.3022 65.1709V72.1261V72.1255ZM87.1958 65.1009L86.5822 66.5175C86.5015 66.5052 86.4202 66.4986 86.3386 66.4979C86.2121 66.4979 86.0855 66.5079 85.9584 66.5275C85.8313 66.5471 85.6953 66.5975 85.5497 66.6675C85.277 66.7873 85.043 67.0466 84.8386 67.4357C84.6124 67.8774 84.4953 68.3667 84.4971 68.8629V72.116L83.1925 72.3254V65.3702L84.4002 65.1507V66.5975C84.5559 66.3478 84.7216 66.0987 84.8772 65.8394C85.1012 65.5796 85.3644 65.3904 85.6566 65.2801C85.8123 65.2207 86.095 65.1703 86.5234 65.1306C86.9327 65.1009 87.1667 65.0807 87.1958 65.1009ZM96.917 72.1255L95.6118 72.3153V67.5555C95.6118 67.116 95.5144 66.7969 95.3195 66.5975C95.1247 66.3976 94.8324 66.298 94.4523 66.298C93.9948 66.298 93.6437 66.4878 93.4103 66.8668C93.254 67.1261 93.1667 67.4055 93.1667 67.6849V72.1154L91.8615 72.3551V67.5852C91.8615 67.1664 91.7641 66.8467 91.5788 66.6278C91.3839 66.4077 91.1309 66.298 90.7994 66.298H90.6729C90.2149 66.298 89.8834 66.4878 89.679 66.8769C89.5234 67.1664 89.4455 67.5354 89.4455 67.9844V72.1154L88.0917 72.3551V65.3702L89.3089 65.1608V66.0488C89.4455 65.8389 89.5816 65.6692 89.7087 65.5499C90.0592 65.2207 90.4685 65.0606 90.9259 65.0606C91.4422 65.0606 91.8218 65.1406 92.085 65.3103C92.3089 65.4503 92.5234 65.7291 92.7378 66.1283C93.1857 65.42 93.819 65.0606 94.6572 65.0606C95.4556 65.0606 96.0502 65.3103 96.4394 65.8193C96.7613 66.2381 96.917 66.8568 96.917 67.6653V72.1255ZM102.88 70.0203C102.88 70.6586 102.656 71.1877 102.208 71.597C101.76 72.0158 101.195 72.2157 100.513 72.2157C99.9965 72.2157 99.5385 72.0958 99.1197 71.8562C98.7008 71.6171 98.3895 71.3472 98.1846 71.0281L99.1006 70.2101C99.1684 70.3097 99.2272 70.3892 99.2854 70.4491C99.6269 70.7985 100.036 70.9783 100.513 70.9783C100.844 70.9783 101.107 70.8887 101.292 70.719C101.487 70.5494 101.575 70.3097 101.575 70.0001C101.575 69.6513 101.351 69.4116 100.903 69.2817C100.016 69.0124 99.5385 68.8629 99.4707 68.8327C99.0614 68.6233 98.7691 68.4038 98.5838 68.1541C98.3795 67.8646 98.2725 67.4855 98.2725 66.9967C98.2725 66.3976 98.4965 65.8993 98.9349 65.5001C99.3733 65.1009 99.899 64.9111 100.503 64.9111C100.961 64.9111 101.39 65.0107 101.779 65.2207C102.169 65.4301 102.451 65.6496 102.617 65.9094L101.837 66.7571C101.72 66.6399 101.593 66.5331 101.458 66.438C101.146 66.2185 100.844 66.1087 100.562 66.1087C100.289 66.1087 100.065 66.1686 99.8895 66.2879C99.6846 66.438 99.5777 66.6574 99.5777 66.9469C99.5777 67.2263 99.6751 67.4357 99.88 67.5656C100.055 67.6754 100.425 67.7952 101.01 67.9245C101.594 68.0645 102.042 68.3041 102.364 68.6434C102.724 69.0023 102.88 69.4514 102.88 70.0203Z" fill="#3A7AF3"/>
<defs>
<linearGradient id="paint0_linear_131_100" x1="29.4537" y1="9.46846" x2="29.4537" y2="0.0658688" gradientUnits="userSpaceOnUse">
<stop stop-color="#797979"/>
<stop offset="1" stop-color="#D7D7D7"/>
</linearGradient>
<linearGradient id="paint1_linear_131_100" x1="45.7856" y1="105.442" x2="45.7856" y2="93.6053" gradientUnits="userSpaceOnUse">
<stop stop-color="#797979"/>
<stop offset="1" stop-color="#D7D7D7"/>
</linearGradient>
<linearGradient id="paint2_linear_131_100" x1="42.3989" y1="109.605" x2="42.3989" y2="104.296" gradientUnits="userSpaceOnUse">
<stop stop-color="#797979"/>
<stop offset="1" stop-color="#D7D7D7"/>
</linearGradient>
<linearGradient id="paint3_linear_131_100" x1="36.507" y1="101.693" x2="36.507" y2="88.8003" gradientUnits="userSpaceOnUse">
<stop stop-color="#797979"/>
<stop offset="1" stop-color="#D7D7D7"/>
</linearGradient>
<linearGradient id="paint4_linear_131_100" x1="32.1851" y1="104.546" x2="32.1851" y2="99.1737" gradientUnits="userSpaceOnUse">
<stop stop-color="#797979"/>
<stop offset="1" stop-color="#D7D7D7"/>
</linearGradient>
<linearGradient id="paint5_linear_131_100" x1="28.6109" y1="96.3223" x2="28.6109" y2="82.8316" gradientUnits="userSpaceOnUse">
<stop stop-color="#797979"/>
<stop offset="1" stop-color="#D7D7D7"/>
</linearGradient>
<linearGradient id="paint6_linear_131_100" x1="23.4498" y1="98.1099" x2="23.4498" y2="92.2089" gradientUnits="userSpaceOnUse">
<stop stop-color="#797979"/>
<stop offset="1" stop-color="#D7D7D7"/>
</linearGradient>
<linearGradient id="paint7_linear_131_100" x1="22.1318" y1="89.5735" x2="22.1318" y2="75.9122" gradientUnits="userSpaceOnUse">
<stop stop-color="#797979"/>
<stop offset="1" stop-color="#D7D7D7"/>
</linearGradient>
<linearGradient id="paint8_linear_131_100" x1="16.2469" y1="90.5262" x2="16.2469" y2="83.6666" gradientUnits="userSpaceOnUse">
<stop stop-color="#797979"/>
<stop offset="1" stop-color="#D7D7D7"/>
</linearGradient>
<linearGradient id="paint9_linear_131_100" x1="17.1" y1="81.6717" x2="17.1" y2="68.2452" gradientUnits="userSpaceOnUse">
<stop stop-color="#797979"/>
<stop offset="1" stop-color="#D7D7D7"/>
</linearGradient>
<linearGradient id="paint10_linear_131_100" x1="10.6504" y1="82.0456" x2="10.6504" y2="73.8079" gradientUnits="userSpaceOnUse">
<stop stop-color="#797979"/>
<stop offset="1" stop-color="#D7D7D7"/>
</linearGradient>
<linearGradient id="paint11_linear_131_100" x1="13.5737" y1="72.8839" x2="13.5737" y2="60.0444" gradientUnits="userSpaceOnUse">
<stop stop-color="#797979"/>
<stop offset="1" stop-color="#D7D7D7"/>
</linearGradient>
<linearGradient id="paint12_linear_131_100" x1="6.69871" y1="72.9263" x2="6.69871" y2="63.0542" gradientUnits="userSpaceOnUse">
<stop stop-color="#797979"/>
<stop offset="1" stop-color="#D7D7D7"/>
</linearGradient>
<linearGradient id="paint13_linear_131_100" x1="11.6439" y1="63.4449" x2="11.6439" y2="51.5233" gradientUnits="userSpaceOnUse">
<stop stop-color="#797979"/>
<stop offset="1" stop-color="#D7D7D7"/>
</linearGradient>
<linearGradient id="paint14_linear_131_100" x1="4.46524" y1="63.4129" x2="4.46524" y2="51.865" gradientUnits="userSpaceOnUse">
<stop stop-color="#797979"/>
<stop offset="1" stop-color="#D7D7D7"/>
</linearGradient>
<linearGradient id="paint15_linear_131_100" x1="11.2144" y1="53.6001" x2="11.2144" y2="42.8844" gradientUnits="userSpaceOnUse">
<stop stop-color="#797979"/>
<stop offset="1" stop-color="#D7D7D7"/>
</linearGradient>
<linearGradient id="paint16_linear_131_100" x1="3.9499" y1="53.5991" x2="3.9499" y2="40.5889" gradientUnits="userSpaceOnUse">
<stop stop-color="#797979"/>
<stop offset="1" stop-color="#D7D7D7"/>
</linearGradient>
<linearGradient id="paint17_linear_131_100" x1="12.2604" y1="43.6063" x2="12.2604" y2="34.3134" gradientUnits="userSpaceOnUse">
<stop stop-color="#797979"/>
<stop offset="1" stop-color="#D7D7D7"/>
</linearGradient>
<linearGradient id="paint18_linear_131_100" x1="5.05396" y1="43.6146" x2="5.05396" y2="29.4626" gradientUnits="userSpaceOnUse">
<stop stop-color="#797979"/>
<stop offset="1" stop-color="#D7D7D7"/>
</linearGradient>
<linearGradient id="paint19_linear_131_100" x1="14.9743" y1="33.7181" x2="14.9743" y2="25.8498" gradientUnits="userSpaceOnUse">
<stop stop-color="#797979"/>
<stop offset="1" stop-color="#D7D7D7"/>
</linearGradient>
<linearGradient id="paint20_linear_131_100" x1="8.20209" y1="33.7481" x2="8.20209" y2="18.8167" gradientUnits="userSpaceOnUse">
<stop stop-color="#797979"/>
<stop offset="1" stop-color="#D7D7D7"/>
</linearGradient>
<linearGradient id="paint21_linear_131_100" x1="19.3959" y1="24.3439" x2="19.3959" y2="17.6646" gradientUnits="userSpaceOnUse">
<stop stop-color="#797979"/>
<stop offset="1" stop-color="#D7D7D7"/>
</linearGradient>
<linearGradient id="paint22_linear_131_100" x1="13.4434" y1="24.2126" x2="13.4434" y2="8.90758" gradientUnits="userSpaceOnUse">
<stop stop-color="#797979"/>
<stop offset="1" stop-color="#D7D7D7"/>
</linearGradient>
<linearGradient id="paint23_linear_131_100" x1="25.6009" y1="15.8873" x2="25.6009" y2="10.0448" gradientUnits="userSpaceOnUse">
<stop stop-color="#797979"/>
<stop offset="1" stop-color="#D7D7D7"/>
</linearGradient>
<linearGradient id="paint24_linear_131_100" x1="20.8388" y1="15.2538" x2="20.8388" y2="0.00229629" gradientUnits="userSpaceOnUse">
<stop stop-color="#797979"/>
<stop offset="1" stop-color="#D7D7D7"/>
</linearGradient>
<linearGradient id="paint25_linear_131_100" x1="36.0108" y1="106.747" x2="36.0108" y2="6.72111" gradientUnits="userSpaceOnUse">
<stop stop-color="#797979"/>
<stop offset="1" stop-color="#D7D7D7"/>
</linearGradient>
<linearGradient id="paint26_linear_131_100" x1="97.9213" y1="9.46846" x2="97.9213" y2="0.0658688" gradientUnits="userSpaceOnUse">
<stop stop-color="#797979"/>
<stop offset="1" stop-color="#D7D7D7"/>
</linearGradient>
<linearGradient id="paint27_linear_131_100" x1="81.576" y1="105.442" x2="81.576" y2="93.6053" gradientUnits="userSpaceOnUse">
<stop stop-color="#797979"/>
<stop offset="1" stop-color="#D7D7D7"/>
</linearGradient>
<linearGradient id="paint28_linear_131_100" x1="84.9833" y1="109.605" x2="84.9833" y2="104.296" gradientUnits="userSpaceOnUse">
<stop stop-color="#797979"/>
<stop offset="1" stop-color="#D7D7D7"/>
</linearGradient>
<linearGradient id="paint29_linear_131_100" x1="90.8517" y1="101.693" x2="90.8517" y2="88.8003" gradientUnits="userSpaceOnUse">
<stop stop-color="#797979"/>
<stop offset="1" stop-color="#D7D7D7"/>
</linearGradient>
<linearGradient id="paint30_linear_131_100" x1="95.1962" y1="104.546" x2="95.1962" y2="99.1737" gradientUnits="userSpaceOnUse">
<stop stop-color="#797979"/>
<stop offset="1" stop-color="#D7D7D7"/>
</linearGradient>
<linearGradient id="paint31_linear_131_100" x1="98.757" y1="96.3223" x2="98.757" y2="82.8316" gradientUnits="userSpaceOnUse">
<stop stop-color="#797979"/>
<stop offset="1" stop-color="#D7D7D7"/>
</linearGradient>
<linearGradient id="paint32_linear_131_100" x1="103.93" y1="98.1099" x2="103.93" y2="92.2089" gradientUnits="userSpaceOnUse">
<stop stop-color="#797979"/>
<stop offset="1" stop-color="#D7D7D7"/>
</linearGradient>
<linearGradient id="paint33_linear_131_100" x1="105.235" y1="89.5735" x2="105.235" y2="75.9122" gradientUnits="userSpaceOnUse">
<stop stop-color="#797979"/>
<stop offset="1" stop-color="#D7D7D7"/>
</linearGradient>
<linearGradient id="paint34_linear_131_100" x1="111.132" y1="90.5262" x2="111.132" y2="83.6666" gradientUnits="userSpaceOnUse">
<stop stop-color="#797979"/>
<stop offset="1" stop-color="#D7D7D7"/>
</linearGradient>
<linearGradient id="paint35_linear_131_100" x1="110.266" y1="81.6717" x2="110.266" y2="68.2452" gradientUnits="userSpaceOnUse">
<stop stop-color="#797979"/>
<stop offset="1" stop-color="#D7D7D7"/>
</linearGradient>
<linearGradient id="paint36_linear_131_100" x1="116.727" y1="82.0456" x2="116.727" y2="73.8079" gradientUnits="userSpaceOnUse">
<stop stop-color="#797979"/>
<stop offset="1" stop-color="#D7D7D7"/>
</linearGradient>
<linearGradient id="paint37_linear_131_100" x1="113.787" y1="72.8839" x2="113.787" y2="60.0444" gradientUnits="userSpaceOnUse">
<stop stop-color="#797979"/>
<stop offset="1" stop-color="#D7D7D7"/>
</linearGradient>
<linearGradient id="paint38_linear_131_100" x1="120.677" y1="72.9263" x2="120.677" y2="63.0542" gradientUnits="userSpaceOnUse">
<stop stop-color="#797979"/>
<stop offset="1" stop-color="#D7D7D7"/>
</linearGradient>
<linearGradient id="paint39_linear_131_100" x1="115.725" y1="63.4449" x2="115.725" y2="51.5233" gradientUnits="userSpaceOnUse">
<stop stop-color="#797979"/>
<stop offset="1" stop-color="#D7D7D7"/>
</linearGradient>
<linearGradient id="paint40_linear_131_100" x1="122.898" y1="63.4129" x2="122.898" y2="51.865" gradientUnits="userSpaceOnUse">
<stop stop-color="#797979"/>
<stop offset="1" stop-color="#D7D7D7"/>
</linearGradient>
<linearGradient id="paint41_linear_131_100" x1="116.156" y1="53.6001" x2="116.156" y2="42.8844" gradientUnits="userSpaceOnUse">
<stop stop-color="#797979"/>
<stop offset="1" stop-color="#D7D7D7"/>
</linearGradient>
<linearGradient id="paint42_linear_131_100" x1="123.418" y1="53.5991" x2="123.418" y2="40.5889" gradientUnits="userSpaceOnUse">
<stop stop-color="#797979"/>
<stop offset="1" stop-color="#D7D7D7"/>
</linearGradient>
<linearGradient id="paint43_linear_131_100" x1="115.102" y1="43.6063" x2="115.102" y2="34.3134" gradientUnits="userSpaceOnUse">
<stop stop-color="#797979"/>
<stop offset="1" stop-color="#D7D7D7"/>
</linearGradient>
<linearGradient id="paint44_linear_131_100" x1="122.306" y1="43.6146" x2="122.306" y2="29.4626" gradientUnits="userSpaceOnUse">
<stop stop-color="#797979"/>
<stop offset="1" stop-color="#D7D7D7"/>
</linearGradient>
<linearGradient id="paint45_linear_131_100" x1="112.401" y1="33.7181" x2="112.401" y2="25.8498" gradientUnits="userSpaceOnUse">
<stop stop-color="#797979"/>
<stop offset="1" stop-color="#D7D7D7"/>
</linearGradient>
<linearGradient id="paint46_linear_131_100" x1="119.155" y1="33.7481" x2="119.155" y2="18.8167" gradientUnits="userSpaceOnUse">
<stop stop-color="#797979"/>
<stop offset="1" stop-color="#D7D7D7"/>
</linearGradient>
<linearGradient id="paint47_linear_131_100" x1="107.971" y1="24.3439" x2="107.971" y2="17.6646" gradientUnits="userSpaceOnUse">
<stop stop-color="#797979"/>
<stop offset="1" stop-color="#D7D7D7"/>
</linearGradient>
<linearGradient id="paint48_linear_131_100" x1="113.913" y1="24.2126" x2="113.913" y2="8.90758" gradientUnits="userSpaceOnUse">
<stop stop-color="#797979"/>
<stop offset="1" stop-color="#D7D7D7"/>
</linearGradient>
<linearGradient id="paint49_linear_131_100" x1="101.768" y1="15.8873" x2="101.768" y2="10.0448" gradientUnits="userSpaceOnUse">
<stop stop-color="#797979"/>
<stop offset="1" stop-color="#D7D7D7"/>
</linearGradient>
<linearGradient id="paint50_linear_131_100" x1="106.531" y1="15.2538" x2="106.531" y2="0.00229629" gradientUnits="userSpaceOnUse">
<stop stop-color="#797979"/>
<stop offset="1" stop-color="#D7D7D7"/>
</linearGradient>
<linearGradient id="paint51_linear_131_100" x1="91.419" y1="106.747" x2="91.419" y2="6.72111" gradientUnits="userSpaceOnUse">
<stop stop-color="#797979"/>
<stop offset="1" stop-color="#D7D7D7"/>
</linearGradient>
<linearGradient id="paint52_linear_131_100" x1="63.9236" y1="111.39" x2="63.9236" y2="102.51" gradientUnits="userSpaceOnUse">
<stop stop-color="#797979"/>
<stop offset="1" stop-color="#D7D7D7"/>
</linearGradient>
</defs>
</svg>
