<svg width="128" height="112" viewBox="0 0 128 112" fill="none" xmlns="http://www.w3.org/2000/svg">
<path d="M52.1866 68.0824V66.266L56.741 59.0909H58.307V61.6051H57.3802L54.5091 66.1488V66.234H60.981V68.0824H52.1866ZM57.4228 70V67.5284L57.4654 66.7241V59.0909H59.628V70H57.4228ZM63.6604 70.1385C63.3088 70.1385 63.0069 70.0142 62.7548 69.7656C62.5062 69.5135 62.3819 69.2116 62.3819 68.8601C62.3819 68.5121 62.5062 68.2138 62.7548 67.9652C63.0069 67.7166 63.3088 67.5923 63.6604 67.5923C64.0013 67.5923 64.2996 67.7166 64.5552 67.9652C64.8109 68.2138 64.9388 68.5121 64.9388 68.8601C64.9388 69.0945 64.8784 69.3093 64.7577 69.5046C64.6405 69.6964 64.486 69.8509 64.2942 69.968C64.1025 70.0817 63.8912 70.1385 63.6604 70.1385ZM70.4106 70.1491C69.5903 70.1491 68.8606 70.016 68.2213 69.7496C67.5857 69.4798 67.0868 69.1122 66.7245 68.647C66.3623 68.1818 66.1812 67.6545 66.1812 67.065C66.1812 66.6104 66.2842 66.1932 66.4902 65.8132C66.6997 65.4297 66.9838 65.1119 67.3424 64.8597C67.7011 64.604 68.1024 64.4407 68.5463 64.3697V64.2951C67.9639 64.1779 67.4916 63.8956 67.1294 63.4482C66.7672 62.9972 66.586 62.4734 66.586 61.8768C66.586 61.3121 66.7512 60.8097 67.0814 60.3693C67.4117 59.9254 67.8645 59.5774 68.4397 59.3253C69.0186 59.0696 69.6755 58.9418 70.4106 58.9418C71.1457 58.9418 71.8009 59.0696 72.3762 59.3253C72.955 59.581 73.4096 59.9308 73.7398 60.3746C74.0701 60.815 74.237 61.3157 74.2405 61.8768C74.237 62.4769 74.0523 63.0007 73.6865 63.4482C73.3208 63.8956 72.852 64.1779 72.2803 64.2951V64.3697C72.7171 64.4407 73.113 64.604 73.4682 64.8597C73.8268 65.1119 74.1109 65.4297 74.3204 65.8132C74.5335 66.1932 74.6418 66.6104 74.6454 67.065C74.6418 67.6545 74.4589 68.1818 74.0967 68.647C73.7345 69.1122 73.2338 69.4798 72.5946 69.7496C71.9589 70.016 71.2309 70.1491 70.4106 70.1491ZM70.4106 68.4553C70.7764 68.4553 71.096 68.3896 71.3694 68.2582C71.6429 68.1232 71.8559 67.9386 72.0086 67.7042C72.1649 67.4663 72.243 67.1928 72.243 66.8839C72.243 66.5678 72.1631 66.2891 72.0033 66.0476C71.8435 65.8026 71.6269 65.6108 71.3534 65.4723C71.08 65.3303 70.7657 65.2592 70.4106 65.2592C70.0591 65.2592 69.7448 65.3303 69.4678 65.4723C69.1908 65.6108 68.9724 65.8026 68.8126 66.0476C68.6564 66.2891 68.5782 66.5678 68.5782 66.8839C68.5782 67.1928 68.6546 67.4663 68.8073 67.7042C68.96 67.9386 69.1748 68.1232 69.4518 68.2582C69.7288 68.3896 70.0484 68.4553 70.4106 68.4553ZM70.4106 63.5813C70.716 63.5813 70.9877 63.5192 71.2256 63.3949C71.4635 63.2706 71.65 63.0984 71.7849 62.8782C71.9199 62.658 71.9873 62.4041 71.9873 62.1165C71.9873 61.8324 71.9199 61.5838 71.7849 61.3707C71.65 61.1541 71.4653 60.9854 71.2309 60.8647C70.9966 60.7404 70.7231 60.6783 70.4106 60.6783C70.1017 60.6783 69.8282 60.7404 69.5903 60.8647C69.3524 60.9854 69.1659 61.1541 69.031 61.3707C68.8996 61.5838 68.8339 61.8324 68.8339 62.1165C68.8339 62.4041 68.9014 62.658 69.0363 62.8782C69.1713 63.0984 69.3577 63.2706 69.5956 63.3949C69.8336 63.5192 70.1052 63.5813 70.4106 63.5813ZM38.7648 76.0625C38.725 75.9242 38.6691 75.8021 38.5971 75.696C38.5252 75.5881 38.4371 75.4972 38.3329 75.4233C38.2307 75.3475 38.1132 75.2898 37.9807 75.25C37.85 75.2102 37.7051 75.1903 37.546 75.1903C37.2487 75.1903 36.9873 75.2642 36.7619 75.4119C36.5384 75.5597 36.3642 75.7746 36.2392 76.0568C36.1142 76.3371 36.0517 76.6799 36.0517 77.0852C36.0517 77.4905 36.1132 77.8352 36.2364 78.1193C36.3595 78.4034 36.5337 78.6203 36.7591 78.7699C36.9845 78.9176 37.2506 78.9915 37.5574 78.9915C37.8358 78.9915 38.0735 78.9422 38.2704 78.8438C38.4693 78.7434 38.6208 78.6023 38.725 78.4205C38.831 78.2386 38.8841 78.0237 38.8841 77.7756L39.1341 77.8125H37.6341V76.8864H40.0687V77.6193C40.0687 78.1307 39.9608 78.5701 39.7449 78.9375C39.529 79.303 39.2316 79.5852 38.8528 79.7841C38.474 79.9811 38.0403 80.0795 37.5517 80.0795C37.0062 80.0795 36.5271 79.9593 36.1142 79.7188C35.7013 79.4763 35.3793 79.1326 35.1483 78.6875C34.9191 78.2405 34.8045 77.7102 34.8045 77.0966C34.8045 76.625 34.8727 76.2045 35.0091 75.8352C35.1473 75.464 35.3405 75.1496 35.5886 74.892C35.8367 74.6345 36.1256 74.4384 36.4551 74.304C36.7846 74.1695 37.1417 74.1023 37.5261 74.1023C37.8557 74.1023 38.1625 74.1506 38.4466 74.2472C38.7307 74.3419 38.9826 74.4763 39.2023 74.6506C39.4239 74.8248 39.6047 75.0322 39.7449 75.2727C39.885 75.5114 39.975 75.7746 40.0148 76.0625H38.7648ZM42.9416 80.0852C42.5003 80.0852 42.1187 79.9915 41.7967 79.804C41.4766 79.6146 41.2295 79.3513 41.0552 79.0142C40.881 78.6752 40.7939 78.2822 40.7939 77.8352C40.7939 77.3845 40.881 76.9905 41.0552 76.6534C41.2295 76.3144 41.4766 76.0511 41.7967 75.8636C42.1187 75.6742 42.5003 75.5795 42.9416 75.5795C43.3829 75.5795 43.7636 75.6742 44.0837 75.8636C44.4056 76.0511 44.6537 76.3144 44.828 76.6534C45.0022 76.9905 45.0893 77.3845 45.0893 77.8352C45.0893 78.2822 45.0022 78.6752 44.828 79.0142C44.6537 79.3513 44.4056 79.6146 44.0837 79.804C43.7636 79.9915 43.3829 80.0852 42.9416 80.0852ZM42.9473 79.1477C43.148 79.1477 43.3157 79.0909 43.4501 78.9773C43.5846 78.8617 43.6859 78.7045 43.7541 78.5057C43.8242 78.3068 43.8592 78.0805 43.8592 77.8267C43.8592 77.5729 43.8242 77.3466 43.7541 77.1477C43.6859 76.9489 43.5846 76.7917 43.4501 76.6761C43.3157 76.5606 43.148 76.5028 42.9473 76.5028C42.7446 76.5028 42.5742 76.5606 42.4359 76.6761C42.2996 76.7917 42.1963 76.9489 42.1263 77.1477C42.0581 77.3466 42.024 77.5729 42.024 77.8267C42.024 78.0805 42.0581 78.3068 42.1263 78.5057C42.1963 78.7045 42.2996 78.8617 42.4359 78.9773C42.5742 79.0909 42.7446 79.1477 42.9473 79.1477ZM47.8479 80.0852C47.4066 80.0852 47.0249 79.9915 46.703 79.804C46.3829 79.6146 46.1357 79.3513 45.9615 79.0142C45.7872 78.6752 45.7001 78.2822 45.7001 77.8352C45.7001 77.3845 45.7872 76.9905 45.9615 76.6534C46.1357 76.3144 46.3829 76.0511 46.703 75.8636C47.0249 75.6742 47.4066 75.5795 47.8479 75.5795C48.2891 75.5795 48.6698 75.6742 48.9899 75.8636C49.3119 76.0511 49.56 76.3144 49.7342 76.6534C49.9085 76.9905 49.9956 77.3845 49.9956 77.8352C49.9956 78.2822 49.9085 78.6752 49.7342 79.0142C49.56 79.3513 49.3119 79.6146 48.9899 79.804C48.6698 79.9915 48.2891 80.0852 47.8479 80.0852ZM47.8535 79.1477C48.0543 79.1477 48.2219 79.0909 48.3564 78.9773C48.4908 78.8617 48.5922 78.7045 48.6604 78.5057C48.7304 78.3068 48.7655 78.0805 48.7655 77.8267C48.7655 77.5729 48.7304 77.3466 48.6604 77.1477C48.5922 76.9489 48.4908 76.7917 48.3564 76.6761C48.2219 76.5606 48.0543 76.5028 47.8535 76.5028C47.6509 76.5028 47.4804 76.5606 47.3422 76.6761C47.2058 76.7917 47.1026 76.9489 47.0325 77.1477C46.9643 77.3466 46.9302 77.5729 46.9302 77.8267C46.9302 78.0805 46.9643 78.3068 47.0325 78.5057C47.1026 78.7045 47.2058 78.8617 47.3422 78.9773C47.4804 79.0909 47.6509 79.1477 47.8535 79.1477ZM52.7484 81.7273C52.3564 81.7273 52.0202 81.6733 51.7399 81.5653C51.4615 81.4593 51.2399 81.3144 51.0751 81.1307C50.9104 80.947 50.8033 80.7405 50.7541 80.5114L51.8734 80.3608C51.9075 80.4479 51.9615 80.5294 52.0354 80.6051C52.1092 80.6809 52.2068 80.7415 52.328 80.7869C52.4511 80.8343 52.6007 80.858 52.7768 80.858C53.0401 80.858 53.2569 80.7936 53.4274 80.6648C53.5998 80.5379 53.6859 80.3248 53.6859 80.0256V79.2273H53.6348C53.5818 79.3485 53.5022 79.4631 53.3962 79.571C53.2901 79.679 53.1537 79.767 52.9871 79.8352C52.8204 79.9034 52.6215 79.9375 52.3905 79.9375C52.0628 79.9375 51.7645 79.8617 51.4956 79.7102C51.2285 79.5568 51.0155 79.3229 50.8564 79.0085C50.6992 78.6922 50.6206 78.2926 50.6206 77.8097C50.6206 77.3153 50.7011 76.9025 50.8621 76.571C51.023 76.2396 51.2371 75.9915 51.5041 75.8267C51.773 75.6619 52.0676 75.5795 52.3876 75.5795C52.6319 75.5795 52.8365 75.6212 53.0013 75.7045C53.166 75.786 53.2986 75.8883 53.399 76.0114C53.5013 76.1326 53.5799 76.2519 53.6348 76.3693H53.6802V75.6364H54.8819V80.0426C54.8819 80.4138 54.791 80.7244 54.6092 80.9744C54.4274 81.2244 54.1755 81.4119 53.8535 81.5369C53.5335 81.6638 53.1651 81.7273 52.7484 81.7273ZM52.774 79.0284C52.9691 79.0284 53.1338 78.9801 53.2683 78.8835C53.4047 78.785 53.5088 78.6449 53.5808 78.4631C53.6547 78.2794 53.6916 78.0597 53.6916 77.804C53.6916 77.5483 53.6556 77.3267 53.5837 77.1392C53.5117 76.9498 53.4075 76.803 53.2712 76.6989C53.1348 76.5947 52.9691 76.5426 52.774 76.5426C52.5751 76.5426 52.4075 76.5966 52.2712 76.7045C52.1348 76.8106 52.0316 76.9583 51.9615 77.1477C51.8914 77.3371 51.8564 77.5559 51.8564 77.804C51.8564 78.0559 51.8914 78.2737 51.9615 78.4574C52.0335 78.6392 52.1367 78.7803 52.2712 78.8807C52.4075 78.9792 52.5751 79.0284 52.774 79.0284ZM57.0552 74.1818V80H55.845V74.1818H57.0552ZM60.0133 80.0852C59.5645 80.0852 59.1781 79.9943 58.8542 79.8125C58.5323 79.6288 58.2842 79.3693 58.1099 79.0341C57.9357 78.697 57.8486 78.2983 57.8486 77.8381C57.8486 77.3892 57.9357 76.9953 58.1099 76.6562C58.2842 76.3172 58.5294 76.053 58.8457 75.8636C59.1639 75.6742 59.537 75.5795 59.965 75.5795C60.2529 75.5795 60.5209 75.6259 60.769 75.7188C61.019 75.8097 61.2368 75.947 61.4224 76.1307C61.6099 76.3144 61.7558 76.5455 61.8599 76.8239C61.9641 77.1004 62.0162 77.4242 62.0162 77.7955V78.1278H58.3315V77.3778H60.877C60.877 77.2036 60.8391 77.0492 60.7633 76.9148C60.6876 76.7803 60.5825 76.6752 60.448 76.5994C60.3154 76.5218 60.1611 76.483 59.9849 76.483C59.8012 76.483 59.6383 76.5256 59.4963 76.6108C59.3561 76.6941 59.2463 76.8068 59.1667 76.9489C59.0872 77.089 59.0465 77.2453 59.0446 77.4176V78.1307C59.0446 78.3466 59.0844 78.5331 59.1639 78.6903C59.2453 78.8475 59.3599 78.9688 59.5077 79.054C59.6554 79.1392 59.8306 79.1818 60.0332 79.1818C60.1677 79.1818 60.2908 79.1629 60.4025 79.125C60.5143 79.0871 60.6099 79.0303 60.6895 78.9545C60.769 78.8788 60.8296 78.786 60.8713 78.6761L61.9906 78.75C61.9338 79.0189 61.8173 79.2538 61.6412 79.4545C61.4669 79.6534 61.2416 79.8087 60.965 79.9205C60.6904 80.0303 60.3732 80.0852 60.0133 80.0852ZM64.6802 80V74.1818H66.9757C67.4151 74.1818 67.7901 74.2604 68.1007 74.4176C68.4132 74.5729 68.6509 74.7936 68.8138 75.0795C68.9785 75.3636 69.0609 75.6979 69.0609 76.0824C69.0609 76.4687 68.9776 76.8011 68.8109 77.0795C68.6443 77.3561 68.4028 77.5682 68.0865 77.7159C67.7721 77.8636 67.3914 77.9375 66.9444 77.9375H65.4075V76.9489H66.7456C66.9804 76.9489 67.1755 76.9167 67.3308 76.8523C67.4861 76.7879 67.6016 76.6913 67.6774 76.5625C67.7551 76.4337 67.7939 76.2737 67.7939 76.0824C67.7939 75.8892 67.7551 75.7263 67.6774 75.5938C67.6016 75.4612 67.4852 75.3608 67.328 75.2926C67.1727 75.2225 66.9766 75.1875 66.7399 75.1875H65.9104V80H64.6802ZM67.8223 77.3523L69.2683 80H67.9104L66.4956 77.3523H67.8223ZM71.8258 80.0852C71.377 80.0852 70.9906 79.9943 70.6667 79.8125C70.3448 79.6288 70.0967 79.3693 69.9224 79.0341C69.7482 78.697 69.6611 78.2983 69.6611 77.8381C69.6611 77.3892 69.7482 76.9953 69.9224 76.6562C70.0967 76.3172 70.3419 76.053 70.6582 75.8636C70.9764 75.6742 71.3495 75.5795 71.7775 75.5795C72.0654 75.5795 72.3334 75.6259 72.5815 75.7188C72.8315 75.8097 73.0493 75.947 73.2349 76.1307C73.4224 76.3144 73.5683 76.5455 73.6724 76.8239C73.7766 77.1004 73.8287 77.4242 73.8287 77.7955V78.1278H70.144V77.3778H72.6895C72.6895 77.2036 72.6516 77.0492 72.5758 76.9148C72.5001 76.7803 72.395 76.6752 72.2605 76.5994C72.1279 76.5218 71.9736 76.483 71.7974 76.483C71.6137 76.483 71.4508 76.5256 71.3088 76.6108C71.1686 76.6941 71.0588 76.8068 70.9792 76.9489C70.8997 77.089 70.859 77.2453 70.8571 77.4176V78.1307C70.8571 78.3466 70.8969 78.5331 70.9764 78.6903C71.0578 78.8475 71.1724 78.9688 71.3202 79.054C71.4679 79.1392 71.6431 79.1818 71.8457 79.1818C71.9802 79.1818 72.1033 79.1629 72.215 79.125C72.3268 79.0871 72.4224 79.0303 72.502 78.9545C72.5815 78.8788 72.6421 78.786 72.6838 78.6761L73.8031 78.75C73.7463 79.0189 73.6298 79.2538 73.4537 79.4545C73.2794 79.6534 73.0541 79.8087 72.7775 79.9205C72.5029 80.0303 72.1857 80.0852 71.8258 80.0852ZM78.5694 75.6364L77.0439 80H75.6802L74.1547 75.6364H75.4331L76.3393 78.7585H76.3848L77.2882 75.6364H78.5694ZM79.1888 80V75.6364H80.399V80H79.1888ZM79.7967 75.0739C79.6168 75.0739 79.4624 75.0142 79.3337 74.8949C79.2068 74.7737 79.1433 74.6288 79.1433 74.4602C79.1433 74.2936 79.2068 74.1506 79.3337 74.0312C79.4624 73.91 79.6168 73.8494 79.7967 73.8494C79.9766 73.8494 80.1301 73.91 80.2569 74.0312C80.3857 74.1506 80.4501 74.2936 80.4501 74.4602C80.4501 74.6288 80.3857 74.7737 80.2569 74.8949C80.1301 75.0142 79.9766 75.0739 79.7967 75.0739ZM83.3571 80.0852C82.9082 80.0852 82.5219 79.9943 82.198 79.8125C81.876 79.6288 81.6279 79.3693 81.4537 79.0341C81.2794 78.697 81.1923 78.2983 81.1923 77.8381C81.1923 77.3892 81.2794 76.9953 81.4537 76.6562C81.6279 76.3172 81.8732 76.053 82.1895 75.8636C82.5077 75.6742 82.8808 75.5795 83.3088 75.5795C83.5967 75.5795 83.8647 75.6259 84.1128 75.7188C84.3628 75.8097 84.5806 75.947 84.7662 76.1307C84.9537 76.3144 85.0995 76.5455 85.2037 76.8239C85.3078 77.1004 85.3599 77.4242 85.3599 77.7955V78.1278H81.6753V77.3778H84.2207C84.2207 77.2036 84.1828 77.0492 84.1071 76.9148C84.0313 76.7803 83.9262 76.6752 83.7917 76.5994C83.6592 76.5218 83.5048 76.483 83.3287 76.483C83.145 76.483 82.9821 76.5256 82.84 76.6108C82.6999 76.6941 82.59 76.8068 82.5105 76.9489C82.431 77.089 82.3902 77.2453 82.3883 77.4176V78.1307C82.3883 78.3466 82.4281 78.5331 82.5077 78.6903C82.5891 78.8475 82.7037 78.9688 82.8514 79.054C82.9991 79.1392 83.1743 79.1818 83.377 79.1818C83.5114 79.1818 83.6346 79.1629 83.7463 79.125C83.858 79.0871 83.9537 79.0303 84.0332 78.9545C84.1128 78.8788 84.1734 78.786 84.215 78.6761L85.3344 78.75C85.2775 79.0189 85.1611 79.2538 84.9849 79.4545C84.8107 79.6534 84.5853 79.8087 84.3088 79.9205C84.0342 80.0303 83.7169 80.0852 83.3571 80.0852ZM86.9792 80L85.7917 75.6364H87.0162L87.6923 78.5682H87.7321L88.4366 75.6364H89.6383L90.3542 78.5511H90.3912L91.056 75.6364H92.2775L91.0929 80H89.8116L89.0616 77.2557H89.0077L88.2577 80H86.9792Z" fill="#f5f5f5"/>
<path d="M57.4536 36.1543C57.4536 38.9303 55.25 40.976 52.5455 40.976C49.8411 40.976 47.6375 38.9303 47.6375 36.1543C47.6375 33.3586 49.8411 31.3325 52.5455 31.3325C55.25 31.3325 57.4536 33.3586 57.4536 36.1543ZM55.3051 36.1543C55.3051 34.4195 54.0279 33.2325 52.5455 33.2325C51.0632 33.2325 49.786 34.4195 49.786 36.1543C49.786 37.8716 51.0632 39.076 52.5455 39.076C54.0279 39.076 55.3051 37.8695 55.3051 36.1543Z" fill="#EA4335"/>
<path d="M68.042 36.1543C68.042 38.9303 65.8383 40.976 63.1339 40.976C60.4295 40.976 58.2258 38.9303 58.2258 36.1543C58.2258 33.3608 60.4295 31.3325 63.1339 31.3325C65.8383 31.3325 68.042 33.3586 68.042 36.1543ZM65.8935 36.1543C65.8935 34.4195 64.6163 33.2325 63.1339 33.2325C61.6516 33.2325 60.3744 34.4195 60.3744 36.1543C60.3744 37.8716 61.6516 39.076 63.1339 39.076C64.6163 39.076 65.8935 37.8695 65.8935 36.1543Z" fill="#FBBC05"/>
<path d="M78.189 31.6238V40.2803C78.189 43.8412 76.0581 45.2956 73.539 45.2956C71.1677 45.2956 69.7405 43.7325 69.2022 42.4543L71.0728 41.6869C71.4059 42.4716 72.2221 43.3977 73.5368 43.3977C75.1493 43.3977 76.1485 42.4173 76.1485 40.5716V39.8782H76.0735C75.5927 40.463 74.6662 40.9738 73.4971 40.9738C71.0507 40.9738 68.8096 38.8738 68.8096 36.1716C68.8096 33.4499 71.0507 31.3325 73.4971 31.3325C74.664 31.3325 75.5905 31.8434 76.0735 32.4108H76.1485V31.626H78.189V31.6238ZM76.3007 36.1716C76.3007 34.4738 75.1515 33.2325 73.689 33.2325C72.2066 33.2325 70.9647 34.4738 70.9647 36.1716C70.9647 37.8521 72.2066 39.076 73.689 39.076C75.1515 39.076 76.3007 37.8521 76.3007 36.1716Z" fill="#4285F4"/>
<path d="M81.5529 26.5503V40.6807H79.4573V26.5503H81.5529Z" fill="#34A853"/>
<path d="M89.719 37.7414L91.3867 38.8371C90.8485 39.6219 89.5514 40.974 87.3102 40.974C84.5308 40.974 82.4551 38.8567 82.4551 36.1523C82.4551 33.2849 84.5485 31.3306 87.0698 31.3306C89.6088 31.3306 90.8507 33.3219 91.2565 34.398L91.4793 34.9458L84.9389 37.6153C85.4396 38.5827 86.2183 39.0762 87.3102 39.0762C88.4043 39.0762 89.1632 38.5458 89.719 37.7414ZM84.586 36.0067L88.958 34.2175C88.7176 33.6153 87.994 33.1958 87.1426 33.1958C86.0507 33.1958 84.5308 34.1458 84.586 36.0067V36.0067Z" fill="#EA4335"/>
<path d="M39.7051 34.9V32.8543H46.7C46.7684 33.2109 46.8037 33.6326 46.8037 34.0891C46.8037 35.6239 46.3779 37.5217 45.0059 38.8739C43.6713 40.2435 41.9662 40.9739 39.7074 40.9739C35.5206 40.9739 32 37.613 32 33.487C32 29.3609 35.5206 26 39.7074 26C42.0235 26 43.6735 26.8957 44.9132 28.063L43.4485 29.5065C42.5596 28.6848 41.3551 28.0457 39.7051 28.0457C36.6478 28.0457 34.2566 30.4739 34.2566 33.487C34.2566 36.5 36.6478 38.9283 39.7051 38.9283C41.6882 38.9283 42.8176 38.1435 43.5412 37.4304C44.1279 36.8522 44.514 36.0261 44.6662 34.8978L39.7051 34.9V34.9Z" fill="#4285F4"/>
<path d="M27.6472 2.79802C24.7962 5.39278 24.2837 9.47177 24.2837 9.47177C24.2837 9.47177 28.3947 9.33296 31.2457 6.7382C34.0967 4.14345 34.6093 0.0644531 34.6093 0.0644531C34.6093 0.0644531 30.4876 0.203267 27.6472 2.79802Z" fill="url(#paint0_linear_131_101)"/>
<path d="M47.6788 98.5688C50.1348 101.719 50.2843 105.435 50.2415 105.445C50.2522 105.488 45.0947 104.047 42.7776 100.576C40.4605 97.1486 41.5924 93.5929 41.5603 93.6035C41.5817 93.6356 45.2336 95.4508 47.6788 98.5688Z" fill="url(#paint1_linear_131_101)"/>
<path d="M44.0698 109.46C48.5972 108.691 50.2844 105.275 50.2844 105.296C50.231 105.317 45.3832 103.908 41.1974 104.399C36.9796 104.911 34.5023 107.538 34.4916 107.56C34.4382 107.592 39.4889 110.25 44.0698 109.46Z" fill="url(#paint2_linear_131_101)"/>
<path d="M38.7307 94.6285C40.4179 98.0882 39.8092 101.697 39.7772 101.697C39.7772 101.74 35.2497 99.4977 33.7228 95.7497C32.1958 92.0444 33.9363 88.7983 33.9043 88.7983C33.915 88.8411 37.0436 91.2116 38.7307 94.6285Z" fill="url(#paint3_linear_131_101)"/>
<path d="M33.2104 104.548C37.6097 104.559 39.8521 101.537 39.8414 101.569C39.788 101.58 35.5382 99.4229 31.4806 99.188C27.3802 98.9744 24.5185 101.089 24.5078 101.11C24.4544 101.121 28.7577 104.548 33.2104 104.548Z" fill="url(#paint4_linear_131_101)"/>
<path d="M31.0106 89.3111C31.9717 92.9417 30.6903 96.3266 30.6689 96.3266C30.6689 96.3693 26.7821 93.4328 26.0133 89.5354C25.2232 85.6806 27.4976 82.8296 27.4655 82.8296C27.4549 82.8723 30.0496 85.7127 31.0106 89.3111Z" fill="url(#paint5_linear_131_101)"/>
<path d="M23.8563 97.9707C28.0527 98.7289 30.7543 96.1875 30.7436 96.2195C30.7009 96.2195 27.0703 93.4112 23.2049 92.4929C19.3074 91.5853 16.1467 93.1336 16.1361 93.1656C16.0827 93.1549 19.6064 97.2126 23.8563 97.9707Z" fill="url(#paint6_linear_131_101)"/>
<path d="M24.5612 82.8295C24.8282 86.5134 22.9702 89.578 22.9488 89.578C22.9382 89.6207 19.7348 86.097 19.6707 82.1781C19.5959 78.302 22.2975 75.9208 22.2654 75.9102C22.2548 75.9529 24.2836 79.1669 24.5612 82.8295Z" fill="url(#paint7_linear_131_101)"/>
<path d="M16.0721 89.9942C19.9909 91.4571 23.0555 89.4496 23.0448 89.4816C23.0021 89.4709 20.023 86.1287 16.4245 84.5591C12.8046 83.0001 9.44111 83.9504 9.43043 83.9718C9.38772 83.9611 12.0999 88.5313 16.0721 89.9942Z" fill="url(#paint8_linear_131_101)"/>
<path d="M19.4464 75.3974C19.062 79.0386 16.7129 81.6868 16.6915 81.6761C16.6809 81.7188 14.1822 77.7359 14.7802 73.9025C15.3675 70.1011 18.4107 68.2538 18.3893 68.2432C18.3786 68.2752 19.8095 71.7883 19.4464 75.3974Z" fill="url(#paint9_linear_131_101)"/>
<path d="M9.92149 80.886C13.4879 83.0003 16.8195 81.5801 16.8088 81.6015C16.7767 81.5908 14.4596 77.8108 11.2135 75.6431C7.93538 73.4755 4.48639 73.8172 4.47571 73.8385C4.42232 73.8279 6.31233 78.7611 9.92149 80.886Z" fill="url(#paint10_linear_131_101)"/>
<path d="M15.7092 67.2394C14.7268 70.7312 11.9719 72.8988 11.9505 72.8881C11.9292 72.9308 10.1566 68.5956 11.3952 64.9437C12.6019 61.3238 15.8907 60.0532 15.8693 60.0425C15.8587 60.0745 16.6809 63.7798 15.7092 67.2394Z" fill="url(#paint11_linear_131_101)"/>
<path d="M5.46886 70.9128C8.60819 73.6143 12.0999 72.8135 12.0785 72.8348C12.0465 72.8135 10.4234 68.7131 7.60446 66.0223C4.76411 63.3207 1.3258 63.0324 1.30444 63.0538C1.27241 63.0324 2.28682 68.2006 5.46886 70.9128Z" fill="url(#paint12_linear_131_101)"/>
<path d="M13.424 58.5796C11.8757 61.8364 8.82183 63.4702 8.80047 63.4488C8.77912 63.4915 7.7647 58.9213 9.57996 55.5471C11.3631 52.2049 14.8015 51.5322 14.7801 51.5215C14.7588 51.5535 14.9403 55.3442 13.424 58.5796Z" fill="url(#paint13_linear_131_101)"/>
<path d="M2.76739 60.3524C5.39417 63.5558 8.93927 63.3956 8.91791 63.417C8.88588 63.3956 7.97825 59.0817 5.6718 55.921C3.33332 52.7496 0.0231407 51.8527 0.00178506 51.8634C-0.0195705 51.842 0.108567 57.1276 2.76739 60.3524Z" fill="url(#paint14_linear_131_101)"/>
<path d="M12.623 49.6313C10.5622 52.5678 7.29476 53.6249 7.28408 53.6035C7.25204 53.6356 7.02782 48.9586 9.37698 45.9367C11.6941 42.9469 15.1751 42.8935 15.1537 42.8828C15.1217 42.9148 14.6519 46.7162 12.623 49.6313Z" fill="url(#paint15_linear_131_101)"/>
<path d="M1.90236 49.4713C3.93118 53.1125 7.43356 53.5823 7.41221 53.6037C7.39085 53.5716 7.22 49.1616 5.50084 45.6272C3.76033 42.0714 0.674382 40.5765 0.653027 40.5872C0.610314 40.5445 -0.158494 45.8087 1.90236 49.4713Z" fill="url(#paint16_linear_131_101)"/>
<path d="M13.3706 40.6297C10.8399 43.1711 7.46566 43.6302 7.45499 43.6089C7.41227 43.6409 7.99956 38.9533 10.8399 36.3692C13.6482 33.8065 17.0652 34.3724 17.0545 34.351C17.0224 34.3831 15.8692 38.099 13.3706 40.6297Z" fill="url(#paint17_linear_131_101)"/>
<path d="M2.90622 38.5369C4.26233 42.5091 7.61523 43.609 7.58319 43.6196C7.56184 43.5876 8.14913 39.1883 7.10268 35.3442C6.03488 31.4894 3.29063 29.4499 3.26928 29.4606C3.24792 29.4286 1.52876 34.5326 2.90622 38.5369Z" fill="url(#paint18_linear_131_101)"/>
<path d="M15.7305 31.7885C12.7834 33.8814 9.40907 33.7319 9.39839 33.7105C9.35568 33.7319 10.7759 29.1724 14.054 27.0795C17.3002 25.008 20.5463 26.1825 20.5356 26.1612C20.4929 26.1719 18.6349 29.7063 15.7305 31.7885Z" fill="url(#paint19_linear_131_101)"/>
<path d="M5.86383 27.8376C6.45112 32.0448 9.53705 33.7426 9.5157 33.7533C9.50502 33.7212 10.8718 29.4393 10.5835 25.4031C10.2738 21.3454 7.98875 18.8147 7.95671 18.8147C7.93536 18.772 5.25518 23.5878 5.86383 27.8376Z" fill="url(#paint20_linear_131_101)"/>
<path d="M19.7347 23.3316C16.4245 24.9226 13.1464 24.1751 13.1357 24.1431C13.0823 24.1645 15.3674 19.8292 19.0406 18.2916C22.6711 16.7646 25.6503 18.5051 25.6396 18.4838C25.5969 18.5051 23.0128 21.7512 19.7347 23.3316Z" fill="url(#paint21_linear_131_101)"/>
<path d="M10.8293 17.6297C10.5624 21.965 13.2746 24.2073 13.2425 24.218C13.2319 24.186 15.4102 20.1283 15.9654 16.0066C16.4993 11.8636 14.7908 8.90575 14.7588 8.90575C14.7481 8.85236 11.0749 13.2517 10.8293 17.6297Z" fill="url(#paint22_linear_131_101)"/>
<path d="M25.4582 15.494C21.8277 16.5297 18.7524 15.2057 18.7524 15.1843C18.699 15.195 21.8704 11.2121 25.8853 10.2724C29.8468 9.33279 32.4416 11.5965 32.4309 11.5751C32.3775 11.5858 29.046 14.4582 25.4582 15.494Z" fill="url(#paint23_linear_131_101)"/>
<path d="M17.8767 8.19038C16.6701 12.5363 18.8911 15.2592 18.8591 15.2592C18.8591 15.2272 21.8703 11.5006 23.3545 7.41088C24.8281 3.29985 23.8137 0.000351615 23.771 0.000351615C23.7496 -0.0423604 19.0513 3.8124 17.8767 8.19038Z" fill="url(#paint24_linear_131_101)"/>
<path d="M64.7532 106.577L64.6784 105.777C58.0794 106.375 51.5125 105.638 45.1377 103.598C38.9338 101.601 33.1783 98.4621 28.0529 94.2443C17.4069 85.499 10.5516 73.0271 8.72565 59.1137C7.23073 47.7203 7.99955 37.5655 11.0001 28.9377C14.2142 19.6692 19.9483 12.4188 28.0422 7.38945L27.6151 6.70605C19.3717 11.8422 13.5201 19.2314 10.242 28.6707C7.1987 37.416 6.42989 47.6989 7.93549 59.2098C9.78279 73.3261 16.7449 85.9795 27.5403 94.853C32.7512 99.1348 38.5814 102.328 44.8814 104.346C51.3736 106.439 58.0581 107.186 64.7532 106.577Z" fill="url(#paint25_linear_131_101)"/>
<path d="M99.7131 2.79802C102.564 5.39278 103.077 9.47177 103.077 9.47177C103.077 9.47177 98.9656 9.33296 96.1146 6.7382C93.2636 4.14345 92.751 0.0644531 92.751 0.0644531C92.751 0.0644531 96.862 0.203267 99.7131 2.79802Z" fill="url(#paint26_linear_131_101)"/>
<path d="M79.6703 98.5688C77.2143 101.719 77.0648 105.435 77.1075 105.445C77.0969 105.488 82.2543 104.047 84.5715 100.576C86.8886 97.1486 85.7567 93.5929 85.7887 93.6035C85.7781 93.6356 82.1262 95.4508 79.6703 98.5688Z" fill="url(#paint27_linear_131_101)"/>
<path d="M83.2903 109.46C78.7628 108.691 77.0757 105.275 77.0757 105.296C77.1291 105.317 81.9769 103.908 86.1627 104.399C90.3805 104.911 92.8578 107.538 92.8685 107.56C92.9112 107.592 87.8605 110.25 83.2903 109.46Z" fill="url(#paint28_linear_131_101)"/>
<path d="M88.6185 94.6285C86.9314 98.0775 87.54 101.687 87.572 101.697C87.572 101.74 92.0995 99.4977 93.6265 95.7497C95.1534 92.0444 93.4129 88.7983 93.4449 88.7983C93.4449 88.8411 90.3056 91.2116 88.6185 94.6285Z" fill="url(#paint29_linear_131_101)"/>
<path d="M94.1497 104.548C89.7503 104.559 87.5079 101.537 87.5186 101.569C87.572 101.58 91.8218 99.4229 95.8795 99.188C99.9798 98.9744 102.842 101.089 102.852 101.11C102.895 101.121 98.5917 104.548 94.1497 104.548Z" fill="url(#paint30_linear_131_101)"/>
<path d="M96.3494 89.3111C95.3884 92.9417 96.6697 96.3266 96.6911 96.3266C96.6911 96.3693 100.578 93.4328 101.347 89.5354C102.137 85.6806 99.8624 82.8296 99.8945 82.8296C99.8945 82.8723 97.3104 85.7127 96.3494 89.3111Z" fill="url(#paint31_linear_131_101)"/>
<path d="M103.504 97.9707C99.3071 98.7289 96.6056 96.1875 96.6162 96.2195C96.659 96.2195 100.29 93.4112 104.155 92.4929C108.052 91.5853 111.213 93.1336 111.224 93.1656C111.267 93.1549 107.754 97.2126 103.504 97.9707Z" fill="url(#paint32_linear_131_101)"/>
<path d="M102.799 82.8295C102.532 86.5134 104.39 89.578 104.411 89.578C104.422 89.6207 107.625 86.097 107.689 82.1781C107.764 78.302 105.063 75.9208 105.095 75.9102C105.095 75.9529 103.076 79.1669 102.799 82.8295Z" fill="url(#paint33_linear_131_101)"/>
<path d="M111.288 89.9942C107.369 91.4571 104.304 89.4496 104.315 89.4816C104.358 89.4709 107.337 86.1287 110.935 84.5591C114.555 83.0001 117.919 83.9504 117.93 83.9718C117.972 83.9611 115.249 88.5313 111.288 89.9942Z" fill="url(#paint34_linear_131_101)"/>
<path d="M107.914 75.3974C108.298 79.0386 110.647 81.6868 110.669 81.6761C110.679 81.7188 113.178 77.7359 112.58 73.9025C111.993 70.1011 108.949 68.2538 108.971 68.2432C108.982 68.2752 107.54 71.7883 107.914 75.3974Z" fill="url(#paint35_linear_131_101)"/>
<path d="M117.439 80.886C113.872 83.0003 110.541 81.5801 110.551 81.6015C110.583 81.5908 112.9 77.8108 116.146 75.6431C119.425 73.4755 122.874 73.8172 122.884 73.8385C122.927 73.8279 121.048 78.7611 117.439 80.886Z" fill="url(#paint36_linear_131_101)"/>
<path d="M111.64 67.2394C112.623 70.7312 115.378 72.8988 115.399 72.8881C115.42 72.9308 117.193 68.5956 115.954 64.9437C114.748 61.3238 111.459 60.0532 111.48 60.0425C111.502 60.0745 110.679 63.7798 111.64 67.2394Z" fill="url(#paint37_linear_131_101)"/>
<path d="M121.891 70.9128C118.752 73.6143 115.26 72.8135 115.282 72.8348C115.314 72.8135 116.937 68.7131 119.756 66.0223C122.596 63.3207 126.034 63.0324 126.056 63.0538C126.088 63.0324 125.063 68.2006 121.891 70.9128Z" fill="url(#paint38_linear_131_101)"/>
<path d="M113.936 58.5796C115.484 61.8364 118.538 63.4702 118.56 63.4488C118.581 63.4915 119.595 58.9213 117.78 55.5471C115.997 52.2049 112.559 51.5322 112.58 51.5215C112.601 51.5535 112.409 55.3442 113.936 58.5796Z" fill="url(#paint39_linear_131_101)"/>
<path d="M124.582 60.3524C121.955 63.5558 118.41 63.3956 118.432 63.417C118.464 63.3956 119.371 59.0817 121.678 55.921C124.016 52.7496 127.326 51.8527 127.348 51.8634C127.38 51.842 127.241 57.1276 124.582 60.3524Z" fill="url(#paint40_linear_131_101)"/>
<path d="M114.737 49.6313C116.798 52.5678 120.065 53.6249 120.076 53.6035C120.108 53.6356 120.332 48.9586 117.983 45.9367C115.666 42.9469 112.185 42.8935 112.206 42.8828C112.228 42.9148 112.697 46.7162 114.737 49.6313Z" fill="url(#paint41_linear_131_101)"/>
<path d="M125.458 49.4713C123.429 53.1125 119.926 53.5823 119.948 53.6037C119.969 53.5716 120.14 49.1616 121.859 45.6272C123.6 42.0714 126.686 40.5765 126.707 40.5872C126.739 40.5445 127.518 45.8087 125.458 49.4713Z" fill="url(#paint42_linear_131_101)"/>
<path d="M113.979 40.6297C116.509 43.1711 119.873 43.6302 119.894 43.6089C119.937 43.6409 119.35 38.9533 116.509 36.3692C113.701 33.8065 110.284 34.3724 110.295 34.351C110.338 34.3831 111.491 38.099 113.979 40.6297Z" fill="url(#paint43_linear_131_101)"/>
<path d="M124.443 38.5369C123.087 42.5091 119.734 43.609 119.766 43.6196C119.788 43.5876 119.2 39.1883 120.247 35.3442C121.315 31.4894 124.059 29.4499 124.08 29.4606C124.112 29.4286 125.831 34.5326 124.443 38.5369Z" fill="url(#paint44_linear_131_101)"/>
<path d="M111.63 31.7885C114.577 33.8814 117.951 33.7319 117.962 33.7105C118.004 33.7319 116.584 29.1724 113.306 27.0795C110.06 25.008 106.814 26.1825 106.824 26.1612C106.867 26.1719 108.714 29.7063 111.63 31.7885Z" fill="url(#paint45_linear_131_101)"/>
<path d="M121.485 27.8376C120.898 32.0448 117.812 33.7426 117.834 33.7533C117.844 33.7212 116.477 29.4393 116.766 25.4031C117.075 21.3454 119.36 18.8147 119.393 18.8147C119.414 18.772 122.105 23.5878 121.485 27.8376Z" fill="url(#paint46_linear_131_101)"/>
<path d="M107.615 23.3316C110.925 24.9226 114.203 24.1751 114.214 24.1431C114.267 24.1645 111.982 19.8292 108.309 18.2916C104.678 16.7646 101.699 18.5051 101.71 18.4838C101.763 18.5051 104.347 21.7512 107.615 23.3316Z" fill="url(#paint47_linear_131_101)"/>
<path d="M116.52 17.6297C116.787 21.965 114.075 24.2073 114.107 24.218C114.118 24.186 111.939 20.1283 111.384 16.0066C110.85 11.8636 112.559 8.90575 112.591 8.90575C112.601 8.85236 116.285 13.2517 116.52 17.6297Z" fill="url(#paint48_linear_131_101)"/>
<path d="M101.891 15.494C105.522 16.5297 108.597 15.2057 108.597 15.1843C108.65 15.195 105.479 11.2121 101.464 10.2724C97.5026 9.33279 94.9079 11.5965 94.9185 11.5751C94.9719 11.5858 98.3035 14.4582 101.891 15.494Z" fill="url(#paint49_linear_131_101)"/>
<path d="M109.483 8.19038C110.69 12.5363 108.469 15.2592 108.501 15.2592C108.501 15.2272 105.49 11.5006 104.006 7.41088C102.532 3.29985 103.546 0.000351615 103.589 0.000351615C103.6 -0.0423604 108.298 3.8124 109.483 8.19038Z" fill="url(#paint50_linear_131_101)"/>
<path d="M62.5962 106.577L62.671 105.777C69.27 106.375 75.837 105.638 82.2117 103.598C88.4156 101.601 94.1711 98.4621 99.2965 94.2443C109.942 85.499 116.798 73.0271 118.624 59.1137C120.119 47.7203 119.35 37.5655 116.349 28.9377C113.135 19.6692 107.401 12.4188 99.3072 7.38945L99.7343 6.70605C107.978 11.8422 113.829 19.2314 117.107 28.6707C120.151 37.416 120.919 47.6989 119.414 59.2098C117.567 73.3261 110.605 85.9902 99.7984 94.8636C94.5875 99.1455 88.7573 102.338 82.4573 104.356C75.9865 106.439 69.302 107.186 62.5962 106.577Z" fill="url(#paint51_linear_131_101)"/>
<path d="M63.9097 102.509L69.9535 106.951L63.9097 111.393L57.8767 106.951L63.9097 102.509Z" fill="url(#paint52_linear_131_101)"/>
<defs>
<linearGradient id="paint0_linear_131_101" x1="29.4537" y1="9.46846" x2="29.4537" y2="0.0658688" gradientUnits="userSpaceOnUse">
<stop stop-color="#797979"/>
<stop offset="1" stop-color="#D7D7D7"/>
</linearGradient>
<linearGradient id="paint1_linear_131_101" x1="45.7856" y1="105.442" x2="45.7856" y2="93.6053" gradientUnits="userSpaceOnUse">
<stop stop-color="#797979"/>
<stop offset="1" stop-color="#D7D7D7"/>
</linearGradient>
<linearGradient id="paint2_linear_131_101" x1="42.3989" y1="109.605" x2="42.3989" y2="104.296" gradientUnits="userSpaceOnUse">
<stop stop-color="#797979"/>
<stop offset="1" stop-color="#D7D7D7"/>
</linearGradient>
<linearGradient id="paint3_linear_131_101" x1="36.507" y1="101.693" x2="36.507" y2="88.8003" gradientUnits="userSpaceOnUse">
<stop stop-color="#797979"/>
<stop offset="1" stop-color="#D7D7D7"/>
</linearGradient>
<linearGradient id="paint4_linear_131_101" x1="32.1851" y1="104.546" x2="32.1851" y2="99.1737" gradientUnits="userSpaceOnUse">
<stop stop-color="#797979"/>
<stop offset="1" stop-color="#D7D7D7"/>
</linearGradient>
<linearGradient id="paint5_linear_131_101" x1="28.6109" y1="96.3223" x2="28.6109" y2="82.8316" gradientUnits="userSpaceOnUse">
<stop stop-color="#797979"/>
<stop offset="1" stop-color="#D7D7D7"/>
</linearGradient>
<linearGradient id="paint6_linear_131_101" x1="23.4498" y1="98.1099" x2="23.4498" y2="92.2089" gradientUnits="userSpaceOnUse">
<stop stop-color="#797979"/>
<stop offset="1" stop-color="#D7D7D7"/>
</linearGradient>
<linearGradient id="paint7_linear_131_101" x1="22.1318" y1="89.5735" x2="22.1318" y2="75.9122" gradientUnits="userSpaceOnUse">
<stop stop-color="#797979"/>
<stop offset="1" stop-color="#D7D7D7"/>
</linearGradient>
<linearGradient id="paint8_linear_131_101" x1="16.2469" y1="90.5262" x2="16.2469" y2="83.6666" gradientUnits="userSpaceOnUse">
<stop stop-color="#797979"/>
<stop offset="1" stop-color="#D7D7D7"/>
</linearGradient>
<linearGradient id="paint9_linear_131_101" x1="17.1" y1="81.6717" x2="17.1" y2="68.2452" gradientUnits="userSpaceOnUse">
<stop stop-color="#797979"/>
<stop offset="1" stop-color="#D7D7D7"/>
</linearGradient>
<linearGradient id="paint10_linear_131_101" x1="10.6504" y1="82.0456" x2="10.6504" y2="73.8079" gradientUnits="userSpaceOnUse">
<stop stop-color="#797979"/>
<stop offset="1" stop-color="#D7D7D7"/>
</linearGradient>
<linearGradient id="paint11_linear_131_101" x1="13.5737" y1="72.8839" x2="13.5737" y2="60.0444" gradientUnits="userSpaceOnUse">
<stop stop-color="#797979"/>
<stop offset="1" stop-color="#D7D7D7"/>
</linearGradient>
<linearGradient id="paint12_linear_131_101" x1="6.69871" y1="72.9263" x2="6.69871" y2="63.0542" gradientUnits="userSpaceOnUse">
<stop stop-color="#797979"/>
<stop offset="1" stop-color="#D7D7D7"/>
</linearGradient>
<linearGradient id="paint13_linear_131_101" x1="11.6439" y1="63.4449" x2="11.6439" y2="51.5233" gradientUnits="userSpaceOnUse">
<stop stop-color="#797979"/>
<stop offset="1" stop-color="#D7D7D7"/>
</linearGradient>
<linearGradient id="paint14_linear_131_101" x1="4.46524" y1="63.4129" x2="4.46524" y2="51.865" gradientUnits="userSpaceOnUse">
<stop stop-color="#797979"/>
<stop offset="1" stop-color="#D7D7D7"/>
</linearGradient>
<linearGradient id="paint15_linear_131_101" x1="11.2144" y1="53.6001" x2="11.2144" y2="42.8844" gradientUnits="userSpaceOnUse">
<stop stop-color="#797979"/>
<stop offset="1" stop-color="#D7D7D7"/>
</linearGradient>
<linearGradient id="paint16_linear_131_101" x1="3.9499" y1="53.5991" x2="3.9499" y2="40.5889" gradientUnits="userSpaceOnUse">
<stop stop-color="#797979"/>
<stop offset="1" stop-color="#D7D7D7"/>
</linearGradient>
<linearGradient id="paint17_linear_131_101" x1="12.2604" y1="43.6063" x2="12.2604" y2="34.3134" gradientUnits="userSpaceOnUse">
<stop stop-color="#797979"/>
<stop offset="1" stop-color="#D7D7D7"/>
</linearGradient>
<linearGradient id="paint18_linear_131_101" x1="5.05396" y1="43.6146" x2="5.05396" y2="29.4626" gradientUnits="userSpaceOnUse">
<stop stop-color="#797979"/>
<stop offset="1" stop-color="#D7D7D7"/>
</linearGradient>
<linearGradient id="paint19_linear_131_101" x1="14.9743" y1="33.7181" x2="14.9743" y2="25.8498" gradientUnits="userSpaceOnUse">
<stop stop-color="#797979"/>
<stop offset="1" stop-color="#D7D7D7"/>
</linearGradient>
<linearGradient id="paint20_linear_131_101" x1="8.20209" y1="33.7481" x2="8.20209" y2="18.8167" gradientUnits="userSpaceOnUse">
<stop stop-color="#797979"/>
<stop offset="1" stop-color="#D7D7D7"/>
</linearGradient>
<linearGradient id="paint21_linear_131_101" x1="19.3959" y1="24.3439" x2="19.3959" y2="17.6646" gradientUnits="userSpaceOnUse">
<stop stop-color="#797979"/>
<stop offset="1" stop-color="#D7D7D7"/>
</linearGradient>
<linearGradient id="paint22_linear_131_101" x1="13.4434" y1="24.2126" x2="13.4434" y2="8.90758" gradientUnits="userSpaceOnUse">
<stop stop-color="#797979"/>
<stop offset="1" stop-color="#D7D7D7"/>
</linearGradient>
<linearGradient id="paint23_linear_131_101" x1="25.6009" y1="15.8873" x2="25.6009" y2="10.0448" gradientUnits="userSpaceOnUse">
<stop stop-color="#797979"/>
<stop offset="1" stop-color="#D7D7D7"/>
</linearGradient>
<linearGradient id="paint24_linear_131_101" x1="20.8388" y1="15.2538" x2="20.8388" y2="0.00229629" gradientUnits="userSpaceOnUse">
<stop stop-color="#797979"/>
<stop offset="1" stop-color="#D7D7D7"/>
</linearGradient>
<linearGradient id="paint25_linear_131_101" x1="36.0108" y1="106.747" x2="36.0108" y2="6.72111" gradientUnits="userSpaceOnUse">
<stop stop-color="#797979"/>
<stop offset="1" stop-color="#D7D7D7"/>
</linearGradient>
<linearGradient id="paint26_linear_131_101" x1="97.9213" y1="9.46846" x2="97.9213" y2="0.0658688" gradientUnits="userSpaceOnUse">
<stop stop-color="#797979"/>
<stop offset="1" stop-color="#D7D7D7"/>
</linearGradient>
<linearGradient id="paint27_linear_131_101" x1="81.576" y1="105.442" x2="81.576" y2="93.6053" gradientUnits="userSpaceOnUse">
<stop stop-color="#797979"/>
<stop offset="1" stop-color="#D7D7D7"/>
</linearGradient>
<linearGradient id="paint28_linear_131_101" x1="84.9833" y1="109.605" x2="84.9833" y2="104.296" gradientUnits="userSpaceOnUse">
<stop stop-color="#797979"/>
<stop offset="1" stop-color="#D7D7D7"/>
</linearGradient>
<linearGradient id="paint29_linear_131_101" x1="90.8517" y1="101.693" x2="90.8517" y2="88.8003" gradientUnits="userSpaceOnUse">
<stop stop-color="#797979"/>
<stop offset="1" stop-color="#D7D7D7"/>
</linearGradient>
<linearGradient id="paint30_linear_131_101" x1="95.1962" y1="104.546" x2="95.1962" y2="99.1737" gradientUnits="userSpaceOnUse">
<stop stop-color="#797979"/>
<stop offset="1" stop-color="#D7D7D7"/>
</linearGradient>
<linearGradient id="paint31_linear_131_101" x1="98.757" y1="96.3223" x2="98.757" y2="82.8316" gradientUnits="userSpaceOnUse">
<stop stop-color="#797979"/>
<stop offset="1" stop-color="#D7D7D7"/>
</linearGradient>
<linearGradient id="paint32_linear_131_101" x1="103.93" y1="98.1099" x2="103.93" y2="92.2089" gradientUnits="userSpaceOnUse">
<stop stop-color="#797979"/>
<stop offset="1" stop-color="#D7D7D7"/>
</linearGradient>
<linearGradient id="paint33_linear_131_101" x1="105.235" y1="89.5735" x2="105.235" y2="75.9122" gradientUnits="userSpaceOnUse">
<stop stop-color="#797979"/>
<stop offset="1" stop-color="#D7D7D7"/>
</linearGradient>
<linearGradient id="paint34_linear_131_101" x1="111.132" y1="90.5262" x2="111.132" y2="83.6666" gradientUnits="userSpaceOnUse">
<stop stop-color="#797979"/>
<stop offset="1" stop-color="#D7D7D7"/>
</linearGradient>
<linearGradient id="paint35_linear_131_101" x1="110.266" y1="81.6717" x2="110.266" y2="68.2452" gradientUnits="userSpaceOnUse">
<stop stop-color="#797979"/>
<stop offset="1" stop-color="#D7D7D7"/>
</linearGradient>
<linearGradient id="paint36_linear_131_101" x1="116.727" y1="82.0456" x2="116.727" y2="73.8079" gradientUnits="userSpaceOnUse">
<stop stop-color="#797979"/>
<stop offset="1" stop-color="#D7D7D7"/>
</linearGradient>
<linearGradient id="paint37_linear_131_101" x1="113.787" y1="72.8839" x2="113.787" y2="60.0444" gradientUnits="userSpaceOnUse">
<stop stop-color="#797979"/>
<stop offset="1" stop-color="#D7D7D7"/>
</linearGradient>
<linearGradient id="paint38_linear_131_101" x1="120.677" y1="72.9263" x2="120.677" y2="63.0542" gradientUnits="userSpaceOnUse">
<stop stop-color="#797979"/>
<stop offset="1" stop-color="#D7D7D7"/>
</linearGradient>
<linearGradient id="paint39_linear_131_101" x1="115.725" y1="63.4449" x2="115.725" y2="51.5233" gradientUnits="userSpaceOnUse">
<stop stop-color="#797979"/>
<stop offset="1" stop-color="#D7D7D7"/>
</linearGradient>
<linearGradient id="paint40_linear_131_101" x1="122.898" y1="63.4129" x2="122.898" y2="51.865" gradientUnits="userSpaceOnUse">
<stop stop-color="#797979"/>
<stop offset="1" stop-color="#D7D7D7"/>
</linearGradient>
<linearGradient id="paint41_linear_131_101" x1="116.156" y1="53.6001" x2="116.156" y2="42.8844" gradientUnits="userSpaceOnUse">
<stop stop-color="#797979"/>
<stop offset="1" stop-color="#D7D7D7"/>
</linearGradient>
<linearGradient id="paint42_linear_131_101" x1="123.418" y1="53.5991" x2="123.418" y2="40.5889" gradientUnits="userSpaceOnUse">
<stop stop-color="#797979"/>
<stop offset="1" stop-color="#D7D7D7"/>
</linearGradient>
<linearGradient id="paint43_linear_131_101" x1="115.102" y1="43.6063" x2="115.102" y2="34.3134" gradientUnits="userSpaceOnUse">
<stop stop-color="#797979"/>
<stop offset="1" stop-color="#D7D7D7"/>
</linearGradient>
<linearGradient id="paint44_linear_131_101" x1="122.306" y1="43.6146" x2="122.306" y2="29.4626" gradientUnits="userSpaceOnUse">
<stop stop-color="#797979"/>
<stop offset="1" stop-color="#D7D7D7"/>
</linearGradient>
<linearGradient id="paint45_linear_131_101" x1="112.401" y1="33.7181" x2="112.401" y2="25.8498" gradientUnits="userSpaceOnUse">
<stop stop-color="#797979"/>
<stop offset="1" stop-color="#D7D7D7"/>
</linearGradient>
<linearGradient id="paint46_linear_131_101" x1="119.155" y1="33.7481" x2="119.155" y2="18.8167" gradientUnits="userSpaceOnUse">
<stop stop-color="#797979"/>
<stop offset="1" stop-color="#D7D7D7"/>
</linearGradient>
<linearGradient id="paint47_linear_131_101" x1="107.971" y1="24.3439" x2="107.971" y2="17.6646" gradientUnits="userSpaceOnUse">
<stop stop-color="#797979"/>
<stop offset="1" stop-color="#D7D7D7"/>
</linearGradient>
<linearGradient id="paint48_linear_131_101" x1="113.913" y1="24.2126" x2="113.913" y2="8.90758" gradientUnits="userSpaceOnUse">
<stop stop-color="#797979"/>
<stop offset="1" stop-color="#D7D7D7"/>
</linearGradient>
<linearGradient id="paint49_linear_131_101" x1="101.768" y1="15.8873" x2="101.768" y2="10.0448" gradientUnits="userSpaceOnUse">
<stop stop-color="#797979"/>
<stop offset="1" stop-color="#D7D7D7"/>
</linearGradient>
<linearGradient id="paint50_linear_131_101" x1="106.531" y1="15.2538" x2="106.531" y2="0.00229629" gradientUnits="userSpaceOnUse">
<stop stop-color="#797979"/>
<stop offset="1" stop-color="#D7D7D7"/>
</linearGradient>
<linearGradient id="paint51_linear_131_101" x1="91.419" y1="106.747" x2="91.419" y2="6.72111" gradientUnits="userSpaceOnUse">
<stop stop-color="#797979"/>
<stop offset="1" stop-color="#D7D7D7"/>
</linearGradient>
<linearGradient id="paint52_linear_131_101" x1="63.9236" y1="111.39" x2="63.9236" y2="102.51" gradientUnits="userSpaceOnUse">
<stop stop-color="#797979"/>
<stop offset="1" stop-color="#D7D7D7"/>
</linearGradient>
</defs>
</svg>
