<svg width="52" height="60" viewBox="0 0 52 60" fill="none" xmlns="http://www.w3.org/2000/svg">
<path fill-rule="evenodd" clip-rule="evenodd" d="M6.61055 0.156493C4.39918 0.950674 3.84358 4.06702 5.65563 5.5134L6.12682 5.88962L6.06105 7.2965C5.97898 9.05052 5.64016 10.1947 4.79217 11.5822C4.01112 12.8602 4.00607 13.4039 4.7727 13.6953C5.20977 13.8616 5.59596 13.6225 6.06128 12.8977C7.20753 11.1125 7.68634 9.6577 7.81284 7.57564L7.89034 6.29996H12.7226H17.5549L17.6159 7.79477C17.7066 10.0107 18.0056 10.8438 19.6601 13.4876C20.1711 14.304 20.5115 14.9674 20.4766 15.0784C20.4436 15.1831 20.2026 15.8632 19.9408 16.5896C19.4337 17.9971 18.9759 19.6911 18.7533 20.9842C18.6784 21.4194 18.5731 21.7756 18.5195 21.7756C18.4658 21.7756 17.7458 21.5323 16.9194 21.235C14.156 20.2408 14.8926 20.1995 11.1001 21.5604C9.28314 22.2124 7.73769 22.7474 7.66582 22.7493C7.59396 22.751 6.68394 22.4474 5.64344 22.0744L3.75166 21.3962V19.6116C3.75166 18.2107 3.80208 17.6298 3.98614 16.9101C4.11511 16.4059 4.22062 15.9203 4.22062 15.8309C4.22062 15.5424 3.66374 15.0929 3.30615 15.0929C2.50048 15.0929 2.10105 16.2685 2.02144 18.8739C1.99049 19.8895 1.92519 20.7204 1.87654 20.7204C1.82788 20.7204 1.56949 20.6433 1.3023 20.549C0.794532 20.3699 0.548095 20.4033 0.205169 20.6978C0.011255 20.8643 0 21.9392 0 40.1918V59.5097L0.311623 59.7549L0.623363 60L21.7958 59.9685L42.9683 59.9369L43.9062 59.6748C45.1582 59.3247 47.1422 58.3374 47.5375 57.8678C47.8945 57.4435 47.8685 57.026 47.4641 56.6836C47.0964 56.3726 46.7204 56.4331 45.8612 56.9415C45.4308 57.1961 44.5774 57.5751 43.9648 57.7837C42.9421 58.132 42.7264 58.1637 41.3269 58.1707C39.2738 58.1811 37.8248 57.7808 36.3283 56.7897C35.1585 56.015 35.198 56.1331 35.8262 55.2876C36.5603 54.2995 37.4363 52.4342 37.7447 51.2027C38.5054 48.1642 37.9332 44.6861 36.2554 42.1505C35.9084 41.6262 35.9046 41.6316 37.0477 41.0175C38.4815 40.2474 40.2469 39.8704 41.5538 40.0556C43.5397 40.3367 44.823 41.493 45.533 43.6408C45.6397 43.9632 45.7695 44.2941 45.8217 44.3762C45.8738 44.4583 46.342 44.6759 46.8619 44.8598C48.4261 45.4129 49.3493 46.1918 49.9266 47.4456C50.3237 48.3078 50.4088 49.8624 50.1282 51.1236C49.9403 51.9683 49.2836 53.4646 48.7814 54.1923C48.4805 54.6283 48.4703 55.0803 48.7534 55.4299C49.0239 55.764 49.6092 55.7845 49.9561 55.4722C50.3965 55.0756 51.2282 53.5219 51.6139 52.3751C51.9675 51.3238 51.9883 51.1659 51.9861 49.5613C51.9841 48.0957 51.9478 47.7644 51.7226 47.1579C51.1985 45.7466 50.1152 44.4797 48.8605 43.811L48.1748 43.4454L48.4192 43.0741C49.2862 41.7575 49.806 40.179 49.8565 38.7099C49.8909 37.7012 49.6901 37.3684 49.0466 37.3684C48.4645 37.3684 48.2253 37.6797 48.1332 38.5571C48.0901 38.9674 47.996 39.5832 47.924 39.9257C47.7843 40.5906 47.1492 41.9604 46.9544 42.0166C46.8899 42.0352 46.6538 41.7306 46.4298 41.3396C45.7266 40.1124 44.3354 38.9808 42.9976 38.5477L42.5579 38.4054V29.803C42.5579 23.6229 42.5204 21.118 42.4245 20.9077C42.2291 20.4786 41.7287 20.3408 41.1315 20.5515C40.8642 20.6457 40.6249 20.7024 40.5998 20.6772C40.5746 20.652 40.6092 20.1912 40.6767 19.6532C40.8362 18.3813 40.8329 15.9005 40.6699 14.5653C40.1554 10.3499 38.2133 6.95463 35.5572 5.62689C32.8527 4.27488 30.0841 4.57654 27.0953 6.54874C25.4556 7.63075 23.1807 10.1427 21.9852 12.1912C21.7312 12.6266 21.4947 12.9817 21.4598 12.9806C21.3853 12.9784 20.2963 11.1549 19.9403 10.4363C19.5404 9.62933 19.3482 8.56409 19.3463 7.14631L19.3445 5.82385L19.7624 5.45689C20.423 4.87691 20.7935 4.04099 20.7917 3.13449C20.7908 2.70528 20.7099 2.18603 20.6064 1.94569C20.3561 1.365 19.6372 0.592155 19.0594 0.282995C18.5898 0.0316332 18.4931 0.0272954 12.8377 0.00537157C8.02469 -0.0131523 7.01479 0.0113508 6.61055 0.156493ZM18.4186 1.99528C18.669 2.16352 18.8784 2.43926 18.9825 2.73776C19.1328 3.16908 19.1274 3.2549 18.9239 3.67192C18.4954 4.54958 18.5569 4.54102 12.6796 4.54113C8.10993 4.54137 7.43123 4.51816 7.07623 4.34968C6.60012 4.12376 6.33093 3.66289 6.33093 3.074C6.33093 2.52661 6.49179 2.23808 6.95395 1.95624C7.3093 1.73958 7.5868 1.72844 12.6738 1.72809L18.0202 1.72762L18.4186 1.99528ZM34.1452 6.88206C36.6291 7.8222 38.3883 10.7398 38.934 14.8246C39.097 16.0446 39.0041 19.5799 38.7796 20.7053L38.6304 21.4522L36.7546 22.1258L34.8788 22.7993L33.5891 22.3407C32.8798 22.0884 31.429 21.5719 30.365 21.1929C29.3011 20.8139 28.3251 20.4768 28.1961 20.444C28.0629 20.41 26.5185 20.904 24.6203 21.5878L21.279 22.7913L20.7855 22.6258C20.2289 22.439 20.2479 22.6233 20.5951 20.779C21.936 13.6577 26.575 7.51831 31.303 6.60807C31.9496 6.48356 33.4829 6.6314 34.1452 6.88206ZM26.672 12.8896C25.4849 13.3046 24.7941 14.5656 25.0862 15.7838C25.2473 16.4554 25.7704 17.1287 26.361 17.4248C26.5965 17.5429 28.4964 18.1276 30.5828 18.724C34.7492 19.915 34.8748 19.9303 35.8428 19.363C36.9571 18.71 37.3393 17.1565 36.6672 16.0117C36.137 15.1085 36.2418 15.1512 30.5514 13.5188C27.8609 12.7468 27.3277 12.6603 26.672 12.8896ZM31.2532 15.5531C34.0862 16.3718 34.9205 16.6568 35.0872 16.8627C35.3639 17.2044 35.3066 17.5335 34.9201 17.8209L34.6097 18.0517L31.0512 17.0268C26.8552 15.8182 27.0147 15.8737 26.8484 15.5631C26.6276 15.1501 26.9783 14.5067 27.4243 14.5067C27.5387 14.5067 29.2618 14.9776 31.2532 15.5531ZM17.7729 23.4168C19.5723 24.0616 21.1384 24.5892 21.2533 24.5892C21.3681 24.5893 22.9498 24.0587 24.7681 23.4101L28.0742 22.2311L31.3598 23.4101C33.1668 24.0587 34.7453 24.5893 34.8675 24.5893C34.9897 24.5893 36.337 24.1409 37.8617 23.5928C39.3863 23.0447 40.671 22.5963 40.7165 22.5963C40.7621 22.5963 40.7994 26.099 40.7994 30.3801C40.7994 39.0378 40.8743 38.3064 39.9878 38.3064C38.9161 38.3064 36.7524 39.0868 35.3695 39.9722L34.8051 40.3335L34.3144 39.8614C32.3599 37.981 29.5045 36.7863 26.9651 36.7863C25.1007 36.7863 23.5254 37.3358 22.2478 38.4317C21.7003 38.9013 20.5169 40.5554 20.5169 40.8509C20.5169 41.5769 19.4234 39.4659 19.1685 38.2477C19.0742 37.7964 18.9943 37.1896 18.9912 36.8995C18.9817 36.0325 18.4431 35.6084 17.7315 35.9076C17.2669 36.1031 17.1796 36.4196 17.2812 37.5405C17.4226 39.1008 17.9419 40.5721 18.7854 41.8024C18.9764 42.081 19.1144 42.3184 19.092 42.33C19.0697 42.3416 18.8426 42.4566 18.5875 42.5856C15.1362 44.33 13.9483 48.3792 15.6531 52.5888C16.425 54.4949 17.9389 56.458 19.6003 57.7068L20.3057 58.2371H11.0321H1.75859V40.4167C1.75859 30.6154 1.78099 22.5963 1.80842 22.5963C1.83585 22.5963 3.1106 23.0447 4.64128 23.5928C6.17184 24.1409 7.51845 24.5893 7.63382 24.5893C7.7493 24.5893 9.31023 24.0644 11.1027 23.4228C12.8953 22.7813 14.3933 22.2537 14.4316 22.2504C14.4701 22.2472 15.9737 22.7721 17.7729 23.4168ZM28.5273 38.7145C29.5207 38.9249 30.9113 39.5185 31.8128 40.117C36.246 43.0595 37.611 48.6779 35.0187 53.313C34.3502 54.5084 32.6156 56.2431 31.4202 56.9116C29.9055 57.7587 28.1327 58.2353 26.4961 58.2353C23.8567 58.2353 21.5222 57.2465 19.5801 55.3061C17.7609 53.4885 16.799 51.4674 16.6788 49.2095C16.5301 46.4174 17.7408 44.6497 20.4232 43.7422C20.8853 43.5859 21.3294 43.4031 21.4102 43.336C21.4909 43.2691 21.6703 42.8618 21.8089 42.431C22.8044 39.3361 25.2019 38.0099 28.5273 38.7145ZM34.5102 57.6717C34.7773 57.8767 35.0462 58.0877 35.1074 58.1407C35.1686 58.1937 34.6462 58.2371 33.9462 58.2371H32.6737L33.3073 57.7733C33.6557 57.5183 33.9596 57.3072 33.9826 57.3043C34.0056 57.3015 34.243 57.4668 34.5102 57.6717Z" fill="#EC5500"/>
</svg>
