<svg width="60" height="60" viewBox="0 0 60 60" fill="none" xmlns="http://www.w3.org/2000/svg">
<path fill-rule="evenodd" clip-rule="evenodd" d="M20.3031 0.256842C17.3907 1.01503 14.9731 3.0128 13.7044 5.70938C13.0369 7.12809 12.7493 8.38864 12.7451 9.91455C12.7408 11.3856 12.9316 12.4616 13.4089 13.6583C14.1763 15.5827 14.4881 15.9376 22.1665 23.6284C28.9605 30.4331 29.4309 30.8776 29.8408 30.8776C30.25 30.8776 30.7142 30.4414 37.2863 23.8795C41.1413 20.0304 44.5733 16.5142 44.913 16.0654C46.7682 13.6147 47.3938 10.5318 46.6579 7.46614C46.4115 6.43894 45.4983 4.63913 44.7555 3.716C42.8454 1.34278 40.0361 -0.00488228 37.0095 1.32915e-05C34.4176 0.00428123 32.2053 0.801883 30.4545 2.36319L29.8432 2.90823L29.2318 2.36319C28.0725 1.32935 26.4443 0.518944 24.8454 0.180145C23.6211 -0.0793201 21.4537 -0.0427916 20.3031 0.256842ZM24.6822 2.199C25.9153 2.4896 27.296 3.27528 28.4374 4.33573C29.7658 5.56979 29.9184 5.57469 31.1583 4.42272C32.9192 2.7866 34.4089 2.12921 36.5589 2.03933C38.1689 1.97205 39.1925 2.16486 40.4318 2.76915C43.914 4.46703 45.6837 8.38525 44.6593 12.1289C44.1116 14.1299 44.1237 14.1156 36.6683 21.5886L29.8432 28.4298L23.0201 21.5886C17.883 16.4378 16.0987 14.5716 15.7992 14.0364C13.5319 9.98384 14.9874 5.00517 19.0586 2.88702C19.5921 2.60948 20.3586 2.30256 20.762 2.20478C21.74 1.96803 23.6903 1.96515 24.6822 2.199ZM27.1387 7.08453C26.8418 7.38128 26.8305 7.45496 26.8305 9.09297V10.7932H25.1302C23.4922 10.7932 23.4185 10.8045 23.1218 11.1014C22.8161 11.4069 22.8136 11.4289 22.8136 13.8059C22.8136 16.1829 22.8161 16.2049 23.1218 16.5104C23.4185 16.8073 23.4922 16.8186 25.1302 16.8186H26.8305V18.5188C26.8305 20.1568 26.8418 20.2305 27.1387 20.5273C27.4442 20.8329 27.4662 20.8354 29.8432 20.8354C32.2202 20.8354 32.2421 20.8329 32.5477 20.5273C32.8445 20.2305 32.8558 20.1568 32.8558 18.5188V16.8186H34.5561C36.1941 16.8186 36.2678 16.8073 36.5645 16.5104C36.8702 16.2049 36.8727 16.1829 36.8727 13.8059C36.8727 11.4289 36.8702 11.4069 36.5645 11.1014C36.2678 10.8045 36.1941 10.7932 34.5561 10.7932H32.8558V9.09297C32.8558 7.45496 32.8445 7.38128 32.5477 7.08453C32.2421 6.77887 32.2202 6.77636 29.8432 6.77636C27.4662 6.77636 27.4442 6.77887 27.1387 7.08453ZM30.8474 10.4851C30.8474 12.1231 30.8587 12.1968 31.1556 12.4935C31.4523 12.7904 31.526 12.8017 33.164 12.8017H34.8643V13.8059V14.8101H33.164C31.526 14.8101 31.4523 14.8214 31.1556 15.1183C30.8587 15.415 30.8474 15.4887 30.8474 17.1267V18.827H29.8432H28.8389V17.1267C28.8389 15.4887 28.8277 15.415 28.5308 15.1183C28.234 14.8214 28.1603 14.8101 26.5223 14.8101H24.8221V13.8059V12.8017H26.5223C28.1603 12.8017 28.234 12.7904 28.5308 12.4935C28.8277 12.1968 28.8389 12.1231 28.8389 10.4851V8.7848H29.8432H30.8474V10.4851ZM4.72286 11.8378C3.13231 12.4325 2.15018 13.7075 2.00921 15.3608C1.9472 16.088 1.91231 16.1561 1.34015 16.6645C0.536775 17.3783 0.0744575 18.3364 0.00654717 19.4282C-0.0419064 20.2078 0.127681 20.9146 2.28437 28.9242C3.92388 35.0129 4.71985 37.7661 4.96953 38.2132C5.24192 38.7008 6.23811 39.6667 9.24938 42.3634C11.8882 44.7266 13.261 46.0427 13.4391 46.3803C13.6563 46.7916 13.713 47.1602 13.7528 48.4201C13.796 49.7845 13.7782 49.9578 13.5945 49.9578C13.4808 49.9578 13.2491 50.0965 13.0796 50.266L12.7714 50.574V54.9789V59.3838L13.0796 59.6918L13.3876 60H20.8052H28.2227L28.5308 59.6918L28.8389 59.3838V54.9789V50.574L28.5308 50.266C28.3613 50.0965 28.1391 49.9578 28.037 49.9578C27.8764 49.9578 27.845 49.2036 27.8065 44.4032C27.7632 39.0003 27.754 38.8246 27.4721 37.9699C26.8634 36.1241 25.7296 34.4508 24.3827 33.4104C23.8136 32.9708 15.3473 27.9354 14.6202 27.6041C14.3531 27.4824 14.0346 26.6546 12.0961 21.0433C10.876 17.5115 9.75375 14.3474 9.60224 14.0121C8.98565 12.6478 7.67954 11.7854 6.11848 11.7121C5.52913 11.6845 5.00718 11.7314 4.72286 11.8378ZM52.4381 11.8738C51.6806 12.1486 50.8878 12.7331 50.4854 13.314C50.1018 13.8674 49.8662 14.5017 47.2941 21.9024L45.3746 27.4256L42.0338 29.3664C36.83 32.3892 35.7922 33.0213 35.1024 33.587C33.8107 34.6466 32.8119 36.1617 32.213 37.9699C31.9293 38.8265 31.9209 38.9886 31.8796 44.4032C31.8429 49.2188 31.8124 49.9578 31.6505 49.9578C31.5477 49.9578 31.325 50.0965 31.1556 50.266L30.8474 50.574V54.9789V59.3838L31.1556 59.6918L31.4636 60H38.8811H46.2987L46.6067 59.6918L46.9149 59.3838V54.9789V50.574L46.6067 50.266C46.4373 50.0965 46.2055 49.9578 46.0918 49.9578C45.9082 49.9578 45.8903 49.7845 45.9338 48.4201C45.9741 47.1519 46.0299 46.7925 46.2524 46.3697C46.4385 46.016 47.7075 44.8018 50.3461 42.4529C54.1108 39.1014 54.4524 38.7603 54.8775 37.9285C54.9949 37.6985 56.1142 33.7162 57.3647 29.0788C59.3868 21.5798 59.6392 20.5361 59.6472 19.6429C59.6547 18.7854 59.6043 18.5336 59.303 17.9198C59.0993 17.5053 58.6943 16.9738 58.3462 16.6645C57.77 16.1526 57.7395 16.0921 57.6749 15.3365C57.5526 13.9058 56.7367 12.7078 55.425 12.0332C54.7071 11.6639 53.2335 11.5853 52.4381 11.8738ZM6.86612 13.9285C7.13362 14.0651 7.46112 14.3334 7.5938 14.5248C7.72636 14.7162 8.74301 17.4995 9.85292 20.7099C10.9628 23.9203 11.9081 26.6403 11.9534 26.7546C12.0193 26.9204 11.9023 27.0015 11.3727 27.1566C11.0079 27.2636 10.6977 27.3394 10.6834 27.3251C10.6691 27.3109 10.0003 25.2717 9.19717 22.7938C8.39392 20.3158 7.63146 18.0846 7.5028 17.8358C6.98135 16.8272 5.65189 15.8833 4.53784 15.7305C3.97121 15.6529 3.96204 15.6442 4.03673 15.2621C4.19916 14.432 5.08024 13.6804 5.89102 13.6804C6.15965 13.6804 6.5985 13.7921 6.86612 13.9285ZM54.6989 13.9628C55.2268 14.3222 55.5528 14.7676 55.6496 15.2621C55.7243 15.6442 55.715 15.6529 55.1496 15.7304C53.9867 15.8898 52.7183 16.7815 52.1947 17.8078C52.0599 18.0721 51.2924 20.3158 50.4892 22.7938C49.686 25.2717 49.0172 27.3109 49.0029 27.3251C48.9886 27.3394 48.6784 27.2636 48.3137 27.1566C47.7842 27.0015 47.6671 26.9204 47.7328 26.7546C47.7783 26.6403 48.7174 23.9485 49.8197 20.7727C50.9221 17.5968 51.9231 14.8289 52.044 14.622C52.5496 13.7559 53.9018 13.4203 54.6989 13.9628ZM4.85768 17.9454C5.12518 18.082 5.45356 18.3502 5.58712 18.5417C5.72081 18.7331 6.55331 21.1311 7.43727 23.8704L9.0444 28.851L8.75958 29.5132C8.5202 30.0694 8.48317 30.337 8.52773 31.1871C8.58974 32.3676 9.00222 33.2773 9.77384 33.9354C10.4509 34.5125 16.4245 37.9077 16.7626 37.9074C16.9211 37.9073 17.1894 37.7685 17.3588 37.599C17.7554 37.2026 17.7664 36.6136 17.3846 36.2349C17.2292 36.0809 15.8312 35.2269 14.2778 34.3372C12.7244 33.4474 11.321 32.6016 11.159 32.4576C10.6638 32.0169 10.4791 31.5277 10.5382 30.8142C10.636 29.6348 11.4815 28.911 12.6322 29.022C13.1089 29.0679 14.0617 29.5738 18.0382 31.892C23.4626 35.0542 24.0926 35.5388 24.9775 37.2297C25.7849 38.7728 25.8224 39.1092 25.8244 44.8426L25.8263 49.9578H20.8198H15.8132L15.7558 48.2946C15.6887 46.3469 15.4686 45.6279 14.6246 44.5972C14.3302 44.2379 12.762 42.7758 11.1396 41.348C7.31576 37.9831 6.88658 37.5672 6.61732 36.9657C6.49368 36.6896 5.39306 32.7376 4.17142 28.1836C1.8164 19.4046 1.79607 19.2994 2.32366 18.5869C2.96535 17.7202 3.93493 17.4748 4.85768 17.9454ZM56.7073 17.9797C57.2855 18.3731 57.5921 18.8275 57.6677 19.4028C57.7174 19.7808 57.2366 21.7453 55.5817 27.9277C54.399 32.3463 53.3413 36.2395 53.2313 36.5792C52.9642 37.4042 52.6177 37.7587 48.6364 41.2815C46.6335 43.0537 45.0483 44.5575 44.8045 44.9167C44.1455 45.8881 43.9022 46.861 43.9022 48.5254V49.9578H38.8811H33.86L33.8619 44.8426C33.8639 39.116 33.9012 38.7796 34.7045 37.2297C35.5676 35.5642 36.2196 35.0633 41.653 31.8919C46.909 28.8239 47.1337 28.7294 48.0922 29.1843C49.3205 29.7671 49.5559 31.5393 48.5273 32.4588C48.3654 32.6036 46.962 33.4496 45.4086 34.3388C43.8552 35.2282 42.4572 36.0815 42.3018 36.2353C41.9198 36.6135 41.931 37.2026 42.3275 37.599C42.497 37.7685 42.7652 37.9073 42.9238 37.9074C43.3886 37.9078 49.3912 34.4185 50.0631 33.7574C50.8842 32.9493 51.2261 32.0045 51.1506 30.7521C51.1174 30.2024 50.9981 29.6146 50.8637 29.3395L50.6338 28.8683L52.1819 24.0674C53.0334 21.4268 53.849 19.0422 53.9945 18.768C54.5147 17.7879 55.8537 17.3987 56.7073 17.9797ZM26.8305 54.9789V57.9916H20.8052H14.7799V54.9789V51.9662H20.8052H26.8305V54.9789ZM44.9065 54.9789V57.9916H38.8811H32.8558V54.9789V51.9662H38.8811H44.9065V54.9789Z" fill="#00CA81"/>
</svg>
