<svg width="60" height="55" viewBox="0 0 60 55" fill="none" xmlns="http://www.w3.org/2000/svg">
<path fill-rule="evenodd" clip-rule="evenodd" d="M28.531 0.234225C28.237 0.36787 26.9263 1.50866 25.1899 3.14229C23.6184 4.62082 22.0101 6.1289 21.6159 6.49349L20.8991 7.15644L20.8396 6.41518C20.7743 5.601 20.5601 5.1765 20.0868 4.92316C19.6366 4.68225 14.3607 4.68225 13.9105 4.92316C13.1782 5.31519 13.1852 5.2629 13.2227 10.0358L13.2567 14.3765L9.51152 17.9129C5.98377 21.2438 5.75141 21.4887 5.50933 22.13C4.52774 24.7303 7.26066 27.1817 9.69839 25.8877C9.97107 25.743 10.8284 25.0269 11.6034 24.2961L13.0128 22.9677V26.7413C13.0128 30.2746 12.9999 30.5099 12.8094 30.4368C12.6975 30.3939 11.807 30.3275 10.8305 30.2894L9.05502 30.22L8.97894 29.5729C8.87284 28.6698 8.56628 28.0511 7.94038 27.4769C7.13136 26.7348 6.49725 26.5916 4.24322 26.6416C2.68497 26.6762 2.32225 26.7198 1.87443 26.9259C1.23797 27.2189 0.669045 27.7658 0.317817 28.4225C0.0594368 28.9055 0.0584989 28.9312 0.0259083 36.1475C0.00457206 40.8527 0.0344663 43.4653 0.111371 43.6088C0.284288 43.9319 0.843721 44.0987 1.18463 43.9287C1.75637 43.6436 1.75497 43.6634 1.75673 36.2593C1.7586 28.615 1.72894 28.9344 2.47348 28.5495C2.98309 28.2859 6.11612 28.3089 6.57439 28.5796C7.29818 29.0072 7.26852 28.5207 7.26664 39.9447C7.26535 47.9781 7.23182 50.4251 7.1201 50.6425C7.0405 50.7974 6.82643 51.0348 6.64437 51.17C6.34215 51.3943 6.15739 51.4157 4.52259 51.4157C1.9865 51.4157 1.85743 51.3208 1.75755 49.3812C1.70139 48.2896 1.66739 48.1448 1.42074 47.9451C1.02367 47.6236 0.535869 47.6595 0.243022 48.0318C0.0365765 48.2942 0 48.5054 0 49.4341C0 51.2573 0.568811 52.2777 1.93433 52.9039C2.47208 53.1505 2.68509 53.1728 4.51344 53.1735C6.45797 53.1742 6.52257 53.1662 7.1725 52.8471C8.19172 52.3465 8.61036 51.7674 8.98679 50.3375L9.0855 49.9627L15.37 52.3436C18.8263 53.6531 21.8533 54.7618 22.0965 54.8074C22.3397 54.853 22.888 54.8883 23.3149 54.8857C24.1899 54.8805 42.3449 52.2794 43.4346 52.0031C44.4537 51.7446 46.1477 50.8713 46.8924 50.2203C51.198 46.4573 59.1649 39.1645 59.4343 38.7396C60.3462 37.3015 60.1383 35.4116 58.9356 34.209C57.8568 33.1302 56.1932 32.8225 54.8326 33.4498C54.4603 33.6214 52.4735 34.8944 50.4175 36.2786C48.3616 37.6626 46.6484 38.764 46.6103 38.726C46.5195 38.6353 46.5202 22.9869 46.611 22.9869C46.6493 22.9869 47.3373 23.5971 48.1398 24.3429C48.9422 25.0888 49.8209 25.7998 50.0923 25.923C51.2034 26.4274 52.7426 26.0861 53.5613 25.1535C54.1006 24.5394 54.3064 23.9944 54.3131 23.1627C54.3229 21.9738 54.0957 21.6386 51.8096 19.4699C47.8414 15.7051 48.0207 15.8458 47.4785 16.0704C47.0295 16.2564 46.8207 16.7673 47.0302 17.1673C47.1163 17.3315 48.3208 18.5245 49.7068 19.8182C51.0929 21.112 52.325 22.3553 52.4448 22.5809C53.004 23.6346 51.9331 24.8154 50.8422 24.3477C50.6367 24.2597 45.9316 19.9336 40.3865 14.7342C34.8414 9.53485 30.1784 5.24778 30.0244 5.20733C29.8702 5.16701 29.6232 5.18108 29.4755 5.23864C29.3278 5.29632 24.7877 9.51105 19.3865 14.6048C13.9853 19.6985 9.38479 24.0112 9.16311 24.1885C8.57038 24.6627 7.95597 24.6358 7.43253 24.1123C7.11682 23.7966 7.03405 23.62 7.03476 23.2624C7.03511 23.0141 7.12749 22.6741 7.23991 22.5068C7.61939 21.942 28.8885 1.9831 29.3024 1.80338C30.0967 1.45848 30.115 1.4729 36.5323 7.48047C44.0248 14.4948 43.4212 13.96 43.8452 13.96C44.2935 13.96 44.6655 13.5905 44.6655 13.145C44.6655 12.7278 45.3056 13.3639 37.7742 6.29619C33.9106 2.67031 31.5493 0.538912 31.1665 0.331763C30.4239 -0.0702269 29.2935 -0.111962 28.531 0.234225ZM19.1089 7.6657V8.87424L17.6141 10.278C16.7921 11.0501 15.8424 11.9378 15.504 12.2508L14.8885 12.8198V9.63848V6.45715H16.9987H19.1089V7.6657ZM38.3801 15.191L44.8943 21.287L44.8971 30.6337L44.9 39.9803L43.6778 40.8003L42.4555 41.6204L41.1899 41.5356L39.9243 41.451L39.7804 40.5903C39.4219 38.4456 37.9957 36.7712 35.9794 36.1281L35.5582 35.9936L35.4812 33.8677C35.4388 32.6984 35.4041 30.0539 35.4041 27.991V24.2401L34.9303 23.7894L34.4564 23.3386H29.8738C25.5148 23.3386 25.2729 23.3498 24.9165 23.5701C24.2099 24.0069 24.214 23.9753 24.1498 29.514L24.0912 34.5757L22.8603 34.1772C22.1795 33.9568 20.6076 33.2636 19.3433 32.6262C17.9344 31.916 16.6187 31.3427 15.9143 31.1323L14.7713 30.7908L14.7749 26.0389L14.7785 21.287L22.286 14.2217L29.7934 7.15632L30.8296 8.1256C31.3995 8.65865 34.7972 11.8381 38.3801 15.191ZM33.7629 30.3725C33.7629 34.6127 33.7316 35.7636 33.6164 35.7575C33.5358 35.7533 31.7817 35.5533 29.7184 35.3132L25.9669 34.8767L25.9363 29.9282L25.9058 24.9798H29.8343H33.7629V30.3725ZM12.8369 32.1915C15.0254 32.5208 16.7084 33.1085 18.9134 34.3132C20.6881 35.2826 22.3046 35.8986 24.0912 36.2863C24.5426 36.3842 27.2067 36.7302 30.0115 37.0552C32.8162 37.3802 35.2957 37.7026 35.5214 37.7718C36.185 37.975 37.0754 38.6462 37.4858 39.2528C37.8602 39.806 38.2289 41.0686 38.0641 41.2334C38.0183 41.2791 33.9151 40.9611 28.9457 40.5266C20.6059 39.7975 19.8887 39.7509 19.6287 39.9212C19.0624 40.2923 19.1609 41.1348 19.7987 41.3754C19.9674 41.439 24.484 41.8649 29.8356 42.3218C40.6606 43.2459 40.8418 43.2602 42.1014 43.2911L42.9958 43.3129L49.2894 39.0994L55.5829 34.886H56.3289C57.1629 34.886 57.5367 35.0823 58.0007 35.764C58.361 36.2936 58.3608 37.1909 58.0001 37.7712C57.6719 38.2991 45.9125 48.8927 45.0229 49.4617C44.3183 49.9125 43.5464 50.2367 42.7606 50.4122C42.4865 50.4734 38.0155 51.1368 32.825 51.8865C25.8451 52.8946 23.2352 53.2305 22.8017 53.1763C22.4779 53.1359 19.2657 51.9911 15.624 50.6182L9.03251 48.1332L9.0297 40.0735L9.02688 32.0138L10.3457 32.0145C11.0712 32.0148 12.1922 32.0946 12.8369 32.1915Z" fill="#73B655"/>
</svg>
