<svg width="60" height="60" viewBox="0 0 60 60" fill="none" xmlns="http://www.w3.org/2000/svg">
<path fill-rule="evenodd" clip-rule="evenodd" d="M28.4006 0.113633C27.8186 0.28228 27.5069 0.712043 27.1287 1.86679L26.7771 2.94044L25.9426 3.20355C25.4837 3.34828 24.6451 3.69085 24.0793 3.96474L23.0503 4.46283L21.8906 3.90661C20.7877 3.37758 20.7083 3.35719 20.2697 3.48857C19.7636 3.64022 18.6341 4.61882 17.9092 5.53378C17.2836 6.32334 17.2973 6.75627 17.9883 8.03419L18.5168 9.0115L18.0854 9.86036C17.8481 10.3273 17.4898 11.1793 17.289 11.7538L16.9239 12.7985L15.8927 13.1199C14.8335 13.4501 14.3557 13.7707 14.1576 14.2837C14.0954 14.4449 14.0445 15.22 14.0445 16.0063C14.0444 18.121 14.1651 18.303 15.9363 18.8581C16.5219 19.0416 16.9462 19.24 16.9656 19.3396C16.9903 19.465 14.9398 20.2451 9.05481 22.3489C4.68569 23.9109 0.978969 25.283 0.817822 25.3979C0.442087 25.6661 -0.0032635 26.5359 1.80276e-05 26.9952C0.00376835 27.5086 0.385012 28.2738 0.774811 28.5503C0.959631 28.6813 3.37859 29.5945 6.15031 30.5797C8.92203 31.5649 11.2307 32.4056 11.2806 32.4482C11.3306 32.4906 9.0922 33.339 6.30653 34.3333C3.52098 35.3276 1.08538 36.2466 0.894118 36.3755C0.356298 36.738 0.0865098 37.1845 0.0320129 37.8025C-0.0363132 38.5763 0.351259 39.33 0.993619 39.6727C1.25145 39.8102 3.3712 40.6013 5.70414 41.4307C8.03719 42.26 9.90942 42.9741 9.86465 43.0174C9.82 43.0608 7.83209 43.7921 5.44712 44.6425C3.06215 45.4927 0.944161 46.3134 0.740355 46.466C0.265822 46.8214 -0.0552992 47.6389 0.0299034 48.2744C0.112996 48.8936 0.612844 49.5356 1.21536 49.7968C1.48011 49.9117 7.9991 52.2575 15.7019 55.0098C27.5691 59.2501 29.7786 60.0054 30.1758 59.9585C30.7736 59.8878 58.7898 49.8658 59.1822 49.5823C59.5587 49.3102 60.0033 48.4407 60 47.9825C59.9962 47.4693 59.615 46.704 59.2252 46.4273C59.0404 46.2961 57.0433 45.5275 54.7873 44.7194C52.5312 43.9112 50.5271 43.1886 50.3338 43.1139C50.0023 42.9857 50.2317 42.8887 54.3419 41.4195C56.7399 40.5625 58.8718 39.7618 59.0799 39.6404C59.2878 39.519 59.5846 39.1829 59.7396 38.8937C60.2699 37.9035 59.8787 36.7233 58.8531 36.2193C58.6151 36.1023 56.2181 35.2218 53.5265 34.2625C50.4293 33.1588 48.6924 32.4848 48.7958 32.427C48.8857 32.3767 51.1934 31.5376 53.9242 30.5623C56.6549 29.5869 59.0404 28.6816 59.2252 28.5504C59.615 28.2738 59.9962 27.5084 60 26.9952C60.0033 26.5366 59.5585 25.667 59.1822 25.3963C58.9581 25.235 45.3695 20.2839 43.3852 19.6405C42.8052 19.4524 42.9624 19.209 43.8293 18.9529C45.824 18.3634 45.9664 18.1711 45.9711 16.0598C45.9761 13.8636 45.8573 13.6794 44.0648 13.1009L43.0696 12.7798L42.7077 11.7444C42.5087 11.1751 42.1507 10.3248 41.912 9.85509L41.478 9.00095L42.009 8.02669C42.838 6.5057 42.7608 6.15165 41.2752 4.66617C40.5215 3.91247 40.126 3.60717 39.762 3.49806C39.283 3.35461 39.2363 3.3661 38.1094 3.90661L36.9497 4.46283L35.9207 3.96474C35.3549 3.69085 34.5163 3.34828 34.0574 3.20355L33.2229 2.94044L32.8713 1.8798C32.4821 0.705949 32.1592 0.277475 31.5322 0.103319C31.0181 -0.0395445 28.9053 -0.0325126 28.4006 0.113633ZM31.1656 3.14799C31.3656 3.79152 31.6361 4.41771 31.7668 4.53948C31.8975 4.66125 32.2918 4.81853 32.6429 4.88908C33.5032 5.06183 34.885 5.62613 35.8462 6.19712C36.2801 6.45496 36.7588 6.66591 36.9096 6.66591C37.0604 6.66591 37.6192 6.42859 38.1513 6.13852C38.6835 5.84846 39.192 5.61113 39.2816 5.61113C39.371 5.61113 39.6702 5.84143 39.9464 6.12282L40.4486 6.63462L39.8957 7.73428C39.287 8.94505 39.2375 9.30684 39.6093 9.82895C40.0371 10.4298 40.7512 12.0709 41.0536 13.1485C41.224 13.7555 41.4332 14.2473 41.5609 14.3413C41.6805 14.4293 42.2634 14.6448 42.8564 14.8203L43.9344 15.1394L43.9698 15.5612C43.9892 15.7933 43.9869 16.175 43.9648 16.4095L43.9244 16.8358L42.825 17.1605C42.1828 17.3501 41.6333 17.5871 41.5033 17.7303C41.3809 17.8652 41.143 18.4632 40.9745 19.0594C40.6797 20.1018 40.0557 21.5024 39.5954 22.154C39.2527 22.6395 39.3258 23.1152 39.9195 24.2649L40.4633 25.3177L39.8967 25.8929L39.3302 26.468L38.2473 25.8842C37.6516 25.5631 37.0491 25.3003 36.9083 25.3003C36.7675 25.3003 36.3478 25.4854 35.9754 25.7116C35.0506 26.2733 34.1455 26.6611 32.9521 27.0069C32.3986 27.1674 31.8503 27.3849 31.7338 27.4903C31.6173 27.5957 31.3618 28.201 31.1661 28.8351L30.8103 29.9882H30H29.1897L28.8339 28.8351C28.6382 28.201 28.3827 27.5957 28.2662 27.4903C28.1497 27.3849 27.6014 27.1674 27.0479 27.0069C25.8545 26.6611 24.9494 26.2733 24.0246 25.7116C23.6522 25.4854 23.2325 25.3003 23.0917 25.3003C22.9509 25.3003 22.3484 25.5631 21.7527 25.8842L20.6698 26.468L20.1033 25.8929L19.5367 25.3177L20.0805 24.2649C20.6833 23.0977 20.7482 22.6392 20.3829 22.1264C19.9622 21.5353 19.2465 19.8873 18.9464 18.8178C18.776 18.2107 18.5668 17.7189 18.4391 17.6249C18.3195 17.5369 17.7339 17.3206 17.1376 17.1441L16.0535 16.8233V15.993V15.1627L17.2804 14.781C18.0382 14.5452 18.5483 14.3213 18.6146 14.195C18.6737 14.0826 18.8368 13.5698 18.977 13.0553C19.2448 12.0731 19.9679 10.4228 20.3907 9.82895C20.7655 9.3025 20.7128 8.92571 20.0979 7.73487L19.5371 6.64915L20.0464 6.1302C20.3266 5.84471 20.629 5.61113 20.7184 5.61113C20.808 5.61113 21.3165 5.84846 21.8487 6.13852C22.3808 6.42859 22.9396 6.66591 23.0904 6.66591C23.2412 6.66591 23.7146 6.45812 24.1421 6.20404C25.0666 5.65485 26.4019 5.11047 27.3311 4.90385C27.7001 4.82181 28.1076 4.65644 28.2365 4.53631C28.3653 4.4163 28.6344 3.79152 28.8344 3.14799L29.1978 1.97801H30H30.8022L31.1656 3.14799ZM27.949 7.24334C25.2614 7.92672 23.2622 9.49248 21.9976 11.9046C21.3205 13.1962 21.0612 14.3164 21.0541 15.9831C21.0493 17.0909 21.1028 17.5833 21.3059 18.3026C22.1382 21.2501 24.237 23.4808 27.1567 24.5213C28.141 24.8721 28.2584 24.887 30 24.8833C31.7226 24.8798 31.8695 24.8609 32.8397 24.5197C37.8125 22.7705 40.2937 17.3412 38.3044 12.5625C37.431 10.4646 35.6999 8.67468 33.6746 7.77554C31.9872 7.02629 29.6552 6.80959 27.949 7.24334ZM31.6119 9.18613C34.0893 9.77024 36.1993 11.8864 36.8116 14.4009C36.898 14.7555 36.9633 15.5466 36.9567 16.1589C36.9363 18.0759 36.2226 19.6596 34.7465 21.063C32.627 23.0781 29.5411 23.5317 26.8419 22.2249C25.7328 21.6879 24.316 20.2524 23.7467 19.0888C22.3723 16.2796 22.9517 13.0838 25.2256 10.933C26.0971 10.1086 27.276 9.4483 28.3344 9.19163C29.2258 8.97552 30.7082 8.97306 31.6119 9.18613ZM28.7833 11.1252C28.0053 11.3205 26.9849 11.9419 26.3637 12.5987C24.0218 15.0749 24.8282 19.0385 27.9773 20.5303C28.712 20.8782 28.8586 20.9054 30 20.9054C31.1414 20.9054 31.288 20.8782 32.0227 20.5303C35.2618 18.9959 36.0012 14.8248 33.4603 12.4217C32.5062 11.5194 31.523 11.0987 30.2548 11.0499C29.6956 11.0285 29.0335 11.0623 28.7833 11.1252ZM31.3623 13.3237C31.9237 13.6101 32.537 14.2738 32.7831 14.8612C32.8795 15.0915 32.9584 15.5964 32.9584 15.9831C32.9584 16.8075 32.7544 17.3566 32.2232 17.9616C31.6105 18.6594 31.0274 18.9077 30 18.9077C29.3269 18.9077 29.0112 18.8489 28.6522 18.6573C27.4283 18.0041 26.7966 16.6643 27.0831 15.329C27.2132 14.7225 27.725 13.9441 28.2488 13.5561C29.0628 12.9532 30.4353 12.8508 31.3623 13.3237ZM18.1402 22.2015L18.5193 22.9703L17.9896 23.9421C17.1597 25.4645 17.2408 25.8282 18.7403 27.3092C19.4828 28.0426 19.9068 28.3689 20.2516 28.4723C20.7136 28.6106 20.7733 28.5954 21.9025 28.0539L23.074 27.492L23.8763 27.9137C24.3176 28.1455 25.1508 28.493 25.7279 28.6859L26.7771 29.0365L27.0968 30.0105C27.5331 31.3393 27.6429 31.5164 28.1834 31.7622C28.888 32.0827 31.1435 32.072 31.819 31.745C32.3807 31.4731 32.4698 31.3306 32.9032 30.0105L33.2229 29.0365L34.2721 28.6859C34.8492 28.493 35.6824 28.1455 36.1237 27.9137L36.926 27.492L38.0975 28.0539C39.2125 28.5886 39.2914 28.6091 39.7303 28.4777C40.2364 28.326 41.3659 27.3474 42.0908 26.4324C42.7165 25.6426 42.7026 25.2119 42.0104 23.9421L41.4807 22.9703L41.8598 22.2015C42.0683 21.7788 42.2896 21.4328 42.3516 21.4328C42.4768 21.4328 57.5114 26.8018 57.7518 26.9324C57.8366 26.9786 51.7508 29.208 43.9255 31.9976L29.9477 36.9803L28.8312 36.5778C28.2171 36.3564 21.9532 34.1149 14.9114 31.5966C7.86971 29.0784 2.12903 26.9972 2.15446 26.9717C2.22466 26.9015 17.5005 21.4416 17.6398 21.4369C17.7066 21.4347 17.9317 21.7788 18.1402 22.2015ZM22.0566 36.2824C27.5268 38.2452 29.611 38.944 30 38.9452C30.3946 38.9464 32.3962 38.2763 37.9489 36.2841C42.0309 34.8196 45.4566 33.6213 45.5618 33.6213C45.7627 33.6213 57.6554 37.8276 57.8018 37.9504C57.8702 38.0077 31.8329 47.3645 30.3323 47.8218C29.9222 47.9467 29.2717 47.727 16.0128 42.9862C8.37343 40.2547 2.14321 37.9996 2.16794 37.9749C2.28033 37.8624 14.1493 33.6418 14.3802 33.6322C14.5235 33.6263 17.9779 34.8189 22.0566 36.2824ZM15.1692 39.3001C14.6915 39.7777 14.8113 40.5387 15.4149 40.86C15.8786 41.107 26.8518 44.9895 27.0859 44.9895C27.3925 44.9895 28.0076 44.3735 28.0076 44.0664C28.0076 43.6493 27.7518 43.2479 27.3761 43.0754C26.5077 42.6768 16.0287 39.0124 15.757 39.0124C15.592 39.0124 15.3275 39.1419 15.1692 39.3001ZM21.386 47.0344C27.4001 49.1904 29.6077 49.9336 30 49.9339C30.3933 49.9342 32.6189 49.1863 38.7508 46.9933L46.9741 44.0524L52.4327 46.0063C55.4349 47.081 57.8698 47.9817 57.8436 48.0079C57.8173 48.0342 51.5345 50.2885 43.8818 53.0175L29.9678 57.9793L18.1763 53.76C11.6909 51.4395 5.48814 49.2235 4.39235 48.8357C3.29655 48.4479 2.33377 48.0941 2.25279 48.0493C2.08496 47.9566 12.854 44.0432 13.1236 44.0989C13.2202 44.119 16.9383 45.4399 21.386 47.0344ZM15.2544 49.2672C14.8209 49.632 14.7507 50.1931 15.0866 50.6079C15.3255 50.9028 26.5102 54.9513 27.0861 54.9513C27.5453 54.9513 28.0076 54.4867 28.0076 54.0255C28.0076 53.289 27.8439 53.2103 21.8726 51.0808C18.7884 49.9809 16.1216 49.0523 15.9461 49.0172C15.7106 48.9701 15.5301 49.0353 15.2544 49.2672Z" fill="#B32BD6"/>
</svg>
