<svg width="60" height="51" viewBox="0 0 60 51" fill="none" xmlns="http://www.w3.org/2000/svg">
<path fill-rule="evenodd" clip-rule="evenodd" d="M15.0555 6.90891C6.41938 10.9772 0.318191 13.9163 0.196387 14.0667C-0.08403 14.413 -0.0633973 14.8098 0.253479 15.1627C0.413265 15.3405 2.43539 16.3554 5.38235 17.7369L10.2474 20.0173L10.3061 25.3921C10.3635 30.6592 10.3701 30.7796 10.632 31.3957C11.1439 32.5998 12.0703 33.779 13.3541 34.8608C16.447 37.4669 20.7869 39.2619 25.8978 40.0489C27.5714 40.3066 32.0887 40.342 33.6937 40.11C36.9554 39.6385 40.2091 38.6904 42.4331 37.5635C42.7481 37.4038 43.0339 37.2732 43.0683 37.2732C43.1027 37.2732 43.1308 37.748 43.1308 38.3283C43.1308 39.2075 43.1002 39.3834 42.9474 39.3834C42.8464 39.3834 42.4885 39.6604 42.1521 39.9989C41.0582 41.0993 40.9538 42.3629 41.8495 43.6623L42.1727 44.1313L41.9536 46.5931C41.6673 49.8114 41.6666 49.7702 42.0118 50.1153C42.2919 50.3955 42.3467 50.4031 44.0687 50.4031C45.7907 50.4031 45.8454 50.3955 46.1255 50.1153C46.4707 49.7702 46.47 49.8114 46.1838 46.5931L45.9647 44.1313L46.2879 43.6623C47.1835 42.3629 47.0792 41.0993 45.9853 39.9989C45.6488 39.6604 45.2909 39.3834 45.19 39.3834C45.0323 39.3834 45.0065 39.1548 45.0065 37.7582V36.1332L45.828 35.5223C47.4905 34.2861 48.7795 32.7835 49.3714 31.3917C49.6313 30.7806 49.6385 30.6494 49.6958 25.3955L49.7544 20.024L54.6195 17.7445C57.6526 16.3233 59.5839 15.3527 59.7484 15.1669C60.0839 14.7879 60.0839 14.3874 59.7484 14.0204C59.4295 13.6715 30.3802 -0.00937368 29.9783 4.81964e-06C29.8295 0.00352176 23.1143 3.1125 15.0555 6.90891ZM43.5411 8.31534C50.8271 11.7487 56.8018 14.5694 56.8182 14.5837C56.8702 14.6289 44.5928 20.3919 44.4444 20.3919C44.3662 20.3919 41.1374 18.8093 37.2693 16.875C33.4011 14.9407 30.1017 13.358 29.9374 13.358C29.3053 13.358 28.8683 14.1818 29.1858 14.775C29.2606 14.9149 31.8318 16.2662 35.776 18.2385C41.8524 21.2771 42.2259 21.4816 41.9544 21.6216C40.8748 22.1778 30.1218 27.1913 30.0083 27.1913C29.8967 27.1913 10.2168 17.9657 4.41249 15.1924L3.14944 14.589L16.4873 8.29588C23.8231 4.83474 29.9306 2.01861 30.0595 2.03795C30.1885 2.0573 36.2552 4.8821 43.5411 8.31534ZM21.0986 25.1256C25.8417 27.3578 29.8488 29.1843 30.0034 29.1843C30.1581 29.1843 33.1462 27.839 36.6438 26.1949C40.1414 24.5507 43.0323 23.2055 43.068 23.2055C43.1037 23.2055 43.1193 25.8812 43.1026 29.1514L43.0722 35.0975L41.9764 35.6534C39.6308 36.8433 36.8383 37.7234 33.9826 38.1726C32.0999 38.4688 27.9019 38.4688 26.0193 38.1726C24.1994 37.8863 21.8151 37.2626 20.3481 36.6889C16.6351 35.2373 13.5544 32.9873 12.5274 30.977L12.2404 30.4152L12.2072 25.6826C12.1805 21.8694 12.2033 20.9614 12.3244 21.0084C12.4072 21.0406 16.3555 22.8933 21.0986 25.1256ZM47.8201 25.5326C47.8201 30.4411 47.8177 30.4623 47.1732 31.4703C46.8012 32.0521 45.2859 33.6391 45.1023 33.6391C45.0497 33.6391 45.0065 31.0783 45.0065 27.9485V22.258L46.3254 21.6277C47.0508 21.281 47.6837 20.9931 47.7322 20.9878C47.7806 20.9824 47.8201 23.0276 47.8201 25.5326ZM44.7187 41.3124C44.9002 41.4938 45.0065 41.7341 45.0065 41.9625C45.0065 42.1908 44.9002 42.4312 44.7187 42.6125C44.5374 42.794 44.297 42.9003 44.0687 42.9003C43.8403 42.9003 43.6 42.794 43.4186 42.6125C43.2372 42.4312 43.1308 42.1908 43.1308 41.9625C43.1308 41.7341 43.2372 41.4938 43.4186 41.3124C43.6 41.131 43.8403 41.0246 44.0687 41.0246C44.297 41.0246 44.5374 41.131 44.7187 41.3124ZM44.2848 46.3941C44.4731 48.6421 44.4847 48.5274 44.0687 48.5274C43.7846 48.5274 43.717 48.478 43.717 48.2698C43.717 47.5712 43.9983 44.776 44.0687 44.776C44.113 44.776 44.2103 45.5042 44.2848 46.3941Z" fill="#1199FC"/>
</svg>
