<svg width="60" height="56" viewBox="0 0 60 56" fill="none" xmlns="http://www.w3.org/2000/svg">
<path fill-rule="evenodd" clip-rule="evenodd" d="M8.51002 0.227715C6.66075 0.818928 5.15117 2.52855 4.78814 4.44301C4.72224 4.7901 4.66842 6.44179 4.66842 8.11342V11.1527L3.67173 13.0022C3.12355 14.0195 2.67504 14.9328 2.67504 15.0317C2.67504 15.283 3.09389 15.7893 3.35912 15.8586C3.9236 16.0063 4.23011 15.6812 5.13745 13.9726L6.01689 12.3163L9.56393 12.3142C13.0393 12.3121 13.111 12.3169 13.111 12.5478C13.111 12.6773 12.8985 14.2208 12.6389 15.9775C12.3793 17.7343 12.1199 19.8718 12.0626 20.7277C11.9715 22.0883 11.9139 22.3786 11.6042 23.0403C10.8571 24.637 9.55514 25.5674 7.72744 25.8107C4.92217 26.1842 2.53281 24.7346 1.90313 22.277C1.64399 21.2654 1.73135 20.4288 2.19968 19.4377C2.53738 18.723 2.55802 18.6177 2.41754 18.3248C2.03892 17.5347 1.20791 17.6046 0.71367 18.4681C0.184486 19.3924 -0.0611689 20.4577 0.012938 21.5067C0.18132 23.8938 1.64012 26.0182 3.76777 26.9748L4.66819 27.3797L4.66831 38.8257C4.66842 46.1202 4.71181 50.5005 4.78814 50.9026C5.15375 52.8308 6.60083 54.4659 8.50486 55.102C9.23221 55.3451 9.28709 55.3457 29.9961 55.3457C50.7051 55.3457 50.76 55.3451 51.4873 55.102C52.9309 54.6197 54.065 53.6262 54.7344 52.2577C55.2313 51.242 55.3238 50.5821 55.3238 48.0543C55.3238 45.8566 55.3212 45.8346 55.0359 45.5494C54.6908 45.2042 54.2769 45.1808 53.9004 45.4853C53.6286 45.7051 53.6224 45.756 53.5603 48.2702C53.5023 50.6217 53.4753 50.8757 53.2312 51.3748C52.8446 52.1654 52.2703 52.7839 51.555 53.1801L50.9266 53.5282H29.9961H9.06559L8.4372 53.1801C7.7251 52.7857 7.15218 52.1703 6.75643 51.3748L6.48592 50.8312L6.45391 39.1934L6.42178 27.5556H7.42984C8.61215 27.5556 9.8314 27.2009 10.8043 26.574C11.3983 26.1912 12.4058 25.1959 12.768 24.634L12.9506 24.3508L13.2096 24.7699C13.8631 25.8272 15.8334 27.2404 16.6565 27.2421C17.1316 27.2432 17.4495 26.8973 17.4495 26.3791C17.4495 25.8754 17.376 25.7998 16.4234 25.3238C15.5318 24.8782 14.7266 24.0219 14.2466 23.0087C13.8811 22.2372 13.8736 22.1876 13.8956 20.696C13.9119 19.589 14.0578 18.2409 14.4291 15.7712L14.9402 12.3707L19.2494 12.34L23.5588 12.3091L23.5235 17.2648L23.4883 22.2203L23.1148 23.0087C22.6349 24.0219 21.8297 24.8782 20.9381 25.3238C19.9855 25.7998 19.9119 25.8754 19.9119 26.3791C19.9119 26.8973 20.2298 27.2432 20.7049 27.2421C21.5281 27.2404 23.4984 25.8272 24.1519 24.7699L24.4109 24.3508L24.5934 24.634C24.9557 25.1959 25.9631 26.1912 26.5572 26.574C28.6252 27.9066 31.6015 27.9066 33.6695 26.574C34.2636 26.1912 35.2711 25.1959 35.6333 24.634L35.8158 24.3508L36.0652 24.7512C36.3947 25.2807 37.435 26.2799 38.0553 26.663C40.0444 27.8914 42.9402 27.8539 44.9263 26.574C45.5203 26.1912 46.5278 25.1959 46.89 24.634L47.0726 24.3508L47.322 24.7512C47.6515 25.2807 48.6918 26.2799 49.3121 26.663C50.2082 27.2165 51.4421 27.5556 52.5595 27.5556H53.5649V34.9481V42.3407L53.8528 42.6285C54.2196 42.9954 54.6691 42.9954 55.0359 42.6285L55.3238 42.3407L55.3239 34.8601L55.324 27.3797L56.2244 26.9748C58.3208 26.0323 59.797 23.911 59.9754 21.5852C60.0882 20.1131 59.9021 19.6325 57.4885 15.1635L55.3238 11.1554V8.11482C55.3238 6.44238 55.2699 4.7901 55.204 4.44301C54.837 2.50756 53.3216 0.806616 51.4436 0.222204C50.8062 0.0238034 50.3314 0 47.0062 0C43.5477 0 43.2687 0.0152436 43.0885 0.214465C42.8101 0.522032 42.8385 1.20283 43.141 1.47686C43.3697 1.68406 43.6615 1.70446 47.1571 1.75887L50.9266 1.8175L51.555 2.16552C52.2678 2.56032 52.8411 3.1764 53.2348 3.97082C53.4911 4.48804 53.5062 4.66123 53.5433 7.53381L53.5824 10.5532H29.9961H6.40982L6.44886 7.53381C6.48603 4.66123 6.50104 4.48804 6.75737 3.97082C7.15112 3.1764 7.72439 2.56032 8.4372 2.16552L9.06559 1.8175L24.502 1.75887C39.4732 1.702 39.9459 1.69355 40.1852 1.47686C40.5031 1.18911 40.5213 0.468914 40.2176 0.194062C40.0202 0.0154781 38.7732 0.000469131 24.593 0.00633202C9.97938 0.0123122 9.14802 0.023686 8.51002 0.227715ZM10.2961 3.50437C8.63314 4.04223 7.86417 5.64526 8.54696 7.15061C8.86871 7.86002 9.07966 8.07554 9.76913 8.39941C11.586 9.25281 13.5179 8.02125 13.508 6.01591C13.5036 5.09919 13.0676 4.32517 12.2871 3.8484C11.7249 3.50495 10.7924 3.34384 10.2961 3.50437ZM16.6454 3.76456C16.0892 4.04668 15.5471 4.70403 15.3313 5.35821C15.0067 6.34189 15.508 7.6941 16.4214 8.29857C16.8495 8.58186 17.0152 8.61845 17.8706 8.61845C18.7555 8.61845 18.8785 8.58878 19.3397 8.26468C19.9973 7.80257 20.4982 6.86532 20.4982 6.0974C20.4982 5.33089 19.9972 4.39224 19.3425 3.932C18.919 3.6344 18.7119 3.57437 17.9991 3.54271C17.3123 3.51234 17.0617 3.55338 16.6454 3.76456ZM23.5636 3.76456C23.0074 4.04668 22.4653 4.70403 22.2495 5.35821C21.9249 6.34189 22.4262 7.6941 23.3396 8.29857C23.7677 8.58186 23.9334 8.61845 24.7888 8.61845C25.6737 8.61845 25.7967 8.58878 26.2579 8.26468C26.9155 7.80257 27.4164 6.86532 27.4164 6.0974C27.4164 5.33089 26.9154 4.39224 26.2607 3.932C25.8372 3.6344 25.6301 3.57437 24.9173 3.54271C24.2305 3.51234 23.98 3.55338 23.5636 3.76456ZM32.3579 3.7696C31.0422 4.42402 30.5657 6.12754 31.3326 7.43614C31.7402 8.13147 32.3587 8.5366 33.2311 8.67942C34.1707 8.83338 48.7666 8.83045 49.5915 8.67625C49.9388 8.61129 50.4318 8.41254 50.687 8.23454C51.3037 7.80432 51.806 6.84504 51.806 6.0974C51.806 5.32948 51.3051 4.39224 50.6476 3.93013L50.1444 3.57636L41.5066 3.54587L32.8689 3.5155L32.3579 3.7696ZM11.2751 5.2895C11.5613 5.42001 11.8211 5.83744 11.8211 6.16694C11.8211 6.45739 11.2717 6.91821 10.9253 6.91821C10.1601 6.91821 9.79997 5.99727 10.3501 5.44721C10.6693 5.12792 10.852 5.09684 11.2751 5.2895ZM18.5003 5.53328C19.0106 6.08099 18.6234 6.91821 17.8599 6.91821C17.5981 6.91821 17.3755 6.82897 17.2196 6.66153C16.7093 6.11382 17.0965 5.2766 17.8599 5.2766C18.1218 5.2766 18.3443 5.36583 18.5003 5.53328ZM25.4185 5.53328C25.9288 6.08099 25.5416 6.91821 24.7781 6.91821C24.5163 6.91821 24.2937 6.82897 24.1378 6.66153C23.6275 6.11382 24.0147 5.2766 24.7781 5.2766C25.04 5.2766 25.2625 5.36583 25.4185 5.53328ZM49.8081 5.53328C50.2731 6.03233 50.0357 6.71969 49.3283 6.92266C48.8025 7.07346 33.9377 7.07346 33.4119 6.92266C32.7045 6.71969 32.4671 6.03233 32.9321 5.53328L33.1712 5.2766H41.3701H49.569L49.8081 5.53328ZM34.8975 17.2662L34.8623 22.2203L34.4888 23.0087C33.5349 25.0222 31.6821 26.0324 29.4157 25.7745C27.8438 25.5957 26.4761 24.5673 25.7379 23.0087L25.3644 22.2203L25.3292 17.2662L25.2941 12.3121H30.1134H34.9326L34.8975 17.2662ZM45.1752 12.5759C45.4523 13.8504 46.112 19.6308 46.1152 20.8133C46.1188 22.1555 46.1018 22.2567 45.7456 23.0087C45.2478 24.0594 44.4578 24.8843 43.4955 25.358C42.7663 25.7171 42.6518 25.7381 41.4287 25.7381C40.2056 25.7381 40.0912 25.7171 39.3619 25.358C38.3996 24.8843 37.6096 24.0594 37.1119 23.0087L36.7384 22.2203L36.7032 17.2662L36.6681 12.3121H40.893H45.1179L45.1752 12.5759ZM55.9687 16.0235C57.065 18.0617 58.0316 19.9467 58.1167 20.2127C58.2142 20.5174 58.2489 20.9925 58.2105 21.4985C58.0892 23.1004 57.04 24.6359 55.5731 25.358C54.8098 25.7337 54.7818 25.7381 53.0959 25.7381C51.4099 25.7381 51.3819 25.7337 50.6187 25.358C49.6626 24.8874 48.864 24.0577 48.388 23.0403C48.0767 22.375 48.0211 22.0915 47.9279 20.6915C47.8447 19.4424 47.1939 13.9994 46.9575 12.5759L46.9137 12.3121L50.4446 12.3149L53.9753 12.3178L55.9687 16.0235ZM15.4607 30.2747C15.3293 30.4157 15.2233 30.6664 15.2254 30.8316C15.2339 31.5183 15.7835 31.7769 17.2346 31.7769C18.0221 31.7769 18.1784 31.8133 18.4807 32.0677C18.6706 32.2276 18.8829 32.5046 18.9522 32.6833C19.0216 32.8618 19.6657 35.8047 20.3838 39.2227C21.1017 42.6408 21.7823 45.6484 21.896 45.9064C22.1483 46.4782 22.8692 47.1965 23.4469 47.452C23.8509 47.6307 23.8679 47.66 23.7552 47.9834C23.441 48.8846 23.9768 50.276 24.864 50.8631C25.2921 51.1464 25.4578 51.183 26.3131 51.183C27.1981 51.183 27.3211 51.1533 27.7823 50.8292C28.0983 50.6072 28.4118 50.2362 28.6245 49.8326C28.922 49.2681 28.9565 49.1002 28.907 48.4568L28.8505 47.7239H30.7583H32.6661L32.6095 48.4568C32.5601 49.1002 32.5945 49.2681 32.892 49.8326C33.1047 50.2362 33.4183 50.6072 33.7343 50.8292C34.1965 51.1542 34.3173 51.183 35.2141 51.183C36.1109 51.183 36.2316 51.1542 36.6939 50.8292C37.0099 50.6072 37.3234 50.2362 37.5361 49.8326C37.8336 49.2681 37.8681 49.1002 37.8186 48.4568C37.7641 47.7501 37.7719 47.7239 38.0372 47.7239C38.3942 47.7239 38.7915 47.2926 38.7867 46.9103C38.782 46.5269 38.5638 46.2413 38.1576 46.0869C37.9493 46.0077 35.4651 45.965 31.0596 45.965C24.3641 45.965 24.2784 45.9621 23.9708 45.7202C23.5674 45.4029 23.3551 44.9814 23.2518 44.2926L23.1685 43.7371H31.1469H39.1252L39.3493 43.4523C39.5111 43.2465 39.8392 41.8379 40.5304 38.3809C41.0568 35.7483 41.4857 33.5152 41.4837 33.4185C41.4816 33.3217 41.4001 33.137 41.3027 33.0081C41.1285 32.7775 40.9532 32.7726 30.9747 32.7149L20.8238 32.6563L20.5977 32.0499C20.3274 31.3255 19.6773 30.6214 18.9563 30.2723C18.5093 30.056 18.2267 30.018 17.0653 30.018C15.8115 30.018 15.6802 30.039 15.4607 30.2747ZM25.6613 34.5617C25.6633 34.6102 25.7408 35.2037 25.8334 35.8809C25.9261 36.558 26.0036 37.1781 26.0056 37.2587C26.0085 37.3706 25.5115 37.4052 23.9009 37.4052C21.8103 37.4052 21.792 37.403 21.7327 37.1414C21.5488 36.3301 21.2018 34.6473 21.2018 34.5672C21.2018 34.4486 25.6563 34.4432 25.6613 34.5617ZM33.3966 34.5106C33.3966 34.7633 33.0307 37.2159 32.981 37.2963C32.8996 37.428 27.9239 37.4451 27.8429 37.314C27.8119 37.2638 27.7292 36.7757 27.659 36.2294C27.5889 35.6829 27.5032 35.0645 27.4686 34.8549L27.4058 34.4738H30.4012C32.0487 34.4738 33.3966 34.4903 33.3966 34.5106ZM39.494 34.593C39.494 34.7228 39.0477 36.8661 38.9512 37.2C38.8976 37.3853 38.6938 37.4052 36.8478 37.4052C35.7236 37.4052 34.8053 37.3657 34.8074 37.3173C34.8094 37.2689 34.8869 36.6753 34.9795 35.9981C35.0722 35.321 35.1497 34.701 35.1517 34.6204C35.1565 34.4322 39.494 34.4049 39.494 34.593ZM26.2476 39.252C26.2496 39.3005 26.3271 39.894 26.4197 40.5712C26.5124 41.2483 26.5899 41.8419 26.5919 41.8903C26.594 41.9388 25.725 41.9783 24.6609 41.9783C23.5968 41.9783 22.7259 41.9388 22.7255 41.8903C22.7252 41.8419 22.5989 41.2088 22.4449 40.4832L22.1649 39.1641H24.2044C25.3261 39.1641 26.2455 39.2036 26.2476 39.252ZM32.8065 39.252C32.8045 39.3005 32.727 39.894 32.6344 40.5712C32.5418 41.2483 32.4643 41.8419 32.4623 41.8903C32.4567 42.02 28.3545 41.9991 28.3545 41.8695C28.3545 41.7322 28.1378 40.0524 28.0545 39.5452L27.992 39.1641H30.4012C31.7262 39.1641 32.8086 39.2036 32.8065 39.252ZM38.5504 39.252C38.5475 39.3005 38.4265 39.9204 38.2816 40.6298L38.0183 41.9196L36.1178 41.9519C35.0725 41.9696 34.219 41.9432 34.2211 41.8933C34.2231 41.8433 34.3006 41.2483 34.3933 40.5712C34.4859 39.894 34.5634 39.3005 34.5654 39.252C34.5675 39.2036 35.4662 39.1641 36.5625 39.1641C37.6589 39.1641 38.5534 39.2036 38.5504 39.252ZM26.9428 48.0978C27.4531 48.6456 27.0659 49.4828 26.3025 49.4828C25.8211 49.4828 25.423 49.1112 25.423 48.662C25.423 47.9271 26.4342 47.5518 26.9428 48.0978ZM35.8544 48.0978C36.3647 48.6456 35.9775 49.4828 35.2141 49.4828C34.7327 49.4828 34.3346 49.1112 34.3346 48.662C34.3346 47.9271 35.3457 47.5518 35.8544 48.0978Z" fill="#DB9102"/>
</svg>
