<svg width="60" height="59" viewBox="0 0 60 59" fill="none" xmlns="http://www.w3.org/2000/svg">
<path fill-rule="evenodd" clip-rule="evenodd" d="M25.3887 0.111653C20.8625 0.771741 17.0379 4.02063 15.6767 8.36182C14.6187 11.7364 15.1719 15.6119 17.1252 18.5078C17.7589 19.4474 19.0772 20.8317 19.9718 21.4969C20.3802 21.8006 20.5933 22.0269 20.499 22.0569C20.4121 22.0847 20.0509 22.1971 19.6964 22.3068C18.6564 22.6288 18.3009 23.1285 18.6491 23.7791C18.8809 24.2121 19.2546 24.2466 20.3325 23.934C24.6919 22.6703 29.2733 22.648 33.5016 23.87C34.1672 24.0625 34.7998 24.1888 34.9075 24.1507C35.3197 24.0051 35.5132 23.7287 35.5132 23.2856C35.5132 22.7511 35.277 22.5502 34.3416 22.2893C33.9872 22.1904 33.6219 22.0847 33.5299 22.0546C33.4185 22.018 33.5165 21.8971 33.8228 21.6927C34.6784 21.1221 35.7201 20.1394 36.3505 19.3084C37.0402 18.3994 36.9902 18.4147 38.2158 18.7337L38.6337 18.8425L38.4712 19.7517C38.3677 20.3312 38.3272 21.1498 38.3599 22.0083C38.445 24.2381 39.0861 25.7332 40.5292 27.0669C41.817 28.257 43.426 28.8462 45.3548 28.8343C46.9999 28.824 47.893 28.5123 48.7466 27.6504C49.182 27.2109 49.5204 26.7224 49.7514 26.2C49.9431 25.7667 50.1379 25.4109 50.1843 25.4092C50.3421 25.4033 51.5562 27.2177 52.0243 28.1593C52.2807 28.6748 52.6186 29.4532 52.7751 29.8892C53.1159 30.8386 53.4639 31.3721 53.9669 31.7167C54.1722 31.8574 55.0519 32.2104 55.9221 32.5013C57.1229 32.9027 57.5859 33.1156 57.844 33.3849L58.184 33.7398V36.4192V39.0986L57.8353 39.4625C57.547 39.7634 57.083 39.957 55.1557 40.5801C53.7569 41.0323 52.6679 41.4535 52.4321 41.6333C52.216 41.7981 51.6965 42.4527 51.2777 43.088C49.9418 45.114 48.0508 46.8994 45.846 48.2163C44.311 49.1331 43.9524 49.3995 43.8339 49.711C43.7745 49.8675 43.4357 51.5289 43.0809 53.4033C42.7262 55.2776 42.4042 56.8626 42.3654 56.9254C42.3235 56.9932 41.3696 57.0396 40.0146 57.0396C37.7611 57.0396 37.733 57.0366 37.6225 56.776C37.5609 56.631 37.3517 55.6689 37.1575 54.638C36.6559 51.9759 36.4541 51.7631 34.6491 51.9949C32.4607 52.2757 29.9027 52.357 27.58 52.2195C24.5098 52.0375 24.5705 51.9922 24.0272 54.8751C23.8355 55.892 23.6198 56.7951 23.5479 56.8819C23.3656 57.1015 19.0792 57.1119 18.9064 56.8932C18.8428 56.8127 18.5128 55.2968 18.173 53.5248C17.8332 51.7527 17.4797 50.1532 17.3874 49.9704C17.295 49.7876 17.0593 49.5503 16.8635 49.4432C13.8566 47.7977 11.3563 45.2876 9.97859 42.5316C9.46062 41.4957 8.85173 39.6109 8.60944 38.2938C8.35743 36.9238 8.32322 33.3974 8.54922 32.0842C9.35869 27.3805 11.5165 24.0165 15.3362 21.5032C16.4816 20.7495 16.6632 20.4924 16.4593 19.9125C16.4002 19.7445 16.1961 19.5323 16.0056 19.4411C15.6846 19.2872 15.6164 19.2988 15.071 19.6004C13.3402 20.5575 11.2889 22.3605 10.0498 24.014C8.4207 26.1882 7.50766 28.3536 6.85729 31.5863C6.76603 32.0395 6.60997 31.8754 6.53569 31.2483C6.28437 29.1256 4.3607 27.4214 2.7161 27.8643C1.71203 28.1346 0.716273 29.4107 0.716273 30.4271C0.716273 31.6531 1.86621 32.6674 3.80078 33.1478L4.36621 33.2882L3.80078 33.8674C3.09571 34.5897 2.33896 34.9837 1.26248 35.1888C0.0594655 35.418 -0.308422 35.9785 0.265201 36.7079C0.506788 37.0148 0.554473 37.0266 1.41374 36.9873C2.16884 36.9529 2.45308 36.8758 3.21673 36.4984C4.20312 36.0109 5.50607 34.8295 5.92727 34.041C6.0784 33.7581 6.2422 33.6073 6.39826 33.6073C6.62133 33.6073 6.63457 33.6653 6.59403 34.4683C6.54143 35.5106 6.74623 37.8793 6.99472 39.1007C7.42459 41.2145 8.35462 43.4361 9.59981 45.3235C10.7644 47.0889 13.2309 49.3437 15.3772 50.6055L15.8919 50.908L16.454 53.886C16.7631 55.5238 17.0953 57.0855 17.1922 57.3563C17.4017 57.942 17.9996 58.5014 18.6107 58.6839C18.8965 58.7692 19.9193 58.802 21.5124 58.777C23.841 58.7406 23.996 58.724 24.4063 58.469C25.0724 58.0547 25.2705 57.611 25.6458 55.6923L25.9895 53.9348L26.5042 53.9499C29.9294 54.0507 33.2304 53.9631 35.0404 53.7232C35.1683 53.7063 35.2645 53.9828 35.4199 54.8135C35.8648 57.195 35.9889 57.6252 36.3484 58.0347C36.9664 58.7386 37.3656 58.815 40.2136 58.7744L42.7366 58.7385L43.2359 58.4077C43.5569 58.1952 43.8119 57.9022 43.9497 57.5876C44.0676 57.3185 44.4415 55.6167 44.7807 53.8061L45.3973 50.514L45.9911 50.1845C48.7997 48.6262 51.3784 46.2297 52.9964 43.6741C53.4658 42.9329 53.3162 43.008 56.1337 42.0998C58.7172 41.2671 59.2729 40.8854 59.7626 39.6074C59.9749 39.0533 60 38.7171 60 36.4192C60 34.1239 59.9748 33.7845 59.7632 33.231C59.3099 32.045 58.6761 31.5716 56.6609 30.914C55.7918 30.6305 55.0314 30.3096 54.89 30.1669C54.7537 30.0293 54.4515 29.4159 54.2183 28.8037C53.5578 27.0695 52.654 25.6049 51.098 23.7475L50.7392 23.3191L50.9301 22.2829C51.1759 20.9491 51.2817 17.6128 51.1079 16.6775C50.9215 15.6737 50.4247 14.7402 49.9241 14.4526C48.8391 13.8294 46.1173 14.4423 41.798 16.2826C40.8867 16.6708 40.0284 17.0609 39.8905 17.1494C39.7101 17.2652 39.5298 17.2811 39.2461 17.2063C39.0296 17.1493 38.6345 17.0461 38.3684 16.9771L37.8844 16.8517L38.177 16.1269C38.5382 15.2326 38.9073 13.4879 38.9094 12.6647C38.9113 11.9179 38.6442 11.5809 38.0504 11.5809C37.472 11.5809 37.2629 11.8879 37.1489 12.9049C36.7552 16.4153 34.6917 19.4229 31.616 20.9694L30.7054 21.4272L28.8357 21.2874C27.3771 21.1783 26.5777 21.1789 25.1987 21.2904C23.4327 21.4329 23.4307 21.4328 22.8099 21.1486C20.1329 19.9231 18.0514 17.4746 17.216 14.5686C16.986 13.7687 16.9477 13.3736 16.9546 11.8738C16.9618 10.3168 16.9984 9.9988 17.2766 9.08459C17.8113 7.32646 18.6149 5.97992 19.8909 4.70392C24.5275 0.0673662 32.3818 1.05492 35.7476 6.69754C36.429 7.83998 36.8368 8.05602 37.4306 7.5889C37.91 7.21188 37.8421 6.75952 37.132 5.60079C35.9631 3.69363 33.7968 1.83404 31.7292 0.962832C29.729 0.120089 27.4387 -0.187343 25.3887 0.111653ZM27.101 5.7463C27.0237 5.82363 26.9605 6.0023 26.9605 6.14336C26.9605 6.34746 26.8708 6.41588 26.5211 6.47891C25.3046 6.69824 24.3796 7.51544 24.141 8.58138C23.8048 10.0837 24.535 11.3124 26.147 11.957L26.9019 12.259L26.9342 14.0904L26.9664 15.9219L26.6413 15.8447C26.0759 15.7107 25.6273 15.4886 25.1576 15.1108C24.6212 14.6792 24.232 14.6441 23.9795 15.0048C23.3557 15.8952 24.5727 17.0952 26.3161 17.3087C26.8472 17.3738 26.9054 17.4106 26.9389 17.7026C27.0173 18.3837 27.8977 18.3658 27.8977 17.6832C27.8977 17.3888 27.9561 17.3349 28.3957 17.2236C30.052 16.8041 30.9715 15.2228 30.6 13.4329C30.5259 13.0763 30.3373 12.611 30.1809 12.399C29.817 11.9058 28.9916 11.3186 28.3772 11.1158L27.8977 10.9576V9.39471C27.8977 7.60425 27.8697 7.6394 28.9522 8.0661C29.2792 8.19498 29.642 8.30042 29.7585 8.30042C30.1023 8.30042 30.3791 7.89997 30.337 7.46342C30.3061 7.14099 30.212 7.025 29.7966 6.79654C29.5013 6.63415 29.0053 6.49368 28.5957 6.45654C27.978 6.40053 27.8977 6.36421 27.8977 6.14008C27.8977 5.84097 27.6914 5.60571 27.4291 5.60571C27.326 5.60571 27.1784 5.66898 27.101 5.7463ZM27.0776 9.23971V10.6476L26.496 10.3529C25.8398 10.0204 25.6457 9.74174 25.629 9.10896C25.616 8.61137 25.8861 8.23763 26.4332 7.99615C27.0756 7.71251 27.0776 7.71637 27.0776 9.23971ZM28.3567 12.9222C28.974 13.3119 29.282 14.0808 29.0846 14.7395C28.9356 15.2372 28.3636 15.7988 28.0059 15.7988C27.7948 15.7988 27.7806 15.6996 27.7806 14.2171C27.7806 13.3472 27.808 12.6354 27.8415 12.6354C27.875 12.6354 28.1069 12.7644 28.3567 12.9222ZM49.2413 16.3553C49.351 16.6649 49.3947 17.4519 49.3893 19.0207C49.3831 20.8539 49.3361 21.4587 49.1234 22.4477C48.7942 23.979 48.2455 25.4962 47.7976 26.1146C47.165 26.988 45.7819 27.335 44.2343 27.0083C42.1483 26.568 40.7692 25.2985 40.2621 23.3516C39.9188 22.0334 40.1155 19.3912 40.5965 18.8596C40.8243 18.6079 43.1878 17.5465 44.9555 16.9018C46.3938 16.3774 48.0854 15.9293 48.6555 15.9217C49.0489 15.9164 49.0992 15.9536 49.2413 16.3553ZM3.8282 29.7454C4.21413 29.9839 4.81693 30.9909 4.81693 31.3968C4.81693 31.5903 4.77873 31.5901 4.07154 31.394C3.12886 31.1326 2.54224 30.7934 2.49701 30.4834C2.45554 30.2006 2.99846 29.5067 3.26114 29.5067C3.36061 29.5067 3.61579 29.6141 3.8282 29.7454ZM44.8832 31.4691C44.2616 32.257 45.1582 34.0648 46.4348 34.5972C47.0252 34.8435 48.1115 34.8254 48.6965 34.5597C49.9709 33.9808 50.7861 32.2608 50.1614 31.4691C49.6664 30.8419 48.6353 31.2225 48.6353 32.0324C48.6353 32.1799 48.4988 32.4628 48.332 32.661C48.0795 32.9612 47.944 33.0215 47.5223 33.0215C47.1006 33.0215 46.9651 32.9612 46.7126 32.661C46.5377 32.4532 46.4093 32.1556 46.4093 31.958C46.4093 31.1722 45.3781 30.8419 44.8832 31.4691Z" fill="#B6B6B6"/>
</svg>
