<svg width="60" height="61" viewBox="0 0 60 61" fill="none" xmlns="http://www.w3.org/2000/svg">
<path fill-rule="evenodd" clip-rule="evenodd" d="M27.1737 0.121603C21.4612 0.629386 15.5596 3.04731 11.0218 6.73886C9.68801 7.82401 7.57614 9.95266 6.51234 11.2845C3.82251 14.6518 1.61829 19.2066 0.704113 23.2861C0.130026 25.8486 0 27.0943 0 30.0338C0 32.9734 0.130026 34.2191 0.704113 36.7816C1.63824 40.9501 3.89996 45.57 6.67921 48.9862C7.76437 50.32 9.89302 52.4319 11.2249 53.4957C14.5922 56.1855 19.1469 58.3898 23.2265 59.3039C25.789 59.878 27.0347 60.008 29.9742 60.008C32.9138 60.008 34.1595 59.878 36.722 59.3039C39.7892 58.6166 43.7997 56.9028 46.4352 55.1532C51.0061 52.1186 54.5166 48.1259 56.9136 43.236C58.8543 39.2763 59.8062 35.5094 59.9776 31.11C60.2509 24.0991 58.0142 17.2366 53.5837 11.4922C52.5938 10.2088 49.7992 7.41422 48.5158 6.42435C42.3161 1.6426 34.8541 -0.561034 27.1737 0.121603ZM33.9642 2.27936C35.528 2.51265 37.7581 3.06034 39.2877 3.58689C41.8075 4.45413 45.1659 6.30853 47.3935 8.06247C48.4615 8.90342 51.1046 11.5465 51.9456 12.6146C53.6995 14.8421 55.5539 18.2005 56.4212 20.7203C57.5217 23.9177 57.9541 26.546 57.9535 30.0338C57.9529 32.8814 57.7772 34.3613 57.1372 36.9047C54.6455 46.8085 46.7489 54.7051 36.8451 57.1969C34.3017 57.8368 32.8218 58.0126 29.9742 58.0132C26.4864 58.0138 23.858 57.5813 20.6607 56.4808C18.1409 55.6136 14.7825 53.7592 12.5549 52.0052C11.4869 51.1643 8.84378 48.5212 8.00283 47.4531C6.24888 45.2256 4.39449 41.8672 3.52725 39.3474C2.99002 37.7867 2.45207 35.5841 2.19848 33.9065C1.91648 32.0417 1.91648 28.0259 2.19848 26.1612C2.6585 23.1185 3.47855 20.4694 4.79571 17.7705C6.26954 14.751 7.74031 12.7008 10.1907 10.2504C11.9094 8.53164 12.814 7.78529 14.625 6.5917C18.3492 4.13716 22.7451 2.58729 27.3338 2.11096C28.7733 1.96157 32.4609 2.05521 33.9642 2.27936ZM28.4486 10.091C26.4015 10.2413 23.1814 11.0106 22.6555 11.475C22.2939 11.7945 22.2114 12.1618 22.4001 12.6134C22.676 13.2735 23.0071 13.3223 24.3907 12.9065C26.1003 12.3929 27.1493 12.198 28.742 12.0981C30.3682 11.9961 32.2341 12.1028 33.4909 12.3698C33.9727 12.4721 34.5086 12.5248 34.6815 12.4868C35.1345 12.3872 35.4193 12.0179 35.4193 11.5299C35.4193 10.9131 35.0279 10.6334 33.8332 10.3971C32.9471 10.2216 30.2984 9.9475 29.8569 9.98552C29.76 9.99374 29.1263 10.0413 28.4486 10.091ZM17.2911 15.3558L16.9481 15.6988V20.5385V25.3783L18.4419 26.888L19.9358 28.3977L19.5018 37.1664C19.2414 42.4274 19.106 46.0994 19.1633 46.3458C19.5171 47.8684 20.9557 49.0449 22.4637 49.0449C23.9969 49.0449 25.4084 47.8914 25.7644 46.3476C25.8213 46.1008 25.6852 42.4127 25.4255 37.1664L24.9915 28.3977L26.4854 26.888L27.9792 25.3783V20.5385V15.6988L27.6362 15.3558C27.2701 14.9897 26.9472 14.9292 26.5339 15.1493C25.9902 15.4389 25.9919 15.4232 25.988 20.1195L25.9842 24.5808L24.6225 25.9284C23.8735 26.6696 23.1922 27.4345 23.1085 27.6281C22.9807 27.9236 23.0278 29.4012 23.401 36.8244C23.6994 42.7619 23.8099 45.7974 23.7373 46.0605C23.4209 47.2067 21.7972 47.317 21.2655 46.2284C21.0742 45.8366 21.0858 45.4063 21.5182 36.8989C21.8991 29.4039 21.9472 27.924 21.8191 27.6281C21.7353 27.4345 21.0538 26.6696 20.3049 25.9284L18.9431 24.5808L18.9393 20.1195C18.9355 15.4232 18.9371 15.4389 18.3934 15.1493C17.9801 14.9292 17.6573 14.9897 17.2911 15.3558ZM20.5274 15.1483C19.9982 15.4377 19.9993 15.4275 19.9993 20.028V24.4116L20.2874 24.6996C20.6826 25.095 21.2718 25.0886 21.6511 24.6848L21.9356 24.382V19.9806V15.5792L21.6063 15.2959C21.2522 14.9914 20.9018 14.9434 20.5274 15.1483ZM23.321 15.2959L22.9918 15.5792V19.9806V24.382L23.2762 24.6848C23.6555 25.0886 24.2447 25.095 24.64 24.6996L24.9281 24.4116V20.0738C24.9281 17.688 24.8952 15.6506 24.8552 15.5461C24.7679 15.3187 24.211 15.0128 23.8842 15.0128C23.7556 15.0128 23.5021 15.1402 23.321 15.2959ZM36.3112 15.173C35.0396 15.5454 33.9941 16.3749 33.4569 17.4375C33.1408 18.0625 32.5655 19.8632 32.2444 21.2324C31.9614 22.4387 31.9609 24.9871 32.2434 26.0439C32.5802 27.3036 33.3126 28.3257 34.4822 29.1674L34.8241 29.4136L34.4506 37.7916C34.1917 43.5986 34.1122 46.2898 34.1912 46.561C34.3862 47.2284 34.8972 47.9831 35.4021 48.3488C37.292 49.7179 39.9832 48.9111 40.7071 46.7585C40.8939 46.2029 40.885 45.758 40.5265 37.7922L40.1493 29.4107L40.4893 29.166C42.3111 27.8547 42.9294 26.4697 42.9308 23.6968C42.9316 21.9718 42.8129 21.294 42.1186 19.0614C41.481 17.0113 40.6852 16.0073 39.1894 15.3661C38.4632 15.0549 37.0403 14.9594 36.3112 15.173ZM43.889 17.0472C43.3887 17.5475 43.4728 18.0052 44.2623 19.0805C45.627 20.9392 46.3893 22.376 47.0282 24.2933C47.7636 26.5006 47.8697 27.2248 47.8697 30.0338C47.8697 32.8433 47.7636 33.567 47.0276 35.776C46.2186 38.2044 45.1063 40.0635 42.9998 42.5081C42.3181 43.2992 42.2429 43.7213 42.7016 44.1801C42.9045 44.3831 43.1191 44.4682 43.4279 44.4682C43.8052 44.4682 43.9465 44.3824 44.4428 43.8521C46.8219 41.3099 48.4964 38.317 49.3182 35.1377C50.3382 31.1923 50.2029 27.3657 48.9097 23.5805C48.1896 21.4732 46.6844 18.7602 45.4397 17.3261C44.9159 16.7226 44.3206 16.6156 43.889 17.0472ZM38.6181 17.2804C39.0387 17.4979 39.5683 18.02 39.7764 18.4224C40.0781 19.0058 40.7868 21.65 40.9142 22.6673C41.0621 23.8486 40.9236 25.3925 40.6108 26.0519C40.2805 26.7477 39.7637 27.2757 39.0303 27.6667C38.5447 27.9255 38.2941 28.1398 38.217 28.3625C38.1423 28.5781 38.2345 31.5127 38.4962 37.251C38.7778 43.424 38.8534 45.9216 38.7667 46.1895C38.6053 46.6882 38.135 46.9771 37.4847 46.9771C36.834 46.9771 36.3636 46.6878 36.2042 46.1895C36.1191 45.9239 36.1969 43.3719 36.4767 37.251C36.7756 30.7103 36.837 28.6071 36.7364 28.3576C36.6499 28.1433 36.3624 27.8976 35.9005 27.6434C35.0835 27.1938 34.4149 26.3944 34.18 25.5861C33.9526 24.8038 33.9902 22.4236 34.2452 21.4671C34.8794 19.0876 35.152 18.3871 35.647 17.8651C35.9155 17.582 36.3464 17.2724 36.6046 17.1772C37.1554 16.9741 38.1214 17.0235 38.6181 17.2804ZM14.1692 17.9472C13.7172 18.1294 12.2638 20.5162 11.4901 22.3473C9.68449 26.6202 9.48909 31.7288 10.9582 36.2535C11.4191 37.6731 12.6387 40.1563 13.4473 41.3211C14.366 42.6449 15.7293 44.1863 16.1271 44.351C16.5795 44.5383 17.0137 44.4216 17.2596 44.0463C17.6022 43.5234 17.5119 43.1354 16.8797 42.4144C13.8203 38.926 12.317 35.4891 12.0292 31.3247C11.7516 27.3101 12.7711 23.4077 14.9686 20.0719C15.6378 19.0565 15.7077 18.5731 15.2518 18.1173C14.9552 17.8207 14.6156 17.7673 14.1692 17.9472ZM27.0472 48.2749C26.5709 48.7819 26.7177 49.5075 27.3581 49.8113C27.7259 49.9858 28.1335 50.0194 29.9118 50.021C32.3921 50.0234 32.8463 49.9255 33.0928 49.3355C33.2797 48.8882 33.1384 48.2922 32.8031 48.1128C32.6943 48.0546 31.4119 48.0064 29.9532 48.0059C27.336 48.0048 27.2976 48.0083 27.0472 48.2749Z" fill="#DE2BAC"/>
</svg>
