<svg width="58" height="60" viewBox="0 0 58 60" fill="none" xmlns="http://www.w3.org/2000/svg">
<path fill-rule="evenodd" clip-rule="evenodd" d="M39.3466 0.1302C37.3873 0.691491 35.9662 2.22419 35.5962 4.17546C35.4365 5.01728 35.4441 6.63653 35.6099 7.13203C35.7947 7.68358 36.2436 8.25906 36.6554 8.47204L37.0011 8.65077V11.0434V13.4359L33.9226 13.4738L30.844 13.5118L30.0934 13.9186C29.6162 14.1774 29.1793 14.5326 28.8936 14.8939C28.1233 15.8684 28.088 16.1302 28.088 20.863V25.0637H25.2733H22.4587V24.2087C22.4587 21.5465 21.001 19.8208 18.6471 19.6959C17.8879 19.6556 17.5813 19.6942 17.0402 19.8984C16.1708 20.2263 15.326 20.9956 14.891 21.8554C14.5839 22.4621 14.5393 22.6854 14.501 23.8022L14.4579 25.0637H10.79C7.67312 25.0637 7.03044 25.0933 6.51125 25.261C5.7072 25.5207 4.86128 26.2878 4.50182 27.0833L4.22199 27.7024L4.18752 33.6175C4.16336 37.7626 4.19209 39.6268 4.28345 39.8473C4.40835 40.1491 4.82386 40.427 5.1499 40.427C5.23492 40.427 5.44356 40.3176 5.61349 40.1839C5.92088 39.9422 5.92252 39.9324 5.92252 38.3075C5.92252 37.4091 5.93566 36.6747 5.95184 36.6754C5.96802 36.6761 6.24023 36.7553 6.55688 36.8513C6.87352 36.9474 7.49357 37.026 7.93489 37.026H8.73718V37.4836C8.73718 37.8748 8.69039 37.9592 8.41467 38.0646C8.02191 38.2147 7.7924 38.4007 7.52969 38.782C7.23169 39.2144 7.25034 40.8228 7.55925 41.3296C8.02238 42.0892 8.16346 42.1236 10.9833 42.165C13.3383 42.1996 13.5748 42.1842 14.0719 41.9643C14.8215 41.6328 15.1232 40.962 15.0407 39.8099C14.972 38.8486 14.7484 38.4767 14.0384 38.1432C13.587 37.9311 13.5456 37.8742 13.5456 37.4675V37.0234L18.4419 37.054L23.3382 37.0846L23.3731 37.4988C23.4047 37.8747 23.3716 37.9262 23.0144 38.0554C22.798 38.1337 22.4656 38.3597 22.2758 38.5576C21.9559 38.8914 21.9283 38.9913 21.896 39.9361C21.8665 40.7911 21.8987 41.0151 22.0956 41.3296C22.5735 42.0928 22.7026 42.1239 25.561 42.1622C28.063 42.1957 28.1634 42.1881 28.6657 41.9276C29.4165 41.5382 29.6352 41.0669 29.5894 39.9366C29.5465 38.8739 29.3345 38.4973 28.5808 38.1432C28.1297 37.9312 28.088 37.874 28.088 37.4688V37.026L28.9969 37.0208C29.4967 37.018 30.1169 36.9397 30.3749 36.8467C30.6329 36.7538 30.8573 36.6768 30.8733 36.6759C30.8894 36.675 30.9027 41.2443 30.9027 46.8303C30.9027 57.9375 30.933 57.4384 30.2244 57.96C29.9117 58.1903 29.697 58.1952 18.5885 58.2246C7.99036 58.2529 7.24565 58.2416 6.86907 58.0487C6.64788 57.9354 6.35762 57.6938 6.22404 57.5117C5.98573 57.1869 5.98057 57.0493 5.94832 50.2169L5.91537 43.2532L5.60998 43.0129C4.88848 42.4454 4.16336 42.9601 4.16336 44.0399V44.4979L3.29914 44.5633C1.90201 44.669 0.910426 45.3164 0.327205 46.5041L0 47.1705V50.4543V53.738L0.302928 54.3838C0.905735 55.6687 1.98704 56.3736 3.35836 56.3756L4.13673 56.3768L4.21918 56.9339C4.35346 57.8399 4.7318 58.5672 5.36545 59.1369C6.39937 60.0665 5.68304 60.021 18.7142 59.9853L30.2576 59.9538L30.8831 59.6073C31.8809 59.0546 32.4711 58.1942 32.6339 57.055C32.7144 56.4927 32.7522 56.432 33.044 56.3984C33.3593 56.3619 33.3655 56.3734 33.3655 56.9927C33.3655 58.2985 33.8643 59.207 34.8549 59.7061C35.5908 60.0768 36.8075 59.8741 37.4504 59.2738C37.9704 58.7884 38.1123 58.3694 38.1739 57.1391L38.2325 55.9663L42.9529 55.9357L47.6734 55.905V57.002C47.6734 58.3188 47.9304 58.9296 48.7187 59.4846C49.1623 59.7972 49.313 59.8365 50.0669 59.8365C51.157 59.8365 51.7185 59.5043 52.1741 58.5899C52.4352 58.0661 52.4817 57.8182 52.4817 56.9529V55.933L53.8011 55.889C54.8797 55.853 55.221 55.7958 55.6711 55.5758C56.8149 55.0166 57.56 53.9609 57.7691 52.6028C57.8393 52.1465 57.8707 47.0004 57.8505 39.2147L57.8179 26.5679L57.4888 26.2849C57.0857 25.9382 56.8286 25.9285 56.4264 26.245L56.1173 26.488L56.1145 39.2921C56.113 46.5549 56.0656 52.2953 56.0051 52.5562C55.8754 53.1152 55.5786 53.5337 55.063 53.8846L54.6753 54.1485L45.7502 54.1486L36.8252 54.1487L36.8629 50.8406C36.9048 47.1772 36.8639 46.8638 36.2212 45.9295L35.8322 45.3639L35.8009 31.685L35.7697 18.0062L35.4928 17.782C35.1338 17.4914 34.6001 17.4961 34.3037 17.7924C34.072 18.0242 34.0692 18.1833 34.0692 31.2794V44.5317H33.3684H32.6677L32.6354 35.9998L32.6032 27.4678L32.2394 26.8228C31.8133 26.0674 31.0812 25.4624 30.36 25.2695L29.8472 25.1323V20.9156V16.6989L30.1387 16.2015C30.333 15.8698 30.5995 15.6221 30.9381 15.4582C31.443 15.2137 31.51 15.2123 42.9358 15.2123H54.4257L54.9422 15.4762C55.5728 15.7985 55.8785 16.1982 56.0084 16.8709C56.0627 17.152 56.1094 18.6843 56.1122 20.276L56.1173 23.1702L56.4264 23.4132C56.8288 23.7297 57.0857 23.72 57.4888 23.373L57.8179 23.0898V19.7667V16.4438L57.4795 15.7111C57.0922 14.8724 56.3698 14.1435 55.5516 13.7652C55.0417 13.5295 54.7874 13.5091 51.9247 13.4738L48.8461 13.4359V11.0403C48.8461 9.52613 48.8892 8.64479 48.9631 8.64479C49.2207 8.64479 50.0169 7.77811 50.2003 7.29809C50.4908 6.53743 50.3941 4.14708 50.0357 3.23208C49.5331 1.94906 48.4029 0.813929 47.1165 0.30037C46.4758 0.0444703 46.2768 0.0296934 43.1582 0.00494779C40.7611 -0.0139339 39.7319 0.0198421 39.3466 0.1302ZM46.8328 2.13049C47.5193 2.5107 47.9038 2.91097 48.2894 3.64689C48.4927 4.03461 48.5517 4.38703 48.5893 5.43819C48.636 6.74102 48.6349 6.74771 48.3307 6.94696C48.0468 7.13296 48.0044 7.13355 47.732 6.95505C47.4612 6.77761 47.4388 6.69364 47.4381 5.85675C47.4373 4.66052 47.2692 4.10837 46.7473 3.58649C46.1021 2.94123 45.6868 2.87368 42.6417 2.91812C40.1082 2.95507 39.9724 2.96879 39.554 3.22903C38.7572 3.72441 38.5974 4.07941 38.5237 5.51758C38.4687 6.59032 38.4227 6.81972 38.2351 6.95693C37.9274 7.18187 37.7465 7.16193 37.4555 6.87097C37.2258 6.64122 37.2104 6.52746 37.2595 5.42493C37.3211 4.0366 37.5523 3.43004 38.3074 2.67501C39.187 1.79531 39.5461 1.72658 43.0995 1.75719L46.2074 1.78405L46.8328 2.13049ZM45.473 4.80395C45.6209 4.91806 45.6714 5.21278 45.7006 6.13235C45.7426 7.45184 45.9313 7.88319 46.6953 8.4066L47.087 8.67505V11.0641V13.4532H42.9236H38.7603V11.0687V8.68408L39.1979 8.40062C39.9062 7.94183 40.1919 7.28531 40.2595 5.9616C40.2919 5.32712 40.3742 4.7955 40.4477 4.74707C40.686 4.58968 45.2624 4.6414 45.473 4.80395ZM39.6822 17.7821L39.4053 18.0062V33.8595V49.7127L39.6822 49.9368C40.041 50.2276 40.5749 50.2229 40.8713 49.9265C41.1035 49.6943 41.1058 49.5356 41.1058 33.8595C41.1058 18.1833 41.1035 18.0247 40.8713 17.7924C40.5749 17.4961 40.041 17.4914 39.6822 17.7821ZM44.9845 17.8669L44.7414 18.1759V33.8595V49.543L44.9845 49.852C45.3022 50.2559 45.8851 50.2733 46.2456 49.8897L46.5006 49.6182V33.8431V18.0679L46.2292 17.8129C45.8451 17.4521 45.2919 17.476 44.9845 17.8669ZM50.3912 17.8293L50.1362 18.1008V33.8759V49.651L50.4076 49.9061C50.7677 50.2443 51.2495 50.2311 51.6074 49.8732L51.8954 49.5854V33.8806V18.1759L51.6522 17.8669C51.3345 17.463 50.7517 17.4457 50.3912 17.8293ZM19.3271 21.5865C19.8284 21.796 20.4221 22.4861 20.5752 23.0375C20.6429 23.281 20.6984 23.8366 20.6988 24.272L20.6995 25.0637H18.4712H16.243L16.2455 24.0961C16.2492 22.7226 16.5536 22.1098 17.4744 21.6233C17.9095 21.3935 18.8215 21.3753 19.3271 21.5865ZM8.73718 31.0448V35.2668L7.94556 35.2663C7.06152 35.2659 6.55652 35.0411 6.19273 34.486C6.00215 34.195 5.98116 33.8522 5.98116 31.0292C5.98116 28.0444 5.99265 27.8797 6.22404 27.5644C6.59335 27.0609 7.16414 26.8232 8.0042 26.8231L8.73718 26.8228V31.0448ZM11.7864 32.3935V37.9642H11.1414H10.4963V32.3935V26.8228H11.1414H11.7864V32.3935ZM23.3691 31.0741L23.3998 35.2668H18.4728H13.5456V31.0435V26.8202L18.4419 26.8509L23.3382 26.8815L23.3691 31.0741ZM26.3288 32.3935V37.9642H25.7424H25.1561V32.3935V26.8228H25.7424H26.3288V32.3935ZM30.0909 27.0766C30.8633 27.5107 30.9027 27.7045 30.9027 31.0644C30.9027 33.7213 30.8798 34.0817 30.6884 34.4386C30.3777 35.0178 29.8345 35.2668 28.8815 35.2668H28.088V31.0448V26.8228H28.8637C29.4416 26.8228 29.7544 26.8876 30.0909 27.0766ZM13.2894 40.0459L13.2524 40.3684L11.1707 40.4004L9.08902 40.4324V40.0779V39.7234H11.2078H13.3266L13.2894 40.0459ZM27.8534 40.0752V40.427H25.7424H23.6314V40.0752V39.7234H25.7424H27.8534V40.0752ZM10.3204 44.5876C9.82634 44.8214 9.62462 45.0032 9.33882 45.4721C9.0984 45.8665 9.08984 46.0123 9.08984 49.7506C9.08984 54.0927 9.07354 54.0014 9.97868 54.692L10.4193 55.0281L18.1689 55.0634C23.3398 55.087 26.0594 55.0576 26.3423 54.9754C26.937 54.8026 27.3774 54.4231 27.6311 53.8646C27.8275 53.4318 27.8483 53.0393 27.8483 49.7506C27.8483 45.6445 27.8151 45.4587 26.9665 44.8113L26.5232 44.4731L18.5977 44.4471C11.9555 44.4253 10.6153 44.448 10.3204 44.5876ZM26.0667 49.6468C26.092 52.4311 26.068 53.0861 25.9363 53.1954C25.8182 53.2934 23.7814 53.3212 18.3408 53.2992L10.9068 53.2689L10.8756 49.8693C10.8585 47.9995 10.8702 46.4027 10.9017 46.3208C10.9472 46.2021 12.4908 46.1781 18.4971 46.2021L26.0356 46.2323L26.0667 49.6468ZM4.16336 50.4543V54.6176H3.44585C2.77209 54.6176 2.70149 54.5906 2.28469 54.174C1.71694 53.6062 1.66652 53.2315 1.71929 49.9794C1.75529 47.764 1.78262 47.482 1.99771 47.1119C2.29899 46.5934 2.89101 46.2914 3.60629 46.2911L4.16336 46.2909V50.4543ZM34.2754 46.5249C34.4857 46.6531 34.7625 46.9298 34.8907 47.1401C35.1067 47.4943 35.1238 47.7354 35.1242 50.4287C35.1247 53.6712 35.0696 53.971 34.3987 54.38C34.1285 54.5448 33.8055 54.6169 33.3362 54.6172L32.6618 54.6176V50.4543V46.2909L33.2775 46.2914C33.6848 46.2916 34.0226 46.3707 34.2754 46.5249ZM36.4147 56.8811C36.4147 57.9454 36.3231 58.136 35.8115 58.136C35.3267 58.136 35.1247 57.7544 35.1247 56.8393C35.1247 56.4129 35.1598 56.0288 35.2029 55.9859C35.2458 55.9429 35.5361 55.9077 35.8479 55.9077H36.4147V56.8811ZM50.7226 56.8073C50.7226 57.7946 50.5543 58.136 50.0677 58.136C49.5733 58.136 49.4325 57.8483 49.4325 56.8376V55.9077H50.0776H50.7226V56.8073Z" fill="#FF5A5A"/>
</svg>
