<?xml version="1.0" encoding="utf-8"?>
<!-- Generator: Adobe Illustrator 26.1.0, SVG Export Plug-In . SVG Version: 6.00 Build 0)  -->
<svg version="1.1" id="Layer_1" xmlns="http://www.w3.org/2000/svg" xmlns:xlink="http://www.w3.org/1999/xlink" x="0px" y="0px"
	 viewBox="0 0 8.6 38.9" style="enable-background:new 0 0 8.6 38.9;" xml:space="preserve">
<style type="text/css">
	.st0{fill-rule:evenodd;clip-rule:evenodd;}
</style>
<path class="st0" d="M3.1,12.2c1,0.1,1,0.5,0.8,1.5c-0.3,1.9-0.4,3.9-0.4,5.9c-0.1,2.7,0,5.4,0,8.1c0,1.7,0.6,3.3,0.7,5
	c0.1,1.5,0.7,2.7,1.2,4c0.1,0.2,0.3,0.4,0.3,0.6c0.1,0.3,1,0.3,0.3,1.1c-0.6,0.6-1.1,0.9-1.9,0.4c-1.1-0.8-1.5-2-1.9-3.3
	C1.3,32,1,28.4,0.8,24.9c-0.3-3.8-0.1-7.5,0.4-11.2c0.2-1.5,0.3-3.1,1-4.6C2.4,10,2,10.9,2,11.9c-0.1,1-0.2,2.1-0.4,3.1
	c0,0.3-0.1,0.6,0.3,0.8c-0.1,0.1-0.3,0.2-0.3,0.3c-0.4,2.3-0.4,4.6-0.3,6.9c0,0.2,0.2,0.2,0.3,0.2c-0.2,0.1-0.4,0.3-0.4,0.5
	c0.1,1.7,0,3.4,0.5,5c0.1-1.8-0.4-3.7-0.1-5.5c-0.2-2.5-0.1-4.9,0.2-7.4c0-0.7,0.1-1.3,0.1-2c0.1-0.6,0.1-0.5,0.7-0.7
	C3,13,3.1,12.6,3.1,12.2L3.1,12.2z"/>
<path class="st0" d="M3.1,12.2c0.2-0.2,0.3-0.4,0.1-0.5c-0.2-0.1-0.3,0-0.4,0.3c0,0.2,0,0.5-0.5,0.5c-0.1-1,0.1-1.9,0.5-2.8
	C3.1,9,2.6,8,3.7,7.7c0.2-0.1-0.6-0.6-0.3-1.2c0.3-0.7,0.4-1.4,0.7-2.1C4.6,3.3,4.7,2,5.3,1C5.5,0.7,5.6,0.3,6,0.3
	c0.2,0,0.4,0.2,0.5,0.4c-0.8-0.1,0.7,1-0.4,0.9C5.6,1.5,5.9,1.9,5.9,2c0.2,0.6-0.5,1.2-0.1,1.8C5.9,4,5.4,4.3,5.1,4.1
	C4.5,3.8,4.5,4.3,4.4,4.5C4.4,5.1,4.8,4.7,5,4.8C5.8,4.9,5.4,5.6,5.3,6C5,6.7,4.5,7.3,4.8,8.2C5,8.8,4.2,8.4,4,8.9
	c0.3,0.3,0.5,0.8,0.5,1.4C4.2,10.3,4.1,9.7,3.6,10C3.5,10.7,4.5,11.8,3.1,12.2C3.1,12.2,3.1,12.2,3.1,12.2"/>
<path class="st0" d="M3.4,4.1c0.2,0.8-0.1,1.6-0.6,2.5C2.6,5.5,3.2,4.8,3.4,4.1"/>
</svg>
