<?xml version="1.0" encoding="utf-8"?>
<!-- Generator: Adobe Illustrator 26.1.0, SVG Export Plug-In . SVG Version: 6.00 Build 0)  -->
<svg version="1.1" id="Layer_1" xmlns="http://www.w3.org/2000/svg" xmlns:xlink="http://www.w3.org/1999/xlink" x="0px" y="0px"
	 viewBox="0 0 245.83 254.86" style="enable-background:new 0 0 245.83 254.86;" xml:space="preserve">
<g>
	<g>
		<g>
			
				<rect x="241.38" y="137.53" transform="matrix(0.7071 -0.7071 0.7071 0.7071 -27.4327 213.0834)" style="fill:#8F9294;" width="4.25" height="4.25"/>
			
				<rect x="229.57" y="125.72" transform="matrix(0.7071 -0.7071 0.7071 0.7071 -22.4942 201.1681)" style="fill:#8F9294;" width="4.03" height="4.03"/>
			
				<rect x="217.76" y="113.91" transform="matrix(0.7071 -0.7071 0.7071 0.7071 -17.5568 189.2483)" style="fill:#8F9294;" width="3.82" height="3.82"/>
			
				<rect x="205.95" y="102.1" transform="matrix(0.7071 -0.7071 0.7071 0.7071 -12.618 177.3328)" style="fill:#8F9294;" width="3.6" height="3.6"/>
			
				<rect x="194.13" y="90.29" transform="matrix(0.7071 -0.7071 0.7071 0.7071 -7.6824 165.408)" style="fill:#8F9294;" width="3.38" height="3.38"/>
			
				<rect x="182.32" y="78.47" transform="matrix(0.7071 -0.7071 0.7071 0.7071 -2.7432 153.493)" style="fill:#8F9294;" width="3.17" height="3.17"/>
			
				<rect x="170.51" y="66.66" transform="matrix(0.7071 -0.7071 0.7071 0.7071 2.1925 141.5691)" style="fill:#8F9294;" width="2.95" height="2.95"/>
			
				<rect x="158.7" y="54.85" transform="matrix(0.7071 -0.7071 0.7071 0.7071 7.1318 129.6532)" style="fill:#8F9294;" width="2.73" height="2.73"/>
			
				<rect x="146.89" y="43.04" transform="matrix(0.7071 -0.7071 0.7071 0.7071 12.0672 117.7295)" style="fill:#8F9294;" width="2.52" height="2.52"/>
			
				<rect x="135.08" y="31.23" transform="matrix(0.7071 -0.7071 0.7071 0.7071 17.0065 105.8128)" style="fill:#8F9294;" width="2.3" height="2.3"/>
			
				<rect x="123.26" y="19.42" transform="matrix(0.7071 -0.7071 0.7071 0.7071 21.9419 93.8899)" style="fill:#8F9294;" width="2.09" height="2.09"/>
			
				<rect x="111.45" y="7.6" transform="matrix(0.7071 -0.7071 0.7071 0.7071 26.882 81.9733)" style="fill:#8F9294;" width="1.87" height="1.87"/>
		</g>
	</g>
	<g>
		<g>
			
				<rect x="231.72" y="147.19" transform="matrix(0.7071 -0.7071 0.7071 0.7071 -37.0901 209.0831)" style="fill:#8F9294;" width="4.25" height="4.25"/>
			
				<rect x="219.91" y="135.38" transform="matrix(0.7071 -0.7071 0.7071 0.7071 -32.1518 197.1678)" style="fill:#8F9294;" width="4.03" height="4.03"/>
			
				<rect x="208.1" y="123.57" transform="matrix(0.7071 -0.7071 0.7071 0.7071 -27.2154 185.2443)" style="fill:#8F9294;" width="3.82" height="3.82"/>
			
				<rect x="196.29" y="111.76" transform="matrix(0.7071 -0.7071 0.7071 0.7071 -22.2771 173.3282)" style="fill:#8F9294;" width="3.6" height="3.6"/>
			
				<rect x="184.48" y="99.94" transform="matrix(0.7071 -0.7071 0.7071 0.7071 -17.3397 161.4084)" style="fill:#8F9294;" width="3.38" height="3.38"/>
			
				<rect x="172.66" y="88.13" transform="matrix(0.7071 -0.7071 0.7071 0.7071 -12.4024 149.4886)" style="fill:#8F9294;" width="3.17" height="3.17"/>
			
				<rect x="160.85" y="76.32" transform="matrix(0.7071 -0.7071 0.7071 0.7071 -7.4649 137.5693)" style="fill:#8F9294;" width="2.95" height="2.95"/>
			
				<rect x="149.04" y="64.51" transform="matrix(0.7071 -0.7071 0.7071 0.7071 -2.5279 125.6484)" style="fill:#8F9294;" width="2.73" height="2.73"/>
			
				<rect x="137.23" y="52.7" transform="matrix(0.7071 -0.7071 0.7071 0.7071 2.4096 113.7291)" style="fill:#8F9294;" width="2.52" height="2.52"/>
			
				<rect x="125.42" y="40.89" transform="matrix(0.7071 -0.7071 0.7071 0.7071 7.347 101.8093)" style="fill:#8F9294;" width="2.3" height="2.3"/>
			
				<rect x="113.61" y="29.07" transform="matrix(0.7071 -0.7071 0.7071 0.7071 12.2846 89.89)" style="fill:#8F9294;" width="2.09" height="2.09"/>
			
				<rect x="101.79" y="17.26" transform="matrix(0.7071 -0.7071 0.7071 0.7071 17.2194 77.9665)" style="fill:#8F9294;" width="1.87" height="1.87"/>
		</g>
	</g>
	<g>
		<g>
			
				<rect x="222.06" y="156.85" transform="matrix(0.7071 -0.7071 0.7071 0.7071 -46.7475 205.0828)" style="fill:#8F9294;" width="4.25" height="4.25"/>
			
				<rect x="210.25" y="145.04" transform="matrix(0.7071 -0.7071 0.7071 0.7071 -41.8101 193.163)" style="fill:#8F9294;" width="4.03" height="4.03"/>
			
				<rect x="198.44" y="133.22" transform="matrix(0.7071 -0.7071 0.7071 0.7071 -36.8729 181.2433)" style="fill:#8F9294;" width="3.82" height="3.82"/>
			
				<rect x="186.63" y="121.41" transform="matrix(0.7071 -0.7071 0.7071 0.7071 -31.9356 169.3236)" style="fill:#8F9294;" width="3.6" height="3.6"/>
			
				<rect x="174.82" y="109.6" transform="matrix(0.7071 -0.7071 0.7071 0.7071 -26.9983 157.4038)" style="fill:#8F9294;" width="3.38" height="3.38"/>
			
				<rect x="163.01" y="97.79" transform="matrix(0.7071 -0.7071 0.7071 0.7071 -22.061 145.4841)" style="fill:#8F9294;" width="3.17" height="3.17"/>
			
				<rect x="151.19" y="85.98" transform="matrix(0.7071 -0.7071 0.7071 0.7071 -17.1237 133.5644)" style="fill:#8F9294;" width="2.95" height="2.95"/>
			
				<rect x="139.38" y="74.17" transform="matrix(0.7071 -0.7071 0.7071 0.7071 -12.1865 121.6447)" style="fill:#8F9294;" width="2.73" height="2.73"/>
			
				<rect x="127.57" y="62.35" transform="matrix(0.7071 -0.7071 0.7071 0.7071 -7.248 109.7288)" style="fill:#8F9294;" width="2.52" height="2.52"/>
			
				<rect x="115.76" y="50.54" transform="matrix(0.7071 -0.7071 0.7071 0.7071 -2.312 97.8054)" style="fill:#8F9294;" width="2.3" height="2.3"/>
			
				<rect x="103.95" y="38.73" transform="matrix(0.7071 -0.7071 0.7071 0.7071 2.6265 85.8888)" style="fill:#8F9294;" width="2.09" height="2.09"/>
			
				<rect x="92.14" y="26.92" transform="matrix(0.7071 -0.7071 0.7071 0.7071 7.5623 73.9662)" style="fill:#8F9294;" width="1.87" height="1.87"/>
		</g>
	</g>
	<g>
		<g>
			
				<rect x="212.41" y="166.51" transform="matrix(0.7071 -0.7071 0.7071 0.7071 -56.4038 201.0915)" style="fill:#8F9294;" width="4.25" height="4.25"/>
			
				<rect x="200.6" y="154.69" transform="matrix(0.7071 -0.7071 0.7071 0.7071 -51.4664 189.1716)" style="fill:#8F9294;" width="4.03" height="4.03"/>
			
				<rect x="188.78" y="142.88" transform="matrix(0.7071 -0.7071 0.7071 0.7071 -46.5296 177.2473)" style="fill:#8F9294;" width="3.82" height="3.82"/>
			
				<rect x="176.97" y="131.07" transform="matrix(0.7071 -0.7071 0.7071 0.7071 -41.5918 165.3313)" style="fill:#8F9294;" width="3.6" height="3.6"/>
			
				<rect x="165.16" y="119.26" transform="matrix(0.7071 -0.7071 0.7071 0.7071 -36.6549 153.4077)" style="fill:#8F9294;" width="3.38" height="3.38"/>
			
				<rect x="153.35" y="107.45" transform="matrix(0.7071 -0.7071 0.7071 0.7071 -31.7169 141.4921)" style="fill:#8F9294;" width="3.17" height="3.17"/>
			
				<rect x="141.54" y="95.64" transform="matrix(0.7071 -0.7071 0.7071 0.7071 -26.7803 129.5681)" style="fill:#8F9294;" width="2.95" height="2.95"/>
			
				<rect x="129.73" y="83.82" transform="matrix(0.7071 -0.7071 0.7071 0.7071 -21.8421 117.6523)" style="fill:#8F9294;" width="2.73" height="2.73"/>
			
				<rect x="117.91" y="72.01" transform="matrix(0.7071 -0.7071 0.7071 0.7071 -16.9057 105.728)" style="fill:#8F9294;" width="2.52" height="2.52"/>
			
				<rect x="106.1" y="60.2" transform="matrix(0.7071 -0.7071 0.7071 0.7071 -11.9682 93.8088)" style="fill:#8F9294;" width="2.3" height="2.3"/>
			
				<rect x="94.29" y="48.39" transform="matrix(0.7071 -0.7071 0.7071 0.7071 -7.0309 81.8889)" style="fill:#8F9294;" width="2.09" height="2.09"/>
			
				<rect x="82.48" y="36.58" transform="matrix(0.7071 -0.7071 0.7071 0.7071 -2.0946 69.9663)" style="fill:#8F9294;" width="1.87" height="1.87"/>
		</g>
	</g>
	<g>
		<g>
			
				<rect x="202.75" y="176.16" transform="matrix(0.7071 -0.7071 0.7071 0.7071 -66.0616 197.0912)" style="fill:#8F9294;" width="4.25" height="4.25"/>
			
				<rect x="190.94" y="164.35" transform="matrix(0.7071 -0.7071 0.7071 0.7071 -61.1242 185.1713)" style="fill:#8F9294;" width="4.03" height="4.03"/>
			
				<rect x="179.13" y="152.54" transform="matrix(0.7071 -0.7071 0.7071 0.7071 -56.1872 173.247)" style="fill:#8F9294;" width="3.82" height="3.82"/>
			
				<rect x="167.31" y="140.73" transform="matrix(0.7071 -0.7071 0.7071 0.7071 -51.2495 161.3316)" style="fill:#8F9294;" width="3.6" height="3.6"/>
			
				<rect x="155.5" y="128.92" transform="matrix(0.7071 -0.7071 0.7071 0.7071 -46.3125 149.4074)" style="fill:#8F9294;" width="3.38" height="3.38"/>
			
				<rect x="143.69" y="117.1" transform="matrix(0.7071 -0.7071 0.7071 0.7071 -41.3747 137.4924)" style="fill:#8F9294;" width="3.17" height="3.17"/>
			
				<rect x="131.88" y="105.29" transform="matrix(0.7071 -0.7071 0.7071 0.7071 -36.4379 125.5673)" style="fill:#8F9294;" width="2.95" height="2.95"/>
			
				<rect x="120.07" y="93.48" transform="matrix(0.7071 -0.7071 0.7071 0.7071 -31.5 113.652)" style="fill:#8F9294;" width="2.73" height="2.73"/>
			
				<rect x="108.26" y="81.67" transform="matrix(0.7071 -0.7071 0.7071 0.7071 -26.5632 101.7282)" style="fill:#8F9294;" width="2.52" height="2.52"/>
			
				<rect x="96.44" y="69.86" transform="matrix(0.7071 -0.7071 0.7071 0.7071 -21.6252 89.8126)" style="fill:#8F9294;" width="2.3" height="2.3"/>
			
				<rect x="84.63" y="58.05" transform="matrix(0.7071 -0.7071 0.7071 0.7071 -16.6885 77.8886)" style="fill:#8F9294;" width="2.09" height="2.09"/>
			
				<rect x="72.82" y="46.23" transform="matrix(0.7071 -0.7071 0.7071 0.7071 -11.7505 65.9717)" style="fill:#8F9294;" width="1.87" height="1.87"/>
		</g>
	</g>
	<g>
		<g>
			
				<rect x="193.09" y="185.82" transform="matrix(0.7071 -0.7071 0.7071 0.7071 -75.7195 193.0864)" style="fill:#8F9294;" width="4.25" height="4.25"/>
			
				<rect x="181.28" y="174.01" transform="matrix(0.7071 -0.7071 0.7071 0.7071 -70.7821 181.1666)" style="fill:#8F9294;" width="4.03" height="4.03"/>
			
				<rect x="169.47" y="162.2" transform="matrix(0.7071 -0.7071 0.7071 0.7071 -65.8447 169.2511)" style="fill:#8F9294;" width="3.82" height="3.82"/>
			
				<rect x="157.66" y="150.39" transform="matrix(0.7071 -0.7071 0.7071 0.7071 -60.9074 157.3313)" style="fill:#8F9294;" width="3.6" height="3.6"/>
			
				<rect x="145.85" y="138.57" transform="matrix(0.7071 -0.7071 0.7071 0.7071 -55.97 145.4108)" style="fill:#8F9294;" width="3.38" height="3.38"/>
			
				<rect x="134.03" y="126.76" transform="matrix(0.7071 -0.7071 0.7071 0.7071 -51.0327 133.4915)" style="fill:#8F9294;" width="3.17" height="3.17"/>
			
				<rect x="122.22" y="114.95" transform="matrix(0.7071 -0.7071 0.7071 0.7071 -46.0955 121.5675)" style="fill:#8F9294;" width="2.95" height="2.95"/>
			
				<rect x="110.41" y="103.14" transform="matrix(0.7071 -0.7071 0.7071 0.7071 -41.158 109.6517)" style="fill:#8F9294;" width="2.73" height="2.73"/>
			
				<rect x="98.6" y="91.33" transform="matrix(0.7071 -0.7071 0.7071 0.7071 -36.2208 97.7279)" style="fill:#8F9294;" width="2.52" height="2.52"/>
			
				<rect x="86.79" y="79.52" transform="matrix(0.7071 -0.7071 0.7071 0.7071 -31.2833 85.8113)" style="fill:#8F9294;" width="2.3" height="2.3"/>
			
				<rect x="74.98" y="67.7" transform="matrix(0.7071 -0.7071 0.7071 0.7071 -26.3461 73.8883)" style="fill:#8F9294;" width="2.09" height="2.09"/>
			
				<rect x="63.16" y="55.89" transform="matrix(0.7071 -0.7071 0.7071 0.7071 -21.4086 61.9718)" style="fill:#8F9294;" width="1.87" height="1.87"/>
		</g>
	</g>
	<g>
		<g>
			
				<rect x="183.43" y="195.48" transform="matrix(0.7071 -0.7071 0.7071 0.7071 -85.377 189.0815)" style="fill:#8F9294;" width="4.25" height="4.25"/>
			
				<rect x="171.62" y="183.67" transform="matrix(0.7071 -0.7071 0.7071 0.7071 -80.4398 177.1663)" style="fill:#8F9294;" width="4.03" height="4.03"/>
			
				<rect x="159.81" y="171.85" transform="matrix(0.7071 -0.7071 0.7071 0.7071 -75.5023 165.2427)" style="fill:#8F9294;" width="3.82" height="3.82"/>
			
				<rect x="148" y="160.04" transform="matrix(0.7071 -0.7071 0.7071 0.7071 -70.5651 153.3267)" style="fill:#8F9294;" width="3.6" height="3.6"/>
			
				<rect x="136.19" y="148.23" transform="matrix(0.7071 -0.7071 0.7071 0.7071 -65.6275 141.4026)" style="fill:#8F9294;" width="3.38" height="3.38"/>
			
				<rect x="124.38" y="136.42" transform="matrix(0.7071 -0.7071 0.7071 0.7071 -60.6906 129.4912)" style="fill:#8F9294;" width="3.17" height="3.17"/>
			
				<rect x="112.56" y="124.61" transform="matrix(0.7071 -0.7071 0.7071 0.7071 -55.7531 117.5677)" style="fill:#8F9294;" width="2.95" height="2.95"/>
			
				<rect x="100.75" y="112.8" transform="matrix(0.7071 -0.7071 0.7071 0.7071 -50.8159 105.6509)" style="fill:#8F9294;" width="2.73" height="2.73"/>
			
				<rect x="88.94" y="100.99" transform="matrix(0.7071 -0.7071 0.7071 0.7071 -45.8784 93.7276)" style="fill:#8F9294;" width="2.52" height="2.52"/>
			
				<rect x="77.13" y="89.17" transform="matrix(0.7071 -0.7071 0.7071 0.7071 -40.9413 81.8115)" style="fill:#8F9294;" width="2.3" height="2.3"/>
			
				<rect x="65.32" y="77.36" transform="matrix(0.7071 -0.7071 0.7071 0.7071 -36.0037 69.8884)" style="fill:#8F9294;" width="2.09" height="2.09"/>
			
				<rect x="53.51" y="65.55" transform="matrix(0.7071 -0.7071 0.7071 0.7071 -31.0667 57.9715)" style="fill:#8F9294;" width="1.87" height="1.87"/>
		</g>
	</g>
	<g>
		<g>
			
				<rect x="173.78" y="205.14" transform="matrix(0.7071 -0.7071 0.7071 0.7071 -95.0343 185.0812)" style="fill:#8F9294;" width="4.25" height="4.25"/>
			
				<rect x="161.97" y="193.32" transform="matrix(0.7071 -0.7071 0.7071 0.7071 -90.0974 173.166)" style="fill:#8F9294;" width="4.03" height="4.03"/>
			
				<rect x="150.15" y="181.51" transform="matrix(0.7071 -0.7071 0.7071 0.7071 -85.1596 161.2418)" style="fill:#8F9294;" width="3.82" height="3.82"/>
			
				<rect x="138.34" y="169.7" transform="matrix(0.7071 -0.7071 0.7071 0.7071 -80.2227 149.3264)" style="fill:#8F9294;" width="3.6" height="3.6"/>
			
				<rect x="126.53" y="157.89" transform="matrix(0.7071 -0.7071 0.7071 0.7071 -75.2849 137.4023)" style="fill:#8F9294;" width="3.38" height="3.38"/>
			
				<rect x="114.72" y="146.08" transform="matrix(0.7071 -0.7071 0.7071 0.7071 -70.348 125.4867)" style="fill:#8F9294;" width="3.17" height="3.17"/>
			
				<rect x="102.91" y="134.27" transform="matrix(0.7071 -0.7071 0.7071 0.7071 -65.4101 113.5629)" style="fill:#8F9294;" width="2.95" height="2.95"/>
			
				<rect x="91.1" y="122.45" transform="matrix(0.7071 -0.7071 0.7071 0.7071 -60.4733 101.6471)" style="fill:#8F9294;" width="2.73" height="2.73"/>
			
				<rect x="79.28" y="110.64" transform="matrix(0.7071 -0.7071 0.7071 0.7071 -55.536 89.7273)" style="fill:#8F9294;" width="2.52" height="2.52"/>
			
				<rect x="67.47" y="98.83" transform="matrix(0.7071 -0.7071 0.7071 0.7071 -50.5986 77.8075)" style="fill:#8F9294;" width="2.3" height="2.3"/>
			
				<rect x="55.66" y="87.02" transform="matrix(0.7071 -0.7071 0.7071 0.7071 -45.6612 65.8873)" style="fill:#8F9294;" width="2.09" height="2.09"/>
			
				<rect x="43.85" y="75.21" transform="matrix(0.7071 -0.7071 0.7071 0.7071 -40.7231 53.9647)" style="fill:#8F9294;" width="1.87" height="1.87"/>
		</g>
	</g>
	<g>
		<g>
			
				<rect x="164.12" y="214.79" transform="matrix(0.7071 -0.7071 0.7071 0.7071 -104.6917 181.0809)" style="fill:#8F9294;" width="4.25" height="4.25"/>
			
				<rect x="152.31" y="202.98" transform="matrix(0.7071 -0.7071 0.7071 0.7071 -99.7543 169.1612)" style="fill:#8F9294;" width="4.03" height="4.03"/>
			
				<rect x="140.5" y="191.17" transform="matrix(0.7071 -0.7071 0.7071 0.7071 -94.8169 157.2414)" style="fill:#8F9294;" width="3.82" height="3.82"/>
			
				<rect x="128.68" y="179.36" transform="matrix(0.7071 -0.7071 0.7071 0.7071 -89.8795 145.3217)" style="fill:#8F9294;" width="3.6" height="3.6"/>
			
				<rect x="116.87" y="167.55" transform="matrix(0.7071 -0.7071 0.7071 0.7071 -84.9422 133.402)" style="fill:#8F9294;" width="3.38" height="3.38"/>
			
				<rect x="105.06" y="155.74" transform="matrix(0.7071 -0.7071 0.7071 0.7071 -80.0048 121.4823)" style="fill:#8F9294;" width="3.17" height="3.17"/>
			
				<rect x="93.25" y="143.92" transform="matrix(0.7071 -0.7071 0.7071 0.7071 -75.0674 109.5626)" style="fill:#8F9294;" width="2.95" height="2.95"/>
			
				<rect x="81.44" y="132.11" transform="matrix(0.7071 -0.7071 0.7071 0.7071 -70.13 97.6429)" style="fill:#8F9294;" width="2.73" height="2.73"/>
			
				<rect x="69.63" y="120.3" transform="matrix(0.7071 -0.7071 0.7071 0.7071 -65.1926 85.7232)" style="fill:#8F9294;" width="2.52" height="2.52"/>
			
				<rect x="57.81" y="108.49" transform="matrix(0.7071 -0.7071 0.7071 0.7071 -60.2551 73.8036)" style="fill:#8F9294;" width="2.3" height="2.3"/>
			
				<rect x="46" y="96.68" transform="matrix(0.7071 -0.7071 0.7071 0.7071 -55.3177 61.884)" style="fill:#8F9294;" width="2.09" height="2.09"/>
			
				<rect x="34.19" y="84.87" transform="matrix(0.7071 -0.7071 0.7071 0.7071 -50.3803 49.9647)" style="fill:#8F9294;" width="1.87" height="1.87"/>
		</g>
	</g>
	<g>
		<g>
			
				<rect x="154.46" y="224.45" transform="matrix(0.7071 -0.7071 0.7071 0.7071 -114.3516 177.0941)" style="fill:#8F9294;" width="4.25" height="4.25"/>
			
				<rect x="142.65" y="212.64" transform="matrix(0.7071 -0.7071 0.7071 0.7071 -109.4135 165.1698)" style="fill:#8F9294;" width="4.03" height="4.03"/>
			
				<rect x="130.84" y="200.83" transform="matrix(0.7071 -0.7071 0.7071 0.7071 -104.4761 153.2499)" style="fill:#8F9294;" width="3.82" height="3.82"/>
			
				<rect x="119.03" y="189.02" transform="matrix(0.7071 -0.7071 0.7071 0.7071 -99.5389 141.33)" style="fill:#8F9294;" width="3.6" height="3.6"/>
			
				<rect x="107.22" y="177.2" transform="matrix(0.7071 -0.7071 0.7071 0.7071 -94.6005 129.4059)" style="fill:#8F9294;" width="3.38" height="3.38"/>
			
				<rect x="95.4" y="165.39" transform="matrix(0.7071 -0.7071 0.7071 0.7071 -89.6645 117.4908)" style="fill:#8F9294;" width="3.17" height="3.17"/>
			
				<rect x="83.59" y="153.58" transform="matrix(0.7071 -0.7071 0.7071 0.7071 -84.7257 105.5658)" style="fill:#8F9294;" width="2.95" height="2.95"/>
			
				<rect x="71.78" y="141.77" transform="matrix(0.7071 -0.7071 0.7071 0.7071 -79.7898 93.6505)" style="fill:#8F9294;" width="2.73" height="2.73"/>
			
				<rect x="59.97" y="129.96" transform="matrix(0.7071 -0.7071 0.7071 0.7071 -74.8512 81.7267)" style="fill:#8F9294;" width="2.52" height="2.52"/>
			
				<rect x="48.16" y="118.15" transform="matrix(0.7071 -0.7071 0.7071 0.7071 -69.914 69.8073)" style="fill:#8F9294;" width="2.3" height="2.3"/>
			
				<rect x="36.35" y="106.33" transform="matrix(0.7071 -0.7071 0.7071 0.7071 -64.9765 57.8871)" style="fill:#8F9294;" width="2.09" height="2.09"/>
			
				<rect x="24.53" y="94.52" transform="matrix(0.7071 -0.7071 0.7071 0.7071 -60.0389 45.967)" style="fill:#8F9294;" width="1.87" height="1.87"/>
		</g>
	</g>
	<g>
		<g>
			
				<rect x="144.8" y="234.11" transform="matrix(0.7071 -0.7071 0.7071 0.7071 -124.0075 173.0848)" style="fill:#8F9294;" width="4.25" height="4.25"/>
			
				<rect x="132.99" y="222.3" transform="matrix(0.7071 -0.7071 0.7071 0.7071 -119.0702 161.1651)" style="fill:#8F9294;" width="4.03" height="4.03"/>
			
				<rect x="121.18" y="210.49" transform="matrix(0.7071 -0.7071 0.7071 0.7071 -114.1328 149.2452)" style="fill:#8F9294;" width="3.82" height="3.82"/>
			
				<rect x="109.37" y="198.67" transform="matrix(0.7071 -0.7071 0.7071 0.7071 -109.1967 137.3297)" style="fill:#8F9294;" width="3.6" height="3.6"/>
			
				<rect x="97.56" y="186.86" transform="matrix(0.7071 -0.7071 0.7071 0.7071 -104.2593 125.4093)" style="fill:#8F9294;" width="3.38" height="3.38"/>
			
				<rect x="85.75" y="175.05" transform="matrix(0.7071 -0.7071 0.7071 0.7071 -99.3222 113.49)" style="fill:#8F9294;" width="3.17" height="3.17"/>
			
				<rect x="73.93" y="163.24" transform="matrix(0.7071 -0.7071 0.7071 0.7071 -94.3835 101.566)" style="fill:#8F9294;" width="2.95" height="2.95"/>
			
				<rect x="62.12" y="151.43" transform="matrix(0.7071 -0.7071 0.7071 0.7071 -89.4478 89.6502)" style="fill:#8F9294;" width="2.73" height="2.73"/>
			
				<rect x="50.31" y="139.62" transform="matrix(0.7071 -0.7071 0.7071 0.7071 -84.5088 77.7264)" style="fill:#8F9294;" width="2.52" height="2.52"/>
			
				<rect x="38.5" y="127.8" transform="matrix(0.7071 -0.7071 0.7071 0.7071 -79.5731 65.8099)" style="fill:#8F9294;" width="2.3" height="2.3"/>
			
				<rect x="26.69" y="115.99" transform="matrix(0.7071 -0.7071 0.7071 0.7071 -74.6341 53.8868)" style="fill:#8F9294;" width="2.09" height="2.09"/>
			
				<rect x="14.88" y="104.18" transform="matrix(0.7071 -0.7071 0.7071 0.7071 -69.6991 41.9702)" style="fill:#8F9294;" width="1.87" height="1.87"/>
		</g>
	</g>
	<g>
		<g>
			
				<rect x="135.15" y="243.77" transform="matrix(0.7071 -0.7071 0.7071 0.7071 -133.6651 169.0845)" style="fill:#8F9294;" width="4.25" height="4.25"/>
			
				<rect x="123.33" y="231.95" transform="matrix(0.7071 -0.7071 0.7071 0.7071 -128.7277 157.1647)" style="fill:#8F9294;" width="4.03" height="4.03"/>
			
				<rect x="111.52" y="220.14" transform="matrix(0.7071 -0.7071 0.7071 0.7071 -123.7904 145.2449)" style="fill:#8F9294;" width="3.82" height="3.82"/>
			
				<rect x="99.71" y="208.33" transform="matrix(0.7071 -0.7071 0.7071 0.7071 -118.8531 133.3251)" style="fill:#8F9294;" width="3.6" height="3.6"/>
			
				<rect x="87.9" y="196.52" transform="matrix(0.7071 -0.7071 0.7071 0.7071 -113.9157 121.4053)" style="fill:#8F9294;" width="3.38" height="3.38"/>
			
				<rect x="76.09" y="184.71" transform="matrix(0.7071 -0.7071 0.7071 0.7071 -108.9784 109.4855)" style="fill:#8F9294;" width="3.17" height="3.17"/>
			
				<rect x="64.28" y="172.9" transform="matrix(0.7071 -0.7071 0.7071 0.7071 -104.0429 97.5698)" style="fill:#8F9294;" width="2.95" height="2.95"/>
			
				<rect x="52.46" y="161.08" transform="matrix(0.7071 -0.7071 0.7071 0.7071 -99.1055 85.6494)" style="fill:#8F9294;" width="2.73" height="2.73"/>
			
				<rect x="40.65" y="149.27" transform="matrix(0.7071 -0.7071 0.7071 0.7071 -94.1685 73.7299)" style="fill:#8F9294;" width="2.52" height="2.52"/>
			
				<rect x="28.84" y="137.46" transform="matrix(0.7071 -0.7071 0.7071 0.7071 -89.2314 61.8099)" style="fill:#8F9294;" width="2.3" height="2.3"/>
			
				<rect x="17.03" y="125.65" transform="matrix(0.7071 -0.7071 0.7071 0.7071 -84.292 49.8868)" style="fill:#8F9294;" width="2.09" height="2.09"/>
			
				<rect x="5.22" y="113.84" transform="matrix(0.7071 -0.7071 0.7071 0.7071 -79.3572 37.9699)" style="fill:#8F9294;" width="1.87" height="1.87"/>
		</g>
	</g>
</g>
</svg>
