<?xml version="1.0" encoding="utf-8"?>
<!-- Generator: Adobe Illustrator 26.1.0, SVG Export Plug-In . SVG Version: 6.00 Build 0)  -->
<svg version="1.1" id="Layer_1" xmlns="http://www.w3.org/2000/svg" xmlns:xlink="http://www.w3.org/1999/xlink" x="0px" y="0px"
	 viewBox="0 0 168.06 145.83" style="enable-background:new 0 0 168.06 145.83;" xml:space="preserve">
<g>
	<g>
		
			<rect x="7.48" y="5.54" style="fill:none;stroke:#8F9294;stroke-width:1.0782;stroke-miterlimit:10;" width="3.97" height="3.97"/>
		
			<rect x="37.81" y="5.54" style="fill:none;stroke:#8F9294;stroke-width:1.0782;stroke-miterlimit:10;" width="3.97" height="3.97"/>
		
			<rect x="68.15" y="5.54" style="fill:none;stroke:#8F9294;stroke-width:1.0782;stroke-miterlimit:10;" width="3.97" height="3.97"/>
		
			<rect x="98.49" y="5.54" style="fill:none;stroke:#8F9294;stroke-width:1.0782;stroke-miterlimit:10;" width="3.97" height="3.97"/>
		
			<rect x="128.82" y="5.54" style="fill:none;stroke:#8F9294;stroke-width:1.0782;stroke-miterlimit:10;" width="3.97" height="3.97"/>
		
			<rect x="159.16" y="5.54" style="fill:none;stroke:#8F9294;stroke-width:1.0782;stroke-miterlimit:10;" width="3.97" height="3.97"/>
	</g>
	<g>
		
			<rect x="7.48" y="27.65" style="fill:none;stroke:#8F9294;stroke-width:1.0782;stroke-miterlimit:10;" width="3.97" height="3.97"/>
		
			<rect x="37.81" y="27.65" style="fill:none;stroke:#FF2C2C;stroke-width:1.0782;stroke-miterlimit:10;" width="3.97" height="3.97"/>
		
			<rect x="68.15" y="27.65" style="fill:none;stroke:#8F9294;stroke-width:1.0782;stroke-miterlimit:10;" width="3.97" height="3.97"/>
		
			<rect x="98.49" y="27.65" style="fill:none;stroke:#8F9294;stroke-width:1.0782;stroke-miterlimit:10;" width="3.97" height="3.97"/>
		
			<rect x="128.82" y="27.65" style="fill:none;stroke:#8F9294;stroke-width:1.0782;stroke-miterlimit:10;" width="3.97" height="3.97"/>
		
			<rect x="159.16" y="27.65" style="fill:none;stroke:#8F9294;stroke-width:1.0782;stroke-miterlimit:10;" width="3.97" height="3.97"/>
	</g>
	<g>
		
			<rect x="7.48" y="49.77" style="fill:none;stroke:#8F9294;stroke-width:1.0782;stroke-miterlimit:10;" width="3.97" height="3.97"/>
		
			<rect x="37.81" y="49.77" style="fill:none;stroke:#8F9294;stroke-width:1.0782;stroke-miterlimit:10;" width="3.97" height="3.97"/>
		
			<rect x="68.15" y="49.77" style="fill:none;stroke:#8F9294;stroke-width:1.0782;stroke-miterlimit:10;" width="3.97" height="3.97"/>
		
			<rect x="98.49" y="49.77" style="fill:none;stroke:#FF2C2C;stroke-width:1.0782;stroke-miterlimit:10;" width="3.97" height="3.97"/>
		
			<rect x="128.82" y="49.77" style="fill:none;stroke:#8F9294;stroke-width:1.0782;stroke-miterlimit:10;" width="3.97" height="3.97"/>
		
			<rect x="159.16" y="49.77" style="fill:none;stroke:#8F9294;stroke-width:1.0782;stroke-miterlimit:10;" width="3.97" height="3.97"/>
	</g>
	<g>
		
			<rect x="7.48" y="71.88" style="fill:none;stroke:#8F9294;stroke-width:1.0782;stroke-miterlimit:10;" width="3.97" height="3.97"/>
		
			<rect x="37.81" y="71.88" style="fill:none;stroke:#8F9294;stroke-width:1.0782;stroke-miterlimit:10;" width="3.97" height="3.97"/>
		
			<rect x="68.15" y="71.88" style="fill:none;stroke:#8F9294;stroke-width:1.0782;stroke-miterlimit:10;" width="3.97" height="3.97"/>
		
			<rect x="98.49" y="71.88" style="fill:none;stroke:#8F9294;stroke-width:1.0782;stroke-miterlimit:10;" width="3.97" height="3.97"/>
		
			<rect x="128.82" y="71.88" style="fill:none;stroke:#8F9294;stroke-width:1.0782;stroke-miterlimit:10;" width="3.97" height="3.97"/>
		
			<rect x="159.16" y="71.88" style="fill:none;stroke:#8F9294;stroke-width:1.0782;stroke-miterlimit:10;" width="3.97" height="3.97"/>
	</g>
	<g>
		
			<rect x="7.48" y="93.99" style="fill:none;stroke:#8F9294;stroke-width:1.0782;stroke-miterlimit:10;" width="3.97" height="3.97"/>
		<rect x="37.81" y="93.99" style="fill:#0F1027;" width="3.97" height="3.97"/>
		<rect x="68.15" y="93.99" style="fill:#0F1027;" width="3.97" height="3.97"/>
		
			<rect x="98.49" y="93.99" style="fill:none;stroke:#8F9294;stroke-width:1.0782;stroke-miterlimit:10;" width="3.97" height="3.97"/>
		
			<rect x="128.82" y="93.99" style="fill:none;stroke:#FF2C2C;stroke-width:1.0782;stroke-miterlimit:10;" width="3.97" height="3.97"/>
		
			<rect x="159.16" y="93.99" style="fill:none;stroke:#8F9294;stroke-width:1.0782;stroke-miterlimit:10;" width="3.97" height="3.97"/>
	</g>
	<g>
		
			<rect x="7.48" y="116.11" style="fill:none;stroke:#8F9294;stroke-width:1.0782;stroke-miterlimit:10;" width="3.97" height="3.97"/>
		
			<rect x="37.81" y="116.11" style="fill:none;stroke:#8F9294;stroke-width:1.0782;stroke-miterlimit:10;" width="3.97" height="3.97"/>
		
			<rect x="68.15" y="116.11" style="fill:none;stroke:#8F9294;stroke-width:1.0782;stroke-miterlimit:10;" width="3.97" height="3.97"/>
		<rect x="98.49" y="116.11" style="fill:#0F1027;" width="3.97" height="3.97"/>
		
			<rect x="128.82" y="116.11" style="fill:none;stroke:#8F9294;stroke-width:1.0782;stroke-miterlimit:10;" width="3.97" height="3.97"/>
		
			<rect x="159.16" y="116.11" style="fill:none;stroke:#8F9294;stroke-width:1.0782;stroke-miterlimit:10;" width="3.97" height="3.97"/>
	</g>
	<g>
		
			<rect x="7.48" y="138.22" style="fill:none;stroke:#8F9294;stroke-width:1.0782;stroke-miterlimit:10;" width="3.97" height="3.97"/>
		
			<rect x="37.81" y="138.22" style="fill:none;stroke:#8F9294;stroke-width:1.0782;stroke-miterlimit:10;" width="3.97" height="3.97"/>
		
			<rect x="68.15" y="138.22" style="fill:none;stroke:#8F9294;stroke-width:1.0782;stroke-miterlimit:10;" width="3.97" height="3.97"/>
		
			<rect x="98.49" y="138.22" style="fill:none;stroke:#8F9294;stroke-width:1.0782;stroke-miterlimit:10;" width="3.97" height="3.97"/>
		<rect x="128.82" y="138.22" style="fill:#0F1027;" width="3.97" height="3.97"/>
		
			<rect x="159.16" y="138.22" style="fill:none;stroke:#8F9294;stroke-width:1.0782;stroke-miterlimit:10;" width="3.97" height="3.97"/>
	</g>
</g>
</svg>
