<?xml version="1.0" encoding="utf-8"?>
<!-- Generator: Adobe Illustrator 26.1.0, SVG Export Plug-In . SVG Version: 6.00 Build 0)  -->
<svg version="1.1" id="Layer_1" xmlns="http://www.w3.org/2000/svg" xmlns:xlink="http://www.w3.org/1999/xlink" x="0px" y="0px"
	 viewBox="0 0 245.83 254.86" style="enable-background:new 0 0 245.83 254.86;" xml:space="preserve">
<g>
	<g>
		<g>
			
				<rect x="239.27" y="139.33" transform="matrix(0.7071 -0.7071 0.7071 0.7071 -29.3218 212.1165)" style="fill:#8F9294;" width="4.25" height="4.25"/>
			
				<rect x="227.46" y="127.52" transform="matrix(0.7071 -0.7071 0.7071 0.7071 -24.3832 200.2013)" style="fill:#8F9294;" width="4.03" height="4.03"/>
			
				<rect x="215.65" y="115.71" transform="matrix(0.7071 -0.7071 0.7071 0.7071 -19.4459 188.2814)" style="fill:#8F9294;" width="3.82" height="3.82"/>
			
				<rect x="203.83" y="103.89" transform="matrix(0.7071 -0.7071 0.7071 0.7071 -14.5072 176.366)" style="fill:#8F9294;" width="3.6" height="3.6"/>
			
				<rect x="192.02" y="92.08" transform="matrix(0.7071 -0.7071 0.7071 0.7071 -9.5715 164.4412)" style="fill:#8F9294;" width="3.38" height="3.38"/>
			
				<rect x="180.21" y="80.27" transform="matrix(0.7071 -0.7071 0.7071 0.7071 -4.6323 152.5262)" style="fill:#8F9294;" width="3.17" height="3.17"/>
			
				<rect x="168.4" y="68.46" transform="matrix(0.7071 -0.7071 0.7071 0.7071 0.3035 140.6022)" style="fill:#8F9294;" width="2.95" height="2.95"/>
			
				<rect x="156.59" y="56.65" transform="matrix(0.7071 -0.7071 0.7071 0.7071 5.2426 128.6864)" style="fill:#8F9294;" width="2.73" height="2.73"/>
			
				<rect x="144.78" y="44.84" transform="matrix(0.7071 -0.7071 0.7071 0.7071 10.1781 116.7626)" style="fill:#8F9294;" width="2.52" height="2.52"/>
			
				<rect x="132.96" y="33.02" transform="matrix(0.7071 -0.7071 0.7071 0.7071 15.1174 104.846)" style="fill:#8F9294;" width="2.3" height="2.3"/>
			
				<rect x="121.15" y="21.21" transform="matrix(0.7071 -0.7071 0.7071 0.7071 20.0528 92.923)" style="fill:#8F9294;" width="2.09" height="2.09"/>
			
				<rect x="109.34" y="9.4" transform="matrix(0.7071 -0.7071 0.7071 0.7071 24.9928 81.0064)" style="fill:#8F9294;" width="1.87" height="1.87"/>
		</g>
	</g>
	<g>
		<g>
			
				<rect x="229.61" y="148.99" transform="matrix(0.7071 -0.7071 0.7071 0.7071 -38.9791 208.1162)" style="fill:#8F9294;" width="4.25" height="4.25"/>
			
				<rect x="217.8" y="137.18" transform="matrix(0.7071 -0.7071 0.7071 0.7071 -34.0408 196.2009)" style="fill:#8F9294;" width="4.03" height="4.03"/>
			
				<rect x="205.99" y="125.36" transform="matrix(0.7071 -0.7071 0.7071 0.7071 -29.1044 184.2774)" style="fill:#8F9294;" width="3.82" height="3.82"/>
			
				<rect x="194.18" y="113.55" transform="matrix(0.7071 -0.7071 0.7071 0.7071 -24.1662 172.3613)" style="fill:#8F9294;" width="3.6" height="3.6"/>
			
				<rect x="182.36" y="101.74" transform="matrix(0.7071 -0.7071 0.7071 0.7071 -19.2288 160.4415)" style="fill:#8F9294;" width="3.38" height="3.38"/>
			
				<rect x="170.55" y="89.93" transform="matrix(0.7071 -0.7071 0.7071 0.7071 -14.2915 148.5217)" style="fill:#8F9294;" width="3.17" height="3.17"/>
			
				<rect x="158.74" y="78.12" transform="matrix(0.7071 -0.7071 0.7071 0.7071 -9.3539 136.6025)" style="fill:#8F9294;" width="2.95" height="2.95"/>
			
				<rect x="146.93" y="66.31" transform="matrix(0.7071 -0.7071 0.7071 0.7071 -4.417 124.6816)" style="fill:#8F9294;" width="2.73" height="2.73"/>
			
				<rect x="135.12" y="54.49" transform="matrix(0.7071 -0.7071 0.7071 0.7071 0.5205 112.7623)" style="fill:#8F9294;" width="2.52" height="2.52"/>
			
				<rect x="123.31" y="42.68" transform="matrix(0.7071 -0.7071 0.7071 0.7071 5.4579 100.8425)" style="fill:#8F9294;" width="2.3" height="2.3"/>
			
				<rect x="111.49" y="30.87" transform="matrix(0.7071 -0.7071 0.7071 0.7071 10.3955 88.9232)" style="fill:#8F9294;" width="2.09" height="2.09"/>
			
				<rect x="99.68" y="19.06" transform="matrix(0.7071 -0.7071 0.7071 0.7071 15.3304 76.9996)" style="fill:#8F9294;" width="1.87" height="1.87"/>
		</g>
	</g>
	<g>
		<g>
			
				<rect x="219.95" y="158.64" transform="matrix(0.7071 -0.7071 0.7071 0.7071 -48.6365 204.1159)" style="fill:#8F9294;" width="4.25" height="4.25"/>
			
				<rect x="208.14" y="146.83" transform="matrix(0.7071 -0.7071 0.7071 0.7071 -43.6992 192.1962)" style="fill:#8F9294;" width="4.03" height="4.03"/>
			
				<rect x="196.33" y="135.02" transform="matrix(0.7071 -0.7071 0.7071 0.7071 -38.7619 180.2764)" style="fill:#8F9294;" width="3.82" height="3.82"/>
			
				<rect x="184.52" y="123.21" transform="matrix(0.7071 -0.7071 0.7071 0.7071 -33.8246 168.3567)" style="fill:#8F9294;" width="3.6" height="3.6"/>
			
				<rect x="172.71" y="111.4" transform="matrix(0.7071 -0.7071 0.7071 0.7071 -28.8873 156.437)" style="fill:#8F9294;" width="3.38" height="3.38"/>
			
				<rect x="160.89" y="99.59" transform="matrix(0.7071 -0.7071 0.7071 0.7071 -23.95 144.5173)" style="fill:#8F9294;" width="3.17" height="3.17"/>
			
				<rect x="149.08" y="87.77" transform="matrix(0.7071 -0.7071 0.7071 0.7071 -19.0128 132.5976)" style="fill:#8F9294;" width="2.95" height="2.95"/>
			
				<rect x="137.27" y="75.96" transform="matrix(0.7071 -0.7071 0.7071 0.7071 -14.0755 120.6778)" style="fill:#8F9294;" width="2.73" height="2.73"/>
			
				<rect x="125.46" y="64.15" transform="matrix(0.7071 -0.7071 0.7071 0.7071 -9.1371 108.762)" style="fill:#8F9294;" width="2.52" height="2.52"/>
			
				<rect x="113.65" y="52.34" transform="matrix(0.7071 -0.7071 0.7071 0.7071 -4.201 96.8385)" style="fill:#8F9294;" width="2.3" height="2.3"/>
			
				<rect x="101.84" y="40.53" transform="matrix(0.7071 -0.7071 0.7071 0.7071 0.7374 84.922)" style="fill:#8F9294;" width="2.09" height="2.09"/>
			
				<rect x="90.03" y="28.72" transform="matrix(0.7071 -0.7071 0.7071 0.7071 5.6733 72.9994)" style="fill:#8F9294;" width="1.87" height="1.87"/>
		</g>
	</g>
	<g>
		<g>
			
				<rect x="210.3" y="168.3" transform="matrix(0.7071 -0.7071 0.7071 0.7071 -58.2929 200.1246)" style="fill:#8F9294;" width="4.25" height="4.25"/>
			
				<rect x="198.48" y="156.49" transform="matrix(0.7071 -0.7071 0.7071 0.7071 -53.3555 188.2048)" style="fill:#8F9294;" width="4.03" height="4.03"/>
			
				<rect x="186.67" y="144.68" transform="matrix(0.7071 -0.7071 0.7071 0.7071 -48.4187 176.2805)" style="fill:#8F9294;" width="3.82" height="3.82"/>
			
				<rect x="174.86" y="132.87" transform="matrix(0.7071 -0.7071 0.7071 0.7071 -43.4809 164.3644)" style="fill:#8F9294;" width="3.6" height="3.6"/>
			
				<rect x="163.05" y="121.06" transform="matrix(0.7071 -0.7071 0.7071 0.7071 -38.544 152.4409)" style="fill:#8F9294;" width="3.38" height="3.38"/>
			
				<rect x="151.24" y="109.24" transform="matrix(0.7071 -0.7071 0.7071 0.7071 -33.606 140.5253)" style="fill:#8F9294;" width="3.17" height="3.17"/>
			
				<rect x="139.43" y="97.43" transform="matrix(0.7071 -0.7071 0.7071 0.7071 -28.6693 128.6013)" style="fill:#8F9294;" width="2.95" height="2.95"/>
			
				<rect x="127.61" y="85.62" transform="matrix(0.7071 -0.7071 0.7071 0.7071 -23.7312 116.6855)" style="fill:#8F9294;" width="2.73" height="2.73"/>
			
				<rect x="115.8" y="73.81" transform="matrix(0.7071 -0.7071 0.7071 0.7071 -18.7948 104.7612)" style="fill:#8F9294;" width="2.52" height="2.52"/>
			
				<rect x="103.99" y="62" transform="matrix(0.7071 -0.7071 0.7071 0.7071 -13.8573 92.8419)" style="fill:#8F9294;" width="2.3" height="2.3"/>
			
				<rect x="92.18" y="50.19" transform="matrix(0.7071 -0.7071 0.7071 0.7071 -8.92 80.9221)" style="fill:#8F9294;" width="2.09" height="2.09"/>
			
				<rect x="80.37" y="38.37" transform="matrix(0.7071 -0.7071 0.7071 0.7071 -3.9836 68.9995)" style="fill:#8F9294;" width="1.87" height="1.87"/>
		</g>
	</g>
	<g>
		<g>
			
				<rect x="200.64" y="177.96" transform="matrix(0.7071 -0.7071 0.7071 0.7071 -67.9507 196.1243)" style="fill:#8F9294;" width="4.25" height="4.25"/>
			
				<rect x="188.83" y="166.15" transform="matrix(0.7071 -0.7071 0.7071 0.7071 -63.0134 184.2045)" style="fill:#8F9294;" width="4.03" height="4.03"/>
			
				<rect x="177.01" y="154.34" transform="matrix(0.7071 -0.7071 0.7071 0.7071 -58.0763 172.2802)" style="fill:#8F9294;" width="3.82" height="3.82"/>
			
				<rect x="165.2" y="142.52" transform="matrix(0.7071 -0.7071 0.7071 0.7071 -53.1386 160.3647)" style="fill:#8F9294;" width="3.6" height="3.6"/>
			
				<rect x="153.39" y="130.71" transform="matrix(0.7071 -0.7071 0.7071 0.7071 -48.2016 148.4406)" style="fill:#8F9294;" width="3.38" height="3.38"/>
			
				<rect x="141.58" y="118.9" transform="matrix(0.7071 -0.7071 0.7071 0.7071 -43.2639 136.5255)" style="fill:#8F9294;" width="3.17" height="3.17"/>
			
				<rect x="129.77" y="107.09" transform="matrix(0.7071 -0.7071 0.7071 0.7071 -38.327 124.6004)" style="fill:#8F9294;" width="2.95" height="2.95"/>
			
				<rect x="117.96" y="95.28" transform="matrix(0.7071 -0.7071 0.7071 0.7071 -33.3892 112.6851)" style="fill:#8F9294;" width="2.73" height="2.73"/>
			
				<rect x="106.14" y="83.47" transform="matrix(0.7071 -0.7071 0.7071 0.7071 -28.4522 100.7614)" style="fill:#8F9294;" width="2.52" height="2.52"/>
			
				<rect x="94.33" y="71.66" transform="matrix(0.7071 -0.7071 0.7071 0.7071 -23.5144 88.8457)" style="fill:#8F9294;" width="2.3" height="2.3"/>
			
				<rect x="82.52" y="59.84" transform="matrix(0.7071 -0.7071 0.7071 0.7071 -18.5776 76.9218)" style="fill:#8F9294;" width="2.09" height="2.09"/>
			
				<rect x="70.71" y="48.03" transform="matrix(0.7071 -0.7071 0.7071 0.7071 -13.6397 65.0048)" style="fill:#8F9294;" width="1.87" height="1.87"/>
		</g>
	</g>
	<g>
		<g>
			
				<rect x="190.98" y="187.62" transform="matrix(0.7071 -0.7071 0.7071 0.7071 -77.6086 192.1195)" style="fill:#8F9294;" width="4.25" height="4.25"/>
			
				<rect x="179.17" y="175.81" transform="matrix(0.7071 -0.7071 0.7071 0.7071 -72.6712 180.1997)" style="fill:#8F9294;" width="4.03" height="4.03"/>
			
				<rect x="167.36" y="163.99" transform="matrix(0.7071 -0.7071 0.7071 0.7071 -67.7339 168.2843)" style="fill:#8F9294;" width="3.82" height="3.82"/>
			
				<rect x="155.55" y="152.18" transform="matrix(0.7071 -0.7071 0.7071 0.7071 -62.7965 156.3644)" style="fill:#8F9294;" width="3.6" height="3.6"/>
			
				<rect x="143.73" y="140.37" transform="matrix(0.7071 -0.7071 0.7071 0.7071 -57.8592 144.444)" style="fill:#8F9294;" width="3.38" height="3.38"/>
			
				<rect x="131.92" y="128.56" transform="matrix(0.7071 -0.7071 0.7071 0.7071 -52.9218 132.5246)" style="fill:#8F9294;" width="3.17" height="3.17"/>
			
				<rect x="120.11" y="116.75" transform="matrix(0.7071 -0.7071 0.7071 0.7071 -47.9845 120.6007)" style="fill:#8F9294;" width="2.95" height="2.95"/>
			
				<rect x="108.3" y="104.94" transform="matrix(0.7071 -0.7071 0.7071 0.7071 -43.0471 108.6848)" style="fill:#8F9294;" width="2.73" height="2.73"/>
			
				<rect x="96.49" y="93.12" transform="matrix(0.7071 -0.7071 0.7071 0.7071 -38.1099 96.7611)" style="fill:#8F9294;" width="2.52" height="2.52"/>
			
				<rect x="84.68" y="81.31" transform="matrix(0.7071 -0.7071 0.7071 0.7071 -33.1724 84.8445)" style="fill:#8F9294;" width="2.3" height="2.3"/>
			
				<rect x="72.86" y="69.5" transform="matrix(0.7071 -0.7071 0.7071 0.7071 -28.2352 72.9215)" style="fill:#8F9294;" width="2.09" height="2.09"/>
			
				<rect x="61.05" y="57.69" transform="matrix(0.7071 -0.7071 0.7071 0.7071 -23.2977 61.0049)" style="fill:#8F9294;" width="1.87" height="1.87"/>
		</g>
	</g>
	<g>
		<g>
			
				<rect x="181.32" y="197.28" transform="matrix(0.7071 -0.7071 0.7071 0.7071 -87.266 188.1147)" style="fill:#8F9294;" width="4.25" height="4.25"/>
			
				<rect x="169.51" y="185.46" transform="matrix(0.7071 -0.7071 0.7071 0.7071 -82.3288 176.1994)" style="fill:#8F9294;" width="4.03" height="4.03"/>
			
				<rect x="157.7" y="173.65" transform="matrix(0.7071 -0.7071 0.7071 0.7071 -77.3913 164.2758)" style="fill:#8F9294;" width="3.82" height="3.82"/>
			
				<rect x="145.89" y="161.84" transform="matrix(0.7071 -0.7071 0.7071 0.7071 -72.4541 152.3598)" style="fill:#8F9294;" width="3.6" height="3.6"/>
			
				<rect x="134.08" y="150.03" transform="matrix(0.7071 -0.7071 0.7071 0.7071 -67.5166 140.4357)" style="fill:#8F9294;" width="3.38" height="3.38"/>
			
				<rect x="122.26" y="138.22" transform="matrix(0.7071 -0.7071 0.7071 0.7071 -62.5797 128.5243)" style="fill:#8F9294;" width="3.17" height="3.17"/>
			
				<rect x="110.45" y="126.41" transform="matrix(0.7071 -0.7071 0.7071 0.7071 -57.6422 116.6009)" style="fill:#8F9294;" width="2.95" height="2.95"/>
			
				<rect x="98.64" y="114.59" transform="matrix(0.7071 -0.7071 0.7071 0.7071 -52.705 104.684)" style="fill:#8F9294;" width="2.73" height="2.73"/>
			
				<rect x="86.83" y="102.78" transform="matrix(0.7071 -0.7071 0.7071 0.7071 -47.7675 92.7608)" style="fill:#8F9294;" width="2.52" height="2.52"/>
			
				<rect x="75.02" y="90.97" transform="matrix(0.7071 -0.7071 0.7071 0.7071 -42.8305 80.8446)" style="fill:#8F9294;" width="2.3" height="2.3"/>
			
				<rect x="63.21" y="79.16" transform="matrix(0.7071 -0.7071 0.7071 0.7071 -37.8928 68.9216)" style="fill:#8F9294;" width="2.09" height="2.09"/>
			
				<rect x="51.39" y="67.35" transform="matrix(0.7071 -0.7071 0.7071 0.7071 -32.9558 57.0046)" style="fill:#8F9294;" width="1.87" height="1.87"/>
		</g>
	</g>
	<g>
		<g>
			
				<rect x="171.67" y="206.93" transform="matrix(0.7071 -0.7071 0.7071 0.7071 -96.9234 184.1144)" style="fill:#8F9294;" width="4.25" height="4.25"/>
			
				<rect x="159.85" y="195.12" transform="matrix(0.7071 -0.7071 0.7071 0.7071 -91.9864 172.1991)" style="fill:#8F9294;" width="4.03" height="4.03"/>
			
				<rect x="148.04" y="183.31" transform="matrix(0.7071 -0.7071 0.7071 0.7071 -87.0486 160.2749)" style="fill:#8F9294;" width="3.82" height="3.82"/>
			
				<rect x="136.23" y="171.5" transform="matrix(0.7071 -0.7071 0.7071 0.7071 -82.1117 148.3595)" style="fill:#8F9294;" width="3.6" height="3.6"/>
			
				<rect x="124.42" y="159.69" transform="matrix(0.7071 -0.7071 0.7071 0.7071 -77.1739 136.4355)" style="fill:#8F9294;" width="3.38" height="3.38"/>
			
				<rect x="112.61" y="147.87" transform="matrix(0.7071 -0.7071 0.7071 0.7071 -72.2371 124.5199)" style="fill:#8F9294;" width="3.17" height="3.17"/>
			
				<rect x="100.8" y="136.06" transform="matrix(0.7071 -0.7071 0.7071 0.7071 -67.2991 112.596)" style="fill:#8F9294;" width="2.95" height="2.95"/>
			
				<rect x="88.98" y="124.25" transform="matrix(0.7071 -0.7071 0.7071 0.7071 -62.3624 100.6803)" style="fill:#8F9294;" width="2.73" height="2.73"/>
			
				<rect x="77.17" y="112.44" transform="matrix(0.7071 -0.7071 0.7071 0.7071 -57.4251 88.7604)" style="fill:#8F9294;" width="2.52" height="2.52"/>
			
				<rect x="65.36" y="100.63" transform="matrix(0.7071 -0.7071 0.7071 0.7071 -52.4877 76.8406)" style="fill:#8F9294;" width="2.3" height="2.3"/>
			
				<rect x="53.55" y="88.82" transform="matrix(0.7071 -0.7071 0.7071 0.7071 -47.5503 64.9204)" style="fill:#8F9294;" width="2.09" height="2.09"/>
			
				<rect x="41.74" y="77" transform="matrix(0.7071 -0.7071 0.7071 0.7071 -42.6121 52.9978)" style="fill:#8F9294;" width="1.87" height="1.87"/>
		</g>
	</g>
	<g>
		<g>
			
				<rect x="162.01" y="216.59" transform="matrix(0.7071 -0.7071 0.7071 0.7071 -106.5807 180.1141)" style="fill:#8F9294;" width="4.25" height="4.25"/>
			
				<rect x="150.2" y="204.78" transform="matrix(0.7071 -0.7071 0.7071 0.7071 -101.6433 168.1943)" style="fill:#8F9294;" width="4.03" height="4.03"/>
			
				<rect x="138.38" y="192.97" transform="matrix(0.7071 -0.7071 0.7071 0.7071 -96.706 156.2746)" style="fill:#8F9294;" width="3.82" height="3.82"/>
			
				<rect x="126.57" y="181.16" transform="matrix(0.7071 -0.7071 0.7071 0.7071 -91.7686 144.3549)" style="fill:#8F9294;" width="3.6" height="3.6"/>
			
				<rect x="114.76" y="169.34" transform="matrix(0.7071 -0.7071 0.7071 0.7071 -86.8312 132.4351)" style="fill:#8F9294;" width="3.38" height="3.38"/>
			
				<rect x="102.95" y="157.53" transform="matrix(0.7071 -0.7071 0.7071 0.7071 -81.8938 120.5154)" style="fill:#8F9294;" width="3.17" height="3.17"/>
			
				<rect x="91.14" y="145.72" transform="matrix(0.7071 -0.7071 0.7071 0.7071 -76.9564 108.5957)" style="fill:#8F9294;" width="2.95" height="2.95"/>
			
				<rect x="79.33" y="133.91" transform="matrix(0.7071 -0.7071 0.7071 0.7071 -72.019 96.676)" style="fill:#8F9294;" width="2.73" height="2.73"/>
			
				<rect x="67.51" y="122.1" transform="matrix(0.7071 -0.7071 0.7071 0.7071 -67.0816 84.7564)" style="fill:#8F9294;" width="2.52" height="2.52"/>
			
				<rect x="55.7" y="110.29" transform="matrix(0.7071 -0.7071 0.7071 0.7071 -62.1441 72.8367)" style="fill:#8F9294;" width="2.3" height="2.3"/>
			
				<rect x="43.89" y="98.47" transform="matrix(0.7071 -0.7071 0.7071 0.7071 -57.2066 60.9171)" style="fill:#8F9294;" width="2.09" height="2.09"/>
			
				<rect x="32.08" y="86.66" transform="matrix(0.7071 -0.7071 0.7071 0.7071 -52.2693 48.9979)" style="fill:#8F9294;" width="1.87" height="1.87"/>
		</g>
	</g>
	<g>
		<g>
			
				<rect x="152.35" y="226.25" transform="matrix(0.7071 -0.7071 0.7071 0.7071 -116.2407 176.1273)" style="fill:#8F9294;" width="4.25" height="4.25"/>
			
				<rect x="140.54" y="214.44" transform="matrix(0.7071 -0.7071 0.7071 0.7071 -111.3026 164.2029)" style="fill:#8F9294;" width="4.03" height="4.03"/>
			
				<rect x="128.73" y="202.62" transform="matrix(0.7071 -0.7071 0.7071 0.7071 -106.3653 152.2831)" style="fill:#8F9294;" width="3.82" height="3.82"/>
			
				<rect x="116.92" y="190.81" transform="matrix(0.7071 -0.7071 0.7071 0.7071 -101.428 140.3632)" style="fill:#8F9294;" width="3.6" height="3.6"/>
			
				<rect x="105.1" y="179" transform="matrix(0.7071 -0.7071 0.7071 0.7071 -96.4896 128.439)" style="fill:#8F9294;" width="3.38" height="3.38"/>
			
				<rect x="93.29" y="167.19" transform="matrix(0.7071 -0.7071 0.7071 0.7071 -91.5536 116.5239)" style="fill:#8F9294;" width="3.17" height="3.17"/>
			
				<rect x="81.48" y="155.38" transform="matrix(0.7071 -0.7071 0.7071 0.7071 -86.6148 104.599)" style="fill:#8F9294;" width="2.95" height="2.95"/>
			
				<rect x="69.67" y="143.57" transform="matrix(0.7071 -0.7071 0.7071 0.7071 -81.679 92.6836)" style="fill:#8F9294;" width="2.73" height="2.73"/>
			
				<rect x="57.86" y="131.75" transform="matrix(0.7071 -0.7071 0.7071 0.7071 -76.7402 80.7598)" style="fill:#8F9294;" width="2.52" height="2.52"/>
			
				<rect x="46.05" y="119.94" transform="matrix(0.7071 -0.7071 0.7071 0.7071 -71.8031 68.8405)" style="fill:#8F9294;" width="2.3" height="2.3"/>
			
				<rect x="34.23" y="108.13" transform="matrix(0.7071 -0.7071 0.7071 0.7071 -66.8656 56.9202)" style="fill:#8F9294;" width="2.09" height="2.09"/>
			
				<rect x="22.42" y="96.32" transform="matrix(0.7071 -0.7071 0.7071 0.7071 -61.928 45.0001)" style="fill:#8F9294;" width="1.87" height="1.87"/>
		</g>
	</g>
	<g>
		<g>
			
				<rect x="142.69" y="235.91" transform="matrix(0.7071 -0.7071 0.7071 0.7071 -125.8966 172.118)" style="fill:#8F9294;" width="4.25" height="4.25"/>
			
				<rect x="130.88" y="224.09" transform="matrix(0.7071 -0.7071 0.7071 0.7071 -120.9592 160.1982)" style="fill:#8F9294;" width="4.03" height="4.03"/>
			
				<rect x="119.07" y="212.28" transform="matrix(0.7071 -0.7071 0.7071 0.7071 -116.0219 148.2784)" style="fill:#8F9294;" width="3.82" height="3.82"/>
			
				<rect x="107.26" y="200.47" transform="matrix(0.7071 -0.7071 0.7071 0.7071 -111.0859 136.3629)" style="fill:#8F9294;" width="3.6" height="3.6"/>
			
				<rect x="95.45" y="188.66" transform="matrix(0.7071 -0.7071 0.7071 0.7071 -106.1484 124.4425)" style="fill:#8F9294;" width="3.38" height="3.38"/>
			
				<rect x="83.63" y="176.85" transform="matrix(0.7071 -0.7071 0.7071 0.7071 -101.2114 112.5231)" style="fill:#8F9294;" width="3.17" height="3.17"/>
			
				<rect x="71.82" y="165.04" transform="matrix(0.7071 -0.7071 0.7071 0.7071 -96.2725 100.5991)" style="fill:#8F9294;" width="2.95" height="2.95"/>
			
				<rect x="60.01" y="153.22" transform="matrix(0.7071 -0.7071 0.7071 0.7071 -91.3369 88.6833)" style="fill:#8F9294;" width="2.73" height="2.73"/>
			
				<rect x="48.2" y="141.41" transform="matrix(0.7071 -0.7071 0.7071 0.7071 -86.3979 76.7595)" style="fill:#8F9294;" width="2.52" height="2.52"/>
			
				<rect x="36.39" y="129.6" transform="matrix(0.7071 -0.7071 0.7071 0.7071 -81.4623 64.843)" style="fill:#8F9294;" width="2.3" height="2.3"/>
			
				<rect x="24.58" y="117.79" transform="matrix(0.7071 -0.7071 0.7071 0.7071 -76.5232 52.9199)" style="fill:#8F9294;" width="2.09" height="2.09"/>
			
				<rect x="12.76" y="105.98" transform="matrix(0.7071 -0.7071 0.7071 0.7071 -71.5883 41.0034)" style="fill:#8F9294;" width="1.87" height="1.87"/>
		</g>
	</g>
	<g>
		<g>
			
				<rect x="133.03" y="245.56" transform="matrix(0.7071 -0.7071 0.7071 0.7071 -135.5542 168.1177)" style="fill:#8F9294;" width="4.25" height="4.25"/>
			
				<rect x="121.22" y="233.75" transform="matrix(0.7071 -0.7071 0.7071 0.7071 -130.6168 156.1979)" style="fill:#8F9294;" width="4.03" height="4.03"/>
			
				<rect x="109.41" y="221.94" transform="matrix(0.7071 -0.7071 0.7071 0.7071 -125.6795 144.2781)" style="fill:#8F9294;" width="3.82" height="3.82"/>
			
				<rect x="97.6" y="210.13" transform="matrix(0.7071 -0.7071 0.7071 0.7071 -120.7421 132.3583)" style="fill:#8F9294;" width="3.6" height="3.6"/>
			
				<rect x="85.79" y="198.32" transform="matrix(0.7071 -0.7071 0.7071 0.7071 -115.8048 120.4385)" style="fill:#8F9294;" width="3.38" height="3.38"/>
			
				<rect x="73.98" y="186.5" transform="matrix(0.7071 -0.7071 0.7071 0.7071 -110.8675 108.5187)" style="fill:#8F9294;" width="3.17" height="3.17"/>
			
				<rect x="62.16" y="174.69" transform="matrix(0.7071 -0.7071 0.7071 0.7071 -105.932 96.6029)" style="fill:#8F9294;" width="2.95" height="2.95"/>
			
				<rect x="50.35" y="162.88" transform="matrix(0.7071 -0.7071 0.7071 0.7071 -100.9946 84.6825)" style="fill:#8F9294;" width="2.73" height="2.73"/>
			
				<rect x="38.54" y="151.07" transform="matrix(0.7071 -0.7071 0.7071 0.7071 -96.0577 72.763)" style="fill:#8F9294;" width="2.52" height="2.52"/>
			
				<rect x="26.73" y="139.26" transform="matrix(0.7071 -0.7071 0.7071 0.7071 -91.1206 60.8431)" style="fill:#8F9294;" width="2.3" height="2.3"/>
			
				<rect x="14.92" y="127.45" transform="matrix(0.7071 -0.7071 0.7071 0.7071 -86.1811 48.92)" style="fill:#8F9294;" width="2.09" height="2.09"/>
			
				<rect x="3.11" y="115.64" transform="matrix(0.7071 -0.7071 0.7071 0.7071 -81.2464 37.0031)" style="fill:#8F9294;" width="1.87" height="1.87"/>
		</g>
	</g>
</g>
</svg>
