<?xml version="1.0" encoding="utf-8"?>
<!-- Generator: Adobe Illustrator 26.1.0, SVG Export Plug-In . SVG Version: 6.00 Build 0)  -->
<svg version="1.1" id="Layer_1" xmlns="http://www.w3.org/2000/svg" xmlns:xlink="http://www.w3.org/1999/xlink" x="0px" y="0px"
	 viewBox="0 0 245.83 196.77" style="enable-background:new 0 0 245.83 196.77;" xml:space="preserve">
<g>
	<g>
		<g>
			<g>
				<line style="fill:#FF5723;stroke:#E24B00;stroke-width:2;stroke-miterlimit:10;" x1="14.18" y1="1.91" x2="14.18" y2="28.55"/>
				<line style="fill:#FF5723;stroke:#E24B00;stroke-width:2;stroke-miterlimit:10;" x1="0.86" y1="15.23" x2="27.5" y2="15.23"/>
			</g>
			<g>
				<line style="fill:#FF5723;stroke:#E24B00;stroke-width:2;stroke-miterlimit:10;" x1="86.78" y1="1.91" x2="86.78" y2="28.55"/>
				<line style="fill:#FF5723;stroke:#E24B00;stroke-width:2;stroke-miterlimit:10;" x1="73.46" y1="15.23" x2="100.1" y2="15.23"/>
			</g>
			<g>
				
					<line style="fill:#FF5723;stroke:#E24B00;stroke-width:2;stroke-miterlimit:10;" x1="159.38" y1="1.91" x2="159.38" y2="28.55"/>
				
					<line style="fill:#FF5723;stroke:#E24B00;stroke-width:2;stroke-miterlimit:10;" x1="146.06" y1="15.23" x2="172.7" y2="15.23"/>
			</g>
			<g>
				
					<line style="fill:#FF5723;stroke:#E24B00;stroke-width:2;stroke-miterlimit:10;" x1="231.98" y1="1.91" x2="231.98" y2="28.55"/>
				
					<line style="fill:#FF5723;stroke:#E24B00;stroke-width:2;stroke-miterlimit:10;" x1="218.66" y1="15.23" x2="245.31" y2="15.23"/>
			</g>
		</g>
		<g>
			<g>
				<line style="fill:#FF5723;stroke:#E24B00;stroke-width:2;stroke-miterlimit:10;" x1="14.18" y1="57.19" x2="14.18" y2="83.83"/>
				<line style="fill:#FF5723;stroke:#E24B00;stroke-width:2;stroke-miterlimit:10;" x1="0.86" y1="70.51" x2="27.5" y2="70.51"/>
			</g>
			<g>
				<line style="fill:#FF5723;stroke:#E24B00;stroke-width:2;stroke-miterlimit:10;" x1="86.78" y1="57.19" x2="86.78" y2="83.83"/>
				<line style="fill:#FF5723;stroke:#E24B00;stroke-width:2;stroke-miterlimit:10;" x1="73.46" y1="70.51" x2="100.1" y2="70.51"/>
			</g>
			<g>
				
					<line style="fill:#FF5723;stroke:#E24B00;stroke-width:2;stroke-miterlimit:10;" x1="159.38" y1="57.19" x2="159.38" y2="83.83"/>
				
					<line style="fill:#FF5723;stroke:#E24B00;stroke-width:2;stroke-miterlimit:10;" x1="146.06" y1="70.51" x2="172.7" y2="70.51"/>
			</g>
			<g>
				
					<line style="fill:#FF5723;stroke:#E24B00;stroke-width:2;stroke-miterlimit:10;" x1="231.98" y1="57.19" x2="231.98" y2="83.83"/>
				
					<line style="fill:#FF5723;stroke:#E24B00;stroke-width:2;stroke-miterlimit:10;" x1="218.66" y1="70.51" x2="245.31" y2="70.51"/>
			</g>
		</g>
		<g>
			<g>
				
					<line style="fill:#FF5723;stroke:#E24B00;stroke-width:2;stroke-miterlimit:10;" x1="14.18" y1="112.47" x2="14.18" y2="139.12"/>
				<line style="fill:#FF5723;stroke:#E24B00;stroke-width:2;stroke-miterlimit:10;" x1="0.86" y1="125.79" x2="27.5" y2="125.79"/>
			</g>
			<g>
				
					<line style="fill:#FF5723;stroke:#E24B00;stroke-width:2;stroke-miterlimit:10;" x1="86.78" y1="112.47" x2="86.78" y2="139.12"/>
				
					<line style="fill:#FF5723;stroke:#E24B00;stroke-width:2;stroke-miterlimit:10;" x1="73.46" y1="125.79" x2="100.1" y2="125.79"/>
			</g>
			<g>
				
					<line style="fill:#FF5723;stroke:#E24B00;stroke-width:2;stroke-miterlimit:10;" x1="159.38" y1="112.47" x2="159.38" y2="139.12"/>
				
					<line style="fill:#FF5723;stroke:#E24B00;stroke-width:2;stroke-miterlimit:10;" x1="146.06" y1="125.79" x2="172.7" y2="125.79"/>
			</g>
			<g>
				
					<line style="fill:#FF5723;stroke:#E24B00;stroke-width:2;stroke-miterlimit:10;" x1="231.98" y1="112.47" x2="231.98" y2="139.12"/>
				
					<line style="fill:#FF5723;stroke:#E24B00;stroke-width:2;stroke-miterlimit:10;" x1="218.66" y1="125.79" x2="245.31" y2="125.79"/>
			</g>
		</g>
		<g>
			<g>
				
					<line style="fill:#FF5723;stroke:#E24B00;stroke-width:2;stroke-miterlimit:10;" x1="14.18" y1="167.76" x2="14.18" y2="194.4"/>
				<line style="fill:#FF5723;stroke:#E24B00;stroke-width:2;stroke-miterlimit:10;" x1="0.86" y1="181.08" x2="27.5" y2="181.08"/>
			</g>
			<g>
				
					<line style="fill:#FF5723;stroke:#E24B00;stroke-width:2;stroke-miterlimit:10;" x1="86.78" y1="167.76" x2="86.78" y2="194.4"/>
				
					<line style="fill:#FF5723;stroke:#E24B00;stroke-width:2;stroke-miterlimit:10;" x1="73.46" y1="181.08" x2="100.1" y2="181.08"/>
			</g>
			<g>
				
					<line style="fill:#FF5723;stroke:#E24B00;stroke-width:2;stroke-miterlimit:10;" x1="159.38" y1="167.76" x2="159.38" y2="194.4"/>
				
					<line style="fill:#FF5723;stroke:#E24B00;stroke-width:2;stroke-miterlimit:10;" x1="146.06" y1="181.08" x2="172.7" y2="181.08"/>
			</g>
			<g>
				
					<line style="fill:#FF5723;stroke:#E24B00;stroke-width:2;stroke-miterlimit:10;" x1="231.98" y1="167.76" x2="231.98" y2="194.4"/>
				
					<line style="fill:#FF5723;stroke:#E24B00;stroke-width:2;stroke-miterlimit:10;" x1="218.66" y1="181.08" x2="245.31" y2="181.08"/>
			</g>
		</g>
	</g>
</g>
</svg>
