<?xml version="1.0" encoding="utf-8"?>
<!-- Generator: Adobe Illustrator 26.1.0, SVG Export Plug-In . SVG Version: 6.00 Build 0)  -->
<svg version="1.1" id="Layer_1" xmlns="http://www.w3.org/2000/svg" xmlns:xlink="http://www.w3.org/1999/xlink" x="0px" y="0px"
	 viewBox="0 0 26.85 106.29" style="enable-background:new 0 0 26.85 106.29;" xml:space="preserve">
<g>
	<polygon style="fill:#C0CCFF;" points="24.3,6.86 19.9,2.46 13.49,8.88 7.08,2.46 2.68,6.86 9.09,13.27 2.68,19.68 7.08,24.08 
		13.49,17.67 19.9,24.08 24.3,19.68 17.89,13.27 	"/>
	<polygon style="fill:#FF2C2C;" points="24.3,46.92 19.9,42.53 13.49,48.94 7.08,42.53 2.68,46.92 9.09,53.33 2.68,59.75 
		7.08,64.14 13.49,57.73 19.9,64.14 24.3,59.75 17.89,53.33 	"/>
	<polygon style="fill:#C0CCFF;" points="24.3,86.98 19.9,82.59 13.49,89 7.08,82.59 2.68,86.98 9.09,93.4 2.68,99.81 7.08,104.2 
		13.49,97.79 19.9,104.2 24.3,99.81 17.89,93.4 	"/>
</g>
</svg>
