<?xml version="1.0" encoding="utf-8"?>
<!-- Generator: Adobe Illustrator 26.1.0, SVG Export Plug-In . SVG Version: 6.00 Build 0)  -->
<svg version="1.1" id="Layer_1" xmlns="http://www.w3.org/2000/svg" xmlns:xlink="http://www.w3.org/1999/xlink" x="0px" y="0px"
	 viewBox="0 0 113.46 113.33" style="enable-background:new 0 0 113.46 113.33;" xml:space="preserve">
<g>
	<defs>
		<circle id="SVGID_1_" cx="57" cy="56.97" r="55.1"/>
	</defs>
	<clipPath id="SVGID_00000145779698572240786990000011878440624160051861_">
		<use xlink:href="#SVGID_1_"  style="overflow:visible;"/>
	</clipPath>
	
		<path style="clip-path:url(#SVGID_00000145779698572240786990000011878440624160051861_);fill:none;stroke:#606060;stroke-width:0.6545;stroke-miterlimit:10;" d="
		M42.83-0.71C27.59,15.47,11.22,30.52-4.02,46.76"/>
	
		<path style="clip-path:url(#SVGID_00000145779698572240786990000011878440624160051861_);fill:none;stroke:#606060;stroke-width:0.6545;stroke-miterlimit:10;" d="
		M49.8-0.76C32.82,17.43,13.84,35.11-4.06,53.07"/>
	
		<path style="clip-path:url(#SVGID_00000145779698572240786990000011878440624160051861_);fill:none;stroke:#606060;stroke-width:0.6545;stroke-miterlimit:10;" d="
		M56.25-0.75C36.1,19.4,15.81,39.69-4.18,59.69"/>
	
		<path style="clip-path:url(#SVGID_00000145779698572240786990000011878440624160051861_);fill:none;stroke:#606060;stroke-width:0.6545;stroke-miterlimit:10;" d="
		M62.64-0.6C40.68,21.36,18.42,43.61-4.13,66.16"/>
	
		<path style="clip-path:url(#SVGID_00000145779698572240786990000011878440624160051861_);fill:none;stroke:#606060;stroke-width:0.6545;stroke-miterlimit:10;" d="
		M70.47-0.66C45.91,23.32,21.04,47.54-4.06,72.48"/>
	
		<path style="clip-path:url(#SVGID_00000145779698572240786990000011878440624160051861_);fill:none;stroke:#606060;stroke-width:0.6545;stroke-miterlimit:10;" d="
		M75.6-0.57C49.84,25.94,24.31,50.81-1.87,77.65c-0.65,0.65-1.96,0.65-2.31,1.55"/>
	
		<path style="clip-path:url(#SVGID_00000145779698572240786990000011878440624160051861_);fill:none;stroke:#606060;stroke-width:0.6545;stroke-miterlimit:10;" d="
		M82.72-0.69C66.86,16.12,49.84,31.18,32.82,48.2C20.39,61.29,7.95,72.41-3.97,85.48"/>
	
		<path style="clip-path:url(#SVGID_00000145779698572240786990000011878440624160051861_);fill:none;stroke:#606060;stroke-width:0.6545;stroke-miterlimit:10;" d="
		M87.13,0.61C57.04,31.18,25.62,60.63-4.06,92.02"/>
	
		<path style="clip-path:url(#SVGID_00000145779698572240786990000011878440624160051861_);fill:none;stroke:#606060;stroke-width:0.6545;stroke-miterlimit:10;" d="
		M87.07,7.1C57.04,37.07,26.28,67.83-3.95,98.23"/>
	
		<path style="clip-path:url(#SVGID_00000145779698572240786990000011878440624160051861_);fill:none;stroke:#606060;stroke-width:0.6545;stroke-miterlimit:10;" d="
		M90.37,10.61c-31.36,31.69-63.44,62.45-94.3,94.2"/>
	
		<path style="clip-path:url(#SVGID_00000145779698572240786990000011878440624160051861_);fill:none;stroke:#606060;stroke-width:0.6545;stroke-miterlimit:10;" d="
		M96.89,10.58C62.93,44.27,30.21,78.96-4.21,111.59"/>
	
		<path style="clip-path:url(#SVGID_00000145779698572240786990000011878440624160051861_);fill:none;stroke:#606060;stroke-width:0.6545;stroke-miterlimit:10;" d="
		M102.93,10.82C68.17,45.58,34.13,79.61-0.62,114.37"/>
	
		<path style="clip-path:url(#SVGID_00000145779698572240786990000011878440624160051861_);fill:none;stroke:#606060;stroke-width:0.6545;stroke-miterlimit:10;" d="
		M109.29,10.82C74.72,44.92,40.68,79.61,5.79,114.43"/>
	
		<path style="clip-path:url(#SVGID_00000145779698572240786990000011878440624160051861_);fill:none;stroke:#606060;stroke-width:0.6545;stroke-miterlimit:10;" d="
		M112.71,13.76C79.3,46.89,46.57,80.92,12.23,114.46"/>
	
		<path style="clip-path:url(#SVGID_00000145779698572240786990000011878440624160051861_);fill:none;stroke:#606060;stroke-width:0.6545;stroke-miterlimit:10;" d="
		M112.91,19.94C81.26,51.47,51.15,84.2,18.7,114.45"/>
	
		<path style="clip-path:url(#SVGID_00000145779698572240786990000011878440624160051861_);fill:none;stroke:#606060;stroke-width:0.6545;stroke-miterlimit:10;" d="
		M112.67,27.02c-29.45,29.03-58.25,58.49-87.47,87.4"/>
	
		<path style="clip-path:url(#SVGID_00000145779698572240786990000011878440624160051861_);fill:none;stroke:#606060;stroke-width:0.6545;stroke-miterlimit:10;" d="
		M112.86,33.01c-27.02,26.97-53.85,54.46-81.13,81.35"/>
	
		<path style="clip-path:url(#SVGID_00000145779698572240786990000011878440624160051861_);fill:none;stroke:#606060;stroke-width:0.6545;stroke-miterlimit:10;" d="
		M112.79,39.61c-24.98,24.95-49.85,49.82-74.67,74.83"/>
	
		<path style="clip-path:url(#SVGID_00000145779698572240786990000011878440624160051861_);fill:none;stroke:#606060;stroke-width:0.6545;stroke-miterlimit:10;" d="
		M112.86,46.08c-22.44,23.06-45.35,45.97-68.18,68.27"/>
	
		<path style="clip-path:url(#SVGID_00000145779698572240786990000011878440624160051861_);fill:none;stroke:#606060;stroke-width:0.6545;stroke-miterlimit:10;" d="
		M112.78,52.68C92.39,73.07,71.44,94.01,51.1,114.39"/>
	
		<path style="clip-path:url(#SVGID_00000145779698572240786990000011878440624160051861_);fill:none;stroke:#606060;stroke-width:0.6545;stroke-miterlimit:10;" d="
		M112.61,59.39c-18.26,18.27-36.59,36.59-55.07,55.04"/>
	
		<path style="clip-path:url(#SVGID_00000145779698572240786990000011878440624160051861_);fill:none;stroke:#606060;stroke-width:0.6545;stroke-miterlimit:10;" d="
		M112.81,65.45C100.11,78.1,87.42,90.77,74.8,103.5c-3.61,3.64-7.21,7.29-10.81,10.94"/>
	
		<path style="clip-path:url(#SVGID_00000145779698572240786990000011878440624160051861_);fill:none;stroke:#606060;stroke-width:0.6545;stroke-miterlimit:10;" d="
		M112.76,72.7c-13.83,14.12-28.23,28.52-42.32,41.76"/>
</g>
</svg>
