<?xml version="1.0" encoding="utf-8"?>
<!-- Generator: Adobe Illustrator 26.0.1, SVG Export Plug-In . SVG Version: 6.00 Build 0)  -->
<svg version="1.1" id="Слой_1" xmlns="http://www.w3.org/2000/svg" xmlns:xlink="http://www.w3.org/1999/xlink" x="0px" y="0px"
	 viewBox="0 0 646.6 424.8" style="enable-background:new 0 0 646.6 424.8;" xml:space="preserve">
<style type="text/css">
	.st0{fill:url(#SVGID_1_);}
	.st1{fill:url(#SVGID_00000049909949799800374630000000285550496008281277_);}
	.st2{fill:url(#SVGID_00000054257853265669238890000000996073231679500678_);}
	.st3{fill:url(#SVGID_00000008850677696883467170000012976761057220860093_);}
	.st4{fill:url(#SVGID_00000031916657682412787690000004333424239645159097_);}
	.st5{fill:url(#SVGID_00000176036754715093424850000003229331412589348227_);}
	.st6{fill:url(#SVGID_00000114771242481695949630000003852409519501634489_);}
	.st7{fill:url(#SVGID_00000101805178305437435290000013708887082964086463_);}
	.st8{fill:url(#SVGID_00000007408459192602729360000015420374661866617736_);}
	.st9{fill:url(#SVGID_00000019648132937797719640000007148399659431991697_);}
	.st10{fill:url(#SVGID_00000049909315379012727360000008816234906103363003_);}
	.st11{fill:url(#SVGID_00000009589143082168873470000008239083558404608947_);}
	.st12{fill:url(#SVGID_00000052078320225398029880000016722421649294110599_);}
	.st13{fill:url(#SVGID_00000005230217747347087670000002276609912148624807_);}
	.st14{fill:url(#SVGID_00000176765985489094800060000016663714006012914083_);}
	.st15{fill:url(#SVGID_00000097489120551414444180000001754525749243108737_);}
	.st16{fill:url(#SVGID_00000127027148040941511850000006550785443433594807_);}
	.st17{fill:url(#SVGID_00000040559082521688604620000016623808966233687945_);}
	.st18{fill:url(#SVGID_00000124140210404250601230000003744560071878969270_);}
	.st19{fill:url(#SVGID_00000034062991427347012340000005820026290558644127_);}
	.st20{fill:url(#SVGID_00000139979976351510455490000015371203552391934896_);}
	.st21{fill:url(#SVGID_00000063592717868529390020000012972100183337182352_);}
	.st22{fill:url(#SVGID_00000117634687201534467240000016799263819841325965_);}
	.st23{fill:url(#SVGID_00000031899643577056414700000006466072731518464150_);}
	.st24{fill:url(#SVGID_00000160908523787076896060000010161306214561885062_);}
	.st25{fill:url(#SVGID_00000151519457335061976790000001531312884298345149_);}
	.st26{fill:url(#SVGID_00000124157727672465195480000016605619631834045829_);}
	.st27{fill:#FF7759;}
	.st28{fill:#FF6A59;}
	.st29{fill:url(#SVGID_00000099621114721682427540000018034039022690920370_);}
	.st30{fill:url(#SVGID_00000097496117185324428420000012014351147466628278_);}
	.st31{fill:url(#SVGID_00000139277556113177660460000002362884553360675761_);}
	.st32{opacity:0.95;fill:url(#SVGID_00000093899161904702950320000008683400262793423793_);}
	.st33{fill:#FF5458;}
	.st34{fill:url(#SVGID_00000032634502201654908390000014176778108618344580_);}
	.st35{fill:#38D2E0;}
	.st36{fill:#EEA886;}
	.st37{fill:#DB9C7C;}
	.st38{fill:#323657;}
	.st39{fill:#424773;}
	.st40{fill:#292C47;}
	.st41{fill:#E2D2CA;}
	.st42{fill:#EFAA88;}
	.st43{fill:#CF8C6C;}
	.st44{fill:#EB4747;}
	.st45{fill:#23344A;}
	.st46{fill:#9E4CC7;}
	.st47{fill:#3F74A0;}
	.st48{fill:#5B83C2;}
	.st49{fill:#AD3434;}
	.st50{fill:#B06E2A;}
	.st51{fill:#223247;}
	.st52{fill:#FAA146;}
	.st53{fill:#5B2C73;}
	.st54{fill:#F0DDD5;}
	.st55{fill:#A77860;}
	.st56{fill:#FF4D4D;}
	.st57{fill:#C43B3B;}
	.st58{fill:#EEECF0;}
	.st59{fill:#78C2FF;}
	.st60{fill:#E6E6E6;}
</style>
<g>
	<linearGradient id="SVGID_1_" gradientUnits="userSpaceOnUse" x1="111.1066" y1="205.8528" x2="449.0979" y2="205.8528">
		<stop  offset="0" style="stop-color:#A246C4"/>
		<stop  offset="1" style="stop-color:#5EAFFF"/>
	</linearGradient>
	<rect x="131.6" y="60.3" class="st0" width="302.4" height="291.1"/>
	<g>
		
			<linearGradient id="SVGID_00000129200617631927804020000012482470312226709140_" gradientUnits="userSpaceOnUse" x1="451.9606" y1="233.0028" x2="509.6482" y2="233.0028">
			<stop  offset="5.181350e-03" style="stop-color:#595959"/>
			<stop  offset="1" style="stop-color:#FFFFFF"/>
		</linearGradient>
		<path style="fill:url(#SVGID_00000129200617631927804020000012482470312226709140_);" d="M506.3,245.1c0,0-16.4-45.1-54.4-33.3
			c0,0,32,5.1,48.5,32C516.8,270.7,506.3,245.1,506.3,245.1z"/>
		
			<linearGradient id="SVGID_00000068638838853446469720000003563907811513290915_" gradientUnits="userSpaceOnUse" x1="496.5908" y1="233.0028" x2="554.278" y2="233.0028">
			<stop  offset="5.181350e-03" style="stop-color:#595959"/>
			<stop  offset="1" style="stop-color:#FFFFFF"/>
		</linearGradient>
		<path style="fill:url(#SVGID_00000068638838853446469720000003563907811513290915_);" d="M499.9,245.1c0,0,16.4-45.1,54.4-33.3
			c0,0-32,5.1-48.5,32C489.4,270.7,499.9,245.1,499.9,245.1z"/>
		
			<linearGradient id="SVGID_00000124883917275526713510000010647603906390773910_" gradientUnits="userSpaceOnUse" x1="539.8903" y1="229.7124" x2="571.7205" y2="229.7124">
			<stop  offset="5.181350e-03" style="stop-color:#B3B3B3"/>
			<stop  offset="1" style="stop-color:#FFFFFF"/>
		</linearGradient>
		<path style="fill:url(#SVGID_00000124883917275526713510000010647603906390773910_);" d="M539.9,209.9c0,0,25.8-2.7,1,38l13.4,1.6
			C554.3,249.6,601.8,207.9,539.9,209.9z"/>
		
			<linearGradient id="SVGID_00000033366699219170350820000017569381408640218505_" gradientUnits="userSpaceOnUse" x1="494.3072" y1="242.7266" x2="510.861" y2="242.7266">
			<stop  offset="5.181350e-03" style="stop-color:#B3B3B3"/>
			<stop  offset="1" style="stop-color:#FFFFFF"/>
		</linearGradient>
		<path style="fill:url(#SVGID_00000033366699219170350820000017569381408640218505_);" d="M510.9,245.3l-4.5,2l-1.2,0.5
			c0,0-17.8-5-7.8-9.3c2.4-1,4.4-1.2,6.1-0.8C508.8,238.9,510.9,245.3,510.9,245.3z"/>
		
			<linearGradient id="SVGID_00000183933453533673475790000006463371605264766114_" gradientUnits="userSpaceOnUse" x1="494.3072" y1="242.7266" x2="506.3503" y2="242.7266">
			<stop  offset="5.181350e-03" style="stop-color:#595959"/>
			<stop  offset="1" style="stop-color:#FFFFFF"/>
		</linearGradient>
		<path style="fill:url(#SVGID_00000183933453533673475790000006463371605264766114_);" d="M506.4,247.3l-1.2,0.5
			c0,0-17.8-5-7.8-9.3c2.4-1,4.4-1.2,6.1-0.8c0,0,0,0,0,0C503.5,237.8,495.7,240.5,506.4,247.3z"/>
		
			<linearGradient id="SVGID_00000071550047103106607330000017324249830286187931_" gradientUnits="userSpaceOnUse" x1="501.2375" y1="374.1927" x2="501.2375" y2="281.4536">
			<stop  offset="0" style="stop-color:#40D5E6"/>
			<stop  offset="1" style="stop-color:#5577FF"/>
		</linearGradient>
		
			<rect x="432.1" y="242.7" style="fill:url(#SVGID_00000071550047103106607330000017324249830286187931_);" width="138.3" height="108.7"/>
		
			<linearGradient id="SVGID_00000031175972782809587080000001145285192924859802_" gradientUnits="userSpaceOnUse" x1="427.1579" y1="259.0598" x2="575.3151" y2="259.0598">
			<stop  offset="0" style="stop-color:#40D5E6"/>
			<stop  offset="1" style="stop-color:#5577FF"/>
		</linearGradient>
		
			<rect x="427.2" y="242.7" style="fill:url(#SVGID_00000031175972782809587080000001145285192924859802_);" width="148.2" height="32.6"/>
		
			<linearGradient id="SVGID_00000157279531600001888250000010575012902183239810_" gradientUnits="userSpaceOnUse" x1="523.7493" y1="297.0798" x2="477.2402" y2="297.0798">
			<stop  offset="5.181350e-03" style="stop-color:#B3B3B3"/>
			<stop  offset="1" style="stop-color:#FFFFFF"/>
		</linearGradient>
		
			<rect x="486.4" y="242.7" style="fill:url(#SVGID_00000157279531600001888250000010575012902183239810_);" width="29.8" height="108.7"/>
	</g>
	<g>
		
			<linearGradient id="SVGID_00000150802904193987298640000001159138941263494037_" gradientUnits="userSpaceOnUse" x1="566.618" y1="270.312" x2="589.5895" y2="270.312">
			<stop  offset="0" style="stop-color:#1F3073"/>
			<stop  offset="1" style="stop-color:#4E6CDE"/>
		</linearGradient>
		<path style="fill:url(#SVGID_00000150802904193987298640000001159138941263494037_);" d="M589.6,279c0,0-12-4.4-18.7-9.3
			c-2-1.5-3.5-3-4-4.4c-0.5-1.3-0.3-2.5,0.9-3.6c0,0,0.8-0.3,2.8,0.5c3,1.3,8.8,5.1,18.6,16.4C589.4,278.7,589.5,278.9,589.6,279z"
			/>
		
			<linearGradient id="SVGID_00000123440897672652712540000013815604591744008068_" gradientUnits="userSpaceOnUse" x1="555.373" y1="273.1206" x2="589.5895" y2="273.1206">
			<stop  offset="0" style="stop-color:#7C3596"/>
			<stop  offset="1" style="stop-color:#3098FF"/>
		</linearGradient>
		<path style="fill:url(#SVGID_00000123440897672652712540000013815604591744008068_);" d="M589.6,279l-0.7,3.4c0,0-24,6-31.7-1.8
			c-0.1-0.1-0.2-0.2-0.3-0.3c-0.7-0.8-1.1-1.6-1.3-2.4c-2.2-7.4,12.2-16.1,12.2-16.1c-0.3,0.4-0.2,1,0.2,1.7c0.4,0.7,1.1,1.5,2,2.3
			C575.6,271,589.6,279,589.6,279z"/>
		
			<linearGradient id="SVGID_00000023982058982587896910000002284519247208425623_" gradientUnits="userSpaceOnUse" x1="551.684" y1="281.6631" x2="573.1802" y2="260.6648">
			<stop  offset="0" style="stop-color:#354996"/>
			<stop  offset="1" style="stop-color:#4E6CDE"/>
		</linearGradient>
		<path style="fill:url(#SVGID_00000023982058982587896910000002284519247208425623_);" d="M569.9,265.7c0,0-4.9,2-6.4,5.2
			c-1.5,3.2-2.3,5.9-4.4,6.9c-1,0.5-1.7,1.4-2.2,2.4c-0.7-0.8-1.1-1.6-1.3-2.4c0.2-1.3,0.6-2.7,1.7-3.9c3.1-3.6,6.2-6.3,6.6-7.6
			c0.3-1,2.9-2.3,4.1-2.9C568.4,264,569,264.8,569.9,265.7L569.9,265.7z"/>
		
			<linearGradient id="SVGID_00000095303100765899734180000007563922394817763464_" gradientUnits="userSpaceOnUse" x1="596.9118" y1="270.312" x2="619.8849" y2="270.312">
			<stop  offset="0" style="stop-color:#1F3073"/>
			<stop  offset="1" style="stop-color:#4E6CDE"/>
		</linearGradient>
		<path style="fill:url(#SVGID_00000095303100765899734180000007563922394817763464_);" d="M596.9,279c0,0,12-4.4,18.7-9.3
			c2-1.5,3.5-3,4-4.4c0.5-1.3,0.3-2.5-0.9-3.6c0,0-0.8-0.3-2.8,0.5c-3,1.3-8.8,5.1-18.6,16.4C597.2,278.7,597,278.9,596.9,279z"/>
		
			<linearGradient id="SVGID_00000039118859546487077310000009402890646605845376_" gradientUnits="userSpaceOnUse" x1="596.9118" y1="273.1206" x2="631.1301" y2="273.1206">
			<stop  offset="0" style="stop-color:#7C3596"/>
			<stop  offset="1" style="stop-color:#3098FF"/>
		</linearGradient>
		<path style="fill:url(#SVGID_00000039118859546487077310000009402890646605845376_);" d="M596.9,279l0.7,3.4c0,0,24,6,31.7-1.8
			c0.1-0.1,0.2-0.2,0.3-0.3c0.7-0.8,1.1-1.6,1.3-2.4c2.2-7.4-12.2-16.1-12.2-16.1c0.3,0.4,0.2,1-0.2,1.7c-0.4,0.7-1.1,1.5-2,2.3
			C610.9,271,596.9,279,596.9,279z"/>
		
			<linearGradient id="SVGID_00000152231209865055251310000006159094826462582956_" gradientUnits="userSpaceOnUse" x1="593.2032" y1="281.1915" x2="592.7052" y2="275.1041">
			<stop  offset="0" style="stop-color:#354996"/>
			<stop  offset="1" style="stop-color:#4E6CDE"/>
		</linearGradient>
		<path style="fill:url(#SVGID_00000152231209865055251310000006159094826462582956_);" d="M588.7,279c0,0,1.1-1.3,1.9-0.8
			c0.8,0.5,1.9-1,3.1-0.4c1.2,0.6,1.3-1,2.8-0.1c1.5,0.9,2.3,3.8,1.2,5.2c-1.1,1.5-1.7-0.3-2.2,0c-0.5,0.3-1.5,1.6-3.2,0.6
			c-1.7-1-4.1,0.9-3.9-0.3C588.5,282,588,281.4,588.7,279z"/>
		
			<linearGradient id="SVGID_00000031200089090533065390000008154323787920701313_" gradientUnits="userSpaceOnUse" x1="593.2507" y1="337.5915" x2="593.2507" y2="287.5975">
			<stop  offset="0" style="stop-color:#FFC05C"/>
			<stop  offset="1" style="stop-color:#FF3857"/>
		</linearGradient>
		
			<rect x="549.2" y="282.2" style="fill:url(#SVGID_00000031200089090533065390000008154323787920701313_);" width="88.1" height="69.2"/>
		
			<linearGradient id="SVGID_00000125603204904236265030000005018937279252153774_" gradientUnits="userSpaceOnUse" x1="593.2507" y1="310.3663" x2="593.2507" y2="255.2372">
			<stop  offset="0" style="stop-color:#FFC05C"/>
			<stop  offset="1" style="stop-color:#FF3857"/>
		</linearGradient>
		
			<rect x="546.1" y="282.2" style="fill:url(#SVGID_00000125603204904236265030000005018937279252153774_);" width="94.3" height="24"/>
		
			<linearGradient id="SVGID_00000060739512643287561180000000710725941627643579_" gradientUnits="userSpaceOnUse" x1="593.2507" y1="353.6388" x2="593.2507" y2="258.0183">
			<stop  offset="0" style="stop-color:#7C3596"/>
			<stop  offset="1" style="stop-color:#3098FF"/>
		</linearGradient>
		
			<rect x="583.8" y="282.2" style="fill:url(#SVGID_00000060739512643287561180000000710725941627643579_);" width="18.9" height="69.2"/>
	</g>
	<g>
		
			<linearGradient id="SVGID_00000142869346887934933320000009521979589853366173_" gradientUnits="userSpaceOnUse" x1="37.9456" y1="112.7751" x2="124.8551" y2="112.7751">
			<stop  offset="0" style="stop-color:#40D5E6"/>
			<stop  offset="1" style="stop-color:#5577FF"/>
		</linearGradient>
		<path style="fill:url(#SVGID_00000142869346887934933320000009521979589853366173_);" d="M80.6,162.1
			c15.2,10.6,30.2,17.7,38.2,13.4c0.5-0.3,0.9-0.6,1.3-0.9c4.6-3.6,6.2-12.1,3.1-27.5c-8.2-40.9-33.9-47.4-57.9-59.7
			c-23.7-12.1-14.7-38-14.4-38.6C18.2,106.8,54.7,144.1,80.6,162.1z"/>
		<g>
			
				<linearGradient id="SVGID_00000067952945972284968240000015730794272582404227_" gradientUnits="userSpaceOnUse" x1="-5857.5923" y1="2259.0627" x2="-5857.5923" y2="2175.095" gradientTransform="matrix(-0.7847 0.6199 0.6199 0.7847 -5869.4043 2043.6959)">
				<stop  offset="0" style="stop-color:#40D5E6"/>
				<stop  offset="1" style="stop-color:#5577FF"/>
			</linearGradient>
			<path style="fill:url(#SVGID_00000067952945972284968240000015730794272582404227_);" d="M118.8,175.5c0.5-0.3,0.9-0.6,1.3-0.9
				c-3-8-9.7-23.3-18.8-31.7c-4.3-3.9-9.3-7.5-14.6-11.2c-10-7.1-20.3-14.5-27.3-25.3l-1.3,0.8c7.2,11.1,17.6,18.5,27.7,25.7
				c5.2,3.7,10.2,7.3,14.4,11.1C109.2,152.2,115.9,167.7,118.8,175.5z"/>
		</g>
	</g>
	<g>
		
			<linearGradient id="SVGID_00000110452215458796718160000009311287171692047264_" gradientUnits="userSpaceOnUse" x1="3.8415" y1="185.2475" x2="154.6696" y2="185.2475">
			<stop  offset="0" style="stop-color:#40D5E6"/>
			<stop  offset="1" style="stop-color:#5577FF"/>
		</linearGradient>
		<path style="fill:url(#SVGID_00000110452215458796718160000009311287171692047264_);" d="M35.8,203.9c21,3.4,34.6-13.2,58.8,17.4
			c20.9,26.4,50.5-2.8,58.1-11.3c1.2-1.3,1.9-2.2,1.9-2.2s-0.5,0.1-1.3,0.3c-5.2,1.1-25.1,4.4-29.8-10.8
			c-5.4-17.5-20.9-41.2-41.3-34.9c-20.4,6.3-24.8-9.1-39.9-20.7c-15.1-11.6-38.5,9.8-38.5,9.8S14.8,200.4,35.8,203.9z"/>
		<g>
			
				<linearGradient id="SVGID_00000018946721816842154930000011544658306643990177_" gradientUnits="userSpaceOnUse" x1="-3142.8152" y1="1972.2896" x2="-3142.8152" y2="1868.807" gradientTransform="matrix(-0.5585 0.8295 0.8295 0.5585 -3244.5408 1728.4784)">
				<stop  offset="0" style="stop-color:#40D5E6"/>
				<stop  offset="1" style="stop-color:#5577FF"/>
			</linearGradient>
			<path style="fill:url(#SVGID_00000018946721816842154930000011544658306643990177_);" d="M101.7,198.1c4,6.9,8.1,14.1,17.5,18.1
				c12.8,5.4,25.8-0.9,33.6-6.1c1.2-1.3,1.9-2.2,1.9-2.2s-0.5,0.1-1.3,0.3c-7.3,5.2-20.7,12.4-33.7,6.9c-9-3.8-13-10.8-16.9-17.6
				c-4.5-7.8-9.2-15.9-21.4-18.7c-5.4-1.2-10.2-0.8-14.9-0.5c-6.7,0.6-13,1.1-19.9-3.7l-0.7,1c7.3,5,13.8,4.5,20.7,3.9
				c4.6-0.4,9.3-0.8,14.5,0.4C92.8,182.6,97.1,190.2,101.7,198.1z"/>
		</g>
	</g>
	<g>
		
			<linearGradient id="SVGID_00000012459795737961951520000014367592241477646991_" gradientUnits="userSpaceOnUse" x1="3877.3242" y1="-5666.689" x2="3922.0354" y2="-5730.8779" gradientTransform="matrix(0.7071 0.7071 -0.7071 0.7071 -6356.3198 1367.3722)">
			<stop  offset="0" style="stop-color:#40D5E6"/>
			<stop  offset="1" style="stop-color:#5577FF"/>
		</linearGradient>
		<path style="fill:url(#SVGID_00000012459795737961951520000014367592241477646991_);" d="M427.7,106.1
			c2.3,41.6,35.2,39.5,37.8,39.3c0.1,0,0.2,0,0.2,0c-0.7-0.8-1.4-1.7-2-2.5c-16.5-22.9,2.3-54.2,2-77.2
			c-0.3-23.9-21.6-29.1-21.6-29.1C459.7,49.6,425.4,62.8,427.7,106.1z"/>
		<g>
			
				<linearGradient id="SVGID_00000041259933836876092140000000775444871801246105_" gradientUnits="userSpaceOnUse" x1="-11962.0605" y1="-674.6409" x2="-11917.3506" y2="-738.8278" gradientTransform="matrix(-0.9932 -0.1166 -0.1166 0.9932 -11899.2529 -1357.1069)">
				<stop  offset="0" style="stop-color:#40D5E6"/>
				<stop  offset="1" style="stop-color:#5577FF"/>
			</linearGradient>
			<path style="fill:url(#SVGID_00000041259933836876092140000000775444871801246105_);" d="M447,127c4.5,8,11.5,14,18.5,18.3
				c0.1,0,0.2,0,0.2,0c-0.7-0.8-1.4-1.7-2-2.5c-6-4.1-11.8-9.5-15.7-16.3c-5-8.8-5.8-18.6-2.5-29c10.4-33,4.5-38.3,4.3-38.5
				l-0.4,0.5l-0.4,0.4c0,0,0,0,0,0c0.3,0.3,5.2,6.2-4.6,37.3C441,107.8,441.9,117.9,447,127z"/>
		</g>
	</g>
	<g>
		
			<linearGradient id="SVGID_00000131340553314780477760000005522186990572481950_" gradientUnits="userSpaceOnUse" x1="468.6704" y1="174.2079" x2="515.8482" y2="-20.8017">
			<stop  offset="0" style="stop-color:#40D5E6"/>
			<stop  offset="1" style="stop-color:#5577FF"/>
		</linearGradient>
		<path style="fill:url(#SVGID_00000131340553314780477760000005522186990572481950_);" d="M494.1,147.6c-13.1,16.2-27,28.5-37,26.3
			c-0.6-0.1-1.2-0.3-1.7-0.5c-6.1-2.5-10.4-11.1-11.9-28.6c-3.9-46.5,21.7-61.5,43.8-82.2c21.8-20.4,14.4-45.4,13.9-46
			C554.5,68.8,516.4,120.2,494.1,147.6z"/>
		<g>
			
				<linearGradient id="SVGID_00000029028737331502180250000014046564338204947863_" gradientUnits="userSpaceOnUse" x1="441.9553" y1="163.9339" x2="528.2276" y2="77.6615">
				<stop  offset="0" style="stop-color:#40D5E6"/>
				<stop  offset="1" style="stop-color:#5577FF"/>
			</linearGradient>
			<path style="fill:url(#SVGID_00000029028737331502180250000014046564338204947863_);" d="M457.2,173.9c-0.6-0.1-1.2-0.3-1.7-0.5
				c0.8-9.5,3.2-28.1,10.4-39.9c3.4-5.6,7.7-10.9,12.2-16.6c8.5-10.7,17.4-21.9,21.5-35.7l1.7,0.5c-4.2,14.2-13.2,25.4-21.8,36.3
				c-4.5,5.6-8.7,11-12.1,16.4C460.3,145.9,457.9,164.6,457.2,173.9z"/>
		</g>
	</g>
	
		<linearGradient id="SVGID_00000026164676143552463210000015102398235159035534_" gradientUnits="userSpaceOnUse" x1="91.1032" y1="221.0779" x2="474.5524" y2="221.0779">
		<stop  offset="0" style="stop-color:#FFC05C"/>
		<stop  offset="1" style="stop-color:#FF3857"/>
	</linearGradient>
	<path style="fill:url(#SVGID_00000026164676143552463210000015102398235159035534_);" d="M455,340.1H110.6
		c-10.8,0-19.5-8.7-19.5-19.5v-199c0-10.8,8.7-19.5,19.5-19.5H455c10.8,0,19.5,8.7,19.5,19.5v199C474.6,331.4,465.8,340.1,455,340.1
		z"/>
	<g>
		<path class="st27" d="M409,184.1c-17.4,0-31.6-14.2-31.6-31.6c0-17.4,14.2-31.6,31.6-31.6c17.4,0,31.6,14.2,31.6,31.6
			C440.6,169.9,426.4,184.1,409,184.1z M409,125.6c-14.8,0-26.9,12.1-26.9,26.9c0,14.8,12.1,26.9,26.9,26.9
			c14.8,0,26.9-12.1,26.9-26.9C435.9,137.7,423.8,125.6,409,125.6z"/>
	</g>
	<g>
		<path class="st28" d="M134,285.7c-1.7,0-3.3-0.3-4.8-0.9c-1.5-0.6-2.8-1.4-3.9-2.4c-1.1-1-2-2.2-2.6-3.6c-0.6-1.4-1-2.8-1-4.4
			c0-1.5,0.3-3,1-4.4c0.6-1.4,1.5-2.6,2.6-3.6c1.1-1,2.4-1.8,3.9-2.4c1.5-0.6,3.1-0.9,4.8-0.9c1.7,0,3.3,0.3,4.8,0.9
			c1.5,0.6,2.8,1.4,3.9,2.4c1.1,1,2,2.2,2.6,3.6c0.6,1.4,1,2.8,1,4.4c0,1.6-0.3,3.1-1,4.4c-0.6,1.4-1.5,2.5-2.6,3.6
			c-1.1,1-2.4,1.8-3.9,2.4C137.3,285.4,135.7,285.7,134,285.7z M125.9,313.1l20.9-24.4l19.3-25.4l4.5,4l-20.3,24l-20,25.8
			L125.9,313.1z M134,280.7c0.7,0,1.4-0.2,2-0.5c0.6-0.3,1.2-0.8,1.7-1.4c0.5-0.6,0.9-1.2,1.2-2c0.3-0.8,0.4-1.6,0.4-2.4
			c0-1.7-0.5-3.2-1.6-4.4c-1-1.2-2.3-1.8-3.7-1.8c-0.7,0-1.4,0.2-2,0.5c-0.6,0.3-1.2,0.8-1.7,1.4c-0.5,0.6-0.9,1.2-1.2,2
			c-0.3,0.7-0.4,1.5-0.4,2.4c0,1.7,0.5,3.2,1.6,4.5C131.4,280.1,132.6,280.7,134,280.7z M162.7,317.4c-1.7,0-3.3-0.3-4.8-0.9
			c-1.5-0.6-2.8-1.4-3.9-2.4c-1.1-1-2-2.2-2.6-3.5c-0.6-1.4-1-2.8-1-4.4c0-1.6,0.3-3.1,1-4.4c0.6-1.4,1.5-2.5,2.6-3.6
			c1.1-1,2.4-1.8,3.9-2.4c1.5-0.6,3.1-0.9,4.8-0.9c1.7,0,3.3,0.3,4.8,0.9c1.5,0.6,2.8,1.4,3.9,2.4c1.1,1,2,2.2,2.6,3.6
			c0.6,1.4,0.9,2.8,0.9,4.4c0,1.6-0.3,3.1-0.9,4.4c-0.6,1.4-1.5,2.5-2.6,3.5c-1.1,1-2.4,1.8-3.9,2.4
			C166,317.1,164.4,317.4,162.7,317.4z M162.7,312.4c0.7,0,1.4-0.2,2-0.5c0.6-0.3,1.2-0.8,1.7-1.4c0.5-0.6,0.9-1.2,1.2-2
			c0.3-0.7,0.4-1.5,0.4-2.4c0-0.9-0.1-1.7-0.4-2.5c-0.3-0.8-0.7-1.4-1.2-2c-0.5-0.6-1-1-1.7-1.3c-0.6-0.3-1.3-0.5-2-0.5
			c-0.7,0-1.4,0.2-2,0.5c-0.6,0.3-1.2,0.8-1.7,1.4c-0.5,0.6-0.9,1.2-1.2,2c-0.3,0.8-0.4,1.6-0.4,2.4c0,1.7,0.5,3.2,1.6,4.4
			C160,311.8,161.3,312.4,162.7,312.4z"/>
	</g>
	
		<linearGradient id="SVGID_00000118377715301825480740000012971126750038057127_" gradientUnits="userSpaceOnUse" x1="35.3289" y1="140.1809" x2="360.0915" y2="140.1809">
		<stop  offset="0" style="stop-color:#FFC05C"/>
		<stop  offset="1" style="stop-color:#FF3857"/>
	</linearGradient>
	
		<rect x="113.5" y="132.9" style="fill:url(#SVGID_00000118377715301825480740000012971126750038057127_);" width="203.4" height="14.6"/>
	
		<linearGradient id="SVGID_00000035494492846813051790000008382400570075416235_" gradientUnits="userSpaceOnUse" x1="35.3289" y1="122.82" x2="360.0915" y2="122.82">
		<stop  offset="0" style="stop-color:#FFC05C"/>
		<stop  offset="1" style="stop-color:#FF3857"/>
	</linearGradient>
	
		<rect x="113.5" y="120.9" style="fill:url(#SVGID_00000035494492846813051790000008382400570075416235_);" width="203.4" height="3.8"/>
	
		<linearGradient id="SVGID_00000115496005977976817410000010825300956305563069_" gradientUnits="userSpaceOnUse" x1="35.3291" y1="162.7859" x2="360.0919" y2="162.7859">
		<stop  offset="0" style="stop-color:#FFC05C"/>
		<stop  offset="1" style="stop-color:#FF3857"/>
	</linearGradient>
	
		<rect x="113.5" y="155.5" style="fill:url(#SVGID_00000115496005977976817410000010825300956305563069_);" width="104" height="14.6"/>
	
		<linearGradient id="SVGID_00000047030936554953378040000003635962248319818924_" gradientUnits="userSpaceOnUse" x1="430.8605" y1="262.2375" x2="147.9884" y2="262.2375">
		<stop  offset="0" style="stop-color:#EDF4FF"/>
		<stop  offset="1" style="stop-color:#EDFFFE"/>
	</linearGradient>
	<path style="opacity:0.95;fill:url(#SVGID_00000047030936554953378040000003635962248319818924_);" d="M347.5,361.7H218.1
		c-8.2,0-14.9-6.7-14.9-14.9V177.7c0-8.2,6.7-14.9,14.9-14.9h129.4c8.2,0,14.9,6.7,14.9,14.9v169.1
		C362.4,355,355.7,361.7,347.5,361.7z"/>
	<g>
		<path class="st33" d="M323.1,327.3c-9.7,0-17.5-7.9-17.5-17.5c0-9.7,7.9-17.5,17.5-17.5c9.7,0,17.5,7.9,17.5,17.5
			C340.7,319.5,332.8,327.3,323.1,327.3z M323.1,295.6c-7.8,0-14.1,6.3-14.1,14.1c0,7.8,6.3,14.1,14.1,14.1s14.1-6.3,14.1-14.1
			C337.3,302,330.9,295.6,323.1,295.6z"/>
	</g>
	<g>
		<polygon class="st33" points="322,316.7 314,308.7 316.4,306.3 322,311.9 329.8,304.1 332.2,306.5 		"/>
	</g>
	<g>
		<rect x="371.8" y="302.1" class="st27" width="5.1" height="23.5"/>
		<rect x="379.4" y="302.1" class="st27" width="2.5" height="23.5"/>
		<rect x="384.3" y="302.1" class="st27" width="4.6" height="23.5"/>
		<rect x="391.5" y="302.1" class="st27" width="2.8" height="23.5"/>
		<rect x="396.2" y="302.2" class="st27" width="1.3" height="23.5"/>
		<rect x="399.4" y="302.1" class="st27" width="4.4" height="23.5"/>
		<rect x="405.7" y="302.1" class="st27" width="3.4" height="23.5"/>
		<rect x="410.7" y="302.1" class="st27" width="1.7" height="23.5"/>
		<rect x="414.2" y="302.1" class="st27" width="4.8" height="23.5"/>
		<rect x="420.2" y="302.1" class="st27" width="3.6" height="23.5"/>
		<rect x="425.3" y="302.1" class="st27" width="1.8" height="23.5"/>
		<rect x="428.5" y="302.1" class="st27" width="2.5" height="23.5"/>
		<rect x="432.8" y="302.2" class="st27" width="7.8" height="23.5"/>
	</g>
	
		<linearGradient id="SVGID_00000169550593456848064060000005301355476526329512_" gradientUnits="userSpaceOnUse" x1="282.8288" y1="90.129" x2="282.8288" y2="41.6018">
		<stop  offset="0" style="stop-color:#7C3596"/>
		<stop  offset="1" style="stop-color:#3098FF"/>
	</linearGradient>
	<path style="fill:url(#SVGID_00000169550593456848064060000005301355476526329512_);" d="M122.5,41.6v43.1c0,0,8.6,12.2,18.9,0
		h18.9c0,0,8.6,12.2,18.9,0h18.9c0,0,8.6,12.2,18.9,0h18.9c0,0,8.6,12.2,18.9,0h18.9c0,0,8.6,12.2,18.9,0h18.9c0,0,8.6,12.2,18.9,0
		h18.9c0,0,8.6,12.2,18.9,0h18.9c0,0,8.6,12.2,18.9,0h18.9c0,0,8.6,12.2,18.9,0V41.6H122.5z"/>
	<g>
		<path class="st35" d="M141.3,84.7c0,0,8.6,12.2,18.9,0V41.6h-18.9V84.7z"/>
		<path class="st35" d="M179.1,84.7c0,0,8.6,12.2,18.9,0V41.6h-18.9V84.7z"/>
		<path class="st35" d="M216.8,84.7c0,0,8.6,12.2,18.9,0V41.6h-18.9V84.7z"/>
		<path class="st35" d="M254.5,84.7c0,0,8.6,12.2,18.9,0V41.6h-18.9V84.7z"/>
		<path class="st35" d="M292.3,84.7c0,0,8.6,12.2,18.9,0V41.6h-18.9V84.7z"/>
		<path class="st35" d="M330,84.7c0,0,8.6,12.2,18.9,0V41.6H330V84.7z"/>
		<path class="st35" d="M367.7,84.7c0,0,8.6,12.2,18.9,0V41.6h-18.9V84.7z"/>
		<path class="st35" d="M405.4,41.6v43.1c0,0,8.6,12.2,18.9,0V41.6H405.4z"/>
	</g>
	<path class="st33" d="M312.5,192.4l-2.7,11.7h-68.1v2.7l9.8,45.5v1.3h5.6l1.4,5.9h2c-1.9,0.7-3.3,2.5-3.3,4.7c0,2.7,2.2,5,5,5
		c2.7,0,5-2.2,5-5c0-2.1-1.4-4-3.3-4.7h28c-1.9,0.7-3.3,2.5-3.3,4.7c0,2.7,2.2,5,5,5c2.7,0,5-2.2,5-5c0-2.1-1.4-4-3.3-4.7h2.2v-2.1
		h-37.4l-0.9-3.8h42.3v-1.3l8-37.2l4.7-20.5h28.6v-2.1H312.5z M265.1,264.1c0,1.6-1.3,2.9-2.9,2.9c-1.6,0-2.9-1.3-2.9-2.9
		c0-1.6,1.3-2.9,2.9-2.9C263.8,261.2,265.1,262.5,265.1,264.1z M296.6,264.1c0,1.6-1.3,2.9-2.9,2.9c-1.6,0-2.9-1.3-2.9-2.9
		c0-1.6,1.3-2.9,2.9-2.9C295.3,261.2,296.6,262.5,296.6,264.1z M267.6,222.3h17.8l-0.9,13h-16L267.6,222.3z M266.2,235.3h-15.9
		l-2.8-13h17.8L266.2,235.3z M285.6,219.7h-18.2l-0.9-13h20.1L285.6,219.7z M288.9,206.7h20l-2.8,13H288L288.9,206.7z M284.3,238
		l-0.9,13h-13.7l-0.9-13H284.3z M286.7,238h15.5l-2.8,13h-13.7L286.7,238z M302.8,235.3h-15.9l0.9-13h17.8l-2.7,12.7L302.8,235.3z
		 M264.2,206.7l0.9,13h-18.2l-2.8-13H264.2z M250.9,238h15.5l0.9,13h-13.7L250.9,238z"/>
	<rect x="274.8" y="339" class="st33" width="16" height="2"/>
	<rect x="274.8" y="174.1" class="st33" width="16" height="2"/>
	<rect x="226.8" y="300.8" class="st33" width="39.4" height="5.3"/>
	<rect x="226.8" y="313.5" class="st33" width="58.4" height="5.3"/>
	<rect x="379.4" y="215.3" class="st28" width="61.2" height="20.1"/>
	<rect x="379.4" y="241" class="st28" width="61.2" height="12"/>
	<g>
		<g>
			<g>
				<g>
					<path class="st36" d="M407.1,305.9c0,0-0.8,1.3-0.9,2.4c-0.1,0.8-0.8,2.1-1.1,2.8c-0.3,0.7-1.3,3.9-1.3,4.7
						c0,0.3,0.7,2.5,0.6,3.1c-0.1,0.7-0.5,2,0.1,2.1c0.6,0.1,1.3-1,1.3-1s-0.1,0.6,0.5,0.9c1,0.5,1.5,0.1,1.5,0.1s0.4,0.7,0.8,0.8
						c1,0.2,1.5-0.2,1.5-0.2s0.5,0.4,1.2,0.4c0.9,0,1.3-0.8,1.3-0.8s1.1,0.2,1.5-0.3c0.3-0.5,0.3-1.1,0.4-1.6c0.1-0.5,0-4.9-1.5-8
						c-1.5-3.2,0.4-6.2,0.4-6.2L407.1,305.9z"/>
				</g>
			</g>
		</g>
		<g>
			<g>
				<path class="st37" d="M405.6,319.6c0,0-0.1-3.9,0.9-4.8c1-0.8,1.2,0.6,1.2,0.6s-0.1-1.4,1-1.6c1.1-0.2,1.2,1.5,1.2,1.5
					s0.2-1.1,1.4-0.9c1.2,0.2,0.9,1.6,0.9,1.6s1.1-1.4,1.9-0.1c1.2,2.2,0,4.8,0,4.8s-0.4,0.6-1.5,0.3c0,0-0.8,1.5-2.5,0.4
					c0,0-1.7,1-2.4-0.6C407.8,320.9,405.9,321.8,405.6,319.6z"/>
			</g>
		</g>
		<path class="st38" d="M393.7,249.1c0,0,6.7,22.5,9,30.7c0.7,2.6,2.4,27.4,2.7,28.4c0.3,1,8.9,2.4,8.9,2.4s-1-31-1.1-32.7
			c-0.1-1.7-9.4-36.4-12.1-37.6c-2-0.9-3.1-0.2-5.7,1.7C391.8,244.7,393.7,249.1,393.7,249.1z"/>
		<g>
			<g>
				<path class="st39" d="M399.2,402.5c0,0,0.6,4.3,0.7,4.9c0.1,0.6,6.8-0.4,6.8-0.4l0.5-5.1C407.3,402,400.1,401.9,399.2,402.5z"/>
			</g>
		</g>
		<g>
			<g>
				<path class="st40" d="M399.8,406.9c0,0-2.1,2.6-4.2,3.7c-2.1,1.1-5.3,1.6-6.5,2.7c-0.9,0.8-3.2,4.4,5.4,4.4
					c8.6-0.1,12.7,0.5,13.7-0.9c0.9-1.4-1.3-10.2-1.3-10.2S404.8,407.3,399.8,406.9z"/>
			</g>
		</g>
		<g>
			<g>
				<path class="st39" d="M350.8,402.5c0,0,0.6,4.3,0.7,4.9c0.1,0.6,6.8-0.4,6.8-0.4l0.5-5.1C358.9,402,351.6,401.9,350.8,402.5z"/>
			</g>
		</g>
		<g>
			<g>
				<path class="st40" d="M351.4,406.9c0,0-2.1,2.6-4.2,3.7c-2.1,1.1-9.7,2-10.9,3.2c-0.9,0.8-2.4,4.2,9.7,3.9
					c8.6-0.2,12.7,0.5,13.7-0.9c0.9-1.4-1.3-10.2-1.3-10.2S356.5,407.4,351.4,406.9z"/>
			</g>
		</g>
		<g>
			<g>
				<path class="st40" d="M393.6,292.9c0,0,6.3,10.1,5.9,19.2c-0.5,9.1,2.3,19.1,3.3,28.6c1.1,10.6,5.4,35.8,5.6,41.4
					c0.2,5.7-0.7,23.8-0.7,23.8l-8.7,0.2c0,0-7.3-43.9-9.2-48.4c-1.9-4.5-11.3-36.5-11.6-40C377.8,314.1,393.6,292.9,393.6,292.9z"
					/>
			</g>
		</g>
		<g>
			<g>
				<path class="st40" d="M360.2,294.3c0,0-4.8,25-5.4,30.6c-0.6,5.6-1.1,27-1.4,30.5c-0.3,3.5-3,45.5-3.8,50.8h11.1
					c0,0,8.5-30.6,8.5-45.1c0-14.5,6.6-31.5,10.9-41.1c4.3-9.6,14-9.8,16.6-27.5C396.8,292.4,363.7,288.7,360.2,294.3z"/>
			</g>
		</g>
		<g>
			<g>
				<path class="st36" d="M383,208.1c0,0-8.5-3.2-12.5,3.3c-3.9,6.5-3.6,19.5,0.7,21.1c4.3,1.6,10.7,0.8,12.9-3.3
					c2.2-4.1,4.2-9.9,4.1-13.8C388.3,211.4,385.3,209.3,383,208.1z"/>
			</g>
		</g>
		<g>
			<g>
				<path class="st36" d="M372.2,232.8c0,0,0.4,2.3-0.2,3.4c-0.6,1.1,11,1.2,11,1.2s0.9-6.2,2.7-11.4
					C387.6,220.8,372.2,232.8,372.2,232.8z"/>
			</g>
		</g>
		<g>
			<g>
				<path class="st38" d="M385.8,226c0,0-0.8,1.3-4.1,0.8c-3.3-0.5-7.3-4.9-8.6-5.4c-1.4-0.5-1.4-1.3-1.4-1.3l-0.9,1.2l-1.5,0.1
					c0,0,1.3-3.9-0.7-5.5c-2-1.6,2.1-12.6,12.6-8.9c0,0,8.1,2.2,7.8,6.8C388.8,218.5,387.6,223.7,385.8,226z"/>
			</g>
		</g>
		<g>
			<g>
				<path class="st41" d="M371.3,236.1c0,0,0-2.2,1-2.4c1-0.2,10.8-1.2,12-0.7v2.5C384.4,235.6,382.1,237,371.3,236.1z"/>
			</g>
		</g>
		<g>
			<g>
				<path class="st36" d="M371.9,218.5c0.2-0.8,2.1-3,2.9-0.6c0.8,2.4-1.1,5.5-2.2,5.3C371.6,222.9,371.4,220.5,371.9,218.5z"/>
			</g>
		</g>
		<g>
			<g>
				<path class="st38" d="M332.2,261.7C332.2,261.7,332.2,261.7,332.2,261.7C332.2,261.7,332.2,261.7,332.2,261.7z"/>
			</g>
		</g>
		<g>
			<g>
				<path class="st38" d="M385.5,208.9c0,0,10.9,0.9,0.3,17.1L385.5,208.9z"/>
			</g>
		</g>
		<path class="st42" d="M311.4,212.2c0.3-1.1,1.5-1.4,1.5-1.4c0.5-0.7,1.7-1.1,1.7-1.1c0-0.1,0-0.1,0.1-0.1c-0.8-0.8-3-2.4-3.1-2.7
			c-0.2-0.4-0.1-0.4,0.3-0.6c0.4-0.2,4,2.2,5.2,3c0.3,0.2,0.5,0.4,0.6,0.4c0.3,0.3,1,0.5,1.6,1.1c0.1,0.1,0.1,0.1,0.2,0.2
			c0.6,0.8,2,7,2,7L319,219l-2.5,2.1c0,0-2.9-2.4-3.6-3.1c-0.7-0.7-1.1-1.6-1.3-2c0-0.1-0.1-0.2-0.2-0.4c-0.3-0.5-0.8-1.1-0.8-1.1
			c-0.2-0.4-0.4-1.2-0.4-1.2C310.3,212.7,311.4,212.2,311.4,212.2z"/>
		<g>
			<g>
				<path class="st38" d="M355,239.4c6.8-0.9,16.3-3.3,16.3-3.3l13.1-0.5c0,0,12,2.6,16.7,4.8c0.4,0.2,0.4,10.7,1.7,13.4l-3.9,8.3
					c0,0-2.3,16.4-2.7,23.6c-0.2,3.3,4.7,31.3,4.7,31.3s-5.2,1.5-14.1,2.5c-8.9,1-31.2-0.4-31.3-1.4c-0.1-1.1,4.3-39.2,4.5-41.2
					c0.3-3-1-19.1-1-19.1c-2.1-1.6-20.1-10-25.1-14.4c-1.3-1.2-6.9-6.6-8.5-8.5c-5.6-6.6-10.2-12.3-10.8-13.5
					c-0.6-0.7,6.1-4.4,6.7-4.6c0.5-0.2,8.1,9.6,11,12.8c1.3,1.4,6.7,5.3,6.7,5.3S350.8,239.6,355,239.4z"/>
			</g>
		</g>
	</g>
	<g>
		<g>
			<path class="st36" d="M143.5,234.2c0,0,1.6-2.9,1.8-3.4c0.3-0.4,1.5-1.1,3.1-1.7c1.5-0.6,3.9-0.7,4.1-0.5
				c0.2,0.2,0.5,0.2,0.8,0.9c0.2,0.7,0,1.4,0,1.4s0.6,0.7,0.4,1.6c0,0,0.7,0.6,0.2,1.6c0,0,0.7,0.7,0.3,1.3c0,0-1.3,0.6-1.7,1
				c-0.4,0.4-3.2,1.5-6,2.2C146.5,238.6,143.7,238.3,143.5,234.2z"/>
		</g>
		<g>
			<path class="st43" d="M148.1,233c0,0-0.2,1.7-0.4,2.1c-0.3,0.4,3.2,1.9,3.2,1.9S150.1,233.2,148.1,233z"/>
		</g>
		<g>
			<g>
				<polygon class="st44" points="188,275.9 146.3,281.3 139.2,243.1 182.8,235.7 				"/>
			</g>
		</g>
		<g>
			<g>
				<path class="st45" d="M166.9,239.4c-0.1-4-1.6-8.8-4.7-11.4c-2.3-1.9-5.1-2.3-8-1.8c-6.8,1.1-7.2,8.2-5.8,13.1L166.9,239.4z
					 M149.1,238.5c-1.2-5.3-0.1-10.5,5.3-11.4c2.6-0.4,5.2-0.1,7.3,1.6c2.7,2.2,4,6.3,4.3,9.8L149.1,238.5z"/>
			</g>
		</g>
		<g>
			<g>
				<path class="st45" d="M168.6,239.4c-0.1-4-1.9-8.8-5-11.4c-2.3-1.9-5.1-2.3-8-1.8c-6.8,1.1-6,8.2-4.6,13.1L168.6,239.4z
					 M151.6,238.5c-1.2-5.3-1.4-10.5,4.1-11.4c2.6-0.4,5.2-0.1,7.3,1.6c2.7,2.2,4.6,6.3,4.9,9.8L151.6,238.5z"/>
			</g>
		</g>
		<g>
			<g>
				<polygon class="st46" points="181.6,282 132.9,278.2 136.8,238.8 182,237.5 				"/>
			</g>
		</g>
		<g>
			<path class="st36" d="M45.7,260.2c0,0,0.4-3.3,0.4-3.8c0-0.5-0.6-1.8-1.6-3.1c-0.9-1.4-2.8-2.8-3-2.8c-0.3,0-0.6-0.1-1.2,0.3
				c-0.6,0.4-0.8,1.1-0.8,1.1s-1,0.2-1.3,1.1c0,0-0.9,0.2-1,1.2c0,0-0.9,0.2-1,0.9c0,0,0.7,1.2,0.8,1.8c0.1,0.5,1.7,3,3.6,5.2
				C40.7,262,43.2,263.5,45.7,260.2z"/>
		</g>
		<g>
			<g>
				<path class="st45" d="M51.1,264.7c0.4-3.1,0-7-2-9.4c-1.4-1.6-3.2-2.2-5.2-2.3c-2.8-0.1-5.4,0.7-7.3,2.8
					c-2.6,2.8-3.3,7.6-2.9,11.4L51.1,264.7z M34.3,266.2c-0.2-3.3,0.5-7.3,2.8-9.8c1.7-1.9,4.1-2.6,6.7-2.5c1.8,0,3.4,0.6,4.6,2
					c1.7,2,2.2,5.4,1.9,8.1L34.3,266.2z"/>
			</g>
		</g>
		<g>
			<g>
				<polygon class="st47" points="14.9,309.7 18.1,268.6 25.2,309.1 20.3,308.2 				"/>
			</g>
		</g>
		<g>
			<g>
				<polygon class="st48" points="25.2,309.1 67.5,301.7 60.6,262.2 18,268.3 				"/>
			</g>
		</g>
		<g>
			<g>
				<path class="st45" d="M70.5,273.5c0.7,2,0,4.6-0.8,6.5l0.8,0.1c0.9-2,1.5-4.6,0.7-6.7L70.5,273.5z"/>
			</g>
		</g>
		<g>
			<g>
				<polygon class="st44" points="39.3,310.7 74,315.2 79.9,283.4 43.6,277.2 				"/>
			</g>
		</g>
		<g>
			<g>
				<polygon class="st49" points="32.3,309.7 43.6,277.2 39.3,310.5 35.6,309.1 				"/>
			</g>
		</g>
		<g>
			<g>
				<path class="st45" d="M71.3,272.6c1.2,2.4,0.6,5.8,0.4,6.7l0.7,0.3c0.2-1,1.1-5-0.8-7.9L71.3,272.6z"/>
			</g>
		</g>
		<g>
			<g>
				<polygon class="st50" points="35.6,314.5 43.3,279.5 44.7,315.6 40.5,313.9 				"/>
			</g>
		</g>
		<g>
			<path class="st36" d="M40.7,262c0,0,2.6,2.3,3.9,2.3c1.3,0,2-3.6,2-3.6l-1.2-2.3L40.7,262z"/>
		</g>
		<g>
			<path class="st36" d="M141.8,236.3c0,0,1.3-1.2,1.9-2.3c0.6-1.1,3.2,4.5,3.2,4.5s-3.2,0.1-4.6,1.1
				C140.7,240.7,141.8,236.3,141.8,236.3z"/>
		</g>
		<g>
			<path class="st37" d="M152.1,228.7c0,0-3.8,1.6-3.7,2.2c0.2,0.6,0.6,0.8,0.6,0.8l-1.3,1.4c0,0-0.3,1.4,1.3,1.3c0,0-0.4,1.3,1.1,1
				c0,0,0.1,1,0.8,1c0.7,0,3.2-1.1,3.2-1.1s0.4-0.5-0.2-1.3c0,0,0.5-0.9-0.2-1.6c0,0,0.3-0.8-0.4-1.6c0,0,0.5-1.7-0.9-2.3
				C152.5,228.6,152.3,228.7,152.1,228.7z"/>
		</g>
		<g>
			<path class="st36" d="M145.5,230.7c0,0,2.8,0.2,4.3,1c0.3,0.2,0.6,0.4,0.6,0.8c0,0.4-0.6,0.8-1.9,0.8c-1.2,0-2.8,0.5-2.8,0.5
				S144.4,233.4,145.5,230.7z"/>
		</g>
		<g>
			<path class="st43" d="M42.6,256.5c0,0-0.8,1.5-0.9,2c0,0.5-3.7-0.3-3.7-0.3S40.8,255.6,42.6,256.5z"/>
		</g>
		<g>
			<path class="st37" d="M41.8,250.8c0,0,2.2,3.5,1.7,3.9c-0.5,0.4-1,0.3-1,0.3l0.3,1.9c0,0-0.5,1.3-1.8,0.4c0,0-0.4,1.3-1.5,0.2
				c0,0-0.6,0.7-1.2,0.3s-2-2.7-2-2.7s-0.1-0.6,0.9-1c0,0,0.1-1,1.1-1.2c0,0,0.2-0.8,1.2-1c0,0,0.6-1.7,2-1.4
				C41.6,250.4,41.7,250.6,41.8,250.8z"/>
		</g>
		<g>
			<path class="st36" d="M46.1,256.2c0,0-2.5-1.4-4.1-1.6c-0.4,0-0.8,0-0.9,0.3c-0.2,0.3,0.1,1,1.1,1.7c1,0.7,2.1,2,2.1,2
				S45.4,259,46.1,256.2z"/>
		</g>
		<g>
			<g>
				<path class="st47" d="M91.6,409.5c-2,0.6-2.6,4-4.3,5c-1.7,1-9.9,1.7-10.2-0.9c-0.3-2.6,3.5-4.9,5.1-6.2
					c1.7-1.3,5.5-5.5,6.3-7.2c0,0,0.7,1.1,2.7,0.7c2-0.3,2.4-0.9,2.4-0.9c-0.1,2,0.6,3.4,0.8,4.2C95.1,406.9,93.6,408.9,91.6,409.5z
					"/>
			</g>
		</g>
		<g>
			<g>
				<path class="st47" d="M105.1,410c-1.5,1.4-1.8,3.6-3.5,4.6c-0.5,0.3-1.5,0.6-2.6,0.8c-2.1,0.4-4.7,0.4-6-0.3
					c-0.4-0.3-0.7-0.6-0.8-1.1c-0.3-2.6,3.5-5.5,5.2-6.8c1-0.8,2.1-2.6,3-4.3c0.5-1.1,1-2.1,1.3-2.7c0,0,0,0,0,0
					c0,0,0.1,0.2,0.3,0.4c0.3,0.2,1,0.5,2.2,0.3c1.6-0.3,2.2-0.7,2.4-0.9c0,0,0,0,0,0c0,0,0,0,0,0c0,0,0,0,0,0c0,0,0,0,0,0l0,0
					c0,0,0,0,0,0c0.3,1.6,0.9,3.3,1.1,4C108.5,406.7,106.5,408.6,105.1,410z"/>
			</g>
		</g>
		<g>
			<g>
				<path class="st51" d="M90.5,206.2c0,0,6.4-0.7,8.8,5.6c2.3,6.2,4.5,8.3,4.8,11.5c1.1,13.2,7.3,10.2,5.5,17.9
					c-1.7,7.6-2.9,8.8-2.9,8.8l-14.8-2.9l-15,0c0,0,5.9-2.9,4.5-9.1c-1.3-6.2-4.5-16.4-2.7-23.4C80.6,207.6,86.7,206.8,90.5,206.2z"
					/>
			</g>
		</g>
		<g>
			<g>
				<polygon class="st52" points="44.7,315.6 82.1,314.2 82.8,279.3 43.4,279.3 				"/>
			</g>
		</g>
		<g>
			<g>
				<polygon class="st49" points="197.8,273.1 182.8,235.7 188,275.9 192.4,273.3 				"/>
			</g>
		</g>
		<g>
			<g>
				<polygon class="st53" points="192.4,280.7 182,237.5 181.6,282 186.6,280 				"/>
			</g>
		</g>
		<g>
			<g>
				<path class="st36" d="M79.9,295c0,0-5.4,18.9-6.4,23.8c-0.9,4.8-3.6,28.2-3.9,32.2c-0.3,4,8.9,22.6,9.4,24
					c1.9,5.2,9.8,24.1,9.8,24.1s5.1,3,4.5-1.4c-1.7-13.5-2.5-16.8-3.8-23.8c-2.7-15.3-8.2-17.3-7.3-19.6
					c8.5-22.6,10.2-37.9,11.4-39.3c1.1-1.3,1.3,0.7,2,3.6c0.7,2.9-0.3,23.2,0.9,31c0.7,4.2,2.1,13.8,2.6,19.3s3,30.9,3,30.9
					s0.3,0.9,4.1-1.2c0.6-0.3,3.6-22.5,3.7-29c0.1-6.5-2.8-7.5-0.5-20.1c5-27.1,4.3-31.8-1.5-51.3C93.7,250.4,79.9,295,79.9,295z"/>
			</g>
		</g>
		<g>
			<g>
				<path class="st54" d="M146.1,239.6c-0.2-0.2-14,10.3-15.5,11.2c-3,1.7-6.2,1.6-9.5,1.8c-3.7,0.2-8-0.2-11.7,0.6
					c-1.9,0.4-2.1,0.9-3.1,2.9c-2.7,5.5-3.6,12.4-3.9,18.5c-0.4,6.3,2.1,10.7,4.6,16.3c0.9,1.9,2.1,3.9,0.4,5.6
					c-1.5,1.6-4.5,1.9-6.5,2.1c-4.9,0.6-12.4,1-17.1-0.9c-5.8-2.4-4.7-9.6-5.3-14.7c-0.4-3.4-2-8.5-3-11.7c-0.9-3.2-1-4.6-0.8-8
					c-1.8,5.1-3.3,13.8-8.1,17c-3.7,2.5-7.1-0.9-9.8-3.2c-5.1-4.4-10.2-8.9-15.3-13.3c1.1-1,2.2-2,3.3-3c0.4-0.3,0.4-0.4,0.8-0.7
					c1-0.8,0.8-1,1.8-0.4c0.7,0.4,2.4,2.1,3,2.6c1.8,1.7,3.5,2.8,5.3,4.5c1.6,1.5,4.4,5,6.8,3.7c1.9-0.9,2.4-4.8,3.1-6.5
					c1.8-4.8,3.6-9.6,5.8-14.2c2.3-5,7.4-7.6,12.4-9.6c4.3-1.7,10-1.4,14.4-0.3c3.1,0.8,4.1,0.8,7.2,1.7c2.9,0.8,5.6,1.8,8.6,2.4
					c3.4,0.7,6.9,1,10.4,1c2.8,0,3.9-0.4,6.2-2c3.1-2.2,7.7-5.9,11.1-7.6C143.7,234.3,144.5,237.8,146.1,239.6z"/>
			</g>
		</g>
		<g>
			<g>
				<path class="st36" d="M95,232.1c0,0-0.5,6.4,0.7,8.4c1.2,1.9-1.1,4.5-5.8,3.6c-4.7-0.9-4.5-3.6-4.5-3.6s1.3-4,0.9-7.2
					C86,230.2,95,232.1,95,232.1z"/>
			</g>
		</g>
		<g>
			<g>
				<path class="st36" d="M98.1,239.9c0,0-4.3,10-9.8,12.1c0,0-5.5-4.8-4-12C84.3,240,91.3,236.3,98.1,239.9z"/>
			</g>
		</g>
		<g>
			<g>
				<path class="st36" d="M91.4,209.9c0,0,8.5,1.2,7.3,13.8c-1.2,12.6-8.8,11.6-9.3,11.6c-0.5,0-7.6,0.3-8.2-15.1
					C81.2,220.2,80.9,208.8,91.4,209.9z"/>
			</g>
		</g>
		<g>
			<g>
				<path class="st51" d="M90.4,214.4c0,0,4,4.2,5.8,6.3c1.9,2.1,2.1,6.2,2.1,6.2s3.1-3.8,1.8-8.3c-1.3-4.4-4.4-13.1-12.2-10.4
					c-7.8,2.7-8.1,14.3-7.2,20.1C80.7,228.4,84.2,215.6,90.4,214.4z"/>
			</g>
		</g>
		<g>
			<path class="st55" d="M87.1,234.8c0,0,3.7,1.8,7.4-1.1c0,0-1.4,2.4-3.9,2.5C88.1,236.3,87.1,234.8,87.1,234.8z"/>
		</g>
		<g>
			<path class="st45" d="M63.7,269.3c-0.4,0.8-1.2,1.2-1.2,1.2c-3.9,2.1-4.6,7.1-4.7,8.8l-0.8,0C57.6,270.1,63.7,269.3,63.7,269.3z"
				/>
		</g>
		<g>
			<path class="st45" d="M63.4,269.3c0,0-6.3,0.3-8.1,9.9l0.6,0.1c0,0,1.2-7,6.3-8.9C62.3,270.4,63,270.1,63.4,269.3z"/>
		</g>
		<g>
			<path class="st54" d="M108,293.4c0,0,8.6,17.9,2.8,54.1c0,0-17.6-1.6-44-3.5c0,0,12-48.7,12.3-51.8C79.6,289,108,293.4,108,293.4
				z"/>
		</g>
		<g>
			<g>
				<path class="st36" d="M88.7,398.7c0,0,2.5,1.6,4.7-0.5l0.2,1.9c0,0-3.9,3.5-4.9-0.3V398.7z"/>
			</g>
		</g>
		<g>
			<g>
				<path class="st36" d="M102.8,398.4c0,0,1.5,1.3,3.7-0.7l0.3,2.2c0,0-3.8,3.9-4.8,0.1L102.8,398.4z"/>
			</g>
		</g>
		<g>
			<g>
				<path class="st47" d="M88.7,399.8c0,0-2,2.4-1.8,2.8c0.2,0.4,4.6,1.3,5.3,0.3c0.7-0.9,1.5-2.9,1.5-2.9S89.7,401.8,88.7,399.8z"
					/>
			</g>
		</g>
		<g>
			<g>
				<path class="st47" d="M102,399.7c0,0-1.9,2.7-1.7,3.1c0.2,0.4,4.1,1,4.8,0.1c0.7-0.9,1.6-2.9,1.6-2.9S103.1,401.7,102,399.7z"/>
			</g>
		</g>
		<g>
			<path class="st56" d="M79,289.5c0,0,10.4,3.8,25.3-4.6c0,0,0.6,1.2,1.3,2.9c0,0-13.6,8.4-26.3,4.3
				C79.2,292.1,78.8,290.2,79,289.5z"/>
		</g>
		<g>
			<path class="st49" d="M76,254.5c-1.2,3.1-1.3,8.7-1.3,8.7s-0.4,1.5-1,3.2C73.5,258.1,76,254.5,76,254.5z"/>
		</g>
		<g>
			<g>
				<path class="st57" d="M89.7,240.7c-0.5,0-1-0.1-1.5-0.1c-1.7-0.3-2.4-1.1-2.5-1.2l0.2-0.8c0,0,1,0.9,2.5,1.1
					c2,0.4,4.3-0.2,6.6-1.6l0.3,0.8C93.1,240.3,91.2,240.7,89.7,240.7z"/>
			</g>
		</g>
	</g>
	<g>
		<path class="st58" d="M116.2,106.1l-20,3.7c-1.1,0.2-2.2,0.8-2.9,1.7L48,163.9c-1.8,2.1-1.6,5.4,0.5,7.2l19.1,16.5
			c2.1,1.8,5.4,1.6,7.2-0.5l45.3-52.4c0.8-0.9,1.2-2,1.2-3.1l0.8-20.3C122.4,108.1,119.4,105.5,116.2,106.1z M119,113.1
			c-1,1.1-2.7,1.3-3.9,0.3c-1.1-1-1.3-2.7-0.3-3.9c1-1.1,2.7-1.3,3.9-0.3C119.9,110.2,120,111.9,119,113.1z"/>
		<g>
			<path class="st59" d="M77.2,167.9c-0.7,0.8-1.4,1.4-2.3,1.9c-0.9,0.5-1.8,0.8-2.7,0.9l-0.7-2.9c0.1,0,0.4,0,0.7,0
				c0.3-0.1,0.7-0.2,1.1-0.3c0.4-0.2,0.8-0.4,1.2-0.6c0.4-0.3,0.8-0.6,1.2-1c0.5-0.6,0.8-1.2,0.8-1.7c0-0.5-0.2-0.9-0.6-1.3
				c-0.2-0.2-0.4-0.3-0.7-0.3c-0.2,0-0.5,0-0.8,0.2c-0.3,0.1-0.6,0.3-1,0.5c-0.3,0.2-0.7,0.4-1.1,0.7c-0.9,0.6-1.7,0.9-2.4,1
				c-0.7,0.1-1.4-0.1-2-0.7c-0.6-0.6-1.1-1.2-1.4-1.9c-0.3-0.7-0.4-1.4-0.4-2.1c0-0.7,0.2-1.5,0.5-2.2c0.3-0.7,0.7-1.4,1.3-2
				c0.6-0.7,1.3-1.3,2.1-1.6c0.7-0.4,1.4-0.6,2.1-0.7l0.6,2.8c-0.1,0-0.3,0-0.5,0c-0.3,0-0.5,0.1-0.9,0.3c-0.3,0.1-0.6,0.3-1,0.5
				c-0.3,0.2-0.6,0.5-0.9,0.8c-0.5,0.6-0.8,1.2-0.8,1.7c0,0.5,0.2,1,0.7,1.4c0.2,0.2,0.4,0.2,0.6,0.3c0.2,0,0.4,0,0.7-0.1
				c0.2-0.1,0.5-0.2,0.8-0.4c0.3-0.2,0.6-0.4,1-0.6c0.5-0.3,0.9-0.6,1.4-0.8c0.4-0.2,0.9-0.3,1.3-0.4c0.4-0.1,0.8,0,1.2,0.1
				c0.4,0.1,0.8,0.3,1.2,0.7c0.7,0.6,1.2,1.2,1.4,1.9c0.3,0.7,0.4,1.4,0.3,2.1c-0.1,0.7-0.3,1.4-0.6,2.1
				C78.2,166.6,77.8,167.3,77.2,167.9z"/>
			<path class="st59" d="M84.7,159.4c-0.4,0.5-0.8,0.8-1.3,1c-0.5,0.2-1,0.3-1.5,0.3c-0.5,0-1-0.1-1.6-0.4c-0.5-0.2-1-0.5-1.5-0.9
				c-0.7-0.6-1.2-1.3-1.6-2c-0.4-0.8-0.7-1.6-0.8-2.4c-0.1-0.8-0.1-1.6,0.1-2.4c0.2-0.8,0.5-1.5,1-2.1c0.5-0.6,1-0.9,1.7-1.1
				c0.6-0.1,1.2-0.1,1.8,0.2l-1.1-1.5l1.8-2.1l4.7,6.1c0.1,0.1,0.2,0.2,0.2,0.3c0.2,0.2,0.4,0.2,0.7-0.1l1.4,1.9
				c-0.1,0.2-0.2,0.4-0.3,0.6c-0.1,0.2-0.2,0.3-0.3,0.4c-0.3,0.4-0.6,0.6-1,0.7c-0.3,0.1-0.7,0-1-0.3c-0.1-0.1-0.3-0.3-0.5-0.6
				c0.2,0.8,0.2,1.6,0,2.4C85.5,158.2,85.1,158.8,84.7,159.4z M83.7,156.9c0.2-0.2,0.3-0.4,0.4-0.7c0.1-0.3,0.2-0.5,0.2-0.8
				c0-0.3,0-0.6,0-0.9c0-0.3-0.1-0.6-0.2-0.9l-1.6-2.1c-0.5-0.3-1-0.5-1.6-0.4c-0.6,0-1,0.3-1.3,0.7c-0.3,0.3-0.5,0.7-0.6,1.2
				c-0.1,0.5-0.1,0.9,0,1.4c0.1,0.5,0.2,0.9,0.5,1.4c0.2,0.4,0.5,0.8,0.9,1.2c0.5,0.5,1.1,0.7,1.7,0.7
				C82.7,157.7,83.3,157.4,83.7,156.9z"/>
			<path class="st59" d="M91.9,150.9c-0.5,0.5-0.9,0.8-1.4,0.9c-0.5,0.1-1-0.1-1.4-0.5c-0.1-0.1-0.2-0.2-0.3-0.3
				c-0.1-0.1-0.2-0.2-0.3-0.3l-7.7-10.2l1.8-2.1l7.1,9.4c0,0.1,0.1,0.1,0.1,0.2c0,0,0.1,0.1,0.1,0.1c0.4,0.4,0.8,0.3,1.2-0.1
				c0.1-0.1,0.2-0.3,0.3-0.4c0.1-0.2,0.2-0.4,0.2-0.6l1.5,1.4c-0.1,0.4-0.3,0.8-0.6,1.3C92.4,150.2,92.2,150.6,91.9,150.9z"/>
			<path class="st59" d="M97.5,144.5c-0.4,0.5-0.9,0.9-1.5,1.2c-0.5,0.3-1.1,0.4-1.6,0.4c-0.6,0-1.1-0.1-1.7-0.3
				c-0.5-0.2-1.1-0.5-1.6-1c-0.7-0.6-1.2-1.3-1.6-2.1c-0.4-0.8-0.6-1.6-0.7-2.5c-0.1-0.9,0-1.7,0.3-2.6c0.3-0.9,0.7-1.7,1.3-2.4
				c0.8-0.9,1.6-1.4,2.4-1.6c0.8-0.2,1.6,0,2.4,0.7c1.7,1.5,1.3,3.8-1.4,7c-0.2,0.2-0.3,0.4-0.5,0.6c-0.2,0.2-0.4,0.4-0.6,0.6
				l0.2,0.2c0.5,0.5,1.1,0.7,1.7,0.8c0.6,0,1.1-0.2,1.5-0.7c0.4-0.4,0.6-0.9,0.7-1.4c0.1-0.5,0.1-1.1-0.1-1.6l1.9-1.2
				c0.1,0.5,0.2,1,0.2,1.5c0,0.5-0.1,1.1-0.2,1.6c-0.1,0.5-0.3,1-0.5,1.5C98.1,143.7,97.8,144.1,97.5,144.5z M91.9,137
				c-0.3,0.3-0.4,0.6-0.6,1c-0.1,0.4-0.2,0.7-0.2,1.1c0,0.4,0.1,0.7,0.2,1.1c0.1,0.4,0.3,0.7,0.5,1.1c0.2-0.2,0.3-0.3,0.4-0.5
				c0.1-0.2,0.3-0.3,0.4-0.5c0.4-0.5,0.8-0.9,1-1.3c0.2-0.4,0.4-0.7,0.5-1c0.1-0.3,0.1-0.6,0-0.8c-0.1-0.2-0.2-0.4-0.4-0.6
				c-0.3-0.3-0.6-0.3-1-0.2C92.5,136.4,92.2,136.7,91.9,137z"/>
		</g>
	</g>
	<g>
		<g>
			<path class="st60" d="M118.8,109.5l-0.2-0.6c0,0,1.5-0.4,3.6-1.6l0.3,0.6C120.5,109.1,118.9,109.5,118.8,109.5z"/>
		</g>
		<g>
			<path class="st60" d="M363.1,162.6l-0.6-0.2c0.9-2.7,1.7-5.1,2.4-7.6l0.6,0.2C364.8,157.4,364,159.9,363.1,162.6z M367.7,147.3
				l-0.6-0.2c0.7-2.7,1.3-5.3,1.7-7.7l0.7,0.1C369,142.1,368.4,144.7,367.7,147.3z M370.7,131.7l-0.7-0.1c0.3-2.7,0.5-5.4,0.6-7.9
				l0.7,0C371.2,126.3,371,128.9,370.7,131.7z M370.2,115.8c-0.3-2.7-0.8-5.3-1.5-7.7l0.6-0.2c0.7,2.5,1.2,5.1,1.5,7.9L370.2,115.8z
				 M128.7,102.7l-0.5-0.4c1.6-2,2.8-4.4,3.5-6.9l0.6,0.2C131.5,98.2,130.3,100.6,128.7,102.7z M365.9,100.7
				c-1.2-2.3-2.7-4.5-4.3-6.5l0.5-0.4c1.7,2,3.2,4.3,4.4,6.7L365.9,100.7z M355.9,88.7c-2-1.6-4.2-3-6.6-4.2l0.3-0.6
				c2.4,1.3,4.7,2.7,6.7,4.3L355.9,88.7z M133.3,87.6l-0.7,0c0.1-2.4,0.3-5.2,0.7-8l0.7,0.1C133.5,82.5,133.3,85.2,133.3,87.6z
				 M342,81.4c-2.4-0.8-4.9-1.6-7.6-2.2l0.2-0.6c2.7,0.6,5.3,1.4,7.7,2.2L342,81.4z M326.7,77.7c-2.5-0.4-5.2-0.7-7.9-0.9l0.1-0.7
				c2.7,0.2,5.4,0.5,7.9,0.9L326.7,77.7z M310.8,76.2c-2.7-0.3-5.4-0.6-7.9-1l0.1-0.7c2.5,0.4,5.1,0.7,7.9,1L310.8,76.2z
				 M295.1,73.7c-2.7-0.6-5.3-1.3-7.7-2.1l0.2-0.6c2.4,0.8,4.9,1.5,7.6,2.1L295.1,73.7z M135.4,71.8l-0.6-0.1
				c0.6-2.6,1.3-5.2,2.1-7.7l0.6,0.2C136.7,66.7,136,69.3,135.4,71.8z M280.1,68.6c-2.4-1.1-4.7-2.4-7-3.9l0.4-0.6
				c2.2,1.4,4.5,2.7,6.9,3.8L280.1,68.6z M266.7,60.1c-2.2-1.8-4.3-3.6-6-5.2l0.4-0.5c1.7,1.6,3.8,3.4,6,5.2L266.7,60.1z
				 M140.3,56.8l-0.6-0.3c1.1-2.5,2.3-4.9,3.6-7.1l0.6,0.3C142.6,52,141.4,54.3,140.3,56.8z M254.8,49.5c-2.2-2-4.2-3.6-6.1-5.1
				l0.4-0.5c1.9,1.5,3.9,3.1,6.1,5.1L254.8,49.5z M148.4,43.2l-0.5-0.4c1.7-2.1,3.5-4.1,5.4-5.9l0.5,0.5
				C151.8,39.1,150,41.1,148.4,43.2z M242.3,39.8c-2.2-1.4-4.5-2.7-6.9-3.9l0.3-0.6c2.4,1.2,4.7,2.5,6.9,4L242.3,39.8z M228.2,32.6
				c-2.4-1-4.9-1.9-7.4-2.7l0.2-0.6c2.6,0.8,5.1,1.8,7.5,2.7L228.2,32.6z M159.8,32.4l-0.4-0.6c2.2-1.5,4.6-2.8,7-3.9l0.3,0.6
				C164.3,29.7,162,31,159.8,32.4z M213.2,27.7c-2-0.5-4.2-1-6.3-1.5c-0.5-0.1-0.9-0.2-1.4-0.3l0.1-0.7c0.5,0.1,0.9,0.2,1.4,0.3
				c2.2,0.5,4.3,1,6.4,1.5L213.2,27.7z M174.1,26l-0.2-0.6c2.5-0.7,5.1-1.2,7.8-1.5l0.1,0.7C179.2,24.9,176.6,25.3,174.1,26z
				 M197.7,24.7c-2.7-0.3-5.4-0.5-7.9-0.5l0-0.7c2.6,0,5.3,0.2,8,0.5L197.7,24.7z"/>
		</g>
		<g>
			<path class="st60" d="M358.9,174.3l-0.6-0.2c0.4-1.2,0.9-2.5,1.4-3.7l0.6,0.2C359.8,171.8,359.4,173,358.9,174.3z"/>
		</g>
	</g>
	<g>
		<path class="st59" d="M521.8,175.4l21-12.1l20.1-13.2l2.2,4l-20.4,11.9L524,179.4L521.8,175.4z M534.4,157.9
			c-1.2-0.4-2.3-1-3.2-1.8c-0.9-0.8-1.6-1.7-2.1-2.7c-0.5-1-0.8-2.1-0.9-3.2c-0.1-1.1,0-2.3,0.4-3.4c0.4-1.1,1-2,1.8-2.9
			c0.8-0.8,1.7-1.4,2.7-1.9c1-0.4,2.1-0.7,3.3-0.7c1.2,0,2.4,0.1,3.6,0.6c1.2,0.4,2.3,1,3.2,1.8c0.9,0.8,1.6,1.7,2.2,2.7
			c0.5,1,0.8,2,0.9,3.2c0.1,1.1,0,2.3-0.4,3.3c-0.4,1.1-1,2.1-1.8,2.9c-0.8,0.8-1.7,1.4-2.7,1.9c-1,0.4-2.1,0.7-3.4,0.7
			C536.8,158.6,535.6,158.4,534.4,157.9z M535.7,154.4c0.5,0.2,1.1,0.2,1.6,0.1c0.5-0.1,1-0.3,1.5-0.6c0.5-0.3,0.9-0.7,1.3-1.1
			c0.4-0.5,0.7-1,0.9-1.6c0.4-1.2,0.4-2.4,0-3.5c-0.4-1.1-1.2-1.9-2.2-2.2c-0.5-0.2-1.1-0.2-1.6-0.1c-0.5,0.1-1,0.3-1.5,0.6
			c-0.5,0.3-0.9,0.6-1.3,1.1c-0.4,0.5-0.7,1-0.9,1.6c-0.4,1.2-0.4,2.4,0,3.6C533.9,153.3,534.6,154.1,535.7,154.4z M546.8,187.6
			c-1.2-0.4-2.3-1-3.2-1.8c-0.9-0.8-1.6-1.7-2.1-2.7c-0.5-1-0.8-2-1-3.2c-0.1-1.1,0-2.3,0.4-3.4c0.4-1.1,1-2.1,1.8-2.9
			c0.8-0.8,1.7-1.4,2.7-1.9c1-0.4,2.1-0.7,3.3-0.7c1.2,0,2.4,0.1,3.6,0.6c1.2,0.4,2.3,1,3.2,1.8c0.9,0.8,1.6,1.7,2.2,2.7
			c0.5,1,0.9,2.1,0.9,3.2c0.1,1.1-0.1,2.2-0.5,3.4c-0.4,1.1-1,2.1-1.8,2.9c-0.8,0.8-1.7,1.4-2.7,1.8c-1,0.4-2.2,0.7-3.4,0.7
			C549.2,188.2,548,188.1,546.8,187.6z M548,184.1c0.5,0.2,1.1,0.2,1.6,0.1c0.5-0.1,1-0.3,1.5-0.6c0.5-0.3,0.9-0.6,1.3-1.1
			c0.4-0.5,0.7-1,0.9-1.6c0.2-0.6,0.3-1.3,0.3-1.9c0-0.6-0.1-1.2-0.3-1.7c-0.2-0.5-0.5-1-0.9-1.4c-0.4-0.4-0.8-0.7-1.3-0.8
			c-0.5-0.2-1.1-0.2-1.6-0.1c-0.5,0.1-1,0.3-1.5,0.6c-0.5,0.3-0.9,0.7-1.3,1.1c-0.4,0.5-0.7,1-0.9,1.6c-0.4,1.2-0.4,2.4,0,3.5
			C546.3,183,547,183.7,548,184.1z"/>
	</g>
	<g>
		<path class="st59" d="M69.2,24.6c-0.7,0.5-1.5,0.8-2.3,1c-0.8,0.2-1.5,0.2-2.3,0.1c-0.7-0.1-1.4-0.4-2.1-0.8
			c-0.6-0.4-1.2-0.9-1.6-1.6c-0.4-0.6-0.7-1.3-0.8-2.1c-0.1-0.8-0.1-1.5,0.1-2.2c0.2-0.7,0.5-1.4,1-2.1c0.5-0.7,1-1.2,1.8-1.7
			c0.7-0.5,1.5-0.8,2.2-0.9c0.8-0.2,1.6-0.2,2.3-0.1c0.7,0.1,1.4,0.4,2.1,0.8c0.7,0.4,1.2,0.9,1.6,1.6c0.4,0.7,0.7,1.4,0.8,2.1
			c0.1,0.7,0.1,1.5-0.1,2.2c-0.2,0.7-0.5,1.4-1,2.1C70.4,23.5,69.9,24.1,69.2,24.6z M67.8,22.5c0.3-0.2,0.5-0.5,0.7-0.8
			c0.2-0.3,0.3-0.7,0.3-1c0-0.4,0-0.8-0.1-1.2c-0.1-0.4-0.3-0.8-0.5-1.1c-0.5-0.7-1.1-1.2-1.9-1.4c-0.8-0.2-1.5-0.1-2.1,0.3
			c-0.3,0.2-0.5,0.5-0.7,0.8c-0.2,0.3-0.3,0.7-0.3,1c0,0.4,0,0.8,0.1,1.1c0.1,0.4,0.3,0.8,0.5,1.1c0.5,0.7,1.1,1.2,1.9,1.4
			C66.5,23,67.2,22.9,67.8,22.5z M73.4,38.3l2-16l1.1-15.9l3,0.4l-1.8,15.6l-1.2,16.3L73.4,38.3z M89.9,29.9c-0.7,0.5-1.5,0.8-2.3,1
			c-0.8,0.2-1.5,0.2-2.3,0.1c-0.7-0.1-1.4-0.4-2.1-0.8c-0.6-0.4-1.2-0.9-1.6-1.6c-0.4-0.7-0.7-1.4-0.8-2.1c-0.1-0.7-0.1-1.5,0.1-2.2
			c0.2-0.7,0.5-1.4,0.9-2.1c0.5-0.7,1-1.2,1.8-1.7c0.7-0.5,1.5-0.8,2.3-1c0.8-0.2,1.5-0.2,2.3-0.1c0.7,0.1,1.4,0.4,2.1,0.8
			c0.6,0.4,1.2,0.9,1.6,1.6c0.4,0.7,0.7,1.4,0.8,2.1c0.1,0.7,0.1,1.5-0.1,2.2c-0.2,0.7-0.5,1.4-1,2.1C91.2,28.9,90.6,29.4,89.9,29.9
			z M88.5,27.8c0.3-0.2,0.5-0.5,0.7-0.8c0.2-0.3,0.3-0.7,0.3-1c0-0.4,0-0.8-0.1-1.1c-0.1-0.4-0.3-0.8-0.5-1.1
			c-0.2-0.4-0.5-0.7-0.9-0.9c-0.3-0.2-0.7-0.4-1-0.5c-0.4-0.1-0.7-0.1-1.1-0.1c-0.4,0-0.7,0.2-1,0.4c-0.3,0.2-0.5,0.5-0.7,0.8
			c-0.2,0.3-0.3,0.7-0.3,1c0,0.4,0,0.8,0.1,1.2c0.1,0.4,0.3,0.8,0.5,1.1c0.5,0.7,1.1,1.2,1.9,1.4C87.2,28.3,87.9,28.2,88.5,27.8z"/>
	</g>
</g>
</svg>
