<svg id="_x31_32-android" xmlns="http://www.w3.org/2000/svg" width="100" height="100" viewBox="0 0 224.592 257.372">
  <g id="Group_66" data-name="Group 66" transform="translate(0 0)">
    <g id="Group_65" data-name="Group 65">
      <g id="Group_64" data-name="Group 64">
        <path id="Path_107" data-name="Path 107" d="M63.266,196.193a16.069,16.069,0,0,0-16.043,16.086v64.34a16.043,16.043,0,1,0,32.085,0V212.28a16.071,16.071,0,0,0-16.043-16.087Zm0,0" transform="translate(-47.223 -99.675)" fill="#9cdb53"/>
        <path id="Path_108" data-name="Path 108" d="M421.167,196.193a16.068,16.068,0,0,0-16.04,16.086v64.34a16.042,16.042,0,1,0,32.084,0V212.28a16.069,16.069,0,0,0-16.044-16.087Zm0,0" transform="translate(-212.62 -99.675)" fill="#9cdb53"/>
        <g id="Group_63" data-name="Group 63" transform="translate(48.126)">
          <path id="Path_109" data-name="Path 109" d="M136.7,294.44a16.068,16.068,0,0,0,16.044,16.085v31.239a16.041,16.041,0,1,0,32.082,0V310.525h32.083v31.239a16.043,16.043,0,1,0,32.086,0V310.525a16.07,16.07,0,0,0,16.043-16.085V197.928H136.7Zm0,0" transform="translate(-136.698 -100.477)" fill="#9cdb53"/>
          <path id="Path_110" data-name="Path 110" d="M240.908,47.268l14.278-17.356a8.031,8.031,0,1,0-12.369-10.247L227.21,38.63a62.6,62.6,0,0,0-53,.193l-15.2-19.043a8.031,8.031,0,1,0-12.525,10.054l14.084,17.659A63.96,63.96,0,0,0,136.7,97.18H265.037a64,64,0,0,0-24.13-49.911ZM184.824,73.053a8.043,8.043,0,1,1,8.024-8.043,8.034,8.034,0,0,1-8.024,8.043Zm32.083,0a8.043,8.043,0,1,1,8.023-8.043,8.034,8.034,0,0,1-8.023,8.043Zm0,0" transform="translate(-136.698 -16.75)" fill="#9cdb53"/>
        </g>
      </g>
    </g>
  </g>
</svg>
