<svg id="firebase" xmlns="http://www.w3.org/2000/svg" width="100" height="100" viewBox="0 0 140.982 195.248">
  <path id="Path_122" data-name="Path 122" d="M264.664,168.982l-19.543,18.185-18.135-36.578,9.384-21.035c2.375-4.217,6.251-4.225,8.626,0Z" transform="translate(-172.087 -98.461)" fill="#ffa000"/>
  <path id="Path_123" data-name="Path 123" d="M197.955,207.959,124.924,275.9l54.9-104.517Z" transform="translate(-124.922 -119.253)" fill="#f57f17"/>
  <path id="Path_124" data-name="Path 124" d="M238.872,152.247c3.491-3.356,7.1-2.211,8.021,2.544L265.9,265.256l-63.016,37.767c-2.205,1.218-8.045,1.746-8.045,1.746s-5.33-.637-7.362-1.765L124.92,266.162Z" transform="translate(-124.92 -109.52)" fill="#ffca28"/>
  <path id="Path_125" data-name="Path 125" d="M179.82,126.594l-54.9,104.517L149.376,78.356c.9-4.759,3.609-5.217,6.026-1.017Z" transform="translate(-124.922 -74.466)" fill="#ffa000"/>
</svg>
