<svg id="flutter" xmlns="http://www.w3.org/2000/svg" xmlns:xlink="http://www.w3.org/1999/xlink" width="100" height="100" viewBox="0 0 159.141 197.066">
  <defs>
    <clipPath id="clip-path">
      <path id="Path_127" data-name="Path 127" d="M166.572,92.21l-53.047,53.066,53.047,53.066H105.955L52.889,145.276,105.955,92.21ZM105.955,1.276,7.431,99.8l30.318,30.318L166.572,1.276Z" transform="translate(-7.431 -1.276)"/>
    </clipPath>
    <linearGradient id="linear-gradient" x1="0.197" y1="1.193" x2="0.699" y2="0.448" gradientUnits="objectBoundingBox">
      <stop offset="0" stop-color="#1a237e" stop-opacity="0.4"/>
      <stop offset="1" stop-color="#1a237e" stop-opacity="0"/>
    </linearGradient>
    <radialGradient id="radial-gradient" cx="0.028" cy="0.068" r="1.223" gradientTransform="matrix(1.238, 0, 0, -1, -2.189, -5.539)" gradientUnits="objectBoundingBox">
      <stop offset="0" stop-color="#fff" stop-opacity="0.102"/>
      <stop offset="1" stop-color="#fff" stop-opacity="0"/>
    </radialGradient>
  </defs>
  <g id="Group_68" data-name="Group 68" transform="translate(0 0)" clip-path="url(#clip-path)">
    <path id="Path_126" data-name="Path 126" d="M22.2,83.876l30.3,30.318L135.865,30.81H75.248Z" transform="translate(23.275 60.125)" fill="#39cefd"/>
  </g>
  <g id="Group_69" data-name="Group 69" transform="translate(0 0)" clip-path="url(#clip-path)">
    <path id="Path_128" data-name="Path 128" d="M105.955,1.276h60.617L37.749,130.117,7.431,99.8Z" transform="translate(-7.431 -1.276)" fill="#39cefd"/>
  </g>
  <g id="Group_70" data-name="Group 70" transform="translate(0 0)" clip-path="url(#clip-path)">
    <path id="Path_130" data-name="Path 130" d="M32.042,78.363,54.79,101.092h60.617L62.36,48.045Z" transform="translate(43.733 95.955)" fill="#03569b"/>
  </g>
  <g id="Group_71" data-name="Group 71" transform="translate(0 0)" clip-path="url(#clip-path)">
    <path id="Path_132" data-name="Path 132" d="M77.007,62.787,62.36,48.045,32.042,78.363Z" transform="translate(43.733 95.955)" fill="url(#linear-gradient)"/>
  </g>
  <g id="Group_72" data-name="Group 72" transform="translate(0 0)" clip-path="url(#clip-path)">
    <path id="Path_134" data-name="Path 134" d="M22.2,68.513,52.519,38.195,82.84,68.513,52.519,98.832Z" transform="translate(23.273 75.476)" fill="#16b9fd"/>
  </g>
  <path id="Path_136" data-name="Path 136" d="M166.572,92.21l-53.047,53.066,53.047,53.066H105.955L52.889,145.276,105.955,92.21ZM105.955,1.276,7.431,99.8l30.318,30.318L166.572,1.276Z" transform="translate(-7.431 -1.276)" fill="url(#radial-gradient)"/>
</svg>
