<svg id="Google_cloud" data-name="Google cloud" xmlns="http://www.w3.org/2000/svg" width="100" height="100" viewBox="0 0 183.005 146.85">
  <path id="Path_137" data-name="Path 137" d="M136.649,77.409h5.5l15.9-15.9.815-6.725A71.678,71.678,0,0,0,42.5,89.636a8.549,8.549,0,0,1,5.5-.408l31.791-5.3s1.63-2.649,2.445-2.445a39.852,39.852,0,0,1,54.411-4.076Z" transform="translate(-20.49 -36.943)" fill="#ea4335"/>
  <path id="Path_138" data-name="Path 138" d="M147.556,80.547a72.733,72.733,0,0,0-21.6-34.847L103.538,68.117A39.292,39.292,0,0,1,118.007,99.5v3.872a19.767,19.767,0,1,1,0,39.535H78.472L74.6,146.982v23.843l3.872,3.872H118.21a51.507,51.507,0,0,0,29.345-94.149Z" transform="translate(12.826 -27.855)" fill="#4285f4"/>
  <path id="Path_139" data-name="Path 139" d="M72.779,126.125h39.738V94.334H72.779A18.384,18.384,0,0,1,64.628,92.5l-5.5,1.834-16.1,15.9-1.427,5.5A49.567,49.567,0,0,0,72.779,126.125Z" transform="translate(-21.424 20.718)" fill="#34a853"/>
  <path id="Path_140" data-name="Path 140" d="M83.055,58.4A51.662,51.662,0,0,0,31.7,110.366a51.061,51.061,0,0,0,20.175,40.553L74.9,127.891A19.885,19.885,0,1,1,101.192,101.6L124.22,78.575A52.241,52.241,0,0,0,83.055,58.4Z" transform="translate(-31.699 -14.674)" fill="#fbbc05"/>
</svg>
