<svg id="java" xmlns="http://www.w3.org/2000/svg" width="100" height="100" viewBox="0 0 204.238 275.391">
  <g id="Group_104" data-name="Group 104" transform="translate(63.18 0)">
    <path id="Path_210" data-name="Path 210" d="M221.181,51.027c-12.725,8.95-27.147,19.093-34.875,35.876-13.422,29.279,27.465,61.216,29.212,62.562a2.257,2.257,0,0,0,3.38-2.829c-.148-.285-14.824-28.792-14.279-49.243.193-7.123,10.161-15.2,20.715-23.758C235,65.8,245.956,56.917,252.366,46.528,266.439,23.66,250.8,1.173,250.638.949a2.257,2.257,0,0,0-4.047,1.78A48.035,48.035,0,0,1,241.2,33.068C237.714,39.4,230.053,44.787,221.181,51.027Z" transform="translate(-183.606 0)" fill="#db380e"/>
    <path id="Path_211" data-name="Path 211" d="M305.8,110.128a2.257,2.257,0,0,0-2.16-3.913c-2.162.822-52.935,20.393-52.935,44.041,0,16.3,6.963,24.913,12.048,31.2,1.994,2.467,3.716,4.6,4.284,6.415,1.6,5.241-2.187,14.712-3.779,17.92a2.257,2.257,0,0,0,3.311,2.858c.873-.607,21.336-15.074,17.666-32.505-1.367-6.626-4.623-11.466-7.5-15.738-4.45-6.619-7.665-11.4-2.788-20.229C279.665,129.88,305.539,110.324,305.8,110.128Z" transform="translate(-214.614 -49.017)" fill="#db380e"/>
  </g>
  <g id="Group_105" data-name="Group 105" transform="translate(0 145.074)">
    <path id="Path_212" data-name="Path 212" d="M107.036,288.23a8.012,8.012,0,0,0,1.187,7.478c5.5,7.642,25,11.849,54.9,11.849h0c4.051,0,8.328-.08,12.709-.237,47.8-1.711,65.534-16.6,66.265-17.237a2.256,2.256,0,0,0-2.071-3.883c-16.836,4.6-48.273,6.229-70.078,6.229-24.4,0-36.825-1.758-39.868-3.056,1.561-2.143,11.189-5.971,23.119-8.318a2.257,2.257,0,0,0-.436-4.472C145.774,276.584,110.7,277.146,107.036,288.23Z" transform="translate(-84.834 -272.891)" fill="#73a1fb"/>
    <path id="Path_213" data-name="Path 213" d="M383.58,269.718c-9.86,0-19.21,4.942-19.6,5.151a2.258,2.258,0,0,0,1.063,4.248c.209,0,21.032.171,22.918,12.068,1.671,10.264-19.7,26.894-28.078,32.436a2.257,2.257,0,0,0,1.716,4.09c1.988-.425,48.627-10.7,43.7-37.858C402.283,273.211,391.823,269.718,383.58,269.718Z" transform="translate(-201.418 -269.718)" fill="#73a1fb"/>
    <path id="Path_214" data-name="Path 214" d="M251.567,350.877a2.259,2.259,0,0,0-.924-2.263l-11.183-7.833a2.265,2.265,0,0,0-1.874-.332,219.945,219.945,0,0,1-28.79,4.989,199.817,199.817,0,0,1-21.828,1.155c-16.974,0-28.073-1.994-29.689-3.457-.214-.411-.146-.6-.108-.7.294-.816,1.868-1.787,2.882-2.171a2.257,2.257,0,0,0-1.313-4.312c-11.218,2.707-16.7,6.493-16.3,11.251.709,8.437,20.251,12.767,36.772,13.912,2.376.162,4.945.245,7.635.245h0c27.471,0,62.689-8.619,63.041-8.707A2.251,2.251,0,0,0,251.567,350.877Z" transform="translate(-101.391 -300.297)" fill="#73a1fb"/>
    <path id="Path_215" data-name="Path 215" d="M174.007,393.856a2.257,2.257,0,0,0-1.293-4.147c-1.5.04-14.71.636-15.635,9.044a8.744,8.744,0,0,0,2.14,6.823c4.742,5.62,17.542,8.96,39.125,10.211,2.553.153,5.147.23,7.71.23,27.44,0,45.92-8.591,46.694-8.957a2.258,2.258,0,0,0,.212-3.968l-14.133-8.628a2.272,2.272,0,0,0-1.637-.283c-.089.019-9.063,1.88-22.6,3.718a72.866,72.866,0,0,1-9.536.525c-13.527,0-28.574-2.21-31.46-3.658A.905.905,0,0,1,174.007,393.856Z" transform="translate(-108.14 -325.169)" fill="#73a1fb"/>
    <path id="Path_216" data-name="Path 216" d="M151.269,458.588c62.853-.053,96.586-11.231,103.085-18.265a7.782,7.782,0,0,0,2.354-6.383c-.483-3.787-3.932-6.1-4.323-6.357a2.279,2.279,0,0,0-2.945.4,2.231,2.231,0,0,0-.015,2.937c.4.51.626,1.364-.534,2.524-2.6,2.426-28.8,9.791-72.428,12-5.976.31-12.245.469-18.63.47-39.062,0-67.649-5.351-71.4-8.468,1.446-2.078,11.558-5.4,22.312-7.277a2.258,2.258,0,0,0-.69-4.462c-.3.041-1.333.1-2.525.176-17.743,1.083-38.248,3.5-39.317,12.64a9.3,9.3,0,0,0,2.461,7.516c4.792,5.384,18.565,12.543,82.595,12.543Z" transform="translate(-66.142 -341.798)" fill="#73a1fb"/>
    <path id="Path_217" data-name="Path 217" d="M300.4,456.4a2.255,2.255,0,0,0-2.6.512c-.092.1-9.542,9.981-37.954,15.783-10.877,2.179-31.3,3.285-60.686,3.285-29.446,0-57.465-1.159-57.744-1.17a2.257,2.257,0,0,0-.618,4.451c.292.069,29.656,6.948,69.8,6.948a325.372,325.372,0,0,0,55.7-4.65c33-5.786,35.315-22.151,35.4-22.845A2.258,2.258,0,0,0,300.4,456.4Z" transform="translate(-99.838 -355.891)" fill="#73a1fb"/>
  </g>
</svg>
