<svg id="Node.js_logo" xmlns="http://www.w3.org/2000/svg" xmlns:xlink="http://www.w3.org/1999/xlink" width="100" height="100" viewBox="0 0 237.938 145.726">
  <defs>
    <clipPath id="clip-path">
      <path id="Path_179" data-name="Path 179" d="M218.384,226.291,195.723,239.37a2.735,2.735,0,0,0-1.369,2.37v26.177a2.734,2.734,0,0,0,1.369,2.37l22.662,13.09a2.743,2.743,0,0,0,2.738,0l22.658-13.09a2.741,2.741,0,0,0,1.366-2.37V241.74a2.735,2.735,0,0,0-1.372-2.37l-22.655-13.079a2.755,2.755,0,0,0-2.743,0" transform="translate(-194.354 -225.925)"/>
    </clipPath>
    <linearGradient id="linear-gradient" x1="-0.847" y1="-1.034" x2="-0.838" y2="-1.034" gradientUnits="objectBoundingBox">
      <stop offset="0.3" stop-color="#3e863d"/>
      <stop offset="0.5" stop-color="#55934f"/>
      <stop offset="0.8" stop-color="#5aad45"/>
    </linearGradient>
    <clipPath id="clip-path-2">
      <path id="Path_181" data-name="Path 181" d="M195.4,269.646a2.742,2.742,0,0,0,.807.708l19.439,11.228,3.238,1.861a2.747,2.747,0,0,0,1.578.358,2.8,2.8,0,0,0,.538-.1l23.9-43.761a2.711,2.711,0,0,0-.637-.506l-14.838-8.568-7.843-4.513a2.86,2.86,0,0,0-.71-.285Zm0,0" transform="translate(-195.398 -226.069)"/>
    </clipPath>
    <linearGradient id="linear-gradient-2" x1="-0.742" y1="-0.932" x2="-0.737" y2="-0.932" gradientUnits="objectBoundingBox">
      <stop offset="0.57" stop-color="#3e863d"/>
      <stop offset="0.72" stop-color="#619857"/>
      <stop offset="1" stop-color="#76ac64"/>
    </linearGradient>
    <clipPath id="clip-path-3">
      <path id="Path_183" data-name="Path 183" d="M220.712,225.944a2.764,2.764,0,0,0-1.095.351l-22.6,13.042,24.366,44.38a2.717,2.717,0,0,0,.974-.336l22.661-13.09a2.746,2.746,0,0,0,1.323-1.87L221.5,225.989a2.845,2.845,0,0,0-.554-.055c-.075,0-.151,0-.226.011" transform="translate(-197.021 -225.934)"/>
    </clipPath>
    <linearGradient id="linear-gradient-3" x1="-2.148" y1="-2.103" x2="-2.138" y2="-2.103" gradientUnits="objectBoundingBox">
      <stop offset="0.16" stop-color="#6bbf47"/>
      <stop offset="0.38" stop-color="#79b461"/>
      <stop offset="0.47" stop-color="#75ac64"/>
      <stop offset="0.7" stop-color="#659e5a"/>
      <stop offset="0.9" stop-color="#3e863d"/>
    </linearGradient>
  </defs>
  <path id="Path_174" data-name="Path 174" d="M196.292,220.547a4.523,4.523,0,0,1-2.254-.6l-7.174-4.247c-1.071-.6-.549-.811-.2-.933a14.484,14.484,0,0,0,3.243-1.479.545.545,0,0,1,.534.038l5.511,3.27a.727.727,0,0,0,.666,0l21.488-12.4a.677.677,0,0,0,.328-.581v-24.8a.69.69,0,0,0-.332-.592l-21.479-12.393a.661.661,0,0,0-.662,0l-21.475,12.393a.685.685,0,0,0-.34.586v24.8a.662.662,0,0,0,.333.576l5.884,3.4c3.195,1.6,5.147-.285,5.147-2.178V180.927a.613.613,0,0,1,.624-.619h2.722a.615.615,0,0,1,.619.619v24.484c0,4.26-2.324,6.707-6.363,6.707-1.242,0-2.221,0-4.954-1.345l-5.637-3.249a4.544,4.544,0,0,1-2.254-3.921v-24.8a4.515,4.515,0,0,1,2.254-3.916l21.51-12.409a4.712,4.712,0,0,1,4.518,0L220.037,174.9a4.533,4.533,0,0,1,2.254,3.916v24.8a4.546,4.546,0,0,1-2.254,3.916l-21.483,12.409a4.516,4.516,0,0,1-2.264.6" transform="translate(-78.688 -74.822)" fill="#689f63"/>
  <path id="Path_175" data-name="Path 175" d="M221.215,213.284c-9.4,0-11.373-4.316-11.373-7.936a.618.618,0,0,1,.622-.619h2.775a.621.621,0,0,1,.613.526c.42,2.828,1.667,4.255,7.353,4.255,4.529,0,6.454-1.023,6.454-3.425,0-1.382-.549-2.41-7.584-3.1-5.884-.581-9.52-1.877-9.52-6.584,0-4.335,3.658-6.917,9.784-6.917,6.879,0,10.29,2.388,10.72,7.519a.626.626,0,0,1-.167.479.64.64,0,0,1-.457.2h-2.792a.617.617,0,0,1-.6-.484c-.672-2.974-2.3-3.926-6.713-3.926-4.943,0-5.519,1.721-5.519,3.012,0,1.565.678,2.022,7.347,2.9,6.605.877,9.741,2.114,9.741,6.756,0,4.679-3.9,7.363-10.714,7.363m26.173-26.3h.721a.626.626,0,0,0,.7-.656c0-.635-.436-.635-.678-.635h-.742Zm-.877-2.033h1.6c.549,0,1.624,0,1.624,1.226a1.067,1.067,0,0,1-.877,1.14c.64.043.683.463.769,1.054a4.535,4.535,0,0,0,.242,1.226h-.984c-.027-.215-.177-1.4-.177-1.463-.065-.264-.156-.393-.484-.393h-.812v1.861h-.9Zm-1.92,2.313a2.447,2.447,0,1,0-.005-.005m7.616.016a4.139,4.139,0,1,0-.005,0" transform="translate(-96.974 -84.644)" fill="#689f63"/>
  <path id="Path_176" data-name="Path 176" d="M51.064,48.7a2.751,2.751,0,0,0-1.376-2.391L26.905,33.206a2.66,2.66,0,0,0-1.252-.36h-.236a2.707,2.707,0,0,0-1.259.36L1.378,46.314A2.772,2.772,0,0,0,0,48.707L.05,84.013A1.355,1.355,0,0,0,.733,85.2a1.3,1.3,0,0,0,1.366,0l13.544-7.756a2.778,2.778,0,0,0,1.377-2.388V58.564a2.743,2.743,0,0,1,1.374-2.383L24.16,52.86a2.735,2.735,0,0,1,1.377-.37,2.687,2.687,0,0,1,1.368.37l5.763,3.32a2.745,2.745,0,0,1,1.377,2.383V75.055a2.787,2.787,0,0,0,1.38,2.388L48.96,85.194a1.345,1.345,0,0,0,1.377,0,1.381,1.381,0,0,0,.682-1.189Zm107.5,18.382a.684.684,0,0,1-.344.595L150.4,72.192a.69.69,0,0,1-.687,0l-7.826-4.511a.682.682,0,0,1-.344-.595V58.053a.692.692,0,0,1,.339-.6l7.821-4.518a.7.7,0,0,1,.694,0l7.826,4.518a.686.686,0,0,1,.344.6ZM160.681.174a1.376,1.376,0,0,0-2.047,1.2V36.339a.962.962,0,0,1-1.444.834l-5.707-3.287a2.747,2.747,0,0,0-2.75,0l-22.79,13.153a2.746,2.746,0,0,0-1.377,2.377V75.729a2.755,2.755,0,0,0,1.377,2.383l22.79,13.162a2.763,2.763,0,0,0,2.752,0l22.79-13.167a2.758,2.758,0,0,0,1.377-2.383V10.146a2.758,2.758,0,0,0-1.415-2.4Zm75.89,57.641a2.752,2.752,0,0,0,1.368-2.378V49.059a2.753,2.753,0,0,0-1.37-2.38L213.924,33.534a2.75,2.75,0,0,0-2.759,0L188.381,46.685A2.747,2.747,0,0,0,187,49.068v26.3a2.761,2.761,0,0,0,1.388,2.394l22.639,12.9a2.745,2.745,0,0,0,2.7.016l13.694-7.611a1.374,1.374,0,0,0,.011-2.394L204.512,67.522a1.365,1.365,0,0,1-.694-1.189V58.082a1.365,1.365,0,0,1,.688-1.192l7.132-4.115a1.36,1.36,0,0,1,1.372,0l7.138,4.115a1.371,1.371,0,0,1,.688,1.189v6.487a1.372,1.372,0,0,0,2.065,1.189Zm0,0" transform="translate(0 0)" fill="#333" fill-rule="evenodd"/>
  <path id="Path_177" data-name="Path 177" d="M390.552,105.139a.522.522,0,0,1,.527,0l4.373,2.523a.528.528,0,0,1,.264.457v5.051a.528.528,0,0,1-.264.457l-4.373,2.523a.522.522,0,0,1-.527,0l-4.37-2.523a.526.526,0,0,1-.269-.457v-5.051a.521.521,0,0,1,.264-.457Zm0,0" transform="translate(-178.341 -48.555)" fill="#689f63" fill-rule="evenodd"/>
  <g id="Group_75" data-name="Group 75" transform="translate(62.419 33.299)" clip-path="url(#clip-path)">
    <path id="Path_178" data-name="Path 178" d="M248.372,219.9l-63.854-31.3-32.74,66.79,63.852,31.3Zm0,0" transform="translate(-174.678 -208.677)" fill="url(#linear-gradient)"/>
  </g>
  <g id="Group_76" data-name="Group 76" transform="translate(62.981 33.377)" clip-path="url(#clip-path-2)">
    <path id="Path_180" data-name="Path 180" d="M144.07,226.154l45.087,61.023,59.629-44.055L203.7,182.1Zm0,0" transform="translate(-171.678 -205.75)" fill="url(#linear-gradient-2)"/>
  </g>
  <g id="Group_77" data-name="Group 77" transform="translate(63.854 33.304)" clip-path="url(#clip-path-3)">
    <path id="Path_182" data-name="Path 182" d="M197.02,225.934v57.784h49.314V225.934Zm0,0" transform="translate(-197.021 -225.934)" fill="url(#linear-gradient-3)"/>
  </g>
</svg>
