<svg id="python" xmlns="http://www.w3.org/2000/svg" width="100" height="100" viewBox="0 0 271.493 275.391">
  <path id="Path_188" data-name="Path 188" d="M271.494,134.638v31.224a29.9,29.9,0,0,1-29.9,29.9H148.3a9.016,9.016,0,0,0-9,9.451,9.184,9.184,0,0,0,9.255,8.56h22.063a9.009,9.009,0,0,1,9.009,9.009V245.3a30.093,30.093,0,0,1-30.091,30.094H123.362a30.094,30.094,0,0,1-30.1-30.094V165.984H29.9A29.9,29.9,0,0,1,0,136.079V109.524a29.9,29.9,0,0,1,29.9-29.9h63.36v0h27.308a9.012,9.012,0,0,0,9-9.434,9.182,9.182,0,0,0-9.255-8.581H102.274A9.009,9.009,0,0,1,93.264,52.6v-22.5A30.094,30.094,0,0,1,123.362,0h26.173a30.091,30.091,0,0,1,30.091,30.01v74.725h61.962a29.908,29.908,0,0,1,29.9,29.9Zm0,0" transform="translate(0 0)" fill="#ffda44"/>
  <path id="Path_189" data-name="Path 189" d="M388.726,134.638v31.224a29.9,29.9,0,0,1-29.9,29.9H265.53a9.016,9.016,0,0,0-9,9.451,9.184,9.184,0,0,0,9.255,8.56H287.85a9.009,9.009,0,0,1,9.009,9.009V245.3a30.093,30.093,0,0,1-30.091,30.094H253.68V0h13.088a30.091,30.091,0,0,1,30.091,30.01v74.725h61.962a29.908,29.908,0,0,1,29.9,29.9Zm0,0" transform="translate(-117.232 0)" fill="#ffcd00"/>
  <path id="Path_190" data-name="Path 190" d="M302.79,429.429a9,9,0,1,1-9-9A9,9,0,0,1,302.79,429.429Zm0,0" transform="translate(-131.605 -194.29)" fill="#4895ff"/>
  <path id="Path_191" data-name="Path 191" d="M310.527,429.429a9,9,0,0,1-9,9.005V420.426A9,9,0,0,1,310.527,429.429Zm0,0" transform="translate(-139.342 -194.29)" fill="#2682ff"/>
  <path id="Path_192" data-name="Path 192" d="M179.627,30.01v87.07a18.01,18.01,0,0,1-18.015,18.015H102.274a9.013,9.013,0,0,0-9.009,9.005v21.885H29.9A29.906,29.906,0,0,1,0,136.08V109.525a29.906,29.906,0,0,1,29.9-29.9h63.36v0h27.308a9.012,9.012,0,0,0,9-9.434,9.182,9.182,0,0,0-9.255-8.581H102.274A9.009,9.009,0,0,1,93.264,52.6v-22.5A30.094,30.094,0,0,1,123.362,0h26.173a30.091,30.091,0,0,1,30.091,30.01Zm0,0" transform="translate(0 0)" fill="#4895ff"/>
  <path id="Path_193" data-name="Path 193" d="M296.859,30.01v87.07a18.01,18.01,0,0,1-18.015,18.015H253.68V0h13.088a30.091,30.091,0,0,1,30.091,30.01Zm0,0" transform="translate(-117.232 0)" fill="#2682ff"/>
  <path id="Path_194" data-name="Path 194" d="M210.956,70.953a9.007,9.007,0,1,1-9.005-9.011A9,9,0,0,1,210.956,70.953Zm0,0" transform="translate(-89.164 -28.625)" fill="#ffda44"/>
  <path id="Path_195" data-name="Path 195" d="M218.7,70.953a9,9,0,0,1-9.005,9V61.941A9.011,9.011,0,0,1,218.7,70.953Zm0,0" transform="translate(-96.904 -28.625)" fill="#ffcd00"/>
</svg>
