<svg id="sqlite" xmlns="http://www.w3.org/2000/svg" xmlns:xlink="http://www.w3.org/1999/xlink" width="100" height="100" viewBox="0 0 275.272 122.172">
  <defs>
    <linearGradient id="linear-gradient" x1="0.577" y1="0.02" x2="0.577" y2="0.944" gradientUnits="objectBoundingBox">
      <stop offset="0" stop-color="#97d9f6"/>
      <stop offset="0.92" stop-color="#0f80cc"/>
      <stop offset="1" stop-color="#0f80cc"/>
    </linearGradient>
  </defs>
  <path id="Path_196" data-name="Path 196" d="M183.694,112.044a12.461,12.461,0,0,0-8.939,3.257,11.235,11.235,0,0,0-3.447,8.511,14,14,0,0,0,.855,4.968,12.566,12.566,0,0,0,2.639,4.185,38.57,38.57,0,0,0,7.108,5.182c4.348,2.654,7.193,4.808,8.559,6.49a8.26,8.26,0,0,1,2.044,5.278,7.469,7.469,0,0,1-2.473,5.9,9.684,9.684,0,0,1-6.656,2.211,10.88,10.88,0,0,1-10.936-11.2h-1.355v12.291h1.355c.414-1.164.986-1.759,1.736-1.759a11.15,11.15,0,0,1,2.52.713,24.561,24.561,0,0,0,7.893,1.688,12.946,12.946,0,0,0,12.933-12.933,11.762,11.762,0,0,0-2.5-7.369q-2.481-3.221-9.676-7.512-6.2-3.727-8.059-6.086a8.271,8.271,0,0,1-1.878-5.23,6.135,6.135,0,0,1,2.259-4.969,8.968,8.968,0,0,1,5.92-1.854,9.89,9.89,0,0,1,6.894,2.473,10.372,10.372,0,0,1,3.186,6.894h1.355V112.52h-1.26a3.226,3.226,0,0,1-.428,1.046.925.925,0,0,1-.737.238,9.108,9.108,0,0,1-2.33-.547,20.779,20.779,0,0,0-6.585-1.212Zm44.29,0a24.014,24.014,0,0,0-12.2,3.162,23.974,23.974,0,0,0-11.934,20.635,22.76,22.76,0,0,0,5.587,15.12,23.42,23.42,0,0,0,13.408,8.226q1.781.928,5.111,4.8a40.253,40.253,0,0,0,6.371,6.276,19.145,19.145,0,0,0,5.61,2.782,22.1,22.1,0,0,0,6.467.9,18.107,18.107,0,0,0,7.56-1.5l-.5-1.237a12.037,12.037,0,0,1-4.113.69,10.82,10.82,0,0,1-5.944-1.949q-2.983-1.957-7.441-7.465a25.579,25.579,0,0,0-2.9-3.3,23.469,23.469,0,0,0,14-8.274,23.007,23.007,0,0,0,5.467-15.072,22.631,22.631,0,0,0-7.108-16.9,24.122,24.122,0,0,0-17.45-6.894Zm27.648,0,.072,1.45c2.976,0,4.643.877,5.016,2.639a20.049,20.049,0,0,1,.214,3.471l-.024,32.071q-.037,3.593-1.022,4.588a5.474,5.474,0,0,1-3.376,1.236l-.072,1.451h29.669l.761-7.275h-1.355a5.811,5.811,0,0,1-2.686,4.208c-1.416.812-3.92,1.212-7.536,1.212h-2.806q-4.881,0-5.634-3.542a7.438,7.438,0,0,1-.143-1.521l.118-32.427c0-2.391.3-3.994.928-4.778a4.628,4.628,0,0,1,3.423-1.331l-.071-1.45H255.632ZM228.458,113.8a15.028,15.028,0,0,1,12.339,5.991q4.768,6.01,4.755,16.451,0,9.883-4.8,15.833a15.591,15.591,0,0,1-12.766,5.943,14.925,14.925,0,0,1-12.386-6.133q-4.747-6.144-4.731-15.952,0-10.079,4.778-16.118a15.523,15.523,0,0,1,12.814-6.014Zm68.23,6.895a2.068,2.068,0,0,0-1.688.737,2,2,0,0,0-.4,1.807,3.184,3.184,0,0,0,1.165,1.83,3.121,3.121,0,0,0,2.021.785,1.9,1.9,0,0,0,1.616-.785,2.2,2.2,0,0,0,.357-1.83,3.123,3.123,0,0,0-1.117-1.807,3,3,0,0,0-1.949-.737Zm19.565,4.921q-1.844,7.1-7.987,7.7l.047,1.355h4.778L313,150.7a33.925,33.925,0,0,0,.285,5.492c.471,2.222,1.922,3.352,4.351,3.352q5.271,0,11.054-6.419l-1.164-1q-4.175,4.226-7.394,4.231c-1.321,0-2.14-.759-2.449-2.259a5.757,5.757,0,0,1-.118-1.284l.047-18.139h7.3l-.072-2.164h-7.2v-6.894h-1.379Zm28.219,6.038q-6.124,0-9.985,5.92a16.812,16.812,0,0,0-2.354,13.123,11.308,11.308,0,0,0,3.59,6.537,10.222,10.222,0,0,0,6.847,2.306c2.554,0,6.11-.647,7.607-1.95a17.86,17.86,0,0,0,4.16-6.3l-1.022-1.07a11.071,11.071,0,0,1-9.248,5.635c-4.262,0-6.872-2.339-7.845-6.99a17,17,0,0,1-.285-1.9q7.606-1.2,11.506-4.279c2.591-2.056,5.193-4.236,4.707-6.538a5.3,5.3,0,0,0-2.092-3.257c-1.107-.813-3.98-1.237-5.587-1.237Zm-44.622.167-8.8,2.021v1.569l3.043-.38a2.355,2.355,0,0,1,2.615,2,10.738,10.738,0,0,1,.167,1.855l-.1,14.383c-.024,1.99-.245,3.147-.689,3.495s-1.629.523-3.542.523l-.047,1.355h13.955l-.024-1.355a9.711,9.711,0,0,1-3.756-.452,2.246,2.246,0,0,1-1.093-1.664,17.63,17.63,0,0,1-.19-3.043l.048-20.3H299.85Zm42.388,2.662a4.02,4.02,0,0,1,2.5.975,3.761,3.761,0,0,1,1.474,2.14c.8,3.824-2.594,6.467-10.223,7.94a13.472,13.472,0,0,1,1.5-7.607c1.223-2.286,2.816-3.447,4.755-3.447Z" transform="translate(-79.067 -51.779)" fill="#003b57"/>
  <path id="Path_197" data-name="Path 197" d="M84.924,9.952H9.225A9.252,9.252,0,0,0,0,19.177v83.482a9.252,9.252,0,0,0,9.225,9.225H59.082C58.516,87.075,66.987,38.932,84.924,9.952Z" transform="translate(0 -4.599)" fill="#0f80cc"/>
  <path id="Path_198" data-name="Path 198" d="M84.485,14.955H11.536A6.541,6.541,0,0,0,5,21.489V98.88c16.521-6.34,41.318-11.812,58.463-11.563C66.911,69.3,77.037,34,84.485,14.955Z" transform="translate(-2.312 -6.911)" fill="url(#linear-gradient)"/>
  <path id="Path_199" data-name="Path 199" d="M148.988,2.62C143.8-2,137.526-.146,131.332,5.353c-.92.816-1.837,1.723-2.75,2.691-10.6,11.243-20.436,32.068-23.492,47.973a43.8,43.8,0,0,1,2.733,7.849c.157.6.3,1.17.412,1.652.269,1.141.414,1.881.414,1.881s-.1-.359-.485-1.49c-.074-.217-.157-.453-.255-.732q-.077-.2-.164-.4c-.691-1.607-2.6-5-3.445-6.476q-1,2.935-1.888,5.907c2.43,4.445,3.91,12.064,3.91,12.064s-.129-.494-.739-2.217a82.1,82.1,0,0,0-3.881-7.36c-1.094,4.039-1.529,6.765-1.137,7.429a25.9,25.9,0,0,1,2.122,5.96c1.438,5.529,2.437,12.261,2.437,12.261s.032.446.087,1.133a112.489,112.489,0,0,0,.28,13.809c.476,5.761,1.373,10.709,2.516,13.358l.776-.423c-1.678-5.218-2.36-12.056-2.062-19.942.452-12.054,3.226-26.591,8.351-41.742,8.66-22.872,20.674-41.223,31.669-49.987-10.022,9.051-23.586,38.349-27.647,49.2a196.7,196.7,0,0,0-9.71,34.473c3.35-10.241,14.183-14.642,14.183-14.642s5.313-6.552,11.521-15.914a112.957,112.957,0,0,0-11.871,3.16c-3.017,1.266-3.83,1.7-3.83,1.7s9.773-5.952,18.159-8.647c11.532-18.163,24.1-43.966,11.444-55.252" transform="translate(-46.408 0)" fill="#003b57"/>
</svg>
