<svg xmlns="http://www.w3.org/2000/svg" width="100" height="100" viewBox="0 0 275.396 240.967">
  <path id="swift" d="M169.744,32.005c121.069,80.793,81.808,169.572,81.808,169.572s34.389,38.056,20.568,71.4c0,0-14.269-23.288-37.952-23.288-22.892,0-36.438,23.288-82.652,23.288C48.727,272.972,0,188.737,0,188.737c92.635,59.9,155.923,17.453,155.923,17.453C114.1,182.472,25.388,68.89,25.388,68.89c77.333,64.562,110.707,81.516,110.707,81.516C116.026,134.3,60.1,55.344,60.1,55.344c44.751,44.39,133.7,106.284,133.7,106.284C219.314,93.228,169.744,32.005,169.744,32.005Z" transform="translate(0 -32.005)" fill="#ff5722"/>
</svg>
