<?xml version="1.0" standalone="no"?>
<!DOCTYPE svg PUBLIC "-//W3C//DTD SVG 20010904//EN"
 "http://www.w3.org/TR/2001/REC-SVG-20010904/DTD/svg10.dtd">
<svg version="1.0" xmlns="http://www.w3.org/2000/svg"
viewBox="0 0 262.000000 300.000000"
 preserveAspectRatio="xMidYMid meet">

<g transform="translate(0.000000,300.000000) scale(0.100000,-0.100000)"
fill="#ffc107" stroke="none"  width="262.000000pt" height="100.000000pt"  >
<path d="M346 2990 c-95 -11 -179 -34 -196 -55 -8 -10 -10 -28 -6 -53 35 -206
52 -375 47 -478 -1 -30 -3 -31 -68 -43 -127 -23 -153 -56 -79 -97 59 -33 191
-55 377 -61 254 -9 461 19 511 69 20 20 20 21 2 39 -11 10 -46 25 -78 33 -52
14 -60 14 -70 1 -24 -32 -83 -45 -193 -44 l-108 2 80 9 c46 5 103 19 133 33
l52 24 0 128 c0 70 7 169 15 218 8 50 15 95 15 100 0 6 -42 9 -116 6 -64 -2
-155 0 -202 5 l-87 8 122 7 c192 12 303 41 303 81 0 51 -258 90 -454 68z"/>
<path d="M220 2123 c-62 -25 -109 -95 -110 -161 0 -45 33 -105 72 -134 45 -32
143 -33 185 -2 99 73 99 205 1 277 -27 21 -118 33 -148 20z m136 -77 c29 -29
34 -41 34 -81 0 -40 -5 -52 -34 -81 -19 -19 -43 -34 -54 -34 -17 0 -15 5 14
34 29 29 34 41 34 79 0 48 -26 92 -64 107 -19 8 -18 9 8 9 19 1 39 -10 62 -33z"/>
<path d="M610 2119 c-62 -25 -100 -85 -100 -157 0 -120 129 -199 237 -143 118
60 117 233 -1 290 -45 22 -95 26 -136 10z m128 -55 c28 -19 52 -65 52 -99 0
-57 -51 -115 -100 -115 l-25 1 27 15 c32 17 58 62 58 99 0 37 -26 82 -58 99
l-27 15 25 1 c14 0 36 -7 48 -16z"/>
<path d="M325 1734 c-16 -8 -43 -28 -60 -43 -77 -71 -103 -79 -132 -43 -19 23
-16 49 9 72 22 20 15 26 -17 14 -23 -9 -45 -58 -45 -101 0 -147 217 -193 352
-73 l45 39 28 -29 c43 -45 119 -74 195 -74 77 0 122 20 150 67 34 55 19 154
-26 171 -23 9 -28 2 -9 -14 24 -20 19 -67 -9 -85 -30 -20 -45 -13 -117 51 -77
68 -128 81 -183 45 -28 -19 -29 -19 -60 0 -38 23 -81 24 -121 3z"/>
<path d="M1382 1720 c-29 -4 -55 -10 -57 -12 -2 -2 -9 -89 -16 -193 l-12 -190
-182 -395 -182 -395 6 -80 6 -79 222 484 c121 267 224 503 228 525 9 55 15 75
24 75 5 0 23 -27 40 -60 18 -33 35 -60 38 -60 8 0 73 41 73 46 0 2 -12 28 -27
59 l-27 55 22 23 c42 44 50 125 18 169 -26 36 -71 43 -174 28z m98 -103 c0
-26 -23 -51 -57 -61 -21 -7 -23 -4 -23 32 0 47 4 52 47 52 28 0 33 -4 33 -23z"/>
<path d="M1784 1720 c-23 -9 -79 -139 -123 -284 -30 -96 -30 -96 29 -96 48 0
51 2 56 29 5 22 13 30 36 35 50 10 55 7 62 -29 7 -34 8 -35 56 -35 42 0 50 3
50 18 0 30 -49 285 -61 320 -16 48 -54 63 -105 42z m39 -182 c5 -33 3 -38 -14
-38 -18 0 -20 4 -14 33 13 59 19 60 28 5z m-52 -25 c-12 -20 -14 -14 -5 12 4
9 9 14 11 11 3 -2 0 -13 -6 -23z m143 -128 l7 -30 -20 24 c-10 14 -17 31 -14
39 7 18 19 4 27 -33z"/>
<path d="M2035 1718 c-7 -20 -25 -246 -25 -315 l0 -63 45 0 c42 0 44 2 50 33
3 17 6 61 8 97 l2 65 36 -95 36 -95 45 -3 45 -3 7 183 c4 100 8 187 9 193 1 5
-17 11 -39 13 -48 4 -54 -7 -54 -97 0 -62 -9 -58 -34 14 -10 28 -27 58 -38 68
-23 20 -86 23 -93 5z"/>
<path d="M2405 1717 l-40 -13 -7 -109 c-3 -61 -8 -143 -10 -182 l-4 -73 63 0
c74 0 105 11 139 47 82 89 97 249 29 313 -30 28 -109 36 -170 17z m113 -109
c22 -46 -12 -149 -54 -165 -25 -9 -31 12 -23 89 5 39 6 75 3 79 -6 10 27 29
46 26 8 -1 21 -15 28 -29z"/>
<path d="M1023 1713 c-23 -3 -33 -10 -33 -21 0 -25 -19 -249 -25 -304 l-6 -48
106 0 c104 0 107 1 135 28 37 37 47 89 26 131 -15 29 -15 33 4 68 30 57 23
108 -19 140 -15 12 -115 15 -188 6z m115 -105 c-4 -27 -56 -48 -68 -27 -14 22
8 49 41 49 26 0 30 -3 27 -22z m-11 -134 c7 -18 -14 -41 -42 -46 -23 -4 -33
26 -15 47 16 20 49 19 57 -1z"/>
<path d="M162 843 l3 -568 28 -54 c153 -289 548 -286 685 7 24 50 27 69 27
157 0 88 -3 107 -27 157 -34 74 -112 152 -186 186 -50 24 -69 27 -157 27 -88
0 -107 -3 -157 -27 -68 -32 -146 -106 -182 -174 -26 -48 -26 -48 -21 -14 4 19
20 63 36 96 l29 61 0 347 c0 269 -3 347 -12 350 -7 3 -26 7 -41 10 l-28 7 3
-568z m505 -191 c147 -76 206 -253 133 -399 -17 -33 -39 -68 -50 -78 -20 -18
-20 -17 -20 176 0 231 -4 243 -70 246 -44 1 -44 1 -10 -7 l35 -7 -36 -2 c-36
-1 -37 -2 -74 -91 -21 -49 -40 -90 -44 -90 -3 0 -17 39 -31 88 l-25 87 -60 5
-60 6 50 5 50 5 -52 2 -51 2 -6 -72 c-3 -40 -8 -135 -12 -211 -4 -97 -10 -137
-18 -134 -6 2 -26 32 -43 66 -84 160 -7 353 164 417 56 21 177 13 230 -14z
m-192 -421 c26 -79 65 -77 110 7 l26 47 -4 -72 -4 -73 43 0 c24 0 44 -4 44 -8
0 -17 -97 -42 -160 -42 -46 0 -78 7 -110 22 l-45 22 38 4 37 3 0 70 c0 38 2
69 4 69 3 0 12 -22 21 -49z m-128 -13 c-2 -13 -4 -5 -4 17 -1 22 1 32 4 23 2
-10 2 -28 0 -40z"/>
<path d="M1415 598 c-8 -26 -25 -452 -18 -459 5 -4 31 -5 60 -2 l52 5 3 87 3
86 59 -88 c33 -48 65 -87 71 -87 12 0 75 62 75 74 0 4 -25 44 -56 87 -64 91
-66 72 30 183 l49 57 -33 34 c-19 19 -39 35 -46 35 -7 0 -42 -33 -78 -72 l-67
-73 3 70 3 70 -53 3 c-36 2 -54 -1 -57 -10z"/>
<path d="M1890 601 l-115 -6 -7 -65 c-4 -36 -9 -139 -10 -229 l-3 -165 60 2
c33 1 102 5 153 8 l92 6 0 54 0 54 -96 0 -95 0 3 28 c3 26 6 27 78 37 l75 10
1 49 2 49 -79 -6 c-70 -6 -79 -5 -79 11 0 35 17 44 101 53 114 12 111 11 107
66 -4 56 7 53 -188 44z m-25 -262 c-4 -5 -12 -9 -18 -8 -9 0 -8 2 1 6 6 2 9
10 6 15 -4 7 -2 8 5 4 6 -4 9 -12 6 -17z"/>
<path d="M1133 588 c-29 -37 -153 -385 -153 -430 0 -15 9 -18 60 -18 60 0 61
0 67 31 6 31 20 41 80 52 30 6 31 5 40 -41 l8 -47 54 -3 c30 -2 57 0 62 5 11
11 -58 380 -79 423 -16 33 -20 35 -73 38 -37 2 -59 -1 -66 -10z m66 -225 c1
-28 -2 -33 -23 -33 l-24 0 16 51 c12 39 18 46 23 32 4 -10 8 -33 8 -50z m-51
7 c-11 -28 -23 -49 -25 -47 -4 5 34 97 41 97 3 0 -5 -23 -16 -50z m162 -174
c8 -37 -4 -51 -15 -16 -3 11 -10 20 -15 20 -5 0 -8 13 -7 30 2 24 4 27 15 16
8 -7 17 -30 22 -50z"/>
<path d="M2178 593 c-21 -2 -38 -5 -38 -6 -2 -7 -30 -416 -30 -429 0 -15 9
-18 55 -18 l55 0 0 69 c0 60 3 69 20 74 21 5 31 -7 74 -90 14 -29 31 -53 36
-53 6 0 28 11 50 25 l40 25 -36 71 c-34 69 -35 72 -16 85 31 22 52 77 52 139
0 49 -4 60 -29 86 -28 28 -33 29 -113 27 -46 -1 -100 -3 -120 -5z m152 -114
c0 -33 -19 -60 -55 -75 -46 -19 -45 -19 -45 25 0 49 21 71 66 71 28 0 34 -4
34 -21z"/>
</g>
</svg>
