<?xml version="1.0" encoding="utf-8"?>
<!-- Generator: Adobe Illustrator 26.1.0, SVG Export Plug-In . SVG Version: 6.00 Build 0)  -->
<svg version="1.1" id="Layer_1" xmlns="http://www.w3.org/2000/svg" xmlns:xlink="http://www.w3.org/1999/xlink" x="0px" y="0px" width="370" height="115"
	 viewBox="0 0 370 115" style="enable-background:new 0 0 370 115;" xml:space="preserve">
<style type="text/css">
	.st0{fill:url(#SVGID_1_);}
	.st1{fill:url(#SVGID_00000068649074670950742650000006960548126258208185_);}
	.st2{fill:url(#SVGID_00000061459380910520863490000015396153111593725109_);}
	.st3{fill:url(#SVGID_00000003104604217630446240000017607103769235390122_);}
	.st4{enable-background:new    ;}
	.st5{fill:#51555E;}
</style>
<g>
	
		<linearGradient id="SVGID_1_" gradientUnits="userSpaceOnUse" x1="20.7333" y1="49.7449" x2="58.9468" y2="99.1428" gradientTransform="matrix(0.9992 0 0 -0.9992 -5.239284e-02 115.7965)">
		<stop  offset="0" style="stop-color:#4CD9DF"/>
		<stop  offset="1" style="stop-color:#00C9D2"/>
	</linearGradient>
	<path class="st0" d="M49,13.3c-3.5,15.3-15.6,27.4-30.9,30.9c-2.7,0.6-4.7,3-4.7,5.7v11.4c0,3.6,3.3,6.4,6.9,5.8
		c9.2-1.6,17.8-5.3,25.2-10.4c6.2-4.3,11.7-9.8,16-16c6-8.6,10-18.8,11.1-29.8c0.1-1.2-0.8-2.3-2.1-2.3H54.7
		C52,8.6,49.6,10.6,49,13.3z"/>
	
		<linearGradient id="SVGID_00000057861391680164383980000015918253168812048799_" gradientUnits="userSpaceOnUse" x1="91.3019" y1="24.115" x2="117.399" y2="53.0081" gradientTransform="matrix(0.9992 0 0 -0.9992 -5.239284e-02 115.7965)">
		<stop  offset="0" style="stop-color:#4CD9DF"/>
		<stop  offset="1" style="stop-color:#00C9D2"/>
	</linearGradient>
	<path style="fill:url(#SVGID_00000057861391680164383980000015918253168812048799_);" d="M78.6,100.4c-0.1,1.2,0.8,2.3,2.1,2.3
		h15.8c2.8,0,5.1-2,5.7-4.7c3.5-15.3,15.6-27.4,30.9-30.9c2.7-0.6,4.7-3,4.7-5.7V49.9c0-3.6-3.3-6.4-6.9-5.8
		c-9.2,1.7-17.8,5.3-25.2,10.5c-6.2,4.3-11.7,9.8-16,16C83.8,79.2,79.8,89.4,78.6,100.4z"/>
	
		<linearGradient id="SVGID_00000000922262663202857290000017351133545665570202_" gradientUnits="userSpaceOnUse" x1="78.8509" y1="106.0756" x2="135.4447" y2="49.4818" gradientTransform="matrix(0.9992 0 0 -0.9992 -5.239284e-02 115.7965)">
		<stop  offset="0" style="stop-color:#1E18CF"/>
		<stop  offset="1" style="stop-color:#625DDD"/>
	</linearGradient>
	<path style="fill:url(#SVGID_00000000922262663202857290000017351133545665570202_);" d="M96.5,8.6H80.7c-1.2,0-2.2,1.1-2.1,2.3
		c1.2,11,5.1,21.1,11.1,29.8c4.3,6.2,9.8,11.7,16,16c7.4,5.2,16,8.8,25.2,10.5c3.6,0.6,6.9-2.1,6.9-5.8V49.9c0-2.8-2-5.1-4.7-5.7
		c-15.3-3.5-27.4-15.6-30.9-30.9C101.6,10.6,99.3,8.6,96.5,8.6z"/>
	
		<linearGradient id="SVGID_00000108276828712483054480000012209440617263437218_" gradientUnits="userSpaceOnUse" x1="15.9835" y1="70.914" x2="72.5773" y2="14.3202" gradientTransform="matrix(0.9992 0 0 -0.9992 -5.239284e-02 115.7965)">
		<stop  offset="0" style="stop-color:#1E18CF"/>
		<stop  offset="1" style="stop-color:#625DDD"/>
	</linearGradient>
	<path style="fill:url(#SVGID_00000108276828712483054480000012209440617263437218_);" d="M61.5,70.6c-4.3-6.2-9.8-11.7-16-16
		c-7.4-5.2-16-8.8-25.2-10.5c-3.6-0.6-6.9,2.1-6.9,5.8v11.4c0,2.8,2,5.1,4.7,5.7C33.4,70.6,45.5,82.7,49,98c0.6,2.7,3,4.7,5.7,4.7
		h15.8c1.2,0,2.2-1.1,2.1-2.3C71.3,89.4,67.5,79.2,61.5,70.6z"/>
</g>
<g class="st4">
	<path class="st5" d="M170.9,91.4l-2.1-6.8h-10.4l-2.1,6.8h-6.5l10.1-28.6h7.4l10.1,28.6H170.9z M167.4,79.5
		c-1.9-6.2-3-9.6-3.2-10.4c-0.2-0.8-0.4-1.4-0.5-1.9c-0.4,1.7-1.7,5.8-3.7,12.4H167.4z"/>
	<path class="st5" d="M200.7,71.8c0,3.1-1,5.4-2.9,7c-1.9,1.6-4.6,2.4-8.2,2.4h-2.6v10.1h-6V62.9h9.1c3.5,0,6.1,0.7,7.9,2.2
		C199.8,66.6,200.7,68.8,200.7,71.8z M187.1,76.3h2c1.9,0,3.3-0.4,4.2-1.1c0.9-0.7,1.4-1.8,1.4-3.2c0-1.4-0.4-2.5-1.2-3.1
		s-2-1-3.6-1h-2.8V76.3z"/>
	<path class="st5" d="M225.8,71.8c0,3.1-1,5.4-2.9,7c-1.9,1.6-4.6,2.4-8.2,2.4h-2.6v10.1h-6.1V62.9h9.1c3.5,0,6.1,0.7,7.9,2.2
		C224.9,66.6,225.8,68.8,225.8,71.8z M212.1,76.3h2c1.9,0,3.3-0.4,4.2-1.1c0.9-0.7,1.4-1.8,1.4-3.2c0-1.4-0.4-2.5-1.2-3.1
		s-2-1-3.6-1h-2.8V76.3z"/>
	<path class="st5" d="M258.4,83.5c0,2.6-0.9,4.6-2.8,6.1c-1.9,1.5-4.4,2.2-7.7,2.2c-3,0-5.7-0.6-8.1-1.7v-5.6
		c1.9,0.9,3.6,1.5,4.9,1.8s2.6,0.5,3.7,0.5c1.3,0,2.3-0.3,3.1-0.8c0.7-0.5,1.1-1.3,1.1-2.3c0-0.6-0.2-1.1-0.5-1.5s-0.8-0.9-1.4-1.3
		c-0.6-0.4-1.8-1-3.7-1.9c-1.7-0.8-3.1-1.6-3.9-2.4c-0.9-0.8-1.6-1.6-2.1-2.6c-0.5-1-0.8-2.2-0.8-3.5c0-2.5,0.9-4.5,2.6-6
		c1.7-1.4,4.1-2.2,7.1-2.2c1.5,0,2.9,0.2,4.2,0.5c1.3,0.4,2.8,0.8,4.2,1.5l-2,4.7c-1.5-0.6-2.8-1.1-3.8-1.3c-1-0.2-2-0.4-2.9-0.4
		c-1.1,0-2,0.3-2.6,0.8c-0.6,0.5-0.9,1.2-0.9,2.1c0,0.5,0.1,1,0.4,1.4c0.2,0.4,0.6,0.8,1.2,1.2c0.5,0.4,1.8,1,3.8,2
		c2.7,1.3,4.5,2.6,5.5,3.8C257.9,80.1,258.4,81.6,258.4,83.5z"/>
	<path class="st5" d="M274.6,91.4h-6V67.9h-7.7v-5h21.5v5h-7.7V91.4z"/>
	<path class="st5" d="M312.6,77.1c0,4.7-1.2,8.4-3.5,10.9c-2.3,2.5-5.7,3.8-10.1,3.8c-4.4,0-7.7-1.3-10.1-3.8
		c-2.3-2.5-3.5-6.2-3.5-10.9c0-4.7,1.2-8.4,3.5-10.9s5.7-3.8,10.1-3.8c4.4,0,7.7,1.3,10.1,3.8S312.6,72.4,312.6,77.1z M291.8,77.1
		c0,3.2,0.6,5.6,1.8,7.2s3,2.4,5.4,2.4c4.8,0,7.2-3.2,7.2-9.6c0-6.4-2.4-9.6-7.2-9.6c-2.4,0-4.2,0.8-5.4,2.4S291.8,73.9,291.8,77.1z
		"/>
	<path class="st5" d="M324.6,80.5v10.9h-6V62.9h8.3c3.9,0,6.7,0.7,8.6,2.1s2.8,3.6,2.8,6.4c0,1.7-0.5,3.2-1.4,4.5s-2.2,2.3-3.9,3.1
		c4.3,6.4,7.1,10.6,8.4,12.4h-6.7l-6.8-10.9H324.6z M324.6,75.5h2c1.9,0,3.3-0.3,4.2-1c0.9-0.6,1.4-1.6,1.4-3c0-1.4-0.5-2.3-1.4-2.9
		c-0.9-0.6-2.4-0.9-4.3-0.9h-1.8V75.5z"/>
	<path class="st5" d="M361.4,91.4h-16.4V62.9h16.4v5H351v6.3h9.7v5H351v7.4h10.4V91.4z"/>
</g>
<g class="st4">
	<path class="st5" d="M158.3,35.6v11.2h-1.8V21.1h6.1c3.2,0,5.5,0.6,7.1,1.8c1.5,1.2,2.3,2.9,2.3,5.3c0,1.7-0.5,3.2-1.4,4.4
		c-0.9,1.2-2.3,2-4.1,2.5l7,11.7h-2.1l-6.6-11.2H158.3z M158.3,34h4.9c2.2,0,3.8-0.5,5-1.4c1.2-1,1.8-2.4,1.8-4.3
		c0-2-0.6-3.4-1.8-4.3c-1.2-0.9-3.1-1.3-5.7-1.3h-4.3V34z"/>
	<path class="st5" d="M185.2,47.1c-2.8,0-4.9-0.9-6.5-2.6c-1.6-1.7-2.3-4.1-2.3-7.2c0-3,0.7-5.5,2.2-7.3c1.5-1.8,3.5-2.7,6.1-2.7
		c2.2,0,4,0.8,5.3,2.4c1.3,1.6,1.9,3.7,1.9,6.4v1.4h-13.8c0,2.6,0.6,4.6,1.8,6c1.2,1.4,2.9,2.1,5.2,2.1c1.1,0,2-0.1,2.9-0.2
		c0.8-0.2,1.9-0.5,3.1-1v1.6c-1.1,0.5-2.1,0.8-3,1C187.3,47,186.3,47.1,185.2,47.1z M184.7,28.9c-1.8,0-3.3,0.6-4.4,1.8
		s-1.8,3-1.9,5.2h11.8c0-2.2-0.5-3.9-1.4-5.2C187.7,29.5,186.3,28.9,184.7,28.9z"/>
	<path class="st5" d="M201.4,46.8L194,27.7h1.8l4.9,13c0.7,1.7,1.1,3.1,1.5,4.4h0.1c0.5-1.6,1-3.1,1.5-4.4l4.9-12.9h1.8l-7.4,19.1
		H201.4z"/>
	<path class="st5" d="M213.5,22.4c0-1.1,0.4-1.7,1.1-1.7c0.4,0,0.6,0.1,0.9,0.4c0.2,0.3,0.3,0.7,0.3,1.2c0,0.5-0.1,0.9-0.3,1.2
		c-0.2,0.3-0.5,0.5-0.9,0.5C213.8,24.1,213.5,23.5,213.5,22.4z M215.4,46.8h-1.7V27.7h1.7V46.8z"/>
	<path class="st5" d="M229.5,47.1c-2.8,0-4.9-0.9-6.5-2.6s-2.3-4.1-2.3-7.2c0-3,0.7-5.5,2.2-7.3c1.5-1.8,3.5-2.7,6.1-2.7
		c2.2,0,4,0.8,5.3,2.4c1.3,1.6,2,3.7,2,6.4v1.4h-13.8c0,2.6,0.6,4.6,1.8,6c1.2,1.4,2.9,2.1,5.2,2.1c1.1,0,2-0.1,2.9-0.2
		c0.8-0.2,1.9-0.5,3.1-1v1.6c-1.1,0.5-2.1,0.8-3,1C231.7,47,230.6,47.1,229.5,47.1z M229,28.9c-1.8,0-3.3,0.6-4.4,1.8
		c-1.1,1.2-1.8,3-1.9,5.2h11.8c0-2.2-0.5-3.9-1.4-5.2C232.1,29.5,230.7,28.9,229,28.9z"/>
	<path class="st5" d="M256.8,46.8L252.7,34c-0.3-0.9-0.6-2.1-1-3.8h-0.1l-0.4,1.3l-0.8,2.5l-4.3,12.7h-1.7l-5.5-19.1h1.9l3.1,11.1
		c0.7,2.7,1.2,4.8,1.4,6h0.1c0.7-2.7,1.2-4.6,1.5-5.5l3.9-11.6h1.6l3.7,11.6c0.8,2.8,1.4,4.6,1.5,5.5h0.1c0.1-0.8,0.6-2.8,1.4-6.1
		l2.9-11h1.8l-5.2,19.1H256.8z"/>
	<path class="st5" d="M278.4,27.7V40c0,1.9,0.4,3.3,1.2,4.2c0.8,0.9,2.1,1.3,3.8,1.3c2.3,0,3.9-0.6,5-1.7s1.6-3,1.6-5.6V27.7h1.7
		v19.1h-1.5l-0.3-2.6h-0.1c-1.2,2-3.4,3-6.6,3c-4.3,0-6.5-2.3-6.5-7V27.7H278.4z"/>
	<path class="st5" d="M310,41.8c0,1.7-0.6,3-1.9,3.9s-3.1,1.4-5.5,1.4c-2.6,0-4.6-0.4-6.1-1.2v-1.9c1.9,1,3.9,1.4,6.1,1.4
		c1.9,0,3.3-0.3,4.3-0.9s1.5-1.5,1.5-2.5c0-1-0.4-1.8-1.2-2.4c-0.8-0.7-2.1-1.3-3.8-1.9c-1.9-0.7-3.2-1.3-4-1.8
		c-0.8-0.5-1.4-1.1-1.7-1.7c-0.4-0.6-0.6-1.4-0.6-2.3c0-1.4,0.6-2.6,1.8-3.4c1.2-0.8,2.9-1.2,5-1.2c2.1,0,4,0.4,5.9,1.2l-0.7,1.6
		c-1.9-0.8-3.6-1.2-5.2-1.2c-1.6,0-2.8,0.3-3.7,0.8c-0.9,0.5-1.4,1.2-1.4,2.1c0,1,0.4,1.8,1.1,2.4c0.7,0.6,2.1,1.3,4.2,2
		c1.7,0.6,3,1.2,3.8,1.7c0.8,0.5,1.4,1.1,1.8,1.7S310,40.9,310,41.8z"/>
	<path class="st5" d="M340,37.2c0,3.1-0.8,5.5-2.3,7.3s-3.6,2.6-6.3,2.6c-1.7,0-3.1-0.4-4.4-1.2c-1.3-0.8-2.3-2-2.9-3.5
		c-0.7-1.5-1-3.3-1-5.2c0-3.1,0.8-5.5,2.3-7.3c1.5-1.7,3.6-2.6,6.2-2.6c2.6,0,4.7,0.9,6.2,2.6S340,34.1,340,37.2z M325,37.2
		c0,2.6,0.6,4.7,1.7,6.1s2.8,2.2,4.9,2.2s3.7-0.7,4.9-2.2s1.7-3.5,1.7-6.1c0-2.6-0.6-4.7-1.7-6.1c-1.2-1.5-2.8-2.2-4.9-2.2
		c-2.1,0-3.7,0.7-4.9,2.2C325.5,32.5,325,34.5,325,37.2z"/>
	<path class="st5" d="M358.6,46.8V34.4c0-1.9-0.4-3.3-1.2-4.2c-0.8-0.9-2.1-1.3-3.8-1.3c-2.3,0-4,0.6-5,1.7c-1.1,1.2-1.6,3-1.6,5.6
		v10.5h-1.7V27.7h1.5l0.3,2.6h0.1c1.2-2,3.4-3,6.6-3c4.3,0,6.5,2.3,6.5,7v12.5H358.6z"/>
</g>
</svg>
