<?xml version="1.0" encoding="utf-8"?>
<!-- Generator: Adobe Illustrator 26.1.0, SVG Export Plug-In . SVG Version: 6.00 Build 0)  -->
<svg version="1.1" id="Layer_1" xmlns="http://www.w3.org/2000/svg" xmlns:xlink="http://www.w3.org/1999/xlink" x="0px" y="0px"
	 viewBox="0 0 226.7 60" style="enable-background:new 0 0 226.7 60;" xml:space="preserve">
<style type="text/css">
	.st0{fill:#FE5C36;}
	.st1{fill:#F02174;}
	.st2{fill:#FFB448;}
	.st3{fill:#4FB2B8;}
	.st4{fill:#161616;}
	.st5{fill:#3F3F3F;}
</style>
<path class="st0" d="M45.8,20.2l6.3,11l8.4,14.6c1,1.7,1.3,3.5,1.2,5.2c-0.9,10.3-16.3,9.5-16.3-0.9v-1.9l0,0V34
	c0-2.4-0.6-4.7-1.7-6.7C43,26.1,42.2,25,41.2,24c-0.1-0.1-0.2-0.2-0.2-0.2c-0.2-0.2-0.5-0.5-0.8-0.7c-0.2-0.1-0.3-0.3-0.5-0.4
	c-0.2-0.1-0.4-0.3-0.6-0.4c-2.3-1.5-5-2.4-7.9-2.4c-7.8,0-14.1,6.3-14.1,14.1v16.3c0,10.4-15.5,11.3-16.5,1
	c-0.2-1.7,0.2-3.5,1.1-5.2l8.6-14.9l6.3-11c2.7-4.7,7.2-7.5,12-8.2c0,0,0,0,0,0c0.6-0.1,1.3-0.2,1.9-0.2h0.1c0.2,0,0.4,0,0.6,0h0
	c0.2,0,0.4,0,0.6,0h0c0.6,0,1.3,0.1,1.9,0.2C38.6,12.7,43.1,15.4,45.8,20.2z"/>
<path class="st1" d="M40.3,23.1c0.3,0.2,0.5,0.4,0.8,0.7C40.8,23.5,40.5,23.3,40.3,23.1z"/>
<path class="st1" d="M41.3,24c1,1,1.8,2.1,2.4,3.3C43,26.1,42.2,25,41.3,24c-0.1-0.1-0.2-0.2-0.2-0.2C41.1,23.8,41.2,23.9,41.3,24z"
	/>
<path class="st1" d="M40.3,23.1c0.3,0.2,0.5,0.4,0.8,0.7C40.8,23.5,40.5,23.3,40.3,23.1z"/>
<path class="st1" d="M41.3,24c1,1,1.8,2.1,2.4,3.3C43,26.1,42.2,25,41.3,24c-0.1-0.1-0.2-0.2-0.2-0.2C41.1,23.8,41.2,23.9,41.3,24z"
	/>
<g>
	<path class="st2" d="M35.6,3.1l5.5,8.6c-2.4-2.7-6-4.4-9.9-4.4c-1,0-2,0.1-2.9,0.3c-2.7,0.6-5.2,2.1-7,4.1l5.5-8.6
		c1.7-2.7,5.2-3.1,7.5-1.3C34.9,2.2,35.3,2.6,35.6,3.1z"/>
</g>
<path class="st3" d="M39.9,34v15.8c0,1.3-0.3,2.5-0.8,3.7c-1.4,3-4.4,5.1-8,5.1c-2.4,0-4.6-1-6.2-2.6c-1.6-1.6-2.6-3.8-2.6-6.2V34
	c0-4.8,3.9-8.8,8.8-8.8c0.2,0,0.4,0,0.6,0C36.4,25.6,39.9,29.4,39.9,34z"/>
<path class="st1" d="M33.8,12c-0.6-0.1-1.3-0.2-1.9-0.2h0c-0.2,0-0.4,0-0.6,0h0c-0.2,0-0.4,0-0.6,0h-0.1c-0.6,0-1.3,0.1-1.9,0.2
	c0.8-0.2,1.7-0.2,2.6-0.2C32.1,11.8,33,11.8,33.8,12z"/>
<g>
	<path class="st4" d="M106.3,33.9h-7.7v-3.7h-8.8l-2.5,3.7h-9L98.2,5.8h8.1L106.3,33.9z M98.5,16.6l-0.9,2.3l-4,6h5.2l0-8.3H98.5z"
		/>
	<path class="st4" d="M110.3,24.9h7.8c0,1,0.4,1.8,1.2,2.4c0.8,0.5,2,0.8,3.6,0.8c0.8,0,1.5-0.1,2-0.2c0.5-0.1,1-0.3,1.3-0.5
		c0.3-0.2,0.5-0.5,0.7-0.7c0.1-0.3,0.2-0.6,0.2-0.9c0-0.6-0.1-1.1-0.4-1.4c-0.3-0.3-0.7-0.6-1.2-0.9c-0.5-0.2-1.2-0.5-2-0.7
		s-1.7-0.5-2.7-0.8c-0.5-0.2-1-0.3-1.7-0.5c-0.6-0.2-1.3-0.4-2-0.7c-0.7-0.3-1.3-0.6-2-0.9c-0.7-0.4-1.2-0.8-1.8-1.3
		c-0.5-0.5-0.9-1.1-1.3-1.8c-0.3-0.7-0.5-1.5-0.5-2.4c0-3,1-5.3,2.9-6.9c2-1.6,5-2.4,9-2.4c1.7,0,3.2,0.2,4.6,0.6
		c1.3,0.4,2.4,1,3.3,1.8c0.9,0.8,1.6,1.8,2,2.9c0.5,1.1,0.7,2.4,0.7,3.8h-7.8c0-0.3,0-0.6-0.1-0.9c-0.1-0.3-0.3-0.6-0.5-0.9
		c-0.3-0.3-0.6-0.5-1.1-0.6c-0.4-0.2-1-0.2-1.8-0.2c-0.7,0-1.3,0.1-1.7,0.2c-0.4,0.1-0.8,0.3-1.1,0.4c-0.3,0.2-0.4,0.4-0.5,0.6
		c-0.1,0.2-0.1,0.5-0.1,0.7c0,0.4,0.1,0.7,0.4,1c0.3,0.3,0.7,0.5,1.1,0.8c0.5,0.2,1,0.4,1.7,0.6c0.6,0.2,1.3,0.3,2.1,0.5
		c1.6,0.4,3,0.8,4.3,1.3c1.3,0.5,2.4,1.1,3.3,1.8c0.9,0.7,1.6,1.6,2.1,2.6c0.5,1,0.7,2.3,0.7,3.7c0,1.4-0.3,2.7-1,3.8
		c-0.6,1.1-1.5,2-2.6,2.8c-1.1,0.7-2.4,1.3-3.9,1.7c-1.5,0.4-3.1,0.6-4.8,0.6c-2.3,0-4.3-0.3-5.8-0.9c-1.6-0.6-2.8-1.3-3.8-2.2
		c-1-0.9-1.6-2-2.1-3.1C110.5,27.3,110.3,26.1,110.3,24.9z"/>
	<path class="st4" d="M151.7,25.7h-4.7v8.2h-7.8V5.8h12.4c1.5,0,2.9,0.2,4.2,0.7c1.3,0.5,2.4,1.2,3.3,2.1c0.9,0.9,1.7,1.9,2.2,3.2
		c0.5,1.2,0.8,2.5,0.8,4c0,1.5-0.3,2.8-0.8,4c-0.5,1.2-1.2,2.3-2.1,3.1c-0.9,0.9-2,1.6-3.3,2C154.6,25.4,153.2,25.7,151.7,25.7z
		 M146.9,19.2h4.3c0.4,0,0.8-0.1,1.2-0.3c0.4-0.2,0.7-0.4,1-0.7c0.3-0.3,0.5-0.7,0.7-1.1c0.2-0.4,0.2-0.9,0.2-1.3
		c0-0.5-0.1-0.9-0.2-1.3c-0.2-0.4-0.4-0.8-0.7-1.1c-0.3-0.3-0.6-0.6-1-0.8c-0.4-0.2-0.8-0.3-1.2-0.3h-4.3V19.2z"/>
	<path class="st4" d="M165.7,33.9V5.8h7.8v28.1H165.7z"/>
	<path class="st4" d="M202.4,33.9h-8.9l-4.4-8.7h-2.6v8.7h-7.8V5.8h12.5c1.5,0,2.9,0.2,4.2,0.7c1.3,0.5,2.4,1.1,3.3,2
		c0.9,0.9,1.7,1.9,2.2,3.1s0.8,2.5,0.8,4c0,2-0.4,3.7-1.3,5.1c-0.9,1.4-2.1,2.5-3.6,3.3L202.4,33.9z M186.5,18.7h4.4
		c0.4,0,0.8-0.1,1.2-0.2c0.4-0.2,0.7-0.4,1-0.6c0.3-0.3,0.5-0.6,0.6-1c0.2-0.4,0.2-0.8,0.2-1.3c0-0.5-0.1-0.9-0.2-1.3
		c-0.2-0.4-0.4-0.7-0.6-1c-0.3-0.3-0.6-0.5-1-0.7c-0.4-0.2-0.8-0.2-1.2-0.2h-4.4V18.7z"/>
	<path class="st4" d="M205.9,33.9V5.8h20.3v6.5h-12.5v4.5h10.7v6.5h-10.7v4.2h12.7v6.5H205.9z"/>
</g>
<g>
	<path class="st5" d="M78.6,52.3h5c0,0.7,0.2,1.2,0.7,1.5c0.5,0.4,1.3,0.5,2.3,0.5c0.5,0,0.9,0,1.3-0.1c0.3-0.1,0.6-0.2,0.8-0.3
		c0.2-0.1,0.3-0.3,0.4-0.5c0.1-0.2,0.1-0.4,0.1-0.6c0-0.4-0.1-0.7-0.3-0.9c-0.2-0.2-0.4-0.4-0.8-0.6c-0.4-0.2-0.8-0.3-1.3-0.4
		c-0.5-0.1-1.1-0.3-1.8-0.5c-0.3-0.1-0.7-0.2-1.1-0.3c-0.4-0.1-0.8-0.3-1.3-0.4c-0.4-0.2-0.9-0.4-1.3-0.6c-0.4-0.2-0.8-0.5-1.1-0.9
		c-0.3-0.3-0.6-0.7-0.8-1.2c-0.2-0.5-0.3-1-0.3-1.6c0-1.9,0.6-3.4,1.9-4.5c1.3-1,3.2-1.5,5.8-1.5c1.1,0,2.1,0.1,2.9,0.4
		c0.8,0.3,1.6,0.7,2.1,1.2c0.6,0.5,1,1.1,1.3,1.9c0.3,0.7,0.4,1.6,0.4,2.5h-5c0-0.2,0-0.4-0.1-0.6c-0.1-0.2-0.2-0.4-0.3-0.6
		c-0.2-0.2-0.4-0.3-0.7-0.4c-0.3-0.1-0.7-0.2-1.1-0.2c-0.5,0-0.8,0-1.1,0.1c-0.3,0.1-0.5,0.2-0.7,0.3c-0.2,0.1-0.3,0.3-0.3,0.4
		s-0.1,0.3-0.1,0.5c0,0.2,0.1,0.5,0.3,0.7c0.2,0.2,0.4,0.4,0.7,0.5c0.3,0.1,0.7,0.3,1.1,0.4c0.4,0.1,0.9,0.2,1.3,0.3
		c1,0.2,2,0.5,2.8,0.8c0.8,0.3,1.5,0.7,2.1,1.1c0.6,0.5,1,1,1.3,1.7c0.3,0.7,0.5,1.5,0.5,2.4c0,0.9-0.2,1.8-0.6,2.5
		c-0.4,0.7-1,1.3-1.7,1.8c-0.7,0.5-1.5,0.8-2.5,1.1c-1,0.2-2,0.4-3.1,0.4c-1.5,0-2.8-0.2-3.8-0.6c-1-0.4-1.8-0.9-2.5-1.4
		c-0.6-0.6-1.1-1.3-1.3-2C78.7,53.8,78.6,53,78.6,52.3z"/>
	<path class="st5" d="M96.7,48.9c0-1.3,0.3-2.6,0.8-3.7c0.5-1.2,1.2-2.2,2.1-3c0.9-0.9,2-1.5,3.2-2c1.2-0.5,2.5-0.7,3.9-0.7
		c1.4,0,2.7,0.2,3.9,0.7c1.2,0.5,2.3,1.2,3.2,2c0.9,0.9,1.6,1.9,2.1,3c0.5,1.2,0.8,2.4,0.8,3.7c0,1.3-0.3,2.6-0.8,3.7
		c-0.5,1.2-1.2,2.2-2.1,3c-0.9,0.9-2,1.5-3.2,2c-1.2,0.5-2.5,0.7-3.9,0.7c-1.4,0-2.7-0.2-3.9-0.7c-1.2-0.5-2.3-1.2-3.2-2
		c-0.9-0.9-1.6-1.9-2.1-3C97,51.5,96.7,50.3,96.7,48.9z M101.7,49c0,0.8,0.1,1.5,0.4,2.1c0.3,0.7,0.6,1.2,1.1,1.7
		c0.4,0.5,1,0.8,1.6,1.1c0.6,0.3,1.3,0.4,1.9,0.4c0.7,0,1.3-0.1,2-0.4c0.6-0.3,1.1-0.6,1.6-1.1c0.4-0.5,0.8-1,1.1-1.7
		c0.3-0.7,0.4-1.4,0.4-2.1c0-0.8-0.1-1.5-0.4-2.1c-0.3-0.6-0.6-1.2-1.1-1.7c-0.4-0.5-1-0.8-1.6-1.1c-0.6-0.3-1.3-0.4-2-0.4
		c-0.7,0-1.3,0.1-1.9,0.4c-0.6,0.3-1.1,0.6-1.6,1.1c-0.4,0.5-0.8,1-1.1,1.7S101.7,48.2,101.7,49z"/>
	<path class="st5" d="M119.6,58V39.9h13.1v4.2h-8.1v3.6h6.9v4.2h-6.9V58H119.6z"/>
	<path class="st5" d="M138.9,58v-14h-4.8v-4.2h14.6v4.2h-4.8v14H138.9z"/>
	<path class="st5" d="M165.9,39.9l2.5,11.1h0.1l3.2-11.1h5.3L170.9,58h-4.8l-2.9-9.6l-2.9,9.6h-4.8l-6.1-18.2h5.3L158,51h0.1
		l2.5-11.1H165.9z"/>
	<path class="st5" d="M193.4,58h-5.3l-0.9-2.5h-6.9l-0.9,2.5h-5.3l7.3-18.2h4.7L193.4,58z M183.7,46.4l-0.1,0.7l-1.7,4.4h3.7
		l-1.7-4.4L183.7,46.4L183.7,46.4z"/>
	<path class="st5" d="M210.8,58H205l-2.8-5.6h-1.7V58h-5V39.9h8.1c1,0,1.9,0.2,2.7,0.5c0.8,0.3,1.5,0.7,2.1,1.3
		c0.6,0.6,1.1,1.2,1.4,2c0.3,0.8,0.5,1.6,0.5,2.6c0,1.3-0.3,2.4-0.9,3.3c-0.6,0.9-1.4,1.6-2.3,2.2L210.8,58z M200.5,48.2h2.8
		c0.3,0,0.5,0,0.8-0.1c0.2-0.1,0.4-0.2,0.6-0.4c0.2-0.2,0.3-0.4,0.4-0.6s0.2-0.5,0.2-0.8c0-0.3-0.1-0.6-0.2-0.8
		c-0.1-0.3-0.2-0.5-0.4-0.7c-0.2-0.2-0.4-0.3-0.6-0.4c-0.2-0.1-0.5-0.2-0.8-0.2h-2.8V48.2z"/>
	<path class="st5" d="M213,58V39.9h13.1v4.2h-8.1V47h6.9v4.2h-6.9v2.7h8.2V58H213z"/>
</g>
</svg>
