<?xml version="1.0" encoding="utf-8"?>
<!-- Generator: Adobe Illustrator 26.1.0, SVG Export Plug-In . SVG Version: 6.00 Build 0)  -->
<svg version="1.1" id="Layer_1" xmlns="http://www.w3.org/2000/svg" xmlns:xlink="http://www.w3.org/1999/xlink" x="0px" y="0px" width="370" height="115"
	 viewBox="0 0 370 115" style="enable-background:new 0 0 370 115;" xml:space="preserve">
<style type="text/css">
	.st0{fill:#162F39;}
	.st1{fill:#F73B2D;}
</style>
<g>
	<path class="st0" d="M152.3,12.8c-3.9,0-6.9,1.5-9,4.4s-3.2,7-3.2,12.2c0,10.8,4.1,16.2,12.2,16.2c3.4,0,7.5-0.9,12.4-2.6v8.6
		c-4,1.7-8.4,2.5-13.3,2.5c-7.1,0-12.5-2.1-16.2-6.4s-5.6-10.4-5.6-18.4c0-5,0.9-9.5,2.8-13.3c1.8-3.8,4.5-6.7,7.9-8.7s7.5-3,12.1-3
		c4.7,0,9.5,1.1,14.2,3.4l-3.3,8.4c-1.8-0.9-3.6-1.6-5.5-2.3C155.9,13.1,154.1,12.8,152.3,12.8z"/>
	<path class="st0" d="M189.3,53.5h-10.1V1.8h10.1V53.5z"/>
	<path class="st0" d="M231.2,53.5l-1.4-4.7h-0.5c-1.1,1.7-2.6,3.1-4.6,4c-2,0.9-4.3,1.4-6.8,1.4c-4.4,0-7.6-1.2-9.9-3.5
		c-2.2-2.3-3.3-5.7-3.3-10.1V16.4h10.1v21.7c0,2.7,0.5,4.7,1.4,6c1,1.3,2.5,2,4.5,2c2.8,0,4.9-0.9,6.1-2.8c1.2-1.9,1.9-5,1.9-9.4
		V16.4h10.1v37.1H231.2z"/>
	<path class="st0" d="M270.3,46.1c1.8,0,3.9-0.4,6.4-1.2v7.5c-2.5,1.1-5.6,1.7-9.3,1.7c-4.1,0-7-1-8.8-3.1c-1.8-2-2.8-5.1-2.8-9.2
		V24H251v-4.3l5.6-3.4l2.9-7.8h6.5v7.9h10.3V24h-10.4v17.9c0,1.4,0.4,2.5,1.2,3.2C267.9,45.8,268.9,46.1,270.3,46.1z"/>
	<path class="st0" d="M304.3,54.2c-11.6,0-17.3-6.3-17.3-19c0-6.3,1.6-11.1,4.7-14.5c3.1-3.3,7.6-5,13.5-5c4.3,0,8.1,0.8,11.6,2.5
		l-3,7.8c-1.6-0.6-3.1-1.2-4.4-1.6c-1.4-0.4-2.7-0.6-4.1-0.6c-5.3,0-7.9,3.7-7.9,11.2c0,7.3,2.6,10.9,7.9,10.9
		c1.9,0,3.8-0.3,5.4-0.8c1.7-0.5,3.3-1.3,5-2.4v8.7c-1.6,1-3.3,1.8-5,2.2C308.8,54,306.8,54.2,304.3,54.2z"/>
	<path class="st0" d="M363.3,53.5h-10.1V31.8c0-5.4-2-8-6-8c-2.8,0-4.9,1-6.1,2.9s-1.9,5-1.9,9.4v17.5h-10.1V1.8h10.1v10.5
		c0,0.8-0.1,2.7-0.2,5.8l-0.2,3h0.5c2.3-3.6,5.8-5.4,10.8-5.4c4.4,0,7.7,1.2,9.9,3.5c2.3,2.3,3.4,5.7,3.4,10.1L363.3,53.5
		L363.3,53.5z"/>
	<path class="st0" d="M142,92.9v18.6h-10.3V63h14.1c6.6,0,11.5,1.2,14.6,3.6c3.2,2.4,4.7,6,4.7,10.9c0,2.9-0.8,5.4-2.4,7.6
		c-1.6,2.2-3.8,4-6.7,5.2c7.3,10.9,12.1,18,14.3,21.2h-11.4l-11.5-18.6H142z M142,84.5h3.3c3.3,0,5.7-0.5,7.2-1.6s2.3-2.8,2.3-5.1
		c0-2.3-0.8-3.9-2.4-4.9c-1.6-1-4-1.5-7.4-1.5h-3.1L142,84.5L142,84.5z"/>
	<path class="st0" d="M192.5,112.2c-6,0-10.6-1.6-14-4.9s-5-8-5-14c0-6.2,1.6-11,4.7-14.4c3.1-3.4,7.4-5.1,12.9-5.1
		c5.2,0,9.3,1.5,12.3,4.5c3,3,4.4,7.1,4.4,12.4v4.9H184c0.1,2.9,1,5.1,2.6,6.7c1.6,1.6,3.8,2.4,6.7,2.4c2.2,0,4.3-0.2,6.3-0.7
		c2-0.5,4.1-1.2,6.2-2.2v7.8c-1.8,0.9-3.7,1.5-5.7,2C197.8,112,195.4,112.2,192.5,112.2z M191,80.9c-2.1,0-3.8,0.7-5,2
		c-1.2,1.4-1.9,3.3-2.1,5.8h14.2c0-2.5-0.7-4.4-2-5.8S193.2,80.9,191,80.9z"/>
	<path class="st0" d="M224.7,111.5l-14.1-37.1h10.6l7.2,21.2c0.8,2.7,1.3,5.2,1.5,7.6h0.2c0.1-2.1,0.6-4.7,1.5-7.6l7.1-21.2h10.6
		l-14.1,37.1C235.2,111.5,224.7,111.5,224.7,111.5z"/>
	<path class="st0" d="M254.1,64.8c0-3.3,1.8-4.9,5.5-4.9c3.7,0,5.5,1.6,5.5,4.9c0,1.6-0.5,2.8-1.4,3.7c-0.9,0.9-2.3,1.3-4.1,1.3
		C255.9,69.8,254.1,68.1,254.1,64.8z M264.6,111.5h-10.1V74.4h10.1V111.5z"/>
	<path class="st0" d="M292.1,112.2c-6,0-10.6-1.6-14-4.9c-3.4-3.3-5-8-5-14c0-6.2,1.6-11,4.7-14.4c3.1-3.4,7.4-5.1,12.9-5.1
		c5.2,0,9.3,1.5,12.3,4.5c3,3,4.4,7.1,4.4,12.4v4.9h-24.1c0.1,2.9,1,5.1,2.6,6.7c1.6,1.6,3.8,2.4,6.7,2.4c2.2,0,4.3-0.2,6.3-0.7
		s4.1-1.2,6.2-2.2v7.8c-1.8,0.9-3.7,1.5-5.7,2C297.4,112,295,112.2,292.1,112.2z M290.6,80.9c-2.1,0-3.8,0.7-5,2
		c-1.2,1.4-1.9,3.3-2.1,5.8h14.2c0-2.5-0.7-4.4-2-5.8C294.4,81.5,292.8,80.9,290.6,80.9z"/>
	<path class="st0" d="M345.9,111.5l-2.9-13l-3.9-16.4h-0.2l-6.8,29.4h-10.9l-10.6-37.1h10.1l4.3,16.4c0.7,2.9,1.4,7,2.1,12.2h0.2
		c0.1-1.7,0.5-4.3,1.2-8l0.5-2.8l4.6-17.8h11.2l4.3,17.8c0.1,0.5,0.2,1.2,0.4,2.2c0.2,1,0.4,2,0.5,3c0.2,1.1,0.3,2.1,0.5,3.2
		c0.1,1,0.2,1.9,0.2,2.5h0.2c0.2-1.6,0.6-3.8,1.1-6.6c0.5-2.8,0.9-4.7,1.1-5.6l4.4-16.4h9.9l-10.7,37.1L345.9,111.5L345.9,111.5z"/>
</g>
<path class="st1" d="M81.6,72.5c0,3.1-0.4,6.1-1.1,9.1c-0.1,0.4-0.1,0.7-0.2,1l0,0c-1.7,6.5-5.1,12.6-10.2,17.7
	c-4.1,4.1-8.8,7-13.8,8.9l0,0c-4.5,1.7-9.2,2.5-14,2.5c-9.7,0-19.4-3.6-26.9-10.7c-0.3-0.3-0.6-0.5-0.8-0.8
	c-0.3-0.3-0.5-0.5-0.8-0.8C6.7,91.9,3.2,82.3,3.2,72.6c0-1,0-2.1,0.1-3.1c1.5,2.1,3.2,4.1,5.1,6c6.2,6.2,13.7,10.4,21.7,12.5
	c0,0,0,0,0.1,0c2.5,0.7,5.1,1.1,7.6,1.4c0.5,0,1.1,0.1,1.6,0.1c1,0.1,2,0.1,3,0.1l0,0c2.7,0,5.4-0.2,8.1-0.7s5.4-1.2,8-2.1
	c0.3-0.1,0.7-0.2,1-0.3l0,0c6.2-2.3,11.9-6,16.9-11c1.9-1.9,3.6-3.9,5.1-6c0,0.4,0.1,0.9,0.1,1.3C81.6,71.4,81.6,71.9,81.6,72.5z"/>
<path class="st1" d="M112.6,41.5c0,1,0,2.1-0.1,3.1c-1.5-2.1-3.2-4.1-5.1-6c-6.2-6.2-13.7-10.4-21.7-12.5c0,0,0,0-0.1,0
	c-3-0.8-6.1-1.3-9.2-1.5c-1-0.1-2.1-0.1-3.1-0.1c-0.7,0-1.5,0-2.2,0c-0.9,0-1.9,0.1-2.8,0.2c-0.6,0.1-1.3,0.1-1.9,0.2
	c-0.3,0-0.6,0.1-0.9,0.2c-0.1,0-0.3,0-0.4,0.1H65c-0.1,0-0.3,0-0.4,0.1c-0.3,0.1-0.6,0.1-0.9,0.2c-0.3,0.1-0.6,0.1-0.9,0.2
	c-0.2,0-0.3,0.1-0.5,0.1c-0.1,0-0.2,0-0.2,0.1c-0.1,0-0.2,0-0.2,0.1c-0.3,0.1-0.6,0.2-0.9,0.2c-0.4,0.1-0.8,0.2-1.2,0.3h-0.1h-0.1
	c0,0,0,0-0.1,0l0,0c-0.1,0-0.1,0-0.2,0.1h-0.1h-0.1c-0.2,0.1-0.4,0.1-0.6,0.2c-0.2,0.1-0.3,0.1-0.5,0.2H58c-0.1,0-0.2,0.1-0.2,0.1
	c-0.1,0-0.2,0.1-0.2,0.1c-0.1,0-0.2,0.1-0.2,0.1c-0.3,0.1-0.6,0.2-0.9,0.3l0,0c-6.2,2.3-11.9,6-16.9,11c-1.9,1.9-3.6,3.9-5.1,6
	c0-0.4-0.1-0.9-0.1-1.3c0-0.6,0-1.2,0-1.8c0-0.4,0-0.8,0-1.3c0.1-2.7,0.4-5.4,1.1-8c0.1-0.3,0.1-0.5,0.2-0.8l0,0
	c1.7-6.5,5.1-12.6,10.2-17.7c4.1-4.1,8.8-7,13.8-8.9c4.5-1.7,9.3-2.6,14.1-2.6c9.6,0,19.3,3.6,26.8,10.7c0.3,0.3,0.5,0.5,0.8,0.8
	l0,0c0.3,0.3,0.5,0.5,0.8,0.8C109.1,22.1,112.6,31.8,112.6,41.5z"/>
<path class="st0" d="M39.5,75.5c1.9,1.9,3.9,3.6,6,5.1c-1,0.1-2.1,0.1-3.1,0.1c-3.4,0-6.7-0.4-10-1.3l0,0
	c-6.5-1.7-12.6-5.1-17.7-10.2c-4.1-4.1-7-8.8-8.9-13.8c-1.7-4.5-2.6-9.2-2.6-14c0-9.7,3.6-19.4,10.7-26.9c0.3-0.3,0.5-0.5,0.8-0.8
	c0.3-0.3,0.5-0.5,0.8-0.8C23.1,5.8,32.7,2.2,42.4,2.2c1,0,2.1,0,3.1,0.1l-0.1,0.1c-2.1,1.5-4,3.2-5.9,5C33.3,13.6,29.1,21.1,27,29.1
	l0,0c-1.1,4-1.6,8.2-1.6,12.3c0,5.8,1,11.6,3.1,17.1C30.9,64.7,34.5,70.5,39.5,75.5z"/>
<path class="st0" d="M112.6,72.6c0,9.7-3.6,19.4-10.7,26.9c-0.3,0.3-0.5,0.5-0.8,0.8s-0.5,0.5-0.8,0.8c-7.6,7.1-17.2,10.7-26.9,10.7
	c-1,0-2.1,0-3.1-0.1c2.1-1.5,4.1-3.2,6-5.1c6.2-6.2,10.4-13.7,12.5-21.7c0,0,0,0,0-0.1c0.4-1.5,0.7-3,1-4.6c0.2-1,0.3-2,0.4-3.1
	c0.1-1.5,0.2-3.1,0.2-4.6c0-5.8-1-11.6-3.1-17.1c-1.2-3.1-2.7-6.1-4.5-8.9c-1.8-2.8-4-5.5-6.5-8c-1.9-1.9-3.9-3.6-6.1-5.1
	c0.4,0,0.9-0.1,1.3-0.1c0.6,0,1.2,0,1.8,0c0.8,0,1.7,0,2.5,0.1c2.5,0.2,5,0.6,7.5,1.2l0,0c6.5,1.7,12.6,5.1,17.7,10.2
	c4.1,4.1,7,8.8,8.9,13.8C111.8,63.1,112.6,67.8,112.6,72.6z"/>
</svg>
