<?xml version="1.0" encoding="utf-8"?>
<!-- Generator: Adobe Illustrator 26.1.0, SVG Export Plug-In . SVG Version: 6.00 Build 0)  -->
<svg version="1.1" id="Layer_1" xmlns="http://www.w3.org/2000/svg" xmlns:xlink="http://www.w3.org/1999/xlink" x="0px" y="0px"
	 viewBox="0 0 190.66 66" style="enable-background:new 0 0 190.66 66;" xml:space="preserve">
<path style="fill:#F8A1A1;" d="M31.85,7.64c5.76,0,11.52,0,17.28,0c2.56,0,4.55,1.04,5.73,3.34c2.11,4.08-0.82,8.83-5.44,8.86
	c-3.12,0.03-6.23,0.01-9.35,0.01c-6.4,0-12.81,0-19.21,0c-0.85,0-0.58,0-0.67,1.53c-0.08,1.31-0.03,2.63,0.03,3.94
	c0.02,0.39-0.07,0.5-0.43,0.49c-3.78-0.01-7.56-0.01-11.33,0c-0.25,0-0.46-0.2-0.45-0.45c0.01-3.88-0.02-7.76,0.02-11.64
	c0.03-3.26,2.49-5.83,5.74-6.05c0.3-0.02,0.61-0.02,0.91-0.02C20.4,7.64,26.13,7.64,31.85,7.64z"/>
<path style="fill:#FFD700;" d="M25.88,42.85c-5.76,0-11.52,0-17.28,0.01c-0.45,0-0.6-0.1-0.6-0.58c0.02-3.68,0.02-7.35,0-11.03
	c0-0.44,0.09-0.57,0.55-0.57c11.42,0.01,22.84,0.01,34.26,0.01c2.93,0,5.43,1.97,6.04,4.72c0.63,2.85-0.75,5.68-3.39,6.91
	c-0.9,0.42-1.86,0.54-2.86,0.54c-4.85-0.03-9.69-0.01-14.54-0.01C27.33,42.85,26.61,42.85,25.88,42.85z"/>
<path style="fill:#F87676;" d="M14.15,47.72c1.86,0,3.73,0.01,5.59-0.01c0.38,0,0.49,0.11,0.48,0.49c-0.02,1.64,0.01,3.29-0.01,4.93
	c-0.04,3.14-2.39,5.75-5.41,6.03c-3.34,0.31-6.22-1.9-6.73-5.26c-0.04-0.26-0.05-0.52-0.05-0.78c-0.01-1.65,0-3.3-0.01-4.95
	c0-0.26,0.2-0.46,0.46-0.46C10.36,47.72,12.25,47.72,14.15,47.72z"/>
<g>
	<path style="fill:#863D30;" d="M75.77,40.39V4.12H96.2v3.93H80.06v12.46h14.66v3.93H80.06v15.94L75.77,40.39L75.77,40.39z"/>
	<path style="fill:#863D30;" d="M102.84,40.39V4.12h4.29v36.27H102.84z"/>
	<path style="fill:#863D30;" d="M115.1,40.39V4.12h3.78l20.23,29.07V4.12h4.19v36.27h-3.78l-20.23-29.07v29.07H115.1z"/>
	<path style="fill:#863D30;" d="M149.94,22.3c0-2.21,0.29-4.29,0.87-6.23s1.4-3.71,2.45-5.31c1.06-1.6,2.32-2.97,3.78-4.11
		c1.46-1.14,3.1-2.02,4.9-2.63c1.81-0.61,3.75-0.92,5.82-0.92c2.55,0,4.9,0.47,7.05,1.41c2.15,0.94,4.01,2.27,5.59,3.98
		c1.58,1.72,2.81,3.75,3.68,6.08s1.3,4.9,1.3,7.69c0,2.21-0.29,4.29-0.87,6.23s-1.4,3.71-2.45,5.31s-2.32,2.97-3.78,4.11
		c-1.46,1.14-3.1,2.02-4.9,2.63c-1.81,0.61-3.75,0.92-5.82,0.92c-2.55,0-4.9-0.47-7.05-1.41s-4.01-2.26-5.59-3.98
		s-2.81-3.75-3.68-6.08S149.94,25.1,149.94,22.3z M154.34,22.25c0,2.21,0.33,4.26,1,6.13s1.59,3.49,2.78,4.85
		c1.19,1.36,2.6,2.42,4.21,3.17c1.62,0.75,3.4,1.12,5.34,1.12s3.72-0.38,5.34-1.12c1.62-0.75,3.02-1.8,4.21-3.17
		c1.19-1.36,2.12-2.98,2.78-4.85s1-3.92,1-6.13s-0.33-4.25-1-6.1c-0.66-1.86-1.59-3.46-2.78-4.83c-1.19-1.36-2.6-2.42-4.21-3.17
		c-1.62-0.75-3.4-1.12-5.34-1.12s-3.72,0.38-5.34,1.12c-1.62,0.75-3.02,1.81-4.21,3.17s-2.12,2.97-2.78,4.83
		C154.67,18,154.34,20.04,154.34,22.25z"/>
</g>
<g>
	<path style="fill:#F8A1A1;" d="M75.77,63.27v-19.3h10.87v2.09h-8.59v6.63h7.8v2.09h-7.8v8.48L75.77,63.27L75.77,63.27z"/>
	<path style="fill:#F8A1A1;" d="M90.17,63.27v-19.3h2.28v19.3H90.17z"/>
	<path style="fill:#F8A1A1;" d="M96.69,63.27v-19.3h2.01l10.76,15.46V43.98h2.23v19.3h-2.01L98.92,47.81v15.46H96.69z"/>
	<path style="fill:#F8A1A1;" d="M114.44,63.27l7.77-19.3h2.42l7.77,19.3h-2.45l-2.15-5.49h-8.86l-2.15,5.49
		C116.79,63.27,114.44,63.27,114.44,63.27z M119.77,55.69h7.2l-3.59-9.19L119.77,55.69z"/>
	<path style="fill:#F8A1A1;" d="M135.15,63.27v-19.3h2.01l10.76,15.46V43.98h2.23v19.3h-2.01l-10.76-15.46v15.46L135.15,63.27
		L135.15,63.27z"/>
	<path style="fill:#F8A1A1;" d="M162.84,63.81c-1.32,0-2.54-0.25-3.66-0.75c-1.11-0.5-2.08-1.2-2.91-2.09
		c-0.82-0.9-1.46-1.96-1.92-3.18c-0.45-1.22-0.68-2.56-0.68-4.01c0-1.18,0.15-2.29,0.45-3.33s0.72-1.99,1.28-2.85
		c0.55-0.86,1.2-1.6,1.96-2.23c0.75-0.62,1.59-1.11,2.51-1.44c0.92-0.34,1.9-0.5,2.94-0.5c1.16,0,2.24,0.2,3.25,0.6
		c1.01,0.4,1.89,0.96,2.66,1.69c0.77,0.72,1.36,1.59,1.78,2.61l-2.09,0.79c-0.56-1.14-1.33-2.03-2.3-2.65
		c-0.97-0.62-2.06-0.94-3.28-0.94c-0.98,0-1.88,0.21-2.7,0.63c-0.82,0.42-1.54,1-2.16,1.74s-1.1,1.61-1.44,2.61
		s-0.52,2.08-0.52,3.26c0,1.16,0.17,2.22,0.5,3.19c0.34,0.97,0.81,1.81,1.43,2.53c0.62,0.72,1.35,1.27,2.19,1.66
		s1.76,0.58,2.76,0.58c1.25,0,2.36-0.31,3.33-0.92c0.97-0.62,1.76-1.5,2.38-2.66l2.09,0.79c-0.43,1.02-1.04,1.89-1.82,2.62
		c-0.78,0.73-1.69,1.3-2.72,1.69C165.12,63.62,164.02,63.81,162.84,63.81z"/>
	<path style="fill:#F8A1A1;" d="M174.01,63.27v-19.3h11.12v2.04h-8.83v6.2h8.07v2.07h-8.07v6.93h9.1v2.07h-11.39V63.27z"/>
</g>
</svg>
