<?xml version="1.0" encoding="utf-8"?>
<!-- Generator: Adobe Illustrator 26.1.0, SVG Export Plug-In . SVG Version: 6.00 Build 0)  -->
<svg version="1.1" id="Layer_1" xmlns="http://www.w3.org/2000/svg" xmlns:xlink="http://www.w3.org/1999/xlink" x="0px" y="0px"
	 viewBox="0 0 338.62 120.98" style="enable-background:new 0 0 338.62 120.98;" xml:space="preserve">
<path style="fill:#E00000;" d="M99.3,87.25c-11.53,12.71-28.11,24.5-31.98,26.78c-4.51-2.43-21.73-14.31-36.87-29.53
	c-7.31-7.35-14.05-14.85-19.09-23.96c-4.97-8.96-9.05-19.21-6.32-29.57C9.61,13.64,25.5,6.99,39.23,8.08
	C51.52,9.06,64.56,16.57,66,31.13c0.07,0.69,0.65,1.22,1.34,1.22c0.69,0,1.27-0.53,1.34-1.22C69.82,19.69,78.91,10.6,91.83,7.97
	c10.29-2.09,25,0.39,32.58,14.28c5.24,9.59,4.65,15.44,4.64,15.49c-0.09,0.74,0.43,1.41,1.17,1.51c0.74,0.09,1.41-0.43,1.51-1.17
	c0.03-0.27,0.75-6.67-4.95-17.12C119.96,8.47,106.03,2.33,91.29,5.33c-11.72,2.38-20.56,9.7-23.93,19.36
	C63.22,12.62,51.02,6.32,39.45,5.39C24.59,4.2,7.39,11.45,2.43,30.28C-7.38,67.48,60.75,114,66.78,116.77
	c0.18,0.08,0.37,0.12,0.56,0.12c0.2,0,0.4-0.04,0.58-0.13c2.79-1.34,20.85-13.91,33.37-27.7c0.5-0.55,0.46-1.41-0.09-1.91
	C100.65,86.65,99.8,86.69,99.3,87.25z"/>
<path style="fill:#0069BF;" d="M319.97,61.36H127.85l-2.51-11.28c-0.14-0.65-0.75-1.08-1.4-1.05c-0.66,0.04-1.2,0.55-1.26,1.21
	l-4.02,39.67l-3.99-64.58c-0.04-0.71-0.62-1.26-1.33-1.27h-0.02c-0.7,0-1.28,0.54-1.34,1.23l-4.31,50.59l-2.84-24.05
	c-0.08-0.69-0.66-1.16-1.36-1.19c-0.69,0.01-1.26,0.54-1.33,1.22l-1.32,14.26l-1.51-3.91c-0.2-0.52-0.7-0.86-1.26-0.86H21.38
	c-0.23,1.04-0.76,2.01-1.58,2.7h77.32l3.25,8.41c0.23,0.58,0.82,0.94,1.44,0.85c0.62-0.09,1.1-0.59,1.16-1.21l0.67-7.25l2.9,24.53
	c0.08,0.69,0.65,1.18,1.36,1.19c0.69-0.01,1.26-0.55,1.32-1.23l3.88-45.52l3.88,62.76c0.04,0.7,0.62,1.25,1.32,1.27
	c0.01,0,0.02,0,0.03,0c0.69,0,1.27-0.52,1.34-1.21l4.85-47.83l0.93,4.18c0.14,0.62,0.68,1.06,1.32,1.06h193.2
	c0.75,0,1.35-0.6,1.35-1.35S320.71,61.36,319.97,61.36z"/>
<g>
	<path style="fill:#0069BF;" d="M143.6,45.91l4.81-27.38H156l-4.81,27.38H143.6z"/>
	<path style="fill:#0069BF;" d="M176.37,35.38l3,10.53h-5.62l-8.86-14.74l-2.6,14.74h-7.59l4.81-27.38h6.64L176.37,35.38z"/>
	<path style="fill:#0069BF;" d="M173.78,45.91l4.81-27.38h11.56c2.08,0,3.97,0.29,5.67,0.88c1.7,0.58,3.11,1.45,4.24,2.61
		c1.13,1.15,1.92,2.58,2.38,4.28c0.46,1.7,0.49,3.67,0.1,5.91c-0.36,2.04-1.02,3.9-1.96,5.59c-0.95,1.68-2.15,3.13-3.6,4.33
		c-1.46,1.2-3.16,2.13-5.1,2.8s-4.1,1-6.46,1H173.78z M182.5,39.59h3.84c2.38,0,4.29-0.61,5.75-1.84c1.46-1.23,2.4-3.05,2.83-5.47
		c0.2-1.15,0.24-2.19,0.1-3.11c-0.13-0.92-0.45-1.7-0.94-2.34c-0.49-0.64-1.16-1.12-2.01-1.46c-0.85-0.34-1.9-0.5-3.13-0.5h-3.85
		L182.5,39.59z"/>
	<path style="fill:#0069BF;" d="M204.38,32.18c0.23-1.33,0.63-2.61,1.21-3.84s1.29-2.37,2.12-3.43c0.84-1.06,1.79-2.03,2.87-2.9
		c1.07-0.87,2.23-1.62,3.45-2.23c1.23-0.62,2.51-1.1,3.86-1.44c1.34-0.34,2.71-0.51,4.11-0.51c2.08,0,3.97,0.37,5.68,1.12
		c1.71,0.74,3.13,1.77,4.27,3.07c1.14,1.3,1.95,2.82,2.44,4.56s0.55,3.61,0.2,5.61c-0.24,1.33-0.65,2.6-1.23,3.83
		c-0.58,1.22-1.29,2.37-2.12,3.43c-0.84,1.07-1.79,2.04-2.87,2.92c-1.07,0.88-2.22,1.63-3.45,2.25c-1.23,0.62-2.52,1.11-3.87,1.45
		s-2.71,0.51-4.1,0.51c-2.09,0-3.99-0.38-5.69-1.13c-1.7-0.75-3.12-1.78-4.26-3.08c-1.14-1.3-1.95-2.83-2.43-4.58
		S204.03,34.16,204.38,32.18z M211.95,32.2c-0.2,1.14-0.19,2.2,0.02,3.19c0.21,0.99,0.6,1.84,1.16,2.56
		c0.56,0.72,1.25,1.28,2.09,1.69c0.84,0.41,1.78,0.61,2.83,0.61c1.05,0,2.07-0.2,3.06-0.61c0.99-0.41,1.89-0.97,2.7-1.69
		c0.81-0.72,1.49-1.57,2.05-2.56c0.56-0.99,0.95-2.05,1.15-3.19c0.2-1.15,0.19-2.22-0.02-3.2c-0.21-0.98-0.6-1.83-1.16-2.55
		c-0.56-0.72-1.26-1.28-2.1-1.69c-0.84-0.41-1.79-0.61-2.84-0.61c-1.05,0-2.06,0.2-3.05,0.61c-0.99,0.41-1.88,0.97-2.69,1.69
		c-0.81,0.72-1.49,1.57-2.05,2.55C212.53,29.98,212.15,31.04,211.95,32.2z"/>
	<path style="fill:#0069BF;" d="M260.33,18.57l0.87,16.73h0.08l7.79-16.79h8.01l-13.97,27.4h-7.27l-1.77-14.46l-6.87,14.46h-7.27
		l-4.35-27.4h8.01l1.89,16.79h0.1l6.75-16.73H260.33z"/>
	<path style="fill:#0069BF;" d="M273.74,45.91l4.81-27.38h7.59l-4.81,27.38H273.74z"/>
	<path style="fill:#0069BF;" d="M306.52,35.38l3,10.53h-5.62l-8.86-14.74l-2.6,14.74h-7.59l4.81-27.38h6.64L306.52,35.38z"/>
	<path style="fill:#0069BF;" d="M303.92,45.91l4.81-27.38h11.56c2.08,0,3.97,0.29,5.67,0.88c1.7,0.58,3.11,1.45,4.24,2.61
		c1.13,1.15,1.92,2.58,2.38,4.28c0.46,1.7,0.49,3.67,0.1,5.91c-0.36,2.04-1.02,3.9-1.96,5.59c-0.95,1.68-2.15,3.13-3.6,4.33
		c-1.46,1.2-3.16,2.13-5.1,2.8s-4.1,1-6.46,1H303.92z M312.64,39.59h3.85c2.38,0,4.29-0.61,5.75-1.84c1.46-1.23,2.4-3.05,2.83-5.47
		c0.2-1.15,0.23-2.19,0.1-3.11s-0.45-1.7-0.94-2.34c-0.49-0.64-1.16-1.12-2.01-1.46c-0.85-0.34-1.9-0.5-3.13-0.5h-3.85L312.64,39.59
		z"/>
</g>
<g>
	<path style="fill:#E00000;" d="M140.52,97.39l4.07-23.16h2.01l-1.91,10.8h14.78l1.89-10.8h2.03l-4.07,23.16h-2.03l1.86-10.57
		h-14.76l-1.86,10.57H140.52z"/>
	<path style="fill:#E00000;" d="M166.02,88.76c0.23-1.26,0.68-2.44,1.35-3.55c0.67-1.11,1.5-2.07,2.48-2.89
		c0.98-0.82,2.08-1.46,3.3-1.93c1.22-0.47,2.48-0.71,3.79-0.71c1.32,0,2.5,0.24,3.55,0.71c1.05,0.47,1.92,1.12,2.61,1.93
		s1.18,1.78,1.46,2.89c0.28,1.11,0.31,2.29,0.09,3.55c-0.02,0.11-0.03,0.19-0.03,0.24l-0.02,0.14h-0.02l-0.07,0.27h-16.67
		c-0.1,1.03-0.01,1.96,0.29,2.79s0.73,1.54,1.3,2.13c0.57,0.59,1.26,1.04,2.06,1.36c0.8,0.32,1.65,0.48,2.55,0.48
		c0.69,0,1.37-0.09,2.03-0.26s1.29-0.41,1.89-0.73c0.6-0.32,1.15-0.7,1.67-1.14c0.52-0.44,0.97-0.94,1.37-1.48h2.13
		c-0.48,0.76-1.05,1.46-1.71,2.11c-0.66,0.65-1.4,1.21-2.21,1.68c-0.81,0.47-1.68,0.84-2.61,1.11s-1.89,0.4-2.88,0.4
		c-1.31,0-2.48-0.24-3.53-0.71s-1.92-1.12-2.61-1.94c-0.69-0.82-1.17-1.79-1.46-2.89C165.84,91.2,165.81,90.02,166.02,88.76z
		 M176.67,81.35c-0.98,0-1.92,0.16-2.83,0.49c-0.91,0.33-1.75,0.79-2.5,1.37c-0.76,0.58-1.41,1.28-1.97,2.08
		c-0.56,0.8-0.97,1.67-1.24,2.6h14.69c0.06-0.93-0.05-1.8-0.32-2.6c-0.27-0.8-0.68-1.49-1.22-2.08c-0.54-0.58-1.2-1.04-1.98-1.37
		C178.5,81.52,177.63,81.35,176.67,81.35z"/>
	<path style="fill:#E00000;" d="M188.47,88.76c0.23-1.26,0.67-2.44,1.34-3.55c0.66-1.11,1.48-2.07,2.44-2.89
		c0.96-0.82,2.05-1.46,3.26-1.93c1.21-0.47,2.47-0.71,3.77-0.71c0.84,0,1.62,0.1,2.33,0.31c0.71,0.2,1.36,0.49,1.94,0.84
		c0.58,0.36,1.08,0.78,1.52,1.27s0.78,1.02,1.04,1.58l0.78-3.54h1.75l-3.05,17.25h-1.74l0.46-3.51c-0.47,0.56-1,1.08-1.62,1.57
		c-0.61,0.49-1.27,0.91-1.98,1.26c-0.7,0.35-1.45,0.63-2.24,0.83s-1.59,0.31-2.41,0.31c-1.31,0-2.48-0.24-3.52-0.71
		c-1.04-0.47-1.91-1.12-2.58-1.93c-0.68-0.82-1.15-1.78-1.42-2.89C188.28,91.22,188.25,90.03,188.47,88.76z M190.44,88.76
		c-0.18,1.04-0.16,2.01,0.07,2.91c0.23,0.9,0.62,1.67,1.17,2.32c0.55,0.65,1.24,1.17,2.08,1.54c0.83,0.38,1.76,0.56,2.78,0.56
		c1.02,0,2.01-0.18,2.97-0.55c0.96-0.37,1.83-0.88,2.62-1.54c0.79-0.66,1.46-1.43,2-2.32c0.54-0.89,0.91-1.86,1.09-2.92
		c0.18-1.04,0.16-2.01-0.08-2.9c-0.23-0.89-0.62-1.66-1.17-2.32c-0.55-0.65-1.24-1.17-2.08-1.54c-0.83-0.37-1.76-0.56-2.78-0.56
		c-1.02,0-2.02,0.19-2.98,0.56c-0.96,0.38-1.84,0.89-2.62,1.54c-0.78,0.65-1.44,1.42-1.98,2.32
		C190.98,86.75,190.62,87.71,190.44,88.76z"/>
	<path style="fill:#E00000;" d="M225.35,80.14l-0.32,1.79h-1.77c-0.95,0-1.85,0.14-2.7,0.43c-0.85,0.29-1.61,0.72-2.28,1.28
		s-1.25,1.26-1.72,2.1c-0.47,0.84-0.8,1.82-1,2.93l-1.53,8.72h-1.96l3.05-17.25h1.67l-0.41,3.32c0.38-0.49,0.81-0.93,1.32-1.34
		c0.5-0.4,1.06-0.75,1.66-1.05s1.25-0.53,1.95-0.69c0.7-0.17,1.43-0.25,2.21-0.25H225.35z"/>
	<path style="fill:#E00000;" d="M230.18,79.99l1.33-4.99l1.55-0.02l-0.9,5.16h6.52l-0.32,1.75h-6.52l-1.6,9.06
		c-0.18,1-0.21,1.83-0.09,2.49s0.34,1.18,0.66,1.56c0.32,0.38,0.71,0.65,1.18,0.8c0.47,0.15,0.98,0.23,1.52,0.23h3.08l-0.31,1.69
		h-3.24c-0.85,0-1.62-0.12-2.31-0.35s-1.25-0.61-1.69-1.14c-0.44-0.53-0.73-1.22-0.88-2.09c-0.15-0.86-0.11-1.92,0.1-3.18l1.6-9.06
		h-3.17l0.29-1.62L230.18,79.99z"/>
	<path style="fill:#E00000;" d="M274.1,81.05H272c-0.27-0.84-0.66-1.6-1.17-2.28c-0.51-0.68-1.12-1.26-1.82-1.74
		c-0.7-0.48-1.49-0.85-2.37-1.11c-0.87-0.26-1.8-0.39-2.79-0.39c-1.42,0-2.8,0.26-4.14,0.79c-1.34,0.53-2.56,1.25-3.65,2.18
		c-1.1,0.93-2.02,2.01-2.78,3.26c-0.75,1.25-1.26,2.59-1.52,4.04c-0.25,1.43-0.22,2.77,0.1,4.02c0.32,1.25,0.86,2.33,1.63,3.25
		c0.77,0.92,1.73,1.64,2.89,2.17c1.16,0.53,2.45,0.79,3.87,0.79c0.99,0,1.96-0.13,2.92-0.38c0.96-0.26,1.88-0.62,2.75-1.1
		s1.69-1.06,2.44-1.74c0.75-0.68,1.42-1.44,1.98-2.28h2.11c-0.66,1.12-1.46,2.14-2.39,3.04c-0.94,0.9-1.95,1.67-3.05,2.3
		c-1.1,0.63-2.25,1.11-3.46,1.45c-1.21,0.33-2.42,0.5-3.62,0.5c-1.7,0-3.24-0.31-4.62-0.94c-1.38-0.62-2.53-1.48-3.45-2.56
		s-1.57-2.36-1.96-3.82c-0.39-1.46-0.43-3.03-0.14-4.7c0.19-1.12,0.53-2.2,1-3.24s1.06-2,1.75-2.89c0.69-0.89,1.47-1.7,2.34-2.43
		s1.81-1.36,2.82-1.87c1-0.52,2.05-0.92,3.15-1.2c1.1-0.28,2.21-0.43,3.35-0.43c1.2,0,2.35,0.17,3.44,0.5s2.07,0.81,2.95,1.44
		c0.87,0.62,1.62,1.39,2.24,2.29S273.85,79.9,274.1,81.05z"/>
	<path style="fill:#E00000;" d="M276.86,88.76c0.23-1.26,0.67-2.44,1.34-3.55c0.66-1.11,1.48-2.07,2.44-2.89
		c0.96-0.82,2.05-1.46,3.26-1.93c1.21-0.47,2.47-0.71,3.77-0.71c0.84,0,1.62,0.1,2.33,0.31c0.71,0.2,1.36,0.49,1.94,0.84
		c0.58,0.36,1.08,0.78,1.52,1.27s0.78,1.02,1.04,1.58l0.78-3.54h1.75l-3.05,17.25h-1.74l0.46-3.51c-0.47,0.56-1,1.08-1.62,1.57
		c-0.61,0.49-1.27,0.91-1.98,1.26c-0.7,0.35-1.45,0.63-2.24,0.83s-1.59,0.31-2.41,0.31c-1.31,0-2.48-0.24-3.52-0.71
		c-1.04-0.47-1.91-1.12-2.58-1.93c-0.68-0.82-1.15-1.78-1.42-2.89C276.67,91.22,276.64,90.03,276.86,88.76z M278.83,88.76
		c-0.18,1.04-0.16,2.01,0.07,2.91c0.23,0.9,0.62,1.67,1.17,2.32c0.55,0.65,1.24,1.17,2.08,1.54c0.83,0.38,1.76,0.56,2.78,0.56
		c1.02,0,2.01-0.18,2.97-0.55c0.96-0.37,1.83-0.88,2.62-1.54c0.79-0.66,1.46-1.43,2-2.32c0.54-0.89,0.91-1.86,1.09-2.92
		c0.18-1.04,0.16-2.01-0.08-2.9c-0.23-0.89-0.62-1.66-1.17-2.32c-0.55-0.65-1.24-1.17-2.08-1.54c-0.83-0.37-1.76-0.56-2.78-0.56
		c-1.02,0-2.02,0.19-2.98,0.56c-0.96,0.38-1.84,0.89-2.62,1.54c-0.78,0.65-1.44,1.42-1.98,2.32
		C279.37,86.75,279.01,87.71,278.83,88.76z"/>
	<path style="fill:#E00000;" d="M313.74,80.14l-0.32,1.79h-1.77c-0.95,0-1.85,0.14-2.7,0.43c-0.85,0.29-1.61,0.72-2.28,1.28
		s-1.25,1.26-1.72,2.1c-0.47,0.84-0.8,1.82-1,2.93l-1.53,8.72h-1.96l3.05-17.25h1.67l-0.41,3.32c0.38-0.49,0.81-0.93,1.32-1.34
		c0.5-0.4,1.06-0.75,1.66-1.05s1.25-0.53,1.95-0.69c0.7-0.17,1.43-0.25,2.21-0.25H313.74z"/>
	<path style="fill:#E00000;" d="M315.02,88.76c0.23-1.26,0.68-2.44,1.35-3.55c0.67-1.11,1.5-2.07,2.48-2.89
		c0.98-0.82,2.08-1.46,3.3-1.93c1.22-0.47,2.48-0.71,3.79-0.71c1.32,0,2.5,0.24,3.55,0.71c1.05,0.47,1.92,1.12,2.61,1.93
		s1.18,1.78,1.46,2.89c0.28,1.11,0.31,2.29,0.09,3.55c-0.02,0.11-0.03,0.19-0.03,0.24l-0.02,0.14h-0.02l-0.07,0.27h-16.67
		c-0.1,1.03-0.01,1.96,0.29,2.79s0.73,1.54,1.3,2.13c0.57,0.59,1.26,1.04,2.06,1.36c0.8,0.32,1.65,0.48,2.55,0.48
		c0.69,0,1.37-0.09,2.03-0.26s1.29-0.41,1.89-0.73c0.6-0.32,1.15-0.7,1.67-1.14c0.52-0.44,0.97-0.94,1.37-1.48h2.13
		c-0.48,0.76-1.05,1.46-1.71,2.11c-0.66,0.65-1.4,1.21-2.21,1.68c-0.81,0.47-1.68,0.84-2.61,1.11s-1.89,0.4-2.88,0.4
		c-1.31,0-2.48-0.24-3.53-0.71s-1.92-1.12-2.61-1.94c-0.69-0.82-1.17-1.79-1.46-2.89C314.84,91.2,314.8,90.02,315.02,88.76z
		 M325.66,81.35c-0.98,0-1.92,0.16-2.83,0.49c-0.91,0.33-1.75,0.79-2.5,1.37c-0.76,0.58-1.41,1.28-1.97,2.08
		c-0.56,0.8-0.97,1.67-1.24,2.6h14.69c0.06-0.93-0.05-1.8-0.32-2.6c-0.27-0.8-0.68-1.49-1.22-2.08c-0.54-0.58-1.2-1.04-1.98-1.37
		C327.5,81.52,326.62,81.35,325.66,81.35z"/>
</g>
</svg>
