<?xml version="1.0" encoding="utf-8"?>
<!-- Generator: Adobe Illustrator 26.1.0, SVG Export Plug-In . SVG Version: 6.00 Build 0)  -->
<svg version="1.1" id="Layer_1" xmlns="http://www.w3.org/2000/svg" xmlns:xlink="http://www.w3.org/1999/xlink" x="0px" y="0px"
	 viewBox="0 0 179.51 37.22" style="enable-background:new 0 0 179.51 37.22;" xml:space="preserve">
<g>
	<linearGradient id="SVGID_1_" gradientUnits="userSpaceOnUse" x1="-12.665" y1="49.4045" x2="50.135" y2="-13.3955">
		<stop  offset="0" style="stop-color:#E6C292"/>
		<stop  offset="0.3054" style="stop-color:#A5806B"/>
		<stop  offset="0.6522" style="stop-color:#E6C292"/>
		<stop  offset="1" style="stop-color:#A5806B"/>
	</linearGradient>
	<path style="fill:url(#SVGID_1_);" d="M34.43,13.7l-0.91,0.04c0.43,1.46,0.75,3.26,0.75,4.8c0,2.17-0.42,4.27-1.26,6.25
		c-0.81,1.91-1.97,3.63-3.44,5.11c-1.48,1.48-3.19,2.63-5.11,3.44c-1.98,0.84-4.08,1.26-6.25,1.26c-2.17,0-4.27-0.42-6.25-1.26
		c-1.91-0.81-3.63-1.97-5.11-3.44c-1.48-1.48-2.63-3.19-3.44-5.11c-0.84-1.98-1.26-4.08-1.26-6.25s0.42-4.27,1.26-6.25
		c0.81-1.91,1.97-3.63,3.44-5.11c1.48-1.48,3.19-2.63,5.11-3.44c1.98-0.84,4.08-1.26,6.25-1.26c3.3,0,6.48,1,9.18,2.88
		c2.46,1.72,4.38,4.06,5.56,6.79h-0.87h-0.01h-1.58h-3.45h-0.59v0.87h0.59h3.87h1.16h0.01h2.15l-0.23-0.59
		c-1.22-3.15-3.34-5.84-6.12-7.78c-2.85-1.98-6.19-3.03-9.67-3.03c-2.29,0-4.5,0.45-6.59,1.33C9.59,3.79,7.78,5.01,6.22,6.57
		c-1.55,1.55-2.78,3.37-3.63,5.38c-0.88,2.09-1.33,4.31-1.33,6.59s0.45,4.5,1.33,6.59c0.85,2.02,2.07,3.83,3.63,5.38
		c1.55,1.55,3.37,2.78,5.38,3.63c2.09,0.88,4.31,1.33,6.59,1.33c2.29,0,4.5-0.45,6.59-1.33c2.02-0.85,3.83-2.07,5.38-3.63
		c1.56-1.55,2.78-3.37,3.63-5.38c0.88-2.09,1.33-4.31,1.33-6.59C35.13,16.92,34.88,15.24,34.43,13.7z"/>
	
		<linearGradient id="SVGID_00000152247782152196423750000012636462348382498227_" gradientUnits="userSpaceOnUse" x1="-12.4213" y1="49.6484" x2="50.3787" y2="-13.1516">
		<stop  offset="0" style="stop-color:#E6C292"/>
		<stop  offset="0.3054" style="stop-color:#A5806B"/>
		<stop  offset="0.6522" style="stop-color:#E6C292"/>
		<stop  offset="1" style="stop-color:#A5806B"/>
	</linearGradient>
	<path style="fill:url(#SVGID_00000152247782152196423750000012636462348382498227_);" d="M26.43,11.72v1.59c0,0.01,0,0.03,0,0.04
		c0,0.03-0.01,0.05-0.03,0.07c-0.04,0.07-0.11,0.11-0.19,0.11H23.2c-0.12,0-0.22-0.1-0.22-0.22v-1.59c0-0.12,0.1-0.22,0.22-0.22
		h3.01c0.12,0,0.21,0.09,0.22,0.2C26.43,11.71,26.43,11.72,26.43,11.72z"/>
</g>
<g>
	<path style="fill:none;" d="M11.59,26.69c-1.74-1.4-2.84-3.39-3.09-5.62l-1.05,0.12c0.28,2.5,1.51,4.75,3.47,6.32
		c1.96,1.57,4.43,2.29,6.93,2.01l-0.12-1.05C15.52,28.72,13.33,28.09,11.59,26.69z"/>
	<path style="fill:none;" d="M11.46,20.42l-1.26,0.14c0.43,3.86,3.91,6.65,7.77,6.23l-0.14-1.26C14.66,25.88,11.81,23.6,11.46,20.42
		z"/>
	<path style="fill:none;" d="M15.9,14.83c-1.13,0.62-1.91,1.73-2.12,2.99c-0.64,3.82,3.24,6.58,6.64,4.71
		c1.13-0.62,1.91-1.73,2.12-2.99C23.17,15.72,19.29,12.96,15.9,14.83z"/>
	
		<linearGradient id="SVGID_00000019674752794352841950000002689437473386254220_" gradientUnits="userSpaceOnUse" x1="-9.7021" y1="46.6835" x2="48.9204" y2="-11.939">
		<stop  offset="0" style="stop-color:#E6C292"/>
		<stop  offset="0.3054" style="stop-color:#A5806B"/>
		<stop  offset="0.6522" style="stop-color:#E6C292"/>
		<stop  offset="1" style="stop-color:#A5806B"/>
	</linearGradient>
	<path style="fill:url(#SVGID_00000019674752794352841950000002689437473386254220_);" d="M31.11,13.53h-4.09v0.19
		c0,0.12-0.1,0.22-0.22,0.22h-4.14c-0.12,0-0.22-0.1-0.22-0.22v-2.45c0-0.12,0.1-0.22,0.22-0.22h4.14c0.12,0,0.22,0.1,0.22,0.22
		v0.28h3.11c-3.33-5.58-10.36-8.46-17.16-5.82c-4.6,1.78-8.56,7.31-8.76,12.25C3.8,28.52,14.44,35.77,24.22,31.26
		c4.19-1.93,7.12-5.88,7.74-10.45C32.32,18.16,31.97,15.7,31.11,13.53z M10.93,27.51c-1.96-1.57-3.2-3.82-3.47-6.32l1.05-0.12
		c0.24,2.22,1.34,4.22,3.09,5.62c1.74,1.4,3.93,2.03,6.15,1.79l0.12,1.05C15.35,29.8,12.89,29.09,10.93,27.51z M10.2,20.56
		l1.26-0.14c0.35,3.17,3.2,5.46,6.37,5.11l0.14,1.26C14.11,27.22,10.63,24.42,10.2,20.56z M22.54,19.54c-0.21,1.27-1,2.38-2.12,2.99
		c-3.4,1.86-7.28-0.89-6.64-4.71c0.21-1.27,1-2.38,2.12-2.99C19.29,12.96,23.17,15.72,22.54,19.54z"/>
</g>
<g>
	<path style="fill:#A5806B;" d="M58.54,24.85v3.11h-5.02h-0.34h-0.29c-0.73,0-1.38-0.04-1.95-0.1s-1.18-0.25-1.84-0.55
		c-0.66-0.3-1.25-0.71-1.75-1.23s-0.88-1.09-1.11-1.69s-0.4-1.24-0.48-1.92c-0.09-0.68-0.13-1.39-0.13-2.12V9.16h3.92v10.33
		c0,0.45,0,0.84,0,1.17c0,0.32,0.03,0.76,0.09,1.32c0.06,0.56,0.24,1.06,0.54,1.52c0.26,0.45,0.7,0.79,1.31,1.02
		c0.61,0.23,1.4,0.34,2.35,0.34H58.54z"/>
	<path style="fill:#A5806B;" d="M64.77,27.97V19.7L57.68,9.16h4.4l4.66,7.22l4.68-7.22h4.55L68.77,19.7v8.27H64.77z"/>
	<path style="fill:#A5806B;" d="M80.78,27.97h-3.95V9.16h3.95v9.05l7.4-9.05h4.74l-7.56,9.21l7.61,9.6h-5.05l-7.14-9.34V27.97z"/>
	<path style="fill:#A5806B;" d="M96.06,27.97h-4.19l7.9-18.81h4.19l8.03,18.81h-4.4l-1.73-4.5h-8.19L96.06,27.97z M98.96,20.14h5.62
		l-2.85-7.19L98.96,20.14z"/>
	<path style="fill:#A5806B;" d="M125.02,27.97h-3.95V9.16h8.58c1.31,0,2.39,0.06,3.24,0.17s1.61,0.38,2.28,0.8
		c0.87,0.49,1.53,1.21,1.96,2.15s0.65,1.96,0.65,3.05c0,0.96-0.17,1.87-0.51,2.73c-0.34,0.86-0.83,1.53-1.47,2.01
		c-0.64,0.48-1.2,0.79-1.7,0.92c-0.5,0.13-0.89,0.23-1.19,0.29s-0.59,0.09-0.89,0.09h-2.22h-4.79V27.97z M129.6,12.53h-4.58v5.52
		h4.79c2.39,0,3.58-0.92,3.58-2.75c0-1.1-0.34-1.84-1.01-2.21C131.71,12.72,130.78,12.53,129.6,12.53z"/>
	<path style="fill:#A5806B;" d="M140.43,20.56V9.16h3.95v11.3c0,0.35,0.02,0.7,0.05,1.06c0.03,0.36,0.1,0.77,0.2,1.23
		c0.1,0.46,0.3,0.88,0.6,1.26c0.3,0.38,0.74,0.66,1.29,0.86c0.56,0.2,1.26,0.3,2.09,0.3c1.12,0,1.98-0.17,2.58-0.52
		s1.02-0.85,1.26-1.5c0.24-0.65,0.35-1.55,0.35-2.68V9.16h3.92v11.41c0,0.49-0.02,0.98-0.05,1.46s-0.08,0.97-0.13,1.44
		c-0.14,0.79-0.64,1.77-1.51,2.94s-3.01,1.77-6.44,1.77c-3.48,0-5.63-0.54-6.44-1.63s-1.28-1.84-1.39-2.25
		c-0.11-0.41-0.2-0.74-0.25-0.98c-0.05-0.24-0.08-0.52-0.08-0.84c0-0.24,0-0.47,0-0.69c0-0.22,0-0.43,0-0.64V20.56z"/>
	<path style="fill:#A5806B;" d="M170.91,27.97h-10.33V9.16h9.65c0.98,0,1.81,0.06,2.5,0.18s1.49,0.37,2.39,0.73
		c0.91,0.37,1.47,1.04,1.7,2.03c0.23,0.99,0.34,1.73,0.34,2.24c0,1.78-0.92,3.19-2.77,4.24c0.61,0.3,1.13,0.65,1.57,1.07
		c0.44,0.42,0.76,0.88,0.97,1.37c0.21,0.5,0.31,1.06,0.31,1.69c0,0.52-0.09,1.18-0.26,1.96c-0.17,0.78-0.48,1.36-0.93,1.74
		c-0.44,0.38-0.85,0.65-1.2,0.84c-0.36,0.18-0.87,0.35-1.54,0.5C172.63,27.89,171.83,27.97,170.91,27.97z M170.28,12.53h-5.75v4.34
		h5.75c0.84,0,1.48-0.17,1.94-0.5c0.45-0.33,0.68-0.88,0.68-1.65C172.89,13.26,172.02,12.53,170.28,12.53z M164.52,20.2v4.45h5.77
		c0.85,0,1.49-0.17,1.94-0.51c0.44-0.34,0.66-0.9,0.66-1.69c0-1.5-0.87-2.25-2.6-2.25H164.52z"/>
</g>
</svg>
