<?xml version="1.0" encoding="utf-8"?>
<!-- Generator: Adobe Illustrator 26.1.0, SVG Export Plug-In . SVG Version: 6.00 Build 0)  -->
<svg version="1.1" id="Layer_1" xmlns="http://www.w3.org/2000/svg" xmlns:xlink="http://www.w3.org/1999/xlink" x="0px" y="0px"
	 viewBox="0 0 202.06 66" style="enable-background:new 0 0 202.06 66;" xml:space="preserve">
<g>
	<g>
		<g>
			<g>
				<path style="fill:#006CD9;" d="M7.15,49.89c2.55,1.2,5.55,1.03,8.3,0.38c2.75-0.65,5.37-1.74,8.13-2.35
					c5.94-1.31,12.38-0.21,17.56,2.99V40.41c-5.18-3.2-11.61-4.29-17.56-2.99c-2.76,0.61-5.38,1.7-8.13,2.35s-5.74,0.82-8.3-0.38
					V49.89z"/>
			</g>
		</g>
		<path style="fill:#0046CD;" d="M7.15,54.02c2.55,1.2,5.55,1.03,8.3,0.38c2.75-0.65,5.37-1.74,8.13-2.35
			c5.94-1.31,12.38-0.21,17.56,2.99v-1.88c-5.18-3.2-11.61-4.29-17.56-2.99c-2.76,0.61-5.38,1.7-8.13,2.35
			c-2.75,0.65-5.74,0.82-8.3-0.38V54.02z"/>
		<path style="fill:#0046CD;" d="M7.15,58.02c2.55,1.2,5.55,1.03,8.3,0.38c2.75-0.65,5.37-1.74,8.13-2.35
			c5.94-1.31,12.38-0.21,17.56,2.99v-1.88c-5.18-3.2-11.61-4.29-17.56-2.99c-2.76,0.61-5.38,1.7-8.13,2.35
			c-2.75,0.65-5.74,0.82-8.3-0.38V58.02z"/>
		<g>
			<g>
				<path style="fill:#006CD9;" d="M76.58,49.89c-2.55,1.2-5.55,1.03-8.3,0.38c-2.75-0.65-5.37-1.74-8.13-2.35
					c-5.94-1.31-12.38-0.21-17.56,2.99V40.41c5.18-3.2,11.61-4.29,17.56-2.99c2.76,0.61,5.38,1.7,8.13,2.35
					c2.75,0.65,5.74,0.82,8.3-0.38V49.89z"/>
			</g>
		</g>
		<path style="fill:#0046CD;" d="M76.58,54.02c-2.55,1.2-5.55,1.03-8.3,0.38c-2.75-0.65-5.37-1.74-8.13-2.35
			c-5.94-1.31-12.38-0.21-17.56,2.99v-1.88c5.18-3.2,11.61-4.29,17.56-2.99c2.76,0.61,5.38,1.7,8.13,2.35
			c2.75,0.65,5.74,0.82,8.3-0.38V54.02z"/>
		<path style="fill:#0046CD;" d="M76.58,58.02c-2.55,1.2-5.55,1.03-8.3,0.38c-2.75-0.65-5.37-1.74-8.13-2.35
			c-5.94-1.31-12.38-0.21-17.56,2.99v-1.88c5.18-3.2,11.61-4.29,17.56-2.99c2.76,0.61,5.38,1.7,8.13,2.35
			c2.75,0.65,5.74,0.82,8.3-0.38V58.02z"/>
	</g>
	<path style="fill:#FFAB51;" d="M67.3,32.07c0,1.75-0.17,3.45-0.51,5.1c-0.57-0.17-1.15-0.36-1.75-0.55
		c-1.42-0.46-2.9-0.93-4.43-1.27c-1.78-0.39-3.62-0.59-5.47-0.59c-4.71,0-9.3,1.25-13.28,3.62c-3.98-2.36-8.56-3.62-13.27-3.62
		c-1.85,0-3.69,0.2-5.47,0.59c-1.53,0.34-3.01,0.81-4.43,1.27c-0.6,0.19-1.17,0.37-1.75,0.55c-0.34-1.65-0.51-3.35-0.51-5.1
		c0-14.05,11.39-25.44,25.43-25.44C55.92,6.64,67.3,18.02,67.3,32.07z"/>
</g>
<g>
	<path style="fill:#0046CD;" d="M99.3,42.06h-5.77V3.79h8.28l5.38,27.49l5.16-27.49h7.95v38.27h-5.77V18.01l-5,24.05h-4.64
		L99.3,18.08V42.06z"/>
	<path style="fill:#0046CD;" d="M132.52,33.27l-1.4,8.79h-6l6.5-38.23h7.93l6.41,38.23h-6.06l-1.35-8.79H132.52z M135.55,12.58
		l-2.14,15.07h4.27L135.55,12.58z"/>
	<path style="fill:#0046CD;" d="M157.29,3.79l7.65,25.72V3.79h5.77v38.27h-6.19l-7.93-24.5v24.5h-5.77V3.79H157.29z"/>
	<path style="fill:#0046CD;" d="M184.96,42.49c-2.54,0-4.7-0.88-6.47-2.65c-1.77-1.77-2.66-3.92-2.66-6.44V3.82h5.65v29.51
		c0,0.91,0.33,1.69,0.98,2.33c0.65,0.64,1.43,0.96,2.35,0.96c0.92,0,1.69-0.32,2.33-0.96c0.64-0.64,0.96-1.42,0.96-2.33V3.82h6.01
		v29.57c0,2.56-0.9,4.72-2.69,6.47C189.63,41.61,187.48,42.49,184.96,42.49z"/>
</g>
<g>
	<path style="fill:#FFAB51;" d="M99.64,58.39c0.01,0.91-0.22,1.68-0.71,2.33c-0.32,0.44-0.77,0.74-1.35,0.92
		c-0.31,0.1-0.68,0.15-1.09,0.15c-0.77,0-1.41-0.19-1.91-0.57c-0.42-0.31-0.76-0.74-1-1.27s-0.39-1.15-0.43-1.84l1.87-0.13
		c0.08,0.76,0.28,1.31,0.6,1.65c0.24,0.26,0.51,0.38,0.81,0.37c0.43-0.01,0.77-0.23,1.03-0.63c0.13-0.2,0.2-0.49,0.2-0.86
		c0-0.54-0.25-1.08-0.74-1.61c-0.39-0.37-0.97-0.92-1.75-1.65c-0.65-0.63-1.11-1.2-1.38-1.7c-0.29-0.56-0.44-1.17-0.44-1.83
		c0-1.19,0.4-2.08,1.19-2.69c0.49-0.37,1.1-0.55,1.83-0.55c0.7,0,1.3,0.16,1.8,0.47c0.39,0.24,0.7,0.58,0.94,1.02
		s0.38,0.94,0.43,1.51l-1.88,0.34c-0.06-0.53-0.21-0.95-0.46-1.25c-0.18-0.21-0.44-0.32-0.78-0.32c-0.36,0-0.63,0.16-0.82,0.48
		c-0.15,0.26-0.23,0.58-0.23,0.96c0,0.6,0.26,1.2,0.77,1.82c0.19,0.24,0.49,0.51,0.87,0.83c0.46,0.38,0.76,0.65,0.9,0.8
		c0.48,0.48,0.86,0.96,1.12,1.43c0.12,0.22,0.22,0.43,0.3,0.61C99.54,57.61,99.63,58.03,99.64,58.39z"/>
	<path style="fill:#FFAB51;" d="M104.37,61.78c-0.87,0-1.6-0.3-2.2-0.9c-0.6-0.6-0.9-1.33-0.9-2.19V48.61h1.92v10.05
		c0,0.31,0.11,0.58,0.33,0.79c0.22,0.22,0.49,0.33,0.8,0.33s0.58-0.11,0.79-0.33c0.22-0.22,0.33-0.48,0.33-0.79V48.61h2.05v10.07
		c0,0.87-0.3,1.61-0.92,2.2C105.96,61.48,105.23,61.78,104.37,61.78z"/>
	<path style="fill:#FFAB51;" d="M111.44,48.6l2.61,8.76V48.6h1.96v13.03h-2.11l-2.7-8.34v8.34h-1.96V48.6H111.44z"/>
	<path style="fill:#FFAB51;" d="M120.86,48.61c1.09,0,1.9,0.3,2.41,0.9c0.45,0.53,0.67,1.26,0.67,2.2v1.89
		c0,0.92-0.35,1.7-1.05,2.34l1.46,5.68h-2.12l-1.19-4.91c-0.06,0-0.11,0-0.18,0h-1.13v4.91h-1.96V48.61H120.86z M122.03,51.75
		c0-0.75-0.37-1.13-1.12-1.13h-1.18v4.17h1.18c0.31,0,0.58-0.11,0.79-0.33c0.22-0.22,0.33-0.49,0.33-0.8V51.75z"/>
	<path style="fill:#FFAB51;" d="M128,61.63h-1.96V48.61H128V61.63z"/>
	<path style="fill:#FFAB51;" d="M136.13,58.39c0.01,0.91-0.22,1.68-0.71,2.33c-0.32,0.44-0.77,0.74-1.35,0.92
		c-0.31,0.1-0.68,0.15-1.09,0.15c-0.77,0-1.41-0.19-1.91-0.57c-0.42-0.31-0.76-0.74-1-1.27s-0.39-1.15-0.43-1.84l1.87-0.13
		c0.08,0.76,0.28,1.31,0.6,1.65c0.24,0.26,0.51,0.38,0.81,0.37c0.43-0.01,0.77-0.23,1.03-0.63c0.13-0.2,0.2-0.49,0.2-0.86
		c0-0.54-0.25-1.08-0.74-1.61c-0.39-0.37-0.97-0.92-1.75-1.65c-0.65-0.63-1.11-1.2-1.38-1.7c-0.29-0.56-0.44-1.17-0.44-1.83
		c0-1.19,0.4-2.08,1.19-2.69c0.49-0.37,1.1-0.55,1.83-0.55c0.7,0,1.3,0.16,1.8,0.47c0.39,0.24,0.7,0.58,0.94,1.02
		s0.38,0.94,0.43,1.51l-1.88,0.34c-0.06-0.53-0.21-0.95-0.46-1.25c-0.18-0.21-0.44-0.32-0.78-0.32c-0.36,0-0.63,0.16-0.82,0.48
		c-0.15,0.26-0.23,0.58-0.23,0.96c0,0.6,0.26,1.2,0.77,1.82c0.19,0.24,0.49,0.51,0.87,0.83c0.46,0.38,0.76,0.65,0.9,0.8
		c0.48,0.48,0.86,0.96,1.12,1.43c0.12,0.22,0.22,0.43,0.3,0.61C136.03,57.61,136.13,58.03,136.13,58.39z"/>
	<path style="fill:#FFAB51;" d="M137.77,61.63V48.6h5.59v1.97h-3.63v3.55h2.65v1.97h-2.65v3.55h3.63v1.97H137.77z"/>
	<path style="fill:#FFAB51;" d="M153.9,58.39c0.01,0.91-0.22,1.68-0.71,2.33c-0.32,0.44-0.77,0.74-1.35,0.92
		c-0.31,0.1-0.68,0.15-1.09,0.15c-0.77,0-1.41-0.19-1.91-0.57c-0.42-0.31-0.76-0.74-1-1.27s-0.39-1.15-0.43-1.84l1.87-0.13
		c0.08,0.76,0.28,1.31,0.6,1.65c0.24,0.26,0.51,0.38,0.81,0.37c0.43-0.01,0.77-0.23,1.03-0.63c0.13-0.2,0.2-0.49,0.2-0.86
		c0-0.54-0.25-1.08-0.74-1.61c-0.39-0.37-0.97-0.92-1.75-1.65c-0.65-0.63-1.11-1.2-1.38-1.7c-0.29-0.56-0.44-1.17-0.44-1.83
		c0-1.19,0.4-2.08,1.19-2.69c0.49-0.37,1.1-0.55,1.83-0.55c0.7,0,1.3,0.16,1.8,0.47c0.39,0.24,0.7,0.58,0.94,1.02
		s0.38,0.94,0.43,1.51l-1.88,0.34c-0.06-0.53-0.21-0.95-0.46-1.25c-0.18-0.21-0.44-0.32-0.78-0.32c-0.36,0-0.63,0.16-0.82,0.48
		c-0.15,0.26-0.23,0.58-0.23,0.96c0,0.6,0.26,1.2,0.77,1.82c0.19,0.24,0.49,0.51,0.87,0.83c0.46,0.38,0.76,0.65,0.9,0.8
		c0.48,0.48,0.86,0.96,1.12,1.43c0.12,0.22,0.22,0.43,0.3,0.61C153.8,57.61,153.9,58.03,153.9,58.39z"/>
	<path style="fill:#FFAB51;" d="M158.62,61.8c-0.87,0-1.6-0.3-2.21-0.91c-0.61-0.61-0.91-1.34-0.91-2.2v-7.11
		c0-0.87,0.3-1.6,0.91-2.21c0.61-0.61,1.34-0.91,2.2-0.91c0.87,0,1.6,0.31,2.2,0.92s0.9,1.34,0.9,2.2v1.49h-2.04v-1.53
		c0-0.31-0.11-0.58-0.33-0.8c-0.22-0.22-0.49-0.33-0.8-0.33s-0.58,0.11-0.79,0.33c-0.22,0.22-0.33,0.49-0.33,0.8v7.13
		c0,0.31,0.11,0.58,0.33,0.79c0.22,0.22,0.48,0.33,0.79,0.33s0.58-0.11,0.8-0.33c0.22-0.22,0.33-0.48,0.33-0.79v-1.8h2.04v1.82
		c0,0.87-0.3,1.6-0.92,2.2C160.21,61.5,159.47,61.8,158.62,61.8z"/>
	<path style="fill:#FFAB51;" d="M165.3,56.12v5.52h-1.96V48.61h1.96v5.53h2.37v-5.53h1.96v13.02h-1.96v-5.52H165.3z"/>
	<path style="fill:#FFAB51;" d="M174.48,48.45c0.87,0,1.6,0.3,2.21,0.92c0.61,0.61,0.91,1.34,0.91,2.2v7.11
		c0,0.87-0.3,1.6-0.92,2.21c-0.61,0.61-1.34,0.91-2.2,0.91c-0.87,0-1.6-0.3-2.2-0.92c-0.6-0.61-0.9-1.34-0.9-2.2v-7.11
		c0-0.87,0.3-1.6,0.91-2.21C172.9,48.75,173.63,48.45,174.48,48.45z M175.55,51.52c0-0.31-0.11-0.58-0.33-0.79
		c-0.22-0.22-0.48-0.33-0.79-0.33s-0.58,0.11-0.8,0.33c-0.22,0.22-0.33,0.48-0.33,0.79v7.13c0,0.31,0.11,0.58,0.33,0.79
		s0.49,0.33,0.8,0.33s0.58-0.11,0.79-0.33c0.22-0.22,0.33-0.48,0.33-0.79V51.52z"/>
	<path style="fill:#FFAB51;" d="M182.4,48.45c0.87,0,1.6,0.3,2.21,0.92c0.61,0.61,0.91,1.34,0.91,2.2v7.11c0,0.87-0.3,1.6-0.92,2.21
		c-0.61,0.61-1.34,0.91-2.2,0.91c-0.87,0-1.6-0.3-2.2-0.92c-0.6-0.61-0.9-1.34-0.9-2.2v-7.11c0-0.87,0.3-1.6,0.91-2.21
		C180.81,48.75,181.55,48.45,182.4,48.45z M183.47,51.52c0-0.31-0.11-0.58-0.33-0.79c-0.22-0.22-0.48-0.33-0.79-0.33
		s-0.58,0.11-0.8,0.33c-0.22,0.22-0.33,0.48-0.33,0.79v7.13c0,0.31,0.11,0.58,0.33,0.79s0.49,0.33,0.8,0.33s0.58-0.11,0.79-0.33
		c0.22-0.22,0.33-0.48,0.33-0.79V51.52z"/>
	<path style="fill:#FFAB51;" d="M192.6,61.63h-5.35V48.61h1.96v11.07h3.39V61.63z"/>
</g>
</svg>
