<?xml version="1.0" encoding="utf-8"?>
<!-- Generator: Adobe Illustrator 26.1.0, SVG Export Plug-In . SVG Version: 6.00 Build 0)  -->
<svg version="1.1" id="Layer_1" xmlns="http://www.w3.org/2000/svg" xmlns:xlink="http://www.w3.org/1999/xlink" x="0px" y="0px"
	 viewBox="0 0 285.95 104.82" style="enable-background:new 0 0 285.95 104.82;" xml:space="preserve">
<g>
	<linearGradient id="SVGID_1_" gradientUnits="userSpaceOnUse" x1="-8.6464" y1="18.8039" x2="276.9813" y2="72.3926">
		<stop  offset="0" style="stop-color:#00CCFF"/>
		<stop  offset="1" style="stop-color:#0080FF"/>
	</linearGradient>
	<path style="fill:url(#SVGID_1_);" d="M44.87,27.05v21.42L14.39,20.54V7.35H9.6V3.5h9.05L44.87,27.05z M22.26,48.47H9.6v-3.91
		l1.06,0.06c2.49,0,3.73-1.18,3.73-3.49V23.91l3.14,2.72v14.5c0,2.37,1.6,3.49,4.73,3.43V48.47z M49.66,3.5V7.4L48.6,7.35
		c-2.43,0-3.67,1.18-3.73,3.49v12.25l-3.14-2.72v-9.53c0-2.37-1.6-3.49-4.73-3.43V3.5H49.66z"/>
	
		<linearGradient id="SVGID_00000034772615204685513320000011710349805492782266_" gradientUnits="userSpaceOnUse" x1="-6.9643" y1="9.8386" x2="278.6633" y2="63.4273">
		<stop  offset="0" style="stop-color:#00CCFF"/>
		<stop  offset="1" style="stop-color:#0080FF"/>
	</linearGradient>
	<path style="fill:url(#SVGID_00000034772615204685513320000011710349805492782266_);" d="M75.93,48.65
		c-1.48,0.3-2.78,0.47-4.02,0.47c-4.79,0-8.64-1.48-11.66-4.5c-3.02-3.02-4.56-6.92-4.56-11.66V7.4h-4.26V3.56h22.9V7.4h-4.67v33.2
		c0,3.49,1.42,5.21,4.32,5.21c0.3,0,0.53,0,0.71-0.06L75.93,48.65z M88.12,10.07v22.9c0,6.92-3.37,12.31-9.53,14.85l-1.3-2.78
		c4.56-2.13,7.75-6.98,7.75-11.95V10.13c0-1.83-1.3-2.72-3.91-2.72V3.56h10.89V7.4C89.42,7.4,88.12,8.29,88.12,10.07z"/>
	
		<linearGradient id="SVGID_00000060001315738292688920000014279145630392299184_" gradientUnits="userSpaceOnUse" x1="-5.3284" y1="1.1192" x2="280.2992" y2="54.7079">
		<stop  offset="0" style="stop-color:#00CCFF"/>
		<stop  offset="1" style="stop-color:#0080FF"/>
	</linearGradient>
	<path style="fill:url(#SVGID_00000060001315738292688920000014279145630392299184_);" d="M116.52,7.35l10.65,24.38l-8.82,17.93
		L98.47,7.35h-3.14V3.5h24.67v3.85H116.52z M142.37,3.5v3.85h-1.6c-1.54,0-3.14,1.89-4.85,5.74l-7.1,15.74l-2.07-4.2l5.27-11.6
		c0.47-1.01,0.71-1.95,0.71-2.9c0-1.18-0.41-2.01-1.18-2.43c-0.53-0.24-1.48-0.35-2.84-0.35V3.5H142.37z"/>
	
		<linearGradient id="SVGID_00000018949691280170572250000005724952463728517052_" gradientUnits="userSpaceOnUse" x1="-4.1006" y1="-5.4248" x2="281.527" y2="48.1638">
		<stop  offset="0" style="stop-color:#00CCFF"/>
		<stop  offset="1" style="stop-color:#0080FF"/>
	</linearGradient>
	<path style="fill:url(#SVGID_00000018949691280170572250000005724952463728517052_);" d="M161.31,49.06
		c-5.86-0.65-10.65-3.14-14.5-7.52c-3.85-4.44-5.74-9.59-5.74-15.44c0-6.04,1.89-11.24,5.62-15.56c3.73-4.38,8.58-6.92,14.62-7.63
		v3.79c-1.48,0-2.72,0.59-3.79,1.83c-1.01,1.24-1.54,2.6-1.54,3.96V39.3c0,1.48,0.47,2.84,1.48,3.96c1.07,1.3,2.37,1.95,3.85,1.95
		V49.06z M179.89,41.55c-3.85,4.38-8.64,6.86-14.5,7.52v-3.85c1.48,0,2.72-0.65,3.79-1.95c1.01-1.12,1.48-2.49,1.48-3.96V12.49
		c0-1.36-0.53-2.72-1.54-3.96c-1.01-1.24-2.25-1.83-3.73-1.83V2.91c5.98,0.71,10.83,3.25,14.56,7.63c3.79,4.32,5.68,9.47,5.68,15.56
		C185.63,31.96,183.73,37.11,179.89,41.55z"/>
	
		<linearGradient id="SVGID_00000092450336210463220870000016183242503932074113_" gradientUnits="userSpaceOnUse" x1="-2.2141" y1="-15.4802" x2="283.4135" y2="38.1085">
		<stop  offset="0" style="stop-color:#00CCFF"/>
		<stop  offset="1" style="stop-color:#0080FF"/>
	</linearGradient>
	<path style="fill:url(#SVGID_00000092450336210463220870000016183242503932074113_);" d="M210,49.06
		c-5.86-0.65-10.65-3.14-14.5-7.52c-3.85-4.44-5.74-9.59-5.74-15.44c0-6.04,1.89-11.24,5.62-15.56c3.73-4.38,8.58-6.92,14.62-7.63
		v3.25c-1.48,0.06-2.72,0.83-3.79,2.43c-1.01,1.6-1.54,3.08-1.54,4.5V39.3c0,1.48,0.47,2.9,1.48,4.26c1.07,1.48,2.37,2.19,3.85,2.19
		V49.06z M227.99,2.91v17.57h-3.25l0.06-0.59c0.06-3.31-1.06-6.39-3.43-9.29c-2.49-3.08-5.38-4.62-8.7-4.56V2.91
		c3.08,0.41,5.74,1.36,7.99,2.78c0.77,0.53,1.48,0.77,2.25,0.77c1.95,0,2.9-1.18,2.96-3.55H227.99z M227.99,31.49v17.57h-2.13
		c-0.06-2.37-1.01-3.55-2.96-3.55c-0.77,0-1.48,0.24-2.25,0.77c-2.25,1.42-4.91,2.37-7.99,2.78v-3.14c3.37,0.06,6.33-1.54,8.82-4.79
		c2.31-3.08,3.43-6.27,3.25-9.65H227.99z"/>
	
		<linearGradient id="SVGID_00000063627740925960380810000003648567592069899156_" gradientUnits="userSpaceOnUse" x1="-0.9903" y1="-22.0028" x2="284.6373" y2="31.5859">
		<stop  offset="0" style="stop-color:#00CCFF"/>
		<stop  offset="1" style="stop-color:#0080FF"/>
	</linearGradient>
	<path style="fill:url(#SVGID_00000063627740925960380810000003648567592069899156_);" d="M252.78,49.06
		c-5.86-0.65-10.65-3.14-14.5-7.52c-3.85-4.44-5.74-9.59-5.74-15.44c0-6.04,1.89-11.24,5.62-15.56c3.73-4.38,8.58-6.92,14.62-7.63
		v3.79c-1.48,0-2.72,0.59-3.79,1.83c-1.01,1.24-1.54,2.6-1.54,3.96V39.3c0,1.48,0.47,2.84,1.48,3.96c1.07,1.3,2.37,1.95,3.85,1.95
		V49.06z M271.36,41.55c-3.85,4.38-8.64,6.86-14.5,7.52v-3.85c1.48,0,2.72-0.65,3.79-1.95c1.01-1.12,1.48-2.49,1.48-3.96V12.49
		c0-1.36-0.53-2.72-1.54-3.96c-1.01-1.24-2.25-1.83-3.73-1.83V2.91c5.98,0.71,10.83,3.25,14.56,7.63c3.79,4.32,5.68,9.47,5.68,15.56
		C277.1,31.96,275.2,37.11,271.36,41.55z"/>
</g>
<g>
	<path style="fill:#4C4C4C;" d="M12.36,103.28V57.83h3.17v45.45H12.36z"/>
	<path style="fill:#4C4C4C;" d="M61.44,103.28h-3.2L31.32,62.93h-0.25c0.25,4.81,0.37,8.44,0.37,10.88v29.47H28.4V57.83h3.17
		l26.89,40.29h0.19c-0.19-3.73-0.28-7.27-0.28-10.63V57.83h3.08V103.28z"/>
	<path style="fill:#4C4C4C;" d="M86.15,103.28h-3.2V60.81H68.19v-2.98h32.73v2.98H86.15V103.28z"/>
	<path style="fill:#4C4C4C;" d="M132.5,103.28h-24.84V57.83h24.84v2.92h-21.67v17.19h20.45v2.92h-20.45v19.49h21.67V103.28z"/>
	<path style="fill:#4C4C4C;" d="M145.96,83.47v19.8h-3.17V57.83h10.82c5.64,0,9.8,1.04,12.5,3.12c2.69,2.08,4.04,5.22,4.04,9.4
		c0,3.05-0.8,5.62-2.41,7.71c-1.61,2.09-4.05,3.6-7.32,4.51l12.34,20.7h-3.79l-11.72-19.8H145.96z M145.96,80.74h8.67
		c3.83,0,6.81-0.85,8.92-2.56c2.11-1.71,3.17-4.23,3.17-7.57c0-3.46-1.04-5.98-3.11-7.55s-5.45-2.36-10.13-2.36h-7.52V80.74z"/>
	<path style="fill:#4C4C4C;" d="M180.62,103.28V57.83h3.17v45.45H180.62z"/>
	<path style="fill:#4C4C4C;" d="M234.87,80.49c0,7.21-1.8,12.92-5.41,17.11c-3.61,4.2-8.58,6.29-14.92,6.29
		c-6.32,0-11.28-2.1-14.89-6.29c-3.61-4.2-5.41-9.92-5.41-17.17c0-7.23,1.82-12.93,5.46-17.08c3.64-4.15,8.61-6.23,14.91-6.23
		c6.34,0,11.3,2.09,14.89,6.26C233.08,67.55,234.87,73.26,234.87,80.49z M197.69,80.49c0,6.51,1.45,11.54,4.35,15.09
		c2.9,3.55,7.07,5.33,12.5,5.33c5.47,0,9.65-1.76,12.54-5.29c2.89-3.52,4.34-8.57,4.34-15.14c0-6.55-1.45-11.57-4.34-15.06
		c-2.89-3.49-7.05-5.24-12.48-5.24c-5.41,0-9.58,1.76-12.51,5.29C199.16,69,197.69,74,197.69,80.49z"/>
	<path style="fill:#4C4C4C;" d="M248.48,83.47v19.8h-3.17V57.83h10.82c5.64,0,9.8,1.04,12.5,3.12c2.69,2.08,4.04,5.22,4.04,9.4
		c0,3.05-0.8,5.62-2.41,7.71c-1.61,2.09-4.05,3.6-7.32,4.51l12.34,20.7h-3.79l-11.72-19.8H248.48z M248.48,80.74h8.67
		c3.83,0,6.81-0.85,8.92-2.56c2.11-1.71,3.17-4.23,3.17-7.57c0-3.46-1.04-5.98-3.11-7.55s-5.45-2.36-10.13-2.36h-7.52V80.74z"/>
</g>
</svg>
