<?xml version="1.0" encoding="utf-8"?>
<!-- Generator: Adobe Illustrator 26.1.0, SVG Export Plug-In . SVG Version: 6.00 Build 0)  -->
<svg version="1.1" id="Layer_1" xmlns="http://www.w3.org/2000/svg" xmlns:xlink="http://www.w3.org/1999/xlink" x="0px" y="0px"
	 viewBox="0 0 249.95 66" style="enable-background:new 0 0 249.95 66;" xml:space="preserve">
<g>
	<path style="fill:#A92EFF;" d="M41.68,40.07L41.68,40.07c-1.29,0-2.34-1.05-2.34-2.34v-9.78c0-1.29,1.05-2.34,2.34-2.34l0,0
		c1.29,0,2.34,1.05,2.34,2.34v9.78C44.02,39.02,42.97,40.07,41.68,40.07z"/>
	<path style="fill:#A92EFF;" d="M14.31,44.26L14.31,44.26c1.29,0,2.34-1.05,2.34-2.34V23.75c0-1.29-1.05-2.34-2.34-2.34l0,0
		c-1.29,0-2.34,1.05-2.34,2.34v18.17C11.97,43.22,13.02,44.26,14.31,44.26z"/>
	<path style="fill:#A92EFF;" d="M4.49,37.7L4.49,37.7c1.29,0,2.34-1.05,2.34-2.34v-5.04c0-1.29-1.05-2.34-2.34-2.34h0
		c-1.29,0-2.34,1.05-2.34,2.34v5.04C2.15,36.65,3.2,37.7,4.49,37.7z"/>
	<g>
		<path style="fill:#A92EFF;" d="M32.33,13.41H31.6c-1.09,0-1.98,0.89-1.98,1.98v3.79c0,1.01-0.82,1.83-1.83,1.83l0,0
			c-1.01,0-1.83-0.82-1.83-1.83V7.88c0-1.28-1-2.36-2.28-2.39c-1.32-0.03-2.4,1.03-2.4,2.34V57.8c0,1.28,1,2.36,2.28,2.39
			c1.32,0.03,2.4-1.03,2.4-2.34V46.5c0-1.01,0.82-1.83,1.83-1.83h0c1.01,0,1.83,0.82,1.83,1.83v3.79c0,1.09,0.88,1.98,1.98,1.98
			h0.73c1.09,0,1.98-0.89,1.98-1.98v-34.9C34.3,14.3,33.42,13.41,32.33,13.41z M29.9,39.03c0,0.9-0.73,1.62-1.62,1.62l0,0
			c-0.9,0-1.62-0.73-1.62-1.62V26.08c0-0.9,0.73-1.62,1.62-1.62l0,0c0.9,0,1.62,0.73,1.62,1.62V39.03z"/>
	</g>
	<path style="fill:#A92EFF;" d="M51.97,32.84c0,1.21-0.98,2.19-2.19,2.19c-1.21,0-2.19-0.98-2.19-2.19c0-1.21,0.98-2.19,2.19-2.19
		C50.99,30.65,51.97,31.63,51.97,32.84z"/>
</g>
<g>
	<path d="M62.12,20.96h12.47c0.26,0,0.41-0.1,0.44-0.29l0.42-2.24c0-0.06-0.03-0.13-0.1-0.19c-0.07-0.06-0.15-0.1-0.24-0.1H62.63
		l0.61-3.51h15.03c0.23,0,0.46,0.07,0.68,0.21s0.43,0.31,0.6,0.52c0.17,0.21,0.31,0.44,0.4,0.7c0.1,0.25,0.13,0.49,0.1,0.72
		L79.2,21.6c-0.1,0.52-0.3,0.97-0.6,1.34c-0.3,0.37-0.67,0.68-1.1,0.92c-0.43,0.24-0.9,0.41-1.39,0.51
		c-0.5,0.11-0.99,0.16-1.48,0.16l4.9,5.32h-6l-5.03-5.32H65.8l-0.93,5.32h-4.32L62.12,20.96z"/>
	<path d="M80.68,26.33H84l1.46-8.2h-3.32l0.61-3.51h10.93l-0.61,3.51h-3.32l-1.46,8.2h3.32L91,29.84H80.07L80.68,26.33z"/>
	<path d="M108.01,22.23l5.83,7.61h-5.66l-4.54-5.78h-4.98l-1.02,5.78h-4.29l2.68-15.22h4.29l-1.05,5.9h4.83l6.76-5.9h5.66
		L108.01,22.23z"/>
	<path d="M117.37,17.35c0.08-0.49,0.25-0.9,0.5-1.24c0.25-0.34,0.55-0.62,0.9-0.84s0.73-0.38,1.15-0.49
		c0.42-0.11,0.83-0.16,1.26-0.16h11.12c0.39,0,0.77,0.06,1.13,0.17c0.37,0.11,0.69,0.29,0.98,0.52c0.28,0.24,0.5,0.52,0.63,0.87
		c0.14,0.34,0.17,0.73,0.08,1.17l-1.71,9.76c-0.08,0.44-0.25,0.83-0.51,1.17c-0.26,0.34-0.57,0.63-0.93,0.87
		c-0.36,0.24-0.74,0.41-1.16,0.52c-0.42,0.11-0.82,0.17-1.21,0.17H118.5c-0.42,0-0.82-0.05-1.2-0.16c-0.38-0.11-0.7-0.27-0.96-0.49
		s-0.47-0.5-0.6-0.84c-0.13-0.34-0.16-0.76-0.07-1.24L117.37,17.35z M129.23,26.33l1.46-8.2h-9.15l-1.46,8.2H129.23z"/>
	<path d="M153.77,18.13c-0.1,0-0.2,0.03-0.29,0.1s-0.15,0.13-0.15,0.19l-0.32,1.76c-0.05,0.19,0.06,0.29,0.34,0.29h10.3
		c0.34,0,0.67,0.05,0.98,0.15c0.31,0.1,0.57,0.26,0.79,0.49c0.22,0.23,0.38,0.52,0.48,0.88c0.1,0.36,0.1,0.81,0,1.34l-0.76,4.37
		c-0.05,0.23-0.16,0.47-0.34,0.72c-0.18,0.25-0.39,0.48-0.63,0.7c-0.24,0.21-0.5,0.39-0.78,0.52c-0.28,0.14-0.54,0.21-0.78,0.21
		h-15.59l0.61-3.51h13.03c0.26,0,0.41-0.1,0.46-0.29l0.29-1.76c0.02-0.06-0.01-0.13-0.08-0.19s-0.16-0.1-0.26-0.1h-10.49
		c-0.33-0.02-0.63-0.08-0.91-0.2c-0.29-0.11-0.52-0.28-0.72-0.5s-0.33-0.51-0.42-0.87c-0.08-0.36-0.07-0.79,0.02-1.29l0.76-4.34
		c0.05-0.23,0.17-0.47,0.35-0.72c0.19-0.25,0.41-0.49,0.66-0.71s0.52-0.4,0.79-0.54s0.53-0.21,0.76-0.21h15.57l-0.61,3.51H153.77z"
		/>
	<path d="M169.29,17.35c0.08-0.49,0.25-0.9,0.5-1.24c0.25-0.34,0.55-0.62,0.9-0.84s0.73-0.38,1.15-0.49
		c0.42-0.11,0.83-0.16,1.26-0.16h11.12c0.39,0,0.77,0.06,1.13,0.17c0.37,0.11,0.69,0.29,0.98,0.52c0.28,0.24,0.5,0.52,0.63,0.87
		c0.14,0.34,0.17,0.73,0.08,1.17l-1.71,9.76c-0.08,0.44-0.25,0.83-0.51,1.17c-0.26,0.34-0.57,0.63-0.93,0.87
		c-0.36,0.24-0.74,0.41-1.16,0.52c-0.42,0.11-0.82,0.17-1.21,0.17h-11.12c-0.42,0-0.82-0.05-1.2-0.16c-0.38-0.11-0.7-0.27-0.96-0.49
		s-0.47-0.5-0.6-0.84c-0.13-0.34-0.16-0.76-0.07-1.24L169.29,17.35z M181.14,26.33l1.46-8.2h-9.15l-1.46,8.2H181.14z"/>
	<path d="M194.17,14.62l-2.07,11.71h9.15l2.07-11.71h4.32l-2.2,12.49c-0.08,0.44-0.25,0.83-0.51,1.17
		c-0.26,0.34-0.57,0.63-0.93,0.87c-0.36,0.24-0.74,0.41-1.16,0.52c-0.42,0.11-0.82,0.17-1.21,0.17h-11.12
		c-0.42,0-0.82-0.05-1.2-0.16c-0.38-0.11-0.7-0.27-0.96-0.49s-0.47-0.5-0.6-0.84c-0.13-0.34-0.16-0.76-0.07-1.24l2.2-12.49H194.17z"
		/>
	<path d="M220.47,29.84l-7.22-9.25l-1.63,9.25h-4.32l2.68-15.22h4.68l7.15,9.32l1.63-9.32h4.29l-2.68,15.22H220.47z"/>
	<path d="M246.38,14.83c0.23,0.14,0.43,0.31,0.6,0.52s0.3,0.44,0.39,0.7c0.09,0.25,0.12,0.49,0.09,0.72l-1.81,10.17
		c-0.1,0.52-0.26,0.97-0.48,1.34c-0.22,0.37-0.48,0.68-0.77,0.9c-0.29,0.23-0.61,0.39-0.96,0.5c-0.35,0.11-0.7,0.16-1.06,0.16H227.4
		l1.56-8.88h4.32l-0.93,5.32h8.76c0.23,0,0.37-0.1,0.41-0.29l1.34-7.59c0.02-0.06-0.01-0.13-0.07-0.19c-0.06-0.06-0.15-0.1-0.24-0.1
		h-13.08l0.61-3.49h15.59C245.92,14.62,246.15,14.69,246.38,14.83z"/>
</g>
<g>
	<path d="M67.1,41.82c0.87,0.45,1.54,1.08,2.01,1.91c0.47,0.83,0.7,1.8,0.7,2.92c0,1.12-0.23,2.09-0.7,2.91s-1.14,1.45-2.01,1.88
		s-1.91,0.65-3.1,0.65h-3.41V41.15H64C65.19,41.15,66.23,41.37,67.1,41.82z M67.24,49.79c0.74-0.75,1.11-1.8,1.11-3.15
		c0-1.36-0.37-2.42-1.12-3.19c-0.75-0.76-1.82-1.15-3.23-1.15h-1.98v8.6H64C65.41,50.91,66.49,50.54,67.24,49.79z"/>
	<path d="M75.76,41.15v6.92c0,0.97,0.24,1.7,0.71,2.17c0.48,0.47,1.14,0.71,1.99,0.71c0.84,0,1.49-0.24,1.97-0.71
		c0.48-0.47,0.71-1.19,0.71-2.17v-6.92h1.43v6.91c0,0.91-0.18,1.68-0.55,2.3c-0.37,0.62-0.86,1.09-1.48,1.39
		c-0.62,0.3-1.32,0.46-2.1,0.46s-1.47-0.15-2.1-0.46c-0.62-0.3-1.11-0.77-1.48-1.39c-0.36-0.62-0.54-1.39-0.54-2.3v-6.91H75.76z"/>
	<path d="M94.2,46.94c0.33,0.26,0.59,0.59,0.79,0.97c0.19,0.39,0.29,0.8,0.29,1.24c0,0.55-0.14,1.05-0.42,1.5
		c-0.28,0.45-0.69,0.8-1.23,1.05c-0.54,0.26-1.17,0.38-1.91,0.38h-4.08V41.15h3.92c0.74,0,1.38,0.12,1.9,0.37s0.92,0.58,1.18,1
		c0.26,0.42,0.39,0.89,0.39,1.41c0,0.65-0.18,1.19-0.53,1.61s-0.81,0.73-1.39,0.92C93.5,46.52,93.87,46.68,94.2,46.94z M89.05,45.88
		h2.4c0.67,0,1.19-0.16,1.55-0.47c0.37-0.31,0.55-0.75,0.55-1.3s-0.18-0.99-0.55-1.3c-0.37-0.31-0.89-0.47-1.58-0.47h-2.37V45.88z
		 M93.25,50.41c0.4-0.33,0.6-0.8,0.6-1.4c0-0.61-0.21-1.08-0.63-1.44c-0.42-0.35-0.98-0.53-1.68-0.53h-2.48v3.86h2.53
		C92.29,50.91,92.85,50.75,93.25,50.41z"/>
	<path d="M106.49,46.94c0.33,0.26,0.59,0.59,0.79,0.97c0.19,0.39,0.29,0.8,0.29,1.24c0,0.55-0.14,1.05-0.42,1.5
		c-0.28,0.45-0.69,0.8-1.23,1.05c-0.54,0.26-1.17,0.38-1.91,0.38h-4.08V41.15h3.92c0.74,0,1.38,0.12,1.9,0.37s0.92,0.58,1.18,1
		c0.26,0.42,0.39,0.89,0.39,1.41c0,0.65-0.18,1.19-0.53,1.61s-0.81,0.73-1.39,0.92C105.79,46.52,106.16,46.68,106.49,46.94z
		 M101.35,45.88h2.4c0.67,0,1.19-0.16,1.55-0.47c0.37-0.31,0.55-0.75,0.55-1.3s-0.18-0.99-0.55-1.3c-0.37-0.31-0.89-0.47-1.58-0.47
		h-2.37V45.88z M105.54,50.41c0.4-0.33,0.6-0.8,0.6-1.4c0-0.61-0.21-1.08-0.63-1.44c-0.42-0.35-0.98-0.53-1.68-0.53h-2.48v3.86h2.53
		C104.58,50.91,105.14,50.75,105.54,50.41z"/>
	<path d="M113.64,41.15v10.94h-1.43V41.15H113.64z"/>
	<path d="M127.34,52.09h-1.43l-5.75-8.71v8.71h-1.43V41.14h1.43l5.75,8.7v-8.7h1.43V52.09z"/>
	<path d="M140.73,44.32c-0.3-0.64-0.74-1.13-1.32-1.48c-0.58-0.35-1.25-0.53-2.01-0.53s-1.45,0.17-2.06,0.53
		c-0.61,0.35-1.09,0.85-1.44,1.51c-0.35,0.65-0.53,1.41-0.53,2.27s0.17,1.61,0.53,2.26c0.35,0.65,0.83,1.15,1.44,1.5
		c0.61,0.35,1.3,0.53,2.06,0.53c1.07,0,1.95-0.32,2.64-0.96s1.09-1.5,1.21-2.59h-4.36v-1.16h5.89v1.1c-0.08,0.9-0.37,1.72-0.85,2.47
		s-1.12,1.34-1.9,1.77c-0.79,0.43-1.66,0.65-2.62,0.65c-1.01,0-1.94-0.24-2.78-0.71c-0.84-0.48-1.5-1.14-1.99-1.99
		c-0.49-0.85-0.73-1.81-0.73-2.87s0.24-2.03,0.73-2.88c0.49-0.85,1.15-1.52,1.99-1.99s1.76-0.71,2.78-0.71
		c1.16,0,2.19,0.29,3.08,0.86c0.89,0.58,1.55,1.39,1.95,2.43H140.73z"/>
	<path d="M160.56,46.62c-0.62,0.6-1.57,0.9-2.85,0.9h-2.1v4.57h-1.43V41.15h3.53c1.23,0,2.17,0.3,2.82,0.89s0.96,1.37,0.96,2.31
		C161.5,45.26,161.19,46.02,160.56,46.62z M159.47,45.83c0.38-0.34,0.57-0.84,0.57-1.48c0-1.35-0.78-2.02-2.32-2.02h-2.1v4.02h2.1
		C158.51,46.35,159.1,46.17,159.47,45.83z"/>
	<path d="M172.41,49.66h-4.77l-0.88,2.43h-1.51l3.96-10.88h1.65l3.94,10.88h-1.51L172.41,49.66z M172,48.5l-1.98-5.53l-1.98,5.53
		H172z"/>
	<path d="M184.95,52.09l-2.61-4.47h-1.73v4.47h-1.43V41.15h3.53c0.83,0,1.52,0.14,2.09,0.42s1,0.67,1.28,1.15
		c0.28,0.48,0.42,1.03,0.42,1.65c0,0.75-0.22,1.42-0.65,1.99c-0.43,0.58-1.08,0.96-1.95,1.15l2.75,4.58H184.95z M180.62,46.47h2.1
		c0.77,0,1.35-0.19,1.74-0.57c0.39-0.38,0.58-0.89,0.58-1.53c0-0.65-0.19-1.15-0.57-1.51c-0.38-0.36-0.97-0.53-1.75-0.53h-2.1V46.47
		z"/>
	<path d="M198.14,41.15v1.16h-2.98v9.78h-1.43v-9.78h-3v-1.16H198.14z"/>
	<path d="M211.17,52.09h-1.43l-5.75-8.71v8.71h-1.43V41.14h1.43l5.75,8.7v-8.7h1.43V52.09z"/>
	<path d="M217.7,42.31v3.66h3.99v1.18h-3.99v3.77h4.46v1.18h-5.89V41.14h5.89v1.18H217.7z"/>
	<path d="M232.75,52.09l-2.61-4.47h-1.73v4.47h-1.43V41.15h3.53c0.83,0,1.52,0.14,2.09,0.42s1,0.67,1.28,1.15
		c0.28,0.48,0.42,1.03,0.42,1.65c0,0.75-0.22,1.42-0.65,1.99c-0.43,0.58-1.08,0.96-1.95,1.15l2.75,4.58H232.75z M228.42,46.47h2.1
		c0.77,0,1.35-0.19,1.74-0.57c0.39-0.38,0.58-0.89,0.58-1.53c0-0.65-0.19-1.15-0.57-1.51c-0.38-0.36-0.97-0.53-1.75-0.53h-2.1V46.47
		z"/>
	<path d="M240.73,51.82c-0.57-0.26-1.02-0.61-1.34-1.07c-0.33-0.46-0.49-0.98-0.5-1.58h1.52c0.05,0.51,0.26,0.94,0.64,1.29
		c0.37,0.35,0.91,0.53,1.62,0.53c0.68,0,1.22-0.17,1.61-0.51c0.39-0.34,0.59-0.78,0.59-1.31c0-0.42-0.12-0.76-0.35-1.02
		c-0.23-0.26-0.52-0.46-0.86-0.6c-0.35-0.14-0.81-0.28-1.4-0.44c-0.72-0.19-1.3-0.38-1.73-0.56s-0.81-0.48-1.11-0.89
		c-0.31-0.4-0.46-0.94-0.46-1.62c0-0.6,0.15-1.12,0.46-1.59c0.3-0.46,0.73-0.82,1.28-1.07c0.55-0.25,1.18-0.38,1.89-0.38
		c1.03,0,1.87,0.26,2.52,0.77c0.65,0.51,1.02,1.19,1.11,2.04h-1.57c-0.05-0.42-0.27-0.79-0.66-1.11c-0.39-0.32-0.9-0.48-1.54-0.48
		c-0.6,0-1.08,0.15-1.46,0.46c-0.38,0.31-0.57,0.74-0.57,1.3c0,0.4,0.11,0.72,0.34,0.97s0.5,0.44,0.83,0.57s0.79,0.28,1.39,0.45
		c0.72,0.2,1.3,0.4,1.74,0.59s0.82,0.49,1.13,0.89c0.31,0.4,0.47,0.95,0.47,1.64c0,0.53-0.14,1.04-0.42,1.51
		c-0.28,0.47-0.7,0.85-1.26,1.15c-0.56,0.29-1.21,0.44-1.96,0.44C241.95,52.2,241.3,52.07,240.73,51.82z"/>
</g>
</svg>
