<?xml version="1.0" encoding="utf-8"?>
<!-- Generator: Adobe Illustrator 26.1.0, SVG Export Plug-In . SVG Version: 6.00 Build 0)  -->
<svg version="1.1" id="Layer_1" xmlns="http://www.w3.org/2000/svg" xmlns:xlink="http://www.w3.org/1999/xlink" x="0px" y="0px"
	 viewBox="0 0 314.16 120.98" style="enable-background:new 0 0 314.16 120.98;" xml:space="preserve">
<g>
	<path style="fill:#00777A;" d="M89.96,56.2c3.16,1.94,7.77,3.56,12.63,3.56c7.21,0,11.42-3.81,11.42-9.31
		c0-5.1-2.92-8.02-10.28-10.85c-8.91-3.16-14.41-7.77-14.41-15.47c0-8.5,7.05-14.82,17.65-14.82c5.59,0,9.64,1.3,12.07,2.67
		l-1.94,5.75c-1.78-0.97-5.43-2.59-10.37-2.59c-7.45,0-10.28,4.45-10.28,8.18c0,5.1,3.32,7.61,10.85,10.53
		c9.23,3.56,13.93,8.02,13.93,16.03c0,8.42-6.24,15.71-19.11,15.71c-5.26,0-11.01-1.54-13.93-3.48L89.96,56.2z"/>
	<path style="fill:#00777A;" d="M137.9,10.21v32.31c0,12.23,5.43,17.41,12.71,17.41c8.1,0,13.28-5.34,13.28-17.41V10.21h7.13v31.82
		c0,16.76-8.83,23.65-20.65,23.65c-11.17,0-19.6-6.4-19.6-23.32V10.21H137.9z"/>
	<path style="fill:#00777A;" d="M183.25,10.93c3.56-0.73,8.67-1.13,13.52-1.13c7.53,0,12.39,1.38,15.79,4.45
		c2.75,2.43,4.29,6.15,4.29,10.37c0,7.21-4.54,11.98-10.28,13.93v0.24c4.21,1.46,6.72,5.34,8.02,11.01
		c1.78,7.61,3.08,12.88,4.21,14.98h-7.29c-0.89-1.54-2.11-6.24-3.64-13.04c-1.62-7.53-4.53-10.37-10.93-10.61h-6.64v23.65h-7.04
		V10.93z M190.3,35.79h7.21c7.53,0,12.31-4.13,12.31-10.37c0-7.04-5.1-10.12-12.55-10.2c-3.4,0-5.83,0.32-6.96,0.65V35.79z"/>
	<path style="fill:#00777A;" d="M238.08,64.79V41.63l-17.25-31.42h8.02l7.69,15.06c2.11,4.13,3.72,7.45,5.43,11.26h0.16
		c1.54-3.56,3.4-7.13,5.51-11.26l7.86-15.06h8.02l-18.3,31.34v23.24H238.08z"/>
	<path style="fill:#00777A;" d="M272.01,47.62l-5.67,17.17h-7.29l18.54-54.58h8.5l18.62,54.58h-7.53l-5.83-17.17H272.01z
		 M289.9,42.11l-5.34-15.71c-1.21-3.56-2.02-6.8-2.83-9.96h-0.16c-0.81,3.24-1.7,6.56-2.75,9.88l-5.34,15.79H289.9z"/>
</g>
<g>
	<path d="M108.13,103.12c0,2.76-1.05,4.88-3.14,6.36c-2.1,1.48-5.07,2.22-8.92,2.22c-4.12,0-7.38-0.63-9.8-1.9v-3.03
		c3.1,1.55,6.36,2.32,9.8,2.32c3.04,0,5.35-0.5,6.92-1.52c1.58-1.01,2.36-2.35,2.36-4.03c0-1.55-0.63-2.85-1.88-3.91
		c-1.26-1.06-3.32-2.1-6.19-3.11c-3.08-1.11-5.24-2.07-6.48-2.87c-1.25-0.8-2.19-1.71-2.82-2.72c-0.63-1.01-0.95-2.24-0.95-3.7
		c0-2.3,0.97-4.12,2.9-5.46c1.93-1.34,4.64-2.01,8.11-2.01c3.32,0,6.47,0.62,9.46,1.87l-1.05,2.55c-3.02-1.25-5.82-1.87-8.41-1.87
		c-2.51,0-4.5,0.42-5.97,1.25c-1.47,0.83-2.21,1.98-2.21,3.45c0,1.6,0.57,2.89,1.71,3.85s3.37,2.04,6.7,3.23
		c2.77,1,4.79,1.9,6.06,2.7c1.26,0.8,2.21,1.71,2.85,2.73S108.13,101.75,108.13,103.12z"/>
	<path d="M141.51,95.71c0,5.02-1.22,8.94-3.65,11.76c-2.44,2.82-5.79,4.23-10.08,4.23c-2.7,0-5.08-0.65-7.14-1.95
		c-2.06-1.3-3.63-3.17-4.73-5.61c-1.1-2.44-1.64-5.25-1.64-8.44c0-5.02,1.22-8.93,3.65-11.74c2.43-2.8,5.78-4.2,10.02-4.2
		c4.23,0,7.55,1.42,9.95,4.26C140.3,86.87,141.51,90.76,141.51,95.71z M117.22,95.71c0,4.23,0.93,7.53,2.79,9.9s4.49,3.55,7.89,3.55
		c3.4,0,6.03-1.18,7.89-3.55c1.86-2.37,2.79-5.67,2.79-9.9c0-4.25-0.94-7.54-2.82-9.88c-1.88-2.34-4.52-3.51-7.91-3.51
		c-3.4,0-6.02,1.17-7.86,3.5C118.14,88.14,117.22,91.44,117.22,95.71z"/>
	<path d="M161.47,82.79h-7.25v28.34h-2.8V82.79h-5.72v-1.64l5.72-1.05v-2.38c0-3.77,0.69-6.54,2.08-8.31
		c1.39-1.76,3.66-2.65,6.81-2.65c1.7,0,3.4,0.25,5.1,0.76l-0.65,2.43c-1.51-0.47-3.01-0.71-4.5-0.71c-2.19,0-3.74,0.65-4.66,1.94
		c-0.92,1.29-1.37,3.39-1.37,6.3v2.86h7.25V82.79z"/>
	<path d="M175.54,109.21c1.77,0,3.32-0.15,4.64-0.45v2.26c-1.36,0.45-2.93,0.68-4.7,0.68c-2.72,0-4.72-0.73-6.02-2.18
		c-1.29-1.45-1.94-3.74-1.94-6.85V82.79h-4.56v-1.64l4.56-1.27l1.42-6.97h1.44v7.45h9.03v2.43h-9.03v19.48
		c0,2.36,0.42,4.11,1.25,5.24C172.46,108.64,173.77,109.21,175.54,109.21z"/>
	<path d="M211.44,111.14l-6.74-20.58c-0.43-1.4-0.99-3.44-1.67-6.14h-0.17l-0.59,2.09l-1.27,4.11l-6.85,20.53h-2.77l-8.81-30.78h3
		l4.93,17.84c1.15,4.42,1.91,7.66,2.26,9.74h0.17c1.11-4.42,1.93-7.35,2.44-8.81l6.34-18.77h2.55l6.03,18.71
		c1.36,4.44,2.19,7.37,2.49,8.81h0.17c0.15-1.23,0.91-4.51,2.27-9.85l4.7-17.67h2.83l-8.35,30.78H211.44z"/>
	<path d="M247.46,111.14l-0.71-4.87h-0.23c-1.55,1.98-3.14,3.38-4.77,4.21c-1.63,0.82-3.56,1.23-5.79,1.23
		c-3.02,0-5.37-0.77-7.05-2.32c-1.68-1.55-2.52-3.69-2.52-6.43c0-3,1.25-5.33,3.75-6.99s6.12-2.54,10.86-2.63l5.86-0.17v-2.04
		c0-2.93-0.59-5.13-1.78-6.62c-1.19-1.49-3.11-2.24-5.75-2.24c-2.85,0-5.8,0.79-8.86,2.38l-1.05-2.44
		c3.38-1.58,6.72-2.38,10.02-2.38c3.38,0,5.9,0.88,7.57,2.63c1.67,1.76,2.51,4.49,2.51,8.21v20.47H247.46z M236.13,109.15
		c3.28,0,5.88-0.94,7.77-2.82c1.9-1.88,2.85-4.49,2.85-7.83v-3.03l-5.38,0.23c-4.32,0.21-7.4,0.88-9.25,2.02
		c-1.84,1.14-2.76,2.92-2.76,5.34c0,1.93,0.59,3.42,1.77,4.49C232.31,108.62,233.98,109.15,236.13,109.15z"/>
	<path d="M271.61,79.76c1.3,0,2.7,0.13,4.19,0.4l-0.54,2.69c-1.28-0.32-2.62-0.48-3.99-0.48c-2.62,0-4.78,1.11-6.46,3.34
		c-1.68,2.23-2.52,5.04-2.52,8.44v16.99h-2.8V80.36h2.38l0.28,5.55h0.2c1.26-2.26,2.61-3.85,4.05-4.77
		C267.83,80.22,269.57,79.76,271.61,79.76z"/>
	<path d="M294.49,111.7c-4.47,0-7.96-1.38-10.46-4.13c-2.5-2.76-3.75-6.62-3.75-11.58c0-4.91,1.21-8.84,3.62-11.79
		s5.67-4.43,9.77-4.43c3.62,0,6.48,1.26,8.58,3.79c2.09,2.53,3.14,5.96,3.14,10.31v2.27h-22.17c0.04,4.23,1.02,7.46,2.96,9.68
		c1.93,2.23,4.71,3.34,8.31,3.34c1.75,0,3.3-0.12,4.63-0.37s3.02-0.77,5.05-1.59v2.55c-1.74,0.76-3.34,1.27-4.81,1.54
		C297.88,111.56,296.26,111.7,294.49,111.7z M293.67,82.26c-2.96,0-5.34,0.98-7.13,2.93c-1.79,1.95-2.84,4.77-3.14,8.45h19.03
		c0-3.57-0.77-6.36-2.32-8.37C298.54,83.26,296.4,82.26,293.67,82.26z"/>
</g>
<g>
	<linearGradient id="SVGID_1_" gradientUnits="userSpaceOnUse" x1="5.7773" y1="47.9351" x2="65.5538" y2="47.9351">
		<stop  offset="0" style="stop-color:#007B8D"/>
		<stop  offset="0.5612" style="stop-color:#00929E"/>
		<stop  offset="1" style="stop-color:#00ABC5"/>
	</linearGradient>
	<path style="fill:url(#SVGID_1_);" d="M64.77,71.49c-1.67,8.67-5.96,16.85-12.32,22.99c1.49-7.96-2.2-16.12-7.58-22.21
		c-0.13-0.15-0.26-0.3-0.4-0.45c-2.66-2.91-5.67-5.42-8.82-7.79c-3.49-2.62-7.15-5.06-10.69-7.62c-6.73-4.87-13.27-10.54-16.69-18.1
		C5.3,31.75,4.97,24.05,7.35,17.25c2.39-6.79,7.47-12.6,13.88-15.86c-0.46,1.66-0.47,3.3-0.15,4.9h0c0,0,0,0.01,0.01,0.03
		c0.15,0.75,0.37,1.49,0.65,2.22c1.33,3.44,4,6.61,6.77,9.23c4.69,4.45,11.85,9.66,16.87,13.55c11.05,8.57,18.44,14.61,19.92,27.42
		c0.01,0.07,0.02,0.14,0.03,0.21C65.77,63.13,65.57,67.37,64.77,71.49z"/>
</g>
<g>
	
		<linearGradient id="SVGID_00000129884976104300673740000014866608919480622472_" gradientUnits="userSpaceOnUse" x1="8.2122" y1="81.8822" x2="48.6995" y2="81.8822">
		<stop  offset="0" style="stop-color:#F04E23"/>
		<stop  offset="0.3929" style="stop-color:#F37021"/>
		<stop  offset="1" style="stop-color:#FBB040"/>
	</linearGradient>
	<path style="fill:url(#SVGID_00000129884976104300673740000014866608919480622472_);" d="M47.49,98.67
		c-1.96,6.67-5.94,12.56-10.35,17.93c0.54-1.05,0.83-2.15,0.95-3.29c0.28-2.77-0.48-5.7-1.3-8.47c-0.98-3.31-2.94-6.32-5.48-8.77
		l0,0c-0.38-0.37-0.78-0.72-1.19-1.07c-3.11-2.62-9.4-6.76-12.3-9.61c-6.19-6.08-9.24-14.6-9.58-23.34v0
		c-0.19-5.03,0.5-10.13,2.01-14.89c8.55,10.48,16.28,14.15,24.41,20.15c0.16,0.12,0.32,0.23,0.48,0.35
		c1.68,1.26,3.38,2.71,4.97,4.29c0.01,0.01,0.02,0.01,0.02,0.02c0.08,0.08,0.16,0.16,0.24,0.25c0.64,0.65,1.27,1.33,1.91,2.04
		c1.2,1.37,2.29,2.81,3.21,4.27C49.18,84.43,49.46,92,47.49,98.67z"/>
</g>
</svg>
