<?xml version="1.0" encoding="utf-8"?>
<!-- Generator: Adobe Illustrator 26.1.0, SVG Export Plug-In . SVG Version: 6.00 Build 0)  -->
<svg version="1.1" id="Layer_1" xmlns="http://www.w3.org/2000/svg" xmlns:xlink="http://www.w3.org/1999/xlink" x="0px" y="0px"
	 viewBox="0 0 285.95 104.82" style="enable-background:new 0 0 285.95 104.82;" xml:space="preserve">
<g>
	<path d="M127.92,59.01h-7.99V27.99h-10.23v-6.65h28.44v6.65h-10.23V59.01z"/>
	<path d="M178.13,40.13c0,6.23-1.55,11.03-4.64,14.37c-3.09,3.35-7.52,5.02-13.29,5.02c-5.77,0-10.2-1.67-13.29-5.02
		c-3.09-3.35-4.64-8.16-4.64-14.43c0-6.27,1.55-11.06,4.65-14.36c3.1-3.31,7.54-4.96,13.33-4.96c5.79,0,10.21,1.67,13.28,5
		C176.6,29.08,178.13,33.87,178.13,40.13z M150.64,40.13c0,4.21,0.8,7.38,2.4,9.51c1.6,2.13,3.98,3.19,7.16,3.19
		c6.37,0,9.56-4.23,9.56-12.7c0-8.48-3.17-12.73-9.51-12.73c-3.18,0-5.57,1.07-7.19,3.21C151.45,32.74,150.64,35.92,150.64,40.13z"
		/>
	<path d="M193.92,44.56v14.45h-7.99V21.34h10.97c5.12,0,8.9,0.93,11.36,2.8c2.46,1.86,3.68,4.69,3.68,8.49
		c0,2.22-0.61,4.19-1.83,5.91c-1.22,1.73-2.95,3.08-5.18,4.06c5.67,8.47,9.36,13.94,11.08,16.41h-8.86l-8.99-14.45H193.92z
		 M193.92,38.06h2.58c2.52,0,4.39-0.42,5.59-1.26c1.2-0.84,1.8-2.16,1.8-3.97c0-1.79-0.61-3.06-1.84-3.81
		c-1.23-0.76-3.13-1.13-5.71-1.13h-2.42V38.06z"/>
	<path d="M242.46,59.01h-21.69V21.34h21.69v6.54h-13.71v8.27h12.75v6.54h-12.75v9.71h13.71V59.01z"/>
	<path d="M280.76,59.01h-9.12l-8.76-14.25l-8.76,14.25h-8.55l12.49-19.42l-11.7-18.24h8.81l8.11,13.55l7.96-13.55h8.6l-11.82,18.68
		L280.76,59.01z"/>
</g>
<g>
	<path style="fill:#383838;" d="M126.07,81.04c0,2.08-0.75,3.71-2.24,4.91c-1.5,1.2-3.58,1.79-6.24,1.79
		c-2.46,0-4.63-0.46-6.52-1.39v-4.53c1.55,0.69,2.87,1.18,3.94,1.46c1.08,0.28,2.06,0.42,2.95,0.42c1.07,0,1.89-0.2,2.46-0.61
		c0.57-0.41,0.86-1.02,0.86-1.83c0-0.45-0.13-0.85-0.38-1.2c-0.25-0.35-0.62-0.69-1.11-1.02c-0.49-0.33-1.48-0.84-2.98-1.56
		c-1.41-0.66-2.46-1.3-3.16-1.9c-0.7-0.61-1.26-1.32-1.68-2.12c-0.42-0.81-0.63-1.75-0.63-2.83c0-2.04,0.69-3.64,2.07-4.8
		c1.38-1.16,3.29-1.75,5.72-1.75c1.2,0,2.34,0.14,3.42,0.43c1.09,0.28,2.22,0.68,3.41,1.2l-1.57,3.79c-1.23-0.5-2.24-0.85-3.05-1.05
		c-0.8-0.2-1.59-0.3-2.37-0.3c-0.92,0-1.63,0.22-2.12,0.65c-0.49,0.43-0.74,0.99-0.74,1.68c0,0.43,0.1,0.81,0.3,1.13
		c0.2,0.32,0.52,0.63,0.95,0.93c0.44,0.3,1.47,0.84,3.09,1.61c2.15,1.03,3.62,2.06,4.42,3.09
		C125.67,78.27,126.07,79.54,126.07,81.04z"/>
	<path style="fill:#383838;" d="M151.13,75.9c0,3.81-0.94,6.74-2.83,8.78c-1.89,2.05-4.6,3.07-8.12,3.07s-6.23-1.02-8.12-3.07
		c-1.89-2.05-2.83-4.98-2.83-8.81c0-3.83,0.95-6.75,2.84-8.77c1.89-2.02,4.61-3.03,8.14-3.03c3.54,0,6.24,1.02,8.11,3.05
		C150.19,69.15,151.13,72.08,151.13,75.9z M134.33,75.9c0,2.57,0.49,4.51,1.46,5.81c0.98,1.3,2.43,1.95,4.38,1.95
		c3.89,0,5.84-2.59,5.84-7.76c0-5.18-1.94-7.77-5.81-7.77c-1.94,0-3.4,0.65-4.39,1.96C134.83,71.39,134.33,73.32,134.33,75.9z"/>
	<path style="fill:#383838;" d="M160.7,87.43h-4.8V64.42h13.19v4h-8.39v5.93h7.81v3.98h-7.81V87.43z"/>
	<path style="fill:#383838;" d="M182.46,87.43h-4.88V68.48h-6.25v-4.06h17.38v4.06h-6.25V87.43z"/>
	<path style="fill:#383838;" d="M214.66,87.43h-5.56l-3.12-12.09c-0.12-0.43-0.31-1.32-0.59-2.67c-0.28-1.35-0.44-2.25-0.48-2.71
		c-0.06,0.57-0.22,1.48-0.47,2.73c-0.25,1.25-0.45,2.15-0.58,2.68l-3.1,12.06h-5.54l-5.87-23.01h4.8l2.94,12.56
		c0.51,2.32,0.89,4.33,1.12,6.03c0.06-0.6,0.21-1.52,0.43-2.78c0.23-1.25,0.44-2.23,0.64-2.92l3.35-12.89h4.61l3.35,12.89
		c0.15,0.58,0.33,1.46,0.55,2.64c0.22,1.19,0.39,2.2,0.5,3.05c0.1-0.82,0.27-1.84,0.5-3.06c0.23-1.22,0.44-2.21,0.63-2.97
		l2.93-12.56h4.8L214.66,87.43z"/>
	<path style="fill:#383838;" d="M237.5,87.43l-1.67-5.48h-8.39l-1.67,5.48h-5.26l8.12-23.1h5.97l8.15,23.1H237.5z M234.67,77.86
		c-1.54-4.96-2.41-7.77-2.6-8.42c-0.19-0.65-0.33-1.16-0.42-1.54c-0.35,1.34-1.34,4.66-2.97,9.96H234.67z"/>
	<path style="fill:#383838;" d="M250.53,78.6v8.83h-4.88V64.42h6.7c3.13,0,5.44,0.57,6.94,1.71c1.5,1.14,2.25,2.87,2.25,5.19
		c0,1.35-0.37,2.56-1.12,3.61c-0.75,1.05-1.8,1.88-3.16,2.48c3.46,5.17,5.72,8.51,6.77,10.03h-5.41l-5.49-8.83H250.53z
		 M250.53,74.64h1.57c1.54,0,2.68-0.26,3.42-0.77c0.73-0.51,1.1-1.32,1.1-2.42c0-1.09-0.38-1.87-1.13-2.33
		c-0.75-0.46-1.91-0.69-3.49-0.69h-1.48V74.64z"/>
	<path style="fill:#383838;" d="M280.18,87.43h-13.25V64.42h13.25v4h-8.37v5.05h7.79v4h-7.79v5.93h8.37V87.43z"/>
</g>
<linearGradient id="SVGID_1_" gradientUnits="userSpaceOnUse" x1="86.4079" y1="15.6772" x2="15.3884" y2="86.6967">
	<stop  offset="0" style="stop-color:#00D954"/>
	<stop  offset="0.9956" style="stop-color:#00924A"/>
	<stop  offset="1" style="stop-color:#00924A"/>
</linearGradient>
<circle style="fill:url(#SVGID_1_);" cx="50.9" cy="51.19" r="50.22"/>
<g>
	<path style="fill:#FFFFFF;" d="M70.14,70.73c-1.42,0.53-2.92,0.89-4.42,1.08c-4.32,0.55-8.68-0.04-13.03-0.25
		c-4.36-0.21-8.74-0.04-13.08,0.52c-0.62,0.08-1.39,0.1-1.71-0.44c-0.15-0.25-0.15-0.55-0.15-0.84c0-2.69,0-5.38,0-8.07
		c0-0.34,0.01-0.7,0.2-0.98c0.31-0.45,0.95-0.49,1.49-0.48c6.76,0.06,13.52,0.12,20.28,0.18c1.63,0.01,3.35,0,4.74-0.84
		c1.39-0.85,2.2-2.86,1.23-4.16c-0.82-1.08-2.38-1.18-3.74-1.18c-6.83,0.01-13.67,0.02-20.5,0.03c-2.73,0-5.49,0-8.16-0.55
		c-2.68-0.56-5.3-1.73-7.15-3.74c-5.43-5.92-2.44-14.69,2.8-19.54c0.46-0.42,0.95-0.84,1.55-1.03c0.47-0.15,0.96-0.15,1.45-0.16
		c9.13-0.04,18.26-0.01,27.38,0.09c-1.77,1.79-2.97,4.05-4.42,6.11c-1.45,2.05-3.31,4-5.74,4.66c-2.89,0.79-5.96-0.41-8.95-0.22
		c-1.16,0.07-2.36,0.38-3.23,1.16c-0.87,0.78-1.31,2.11-0.8,3.16c0.71,1.46,2.67,1.67,4.29,1.67c6.98,0.03,13.95,0.05,20.93,0.08
		c2.83,0.01,5.7,0.02,8.44,0.72c2.75,0.69,5.4,2.14,6.99,4.49c1.24,1.84,1.74,4.1,1.77,6.32c0.04,2.5-0.51,5.05-1.84,7.16
		C75.24,68.07,72.83,69.72,70.14,70.73z"/>
	<path style="fill:#FFFFFF;" d="M23.49,50.5c2.85,3.94,6.84,5.51,11.3,6.06c1.13,0.14,1.39,0.52,1.38,1.57
		c-0.05,4.18-0.05,8.36,0,12.54c0.01,1.1-0.33,1.47-1.45,1.45c-3.39-0.07-6.79-0.04-10.18-0.02c-0.82,0.01-1.36-0.06-1.35-1.13
		c0.05-6.66,0.03-13.33,0.05-19.99C23.24,50.88,23.34,50.79,23.49,50.5z"/>
	<path style="fill:#FFFFFF;" d="M53.1,41.12c2.87-3.72,5.44-7.06,8.01-10.41c0.29-0.38,0.67-0.46,1.12-0.46
		c4.9,0.01,9.8,0.01,14.66,0.01c0.37,0.62-0.15,0.86-0.37,1.15c-2.19,2.9-4.41,5.78-6.61,8.67c-0.41,0.53-0.76,1.06-1.57,1.05
		C63.43,41.11,58.53,41.12,53.1,41.12z"/>
</g>
</svg>
