<?xml version="1.0" encoding="utf-8"?>
<!-- Generator: Adobe Illustrator 26.1.0, SVG Export Plug-In . SVG Version: 6.00 Build 0)  -->
<svg version="1.1" id="Layer_1" xmlns="http://www.w3.org/2000/svg" xmlns:xlink="http://www.w3.org/1999/xlink" x="0px" y="0px" width="370" height="115"
	 viewBox="0 0 370 115" style="enable-background:new 0 0 370 115;" xml:space="preserve">
<style type="text/css">
	.st0{fill:#FF045F;}
	.st1{fill:#FFC100;}
	.st2{fill:#00B175;}
	.st3{fill:#515151;}
	.st4{fill:#00B57A;}
	.st5{fill:#FEFEFE;}
	.st6{fill:#FCFDFD;}
	.st7{fill:#3CC698;}
	.st8{fill:#FCFEFD;}
	.st9{fill:#76D6B6;}
</style>
<g>
	<path class="st0" d="M63.1,20.2l3.4,3.4c1.1,1.1,3.1,1.1,4.2,0l2.8-2.8l0.6-0.6L90.6,3.8c0.6-0.6,0.2-1.7-0.7-1.7h-5.7
		c-1.9,0-3.7,0.7-5,2.1L68.7,14.7l-3.5-3.5c-1.3-1.3-3-2-4.8-2h-8.2L63.1,20.2L63.1,20.2z"/>
	<path class="st1" d="M74.2,35.2l-3.4-3.4c-1.1-1.1-3.1-1.1-4.2,0l-2.9,2.8l-0.6,0.6L46.7,51.6c-0.6,0.6-0.2,1.7,0.7,1.7h5.8
		c1.8,0,3.6-0.7,4.8-2l10.6-10.6l3.4,3.4c1.3,1.3,3.1,2.1,5,2.1h8.1L74.2,35.2L74.2,35.2z"/>
	<path class="st2" d="M55.6,27.7l-3.4,3.4c-1.3,1.3-2,3.1-2,4.9v8.2l11-11l0,0l3.4-3.4c1.1-1.1,1.1-3.1,0-4.2L44.7,5.7
		C44.1,5.1,43,5.6,43,6.4v5.8c0,1.9,0.7,3.6,2,5L55.6,27.7z"/>
	<path class="st2" d="M92.2,38.2L81.7,27.7l3.5-3.5c1.3-1.3,1.9-3,1.9-4.7v-8.3l-11,11l0,0l-3.4,3.4c-1.1,1.1-1.1,3,0,4.2l3.4,3.4
		l0,0l16.4,16.4c0.6,0.6,1.7,0.1,1.7-0.6v-5.9C94.2,41.3,93.5,39.5,92.2,38.2z"/>
</g>
<g>
	<path class="st3" d="M120.8,42.6h-7.4V13.9h-9.5V7.8h26.4V14h-9.5V42.6z"/>
	<path class="st3" d="M150,15.5c1,0,1.8,0.1,2.4,0.2l-0.6,6.8c-0.6-0.1-1.3-0.2-2.2-0.2c-2.3,0-4.2,0.6-5.5,1.8
		c-1.3,1.2-1.9,2.9-1.9,5v13.6H135V16h5.5l1.1,4.5h0.4c0.9-1.5,1.9-2.7,3.4-3.6C146.7,15.9,148.3,15.5,150,15.5z"/>
	<path class="st3" d="M176.1,42.6l-1-3.4h-0.4c-0.8,1.2-1.9,2.2-3.3,2.9c-1.4,0.6-3.1,1-4.9,1c-3.2,0-5.5-0.9-7.1-2.5
		c-1.6-1.7-2.4-4.1-2.4-7.3V16h7.3v15.6c0,1.9,0.4,3.4,1,4.3c0.7,0.9,1.8,1.4,3.2,1.4c2,0,3.5-0.6,4.4-2c0.9-1.4,1.4-3.6,1.4-6.7V16
		h7.3v26.6C181.6,42.6,176.1,42.6,176.1,42.6z"/>
	<path class="st3" d="M207.9,34.7c0,2.7-0.9,4.8-2.9,6.2c-1.9,1.4-4.7,2.2-8.5,2.2c-1.9,0-3.6-0.1-5-0.4c-1.4-0.3-2.7-0.6-3.8-1.1
		v-6c1.4,0.6,2.9,1.1,4.6,1.6c1.7,0.4,3.2,0.6,4.5,0.6c2.7,0,3.9-0.8,3.9-2.3c0-0.6-0.1-1-0.5-1.4s-0.9-0.8-1.8-1.2
		c-0.9-0.4-2-1-3.4-1.6c-2.1-0.9-3.6-1.7-4.5-2.4c-0.9-0.7-1.7-1.6-2.1-2.5c-0.4-0.9-0.6-2.1-0.6-3.5c0-2.4,0.9-4.2,2.7-5.5
		c1.9-1.3,4.5-1.9,7.8-1.9c3.2,0,6.3,0.7,9.3,2.1l-2.2,5.2c-1.4-0.6-2.6-1-3.7-1.4c-1.1-0.4-2.4-0.6-3.5-0.6c-2.2,0-3.2,0.6-3.2,1.7
		c0,0.6,0.4,1.2,1,1.7c0.6,0.5,2.2,1.1,4.5,2.2c2.1,0.9,3.6,1.7,4.6,2.4c0.9,0.7,1.7,1.6,2.2,2.5C207.7,32.3,207.9,33.4,207.9,34.7z
		"/>
	<path class="st3" d="M224.8,37.3c1.3,0,2.8-0.3,4.6-0.9v5.4c-1.8,0.8-4,1.2-6.7,1.2c-2.9,0-5-0.7-6.3-2.2c-1.3-1.4-2-3.7-2-6.6
		V21.4h-3.4v-3.1l4-2.4l2.1-5.6h4.7V16h7.5v5.5h-7.5v12.9c0,1,0.3,1.8,0.9,2.3C223.1,37.1,223.8,37.3,224.8,37.3z"/>
	<path class="st3" d="M249.4,43.1c-3.2,0-5.6-1.1-7.4-3.4h-0.4c0.3,2.2,0.4,3.5,0.4,3.9v10.8h-7.3V16h5.9l1,3.4h0.4
		c1.7-2.7,4.2-3.9,7.5-3.9c3.2,0,5.6,1.2,7.4,3.7c1.8,2.4,2.7,5.8,2.7,10.1c0,2.9-0.4,5.3-1.2,7.4s-2,3.7-3.6,4.8
		C253.3,42.5,251.5,43.1,249.4,43.1z M247.3,21.3c-1.8,0-3.1,0.6-3.9,1.7c-0.9,1.1-1.2,2.9-1.3,5.5v0.8c0,2.9,0.4,4.9,1.3,6.2
		c0.9,1.2,2.2,1.9,4,1.9c3.2,0,4.9-2.7,4.9-8c0-2.7-0.4-4.6-1.2-5.9C250.3,21.9,249,21.3,247.3,21.3z"/>
	<path class="st3" d="M273,42.6h-7.3V5.5h7.3V42.6z"/>
	<path class="st3" d="M304.8,29.3c0,4.3-1.1,7.8-3.4,10.2c-2.3,2.4-5.5,3.7-9.6,3.7c-2.6,0-4.8-0.6-6.7-1.7
		c-1.9-1.1-3.4-2.7-4.5-4.8c-1.1-2.1-1.6-4.5-1.6-7.3c0-4.4,1.1-7.8,3.4-10.1c2.3-2.4,5.5-3.6,9.6-3.6c2.6,0,4.8,0.6,6.7,1.7
		c1.9,1.1,3.4,2.7,4.5,4.8C304.3,24,304.8,26.5,304.8,29.3z M286.4,29.3c0,2.7,0.4,4.7,1.3,6c0.9,1.4,2.3,2,4.2,2
		c1.9,0,3.3-0.6,4.2-2c0.9-1.4,1.3-3.4,1.3-6c0-2.7-0.4-4.6-1.3-6c-0.9-1.3-2.3-2-4.2-2s-3.3,0.6-4.2,1.9
		C286.8,24.5,286.4,26.6,286.4,29.3z"/>
	<path class="st3" d="M322.1,37.3c1.3,0,2.8-0.3,4.6-0.9v5.4c-1.8,0.8-4,1.2-6.7,1.2c-2.9,0-5-0.7-6.3-2.2c-1.3-1.4-2-3.7-2-6.6
		V21.4h-3.4v-3.1l4-2.4l2.1-5.6h4.7V16h7.5v5.5H319v12.9c0,1,0.3,1.8,0.9,2.3C320.4,37.1,321.1,37.3,322.1,37.3z"/>
</g>
<path class="st4" d="M278.1,111.2c0-0.7-0.1-1.4-0.1-2.1c-0.6-0.8-0.4-1.7-0.4-2.5c0-10.9,0-21.8,0-32.7c0.1-4.1-0.1-8.2-0.1-12.3
	c0-2.4,0.4-2.7,2.8-2.8c1.4,0,2.7-0.1,4,0.1c2.4-0.1,4.7-0.1,7.1,0c2.4-0.1,4.7-0.1,7,0c2.4-0.1,4.7-0.1,7,0c2.4-0.1,4.7-0.1,7,0
	c2.4-0.1,4.7-0.1,7.1,0c1.7-0.1,3.5,0,5.2,0c0.6,0,1.3,0.1,1.8,0.5c3.3,0.2,3.3,0.2,3.3,3.5c0,15.6,0,31.2,0.1,46.8
	c0,1.1-0.1,1.7-1.5,1.7c-16.6-0.1-33.2-0.1-49.7-0.1C278.6,111.3,278.3,111.3,278.1,111.2z"/>
<path class="st4" d="M100.1,59.4c0.4,4.8,0.1,9.6,0.1,14.4c0.1,11.9,0,23.8,0.1,35.8c0,1.4-0.4,1.8-1.7,1.8c-16.2-0.1-32.3,0-48.5,0
	c-1.4,0-1.8-0.3-1.8-1.7c0.1-15.9,0.1-31.8,0.1-47.8c0-2.4,0-2.4,2.5-2.5c0.2,0,0.5-0.1,0.7-0.1c1.5-0.9,3.2-0.4,4.7-0.5
	c0.7-0.1,1.5,0,2.2,0c2.4-0.1,4.7-0.1,7,0c2.4-0.1,4.7-0.1,7,0c2.4-0.1,4.7-0.1,7,0c2.4-0.1,4.7-0.1,7,0c2.4-0.1,4.7-0.1,7,0
	c1.5-0.1,3-0.1,4.5,0C99,58.8,99.6,58.8,100.1,59.4z"/>
<path class="st4" d="M157.6,59.4c0,9.5,0.1,18.9,0.1,28.4c0,7.1,0,14.2,0,21.3c0,2.2,0,2.2-2.3,2.2c-16,0-32,0-48,0
	c-1,0-1.7,0.1-1.7-1.4c0.1-16.7,0.1-33.4,0.1-50c0-0.1,0.1-0.4,0.1-0.5c0.6-0.6,1.4-0.5,2.2-0.5c2.3-0.1,4.7-0.1,7,0
	c2.4-0.1,4.7-0.1,7,0c2.4-0.1,4.7-0.1,7,0c2.4-0.1,4.7-0.1,7,0c2.4-0.1,4.7-0.1,7,0c2.4-0.1,4.7-0.1,7,0c2.3,0,4.6-0.2,6.9,0.1
	C157.4,59.1,157.5,59.2,157.6,59.4z"/>
<path class="st4" d="M163,73.8c0-2.3,0-4.7,0-7c0.4-2,0.1-4.1,0.1-6.1c0-0.9,0.2-1.4,1.2-1.4c1.5-0.9,3.2-0.4,4.7-0.5
	c0.7-0.1,1.5,0,2.2,0c2.4-0.1,4.7-0.1,7,0c2.4-0.1,4.7-0.1,7,0c2.4-0.1,4.7-0.1,7,0c2.4-0.1,4.7-0.1,7,0c2.4-0.1,4.7-0.1,7,0
	c2.3,0,4.6-0.1,6.9,0c0.6,0.1,1.1,0,1.5,0.5c0,9.4,0.1,18.7,0.1,28.1c0,7.3-0.1,14.6,0,21.8c0,1.5-0.3,2-1.9,2
	c-15.9-0.1-31.8-0.1-47.8,0c-1.9,0-2.7-0.4-2.5-2.3c0.1-2.4,0.1-4.7,0-7c0.1-2.4,0.1-4.7,0-7c0.1-2.4,0.1-4.7,0-7
	c0.1-2.4,0.1-4.7,0-7C163.2,78.5,163.2,76.2,163,73.8z"/>
<path class="st4" d="M220.5,73.8c0-2.4,0-4.7,0-7c0-2.4,0-4.7,0-7c0.1-0.1,0.2-0.3,0.4-0.4c1.4-0.9,2.9-0.4,4.5-0.5
	c0.9-0.1,1.7-0.1,2.6,0c2.4-0.1,4.7-0.1,7,0c2.4-0.1,4.7-0.1,7,0c2.4-0.1,4.7-0.1,7,0c2.4-0.1,4.7-0.1,7,0c2.4-0.1,4.7-0.1,7,0
	c2.3-0.1,4.7-0.1,7,0c0.9,0.1,1.8-0.2,2.5,0.6c0,16.9,0,33.7,0.1,50.6c0,1.1-0.4,1.4-1.4,1.4c-16.6,0-33.2,0-49.7-0.1
	c-0.4,0-0.7-0.1-1-0.1c0-0.7,0-1.4-0.1-2.1c0-2.4,0-4.7,0-7s0-4.7,0-7c0-2.4,0-4.7,0-7c0-2.4,0-4.7,0-7
	C220.5,78.5,220.5,76.2,220.5,73.8z"/>
<path class="st5" d="M304.5,94.8c-3.7,2.7-7.3,5.2-11.1,7.9c-0.5-0.5-0.1-0.9,0-1.3c1.1-3.4,2.2-6.8,3.3-10.2c0.4-0.9,0.1-1.4-0.6-2
	c-3.2-2.3-6.4-4.6-9.6-6.9c0.3-0.7,0.9-0.4,1.2-0.4c3.4,0,6.8-0.1,10.3,0c1.3,0,1.9-0.3,2.4-1.7c1.1-3.7,2.4-7.4,3.6-11.1
	c0.8,0.2,0.6,0.9,0.9,1.4c1.1,3.4,2.2,6.7,3.2,10.1c0.3,0.9,0.7,1.3,1.7,1.2c3.4-0.1,6.8,0,10.3,0c0.6,0,1.1-0.2,1.9,0.3
	c-5.5,4-10.8,7.9-16.2,11.8C305.4,94.4,305.1,94.8,304.5,94.8z"/>
<path class="st6" d="M306.4,94.3c1.5-0.4,3.1-0.8,4.6-1.1c0.5-0.1,1-0.4,1.3,0.4c1,3,1.9,6,2.6,9.2c-2.9-2.1-5.7-4.2-8.6-6.2
	c-0.6-0.5-1.7-0.7-1.8-1.7C305.1,94.5,305.8,94.5,306.4,94.3z"/>
<path class="st7" d="M306.4,94.3c-0.6,0.4-1.2,0.6-1.9,0.4v0.1c0.1-0.6,0.7-0.6,1.1-0.9C305.9,94.1,306.1,94.2,306.4,94.3z"/>
<path class="st5" d="M74.1,95c-3.2,2.4-6.4,4.7-9.6,7.1c-0.3,0.2-0.6,0.4-1.1,0.7c0.1-1.4,0.6-2.4,0.9-3.5c0.9-2.7,1.7-5.2,2.6-7.8
	c0.4-1.1,0.3-1.9-0.8-2.6c-3.2-2.2-6.2-4.5-9.4-7.2c0.9,0,1.9,0,2.8,0c3,0,6-0.1,9,0c1.1,0,1.7-0.3,2-1.4c1.1-3.8,2.4-7.5,3.9-11.4
	c0.6,1.9,1.2,3.9,1.9,5.8c0.6,1.9,1.3,3.8,1.9,5.7c0.3,1.1,0.8,1.4,1.9,1.4c3.9-0.1,7.8,0,11.8,0c0.1,0.1,0.1,0.3,0.2,0.4
	c-5.7,4-11.3,8-16.9,12.1C74.9,94.7,74.4,94.8,74.1,95z"/>
<path class="st6" d="M74.1,95c0.1-0.6,0.5-0.8,1-0.8c0.8,0.9,1.6-0.1,2.4-0.1c1.6-0.1,3.5-1.7,4.7-0.8c1.1,0.8,1.2,2.9,1.7,4.5
	c0.5,1.6,1,3.2,1.2,5c-2.9-2.1-5.7-4.2-8.7-6.2C75.7,96,75.1,95.3,74.1,95z"/>
<path class="st5" d="M131.3,95.4c-3.4,2.5-6.9,5-10.3,7.5c-0.1-0.1-0.1-0.1-0.3-0.3c1.1-3.2,2.2-6.5,3.2-9.8
	c0.9-2.9,0.9-2.9-1.6-4.7c-2.7-1.9-5.4-3.9-8.1-5.9c0.3-0.6,0.8-0.4,1.2-0.4c3.4,0,6.8-0.1,10.2,0c1.4,0.1,2.1-0.4,2.4-1.7
	c1.1-3.7,2.4-7.3,3.7-11.5c1.3,4,2.6,7.5,3.6,11.1c0.5,1.7,1.2,2.2,2.9,2.1c3.7-0.1,7.3-0.1,11.1,0.4c-5.6,4-11.1,8.1-16.7,12.1
	C132.4,95,131.7,95,131.3,95.4z"/>
<path class="st8" d="M133,94.6c1.9-0.5,3.7-0.9,5.6-1.4c0.9-0.2,1.2-0.1,1.5,0.9c0.7,2.4,1.5,4.8,2.3,7.2c0.1,0.4,0.3,0.7,0,1
	c-0.4,0.4-0.8-0.1-1.1-0.3c-3-2.2-6.1-4.4-9.1-6.6C132.1,94.6,132.7,94.8,133,94.6z"/>
<path class="st9" d="M133,94.6c-0.2,0.2-0.5,0.5-0.7,0.7c-0.4,0-0.6,0-1,0c0.4-0.5,0.9-0.8,1.4-1C132.8,94.5,132.9,94.5,133,94.6z"
	/>
<path class="st5" d="M188.4,95.5c-3.3,2.5-6.7,5-10,7.5c-0.1-0.1-0.2-0.1-0.3-0.2c1.1-3.5,2.2-7.1,3.4-10.6c0.6-1.6,0.4-2.5-1.1-3.4
	c-3.1-2-6-4.3-8.8-6.8c2.6,0,5.2,0,7.8,0c1.7,0,3.8,0.6,5.2-0.3s1.3-3.2,1.9-4.8c0.9-2.5,1.7-5.1,2.7-8.1c1.4,4.2,2.6,7.8,3.7,11.5
	c0.4,1.3,0.9,1.8,2.3,1.7c3.3-0.1,6.6-0.1,9.8,0c0.6,0,1.1-0.2,1.9,0.4c-5.7,4.1-11.3,8.1-16.9,12.1C189.7,95,188.8,94.8,188.4,95.5
	z"/>
<path class="st6" d="M188.4,95.5c0.2-0.9,1-1,1.7-1.2c0.4,0.9,1,0.2,1.5,0.1c1.5-0.4,2.9-0.7,4.5-1.1c0.5-0.1,1.1-0.4,1.3,0.3
	c0.9,2.9,2,5.7,2.7,8.7c0,0.1-0.1,0.2-0.1,0.4c-3.2-2.3-6.2-4.5-9.4-6.8C189.8,95.4,189.3,94.8,188.4,95.5z"/>
<path class="st5" d="M246.9,95c-3.4,2.1-6.4,4.6-9.6,6.8c-0.4,0.3-0.8,0.9-1.7,0.9c1.1-3.7,2.2-7.3,3.5-10.7
	c0.6-1.6,0.3-2.4-1.1-3.3c-3.1-2.1-6-4.3-9-6.5c0.6-0.5,1.2-0.4,1.8-0.4c3.4,0,6.8-0.1,10.2,0c1.1,0,1.5-0.4,1.9-1.4
	c1.1-3.7,2.4-7.5,3.7-11.3c0.6,0.4,0.7,1,0.9,1.5c1.1,3.2,2.2,6.5,3.2,9.7c0.4,1.1,0.9,1.5,1.9,1.4c3.9-0.1,7.9,0,12.4,0
	c-6.1,4.5-11.8,8.6-17.4,12.8C247.4,95,247.3,95.1,246.9,95z"/>
<path class="st8" d="M246.9,95c0.1-0.1,0.3-0.3,0.4-0.4c2-0.1,3.9-0.8,5.8-1.3c1.1-0.4,1.7,0,2,1.1c0.8,2.7,1.7,5.5,2.3,8.5
	C253.9,100.2,250.4,97.6,246.9,95z"/>
</svg>
